<?xml version="1.0" encoding="utf-8"?>
<!-- Generator: Adobe Illustrator 23.0.1, SVG Export Plug-In . SVG Version: 6.00 Build 0)  -->
<svg version="1.1" id="Laag_1" xmlns="http://www.w3.org/2000/svg" xmlns:xlink="http://www.w3.org/1999/xlink" x="0px" y="0px"
	 viewBox="0 0 595.28 841.89" style="enable-background:new 0 0 595.28 841.89;" xml:space="preserve">
<style type="text/css">
	.st0{fill:none;stroke:#000000;stroke-width:0.375;}
	.st1{font-family:'Helvetica-Light';}
	.st2{font-size:12.0061px;}
	.st3{font-family:'Helvetica-Bold';}
	.st4{font-size:16.3719px;}
</style>
<rect x="90.15" y="42.32" class="st0" width="415.36" height="758.78"/>
<rect x="89.87" y="42.6" class="st0" width="415.36" height="758.78"/>
<line class="st0" x1="89.6" y1="99.56" x2="505.5" y2="99.56"/>
<line class="st0" x1="89.6" y1="188.28" x2="505.5" y2="188.28"/>
<line class="st0" x1="89.6" y1="245.98" x2="505.5" y2="245.98"/>
<line class="st0" x1="89.6" y1="626.07" x2="505.5" y2="626.07"/>
<line class="st0" x1="89.6" y1="769.94" x2="505.5" y2="769.94"/>
<line class="st0" x1="297.82" y1="708.52" x2="505.5" y2="708.52"/>
<line class="st0" x1="298.1" y1="625.52" x2="298.1" y2="769.94"/>
<line class="st0" x1="220.64" y1="245.43" x2="220.64" y2="625.52"/>
<line class="st0" x1="298.1" y1="101.02" x2="298.1" y2="188.28"/>
<text transform="matrix(1 0 0 1 307.6523 118.0312)"><tspan x="0" y="0" class="st1 st2">Naam en voo</tspan><tspan x="71.4" y="0" class="st1 st2">r</tspan><tspan x="75.6" y="0" class="st1 st2">naam van de </tspan></text>
<text transform="matrix(1 0 0 1 307.6523 132.4385)" class="st1 st2">voorschrijver:</text>
<text transform="matrix(1 0 0 1 307.6523 161.2529)" class="st3 st2">DOKTER GOOGLE</text>
<text transform="matrix(1 0 0 1 99.4307 207.2959)" class="st1 st2">DOOR DE VOORSCHRIJVER IN TE VULLEN:</text>
<text transform="matrix(1 0 0 1 99.4307 221.7031)"><tspan x="0" y="0" class="st1 st2">Naam en voo</tspan><tspan x="71.4" y="0" class="st1 st2">r</tspan><tspan x="75.6" y="0" class="st1 st2">naam</tspan></text>
<text transform="matrix(1 0 0 1 99.4307 236.1113)"><tspan x="0" y="0" class="st1 st2">van de </tspan><tspan x="40.04" y="0" class="st1 st2">r</tspan><tspan x="43.83" y="0" class="st1 st2">echthebbende: ................................................................................</tspan></text>
<text transform="matrix(1 0 0 1 99.4307 264.9854)"><tspan x="0" y="0" class="st1 st2">V</tspan><tspan x="6.69" y="0" class="st1 st2">oorbehouden </tspan></text>
<text transform="matrix(1 0 0 1 99.4307 279.3926)" class="st1 st2">aan het </text>
<text transform="matrix(1 0 0 1 99.4307 293.7998)" class="st1 st2">verpakkingsvignet</text>
<text transform="matrix(1 0 0 1 229.6484 264.7939)" class="st3 st2">R/</text>
<text transform="matrix(1 0 0 1 99.4307 644.2578)" class="st1 st2">Stempel van de voorschrijver</text>
<text transform="matrix(1 0 0 1 306.8359 645.0752)" class="st1 st2">Datum en handtekening van de </text>
<text transform="matrix(1 0 0 1 306.8359 659.4824)" class="st1 st2">voorschrijver</text>
<text transform="matrix(1 0 0 1 307.6523 727.2568)"><tspan x="0" y="0" class="st1 st2">Uitvoerbaar vanaf voo</tspan><tspan x="118.1" y="0" class="st1 st2">r</tspan><tspan x="122.3" y="0" class="st1 st2">noemde </tspan></text>
<text transform="matrix(1 0 0 1 307.6523 741.6621)" class="st1 st2">datum of vanaf: </text>
<text transform="matrix(1 0 0 1 307.6523 764.7979)" class="st1 st2">........................................................</text>
<text transform="matrix(1 0 0 1 167.4385 791.8467)" class="st1 st4">GENEESMIDDELENVOORSCHRIFT</text>
</svg>
