<?xml version="1.0" encoding="utf-8"?>
<!-- Generator: Adobe Illustrator 23.0.1, SVG Export Plug-In . SVG Version: 6.00 Build 0)  -->
<svg version="1.1" id="Laag_1" xmlns="http://www.w3.org/2000/svg" xmlns:xlink="http://www.w3.org/1999/xlink" x="0px" y="0px"
	 viewBox="0 0 283.46 283.46" style="enable-background:new 0 0 283.46 283.46;" xml:space="preserve">
<style type="text/css">
	.st0{clip-path:url(#SVGID_2_);fill:none;stroke:#517ABD;stroke-width:0.916;stroke-miterlimit:3.664;}
</style>
<g>
	<defs>
		<rect id="SVGID_1_" y="99.25" width="296.61" height="65.21"/>
	</defs>
	<clipPath id="SVGID_2_">
		<use xlink:href="#SVGID_1_"  style="overflow:visible;"/>
	</clipPath>
	<path class="st0" d="M58.98,129.28c-1.9-3.15-5.6-4.85-9.25-4.85c-7.9,0-11.55,6.45-11.55,13.7c0,7.65,3.35,13.6,11.7,13.6
		c3.3,0,7.25-1.85,9-5.25h0.1v4.55h3v-36h-3V129.28z M58.98,137.98c0,6.25-3.1,11.05-8.75,11.05c-5.05,0-8.8-3.65-8.85-10.15
		c-0.25-6.5,2.65-11.75,8.85-11.75C55.68,127.13,58.98,132.13,58.98,137.98z"/>
	<path class="st0" d="M73.12,119.48v-4.45h-3.3v4.45H73.12z M72.97,151.03v-25.9h-3v25.9H72.97z"/>
	<path class="st0" d="M88.37,136.48c-6.05,0.8-9.05,3.45-9.05,7.8c0,5,4.1,7.45,8.65,7.45c3.75,0,7.15-1.5,9.65-4.3
		c0.05,1.8,0.4,3.55,2.4,3.85c0.45,0.1,0.85,0.15,1.35,0.15c0.85,0,1.9-0.35,2.35-0.5v-2.35c-2.55,0.9-3.15,0.35-3.15-2v-14.1
		c0-6-4.15-8.05-9.4-8.05c-5.65,0-10.2,2.45-10.65,8.55h3.05c0.55-4.5,3.4-5.85,7.55-5.85c4.65,0,6.45,2.2,6.45,5.25
		c0,0.9-0.1,2.25-1.1,2.7s-2.85,0.75-3.95,0.85L88.37,136.48z M97.57,141.48c0,5.25-4.7,7.55-9.45,7.55c-2.85,0-5.6-1.5-5.6-4.65
		c0-3.5,2.75-5.15,7.3-5.5c2.6-0.2,5.2-0.4,7.75-1.45V141.48z"/>
	<path class="st0" d="M128.42,129.68h-0.1c-1.75-3.4-5.7-5.25-9-5.25c-8.35,0-11.7,5.95-11.7,13.6c0,7.25,3.65,13.7,11.55,13.7
		c3.65,0,7.35-1.7,9.25-4.85c0.15,5.95-0.95,12.05-9.15,12.05c-3.55,0-6.85-0.85-7.75-4.75h-3.2c0.2,3.1,3.35,7.45,10.95,7.45
		c9.85,0,12.15-6.15,12.15-13.1v-23.4h-3V129.68z M128.42,138.18c0,5.85-3.3,10.85-8.75,10.85c-6.2,0-9.1-5.25-8.85-11.75
		c0.05-6.5,3.8-10.15,8.85-10.15C125.32,127.13,128.42,131.93,128.42,138.18z"/>
	<path class="st0" d="M141.97,137.08c0-1.8,0.05-3.25,0.65-4.9c0.95-2.65,3.5-5.05,7.2-5.05c4.8,0,6.7,2.35,6.7,7v16.9h3v-16.95
		c0-2.15-0.05-4.1-1.3-5.95c-1.85-2.7-4.75-3.7-7.9-3.7c-3.6,0-5.95,1.75-8.35,4.3v-3.6h-3v25.9h3V137.08z"/>
	<path class="st0" d="M185.87,138.08c0,5.55-2.5,10.95-8.8,10.95c-5.75,0-8.8-4.5-8.8-10.95c0-5.6,2.5-10.95,8.8-10.95
		C183.42,127.13,185.82,131.98,185.87,138.08z M177.07,151.73c7.25,0,12-5.45,12-13.65c0-7.6-3.9-13.65-12-13.65
		c-8,0-12,6.1-12,13.65C165.07,147.13,170.47,151.63,177.07,151.73z"/>
	<path class="st0" d="M193.27,142.93c0.25,4.9,3.75,8.8,9.85,8.8c6.1,0,10.55-2.6,10.55-7.55c0-9.95-16.6-5.55-16.6-12.6
		c0-2.65,2.05-4.45,5.85-4.45c3.75,0,6.45,1.45,7,5.45h3.05c-0.75-5.85-4.4-8.15-10-8.15c-5.75,0-9.1,3.1-9.1,7.4
		c0,10.2,16.6,4.9,16.6,12.4c0,2.5-2.05,4.8-6.4,4.8c-4.5,0-6.8-1.65-7.75-6.1H193.27z"/>
	<path class="st0" d="M241.52,138.78c0.05-9.3-4.3-14.35-11.4-14.35c-7.4,0-11.9,6.2-11.9,13.75c0,7.65,3.6,13.55,11.9,13.55
		c6.6,0,9.7-3.75,11.2-8.65h-3.35c-0.9,3.8-3.95,5.95-7.85,5.95c-5.75,0-8.75-4.65-8.7-10.25H241.52z M221.42,136.28
		c0.6-4.9,3.4-9.15,8.7-9.15c5.4,0,8.2,4.1,8.2,9.15H221.42z"/>
</g>
</svg>
