<?xml version="1.0" encoding="utf-8"?>
<!-- Generator: Adobe Illustrator 23.0.1, SVG Export Plug-In . SVG Version: 6.00 Build 0)  -->
<svg version="1.1" id="Laag_1" xmlns="http://www.w3.org/2000/svg" xmlns:xlink="http://www.w3.org/1999/xlink" x="0px" y="0px"
	 viewBox="0 0 283.46 283.46" style="enable-background:new 0 0 283.46 283.46;" xml:space="preserve">
<style type="text/css">
	.st0{fill:none;stroke:#517ABD;stroke-width:0.916;stroke-miterlimit:3.664;}
	.st1{clip-path:url(#SVGID_2_);fill:none;stroke:#517ABD;stroke-width:0.916;stroke-miterlimit:3.664;}
</style>
<polygon class="st0" points="33.63,160.29 36.98,160.29 47.03,134.39 43.78,134.39 35.38,156.59 26.98,134.39 23.73,134.39 "/>
<g>
	<defs>
		<rect id="SVGID_1_" y="108.5" width="309.11" height="65.21"/>
	</defs>
	<clipPath id="SVGID_2_">
		<use xlink:href="#SVGID_1_"  style="overflow:visible;"/>
	</clipPath>
	<path class="st1" d="M70.58,147.34c0,5.55-2.5,10.95-8.8,10.95c-5.75,0-8.8-4.5-8.8-10.95c0-5.6,2.5-10.95,8.8-10.95
		C68.13,136.39,70.53,141.24,70.58,147.34z M61.78,160.99c7.25,0,12-5.45,12-13.65c0-7.6-3.9-13.65-12-13.65c-8,0-12,6.1-12,13.65
		C49.78,156.39,55.18,160.89,61.78,160.99z"/>
	<path class="st1" d="M98.38,147.34c0,5.55-2.5,10.95-8.8,10.95c-5.75,0-8.8-4.5-8.8-10.95c0-5.6,2.5-10.95,8.8-10.95
		C95.93,136.39,98.33,141.24,98.38,147.34z M89.58,160.99c7.25,0,12-5.45,12-13.65c0-7.6-3.9-13.65-12-13.65c-8,0-12,6.1-12,13.65
		C77.58,156.39,82.98,160.89,89.58,160.99z"/>
	<path class="st1" d="M110.23,147.59c0-5.8,1.8-10.8,8.55-10.65v-3.25c-4.35,0-6.8,1.4-8.45,5.55h-0.1v-4.85h-3v25.9h3V147.59z"/>
	<path class="st1" d="M122.42,152.19c0.25,4.9,3.75,8.8,9.85,8.8c6.1,0,10.55-2.6,10.55-7.55c0-9.95-16.6-5.55-16.6-12.6
		c0-2.65,2.05-4.45,5.85-4.45c3.75,0,6.45,1.45,7,5.45h3.05c-0.75-5.85-4.4-8.15-10-8.15c-5.75,0-9.1,3.1-9.1,7.4
		c0,10.2,16.6,4.9,16.6,12.4c0,2.5-2.05,4.8-6.4,4.8c-4.5,0-6.8-1.65-7.75-6.1H122.42z"/>
	<path class="st1" d="M170.12,142.54c-0.9-6-4.8-8.85-10.75-8.85c-7.75,0-11.9,6.5-11.9,13.7c0,7.65,3.65,13.6,11.9,13.6
		c6.5,0,10.1-3.9,11.15-9.65h-3.2c-0.7,4.3-3.5,6.95-7.95,6.95c-6.2,0-8.7-5.45-8.7-10.9c0-5.4,2.55-11,8.7-11
		c4,0,6.65,2.3,7.7,6.15H170.12z"/>
	<path class="st1" d="M179.52,160.29v-13.95c0-1.8,0.05-3.25,0.65-4.9c0.95-2.65,3.5-5.05,7.2-5.05c4.8,0,6.7,2.35,6.7,7v16.9h3
		v-16.95c0-2.15-0.05-4.1-1.3-5.95c-1.85-2.7-4.75-3.7-7.9-3.7c-3.6,0-5.95,1.75-8.35,4.3v-13.7h-3v36H179.52z"/>
	<path class="st1" d="M207.47,147.59c0-5.8,1.8-10.8,8.55-10.65v-3.25c-4.35,0-6.8,1.4-8.45,5.55h-0.1v-4.85h-3v25.9h3V147.59z"/>
	<path class="st1" d="M224.57,128.74v-4.45h-3.3v4.45H224.57z M224.42,160.29v-25.9h-3v25.9H224.42z"/>
	<path class="st1" d="M233.32,136.89v23.4h3v-23.4h5v-2.5h-5v-3.2c0-2.35,0.1-4.9,3.2-4.9c0.55,0,1.2,0.1,1.8,0.25v-2.75
		c-0.8-0.15-1.6-0.2-2.5-0.2c-4,0-5.5,2.6-5.5,6.7v4.1h-3.85v2.5H233.32z"/>
	<path class="st1" d="M255.07,157.94c-0.8,0.2-1.65,0.35-2.45,0.35c-2.5,0-2.6-1.1-2.6-3.65v-17.75h4.85v-2.5h-4.85v-7.2h-3v7.2
		h-3.65v2.5h3.65v18.95c0,3.85,1.65,5.15,4.6,5.15c1.45,0,2.75-0.45,3.45-0.6V157.94z"/>
</g>
</svg>
