<?xml version="1.0" encoding="utf-8"?>
<!-- Generator: Adobe Illustrator 23.0.1, SVG Export Plug-In . SVG Version: 6.00 Build 0)  -->
<svg version="1.1" id="Laag_1" xmlns="http://www.w3.org/2000/svg" xmlns:xlink="http://www.w3.org/1999/xlink" x="0px" y="0px"
	 viewBox="0 0 39.8 23.2" style="enable-background:new 0 0 39.8 23.2;" xml:space="preserve">
<style type="text/css">
	.st0{clip-path:url(#SVGID_2_);fill:none;stroke:#34A853;stroke-miterlimit:4.158;}
	.st1{clip-path:url(#SVGID_4_);fill:none;stroke:#31A852;stroke-miterlimit:4.158;}
	.st2{clip-path:url(#SVGID_6_);fill:none;stroke:#31A852;stroke-miterlimit:4.158;}
</style>
<g>
	<g>
		<defs>
			<rect id="SVGID_1_" x="-10.1" y="-10.2" width="85.3" height="41.7"/>
		</defs>
		<clipPath id="SVGID_2_">
			<use xlink:href="#SVGID_1_"  style="overflow:visible;"/>
		</clipPath>
		<path class="st0" d="M13.1,9.1c-1.1-1.9-3.4-2.9-5.6-2.9c-4.7,0-6.9,3.9-6.9,8.2c0,4.6,2,8.2,7,8.2c2,0,4.4-1.1,5.4-3.2h0.1v2.7
			h1.8V0.5h-1.8V9.1z M13.1,14.3c0,3.8-1.9,6.6-5.3,6.6c-3,0-5.3-2.2-5.3-6.1c-0.1-3.9,1.6-7,5.3-7C11.1,7.8,13.1,10.8,13.1,14.3z"
			/>
	</g>
	<g>
		<defs>
			<rect id="SVGID_3_" x="-10.1" y="-10.2" width="85.3" height="41.7"/>
		</defs>
		<clipPath id="SVGID_4_">
			<use xlink:href="#SVGID_3_"  style="overflow:visible;"/>
		</clipPath>
		<path class="st1" d="M32.6,14.8c0-5.6-2.6-8.6-6.8-8.6c-4.4,0-7.1,3.7-7.1,8.2c0,4.6,2.2,8.1,7.1,8.1c4,0,5.8-2.2,6.7-5.2h-2
			c-0.5,2.3-2.4,3.6-4.7,3.6c-3.5,0-5.2-2.8-5.2-6.1C20.5,14.8,32.6,14.8,32.6,14.8z M20.5,13.3c0.4-2.9,2-5.5,5.2-5.5
			c3.2,0,4.9,2.5,4.9,5.5H20.5z"/>
	</g>
	<g>
		<defs>
			<rect id="SVGID_5_" x="-10.1" y="-10.2" width="85.3" height="41.7"/>
		</defs>
		<clipPath id="SVGID_6_">
			<use xlink:href="#SVGID_5_"  style="overflow:visible;"/>
		</clipPath>
		<rect x="37" y="19.5" class="st2" width="2.2" height="2.6"/>
	</g>
</g>
</svg>
