<?xml version="1.0" encoding="utf-8"?>
<!-- Generator: Adobe Illustrator 23.0.1, SVG Export Plug-In . SVG Version: 6.00 Build 0)  -->
<svg version="1.1" id="Laag_1" xmlns="http://www.w3.org/2000/svg" xmlns:xlink="http://www.w3.org/1999/xlink" x="0px" y="0px"
	 viewBox="0 0 56.69 56.69" style="enable-background:new 0 0 56.69 56.69;" xml:space="preserve">
<style type="text/css">
	.st0{clip-path:url(#SVGID_2_);fill:none;stroke:#31A852;stroke-miterlimit:4.158;}
</style>
<g>
	<defs>
		<rect id="SVGID_1_" x="-1.84" y="4.48" width="85.35" height="41.73"/>
	</defs>
	<clipPath id="SVGID_2_">
		<use xlink:href="#SVGID_1_"  style="overflow:visible;"/>
	</clipPath>
	<path class="st0" d="M21.32,23.8c-1.14-1.89-3.36-2.91-5.55-2.91c-4.74,0-6.93,3.87-6.93,8.22c0,4.59,2.01,8.16,7.02,8.16
		c1.98,0,4.35-1.11,5.4-3.15h0.06v2.73h1.8v-21.6h-1.8V23.8z M21.32,29.02c0,3.75-1.86,6.63-5.25,6.63c-3.03,0-5.28-2.19-5.31-6.09
		c-0.15-3.9,1.59-7.05,5.31-7.05C19.34,22.51,21.32,25.51,21.32,29.02z"/>
	<path class="st0" d="M40.82,29.5c0.03-5.58-2.58-8.61-6.84-8.61c-4.44,0-7.14,3.72-7.14,8.25c0,4.59,2.16,8.13,7.14,8.13
		c3.96,0,5.82-2.25,6.72-5.19h-2.01c-0.54,2.28-2.37,3.57-4.71,3.57c-3.45,0-5.25-2.79-5.22-6.15H40.82z M28.76,28
		c0.36-2.94,2.04-5.49,5.22-5.49c3.24,0,4.92,2.46,4.92,5.49H28.76z"/>
	<rect x="45.23" y="34.21" class="st0" width="2.19" height="2.64"/>
</g>
</svg>
