<?xml version="1.0" encoding="utf-8"?>
<!-- Generator: Adobe Illustrator 23.0.1, SVG Export Plug-In . SVG Version: 6.00 Build 0)  -->
<svg version="1.1" id="Laag_1" xmlns="http://www.w3.org/2000/svg" xmlns:xlink="http://www.w3.org/1999/xlink" x="0px" y="0px"
	 viewBox="0 0 208.9 50.2" style="enable-background:new 0 0 208.9 50.2;" xml:space="preserve">
<style type="text/css">
	.st0{fill:none;stroke:#4285F4;}
</style>
<g>
	<path class="st0" d="M23.6,2.2h3v36h-3v-4.5h-0.1c-0.4,0.9-1,1.6-1.7,2.3c-0.7,0.6-1.4,1.2-2.2,1.6c-0.8,0.4-1.7,0.8-2.5,1
		c-0.9,0.2-1.7,0.4-2.5,0.4c-2.1,0-3.9-0.4-5.3-1.1c-1.5-0.7-2.7-1.7-3.6-2.9c-1-1.2-1.6-2.7-2.1-4.3c-0.4-1.7-0.7-3.5-0.7-5.4
		c0-1.8,0.2-3.5,0.7-5.2s1.2-3.1,2.1-4.4s2.2-2.2,3.6-3c1.5-0.8,3.2-1.1,5.1-1.1c1.8,0,3.6,0.4,5.3,1.2s3,2,4,3.6L23.6,2.2L23.6,2.2
		z M23.6,25.2c0-1.5-0.2-2.9-0.6-4.2c-0.4-1.3-1-2.5-1.7-3.4c-0.8-1-1.7-1.8-2.8-2.4c-1.1-0.6-2.3-0.9-3.7-0.9c-1.6,0-2.9,0.3-4,0.9
		c-1.1,0.6-2.1,1.5-2.8,2.5c-0.7,1.1-1.3,2.3-1.6,3.7S5.9,24.3,6,26c0,1.6,0.2,3.1,0.7,4.3s1.1,2.3,1.9,3.2c0.8,0.9,1.7,1.5,2.8,2
		c1.1,0.4,2.2,0.7,3.5,0.7c1.4,0,2.7-0.3,3.8-0.9c1.1-0.6,2-1.3,2.8-2.3c0.7-1,1.3-2.2,1.7-3.5C23.4,28.2,23.6,26.7,23.6,25.2z"/>
	<path class="st0" d="M34.4,6.7V2.2h3.3v4.5H34.4z M34.6,38.2V12.3h3v25.9H34.6z"/>
	<path class="st0" d="M57.1,23.1c0.6-0.1,1.2-0.2,2-0.3s1.4-0.3,1.9-0.6c0.5-0.2,0.8-0.6,0.9-1.2c0.1-0.5,0.2-1.1,0.2-1.5
		c0-1.5-0.5-2.8-1.5-3.8s-2.6-1.5-5-1.5c-1,0-2,0.1-2.8,0.3c-0.9,0.2-1.6,0.5-2.3,1c-0.6,0.4-1.2,1-1.6,1.8s-0.7,1.7-0.8,2.8h-3
		c0.1-1.5,0.5-2.8,1-3.9c0.6-1.1,1.4-2,2.3-2.6c1-0.7,2-1.2,3.3-1.5c1.2-0.3,2.6-0.5,4-0.5c1.3,0,2.5,0.1,3.7,0.4
		c1.1,0.3,2.1,0.7,3,1.3c0.8,0.6,1.5,1.4,2,2.5c0.5,1,0.7,2.3,0.7,3.8v14.2c0,1.2,0.2,1.9,0.6,2.2s1.3,0.2,2.5-0.2v2.4
		c-0.2,0.1-0.6,0.2-1,0.3c-0.5,0.1-0.9,0.2-1.3,0.2c-0.5,0-0.9,0-1.3-0.1c-0.5-0.1-0.9-0.2-1.2-0.5s-0.5-0.5-0.7-0.9
		s-0.3-0.7-0.4-1.1c-0.1-0.4-0.1-0.9-0.1-1.3c-1.3,1.4-2.7,2.5-4.3,3.2c-1.6,0.7-3.4,1.1-5.3,1.1c-1.1,0-2.2-0.2-3.3-0.5
		s-2-0.8-2.8-1.4c-0.8-0.6-1.4-1.4-1.9-2.3c-0.5-0.9-0.7-2-0.7-3.3c0-4.4,3-7,9-7.8L57.1,23.1z M62.2,24.6c-1.3,0.5-2.5,0.9-3.8,1.1
		c-1.3,0.2-2.6,0.3-3.9,0.4c-2.3,0.2-4.1,0.7-5.4,1.5c-1.3,0.9-1.9,2.2-1.9,4c0,0.8,0.2,1.5,0.5,2.1s0.7,1.1,1.2,1.5
		s1.1,0.7,1.8,0.9c0.7,0.2,1.4,0.3,2.1,0.3c1.2,0,2.4-0.1,3.5-0.5c1.1-0.3,2.1-0.8,3-1.4c0.9-0.6,1.6-1.4,2.1-2.3
		c0.5-1,0.8-2.1,0.8-3.4C62.2,28.8,62.2,24.6,62.2,24.6z"/>
	<path class="st0" d="M93,12.3h3v23.4c0,1.7-0.2,3.4-0.5,5c-0.4,1.6-1,3-1.9,4.2s-2.1,2.2-3.7,2.9s-3.6,1.1-6,1.1
		c-1.9,0-3.5-0.2-4.9-0.7s-2.5-1.1-3.3-1.8c-0.9-0.7-1.5-1.5-2-2.4c-0.4-0.9-0.7-1.7-0.7-2.5h3.2c0.2,1,0.6,1.8,1.1,2.4
		c0.5,0.6,1.1,1.1,1.8,1.4c0.7,0.4,1.4,0.6,2.3,0.7c0.8,0.1,1.7,0.2,2.6,0.2c2,0,3.7-0.4,4.9-1.1c1.2-0.7,2.2-1.6,2.8-2.8
		c0.6-1.1,1-2.4,1.2-3.8c0.2-1.4,0.3-2.9,0.2-4.4c-1,1.6-2.3,2.8-4,3.6s-3.4,1.2-5.3,1.2c-2,0-3.7-0.4-5.1-1.1
		c-1.4-0.8-2.6-1.8-3.6-3s-1.7-2.7-2.1-4.4c-0.5-1.7-0.7-3.4-0.7-5.2c0-1.9,0.2-3.7,0.7-5.4c0.4-1.7,1.1-3.1,2.1-4.3
		c0.9-1.2,2.2-2.2,3.6-2.9c1.5-0.7,3.2-1.1,5.3-1.1c0.8,0,1.7,0.1,2.5,0.4c0.9,0.2,1.7,0.6,2.5,1s1.6,1,2.2,1.6
		c0.7,0.7,1.2,1.4,1.7,2.2H93C93,16.7,93,12.3,93,12.3z M93,25.4c0-1.6-0.2-3-0.6-4.4s-0.9-2.5-1.7-3.5c-0.7-1-1.6-1.8-2.8-2.3
		c-1.1-0.6-2.3-0.9-3.8-0.9c-1.3,0-2.4,0.2-3.5,0.7s-2,1.1-2.8,2s-1.4,1.9-1.9,3.2s-0.7,2.7-0.7,4.3c-0.1,1.6,0.1,3.2,0.4,4.6
		c0.3,1.4,0.9,2.7,1.6,3.7c0.7,1.1,1.7,1.9,2.8,2.5c1.1,0.6,2.5,0.9,4,0.9c1.4,0,2.6-0.3,3.7-0.9c1.1-0.6,2-1.4,2.8-2.4
		c0.8-1,1.3-2.1,1.7-3.4C92.8,28.2,93,26.8,93,25.4z"/>
	<path class="st0" d="M106.6,38.2h-3V12.3h3v3.6c1.2-1.3,2.4-2.3,3.7-3.1s2.8-1.2,4.6-1.2c1.6,0,3.1,0.3,4.5,0.8s2.5,1.5,3.4,2.9
		c0.6,0.9,1,1.9,1.1,2.9s0.2,2,0.2,3.1v17h-3V21.4c0-2.3-0.5-4.1-1.6-5.2c-1-1.2-2.8-1.8-5.1-1.8c-0.9,0-1.8,0.1-2.5,0.4
		c-0.8,0.3-1.5,0.7-2.1,1.1c-0.6,0.5-1.1,1-1.6,1.6c-0.4,0.6-0.8,1.2-1,1.9c-0.3,0.8-0.5,1.6-0.5,2.4c-0.1,0.8-0.1,1.6-0.1,2.5
		L106.6,38.2L106.6,38.2z"/>
	<path class="st0" d="M141.7,38.9c-1.7,0-3.2-0.3-4.7-0.9c-1.4-0.6-2.7-1.4-3.8-2.5s-1.9-2.5-2.6-4.2c-0.7-1.7-0.9-3.7-0.9-6
		c0-1.9,0.2-3.7,0.8-5.3s1.2-3.1,2.2-4.3s2.2-2.2,3.8-2.9c1.5-0.7,3.2-1.1,5.2-1.1s3.8,0.4,5.3,1.1s2.8,1.7,3.8,2.9s1.7,2.7,2.2,4.3
		c0.5,1.7,0.7,3.4,0.7,5.3c0,2.1-0.3,3.9-0.9,5.6c-0.6,1.7-1.4,3.1-2.4,4.3s-2.3,2.1-3.8,2.8C145.1,38.6,143.5,38.9,141.7,38.9z
		 M150.5,25.3c0-1.5-0.2-3-0.5-4.3s-0.9-2.5-1.5-3.5c-0.7-1-1.6-1.8-2.7-2.3c-1.1-0.6-2.5-0.9-4-0.9c-1.6,0-2.9,0.3-4,0.9
		c-1.1,0.6-2,1.4-2.7,2.5c-0.7,1-1.2,2.2-1.6,3.5c-0.3,1.3-0.5,2.7-0.5,4.1c0,1.6,0.2,3.1,0.6,4.4c0.4,1.4,0.9,2.5,1.7,3.5
		s1.7,1.7,2.8,2.2s2.4,0.8,3.8,0.8c1.6,0,2.9-0.3,4-0.9c1.1-0.6,2-1.4,2.7-2.5c0.7-1,1.2-2.2,1.5-3.5
		C150.3,28,150.5,26.7,150.5,25.3z"/>
	<path class="st0" d="M160.9,30.1c0.5,2.2,1.3,3.8,2.5,4.7s3,1.4,5.2,1.4c1.1,0,2.1-0.1,2.9-0.4c0.8-0.3,1.5-0.6,2-1.1
		c0.5-0.4,0.9-1,1.2-1.5c0.3-0.6,0.4-1.2,0.4-1.8c0-1.3-0.4-2.2-1.2-2.8s-1.8-1.1-3.1-1.5c-1.2-0.3-2.6-0.6-4-0.9
		c-1.4-0.2-2.8-0.6-4-1.1s-2.3-1.2-3.1-2.1c-0.8-0.9-1.2-2.2-1.2-4c0-2.2,0.8-3.9,2.4-5.3c1.6-1.4,3.8-2.1,6.7-2.1
		c2.8,0,5.1,0.6,6.8,1.9s2.8,3.3,3.2,6.3h-3c-0.3-2-1-3.4-2.3-4.2c-1.2-0.8-2.8-1.2-4.7-1.2s-3.4,0.4-4.4,1.2
		c-1,0.8-1.5,1.9-1.5,3.2c0,1.2,0.4,2.1,1.2,2.7c0.8,0.6,1.8,1.1,3.1,1.5c1.2,0.4,2.6,0.7,4,1s2.8,0.7,4,1.3s2.3,1.3,3.1,2.2
		s1.2,2.2,1.2,3.9c0,1.2-0.3,2.3-0.8,3.3s-1.3,1.7-2.2,2.4c-0.9,0.6-2,1.1-3.3,1.4s-2.7,0.5-4.2,0.5s-2.9-0.2-4.1-0.7
		c-1.2-0.4-2.2-1.1-3-1.9c-0.8-0.8-1.5-1.7-2-2.8s-0.7-2.2-0.8-3.5L160.9,30.1L160.9,30.1z"/>
	<path class="st0" d="M186,26c0,1.4,0.2,2.7,0.5,4c0.4,1.2,0.9,2.3,1.6,3.2c0.7,0.9,1.6,1.6,2.7,2.2c1.1,0.6,2.4,0.8,3.8,0.8
		c2,0,3.6-0.5,5-1.5s2.3-2.5,2.8-4.4h3.3c-0.4,1.2-0.8,2.4-1.4,3.4c-0.6,1-1.4,2-2.2,2.8c-0.9,0.8-2,1.4-3.2,1.8
		c-1.2,0.4-2.7,0.7-4.3,0.7c-2.1,0-3.9-0.4-5.4-1.1c-1.5-0.7-2.7-1.7-3.7-2.9s-1.7-2.6-2.1-4.3c-0.5-1.6-0.7-3.4-0.7-5.3
		s0.3-3.7,0.8-5.4s1.3-3.1,2.3-4.4s2.3-2.2,3.7-2.9c1.5-0.7,3.1-1.1,5-1.1c3.6,0,6.4,1.2,8.4,3.7c2,2.4,3,6,3,10.7L186,26L186,26z
		 M202.9,23.5c0-1.3-0.2-2.5-0.5-3.6c-0.4-1.1-0.9-2.1-1.5-2.9c-0.7-0.8-1.5-1.5-2.6-1.9c-1-0.5-2.2-0.7-3.5-0.7s-2.5,0.2-3.5,0.8
		c-1,0.5-1.9,1.2-2.6,2c-0.7,0.8-1.3,1.8-1.7,2.9c-0.4,1.1-0.7,2.3-0.8,3.5h16.7V23.5z"/>
</g>
</svg>
