<?xml version="1.0" encoding="utf-8"?>
<!-- Generator: Adobe Illustrator 23.0.1, SVG Export Plug-In . SVG Version: 6.00 Build 0)  -->
<svg version="1.1" id="Laag_1" xmlns="http://www.w3.org/2000/svg" xmlns:xlink="http://www.w3.org/1999/xlink" x="0px" y="0px"
	 viewBox="0 0 283.5 283.5" style="enable-background:new 0 0 283.5 283.5;" xml:space="preserve">
<style type="text/css">
	.st0{fill:none;stroke:#EA4335;}
</style>
<g>
	<path class="st0" d="M48.4,112.1h3v36h-3v-4.5h-0.1c-0.4,0.9-1,1.6-1.7,2.3c-0.7,0.7-1.4,1.2-2.2,1.6c-0.8,0.4-1.7,0.8-2.5,1
		c-0.9,0.2-1.7,0.4-2.5,0.4c-2.1,0-3.9-0.4-5.3-1.1c-1.5-0.7-2.7-1.7-3.6-2.9c-1-1.2-1.6-2.7-2.1-4.3c-0.4-1.7-0.7-3.5-0.7-5.4
		c0-1.8,0.2-3.5,0.7-5.2c0.5-1.7,1.2-3.1,2.1-4.4s2.2-2.2,3.6-3c1.5-0.8,3.2-1.1,5.1-1.1c1.8,0,3.6,0.4,5.3,1.2c1.7,0.8,3,2,4,3.6
		V112.1z M48.4,135c0-1.5-0.2-2.9-0.6-4.2c-0.4-1.3-1-2.5-1.7-3.4c-0.8-1-1.7-1.8-2.8-2.4c-1.1-0.6-2.3-0.9-3.7-0.9
		c-1.6,0-2.9,0.3-4,0.9c-1.1,0.6-2.1,1.5-2.8,2.5c-0.7,1.1-1.3,2.3-1.6,3.7c-0.3,1.4-0.5,2.9-0.4,4.6c0,1.6,0.2,3.1,0.7,4.3
		s1.1,2.3,1.9,3.2c0.8,0.9,1.7,1.5,2.8,2c1.1,0.4,2.2,0.7,3.5,0.7c1.4,0,2.7-0.3,3.8-0.9c1.1-0.6,2-1.3,2.8-2.3s1.3-2.2,1.7-3.5
		C48.2,138,48.4,136.6,48.4,135z"/>
	<path class="st0" d="M59.3,116.5v-4.5h3.3v4.5H59.3z M59.4,148.1v-25.9h3v25.9H59.4z"/>
	<path class="st0" d="M82,133c0.6-0.1,1.2-0.2,2-0.3c0.8-0.1,1.4-0.3,1.9-0.5c0.5-0.2,0.8-0.6,0.9-1.2c0.1-0.5,0.2-1.1,0.2-1.5
		c0-1.5-0.5-2.8-1.5-3.8c-1-1-2.6-1.5-5-1.5c-1,0-2,0.1-2.8,0.3c-0.9,0.2-1.6,0.5-2.3,1c-0.6,0.4-1.2,1-1.6,1.8
		c-0.4,0.8-0.7,1.7-0.8,2.8h-3c0.1-1.5,0.5-2.8,1-3.9c0.6-1.1,1.4-2,2.3-2.6c1-0.7,2-1.2,3.3-1.5c1.2-0.3,2.6-0.5,4-0.5
		c1.3,0,2.5,0.1,3.7,0.4c1.1,0.3,2.1,0.7,3,1.3c0.8,0.6,1.5,1.4,2,2.5c0.5,1,0.7,2.3,0.7,3.8v14.1c0,1.2,0.2,1.9,0.6,2.2
		c0.4,0.3,1.3,0.2,2.5-0.2v2.3c-0.2,0.1-0.6,0.2-1,0.3c-0.5,0.1-0.9,0.2-1.3,0.2c-0.5,0-0.9,0-1.3-0.1c-0.5-0.1-0.9-0.2-1.2-0.5
		s-0.5-0.5-0.7-0.9c-0.2-0.4-0.3-0.7-0.4-1.2c-0.1-0.4-0.1-0.9-0.1-1.3c-1.3,1.4-2.7,2.5-4.3,3.2c-1.6,0.7-3.4,1.1-5.3,1.1
		c-1.1,0-2.2-0.2-3.3-0.5s-2-0.8-2.8-1.4c-0.8-0.6-1.4-1.4-1.9-2.3c-0.5-0.9-0.7-2-0.7-3.3c0-4.4,3-7,9-7.8L82,133z M87,134.5
		c-1.3,0.5-2.5,0.9-3.8,1.1s-2.6,0.3-3.9,0.4c-2.3,0.2-4.1,0.7-5.4,1.5c-1.3,0.9-1.9,2.2-1.9,4c0,0.8,0.2,1.5,0.5,2.1
		c0.3,0.6,0.7,1.1,1.2,1.5c0.5,0.4,1.1,0.7,1.8,0.8c0.7,0.2,1.4,0.3,2.1,0.3c1.2,0,2.4-0.2,3.5-0.5s2.1-0.8,3-1.4
		c0.9-0.6,1.6-1.4,2.1-2.3c0.5-1,0.8-2.1,0.8-3.4V134.5z"/>
	<path class="st0" d="M117.9,122.2h3v23.4c0,1.7-0.2,3.4-0.5,5c-0.4,1.6-1,3-1.9,4.2c-0.9,1.2-2.1,2.2-3.7,2.9
		c-1.6,0.7-3.6,1.1-6,1.1c-1.9,0-3.5-0.2-4.9-0.7c-1.4-0.5-2.5-1.1-3.3-1.8c-0.9-0.7-1.5-1.5-2-2.4c-0.4-0.9-0.7-1.7-0.7-2.5h3.2
		c0.2,1,0.6,1.8,1.1,2.4c0.5,0.6,1.1,1.1,1.8,1.4c0.7,0.4,1.4,0.6,2.3,0.7c0.8,0.1,1.7,0.2,2.6,0.2c2,0,3.7-0.4,4.9-1.1
		c1.2-0.7,2.2-1.6,2.8-2.8c0.6-1.1,1-2.4,1.2-3.8c0.2-1.4,0.3-2.9,0.2-4.4c-1,1.6-2.3,2.8-4,3.6c-1.7,0.8-3.4,1.2-5.3,1.2
		c-2,0-3.7-0.4-5.1-1.1c-1.4-0.8-2.6-1.8-3.6-3s-1.7-2.7-2.1-4.4s-0.7-3.4-0.7-5.2c0-1.9,0.2-3.7,0.7-5.4c0.4-1.7,1.1-3.1,2.1-4.3
		c0.9-1.2,2.2-2.2,3.6-2.9c1.5-0.7,3.2-1.1,5.3-1.1c0.8,0,1.7,0.1,2.5,0.4c0.9,0.2,1.7,0.6,2.5,1c0.8,0.4,1.6,1,2.2,1.6
		c0.7,0.7,1.2,1.4,1.7,2.2h0.1V122.2z M117.9,135.2c0-1.6-0.2-3-0.6-4.4c-0.4-1.3-0.9-2.5-1.7-3.5c-0.7-1-1.6-1.8-2.8-2.3
		c-1.1-0.6-2.3-0.9-3.8-0.9c-1.3,0-2.4,0.2-3.5,0.7c-1.1,0.5-2,1.1-2.8,2c-0.8,0.9-1.4,1.9-1.9,3.2s-0.7,2.7-0.7,4.3
		c-0.1,1.6,0.1,3.2,0.4,4.6c0.3,1.4,0.9,2.7,1.6,3.7c0.7,1.1,1.7,1.9,2.8,2.5c1.1,0.6,2.5,0.9,4,0.9c1.4,0,2.6-0.3,3.7-0.9
		c1.1-0.6,2-1.4,2.8-2.4c0.8-1,1.3-2.1,1.7-3.4S117.9,136.7,117.9,135.2z"/>
	<path class="st0" d="M131.4,148.1h-3v-25.9h3v3.6c1.2-1.3,2.4-2.3,3.7-3.1c1.3-0.8,2.8-1.2,4.6-1.2c1.6,0,3.1,0.3,4.5,0.8
		c1.4,0.5,2.5,1.5,3.4,2.9c0.6,0.9,1,1.9,1.1,2.9c0.1,1,0.2,2,0.2,3.1v17h-3v-16.9c0-2.3-0.5-4.1-1.6-5.3c-1-1.2-2.8-1.8-5.1-1.8
		c-0.9,0-1.8,0.1-2.5,0.4c-0.8,0.3-1.5,0.7-2.1,1.1c-0.6,0.5-1.1,1-1.6,1.6c-0.4,0.6-0.8,1.2-1,1.9c-0.3,0.8-0.5,1.6-0.5,2.4
		c-0.1,0.8-0.1,1.6-0.1,2.5V148.1z"/>
	<path class="st0" d="M166.5,148.8c-1.7,0-3.2-0.3-4.7-0.9c-1.4-0.6-2.7-1.4-3.8-2.5c-1.1-1.1-1.9-2.5-2.6-4.2s-0.9-3.7-0.9-6
		c0-1.9,0.2-3.7,0.8-5.3c0.5-1.6,1.2-3.1,2.2-4.3c1-1.2,2.2-2.2,3.8-2.9c1.5-0.7,3.2-1.1,5.2-1.1c2,0,3.8,0.4,5.3,1.1
		c1.5,0.7,2.8,1.7,3.8,2.9s1.7,2.7,2.2,4.3s0.7,3.4,0.7,5.3c0,2.1-0.3,3.9-0.9,5.6c-0.6,1.7-1.4,3.1-2.4,4.3c-1,1.2-2.3,2.1-3.8,2.8
		C170,148.4,168.3,148.8,166.5,148.8z M175.3,135.1c0-1.5-0.2-3-0.5-4.3c-0.3-1.3-0.9-2.5-1.5-3.5c-0.7-1-1.6-1.8-2.7-2.3
		c-1.1-0.6-2.5-0.9-4-0.9c-1.6,0-2.9,0.3-4,0.9c-1.1,0.6-2,1.4-2.7,2.5c-0.7,1-1.2,2.2-1.6,3.5c-0.3,1.3-0.5,2.7-0.5,4.1
		c0,1.6,0.2,3.1,0.6,4.4c0.4,1.4,0.9,2.5,1.7,3.5s1.7,1.7,2.8,2.2c1.1,0.5,2.4,0.8,3.8,0.8c1.6,0,2.9-0.3,4-0.9
		c1.1-0.6,2-1.4,2.7-2.5c0.7-1,1.2-2.2,1.5-3.5C175.2,137.9,175.3,136.5,175.3,135.1z"/>
	<path class="st0" d="M185.8,140c0.5,2.2,1.3,3.8,2.5,4.7s3,1.4,5.2,1.4c1.1,0,2.1-0.1,2.9-0.4c0.8-0.3,1.5-0.6,2-1.1
		c0.5-0.4,0.9-1,1.2-1.5c0.3-0.6,0.4-1.2,0.4-1.8c0-1.3-0.4-2.2-1.2-2.8c-0.8-0.6-1.8-1.1-3.1-1.5c-1.2-0.3-2.6-0.7-4-0.9
		c-1.4-0.2-2.8-0.6-4-1.1c-1.2-0.5-2.3-1.2-3.1-2.1c-0.8-0.9-1.2-2.2-1.2-4c0-2.2,0.8-3.9,2.4-5.3c1.6-1.4,3.8-2.1,6.7-2.1
		c2.8,0,5.1,0.6,6.8,1.9s2.8,3.3,3.2,6.3h-3c-0.3-2-1-3.4-2.3-4.2s-2.8-1.2-4.7-1.2c-1.9,0-3.4,0.4-4.4,1.2s-1.5,1.9-1.5,3.2
		c0,1.2,0.4,2.1,1.2,2.7c0.8,0.6,1.8,1.1,3.1,1.5c1.2,0.4,2.6,0.7,4,1c1.4,0.3,2.8,0.7,4,1.3c1.2,0.6,2.3,1.3,3.1,2.2
		c0.8,0.9,1.2,2.2,1.2,3.9c0,1.2-0.3,2.3-0.8,3.3c-0.5,1-1.3,1.7-2.2,2.4c-0.9,0.6-2,1.1-3.3,1.4s-2.7,0.5-4.2,0.5
		c-1.5,0-2.9-0.2-4.1-0.7c-1.2-0.4-2.2-1.1-3-1.9c-0.8-0.8-1.5-1.7-2-2.8c-0.5-1.1-0.7-2.2-0.8-3.5H185.8z"/>
	<path class="st0" d="M218.1,148.2c-0.4,0.1-0.9,0.2-1.5,0.4c-0.6,0.2-1.3,0.2-2,0.2c-1.5,0-2.6-0.4-3.4-1.1c-0.8-0.8-1.2-2.1-1.2-4
		v-19h-3.7v-2.5h3.7V115h3v7.2h4.8v2.5h-4.8v17.8c0,0.6,0,1.2,0,1.7c0,0.5,0.1,0.8,0.3,1.1c0.2,0.3,0.4,0.5,0.8,0.7
		c0.3,0.1,0.8,0.2,1.5,0.2c0.4,0,0.8,0,1.2-0.1c0.4-0.1,0.8-0.1,1.2-0.2V148.2z"/>
	<path class="st0" d="M223.2,116.5v-4.5h3.3v4.5H223.2z M223.4,148.1v-25.9h3v25.9H223.4z"/>
	<path class="st0" d="M252.4,130.3c-0.5-1.9-1.5-3.4-2.8-4.5c-1.3-1.1-3-1.6-5-1.6c-1.5,0-2.8,0.3-4,1c-1.1,0.6-2,1.5-2.7,2.5
		c-0.7,1-1.2,2.2-1.5,3.5c-0.3,1.3-0.5,2.6-0.5,4c0,1.4,0.2,2.7,0.5,4c0.3,1.3,0.8,2.5,1.5,3.5c0.7,1,1.6,1.9,2.7,2.5s2.4,0.9,4,0.9
		c2.2,0,4-0.6,5.4-1.9c1.3-1.2,2.2-2.9,2.6-5.1h3.2c-0.3,1.4-0.7,2.7-1.3,3.9c-0.6,1.2-1.3,2.2-2.2,3c-0.9,0.9-2,1.5-3.3,2
		c-1.3,0.5-2.7,0.7-4.3,0.7c-2.1,0-3.8-0.4-5.3-1.1c-1.5-0.7-2.7-1.7-3.7-2.9c-1-1.2-1.7-2.7-2.2-4.3s-0.7-3.5-0.7-5.4
		c0-1.8,0.3-3.5,0.8-5.2c0.5-1.7,1.3-3.1,2.3-4.4c1-1.3,2.2-2.3,3.7-3c1.5-0.8,3.2-1.1,5.1-1.1c3,0,5.4,0.7,7.3,2.2
		c1.8,1.4,3,3.7,3.5,6.7H252.4z"/>
</g>
</svg>
