<?xml version="1.0" encoding="utf-8"?>
<!-- Generator: Adobe Illustrator 23.0.1, SVG Export Plug-In . SVG Version: 6.00 Build 0)  -->
<svg version="1.1" id="Laag_1" xmlns="http://www.w3.org/2000/svg" xmlns:xlink="http://www.w3.org/1999/xlink" x="0px" y="0px"
	 viewBox="0 0 38.6 17.6" style="enable-background:new 0 0 38.6 17.6;" xml:space="preserve">
<style type="text/css">
	.st0{clip-path:url(#SVGID_2_);fill:none;stroke:#FCBC05;stroke-miterlimit:4.158;}
	.st1{clip-path:url(#SVGID_4_);fill:none;stroke:#FBBC05;stroke-miterlimit:4.158;}
	.st2{clip-path:url(#SVGID_6_);fill:none;stroke:#FCBC05;stroke-miterlimit:4.158;}
</style>
<g>
	<g>
		<defs>
			<rect id="SVGID_1_" x="-9.7" y="-15.8" width="83.7" height="41.7"/>
		</defs>
		<clipPath id="SVGID_2_">
			<use xlink:href="#SVGID_1_"  style="overflow:visible;"/>
		</clipPath>
		<path class="st0" d="M14.6,9.2c0-5.6-2.6-8.6-6.8-8.6c-4.4,0-7.1,3.7-7.1,8.2c0,4.6,2.2,8.1,7.1,8.1c4,0,5.8-2.3,6.7-5.2h-2
			c-0.5,2.3-2.4,3.6-4.7,3.6c-3.4,0-5.2-2.8-5.2-6.1C2.5,9.2,14.6,9.2,14.6,9.2z M2.5,7.7c0.4-2.9,2-5.5,5.2-5.5
			c3.2,0,4.9,2.5,4.9,5.5H2.5z"/>
	</g>
	<g>
		<defs>
			<rect id="SVGID_3_" x="-9.7" y="-15.8" width="83.7" height="41.7"/>
		</defs>
		<clipPath id="SVGID_4_">
			<use xlink:href="#SVGID_3_"  style="overflow:visible;"/>
		</clipPath>
		<path class="st1" d="M19.9,8.2c0-1.1,0-2,0.4-2.9c0.6-1.6,2.1-3,4.3-3c2.9,0,4,1.4,4,4.2v10.1h1.8V6.4c0-1.3,0-2.5-0.8-3.6
			c-1.1-1.6-2.8-2.2-4.7-2.2c-2.2,0-3.6,1-5,2.6V1h-1.8v15.5h1.8C19.9,16.6,19.9,8.2,19.9,8.2z"/>
	</g>
	<g>
		<defs>
			<rect id="SVGID_5_" x="-9.7" y="-15.8" width="83.7" height="41.7"/>
		</defs>
		<clipPath id="SVGID_6_">
			<use xlink:href="#SVGID_5_"  style="overflow:visible;"/>
		</clipPath>
		<rect x="35.7" y="13.9" class="st2" width="2.2" height="2.6"/>
	</g>
</g>
</svg>
