<?xml version="1.0" encoding="utf-8"?>
<!-- Generator: Adobe Illustrator 23.0.1, SVG Export Plug-In . SVG Version: 6.00 Build 0)  -->
<svg version="1.1" id="Laag_1" xmlns="http://www.w3.org/2000/svg" xmlns:xlink="http://www.w3.org/1999/xlink" x="0px" y="0px"
	 viewBox="0 0 56.69 56.69" style="enable-background:new 0 0 56.69 56.69;" xml:space="preserve">
<style type="text/css">
	.st0{clip-path:url(#SVGID_2_);fill:none;stroke:#FCBC05;stroke-miterlimit:4.158;}
</style>
<g>
	<defs>
		<rect id="SVGID_1_" y="3.79" width="83.7" height="41.73"/>
	</defs>
	<clipPath id="SVGID_2_">
		<use xlink:href="#SVGID_1_"  style="overflow:visible;"/>
	</clipPath>
	<path class="st0" d="M24.33,28.8c0.03-5.58-2.58-8.61-6.84-8.61c-4.44,0-7.14,3.72-7.14,8.25c0,4.59,2.16,8.13,7.14,8.13
		c3.96,0,5.82-2.25,6.72-5.19H22.2c-0.54,2.28-2.37,3.57-4.71,3.57c-3.45,0-5.25-2.79-5.22-6.15H24.33z M12.27,27.3
		c0.36-2.94,2.04-5.49,5.22-5.49c3.24,0,4.92,2.46,4.92,5.49H12.27z"/>
	<path class="st0" d="M29.64,27.78c0-1.08,0.03-1.95,0.39-2.94c0.57-1.59,2.1-3.03,4.32-3.03c2.88,0,4.02,1.41,4.02,4.2v10.14h1.8
		V25.98c0-1.29-0.03-2.46-0.78-3.57c-1.11-1.62-2.85-2.22-4.74-2.22c-2.16,0-3.57,1.05-5.01,2.58v-2.16h-1.8v15.54h1.8V27.78z"/>
	<rect x="45.42" y="33.51" class="st0" width="2.19" height="2.64"/>
</g>
</svg>
