<?xml version="1.0" encoding="utf-8"?>
<!-- Generator: Adobe Illustrator 23.0.1, SVG Export Plug-In . SVG Version: 6.00 Build 0)  -->
<svg version="1.1" id="Laag_1" xmlns="http://www.w3.org/2000/svg" xmlns:xlink="http://www.w3.org/1999/xlink" x="0px" y="0px"
	 viewBox="0 0 21.4 23.2" style="enable-background:new 0 0 21.4 23.2;" xml:space="preserve">
<style type="text/css">
	.st0{clip-path:url(#SVGID_2_);fill:none;stroke:#E84435;stroke-miterlimit:4.158;}
	.st1{clip-path:url(#SVGID_4_);fill:none;stroke:#E84435;stroke-miterlimit:4.158;}
	.st2{clip-path:url(#SVGID_6_);fill:none;stroke:#E84435;stroke-miterlimit:4.158;}
</style>
<g>
	<g>
		<defs>
			<rect id="SVGID_1_" x="-9" y="-9.8" width="65.9" height="41.7"/>
		</defs>
		<clipPath id="SVGID_2_">
			<use xlink:href="#SVGID_1_"  style="overflow:visible;"/>
		</clipPath>
		<path class="st0" d="M2.9,8.5v14h1.8v-14h3V7h-3V5.1c0-1.4,0.1-2.9,1.9-2.9c0.3,0,0.7,0.1,1.1,0.1V0.7c-0.5-0.1-1-0.1-1.5-0.1
			c-2.4,0-3.3,1.6-3.3,4V7H0.6v1.5H2.9z"/>
	</g>
	<g>
		<defs>
			<rect id="SVGID_3_" x="-9" y="-9.8" width="65.9" height="41.7"/>
		</defs>
		<clipPath id="SVGID_4_">
			<use xlink:href="#SVGID_3_"  style="overflow:visible;"/>
		</clipPath>
		<path class="st1" d="M12.4,15c0-3.5,1.1-6.5,5.1-6.4v-2c-2.6,0-4.1,0.8-5.1,3.3h-0.1V7h-1.8v15.5h1.8V15z"/>
	</g>
	<g>
		<defs>
			<rect id="SVGID_5_" x="-9" y="-9.8" width="65.9" height="41.7"/>
		</defs>
		<clipPath id="SVGID_6_">
			<use xlink:href="#SVGID_5_"  style="overflow:visible;"/>
		</clipPath>
		<rect x="18.6" y="19.9" class="st2" width="2.2" height="2.6"/>
	</g>
</g>
</svg>
