<?xml version="1.0" encoding="utf-8"?>
<!-- Generator: Adobe Illustrator 23.0.1, SVG Export Plug-In . SVG Version: 6.00 Build 0)  -->
<svg version="1.1" id="Laag_1" xmlns="http://www.w3.org/2000/svg" xmlns:xlink="http://www.w3.org/1999/xlink" x="0px" y="0px"
	 viewBox="0 0 56.69 56.69" style="enable-background:new 0 0 56.69 56.69;" xml:space="preserve">
<style type="text/css">
	.st0{clip-path:url(#SVGID_2_);fill:none;stroke:#E84435;stroke-miterlimit:4.158;}
</style>
<g>
	<defs>
		<rect id="SVGID_1_" x="7.23" y="6.9" width="65.92" height="41.73"/>
	</defs>
	<clipPath id="SVGID_2_">
		<use xlink:href="#SVGID_1_"  style="overflow:visible;"/>
	</clipPath>
	<path class="st0" d="M19.14,25.23v14.04h1.8V25.23h3v-1.5h-3v-1.92c0-1.41,0.06-2.94,1.92-2.94c0.33,0,0.72,0.06,1.08,0.15v-1.65
		c-0.48-0.09-0.96-0.12-1.5-0.12c-2.4,0-3.3,1.56-3.3,4.02v2.46h-2.31v1.5H19.14z"/>
	<path class="st0" d="M28.62,31.65c0-3.48,1.08-6.48,5.13-6.39v-1.95c-2.61,0-4.08,0.84-5.07,3.33h-0.06v-2.91h-1.8v15.54h1.8V31.65
		z"/>
	<rect x="34.86" y="36.63" class="st0" width="2.19" height="2.64"/>
</g>
</svg>
