<?xml version="1.0" encoding="utf-8"?>
<!-- Generator: Adobe Illustrator 23.0.1, SVG Export Plug-In . SVG Version: 6.00 Build 0)  -->
<svg version="1.1" id="Laag_1" xmlns="http://www.w3.org/2000/svg" xmlns:xlink="http://www.w3.org/1999/xlink" x="0px" y="0px"
	 viewBox="0 0 55.8 11.5" style="enable-background:new 0 0 55.8 11.5;" xml:space="preserve">
<style type="text/css">
	.st0{fill:#34A853;}
	.st1{fill:#FBBC05;}
	.st2{fill:#EA4335;}
	.st3{fill:#4285F4;}
</style>
<g>
	<path class="st0" d="M0,0.2h3.4c1.2,0,2.1,0.4,2.7,1.3C6.7,2.2,7,3.2,7,4.4c0,0.9-0.2,1.7-0.5,2.5c-0.6,1.3-1.6,2-3.1,2H0V0.2z
		 M3.2,7.8c0.4,0,0.7,0,1-0.1C4.6,7.6,5,7.3,5.3,6.8C5.5,6.5,5.6,6,5.7,5.5c0.1-0.3,0.1-0.6,0.1-0.9c0-1.1-0.2-1.9-0.6-2.5
		c-0.4-0.6-1.1-0.9-2-0.9h-2v6.6H3.2z"/>
	<path class="st1" d="M8.5,2.6h1v1.1c0.1-0.2,0.3-0.5,0.6-0.8s0.7-0.5,1.1-0.5c0,0,0.1,0,0.1,0s0.1,0,0.2,0v1.1c-0.1,0-0.1,0-0.2,0
		s-0.1,0-0.2,0c-0.5,0-0.9,0.2-1.2,0.5S9.6,4.8,9.6,5.2v3.6H8.5V2.6z"/>
	<path class="st2" d="M12.1,7.6h1.2v1.3h-1.2V7.6z"/>
	<path class="st3" d="M24.4,0.5c0.8,0.4,1.4,1.2,1.5,2.4h-1.2c-0.1-0.6-0.4-1.1-0.9-1.4c-0.4-0.3-1-0.4-1.6-0.4
		c-0.8,0-1.4,0.3-2,0.9c-0.5,0.6-0.8,1.5-0.8,2.7c0,1,0.2,1.9,0.7,2.5s1.2,1,2.2,1c0.8,0,1.4-0.2,1.9-0.7c0.5-0.5,0.8-1.2,0.8-2.2
		h-2.7v-1H26v4.6h-0.8L25,7.7c-0.4,0.4-0.7,0.7-1,0.9c-0.5,0.3-1.1,0.4-1.9,0.4c-1,0-1.9-0.3-2.6-1c-0.8-0.8-1.2-2-1.2-3.4
		c0-1.4,0.4-2.6,1.2-3.4C20.2,0.4,21.1,0,22.3,0C23.1,0,23.8,0.2,24.4,0.5z"/>
	<path class="st2" d="M32.4,3.2c0.6,0.5,0.8,1.3,0.8,2.4c0,1-0.2,1.8-0.7,2.5c-0.5,0.7-1.2,1-2.3,1c-0.9,0-1.5-0.3-2-0.9
		c-0.5-0.6-0.8-1.4-0.8-2.4c0-1.1,0.3-1.9,0.8-2.5c0.5-0.6,1.2-0.9,2.1-0.9C31.1,2.4,31.8,2.6,32.4,3.2z M31.7,7.4
		c0.3-0.5,0.4-1.1,0.4-1.8c0-0.6-0.1-1.1-0.3-1.4c-0.3-0.6-0.8-0.9-1.5-0.9c-0.6,0-1.1,0.2-1.4,0.7s-0.4,1.1-0.4,1.8
		c0,0.7,0.1,1.2,0.4,1.7c0.3,0.4,0.7,0.7,1.4,0.7C31,8.1,31.4,7.9,31.7,7.4z"/>
	<path class="st1" d="M39,3.2c0.6,0.5,0.8,1.3,0.8,2.4c0,1-0.2,1.8-0.7,2.5c-0.5,0.7-1.2,1-2.3,1c-0.9,0-1.5-0.3-2-0.9
		c-0.5-0.6-0.8-1.4-0.8-2.4c0-1.1,0.3-1.9,0.8-2.5c0.5-0.6,1.2-0.9,2.1-0.9C37.8,2.4,38.5,2.6,39,3.2z M38.4,7.4
		c0.3-0.5,0.4-1.1,0.4-1.8c0-0.6-0.1-1.1-0.3-1.4c-0.3-0.6-0.8-0.9-1.5-0.9c-0.6,0-1.1,0.2-1.4,0.7s-0.4,1.1-0.4,1.8
		c0,0.7,0.1,1.2,0.4,1.7c0.3,0.4,0.7,0.7,1.4,0.7C37.6,8.1,38.1,7.9,38.4,7.4z"/>
	<path class="st3" d="M44.7,2.8c0.2,0.1,0.4,0.3,0.6,0.6V2.6h1v5.7c0,0.8-0.1,1.4-0.4,1.9c-0.4,0.9-1.3,1.3-2.5,1.3
		c-0.7,0-1.2-0.2-1.7-0.5c-0.5-0.3-0.7-0.8-0.8-1.4H42c0.1,0.3,0.2,0.5,0.3,0.7c0.2,0.2,0.6,0.4,1.1,0.4c0.8,0,1.3-0.3,1.6-0.9
		c0.1-0.3,0.2-0.9,0.2-1.8c-0.2,0.3-0.5,0.6-0.8,0.7s-0.7,0.2-1.2,0.2c-0.7,0-1.3-0.2-1.8-0.7s-0.8-1.3-0.8-2.4
		c0-1.1,0.3-1.9,0.8-2.5s1.1-0.9,1.9-0.9C43.9,2.4,44.3,2.6,44.7,2.8z M44.8,3.9c-0.3-0.4-0.7-0.6-1.2-0.6c-0.7,0-1.2,0.3-1.5,1
		c-0.1,0.4-0.2,0.9-0.2,1.5c0,0.7,0.1,1.2,0.4,1.6C42.5,7.9,42.9,8,43.4,8c0.8,0,1.3-0.3,1.6-1c0.2-0.4,0.3-0.8,0.3-1.4
		C45.3,4.9,45.1,4.3,44.8,3.9z"/>
	<path class="st0" d="M47.9,0.2h1.1v8.6h-1.1V0.2z"/>
	<path class="st2" d="M54.4,2.7c0.4,0.2,0.7,0.5,0.9,0.8c0.2,0.3,0.3,0.7,0.4,1.1c0.1,0.3,0.1,0.8,0.1,1.4h-4.6
		c0,0.6,0.2,1.2,0.4,1.5C52,8,52.4,8.1,53,8.1c0.5,0,1-0.2,1.3-0.5c0.2-0.2,0.3-0.5,0.4-0.7h1c0,0.2-0.1,0.5-0.3,0.8
		S55.2,8.1,55,8.3c-0.3,0.3-0.7,0.5-1.2,0.6c-0.3,0.1-0.5,0.1-0.9,0.1c-0.8,0-1.4-0.3-2-0.9c-0.5-0.6-0.8-1.4-0.8-2.4
		c0-1,0.3-1.8,0.8-2.5c0.5-0.6,1.3-0.9,2.1-0.9C53.5,2.4,54,2.5,54.4,2.7z M54.8,5.2c0-0.5-0.1-0.8-0.3-1.1
		c-0.3-0.5-0.8-0.8-1.4-0.8c-0.5,0-0.9,0.2-1.2,0.5c-0.3,0.3-0.5,0.8-0.5,1.3H54.8z"/>
</g>
</svg>
