<?xml version="1.0" encoding="utf-8"?>
<!-- Generator: Adobe Illustrator 22.1.0, SVG Export Plug-In . SVG Version: 6.00 Build 0)  -->
<svg version="1.1" id="Laag_1" xmlns="http://www.w3.org/2000/svg" xmlns:xlink="http://www.w3.org/1999/xlink" x="0px" y="0px"
	 viewBox="0 0 57.9 13.4" style="enable-background:new 0 0 57.9 13.4;" xml:space="preserve">
<style type="text/css">
	.st0{fill:#34A853;}
	.st1{fill:#FBBC05;}
	.st2{fill:#EA4335;}
	.st3{fill:#4285F4;}
</style>
<g>
	<path class="st0" d="M1.3,1.1h3.4c1.2,0,2.1,0.4,2.7,1.3C8,3.2,8.3,4.1,8.3,5.3c0,0.9-0.2,1.7-0.5,2.5c-0.6,1.3-1.6,2-3.1,2H1.3
		V1.1z M4.5,8.7c0.4,0,0.7,0,1-0.1c0.4-0.2,0.8-0.4,1.1-0.9C6.8,7.4,7,6.9,7.1,6.4c0.1-0.3,0.1-0.6,0.1-0.9C7.2,4.4,7,3.6,6.6,3
		s-1.1-0.9-2-0.9h-2v6.6C2.6,8.7,4.5,8.7,4.5,8.7z"/>
	<path class="st1" d="M9.8,3.5h1v1.1c0.1-0.2,0.3-0.5,0.6-0.8s0.7-0.5,1.1-0.5h0.1c0,0,0.1,0,0.2,0v1.1c-0.1,0-0.1,0-0.2,0
		s-0.1,0-0.2,0c-0.5,0-0.9,0.2-1.2,0.5s-0.4,0.7-0.4,1.2v3.6H9.7V3.5H9.8z"/>
	<path class="st2" d="M13.4,8.5h1.2v1.3h-1.2V8.5z"/>
	<path class="st3" d="M25.6,1.4c0.8,0.4,1.4,1.2,1.5,2.4h-1.2c-0.1-0.6-0.4-1.1-0.9-1.4C24.6,2.1,24,2,23.4,2c-0.8,0-1.4,0.3-2,0.9
		c-0.5,0.6-0.8,1.5-0.8,2.7c0,1,0.2,1.9,0.7,2.5c0.4,0.6,1.2,1,2.2,1c0.8,0,1.4-0.2,1.9-0.7s0.8-1.2,0.8-2.2h-2.6v-1h3.8v4.6h-0.8
		l-0.3-1.1c-0.4,0.4-0.7,0.7-1,0.9c-0.5,0.3-1.1,0.4-1.9,0.4c-1,0-1.9-0.3-2.6-1c-0.8-0.8-1.2-2-1.2-3.4S20,3,20.8,2.2
		C21.5,1.4,22.5,1,23.6,1C24.4,0.9,25.1,1.1,25.6,1.4z"/>
	<path class="st2" d="M33.7,4.1c0.6,0.5,0.8,1.3,0.8,2.4c0,1-0.2,1.8-0.7,2.5s-1.2,1-2.3,1c-0.9,0-1.5-0.3-2-0.9
		c-0.5-0.6-0.8-1.4-0.8-2.4c0-1.1,0.3-1.9,0.8-2.5s1.2-0.9,2.1-0.9C32.4,3.3,33.1,3.5,33.7,4.1z M33,8.3c0.3-0.5,0.4-1.1,0.4-1.8
		c0-0.6-0.1-1.1-0.3-1.4c-0.3-0.6-0.8-0.9-1.5-0.9c-0.6,0-1.1,0.2-1.4,0.7S29.8,6,29.8,6.7c0,0.7,0.1,1.2,0.4,1.7
		c0.3,0.4,0.7,0.7,1.4,0.7C32.3,9,32.7,8.8,33,8.3z"/>
	<path class="st1" d="M40.3,4.1c0.6,0.5,0.8,1.3,0.8,2.4c0,1-0.2,1.8-0.7,2.5c-0.5,0.7-1.2,1-2.3,1c-0.9,0-1.5-0.3-2-0.9
		c-0.5-0.6-0.8-1.4-0.8-2.4c0-1.1,0.3-1.9,0.8-2.5s1.2-0.9,2.1-0.9C39.1,3.3,39.8,3.5,40.3,4.1z M39.7,8.3c0.3-0.5,0.4-1.1,0.4-1.8
		c0-0.6-0.1-1.1-0.3-1.4c-0.3-0.6-0.8-0.9-1.5-0.9c-0.6,0-1.1,0.2-1.4,0.7S36.5,6,36.5,6.7c0,0.7,0.1,1.2,0.4,1.7
		c0.3,0.4,0.7,0.7,1.4,0.7C38.9,9,39.4,8.8,39.7,8.3z"/>
	<path class="st3" d="M45.9,3.7c0.2,0.1,0.4,0.3,0.6,0.6V3.5h1v5.7c0,0.8-0.1,1.4-0.4,1.9c-0.4,0.9-1.3,1.3-2.5,1.3
		c-0.7,0-1.2-0.2-1.7-0.5s-0.7-0.8-0.8-1.4h1.1c0.1,0.3,0.2,0.5,0.3,0.7c0.2,0.2,0.6,0.4,1.1,0.4c0.8,0,1.3-0.3,1.6-0.9
		c0.1-0.3,0.2-0.9,0.2-1.8c-0.2,0.3-0.5,0.6-0.8,0.7s-0.7,0.2-1.2,0.2c-0.7,0-1.3-0.2-1.8-0.7s-0.8-1.3-0.8-2.4s0.3-1.9,0.8-2.5
		s1.1-0.9,1.9-0.9C45.2,3.3,45.6,3.5,45.9,3.7z M46.1,4.8c-0.3-0.4-0.7-0.6-1.2-0.6c-0.7,0-1.2,0.3-1.5,1c-0.1,0.4-0.2,0.9-0.2,1.5
		c0,0.7,0.1,1.2,0.4,1.6c0.3,0.4,0.7,0.6,1.2,0.6c0.8,0,1.3-0.3,1.6-1c0.2-0.4,0.3-0.8,0.3-1.4C46.6,5.8,46.4,5.2,46.1,4.8z"/>
	<path class="st0" d="M49.2,1.1h1.1v8.6h-1.1V1.1z"/>
	<path class="st2" d="M55.7,3.6c0.4,0.2,0.7,0.5,0.9,0.8c0.2,0.3,0.3,0.7,0.4,1.1c0.1,0.3,0.1,0.8,0.1,1.4h-4.5
		c0,0.6,0.2,1.2,0.4,1.5C53.3,8.8,53.7,9,54.3,9c0.5,0,1-0.2,1.3-0.5C55.8,8.3,55.9,8,56,7.8h1c0,0.2-0.1,0.5-0.3,0.8
		s-0.3,0.5-0.5,0.7c-0.3,0.3-0.7,0.5-1.2,0.6C54.7,10,54.5,10,54.1,10c-0.8,0-1.4-0.3-2-0.9c-0.5-0.6-0.8-1.4-0.8-2.4
		s0.3-1.8,0.8-2.5c0.5-0.6,1.3-0.9,2.1-0.9C54.8,3.3,55.3,3.4,55.7,3.6z M56.1,6.1c0-0.5-0.1-0.8-0.3-1.1c-0.3-0.5-0.8-0.8-1.4-0.8
		c-0.5,0-0.9,0.2-1.2,0.5C52.9,5,52.7,5.5,52.7,6h3.4V6.1z"/>
</g>
</svg>
