<?xml version="1.0" encoding="utf-8"?>
<!-- Generator: Adobe Illustrator 23.0.1, SVG Export Plug-In . SVG Version: 6.00 Build 0)  -->
<svg version="1.1" id="Laag_1" xmlns="http://www.w3.org/2000/svg" xmlns:xlink="http://www.w3.org/1999/xlink" x="0px" y="0px"
	 viewBox="0 0 841.89 595.28" style="enable-background:new 0 0 841.89 595.28;" xml:space="preserve">
<style type="text/css">
	.st0{fill:#517ABD;}
	.st1{fill:#E84435;}
	.st2{fill:#FCBC05;}
	.st3{fill:#31A852;}
</style>
<g>
	<path class="st0" d="M178.87,265.69V149.05h39.85c3.24,0,6.42,0.08,9.56,0.24c3.13,0.16,6.21,0.54,9.23,1.13
		c3.02,0.59,5.97,1.49,8.83,2.67c2.86,1.19,5.64,2.75,8.34,4.7c3.89,2.81,7.07,6.24,9.56,10.29c2.48,4.05,4.46,8.32,5.91,12.8
		c1.46,4.48,2.48,9.02,3.08,13.61c0.59,4.59,0.89,8.83,0.89,12.72c0,3.89-0.24,7.83-0.73,11.83c-0.49,4-1.27,7.91-2.35,11.75
		c-1.08,3.83-2.51,7.51-4.29,11.02c-1.78,3.51-4.02,6.72-6.72,9.64c-2.7,3.02-5.65,5.46-8.83,7.29c-3.19,1.84-6.54,3.27-10.04,4.29
		c-3.51,1.03-7.16,1.73-10.94,2.11c-3.78,0.38-7.61,0.57-11.5,0.57H178.87z M189.89,256.3h26.41c4.97,0,9.64-0.3,14.01-0.89
		c4.37-0.59,8.83-2.08,13.36-4.46c3.89-1.94,7.07-4.59,9.56-7.94c2.48-3.35,4.46-6.99,5.91-10.94c1.46-3.94,2.48-8.07,3.08-12.39
		c0.59-4.32,0.89-8.48,0.89-12.47c0-4.21-0.27-8.5-0.81-12.88c-0.54-4.37-1.57-8.53-3.08-12.47c-1.51-3.94-3.56-7.56-6.16-10.85
		c-2.59-3.29-5.94-6.02-10.04-8.18c-3.46-1.83-7.56-3.02-12.31-3.56c-4.75-0.54-9.56-0.81-14.42-0.81h-26.41V256.3z"/>
	<path class="st0" d="M327.75,267.96c-5.4-0.11-10.45-1.08-15.15-2.92c-4.7-1.83-8.8-4.59-12.31-8.26
		c-3.51-3.67-6.29-8.26-8.34-13.77c-2.05-5.51-3.08-11.93-3.08-19.28c0-6.16,0.81-11.91,2.43-17.25s4.05-10.02,7.29-14.01
		c3.24-3.99,7.29-7.15,12.15-9.48c4.86-2.32,10.53-3.48,17.01-3.48c6.59,0,12.31,1.16,17.17,3.48c4.86,2.32,8.91,5.46,12.15,9.4
		c3.24,3.94,5.64,8.61,7.21,14.01c1.56,5.4,2.35,11.18,2.35,17.33c0,6.7-0.92,12.75-2.75,18.14c-1.84,5.4-4.46,10.04-7.86,13.93
		c-3.4,3.89-7.51,6.88-12.31,8.99C338.9,266.91,333.58,267.96,327.75,267.96z M356.26,223.73c0-4.97-0.54-9.61-1.62-13.93
		c-1.08-4.32-2.75-8.07-5.02-11.26c-2.27-3.18-5.18-5.7-8.75-7.53c-3.56-1.83-7.94-2.75-13.12-2.75c-5.08,0-9.42,1-13.04,3
		c-3.62,2-6.56,4.64-8.83,7.94c-2.27,3.3-3.94,7.08-5.02,11.34c-1.08,4.27-1.62,8.67-1.62,13.2c0,5.18,0.62,9.96,1.86,14.34
		c1.24,4.37,3.05,8.13,5.43,11.26c2.37,3.13,5.35,5.56,8.91,7.29c3.56,1.73,7.67,2.59,12.31,2.59c5.08,0,9.42-1,13.04-3
		c3.62-2,6.56-4.67,8.83-8.02c2.27-3.35,3.94-7.13,5.02-11.34C355.72,232.64,356.26,228.27,356.26,223.73z"/>
	<path class="st0" d="M383.8,265.69V149.05h9.72v72.58l41.15-39.85h13.29l-31.43,30.29l35.15,53.62h-10.85l-31.43-46.82
		l-15.88,15.07v31.75H383.8z"/>
	<path class="st0" d="M494.93,266.02c-1.19,0.21-2.75,0.59-4.7,1.13c-1.94,0.54-4.11,0.81-6.48,0.81c-4.86,0-8.56-1.21-11.1-3.64
		c-2.54-2.43-3.81-6.78-3.81-13.04v-61.4h-11.83v-8.1h11.83v-23.33h9.72v23.33h15.71v8.1h-15.71v57.51c0,2.05,0.05,3.83,0.16,5.35
		c0.11,1.51,0.43,2.75,0.97,3.73c0.54,0.97,1.38,1.68,2.51,2.11c1.13,0.43,2.73,0.65,4.78,0.65c1.3,0,2.62-0.11,3.97-0.32
		c1.35-0.22,2.67-0.49,3.97-0.81V266.02z"/>
	<path class="st0" d="M516.48,226c0,4.54,0.59,8.83,1.78,12.88c1.19,4.05,2.94,7.56,5.26,10.53c2.32,2.97,5.26,5.35,8.83,7.13
		c3.56,1.78,7.67,2.67,12.31,2.67c6.37,0,11.83-1.67,16.36-5.02c4.54-3.35,7.56-8.1,9.07-14.26h10.85c-1.19,4-2.75,7.69-4.7,11.1
		c-1.94,3.4-4.37,6.37-7.29,8.91c-2.92,2.54-6.37,4.51-10.37,5.91c-4,1.4-8.64,2.11-13.93,2.11c-6.7,0-12.47-1.13-17.33-3.4
		c-4.86-2.27-8.86-5.37-11.99-9.32c-3.13-3.94-5.46-8.59-6.97-13.93c-1.51-5.35-2.27-11.1-2.27-17.25s0.89-11.93,2.67-17.33
		c1.78-5.4,4.32-10.12,7.61-14.17c3.29-4.05,7.32-7.23,12.07-9.56c4.75-2.32,10.15-3.48,16.2-3.48c11.56,0,20.63,3.97,27.22,11.91
		c6.59,7.94,9.83,19.47,9.72,34.59H516.48z M571.24,217.9c0-4.1-0.57-7.96-1.7-11.58c-1.13-3.62-2.81-6.75-5.02-9.4
		c-2.21-2.65-5-4.75-8.34-6.32c-3.35-1.56-7.18-2.35-11.5-2.35c-4.32,0-8.13,0.81-11.42,2.43c-3.3,1.62-6.1,3.78-8.42,6.48
		c-2.32,2.7-4.19,5.83-5.59,9.4c-1.41,3.56-2.32,7.35-2.75,11.34H571.24z"/>
	<path class="st0" d="M610.76,265.69h-9.72v-83.92h9.72v15.71h0.32c2.7-6.69,6.18-11.37,10.45-14.01c4.27-2.65,9.91-3.97,16.93-3.97
		v10.53c-5.51-0.11-10.04,0.76-13.61,2.59c-3.56,1.84-6.4,4.32-8.5,7.45c-2.11,3.13-3.56,6.83-4.37,11.1
		c-0.81,4.27-1.21,8.72-1.21,13.36V265.69z"/>
</g>
<g>
	<path class="st0" d="M201.39,367.75v-9.4h49.9v60.26h-9.4V398.7c-2.05,3.46-4.4,6.62-7.05,9.48c-2.65,2.86-5.7,5.29-9.15,7.29
		c-3.46,2-7.45,3.54-11.99,4.62c-4.54,1.08-9.67,1.62-15.39,1.62c-7.35,0-14.15-1.3-20.41-3.89c-6.27-2.59-11.66-6.45-16.2-11.58
		c-4.54-5.13-8.07-11.58-10.61-19.36c-2.54-7.78-3.81-16.85-3.81-27.22c0-8.53,1.08-16.5,3.24-23.9c2.16-7.4,5.48-13.82,9.96-19.28
		c4.48-5.45,10.1-9.75,16.85-12.88c6.75-3.13,14.71-4.7,23.9-4.7c6.16,0,11.91,0.76,17.25,2.27c5.35,1.51,10.15,3.81,14.42,6.88
		c4.27,3.08,7.86,6.91,10.77,11.5c2.92,4.59,5.02,10.02,6.32,16.28h-11.34c-0.97-4.32-2.62-8.21-4.94-11.66
		c-2.32-3.46-5.1-6.34-8.34-8.67c-3.24-2.32-6.86-4.1-10.85-5.35c-4-1.24-8.16-1.86-12.47-1.86c-7.67,0-14.26,1.35-19.76,4.05
		c-5.51,2.7-10.04,6.51-13.61,11.42c-3.56,4.92-6.18,10.8-7.86,17.66c-1.68,6.86-2.51,14.39-2.51,22.6c0,6.48,0.94,12.64,2.83,18.47
		c1.89,5.83,4.64,10.96,8.26,15.39c3.62,4.43,8.04,7.94,13.28,10.53c5.24,2.59,11.2,3.89,17.9,3.89c3.13,0,6.37-0.35,9.72-1.05
		c3.35-0.7,6.59-1.86,9.72-3.48c3.13-1.62,6.05-3.73,8.75-6.32c2.7-2.59,5.02-5.78,6.97-9.56c1.83-3.67,3.1-7.5,3.81-11.5
		c0.7-3.99,1.11-8.21,1.21-12.64H201.39z"/>
</g>
<g>
	<path class="st1" d="M309.77,420.89c-5.4-0.11-10.45-1.08-15.15-2.92c-4.7-1.83-8.8-4.59-12.31-8.26
		c-3.51-3.67-6.29-8.26-8.34-13.77c-2.05-5.51-3.08-11.93-3.08-19.28c0-6.16,0.81-11.91,2.43-17.25s4.05-10.02,7.29-14.01
		c3.24-4,7.29-7.15,12.15-9.48c4.86-2.32,10.53-3.48,17.01-3.48c6.59,0,12.31,1.16,17.17,3.48c4.86,2.32,8.91,5.46,12.15,9.4
		c3.24,3.94,5.64,8.61,7.21,14.01c1.56,5.4,2.35,11.18,2.35,17.33c0,6.7-0.92,12.75-2.75,18.14c-1.84,5.4-4.46,10.04-7.86,13.93
		c-3.4,3.89-7.51,6.88-12.31,8.99C320.92,419.84,315.6,420.89,309.77,420.89z M338.28,376.66c0-4.97-0.54-9.61-1.62-13.93
		c-1.08-4.32-2.75-8.07-5.02-11.26c-2.27-3.18-5.18-5.7-8.75-7.53c-3.56-1.84-7.94-2.75-13.12-2.75c-5.08,0-9.42,1-13.04,3
		c-3.62,2-6.56,4.65-8.83,7.94c-2.27,3.3-3.94,7.08-5.02,11.34c-1.08,4.27-1.62,8.67-1.62,13.2c0,5.18,0.62,9.96,1.86,14.34
		c1.24,4.37,3.05,8.13,5.43,11.26c2.37,3.13,5.35,5.56,8.91,7.29c3.56,1.73,7.67,2.59,12.31,2.59c5.08,0,9.42-1,13.04-3
		c3.62-2,6.56-4.67,8.83-8.02c2.27-3.35,3.94-7.13,5.02-11.34C337.74,385.57,338.28,381.2,338.28,376.66z"/>
</g>
<g>
	<path class="st2" d="M399.84,420.89c-5.4-0.11-10.45-1.08-15.15-2.92c-4.7-1.83-8.8-4.59-12.31-8.26
		c-3.51-3.67-6.29-8.26-8.34-13.77c-2.05-5.51-3.08-11.93-3.08-19.28c0-6.16,0.81-11.91,2.43-17.25s4.05-10.02,7.29-14.01
		c3.24-4,7.29-7.15,12.15-9.48c4.86-2.32,10.53-3.48,17.01-3.48c6.59,0,12.31,1.16,17.17,3.48c4.86,2.32,8.91,5.46,12.15,9.4
		c3.24,3.94,5.64,8.61,7.21,14.01c1.56,5.4,2.35,11.18,2.35,17.33c0,6.7-0.92,12.75-2.75,18.14c-1.84,5.4-4.46,10.04-7.86,13.93
		c-3.4,3.89-7.51,6.88-12.31,8.99C410.99,419.84,405.67,420.89,399.84,420.89z M428.35,376.66c0-4.97-0.54-9.61-1.62-13.93
		c-1.08-4.32-2.75-8.07-5.02-11.26c-2.27-3.18-5.18-5.7-8.75-7.53c-3.56-1.84-7.94-2.75-13.12-2.75c-5.08,0-9.42,1-13.04,3
		c-3.62,2-6.56,4.65-8.83,7.94c-2.27,3.3-3.94,7.08-5.02,11.34c-1.08,4.27-1.62,8.67-1.62,13.2c0,5.18,0.62,9.96,1.86,14.34
		c1.24,4.37,3.05,8.13,5.43,11.26c2.37,3.13,5.35,5.56,8.91,7.29c3.56,1.73,7.67,2.59,12.31,2.59c5.08,0,9.42-1,13.04-3
		c3.62-2,6.56-4.67,8.83-8.02c2.27-3.35,3.94-7.13,5.02-11.34C427.81,385.57,428.35,381.2,428.35,376.66z"/>
</g>
<g>
	<path class="st0" d="M521.34,334.71h9.72v75.82c0,5.62-0.57,10.99-1.7,16.12c-1.13,5.13-3.16,9.64-6.08,13.53
		s-6.91,6.99-11.99,9.32c-5.08,2.32-11.61,3.48-19.6,3.48c-6.16,0-11.45-0.78-15.88-2.35c-4.43-1.57-8.05-3.54-10.85-5.91
		c-2.81-2.38-4.94-5-6.4-7.86c-1.46-2.86-2.24-5.54-2.35-8.02h10.37c0.75,3.13,1.94,5.7,3.56,7.7c1.62,2,3.54,3.56,5.75,4.7
		c2.21,1.13,4.67,1.92,7.37,2.35c2.7,0.43,5.51,0.65,8.42,0.65c6.59,0,11.88-1.13,15.88-3.4c3.99-2.27,7.02-5.24,9.07-8.91
		c2.05-3.67,3.38-7.83,3.97-12.47c0.59-4.64,0.83-9.4,0.73-14.26c-3.13,5.18-7.43,9.1-12.88,11.75c-5.46,2.65-11.15,3.97-17.09,3.97
		c-6.37,0-11.91-1.21-16.61-3.64c-4.7-2.43-8.59-5.67-11.66-9.72c-3.08-4.05-5.37-8.77-6.88-14.18c-1.51-5.4-2.27-11.02-2.27-16.85
		c0-6.16,0.7-11.93,2.11-17.33c1.4-5.4,3.65-10.07,6.72-14.01c3.08-3.94,6.99-7.05,11.75-9.32c4.75-2.27,10.53-3.4,17.33-3.4
		c2.7,0,5.45,0.38,8.26,1.13c2.81,0.76,5.53,1.84,8.18,3.24c2.65,1.4,5.08,3.19,7.29,5.35c2.21,2.16,4.02,4.59,5.43,7.29h0.32
		V334.71z M521.34,376.99c0-5.08-0.62-9.8-1.86-14.17c-1.24-4.37-3.05-8.15-5.43-11.34c-2.38-3.18-5.35-5.7-8.91-7.53
		c-3.56-1.84-7.61-2.75-12.15-2.75c-4.11,0-7.88,0.73-11.34,2.19c-3.46,1.46-6.48,3.59-9.07,6.4c-2.59,2.81-4.62,6.24-6.08,10.29
		c-1.46,4.05-2.19,8.72-2.19,14.01c-0.22,5.29,0.21,10.23,1.3,14.82c1.08,4.59,2.81,8.61,5.18,12.07c2.37,3.46,5.4,6.18,9.07,8.18
		c3.67,2,8.04,3,13.12,3c4.43,0,8.4-0.94,11.91-2.83c3.51-1.89,6.48-4.43,8.91-7.61c2.43-3.18,4.29-6.91,5.59-11.18
		C520.69,386.25,521.34,381.74,521.34,376.99z"/>
</g>
<g>
	<path class="st3" d="M556.98,418.62V301.98h9.72v116.64H556.98z"/>
</g>
<g>
	<path class="st1" d="M597.48,378.93c0,4.54,0.59,8.83,1.78,12.88c1.19,4.05,2.94,7.56,5.26,10.53c2.32,2.97,5.26,5.35,8.83,7.13
		c3.56,1.78,7.67,2.67,12.31,2.67c6.37,0,11.83-1.67,16.36-5.02c4.54-3.35,7.56-8.1,9.07-14.26h10.85c-1.19,4-2.75,7.69-4.7,11.1
		c-1.94,3.4-4.37,6.37-7.29,8.91c-2.92,2.54-6.37,4.51-10.37,5.91c-4,1.4-8.64,2.11-13.93,2.11c-6.7,0-12.47-1.13-17.33-3.4
		c-4.86-2.27-8.86-5.37-11.99-9.32c-3.13-3.94-5.46-8.59-6.97-13.93c-1.51-5.35-2.27-11.1-2.27-17.25s0.89-11.93,2.67-17.33
		c1.78-5.4,4.32-10.12,7.61-14.17c3.29-4.05,7.32-7.23,12.07-9.56c4.75-2.32,10.15-3.48,16.2-3.48c11.56,0,20.63,3.97,27.22,11.91
		c6.59,7.94,9.83,19.47,9.72,34.59H597.48z M652.24,370.83c0-4.1-0.57-7.96-1.7-11.58c-1.13-3.62-2.81-6.75-5.02-9.4
		c-2.21-2.65-5-4.75-8.34-6.32c-3.35-1.56-7.18-2.35-11.5-2.35c-4.32,0-8.13,0.81-11.42,2.43c-3.3,1.62-6.1,3.78-8.42,6.48
		c-2.32,2.7-4.19,5.83-5.59,9.4c-1.41,3.56-2.32,7.35-2.75,11.34H652.24z"/>
</g>
</svg>
