<?xml version="1.0" encoding="utf-8"?>
<!-- Generator: Adobe Illustrator 23.0.1, SVG Export Plug-In . SVG Version: 6.00 Build 0)  -->
<svg version="1.1" id="Laag_1" xmlns="http://www.w3.org/2000/svg" xmlns:xlink="http://www.w3.org/1999/xlink" x="0px" y="0px"
	 viewBox="0 0 515.3 303.9" style="enable-background:new 0 0 515.3 303.9;" xml:space="preserve">
<style type="text/css">
	.st0{fill:#517ABD;}
	.st1{fill:#E84435;}
	.st2{fill:#FCBC05;}
	.st3{fill:#31A852;}
</style>
<g>
	<g>
		<path class="st0" d="M31.6,116.6V0h39.9c3.2,0,6.4,0.1,9.6,0.2c3.1,0.2,6.2,0.5,9.2,1.1c3,0.6,6,1.5,8.8,2.7
			c2.9,1.2,5.6,2.8,8.3,4.7c3.9,2.8,7.1,6.2,9.6,10.3c2.5,4.1,4.5,8.3,5.9,12.8c1.5,4.5,2.5,9,3.1,13.6c0.6,4.6,0.9,8.8,0.9,12.7
			s-0.2,7.8-0.7,11.8c-0.5,4-1.3,7.9-2.4,11.8c-1.1,3.8-2.5,7.5-4.3,11c-1.8,3.5-4,6.7-6.7,9.6c-2.7,3-5.6,5.5-8.8,7.3
			c-3.2,1.8-6.5,3.3-10,4.3c-3.5,1-7.2,1.7-10.9,2.1c-3.8,0.4-7.6,0.6-11.5,0.6L31.6,116.6L31.6,116.6z M42.6,107.2H69
			c5,0,9.6-0.3,14-0.9s8.8-2.1,13.4-4.5c3.9-1.9,7.1-4.6,9.6-7.9c2.5-3.4,4.5-7,5.9-10.9c1.5-3.9,2.5-8.1,3.1-12.4
			c0.6-4.3,0.9-8.5,0.9-12.5c0-4.2-0.3-8.5-0.8-12.9c-0.5-4.4-1.6-8.5-3.1-12.5c-1.5-3.9-3.6-7.6-6.2-10.9c-2.6-3.3-5.9-6-10-8.2
			c-3.5-1.8-7.6-3-12.3-3.6S73.9,9.4,69,9.4H42.6L42.6,107.2L42.6,107.2z"/>
		<path class="st0" d="M180.5,118.9c-5.4-0.1-10.5-1.1-15.1-2.9c-4.7-1.8-8.8-4.6-12.3-8.3c-3.5-3.7-6.3-8.3-8.3-13.8
			c-2-5.5-3.1-11.9-3.1-19.3c0-6.2,0.8-11.9,2.4-17.2s4-10,7.3-14c3.2-4,7.3-7.1,12.1-9.5c4.9-2.3,10.5-3.5,17-3.5
			c6.6,0,12.3,1.2,17.2,3.5c4.9,2.3,8.9,5.5,12.1,9.4c3.2,3.9,5.6,8.6,7.2,14c1.6,5.4,2.4,11.2,2.4,17.3c0,6.7-0.9,12.8-2.8,18.1
			c-1.8,5.4-4.5,10-7.9,13.9c-3.4,3.9-7.5,6.9-12.3,9C191.6,117.9,186.3,118.9,180.5,118.9z M209,74.7c0-5-0.5-9.6-1.6-13.9
			s-2.8-8.1-5-11.3c-2.3-3.2-5.2-5.7-8.8-7.5c-3.6-1.8-7.9-2.8-13.1-2.8c-5.1,0-9.4,1-13,3s-6.6,4.6-8.8,7.9s-3.9,7.1-5,11.3
			c-1.1,4.3-1.6,8.7-1.6,13.2c0,5.2,0.6,10,1.9,14.3c1.2,4.4,3,8.1,5.4,11.3c2.4,3.1,5.4,5.6,8.9,7.3c3.6,1.7,7.7,2.6,12.3,2.6
			c5.1,0,9.4-1,13-3s6.6-4.7,8.8-8s3.9-7.1,5-11.3C208.4,83.6,209,79.2,209,74.7z"/>
		<path class="st0" d="M236.5,116.6V0h9.7v72.6l41.1-39.9h13.3L269.2,63l35.1,53.6h-10.8l-31.4-46.8l-15.9,15.1v31.8H236.5z"/>
		<path class="st0" d="M347.6,117c-1.2,0.2-2.8,0.6-4.7,1.1c-1.9,0.5-4.1,0.8-6.5,0.8c-4.9,0-8.6-1.2-11.1-3.6
			c-2.5-2.4-3.8-6.8-3.8-13V40.8h-11.8v-8.1h11.8V9.4h9.7v23.3H347v8.1h-15.7v57.5c0,2.1,0,3.8,0.2,5.4c0.1,1.5,0.4,2.8,1,3.7
			c0.5,1,1.4,1.7,2.5,2.1s2.7,0.6,4.8,0.6c1.3,0,2.6-0.1,4-0.3c1.3-0.2,2.7-0.5,4-0.8L347.6,117L347.6,117z"/>
		<path class="st0" d="M369.2,76.9c0,4.5,0.6,8.8,1.8,12.9s2.9,7.6,5.3,10.5s5.3,5.4,8.8,7.1c3.6,1.8,7.7,2.7,12.3,2.7
			c6.4,0,11.8-1.7,16.4-5c4.5-3.4,7.6-8.1,9.1-14.3h10.8c-1.2,4-2.8,7.7-4.7,11.1c-1.9,3.4-4.4,6.4-7.3,8.9s-6.4,4.5-10.4,5.9
			s-8.6,2.1-13.9,2.1c-6.7,0-12.5-1.1-17.3-3.4c-4.9-2.3-8.9-5.4-12-9.3c-3.1-3.9-5.5-8.6-7-13.9c-1.5-5.4-2.3-11.1-2.3-17.2
			s0.9-11.9,2.7-17.3c1.8-5.4,4.3-10.1,7.6-14.2c3.3-4.1,7.3-7.2,12.1-9.6c4.8-2.3,10.2-3.5,16.2-3.5c11.6,0,20.6,4,27.2,11.9
			c6.6,7.9,9.8,19.5,9.7,34.6L369.2,76.9L369.2,76.9z M424,68.8c0-4.1-0.6-8-1.7-11.6s-2.8-6.8-5-9.4s-5-4.8-8.3-6.3
			c-3.3-1.6-7.2-2.4-11.5-2.4s-8.1,0.8-11.4,2.4c-3.3,1.6-6.1,3.8-8.4,6.5s-4.2,5.8-5.6,9.4c-1.4,3.6-2.3,7.4-2.8,11.3L424,68.8
			L424,68.8z"/>
		<path class="st0" d="M463.5,116.6h-9.7V32.7h9.7v15.7h0.3c2.7-6.7,6.2-11.4,10.5-14c4.3-2.6,9.9-4,16.9-4V41
			c-5.5-0.1-10,0.8-13.6,2.6c-3.6,1.8-6.4,4.3-8.5,7.4c-2.1,3.1-3.6,6.8-4.4,11.1s-1.2,8.7-1.2,13.4L463.5,116.6L463.5,116.6z"/>
	</g>
	<g>
		<path class="st0" d="M54.1,218.7v-9.4H104v60.3h-9.4v-19.9c-2.1,3.5-4.4,6.6-7.1,9.5c-2.6,2.9-5.7,5.3-9.1,7.3
			c-3.5,2-7.4,3.5-12,4.6c-4.5,1.1-9.7,1.6-15.4,1.6c-7.4,0-14.1-1.3-20.4-3.9c-6.3-2.6-11.7-6.5-16.2-11.6
			c-4.5-5.1-8.1-11.6-10.6-19.4C1.3,230.1,0,221,0,210.6c0-8.5,1.1-16.5,3.2-23.9s5.5-13.8,10-19.3c4.5-5.5,10.1-9.8,16.9-12.9
			s14.7-4.7,23.9-4.7c6.2,0,11.9,0.8,17.2,2.3c5.4,1.5,10.1,3.8,14.4,6.9c4.3,3.1,7.9,6.9,10.8,11.5c2.9,4.6,5,10,6.3,16.3H91.4
			c-1-4.3-2.6-8.2-4.9-11.7c-2.3-3.5-5.1-6.3-8.3-8.7c-3.2-2.3-6.9-4.1-10.9-5.4c-4-1.2-8.2-1.9-12.5-1.9c-7.7,0-14.3,1.4-19.8,4
			c-5.5,2.7-10,6.5-13.6,11.4c-3.6,4.9-6.2,10.8-7.9,17.7c-1.7,6.9-2.5,14.4-2.5,22.6c0,6.5,0.9,12.6,2.8,18.5s4.6,11,8.3,15.4
			c3.6,4.4,8,7.9,13.3,10.5c5.2,2.6,11.2,3.9,17.9,3.9c3.1,0,6.4-0.3,9.7-1s6.6-1.9,9.7-3.5s6.1-3.7,8.8-6.3s5-5.8,7-9.6
			c1.8-3.7,3.1-7.5,3.8-11.5c0.7-4,1.1-8.2,1.2-12.6H54.1z"/>
	</g>
	<g>
		<path class="st1" d="M162.5,271.8c-5.4-0.1-10.5-1.1-15.1-2.9c-4.7-1.8-8.8-4.6-12.3-8.3c-3.5-3.7-6.3-8.3-8.3-13.8
			c-2-5.5-3.1-11.9-3.1-19.3c0-6.2,0.8-11.9,2.4-17.2s4-10,7.3-14c3.2-4,7.3-7.1,12.1-9.5c4.9-2.3,10.5-3.5,17-3.5
			c6.6,0,12.3,1.2,17.2,3.5c4.9,2.3,8.9,5.5,12.1,9.4s5.6,8.6,7.2,14c1.6,5.4,2.4,11.2,2.4,17.3c0,6.7-0.9,12.8-2.8,18.1
			c-1.8,5.4-4.5,10-7.9,13.9c-3.4,3.9-7.5,6.9-12.3,9C173.6,270.8,168.3,271.8,162.5,271.8z M191,227.6c0-5-0.5-9.6-1.6-13.9
			s-2.8-8.1-5-11.3c-2.3-3.2-5.2-5.7-8.8-7.5c-3.6-1.8-7.9-2.8-13.1-2.8c-5.1,0-9.4,1-13,3s-6.6,4.6-8.8,7.9
			c-2.3,3.3-3.9,7.1-5,11.3c-1.1,4.3-1.6,8.7-1.6,13.2c0,5.2,0.6,10,1.9,14.3c1.2,4.4,3,8.1,5.4,11.3c2.4,3.1,5.4,5.6,8.9,7.3
			c3.6,1.7,7.7,2.6,12.3,2.6c5.1,0,9.4-1,13-3s6.6-4.7,8.8-8c2.3-3.4,3.9-7.1,5-11.3C190.5,236.5,191,232.2,191,227.6z"/>
	</g>
	<g>
		<path class="st2" d="M252.6,271.8c-5.4-0.1-10.5-1.1-15.1-2.9c-4.7-1.8-8.8-4.6-12.3-8.3c-3.5-3.7-6.3-8.3-8.3-13.8
			c-2-5.5-3.1-11.9-3.1-19.3c0-6.2,0.8-11.9,2.4-17.2s4-10,7.3-14c3.2-4,7.3-7.1,12.1-9.5c4.9-2.3,10.5-3.5,17-3.5
			c6.6,0,12.3,1.2,17.2,3.5c4.9,2.3,8.9,5.5,12.1,9.4s5.6,8.6,7.2,14c1.6,5.4,2.3,11.2,2.3,17.3c0,6.7-0.9,12.8-2.8,18.1
			c-1.8,5.4-4.5,10-7.9,13.9c-3.4,3.9-7.5,6.9-12.3,9C263.7,270.8,258.4,271.8,252.6,271.8z M281.1,227.6c0-5-0.5-9.6-1.6-13.9
			c-1.1-4.3-2.8-8.1-5-11.3c-2.3-3.2-5.2-5.7-8.8-7.5c-3.6-1.8-7.9-2.8-13.1-2.8c-5.1,0-9.4,1-13,3s-6.6,4.6-8.8,7.9
			c-2.3,3.3-3.9,7.1-5,11.3c-1.1,4.3-1.6,8.7-1.6,13.2c0,5.2,0.6,10,1.9,14.3c1.2,4.4,3,8.1,5.4,11.3c2.4,3.1,5.4,5.6,8.9,7.3
			c3.6,1.7,7.7,2.6,12.3,2.6c5.1,0,9.4-1,13-3s6.6-4.7,8.8-8c2.3-3.4,3.9-7.1,5-11.3C280.5,236.5,281.1,232.2,281.1,227.6z"/>
	</g>
	<g>
		<path class="st0" d="M374.1,185.7h9.7v75.8c0,5.6-0.6,11-1.7,16.1s-3.2,9.6-6.1,13.5c-2.9,3.9-6.9,7-12,9.3
			c-5.1,2.3-11.6,3.5-19.6,3.5c-6.2,0-11.5-0.8-15.9-2.3s-8-3.5-10.9-5.9c-2.8-2.4-4.9-5-6.4-7.9c-1.5-2.9-2.2-5.5-2.4-8h10.4
			c0.8,3.1,1.9,5.7,3.6,7.7s3.5,3.6,5.8,4.7c2.2,1.1,4.7,1.9,7.4,2.3c2.7,0.4,5.5,0.7,8.4,0.7c6.6,0,11.9-1.1,15.9-3.4
			c4-2.3,7-5.2,9.1-8.9c2-3.7,3.4-7.8,4-12.5c0.6-4.6,0.8-9.4,0.7-14.3c-3.1,5.2-7.4,9.1-12.9,11.8c-5.5,2.7-11.1,4-17.1,4
			c-6.4,0-11.9-1.2-16.6-3.6s-8.6-5.7-11.7-9.7c-3.1-4-5.4-8.8-6.9-14.2c-1.5-5.4-2.3-11-2.3-16.9c0-6.2,0.7-11.9,2.1-17.3
			c1.4-5.4,3.7-10.1,6.7-14c3.1-3.9,7-7,11.8-9.3c4.8-2.3,10.5-3.4,17.3-3.4c2.7,0,5.5,0.4,8.3,1.1c2.8,0.8,5.5,1.8,8.2,3.2
			c2.7,1.4,5.1,3.2,7.3,5.4c2.2,2.2,4,4.6,5.4,7.3h0.3L374.1,185.7L374.1,185.7z M374.1,227.9c0-5.1-0.6-9.8-1.9-14.2
			c-1.2-4.4-3-8.1-5.4-11.3c-2.4-3.2-5.3-5.7-8.9-7.5c-3.6-1.8-7.6-2.8-12.2-2.8c-4.1,0-7.9,0.7-11.3,2.2c-3.5,1.5-6.5,3.6-9.1,6.4
			c-2.6,2.8-4.6,6.2-6.1,10.3c-1.5,4-2.2,8.7-2.2,14c-0.2,5.3,0.2,10.2,1.3,14.8c1.1,4.6,2.8,8.6,5.2,12.1c2.4,3.5,5.4,6.2,9.1,8.2
			c3.7,2,8,3,13.1,3c4.4,0,8.4-0.9,11.9-2.8c3.5-1.9,6.5-4.4,8.9-7.6s4.3-6.9,5.6-11.2C373.4,237.2,374.1,232.7,374.1,227.9z"/>
	</g>
	<g>
		<path class="st3" d="M409.7,269.6V152.9h9.7v116.6H409.7z"/>
	</g>
	<g>
		<path class="st1" d="M450.2,229.9c0,4.5,0.6,8.8,1.8,12.9c1.2,4,2.9,7.6,5.3,10.5c2.3,3,5.3,5.4,8.8,7.1c3.6,1.8,7.7,2.7,12.3,2.7
			c6.4,0,11.8-1.7,16.4-5c4.5-3.3,7.6-8.1,9.1-14.3h10.8c-1.2,4-2.8,7.7-4.7,11.1c-1.9,3.4-4.4,6.4-7.3,8.9
			c-2.9,2.5-6.4,4.5-10.4,5.9c-4,1.4-8.6,2.1-13.9,2.1c-6.7,0-12.5-1.1-17.3-3.4c-4.9-2.3-8.9-5.4-12-9.3c-3.1-3.9-5.5-8.6-7-13.9
			c-1.5-5.4-2.3-11.1-2.3-17.2s0.9-11.9,2.7-17.3c1.8-5.4,4.3-10.1,7.6-14.2c3.3-4,7.3-7.2,12.1-9.6c4.8-2.3,10.2-3.5,16.2-3.5
			c11.6,0,20.6,4,27.2,11.9c6.6,7.9,9.8,19.5,9.7,34.6L450.2,229.9L450.2,229.9z M505,221.8c0-4.1-0.6-8-1.7-11.6s-2.8-6.8-5-9.4
			s-5-4.8-8.3-6.3c-3.3-1.6-7.2-2.4-11.5-2.4s-8.1,0.8-11.4,2.4c-3.3,1.6-6.1,3.8-8.4,6.5s-4.2,5.8-5.6,9.4
			c-1.4,3.6-2.3,7.4-2.8,11.3H505z"/>
	</g>
</g>
</svg>
