<?xml version="1.0" encoding="utf-8"?>
<!-- Generator: Adobe Illustrator 23.0.1, SVG Export Plug-In . SVG Version: 6.00 Build 0)  -->
<svg version="1.1" id="Laag_1" xmlns="http://www.w3.org/2000/svg" xmlns:xlink="http://www.w3.org/1999/xlink" x="0px" y="0px"
	 viewBox="0 0 56.69 56.69" style="enable-background:new 0 0 56.69 56.69;" xml:space="preserve">
<style type="text/css">
	.st0{clip-path:url(#SVGID_2_);fill:none;stroke:#517ABD;stroke-miterlimit:4.158;}
</style>
<g>
	<defs>
		<rect id="SVGID_1_" x="2.29" y="4.97" width="73.68" height="41.73"/>
	</defs>
	<clipPath id="SVGID_2_">
		<use xlink:href="#SVGID_1_"  style="overflow:visible;"/>
	</clipPath>
	<path class="st0" d="M15.25,28.97c0-1.08,0.03-1.95,0.39-2.94c0.57-1.59,2.1-3.03,4.32-3.03c2.88,0,4.02,1.41,4.02,4.2v10.14h1.8
		V27.17c0-1.29-0.03-2.46-0.78-3.57c-1.11-1.62-2.85-2.22-4.74-2.22c-2.16,0-3.57,1.05-5.01,2.58V21.8h-1.8v15.54h1.8V28.97z"/>
	<rect x="30.4" y="15.74" class="st0" width="1.8" height="21.6"/>
	<rect x="37.69" y="34.7" class="st0" width="2.19" height="2.64"/>
</g>
</svg>
