<?xml version="1.0" encoding="utf-8"?>
<!-- Generator: Adobe Illustrator 23.0.1, SVG Export Plug-In . SVG Version: 6.00 Build 0)  -->
<svg version="1.1" id="Laag_1" xmlns="http://www.w3.org/2000/svg" xmlns:xlink="http://www.w3.org/1999/xlink" x="0px" y="0px"
	 viewBox="0 0 27.7 22.8" style="enable-background:new 0 0 27.7 22.8;" xml:space="preserve">
<style type="text/css">
	.st0{clip-path:url(#SVGID_2_);fill:none;stroke:#4285F4;stroke-miterlimit:4.158;}
	.st1{clip-path:url(#SVGID_4_);fill:none;stroke:#4285F4;stroke-miterlimit:4.158;}
	.st2{clip-path:url(#SVGID_6_);fill:none;stroke:#4285F4;stroke-miterlimit:4.158;}
</style>
<g>
	<g>
		<defs>
			<rect id="SVGID_1_" x="-10.5" y="-10.2" width="73.7" height="41.7"/>
		</defs>
		<clipPath id="SVGID_2_">
			<use xlink:href="#SVGID_1_"  style="overflow:visible;"/>
		</clipPath>
		<path class="st0" d="M2.4,13.8c0-1.1,0-2,0.4-2.9c0.6-1.6,2.1-3,4.3-3c2.9,0,4,1.4,4,4.2v10.1H13V12c0-1.3,0-2.5-0.8-3.6
			c-1.1-1.6-2.9-2.2-4.7-2.2c-2.2,0-3.6,1-5,2.6V6.7H0.6v15.5h1.8V13.8z"/>
	</g>
	<g>
		<defs>
			<rect id="SVGID_3_" x="-10.5" y="-10.2" width="73.7" height="41.7"/>
		</defs>
		<clipPath id="SVGID_4_">
			<use xlink:href="#SVGID_3_"  style="overflow:visible;"/>
		</clipPath>
		<rect x="17.6" y="0.6" class="st1" width="1.8" height="21.6"/>
	</g>
	<g>
		<defs>
			<rect id="SVGID_5_" x="-10.5" y="-10.2" width="73.7" height="41.7"/>
		</defs>
		<clipPath id="SVGID_6_">
			<use xlink:href="#SVGID_5_"  style="overflow:visible;"/>
		</clipPath>
		<rect x="24.9" y="19.6" class="st2" width="2.2" height="2.6"/>
	</g>
</g>
</svg>
