<?xml version="1.0" encoding="utf-8"?>
<!-- Generator: Adobe Illustrator 22.1.0, SVG Export Plug-In . SVG Version: 6.00 Build 0)  -->
<svg version="1.1" id="Laag_1" xmlns="http://www.w3.org/2000/svg" xmlns:xlink="http://www.w3.org/1999/xlink" x="0px" y="0px" width="283.5" height="46"
	 viewBox="0 0 283.5 46" style="enable-background:new 0 0 283.5 46;" xml:space="preserve">
<style type="text/css">
	.st0{fill:none;stroke:#4285F4;}
</style>
<g>
	<path class="st0" d="M19.1,26.5c0.5,2.2,1.3,3.8,2.5,4.7s3,1.4,5.2,1.4c1.1,0,2.1-0.1,2.9-0.4c0.8-0.3,1.5-0.6,2-1.1
		c0.5-0.4,0.9-1,1.2-1.5c0.3-0.6,0.4-1.2,0.4-1.8c0-1.3-0.4-2.2-1.2-2.8s-1.8-1.1-3.1-1.5c-1.2-0.3-2.6-0.6-4-0.9
		c-1.4-0.2-2.8-0.6-4-1.1s-2.3-1.2-3.1-2.1c-0.8-0.9-1.2-2.2-1.2-4c0-2.2,0.8-3.9,2.4-5.3C20.7,8.7,22.9,8,25.8,8
		c2.8,0,5.1,0.6,6.8,1.9c1.7,1.3,2.8,3.3,3.2,6.3h-3c-0.3-2-1-3.4-2.3-4.2c-1.2-0.8-2.8-1.2-4.7-1.2c-1.9,0-3.4,0.4-4.4,1.2
		s-1.5,1.9-1.5,3.2c0,1.2,0.4,2.1,1.2,2.7c0.8,0.6,1.8,1.1,3.1,1.5c1.2,0.4,2.6,0.7,4,1s2.8,0.7,4,1.3s2.3,1.3,3.1,2.2
		s1.2,2.2,1.2,3.9c0,1.2-0.3,2.3-0.8,3.3s-1.3,1.7-2.2,2.4c-0.9,0.6-2,1.1-3.3,1.4s-2.7,0.5-4.2,0.5s-2.9-0.2-4.1-0.7
		c-1.2-0.4-2.2-1.1-3-1.9c-0.8-0.8-1.5-1.7-2-2.8s-0.7-2.2-0.8-3.5L19.1,26.5L19.1,26.5z"/>
	<path class="st0" d="M42.1,41.6c0.4,0.1,0.8,0.1,1.2,0.2c0.4,0.1,0.8,0.1,1.3,0.1c0.8,0,1.5-0.3,2-0.8s1-1.2,1.3-1.9
		s0.6-1.5,0.9-2.3c0.2-0.8,0.5-1.5,0.8-2.1l-10-26.1H43l8.3,22.2l8.3-22.2h3.2l-9.6,25.5c-0.6,1.6-1.2,3.1-1.7,4.4
		c-0.5,1.3-1.1,2.4-1.8,3.3c-0.6,0.9-1.3,1.6-2,2.1s-1.6,0.7-2.7,0.7c-0.5,0-1,0-1.5-0.1s-0.9-0.1-1.3-0.2L42.1,41.6L42.1,41.6z"/>
	<path class="st0" d="M69.9,34.6h-3V8.7h3v3.9H70c0.8-1.5,1.9-2.6,3.3-3.4S76.3,8,78,8c1.2,0,2.2,0.1,3,0.4c0.8,0.3,1.5,0.6,2.1,1.1
		s1.1,1,1.5,1.6s0.7,1.2,1,1.9c0.9-1.7,2-3,3.5-3.8s3.1-1.2,5-1.2c1.8,0,3.2,0.3,4.2,0.9c1,0.6,1.9,1.4,2.4,2.3
		c0.6,0.9,0.9,2,1.1,3.3c0.2,1.2,0.3,2.5,0.3,3.8v16.4h-3V16.8c0-1.9-0.4-3.3-1.2-4.4c-0.8-1.1-2.2-1.6-4.4-1.6
		c-1.1,0-2.2,0.2-3.2,0.7s-1.9,1.2-2.7,2.2c-0.3,0.4-0.6,0.9-0.8,1.5c-0.2,0.6-0.4,1.2-0.5,1.8s-0.2,1.3-0.3,1.9
		c0,0.6-0.1,1.2-0.1,1.8v14h-3V16.8c0-1.9-0.4-3.3-1.2-4.4c-0.8-1.1-2.2-1.6-4.4-1.6c-1.1,0-2.2,0.2-3.2,0.7s-1.9,1.2-2.7,2.2
		c-0.3,0.4-0.6,0.9-0.8,1.5c-0.2,0.6-0.4,1.2-0.5,1.8s-0.2,1.3-0.3,1.9c-0.1,0.6-0.1,1.2-0.1,1.8v13.9H69.9z"/>
	<path class="st0" d="M112.3,44.8h-3V8.7h3v4.5h0.1c0.4-0.8,1-1.6,1.7-2.2c0.7-0.7,1.4-1.2,2.2-1.6c0.8-0.4,1.7-0.8,2.5-1
		c0.9-0.2,1.7-0.4,2.5-0.4c2.1,0,3.9,0.4,5.4,1.1c1.5,0.7,2.7,1.7,3.6,2.9c0.9,1.2,1.6,2.7,2.1,4.3c0.4,1.7,0.7,3.5,0.7,5.4
		c0,1.8-0.2,3.5-0.7,5.2s-1.2,3.1-2.1,4.4s-2.1,2.2-3.6,3s-3.2,1.1-5.1,1.1c-1.8,0-3.6-0.4-5.3-1.2c-1.7-0.8-3-2-4-3.6V44.8z
		 M112.3,21.7c0,1.5,0.2,2.9,0.6,4.2s1,2.5,1.7,3.4c0.8,1,1.7,1.8,2.8,2.4c1.1,0.6,2.3,0.9,3.7,0.9c1.5,0,2.9-0.3,4-0.9
		c1.2-0.6,2.1-1.5,2.8-2.5c0.7-1.1,1.3-2.3,1.6-3.7s0.5-2.9,0.4-4.6c0-1.6-0.2-3.1-0.7-4.3s-1.1-2.3-1.9-3.2c-0.8-0.9-1.7-1.5-2.8-2
		c-1.1-0.4-2.2-0.7-3.5-0.7c-1.4,0-2.7,0.3-3.8,0.9c-1.1,0.6-2,1.3-2.8,2.3c-0.7,1-1.3,2.1-1.7,3.5
		C112.5,18.7,112.3,20.2,112.3,21.7z"/>
	<path class="st0" d="M148.6,34.7c-0.4,0.1-0.9,0.2-1.5,0.4s-1.3,0.2-2,0.2c-1.5,0-2.6-0.4-3.4-1.1c-0.8-0.8-1.2-2.1-1.2-4V11.3
		h-3.7V8.8h3.7V1.5h3v7.2h4.8v2.5h-4.8V29c0,0.6,0,1.2,0,1.6c0,0.5,0.1,0.9,0.3,1.1c0.2,0.3,0.4,0.5,0.8,0.6
		c0.3,0.1,0.8,0.2,1.5,0.2c0.4,0,0.8,0,1.2-0.1s0.8-0.1,1.2-0.2L148.6,34.7L148.6,34.7z"/>
	<path class="st0" d="M163.7,35.3c-1.7,0-3.2-0.3-4.7-0.9c-1.4-0.6-2.7-1.4-3.8-2.5s-1.9-2.5-2.6-4.2s-0.9-3.7-0.9-6
		c0-1.9,0.2-3.7,0.8-5.3s1.2-3.1,2.2-4.3s2.2-2.2,3.8-2.9c1.5-0.7,3.2-1.1,5.2-1.1s3.8,0.4,5.3,1.1c1.5,0.7,2.8,1.7,3.8,2.9
		s1.7,2.7,2.2,4.3c0.5,1.7,0.7,3.4,0.7,5.3c0,2.1-0.3,3.9-0.9,5.6c-0.6,1.7-1.4,3.1-2.4,4.3s-2.3,2.1-3.8,2.8
		C167.2,35,165.5,35.3,163.7,35.3z M172.5,21.6c0-1.5-0.2-3-0.5-4.3s-0.9-2.5-1.5-3.5c-0.7-1-1.6-1.8-2.7-2.3
		c-1.1-0.6-2.5-0.9-4-0.9c-1.6,0-2.9,0.3-4,0.9c-1.1,0.6-2,1.4-2.7,2.5c-0.7,1-1.2,2.2-1.6,3.5c-0.3,1.3-0.5,2.7-0.5,4.1
		c0,1.6,0.2,3.1,0.6,4.4c0.4,1.4,0.9,2.5,1.7,3.5s1.7,1.7,2.8,2.2s2.4,0.8,3.8,0.8c1.6,0,2.9-0.3,4-0.9c1.1-0.6,2-1.4,2.7-2.5
		c0.7-1,1.2-2.2,1.5-3.5C172.4,24.4,172.5,23,172.5,21.6z"/>
	<path class="st0" d="M183.8,34.6h-3V8.7h3v3.9h0.1c0.8-1.5,1.9-2.6,3.3-3.4s3-1.2,4.7-1.2c1.2,0,2.2,0.1,3,0.4
		c0.8,0.3,1.5,0.6,2.1,1.1s1.1,1,1.5,1.6s0.7,1.2,1,1.9c0.9-1.7,2-3,3.5-3.8s3.1-1.2,5-1.2c1.8,0,3.2,0.3,4.2,0.9
		c1,0.6,1.9,1.4,2.4,2.3c0.6,0.9,0.9,2,1.1,3.3c0.2,1.2,0.3,2.5,0.3,3.8v16.4h-3V16.8c0-1.9-0.4-3.3-1.2-4.4
		c-0.8-1.1-2.2-1.6-4.4-1.6c-1.1,0-2.2,0.2-3.2,0.7s-1.9,1.2-2.7,2.2c-0.3,0.4-0.6,0.9-0.8,1.5s-0.4,1.2-0.5,1.8s-0.2,1.3-0.3,1.9
		c0,0.6-0.1,1.2-0.1,1.8v14h-3V16.8c0-1.9-0.4-3.3-1.2-4.4c-0.8-1.1-2.2-1.6-4.4-1.6c-1.1,0-2.2,0.2-3.2,0.7s-1.9,1.2-2.7,2.2
		c-0.3,0.4-0.6,0.9-0.8,1.5s-0.4,1.2-0.5,1.8s-0.2,1.3-0.3,1.9c-0.1,0.6-0.1,1.2-0.1,1.8v13.9H183.8z"/>
	<path class="st0" d="M224.7,22.3c0,1.4,0.2,2.7,0.5,4c0.4,1.2,0.9,2.3,1.6,3.2c0.7,0.9,1.6,1.6,2.7,2.2c1.1,0.6,2.4,0.8,3.8,0.8
		c2,0,3.6-0.5,5-1.5s2.3-2.5,2.8-4.4h3.3c-0.4,1.2-0.8,2.4-1.4,3.4c-0.6,1-1.4,2-2.2,2.8c-0.9,0.8-2,1.4-3.2,1.8
		c-1.2,0.4-2.7,0.7-4.3,0.7c-2.1,0-3.9-0.4-5.4-1.1c-1.5-0.7-2.7-1.7-3.7-2.9s-1.7-2.6-2.1-4.3c-0.5-1.6-0.7-3.4-0.7-5.3
		s0.3-3.7,0.8-5.4s1.3-3.1,2.3-4.4s2.3-2.2,3.7-2.9c1.5-0.7,3.1-1.1,5-1.1c3.6,0,6.4,1.2,8.4,3.7c2,2.4,3,6,3,10.7H224.7z
		 M241.6,19.8c0-1.3-0.2-2.5-0.5-3.6c-0.4-1.1-0.9-2.1-1.5-2.9c-0.7-0.8-1.5-1.5-2.6-1.9c-1-0.5-2.2-0.7-3.5-0.7s-2.5,0.2-3.5,0.8
		c-1,0.5-1.9,1.2-2.6,2c-0.7,0.8-1.3,1.8-1.7,2.9c-0.4,1.1-0.7,2.3-0.8,3.5h16.7V19.8z"/>
	<path class="st0" d="M253.7,34.6h-3V8.7h3v3.6c1.2-1.3,2.4-2.3,3.7-3.1S260.2,8,262,8c1.6,0,3.1,0.3,4.5,0.8s2.5,1.5,3.4,2.9
		c0.6,0.9,1,1.9,1.1,2.9s0.2,2,0.2,3.1v17h-3V17.8c0-2.3-0.5-4.1-1.6-5.2c-1-1.2-2.8-1.8-5.1-1.8c-0.9,0-1.8,0.1-2.5,0.4
		c-0.8,0.3-1.5,0.7-2.1,1.1c-0.6,0.5-1.1,1-1.6,1.6c-0.4,0.6-0.8,1.2-1,1.9c-0.3,0.8-0.5,1.6-0.5,2.4c-0.1,0.8-0.1,1.6-0.1,2.5
		L253.7,34.6L253.7,34.6z"/>
</g>
</svg>
