<?xml version="1.0" encoding="utf-8"?>
<!-- Generator: Adobe Illustrator 23.0.1, SVG Export Plug-In . SVG Version: 6.00 Build 0)  -->
<svg version="1.1" id="Laag_1" xmlns="http://www.w3.org/2000/svg" xmlns:xlink="http://www.w3.org/1999/xlink" x="0px" y="0px"
	 viewBox="0 0 283.5 283.5" style="enable-background:new 0 0 283.5 283.5;" xml:space="preserve">
<style type="text/css">
	.st0{fill:none;stroke:#FBBC05;}
</style>
<g>
	<path class="st0" d="M37.9,151.1c0.5,2.2,1.3,3.8,2.5,4.7s3,1.4,5.2,1.4c1.1,0,2.1-0.1,2.9-0.4c0.8-0.3,1.5-0.6,2-1.1
		c0.5-0.4,0.9-1,1.2-1.5c0.3-0.6,0.4-1.2,0.4-1.8c0-1.3-0.4-2.2-1.2-2.8c-0.8-0.6-1.8-1.1-3.1-1.5c-1.2-0.3-2.6-0.6-4-0.9
		c-1.4-0.2-2.8-0.6-4-1.1c-1.2-0.5-2.3-1.2-3.1-2.1c-0.8-0.9-1.2-2.2-1.2-4c0-2.2,0.8-3.9,2.4-5.3c1.6-1.4,3.8-2.1,6.7-2.1
		c2.8,0,5.1,0.6,6.8,1.9s2.8,3.3,3.2,6.3h-3c-0.3-2-1-3.4-2.3-4.2c-1.2-0.8-2.8-1.2-4.7-1.2c-1.9,0-3.4,0.4-4.4,1.2
		c-1,0.8-1.5,1.9-1.5,3.2c0,1.2,0.4,2.1,1.2,2.7c0.8,0.6,1.8,1.1,3.1,1.5c1.2,0.4,2.6,0.7,4,1c1.4,0.3,2.8,0.7,4,1.3
		c1.2,0.6,2.3,1.3,3.1,2.2c0.8,0.9,1.2,2.2,1.2,3.9c0,1.2-0.3,2.3-0.8,3.3c-0.5,1-1.3,1.7-2.2,2.4c-0.9,0.6-2,1.1-3.3,1.4
		s-2.7,0.5-4.2,0.5c-1.5,0-2.9-0.2-4.1-0.7c-1.2-0.4-2.2-1.1-3-1.9c-0.8-0.8-1.5-1.7-2-2.8c-0.5-1.1-0.7-2.2-0.8-3.5H37.9z"/>
	<path class="st0" d="M60.9,166.2c0.4,0.1,0.8,0.1,1.2,0.2c0.4,0.1,0.8,0.1,1.3,0.1c0.8,0,1.5-0.3,2-0.8c0.5-0.5,1-1.2,1.3-1.9
		c0.3-0.7,0.6-1.5,0.9-2.3c0.2-0.8,0.5-1.5,0.8-2.1l-10-26.1h3.3l8.3,22.2l8.3-22.2h3.2L72,158.8c-0.6,1.6-1.2,3.1-1.7,4.4
		c-0.5,1.3-1.1,2.4-1.8,3.3c-0.6,0.9-1.3,1.6-2,2.1s-1.6,0.7-2.7,0.7c-0.5,0-1,0-1.5-0.1s-0.9-0.1-1.3-0.2V166.2z"/>
	<path class="st0" d="M88.7,159.2h-3v-25.9h3v3.9h0.1c0.8-1.5,1.9-2.6,3.3-3.4s3-1.2,4.7-1.2c1.2,0,2.2,0.1,3,0.4
		c0.8,0.3,1.5,0.6,2.1,1.1s1.1,1,1.5,1.6c0.4,0.6,0.7,1.2,1,1.9c0.9-1.7,2-3,3.5-3.8c1.5-0.8,3.1-1.2,5-1.2c1.8,0,3.2,0.3,4.2,0.9
		c1,0.6,1.9,1.4,2.4,2.3c0.6,0.9,0.9,2,1.1,3.3c0.2,1.2,0.3,2.5,0.3,3.8v16.4h-3v-17.9c0-1.9-0.4-3.3-1.2-4.4
		c-0.8-1.1-2.2-1.6-4.4-1.6c-1.1,0-2.2,0.2-3.2,0.7c-1,0.5-1.9,1.2-2.7,2.2c-0.3,0.4-0.6,0.9-0.8,1.5c-0.2,0.6-0.4,1.2-0.5,1.8
		c-0.1,0.6-0.2,1.3-0.3,1.9c0,0.6-0.1,1.2-0.1,1.8v14h-3v-17.9c0-1.9-0.4-3.3-1.2-4.4c-0.8-1.1-2.2-1.6-4.4-1.6
		c-1.1,0-2.2,0.2-3.2,0.7c-1,0.5-1.9,1.2-2.7,2.2c-0.3,0.4-0.6,0.9-0.8,1.5c-0.2,0.6-0.4,1.2-0.5,1.8c-0.1,0.6-0.2,1.3-0.3,1.9
		c-0.1,0.6-0.1,1.2-0.1,1.8V159.2z"/>
	<path class="st0" d="M131.1,169.4h-3v-36.1h3v4.5h0.1c0.4-0.8,1-1.6,1.7-2.2c0.7-0.7,1.4-1.2,2.2-1.6c0.8-0.4,1.7-0.8,2.5-1
		c0.9-0.2,1.7-0.4,2.5-0.4c2.1,0,3.9,0.4,5.4,1.1c1.5,0.7,2.7,1.7,3.6,2.9c0.9,1.2,1.6,2.7,2.1,4.3c0.4,1.7,0.7,3.5,0.7,5.4
		c0,1.8-0.2,3.5-0.7,5.2c-0.5,1.7-1.2,3.1-2.1,4.4s-2.1,2.2-3.6,3s-3.2,1.1-5.1,1.1c-1.8,0-3.6-0.4-5.3-1.2c-1.7-0.8-3-2-4-3.6
		V169.4z M131.1,146.3c0,1.5,0.2,2.9,0.6,4.2c0.4,1.3,1,2.5,1.7,3.4c0.8,1,1.7,1.8,2.8,2.4c1.1,0.6,2.3,0.9,3.7,0.9
		c1.5,0,2.9-0.3,4-0.9c1.2-0.6,2.1-1.5,2.8-2.5c0.7-1.1,1.3-2.3,1.6-3.7c0.3-1.4,0.5-2.9,0.4-4.6c0-1.6-0.2-3.1-0.7-4.3
		s-1.1-2.3-1.9-3.2c-0.8-0.9-1.7-1.5-2.8-2c-1.1-0.4-2.2-0.7-3.5-0.7c-1.4,0-2.7,0.3-3.8,0.9c-1.1,0.6-2,1.3-2.8,2.3
		c-0.7,1-1.3,2.1-1.7,3.5C131.3,143.3,131.1,144.8,131.1,146.3z"/>
	<path class="st0" d="M167.4,159.3c-0.4,0.1-0.9,0.2-1.5,0.4c-0.6,0.2-1.3,0.2-2,0.2c-1.5,0-2.6-0.4-3.4-1.1c-0.8-0.8-1.2-2.1-1.2-4
		v-19h-3.7v-2.5h3.7v-7.2h3v7.2h4.8v2.5h-4.8v17.8c0,0.6,0,1.2,0,1.7c0,0.5,0.1,0.8,0.3,1.1c0.2,0.3,0.4,0.5,0.8,0.7
		c0.3,0.1,0.8,0.2,1.5,0.2c0.4,0,0.8,0,1.2-0.1c0.4-0.1,0.8-0.1,1.2-0.2V159.3z"/>
	<path class="st0" d="M182.5,159.9c-1.7,0-3.2-0.3-4.7-0.9c-1.4-0.6-2.7-1.4-3.8-2.5c-1.1-1.1-1.9-2.5-2.6-4.2
		c-0.6-1.7-0.9-3.7-0.9-6c0-1.9,0.2-3.7,0.8-5.3s1.2-3.1,2.2-4.3c1-1.2,2.2-2.2,3.8-2.9c1.5-0.7,3.2-1.1,5.2-1.1
		c2,0,3.8,0.4,5.3,1.1c1.5,0.7,2.8,1.7,3.8,2.9c1,1.2,1.7,2.7,2.2,4.3c0.5,1.7,0.7,3.4,0.7,5.3c0,2.1-0.3,3.9-0.9,5.6
		c-0.6,1.7-1.4,3.1-2.4,4.3c-1,1.2-2.3,2.1-3.8,2.8C186,159.6,184.3,159.9,182.5,159.9z M191.3,146.2c0-1.5-0.2-3-0.5-4.3
		c-0.3-1.3-0.9-2.5-1.5-3.5c-0.7-1-1.6-1.8-2.7-2.3c-1.1-0.6-2.5-0.9-4-0.9c-1.6,0-2.9,0.3-4,0.9c-1.1,0.6-2,1.4-2.7,2.5
		c-0.7,1-1.2,2.2-1.6,3.5c-0.3,1.3-0.5,2.7-0.5,4.1c0,1.6,0.2,3.1,0.6,4.4c0.4,1.4,0.9,2.5,1.7,3.5s1.7,1.7,2.8,2.2
		c1.1,0.5,2.4,0.8,3.8,0.8c1.6,0,2.9-0.3,4-0.9c1.1-0.6,2-1.4,2.7-2.5c0.7-1,1.2-2.2,1.5-3.5C191.2,149,191.3,147.6,191.3,146.2z"/>
	<path class="st0" d="M202.6,159.2h-3v-25.9h3v3.9h0.1c0.8-1.5,1.9-2.6,3.3-3.4s3-1.2,4.7-1.2c1.2,0,2.2,0.1,3,0.4
		c0.8,0.3,1.5,0.6,2.1,1.1s1.1,1,1.5,1.6c0.4,0.6,0.7,1.2,1,1.9c0.9-1.7,2-3,3.5-3.8c1.5-0.8,3.1-1.2,5-1.2c1.8,0,3.2,0.3,4.2,0.9
		c1,0.6,1.9,1.4,2.4,2.3c0.6,0.9,0.9,2,1.1,3.3c0.2,1.2,0.3,2.5,0.3,3.8v16.4h-3v-17.9c0-1.9-0.4-3.3-1.2-4.4
		c-0.8-1.1-2.2-1.6-4.4-1.6c-1.1,0-2.2,0.2-3.2,0.7c-1,0.5-1.9,1.2-2.7,2.2c-0.3,0.4-0.6,0.9-0.8,1.5c-0.2,0.6-0.4,1.2-0.5,1.8
		c-0.1,0.6-0.2,1.3-0.3,1.9c0,0.6-0.1,1.2-0.1,1.8v14h-3v-17.9c0-1.9-0.4-3.3-1.2-4.4c-0.8-1.1-2.2-1.6-4.4-1.6
		c-1.1,0-2.2,0.2-3.2,0.7c-1,0.5-1.9,1.2-2.7,2.2c-0.3,0.4-0.6,0.9-0.8,1.5c-0.2,0.6-0.4,1.2-0.5,1.8c-0.1,0.6-0.2,1.3-0.3,1.9
		c-0.1,0.6-0.1,1.2-0.1,1.8V159.2z"/>
	<path class="st0" d="M243.4,151.1c0.5,2.2,1.3,3.8,2.5,4.7s3,1.4,5.2,1.4c1.1,0,2.1-0.1,2.9-0.4c0.8-0.3,1.5-0.6,2-1.1
		c0.5-0.4,0.9-1,1.2-1.5c0.3-0.6,0.4-1.2,0.4-1.8c0-1.3-0.4-2.2-1.2-2.8c-0.8-0.6-1.8-1.1-3.1-1.5c-1.2-0.3-2.6-0.6-4-0.9
		c-1.4-0.2-2.8-0.6-4-1.1c-1.2-0.5-2.3-1.2-3.1-2.1c-0.8-0.9-1.2-2.2-1.2-4c0-2.2,0.8-3.9,2.4-5.3c1.6-1.4,3.8-2.1,6.7-2.1
		c2.8,0,5.1,0.6,6.8,1.9s2.8,3.3,3.2,6.3h-3c-0.3-2-1-3.4-2.3-4.2c-1.2-0.8-2.8-1.2-4.7-1.2c-1.9,0-3.4,0.4-4.4,1.2
		c-1,0.8-1.5,1.9-1.5,3.2c0,1.2,0.4,2.1,1.2,2.7c0.8,0.6,1.8,1.1,3.1,1.5c1.2,0.4,2.6,0.7,4,1c1.4,0.3,2.8,0.7,4,1.3
		c1.2,0.6,2.3,1.3,3.1,2.2c0.8,0.9,1.2,2.2,1.2,3.9c0,1.2-0.3,2.3-0.8,3.3c-0.5,1-1.3,1.7-2.2,2.4c-0.9,0.6-2,1.1-3.3,1.4
		s-2.7,0.5-4.2,0.5c-1.5,0-2.9-0.2-4.1-0.7c-1.2-0.4-2.2-1.1-3-1.9c-0.8-0.8-1.5-1.7-2-2.8c-0.5-1.1-0.7-2.2-0.8-3.5H243.4z"/>
</g>
</svg>
