<?xml version="1.0" encoding="utf-8"?>
<!-- Generator: Adobe Illustrator 23.0.1, SVG Export Plug-In . SVG Version: 6.00 Build 0)  -->
<svg version="1.1" id="Laag_1" xmlns="http://www.w3.org/2000/svg" xmlns:xlink="http://www.w3.org/1999/xlink" x="0px" y="0px"
	 viewBox="0 0 283.5 283.5" style="enable-background:new 0 0 283.5 283.5;" xml:space="preserve">
<style type="text/css">
	.st0{fill:none;stroke:#EA4335;}
</style>
<g>
	<path class="st0" d="M17.9,140.6c0.5,2.2,1.3,3.8,2.5,4.7s3,1.4,5.2,1.4c1.1,0,2.1-0.1,2.9-0.4c0.8-0.3,1.5-0.6,2-1.1
		c0.5-0.4,0.9-1,1.2-1.5c0.3-0.6,0.4-1.2,0.4-1.8c0-1.3-0.4-2.2-1.2-2.8c-0.8-0.6-1.8-1.1-3.1-1.5c-1.2-0.3-2.6-0.7-4-0.9
		c-1.4-0.2-2.8-0.6-4-1.1c-1.2-0.5-2.3-1.2-3.1-2.1c-0.8-0.9-1.2-2.2-1.2-4c0-2.2,0.8-3.9,2.4-5.3c1.6-1.4,3.8-2.1,6.7-2.1
		c2.8,0,5.1,0.6,6.8,1.9s2.8,3.3,3.2,6.3h-3c-0.3-2-1-3.4-2.3-4.2s-2.8-1.2-4.7-1.2c-1.9,0-3.4,0.4-4.4,1.2s-1.5,1.9-1.5,3.2
		c0,1.2,0.4,2.1,1.2,2.7c0.8,0.6,1.8,1.1,3.1,1.5c1.2,0.4,2.6,0.7,4,1c1.4,0.3,2.8,0.7,4,1.3c1.2,0.6,2.3,1.3,3.1,2.2
		c0.8,0.9,1.2,2.2,1.2,3.9c0,1.2-0.3,2.3-0.8,3.3c-0.5,1-1.3,1.7-2.2,2.4c-0.9,0.6-2,1.1-3.3,1.4s-2.7,0.5-4.2,0.5
		c-1.5,0-2.9-0.2-4.1-0.7c-1.2-0.4-2.2-1.1-3-1.9c-0.8-0.8-1.5-1.7-2-2.8c-0.5-1.1-0.7-2.2-0.8-3.5H17.9z"/>
	<path class="st0" d="M41,155.7c0.4,0.1,0.8,0.1,1.2,0.2c0.4,0.1,0.8,0.1,1.3,0.1c0.8,0,1.5-0.3,2-0.8c0.5-0.5,1-1.2,1.3-1.9
		c0.3-0.7,0.6-1.5,0.9-2.3c0.2-0.8,0.5-1.5,0.8-2.1l-10-26.1h3.3l8.3,22.2l8.3-22.2h3.2L52,148.3c-0.6,1.6-1.2,3.1-1.7,4.4
		c-0.5,1.3-1.1,2.4-1.8,3.3c-0.6,0.9-1.3,1.6-2,2.1s-1.6,0.7-2.7,0.7c-0.5,0-1,0-1.5-0.1s-0.9-0.1-1.3-0.2V155.7z"/>
	<path class="st0" d="M68.8,148.7h-3v-25.9h3v3.9h0.1c0.8-1.5,1.9-2.6,3.3-3.4s3-1.2,4.7-1.2c1.2,0,2.2,0.1,3,0.4
		c0.8,0.3,1.5,0.6,2.1,1.1s1.1,1,1.5,1.6c0.4,0.6,0.7,1.2,1,1.9c0.9-1.7,2-3,3.5-3.8c1.5-0.8,3.1-1.2,5-1.2c1.8,0,3.2,0.3,4.2,0.9
		c1,0.6,1.9,1.4,2.4,2.3c0.6,0.9,0.9,2,1.1,3.3c0.2,1.2,0.3,2.5,0.3,3.8v16.4h-3v-17.9c0-1.9-0.4-3.3-1.2-4.4s-2.2-1.6-4.4-1.6
		c-1.1,0-2.2,0.2-3.2,0.7s-1.9,1.2-2.7,2.2c-0.3,0.4-0.6,0.9-0.8,1.5s-0.4,1.2-0.5,1.8c-0.1,0.6-0.2,1.3-0.3,1.9
		c0,0.6-0.1,1.2-0.1,1.8v14h-3v-17.9c0-1.9-0.4-3.3-1.2-4.4s-2.2-1.6-4.4-1.6c-1.1,0-2.2,0.2-3.2,0.7c-1,0.5-1.9,1.2-2.7,2.2
		c-0.3,0.4-0.6,0.9-0.8,1.5c-0.2,0.6-0.4,1.2-0.5,1.8c-0.1,0.6-0.2,1.3-0.3,1.9c-0.1,0.6-0.1,1.2-0.1,1.8V148.7z"/>
	<path class="st0" d="M111.2,158.9h-3v-36.1h3v4.5h0.1c0.4-0.8,1-1.6,1.7-2.2c0.7-0.7,1.4-1.2,2.2-1.6c0.8-0.4,1.7-0.8,2.5-1
		c0.9-0.2,1.7-0.4,2.5-0.4c2.1,0,3.9,0.4,5.4,1.1c1.5,0.7,2.7,1.7,3.6,2.9c0.9,1.2,1.6,2.7,2.1,4.3c0.4,1.7,0.7,3.5,0.7,5.4
		c0,1.8-0.2,3.5-0.7,5.2s-1.2,3.1-2.1,4.4s-2.1,2.2-3.6,3s-3.2,1.1-5.1,1.1c-1.8,0-3.6-0.4-5.3-1.2c-1.7-0.8-3-2-4-3.6V158.9z
		 M111.2,135.8c0,1.5,0.2,2.9,0.6,4.2c0.4,1.3,1,2.5,1.7,3.4c0.8,1,1.7,1.8,2.8,2.4c1.1,0.6,2.3,0.9,3.7,0.9c1.5,0,2.9-0.3,4-0.9
		c1.2-0.6,2.1-1.5,2.8-2.5c0.7-1.1,1.3-2.3,1.6-3.7c0.3-1.4,0.5-2.9,0.4-4.6c0-1.6-0.2-3.1-0.7-4.3s-1.1-2.3-1.9-3.2
		c-0.8-0.9-1.7-1.5-2.8-2c-1.1-0.4-2.2-0.7-3.5-0.7c-1.4,0-2.7,0.3-3.8,0.9c-1.1,0.6-2,1.3-2.8,2.3c-0.7,1-1.3,2.2-1.7,3.5
		C111.3,132.8,111.2,134.3,111.2,135.8z"/>
	<path class="st0" d="M147.5,148.8c-0.4,0.1-0.9,0.2-1.5,0.4c-0.6,0.2-1.3,0.2-2,0.2c-1.5,0-2.6-0.4-3.4-1.1c-0.8-0.8-1.2-2.1-1.2-4
		v-19h-3.6v-2.5h3.6v-7.2h3v7.2h4.8v2.5h-4.8V143c0,0.6,0,1.2,0,1.7c0,0.5,0.1,0.8,0.3,1.1c0.2,0.3,0.4,0.5,0.8,0.7
		c0.3,0.1,0.8,0.2,1.5,0.2c0.4,0,0.8,0,1.2-0.1c0.4-0.1,0.8-0.1,1.2-0.2V148.8z"/>
	<path class="st0" d="M162.6,149.4c-1.7,0-3.2-0.3-4.7-0.9c-1.4-0.6-2.7-1.4-3.8-2.5c-1.1-1.1-1.9-2.5-2.6-4.2s-0.9-3.7-0.9-6
		c0-1.9,0.2-3.7,0.8-5.3c0.5-1.6,1.2-3.1,2.2-4.3c1-1.2,2.2-2.2,3.8-2.9c1.5-0.7,3.2-1.1,5.2-1.1c2,0,3.8,0.4,5.3,1.1
		c1.5,0.7,2.8,1.7,3.8,2.9s1.7,2.7,2.2,4.3s0.7,3.4,0.7,5.3c0,2.1-0.3,3.9-0.9,5.6c-0.6,1.7-1.4,3.1-2.4,4.3c-1,1.2-2.3,2.1-3.8,2.8
		C166,149.1,164.4,149.4,162.6,149.4z M171.4,135.7c0-1.5-0.2-3-0.5-4.3c-0.3-1.3-0.9-2.5-1.5-3.5c-0.7-1-1.6-1.8-2.7-2.3
		c-1.1-0.6-2.5-0.9-4-0.9c-1.6,0-2.9,0.3-4,0.9c-1.1,0.6-2,1.4-2.7,2.5c-0.7,1-1.2,2.2-1.6,3.5c-0.3,1.3-0.5,2.7-0.5,4.1
		c0,1.6,0.2,3.1,0.6,4.4c0.4,1.4,0.9,2.5,1.7,3.5s1.7,1.7,2.8,2.2c1.1,0.5,2.4,0.8,3.8,0.8c1.6,0,2.9-0.3,4-0.9
		c1.1-0.6,2-1.4,2.7-2.5c0.7-1,1.2-2.2,1.5-3.5C171.2,138.5,171.4,137.1,171.4,135.7z M158.7,120h-3.2l5.7-7h3.3l5.7,7h-3.2
		l-4.1-5.1L158.7,120z"/>
	<path class="st0" d="M182.7,148.7h-3v-25.9h3v3.9h0.1c0.8-1.5,1.9-2.6,3.3-3.4s3-1.2,4.7-1.2c1.2,0,2.2,0.1,3,0.4
		c0.8,0.3,1.5,0.6,2.1,1.1s1.1,1,1.5,1.6c0.4,0.6,0.7,1.2,1,1.9c0.9-1.7,2-3,3.5-3.8c1.5-0.8,3.1-1.2,5-1.2c1.8,0,3.2,0.3,4.2,0.9
		c1,0.6,1.9,1.4,2.4,2.3c0.6,0.9,0.9,2,1.1,3.3c0.2,1.2,0.3,2.5,0.3,3.8v16.4h-3v-17.9c0-1.9-0.4-3.3-1.2-4.4s-2.2-1.6-4.4-1.6
		c-1.1,0-2.2,0.2-3.2,0.7s-1.9,1.2-2.7,2.2c-0.3,0.4-0.6,0.9-0.8,1.5s-0.4,1.2-0.5,1.8c-0.1,0.6-0.2,1.3-0.3,1.9
		c0,0.6-0.1,1.2-0.1,1.8v14h-3v-17.9c0-1.9-0.4-3.3-1.2-4.4s-2.2-1.6-4.4-1.6c-1.1,0-2.2,0.2-3.2,0.7c-1,0.5-1.9,1.2-2.7,2.2
		c-0.3,0.4-0.6,0.9-0.8,1.5c-0.2,0.6-0.4,1.2-0.5,1.8c-0.1,0.6-0.2,1.3-0.3,1.9c-0.1,0.6-0.1,1.2-0.1,1.8V148.7z"/>
	<path class="st0" d="M223.6,136.4c0,1.4,0.2,2.7,0.5,4c0.4,1.2,0.9,2.3,1.6,3.2c0.7,0.9,1.6,1.7,2.7,2.2c1.1,0.5,2.4,0.8,3.8,0.8
		c2,0,3.6-0.5,5-1.5c1.4-1,2.3-2.5,2.8-4.4h3.3c-0.4,1.2-0.8,2.4-1.4,3.4c-0.6,1-1.4,2-2.2,2.8c-0.9,0.8-2,1.4-3.2,1.8
		c-1.2,0.4-2.7,0.7-4.3,0.7c-2.1,0-3.9-0.4-5.4-1.1c-1.5-0.7-2.7-1.7-3.7-2.9c-1-1.2-1.7-2.6-2.1-4.3c-0.5-1.6-0.7-3.4-0.7-5.3
		c0-1.9,0.3-3.7,0.8-5.3c0.5-1.7,1.3-3.1,2.3-4.4s2.3-2.2,3.7-3c1.5-0.7,3.1-1.1,5-1.1c3.6,0,6.4,1.2,8.4,3.7c2,2.4,3,6,3,10.7
		H223.6z M240.5,133.9c0-1.3-0.2-2.5-0.5-3.6c-0.4-1.1-0.9-2.1-1.5-2.9c-0.7-0.8-1.5-1.5-2.6-1.9c-1-0.5-2.2-0.7-3.5-0.7
		c-1.3,0-2.5,0.2-3.5,0.8c-1,0.5-1.9,1.2-2.6,2c-0.7,0.8-1.3,1.8-1.7,2.9c-0.4,1.1-0.7,2.3-0.8,3.5H240.5z"/>
	<path class="st0" d="M251.3,140.6c0.5,2.2,1.3,3.8,2.5,4.7s3,1.4,5.2,1.4c1.1,0,2.1-0.1,2.9-0.4c0.8-0.3,1.5-0.6,2-1.1
		c0.5-0.4,0.9-1,1.2-1.5c0.3-0.6,0.4-1.2,0.4-1.8c0-1.3-0.4-2.2-1.2-2.8c-0.8-0.6-1.8-1.1-3.1-1.5c-1.2-0.3-2.6-0.7-4-0.9
		c-1.4-0.2-2.8-0.6-4-1.1c-1.2-0.5-2.3-1.2-3.1-2.1c-0.8-0.9-1.2-2.2-1.2-4c0-2.2,0.8-3.9,2.4-5.3c1.6-1.4,3.8-2.1,6.7-2.1
		c2.8,0,5.1,0.6,6.8,1.9s2.8,3.3,3.2,6.3h-3c-0.3-2-1-3.4-2.3-4.2s-2.8-1.2-4.7-1.2c-1.9,0-3.4,0.4-4.4,1.2s-1.5,1.9-1.5,3.2
		c0,1.2,0.4,2.1,1.2,2.7c0.8,0.6,1.8,1.1,3.1,1.5c1.2,0.4,2.6,0.7,4,1c1.4,0.3,2.8,0.7,4,1.3c1.2,0.6,2.3,1.3,3.1,2.2
		c0.8,0.9,1.2,2.2,1.2,3.9c0,1.2-0.3,2.3-0.8,3.3c-0.5,1-1.3,1.7-2.2,2.4c-0.9,0.6-2,1.1-3.3,1.4s-2.7,0.5-4.2,0.5
		c-1.5,0-2.9-0.2-4.1-0.7c-1.2-0.4-2.2-1.1-3-1.9c-0.8-0.8-1.5-1.7-2-2.8c-0.5-1.1-0.7-2.2-0.8-3.5H251.3z"/>
</g>
</svg>
