<?xml version="1.0" encoding="utf-8"?>
<!-- Generator: Adobe Illustrator 23.0.1, SVG Export Plug-In . SVG Version: 6.00 Build 0)  -->
<svg version="1.1" id="Laag_1" xmlns="http://www.w3.org/2000/svg" xmlns:xlink="http://www.w3.org/1999/xlink" x="0px" y="0px"
	 viewBox="0 0 228.5 43.7" style="enable-background:new 0 0 228.5 43.7;" xml:space="preserve">
<style type="text/css">
	.st0{fill:none;stroke:#34A853;}
</style>
<g>
	<path class="st0" d="M3,24.9c0.5,2.2,1.3,3.8,2.5,4.7s3,1.4,5.2,1.4c1.1,0,2.1-0.1,2.9-0.4c0.8-0.3,1.5-0.6,2-1.1
		c0.5-0.4,0.9-1,1.2-1.5c0.3-0.6,0.4-1.2,0.4-1.8c0-1.3-0.4-2.2-1.2-2.8s-1.8-1.1-3.1-1.5c-1.2-0.3-2.6-0.6-4-0.9
		c-1.4-0.2-2.8-0.6-4-1.1s-2.3-1.2-3.1-2.1c-0.8-0.9-1.2-2.2-1.2-4c0-2.2,0.8-3.9,2.4-5.3c1.6-1.4,3.8-2.1,6.7-2.1
		c2.8,0,5.1,0.6,6.8,1.9s2.8,3.3,3.2,6.3h-3c-0.3-2-1-3.4-2.3-4.2c-1.2-0.8-2.8-1.2-4.7-1.2c-1.9,0-3.4,0.4-4.4,1.2
		s-1.5,1.9-1.5,3.2c0,1.2,0.4,2.1,1.2,2.7c0.8,0.6,1.8,1.1,3.1,1.5c1.2,0.4,2.6,0.7,4,1s2.8,0.7,4,1.3s2.3,1.3,3.1,2.2
		s1.2,2.2,1.2,3.9c0,1.2-0.3,2.3-0.8,3.3s-1.3,1.7-2.2,2.4c-0.9,0.6-2,1.1-3.3,1.4s-2.7,0.5-4.2,0.5S7,33.6,5.8,33.1
		c-1.2-0.4-2.2-1.1-3-1.9c-0.8-0.8-1.5-1.7-2-2.8S0.1,26.2,0,24.9L3,24.9L3,24.9z"/>
	<path class="st0" d="M26,40c0.4,0.1,0.8,0.1,1.2,0.2c0.4,0.1,0.8,0.1,1.3,0.1c0.8,0,1.5-0.3,2-0.8s1-1.2,1.3-1.9
		c0.3-0.7,0.6-1.5,0.9-2.3c0.2-0.8,0.5-1.5,0.8-2.1l-10-26.1h3.3l8.3,22.2l8.3-22.2h3.2L37,32.6c-0.6,1.6-1.2,3.1-1.7,4.4
		c-0.5,1.3-1.1,2.4-1.8,3.3c-0.6,0.9-1.3,1.6-2,2.1c-0.7,0.5-1.6,0.7-2.7,0.7c-0.5,0-1,0-1.5-0.1s-0.9-0.1-1.3-0.2V40z"/>
	<path class="st0" d="M53.8,33h-3V7.1h3V11h0.1c0.8-1.5,1.9-2.6,3.3-3.4s3-1.2,4.7-1.2c1.2,0,2.2,0.1,3,0.4c0.8,0.3,1.5,0.6,2.1,1.1
		s1.1,1,1.5,1.6s0.7,1.2,1,1.9c0.9-1.7,2-3,3.5-3.8s3.1-1.2,5-1.2c1.8,0,3.2,0.3,4.2,0.9c1,0.6,1.9,1.4,2.4,2.3
		c0.6,0.9,0.9,2,1.1,3.3c0.2,1.2,0.3,2.5,0.3,3.8V33h-3V15.1c0-1.9-0.4-3.3-1.2-4.4c-0.8-1.1-2.2-1.6-4.4-1.6
		c-1.1,0-2.2,0.2-3.2,0.7S72.3,11,71.5,12c-0.3,0.4-0.6,0.9-0.8,1.5c-0.2,0.6-0.4,1.2-0.5,1.8s-0.2,1.3-0.3,1.9
		c0,0.6-0.1,1.2-0.1,1.8v14h-3V15.1c0-1.9-0.4-3.3-1.2-4.4c-0.8-1.1-2.2-1.6-4.4-1.6c-1.1,0-2.2,0.2-3.2,0.7S56.1,11,55.3,12
		c-0.3,0.4-0.6,0.9-0.8,1.5c-0.2,0.6-0.4,1.2-0.5,1.8s-0.2,1.3-0.3,1.9c-0.1,0.6-0.1,1.2-0.1,1.8v14H53.8z"/>
	<path class="st0" d="M96.2,43.2h-3V7.1h3v4.5h0.1c0.4-0.8,1-1.6,1.7-2.2c0.7-0.7,1.4-1.2,2.2-1.6c0.8-0.4,1.7-0.8,2.5-1
		c0.9-0.2,1.7-0.4,2.5-0.4c2.1,0,3.9,0.4,5.4,1.1c1.5,0.7,2.7,1.7,3.6,2.9c0.9,1.2,1.6,2.7,2.1,4.3c0.4,1.7,0.7,3.5,0.7,5.4
		c0,1.8-0.2,3.5-0.7,5.2s-1.2,3.1-2.1,4.4s-2.1,2.2-3.6,3s-3.2,1.1-5.1,1.1c-1.8,0-3.6-0.4-5.3-1.2c-1.7-0.8-3-2-4-3.6L96.2,43.2
		L96.2,43.2z M96.2,20.2c0,1.5,0.2,2.9,0.6,4.2s1,2.5,1.7,3.4c0.8,1,1.7,1.8,2.8,2.4c1.1,0.6,2.3,0.9,3.7,0.9c1.5,0,2.9-0.3,4-0.9
		c1.2-0.6,2.1-1.5,2.8-2.5c0.7-1.1,1.3-2.3,1.6-3.7s0.5-2.9,0.4-4.6c0-1.6-0.2-3.1-0.7-4.3s-1.1-2.3-1.9-3.2c-0.8-0.9-1.7-1.5-2.8-2
		c-1.1-0.4-2.2-0.7-3.5-0.7c-1.4,0-2.7,0.3-3.8,0.9c-1.1,0.6-2,1.3-2.8,2.3c-0.7,1-1.3,2.1-1.7,3.5C96.4,17.1,96.2,18.6,96.2,20.2z"
		/>
	<path class="st0" d="M132.5,33.1c-0.4,0.1-0.9,0.2-1.5,0.4s-1.3,0.2-2,0.2c-1.5,0-2.6-0.4-3.4-1.1c-0.8-0.8-1.2-2.1-1.2-4V9.7h-3.7
		V7.2h3.7V0h3v7.2h4.8v2.5h-4.8v17.8c0,0.6,0,1.2,0,1.6c0,0.5,0.1,0.9,0.3,1.1c0.2,0.3,0.4,0.5,0.8,0.6c0.3,0.1,0.8,0.2,1.5,0.2
		c0.4,0,0.8,0,1.2-0.1s0.8-0.1,1.2-0.2L132.5,33.1L132.5,33.1z"/>
	<path class="st0" d="M147.6,33.7c-1.7,0-3.2-0.3-4.7-0.9c-1.4-0.6-2.7-1.4-3.8-2.5s-1.9-2.5-2.6-4.2s-0.9-3.7-0.9-6
		c0-1.9,0.2-3.7,0.8-5.3s1.2-3.1,2.2-4.3s2.2-2.2,3.8-2.9c1.5-0.7,3.2-1.1,5.2-1.1s3.8,0.4,5.3,1.1c1.5,0.7,2.8,1.7,3.8,2.9
		s1.7,2.7,2.2,4.3c0.5,1.7,0.7,3.4,0.7,5.3c0,2.1-0.3,3.9-0.9,5.6c-0.6,1.7-1.4,3.1-2.4,4.3s-2.3,2.1-3.8,2.8
		C151.1,33.4,149.4,33.7,147.6,33.7z M156.4,20.1c0-1.5-0.2-3-0.5-4.3s-0.9-2.5-1.5-3.5c-0.7-1-1.6-1.8-2.7-2.3
		c-1.1-0.6-2.5-0.9-4-0.9c-1.6,0-2.9,0.3-4,0.9c-1.1,0.6-2,1.4-2.7,2.5c-0.7,1-1.2,2.2-1.6,3.5c-0.3,1.3-0.5,2.7-0.5,4.1
		c0,1.6,0.2,3.1,0.6,4.4c0.4,1.4,0.9,2.5,1.7,3.5s1.7,1.7,2.8,2.2s2.4,0.8,3.8,0.8c1.6,0,2.9-0.3,4-0.9c1.1-0.6,2-1.4,2.7-2.5
		c0.7-1,1.2-2.2,1.5-3.5S156.4,21.5,156.4,20.1z"/>
	<path class="st0" d="M167.7,33h-3V7.1h3V11h0.1c0.8-1.5,1.9-2.6,3.3-3.4s3-1.2,4.7-1.2c1.2,0,2.2,0.1,3,0.4
		c0.8,0.3,1.5,0.6,2.1,1.1s1.1,1,1.5,1.6s0.7,1.2,1,1.9c0.9-1.7,2-3,3.5-3.8s3.1-1.2,5-1.2c1.8,0,3.2,0.3,4.2,0.9
		c1,0.6,1.9,1.4,2.4,2.3c0.6,0.9,0.9,2,1.1,3.3c0.2,1.2,0.3,2.5,0.3,3.8V33h-3V15.1c0-1.9-0.4-3.3-1.2-4.4c-0.8-1.1-2.2-1.6-4.4-1.6
		c-1.1,0-2.2,0.2-3.2,0.7s-1.9,1.2-2.7,2.2c-0.3,0.4-0.6,0.9-0.8,1.5s-0.4,1.2-0.5,1.8s-0.2,1.3-0.3,1.9c0,0.6-0.1,1.2-0.1,1.8v14
		h-3V15.1c0-1.9-0.4-3.3-1.2-4.4c-0.8-1.1-2.2-1.6-4.4-1.6c-1.1,0-2.2,0.2-3.2,0.7S170,11,169.2,12c-0.3,0.4-0.6,0.9-0.8,1.5
		s-0.4,1.2-0.5,1.8s-0.2,1.3-0.3,1.9c-0.1,0.6-0.1,1.2-0.1,1.8v14H167.7z"/>
	<path class="st0" d="M208.6,20.8c0,1.4,0.2,2.7,0.5,4c0.4,1.2,0.9,2.3,1.6,3.2c0.7,0.9,1.6,1.6,2.7,2.2c1.1,0.6,2.4,0.8,3.8,0.8
		c2,0,3.6-0.5,5-1.5s2.3-2.5,2.8-4.4h3.3c-0.4,1.2-0.8,2.4-1.4,3.4c-0.6,1-1.4,2-2.2,2.8c-0.9,0.8-2,1.4-3.2,1.8
		c-1.2,0.4-2.7,0.7-4.3,0.7c-2.1,0-3.9-0.4-5.4-1.1c-1.5-0.7-2.7-1.7-3.7-2.9s-1.7-2.6-2.1-4.3c-0.5-1.6-0.7-3.4-0.7-5.3
		s0.3-3.7,0.8-5.4s1.3-3.1,2.3-4.4s2.3-2.2,3.7-2.9c1.5-0.7,3.1-1.1,5-1.1c3.6,0,6.4,1.2,8.4,3.7c2,2.4,3,6,3,10.7H208.6z
		 M225.5,18.3c0-1.3-0.2-2.5-0.5-3.6c-0.4-1.1-0.9-2.1-1.5-2.9c-0.7-0.8-1.5-1.5-2.6-1.9c-1-0.5-2.2-0.7-3.5-0.7s-2.5,0.2-3.5,0.8
		c-1,0.5-1.9,1.2-2.6,2c-0.7,0.8-1.3,1.8-1.7,2.9c-0.4,1.1-0.7,2.3-0.8,3.5h16.7V18.3z"/>
</g>
</svg>
