<?xml version="1.0" encoding="utf-8"?>
<!-- Generator: Adobe Illustrator 23.0.1, SVG Export Plug-In . SVG Version: 6.00 Build 0)  -->
<svg version="1.1" id="Laag_1" xmlns="http://www.w3.org/2000/svg" xmlns:xlink="http://www.w3.org/1999/xlink" x="0px" y="0px"
	 viewBox="0 0 283.46 283.46" style="enable-background:new 0 0 283.46 283.46;" xml:space="preserve">
<style type="text/css">
	.st0{clip-path:url(#SVGID_2_);fill:none;stroke:#517ABD;stroke-width:0.916;stroke-miterlimit:3.664;}
</style>
<g>
	<defs>
		<rect id="SVGID_1_" y="99.25" width="325.01" height="65.21"/>
	</defs>
	<clipPath id="SVGID_2_">
		<use xlink:href="#SVGID_1_"  style="overflow:visible;"/>
	</clipPath>
	<path class="st0" d="M13.33,142.93c0.25,4.9,3.75,8.8,9.85,8.8s10.55-2.6,10.55-7.55c0-9.95-16.6-5.55-16.6-12.6
		c0-2.65,2.05-4.45,5.85-4.45c3.75,0,6.45,1.45,7,5.45h3.05c-0.75-5.85-4.4-8.15-10-8.15c-5.75,0-9.1,3.1-9.1,7.4
		c0,10.2,16.6,4.9,16.6,12.4c0,2.5-2.05,4.8-6.4,4.8c-4.5,0-6.8-1.65-7.75-6.1H13.33z"/>
	<path class="st0" d="M39.43,160.88c0.8,0.2,1.8,0.35,2.85,0.35c4.15,0,5.75-4.05,8.2-10.55l9.65-25.55h-3.25l-8.3,22.25l-8.3-22.25
		h-3.35l10.05,26.1c-1.15,2.25-1.65,7.15-5.05,7.15c-0.85,0-1.7-0.15-2.5-0.3V160.88z"/>
	<path class="st0" d="M67.23,137.08c0-2.15,0.4-5.3,1.7-7c1.5-2,3.65-2.95,5.85-2.95c4.25,0,5.55,2.3,5.55,6v17.9h3v-13.95
		c0-2.15,0.4-5.3,1.7-7c1.5-2,3.65-2.95,5.85-2.95c4.25,0,5.55,2.3,5.55,6v17.9h3v-16.35c0-5.2-1-10.25-8.05-10.25
		c-3.7,0-6.75,1.65-8.45,5c-1.1-2.75-2.8-5-7.6-5c-3.35,0-6.45,1.65-8,4.6h-0.1v-3.9h-3v25.9h3V137.08z"/>
	<path class="st0" d="M109.63,146.88c1.9,3.15,5.6,4.85,9.25,4.85c7.9,0,11.55-6.45,11.55-13.7c0-7.65-3.35-13.6-11.7-13.6
		c-3.3,0-7.25,1.85-9,5.25h-0.1v-4.55h-3v36.1h3V146.88z M109.63,138.18c0-6.25,3.1-11.05,8.75-11.05c5.05,0,8.8,3.65,8.85,10.15
		c0.25,6.5-2.65,11.75-8.85,11.75C112.93,149.03,109.63,144.03,109.63,138.18z"/>
	<path class="st0" d="M145.93,148.68c-0.8,0.2-1.65,0.35-2.45,0.35c-2.5,0-2.6-1.1-2.6-3.65v-17.75h4.85v-2.5h-4.85v-7.2h-3v7.2
		h-3.65v2.5h3.65v18.95c0,3.85,1.65,5.15,4.6,5.15c1.45,0,2.75-0.45,3.45-0.6V148.68z"/>
	<path class="st0" d="M169.83,138.08c0,5.55-2.5,10.95-8.8,10.95c-5.75,0-8.8-4.5-8.8-10.95c0-5.6,2.5-10.95,8.8-10.95
		C167.38,127.13,169.78,131.98,169.83,138.08z M161.03,151.73c7.25,0,12-5.45,12-13.65c0-7.6-3.9-13.65-12-13.65
		c-8,0-12,6.1-12,13.65C149.03,147.13,154.43,151.63,161.03,151.73z"/>
	<path class="st0" d="M181.13,137.08c0-2.15,0.4-5.3,1.7-7c1.5-2,3.65-2.95,5.85-2.95c4.25,0,5.55,2.3,5.55,6v17.9h3v-13.95
		c0-2.15,0.4-5.3,1.7-7c1.5-2,3.65-2.95,5.85-2.95c4.25,0,5.55,2.3,5.55,6v17.9h3v-16.35c0-5.2-1-10.25-8.05-10.25
		c-3.7,0-6.75,1.65-8.45,5c-1.1-2.75-2.8-5-7.6-5c-3.35,0-6.45,1.65-8,4.6h-0.1v-3.9h-3v25.9h3V137.08z"/>
	<path class="st0" d="M242.13,138.78c0.05-9.3-4.3-14.35-11.4-14.35c-7.4,0-11.9,6.2-11.9,13.75c0,7.65,3.6,13.55,11.9,13.55
		c6.6,0,9.7-3.75,11.2-8.65h-3.35c-0.9,3.8-3.95,5.95-7.85,5.95c-5.75,0-8.75-4.65-8.7-10.25H242.13z M222.03,136.28
		c0.6-4.9,3.4-9.15,8.7-9.15c5.4,0,8.2,4.1,8.2,9.15H222.03z"/>
	<path class="st0" d="M250.98,137.08c0-1.8,0.05-3.25,0.65-4.9c0.95-2.65,3.5-5.05,7.2-5.05c4.8,0,6.7,2.35,6.7,7v16.9h3v-16.95
		c0-2.15-0.05-4.1-1.3-5.95c-1.85-2.7-4.75-3.7-7.9-3.7c-3.6,0-5.95,1.75-8.35,4.3v-3.6h-3v25.9h3V137.08z"/>
</g>
</svg>
