<?xml version="1.0" encoding="utf-8"?>
<!-- Generator: Adobe Illustrator 23.0.1, SVG Export Plug-In . SVG Version: 6.00 Build 0)  -->
<svg version="1.1" id="Laag_1" xmlns="http://www.w3.org/2000/svg" xmlns:xlink="http://www.w3.org/1999/xlink" x="0px" y="0px"
	 viewBox="0 0 283.5 283.5" style="enable-background:new 0 0 283.5 283.5;" xml:space="preserve">
<style type="text/css">
	.st0{fill:none;stroke:#34A853;}
</style>
<g>
	<path class="st0" d="M67.8,147.3h-3v-25.9h3v4.9h0.1c0.8-2.1,1.9-3.5,3.2-4.3c1.3-0.8,3.1-1.2,5.2-1.2v3.2c-1.7,0-3.1,0.2-4.2,0.8
		c-1.1,0.6-2,1.3-2.6,2.3c-0.6,1-1.1,2.1-1.3,3.4c-0.2,1.3-0.4,2.7-0.4,4.1V147.3z"/>
	<path class="st0" d="M83.1,135c0,1.4,0.2,2.7,0.5,4c0.4,1.2,0.9,2.3,1.6,3.2c0.7,0.9,1.6,1.6,2.7,2.2c1.1,0.6,2.4,0.8,3.8,0.8
		c2,0,3.6-0.5,5-1.5c1.4-1,2.3-2.5,2.8-4.4h3.3c-0.4,1.2-0.8,2.4-1.4,3.4c-0.6,1-1.4,2-2.2,2.8c-0.9,0.8-2,1.4-3.2,1.8
		c-1.2,0.4-2.7,0.7-4.3,0.7c-2.1,0-3.9-0.4-5.4-1.1c-1.5-0.7-2.7-1.7-3.7-2.9c-1-1.2-1.7-2.6-2.1-4.3c-0.5-1.6-0.7-3.4-0.7-5.3
		s0.3-3.7,0.8-5.4c0.5-1.7,1.3-3.1,2.3-4.4s2.3-2.2,3.7-2.9c1.5-0.7,3.1-1.1,5-1.1c3.6,0,6.4,1.2,8.4,3.7c2,2.4,3,6,3,10.7H83.1z
		 M100,132.5c0-1.3-0.2-2.5-0.5-3.6c-0.4-1.1-0.9-2.1-1.5-2.9c-0.7-0.8-1.5-1.5-2.6-1.9c-1-0.5-2.2-0.7-3.5-0.7
		c-1.3,0-2.5,0.2-3.5,0.8c-1,0.5-1.9,1.2-2.6,2c-0.7,0.8-1.3,1.8-1.7,2.9c-0.4,1.1-0.7,2.3-0.8,3.5H100z"/>
	<path class="st0" d="M107.1,147.3v-2.6l17.2-20.8h-16v-2.5h19.9v2.6L111,144.8h17.8v2.5H107.1z"/>
	<path class="st0" d="M135.9,135c0,1.4,0.2,2.7,0.5,4c0.4,1.2,0.9,2.3,1.6,3.2c0.7,0.9,1.6,1.6,2.7,2.2c1.1,0.6,2.4,0.8,3.8,0.8
		c2,0,3.6-0.5,5-1.5c1.4-1,2.3-2.5,2.8-4.4h3.3c-0.4,1.2-0.8,2.4-1.4,3.4c-0.6,1-1.4,2-2.2,2.8c-0.9,0.8-2,1.4-3.2,1.8
		c-1.2,0.4-2.7,0.7-4.3,0.7c-2.1,0-3.9-0.4-5.4-1.1c-1.5-0.7-2.7-1.7-3.7-2.9c-1-1.2-1.7-2.6-2.1-4.3c-0.5-1.6-0.7-3.4-0.7-5.3
		s0.3-3.7,0.8-5.4c0.5-1.7,1.3-3.1,2.3-4.4s2.3-2.2,3.7-2.9c1.5-0.7,3.1-1.1,5-1.1c3.6,0,6.4,1.2,8.4,3.7c2,2.4,3,6,3,10.7H135.9z
		 M152.8,132.5c0-1.3-0.2-2.5-0.5-3.6c-0.4-1.1-0.9-2.1-1.5-2.9c-0.7-0.8-1.5-1.5-2.6-1.9c-1-0.5-2.2-0.7-3.5-0.7
		c-1.3,0-2.5,0.2-3.5,0.8c-1,0.5-1.9,1.2-2.6,2c-0.7,0.8-1.3,1.8-1.7,2.9c-0.4,1.1-0.7,2.3-0.8,3.5H152.8z"/>
	<path class="st0" d="M165.2,157.5h-3v-36.1h3v4.5h0.1c0.4-0.8,1-1.6,1.7-2.2c0.7-0.7,1.4-1.2,2.2-1.6c0.8-0.4,1.7-0.8,2.5-1
		c0.9-0.2,1.7-0.4,2.5-0.4c2.1,0,3.9,0.4,5.4,1.1c1.5,0.7,2.7,1.7,3.6,2.9c0.9,1.2,1.6,2.7,2.1,4.3c0.4,1.7,0.7,3.5,0.7,5.4
		c0,1.8-0.2,3.5-0.7,5.2c-0.5,1.7-1.2,3.1-2.1,4.4s-2.1,2.2-3.6,3s-3.2,1.1-5.1,1.1c-1.8,0-3.6-0.4-5.3-1.2c-1.7-0.8-3-2-4-3.6
		V157.5z M165.2,134.4c0,1.5,0.2,2.9,0.6,4.2c0.4,1.3,1,2.5,1.7,3.4c0.8,1,1.7,1.8,2.8,2.4c1.1,0.6,2.3,0.9,3.7,0.9
		c1.5,0,2.9-0.3,4-0.9c1.2-0.6,2.1-1.5,2.8-2.5c0.7-1.1,1.3-2.3,1.6-3.7c0.3-1.4,0.5-2.9,0.4-4.6c0-1.6-0.2-3.1-0.7-4.3
		s-1.1-2.3-1.9-3.2c-0.8-0.9-1.7-1.5-2.8-2c-1.1-0.4-2.2-0.7-3.5-0.7c-1.4,0-2.7,0.3-3.8,0.9c-1.1,0.6-2,1.3-2.8,2.3
		c-0.7,1-1.3,2.1-1.7,3.5C165.4,131.4,165.2,132.8,165.2,134.4z"/>
	<path class="st0" d="M201.5,147.4c-0.4,0.1-0.9,0.2-1.5,0.4c-0.6,0.2-1.3,0.2-2,0.2c-1.5,0-2.6-0.4-3.4-1.1c-0.8-0.8-1.2-2.1-1.2-4
		v-18.9h-3.7v-2.5h3.7v-7.2h3v7.2h4.8v2.5h-4.8v17.8c0,0.6,0,1.2,0,1.6c0,0.5,0.1,0.9,0.3,1.1c0.2,0.3,0.4,0.5,0.8,0.6
		c0.3,0.1,0.8,0.2,1.5,0.2c0.4,0,0.8,0,1.2-0.1c0.4-0.1,0.8-0.1,1.2-0.2V147.4z"/>
</g>
</svg>
