<?xml version="1.0" encoding="utf-8"?>
<!-- Generator: Adobe Illustrator 23.0.1, SVG Export Plug-In . SVG Version: 6.00 Build 0)  -->
<svg version="1.1" id="Laag_1" xmlns="http://www.w3.org/2000/svg" xmlns:xlink="http://www.w3.org/1999/xlink" x="0px" y="0px"
	 viewBox="0 0 259.6 470.3" style="enable-background:new 0 0 259.6 470.3;" xml:space="preserve">
<style type="text/css">
	.st0{fill:none;stroke:#517ABD;stroke-width:0.335;}
	.st1{clip-path:url(#SVGID_2_);fill:none;stroke:#31A852;}
	.st2{fill:none;stroke:#31A852;}
	.st3{fill:#3FA535;}
	.st4{font-family:'Roboto-Light';}
	.st5{font-size:8px;}
	.st6{font-family:'Roboto-Bold';}
	.st7{fill:#31A852;}
	.st8{font-size:10px;}
	.st9{clip-path:url(#SVGID_4_);}
	.st10{fill:#517ABD;}
	.st11{font-family:'Roboto-Regular';}
	.st12{font-size:20px;}
	.st13{letter-spacing:-1;}
	.st14{fill:#E84435;}
	.st15{fill:#FCBC05;}
</style>
<rect x="2.3" y="1.8" class="st0" width="255.3" height="466.3"/>
<g>
	<defs>
		<rect id="SVGID_1_" x="-7.3" y="-5.5" width="274.3" height="475.3"/>
	</defs>
	<clipPath id="SVGID_2_">
		<use xlink:href="#SVGID_1_"  style="overflow:visible;"/>
	</clipPath>
	<rect x="2.2" y="2" class="st1" width="255.3" height="466.3"/>
</g>
<line class="st2" x1="2" y1="37" x2="257.6" y2="37"/>
<line class="st2" x1="2" y1="91.5" x2="257.6" y2="91.5"/>
<line class="st2" x1="2" y1="449" x2="257.6" y2="449"/>
<line class="st2" x1="82.5" y1="91.7" x2="82.5" y2="449"/>
<line class="st2" x1="130.1" y1="37" x2="130.1" y2="91.5"/>
<text transform="matrix(1 0 0 1 136.009 48.5413)"><tspan x="0" y="0" class="st3 st4 st5">Name und </tspan><tspan x="38.3" y="0" class="st3 st4 st5">V</tspan><tspan x="43.1" y="0" class="st3 st4 st5">orname des </tspan></text>
<text transform="matrix(1 0 0 1 136.009 58.1414)"><tspan x="0" y="0" class="st3 st4 st5">V</tspan><tspan x="4.8" y="0" class="st3 st4 st5">ersch</tspan><tspan x="24.2" y="0" class="st3 st4 st5">r</tspan><tspan x="26.8" y="0" class="st3 st4 st5">eibers:</tspan></text>
<text transform="matrix(1 0 0 1 136.1531 77.3416)"><tspan x="0" y="0" class="st3 st6 st5">A</tspan><tspan x="5.7" y="0" class="st3 st6 st5">R</tspan><tspan x="10.8" y="0" class="st3 st6 st5">T</tspan><tspan x="16.1" y="0" class="st3 st6 st5">Z </tspan><tspan x="23.2" y="0" class="st3 st6 st5">GO</tspan><tspan x="34.7" y="0" class="st3 st6 st5">O</tspan><tspan x="40.5" y="0" class="st3 st6 st5">G</tspan><tspan x="46.2" y="0" class="st3 st6 st5">L</tspan><tspan x="50.8" y="0" class="st3 st6 st5">E</tspan></text>
<text transform="matrix(1 0 0 1 7.7131 103.3972)"><tspan x="0" y="0" class="st7 st4 st5">A</tspan><tspan x="5" y="0" class="st7 st4 st5">uf der </tspan><tspan x="27.2" y="0" class="st7 st4 st5">V</tspan><tspan x="31.9" y="0" class="st7 st4 st5">erpack</tspan></text>
<text transform="matrix(1 0 0 1 63.2151 103.3972)" class="st7 st4 st5">-</text>
<text transform="matrix(1 0 0 1 7.7131 112.9978)" class="st7 st4 st5">ungsvignette </text>
<text transform="matrix(1 0 0 1 7.7131 122.5974)"><tspan x="0" y="0" class="st7 st4 st5">r</tspan><tspan x="2.6" y="0" class="st7 st4 st5">ese</tspan><tspan x="14.9" y="0" class="st7 st4 st5">r</tspan><tspan x="17.7" y="0" class="st7 st4 st5">vie</tspan><tspan x="27.5" y="0" class="st7 st4 st5">r</tspan><tspan x="30.3" y="0" class="st7 st4 st5">t</tspan></text>
<text transform="matrix(1 0 0 1 112.2337 462.0222)" class="st3 st4 st8">REZEPT</text>
<g>
	<defs>
		<rect id="SVGID_3_" x="13.7" y="41.7" width="104.3" height="44.9"/>
	</defs>
	<clipPath id="SVGID_4_">
		<use xlink:href="#SVGID_3_"  style="overflow:visible;"/>
	</clipPath>
	<g class="st9">
		<defs>
			<rect id="SVGID_5_" x="12.6" y="41.7" width="106.5" height="45.9"/>
		</defs>
		<clipPath id="SVGID_6_">
			<use xlink:href="#SVGID_5_"  style="overflow:visible;"/>
		</clipPath>
		<g style="clip-path:url(#SVGID_6_);">
			
				<image style="overflow:visible;" width="471" height="203" xlink:href="5A86E064C3D2AFC3.png"  transform="matrix(0.2261 0 0 0.2261 12.6418 41.6723)">
			</image>
		</g>
	</g>
</g>
<text transform="matrix(1 0 0 1 91.2048 105.866)" class="st7 st6 st5">R/</text>
<text transform="matrix(1 0 0 1 91.2048 125.0652)"><tspan x="0" y="0" class="st7 st4 st5">Etwa 75% der Menschen e</tspan><tspan x="91.9" y="0" class="st7 st4 st5">r</tspan><tspan x="94.7" y="0" class="st7 st4 st5">werben</tspan></text>
<text transform="matrix(1 0 0 1 91.2048 134.6658)" class="st7 st4 st5">über Gesundheit in den Medien. Es gibt </text>
<text transform="matrix(1 0 0 1 91.2048 144.2654)" class="st7 st4 st5">nicht nur sehr nützliche Informationen </text>
<text transform="matrix(1 0 0 1 91.2048 153.866)" class="st7 st4 st5">über medizinische und wissenschaftliche </text>
<text transform="matrix(1 0 0 1 91.2048 163.4656)"><tspan x="0" y="0" class="st7 st4 st5">F</tspan><tspan x="4.4" y="0" class="st7 st4 st5">orschung, sondern auch weniger kor</tspan><tspan x="131.2" y="0" class="st7 st4 st5">r</tspan><tspan x="133.8" y="0" class="st7 st4 st5">ekte </tspan></text>
<text transform="matrix(1 0 0 1 91.2048 173.0652)"><tspan x="0" y="0" class="st7 st4 st5">und sogar </tspan><tspan x="37.1" y="0" class="st7 st4 st5">f</tspan><tspan x="39.6" y="0" class="st7 st4 st5">ehlerhafte Ratschläge. Die </tspan></text>
<text transform="matrix(1 0 0 1 91.2048 182.6658)"><tspan x="0" y="0" class="st7 st4 st5">Richtig</tspan><tspan x="24.2" y="0" class="st7 st4 st5">k</tspan><tspan x="28" y="0" class="st7 st4 st5">eit und </tspan><tspan x="53.7" y="0" class="st7 st4 st5">Z</tspan><tspan x="58.4" y="0" class="st7 st4 st5">u</tspan><tspan x="62.8" y="0" class="st7 st4 st5">v</tspan><tspan x="66.6" y="0" class="st7 st4 st5">erlässig</tspan><tspan x="93.8" y="0" class="st7 st4 st5">k</tspan><tspan x="97.7" y="0" class="st7 st4 st5">eit </tspan><tspan x="108.1" y="0" class="st7 st4 st5">v</tspan><tspan x="111.9" y="0" class="st7 st4 st5">on </tspan><tspan x="122.7" y="0" class="st7 st4 st5">“</tspan><tspan x="124.9" y="0" class="st7 st4 st5">google </tspan></text>
<text transform="matrix(1 0 0 1 91.2048 192.2654)"><tspan x="0" y="0" class="st7 st4 st5">googl</tspan><tspan x="19.6" y="0" class="st7 st4 st5">e</tspan><tspan x="23.7" y="0" class="st7 st4 st5">” kann zu Recht in </tspan><tspan x="87.6" y="0" class="st7 st4 st5">F</tspan><tspan x="92" y="0" class="st7 st4 st5">r</tspan><tspan x="94.6" y="0" class="st7 st4 st5">age gestellt </tspan></text>
<text transform="matrix(1 0 0 1 91.2048 201.866)"><tspan x="0" y="0" class="st7 st4 st5">we</tspan><tspan x="10.2" y="0" class="st7 st4 st5">r</tspan><tspan x="12.8" y="0" class="st7 st4 st5">den.</tspan></text>
<text transform="matrix(1 0 0 1 91.2048 221.0652)"><tspan x="0" y="0" class="st7 st4 st5">Dennoch gibt es eine g</tspan><tspan x="79.2" y="0" class="st7 st4 st5">r</tspan><tspan x="81.9" y="0" class="st7 st4 st5">oße Anzahl </tspan><tspan x="122.8" y="0" class="st7 st4 st5">v</tspan><tspan x="126.6" y="0" class="st7 st4 st5">on </tspan></text>
<text transform="matrix(1 0 0 1 91.2048 230.6658)"><tspan x="0" y="0" class="st7 st4 st5">Menschen, die das Internet nut</tspan><tspan x="107.4" y="0" class="st7 st4 st5">z</tspan><tspan x="111.2" y="0" class="st7 st4 st5">en, um </tspan></text>
<text transform="matrix(1 0 0 1 91.2048 240.2654)"><tspan x="0" y="0" class="st7 st4 st5">medizinischen Rat einzuholen. Eine Umf</tspan><tspan x="139.7" y="0" class="st7 st4 st5">r</tspan><tspan x="142.3" y="0" class="st7 st4 st5">age </tspan></text>
<text transform="matrix(1 0 0 1 91.2048 249.866)"><tspan x="0" y="0" class="st7 st4 st5">der Christian Mutuality e</tspan><tspan x="84.9" y="0" class="st7 st4 st5">r</tspan><tspan x="87.6" y="0" class="st7 st4 st5">gab, dass 91% </tspan></text>
<text transform="matrix(1 0 0 1 91.2048 259.4656)"><tspan x="0" y="0" class="st7 st4 st5">der Flamen </tspan><tspan x="41.4" y="0" class="st7 st4 st5">r</tspan><tspan x="44" y="0" class="st7 st4 st5">egelmäßig einen Google-Arzt </tspan></text>
<text transform="matrix(1 0 0 1 91.2048 269.0652)" class="st7 st4 st5">aufsuchen.</text>
<text transform="matrix(1 0 0 1 91.2048 288.2654)"><tspan x="0" y="0" class="st7 st4 st5">Banale Symp</tspan><tspan x="45.8" y="0" class="st7 st4 st5">t</tspan><tspan x="48.3" y="0" class="st7 st4 st5">ome we</tspan><tspan x="76.1" y="0" class="st7 st4 st5">r</tspan><tspan x="78.7" y="0" class="st7 st4 st5">den du</tspan><tspan x="102.5" y="0" class="st7 st4 st5">r</tspan><tspan x="105.1" y="0" class="st7 st4 st5">ch das Internet </tspan></text>
<text transform="matrix(1 0 0 1 91.2048 297.866)"><tspan x="0" y="0" class="st7 st4 st5">schnell mit schwe</tspan><tspan x="62.7" y="0" class="st7 st4 st5">r</tspan><tspan x="65.4" y="0" class="st7 st4 st5">en und sogar </tspan><tspan x="112.9" y="0" class="st7 st4 st5">t</tspan><tspan x="115.4" y="0" class="st7 st4 st5">ödlichen </tspan></text>
<text transform="matrix(1 0 0 1 91.2048 307.4656)"><tspan x="0" y="0" class="st7 st4 st5">S</tspan><tspan x="4.7" y="0" class="st7 st4 st5">t</tspan><tspan x="7.2" y="0" class="st7 st4 st5">örungen in </tspan><tspan x="46.2" y="0" class="st7 st4 st5">V</tspan><tspan x="51" y="0" class="st7 st4 st5">erbindung geb</tspan><tspan x="101.1" y="0" class="st7 st4 st5">r</tspan><tspan x="103.6" y="0" class="st7 st4 st5">acht.</tspan></text>
<text transform="matrix(1 0 0 1 91.2048 326.6658)"><tspan x="0" y="0" class="st7 st4 st5">Hö</tspan><tspan x="10.1" y="0" class="st7 st4 st5">r</tspan><tspan x="12.8" y="0" class="st7 st4 st5">en Sie auf, Ih</tspan><tspan x="57.2" y="0" class="st7 st4 st5">r</tspan><tspan x="59.8" y="0" class="st7 st4 st5">e Symp</tspan><tspan x="85.9" y="0" class="st7 st4 st5">t</tspan><tspan x="88.4" y="0" class="st7 st4 st5">ome zu googeln </tspan></text>
<text transform="matrix(1 0 0 1 91.2048 336.2654)"><tspan x="0" y="0" class="st7 st4 st5">und ak</tspan><tspan x="23.4" y="0" class="st7 st4 st5">z</tspan><tspan x="27.2" y="0" class="st7 st4 st5">eptie</tspan><tspan x="44.3" y="0" class="st7 st4 st5">r</tspan><tspan x="46.9" y="0" class="st7 st4 st5">en Sie, dass Sie sterben.</tspan></text>
<text transform="matrix(1 0 0 1 81.3254 24.4378)"><tspan x="0" y="0" class="st10 st11 st12">D</tspan><tspan x="13.1" y="0" class="st10 st11 st12 st13">r</tspan><tspan x="18.7" y="0" class="st10 st11 st12">.  G</tspan></text>
<text transform="matrix(1 0 0 1 128.8054 24.4378)" class="st14 st11 st12">o</text>
<text transform="matrix(1 0 0 1 140.2053 24.4378)" class="st15 st11 st12">o</text>
<text transform="matrix(1 0 0 1 151.6057 24.4378)" class="st10 st11 st12">g</text>
<text transform="matrix(1 0 0 1 162.8255 24.4378)" class="st7 st11 st12">l</text>
<text transform="matrix(1 0 0 1 167.6853 24.4378)" class="st14 st11 st12">e</text>
</svg>
