<?xml version="1.0" encoding="utf-8"?>
<!-- Generator: Adobe Illustrator 23.0.1, SVG Export Plug-In . SVG Version: 6.00 Build 0)  -->
<svg version="1.1" id="Laag_1" xmlns="http://www.w3.org/2000/svg" xmlns:xlink="http://www.w3.org/1999/xlink" x="0px" y="0px"
	 viewBox="0 0 260 47.4" style="enable-background:new 0 0 260 47.4;" xml:space="preserve">
<style type="text/css">
	.st0{fill:none;stroke:#FBBC05;}
</style>
<g>
	<path class="st0" d="M3.5,46.9h-3V10.8h3v4.5h0.1c0.4-0.8,1-1.6,1.7-2.2s1.4-1.2,2.2-1.7c0.8-0.4,1.7-0.8,2.5-1
		c0.9-0.2,1.7-0.3,2.5-0.3c2.1,0,3.9,0.3,5.4,1c1.5,0.7,2.7,1.7,3.6,2.9c0.9,1.2,1.6,2.7,2.1,4.3s0.7,3.5,0.7,5.3
		c0,1.8-0.2,3.5-0.7,5.2c-0.5,1.7-1.2,3.1-2.1,4.4s-2.1,2.2-3.6,3s-3.2,1.1-5.1,1.1c-1.8,0-3.6-0.4-5.3-1.2c-1.7-0.8-3-2-4-3.6V46.9
		z M3.5,23.9c0,1.5,0.2,2.9,0.6,4.2c0.4,1.3,1,2.5,1.7,3.5s1.7,1.8,2.8,2.3c1.1,0.6,2.3,0.9,3.7,0.9c1.5,0,2.9-0.3,4-0.9
		c1.2-0.6,2.1-1.5,2.8-2.5c0.7-1.1,1.3-2.3,1.6-3.7c0.3-1.4,0.5-2.9,0.4-4.6c0-1.6-0.2-3.1-0.7-4.3s-1.1-2.3-1.9-3.2
		c-0.8-0.9-1.7-1.5-2.8-2c-1.1-0.5-2.2-0.7-3.5-0.7c-1.4,0-2.7,0.3-3.8,0.8c-1.1,0.6-2,1.3-2.8,2.3c-0.7,1-1.3,2.1-1.7,3.5
		C3.7,20.8,3.5,22.3,3.5,23.9z"/>
	<path class="st0" d="M33.8,36.7h-3V10.8h3v4.8h0.1c0.8-2.1,1.9-3.5,3.2-4.3c1.3-0.8,3.1-1.2,5.2-1.2v3.2c-1.7,0-3.1,0.2-4.2,0.8
		c-1.1,0.6-2,1.3-2.6,2.3c-0.6,1-1.1,2.1-1.3,3.4c-0.2,1.3-0.4,2.7-0.4,4.1V36.7z"/>
	<path class="st0" d="M49.2,24.5c0,1.4,0.2,2.7,0.5,4c0.4,1.2,0.9,2.3,1.6,3.2s1.6,1.6,2.7,2.2c1.1,0.6,2.4,0.8,3.8,0.8
		c2,0,3.6-0.5,5-1.5c1.4-1,2.3-2.5,2.8-4.4h3.3c-0.4,1.2-0.8,2.4-1.4,3.4c-0.6,1-1.4,2-2.2,2.8c-0.9,0.8-2,1.4-3.2,1.8
		c-1.2,0.4-2.7,0.7-4.3,0.7c-2.1,0-3.9-0.3-5.4-1s-2.7-1.7-3.7-2.9s-1.7-2.7-2.1-4.3c-0.5-1.7-0.7-3.4-0.7-5.3
		c0-1.9,0.3-3.7,0.8-5.4c0.5-1.7,1.3-3.1,2.3-4.4s2.3-2.2,3.7-2.9c1.5-0.7,3.1-1.1,5-1.1c3.6,0,6.4,1.2,8.4,3.7s3,6,3,10.7H49.2z
		 M66.1,22c0-1.3-0.2-2.5-0.5-3.6c-0.4-1.1-0.9-2.1-1.5-2.9c-0.7-0.8-1.5-1.5-2.6-2c-1-0.5-2.2-0.7-3.5-0.7c-1.3,0-2.5,0.2-3.5,0.8
		c-1,0.5-1.9,1.2-2.6,2c-0.7,0.8-1.3,1.8-1.7,2.9c-0.4,1.1-0.7,2.3-0.8,3.5H66.1z"/>
	<path class="st0" d="M76.9,28.6c0.5,2.2,1.3,3.8,2.5,4.7c1.2,0.9,3,1.4,5.2,1.4c1.1,0,2.1-0.1,2.9-0.4s1.5-0.6,2-1.1s0.9-1,1.2-1.5
		c0.3-0.6,0.4-1.2,0.4-1.8c0-1.3-0.4-2.2-1.2-2.8C89,26.5,88,26,86.7,25.6c-1.2-0.3-2.6-0.6-4-0.9c-1.4-0.2-2.8-0.6-4-1.1
		c-1.2-0.5-2.3-1.2-3.1-2.2c-0.8-0.9-1.2-2.2-1.2-4c0-2.2,0.8-3.9,2.4-5.3c1.6-1.4,3.8-2.1,6.7-2.1c2.8,0,5.1,0.6,6.8,1.9
		s2.8,3.3,3.2,6.3h-3c-0.3-2-1-3.4-2.3-4.2c-1.2-0.8-2.8-1.2-4.7-1.2c-1.9,0-3.4,0.4-4.4,1.2c-1,0.8-1.5,1.9-1.5,3.2
		c0,1.2,0.4,2.1,1.2,2.7c0.8,0.6,1.8,1.1,3.1,1.5c1.2,0.4,2.6,0.7,4,1c1.4,0.3,2.8,0.7,4,1.3c1.2,0.5,2.3,1.3,3.1,2.2
		c0.8,0.9,1.2,2.2,1.2,3.9c0,1.2-0.3,2.3-0.8,3.3c-0.5,1-1.3,1.7-2.2,2.4c-0.9,0.6-2,1.1-3.3,1.4s-2.7,0.5-4.2,0.5
		c-1.5,0-2.9-0.2-4.1-0.7c-1.2-0.5-2.2-1.1-3-1.9s-1.5-1.7-2-2.8s-0.7-2.2-0.8-3.5H76.9z"/>
	<path class="st0" d="M118.5,19c-0.5-1.9-1.5-3.4-2.8-4.5s-3-1.6-5-1.6c-1.5,0-2.8,0.3-4,0.9c-1.1,0.6-2,1.5-2.7,2.5
		c-0.7,1-1.2,2.2-1.5,3.5c-0.3,1.3-0.5,2.6-0.5,4c0,1.4,0.2,2.7,0.5,4c0.3,1.3,0.8,2.5,1.5,3.5s1.6,1.9,2.7,2.5
		c1.1,0.6,2.4,0.9,4,0.9c2.2,0,4-0.6,5.4-1.8s2.2-2.9,2.6-5.1h3.2c-0.3,1.4-0.7,2.7-1.3,3.9c-0.6,1.2-1.3,2.2-2.2,3
		c-0.9,0.8-2,1.5-3.3,2c-1.3,0.5-2.7,0.7-4.3,0.7c-2.1,0-3.8-0.3-5.3-1s-2.7-1.7-3.7-2.9c-1-1.2-1.7-2.7-2.2-4.3
		c-0.5-1.7-0.7-3.5-0.7-5.3c0-1.8,0.3-3.5,0.8-5.2c0.5-1.6,1.3-3.1,2.3-4.4c1-1.3,2.2-2.3,3.7-3c1.5-0.8,3.2-1.1,5.1-1.1
		c3,0,5.4,0.7,7.3,2.1c1.8,1.4,3,3.7,3.5,6.7H118.5z"/>
	<path class="st0" d="M131.1,36.7h-3V10.8h3v4.8h0.1c0.8-2.1,1.9-3.5,3.2-4.3c1.3-0.8,3.1-1.2,5.2-1.2v3.2c-1.7,0-3.1,0.2-4.2,0.8
		c-1.1,0.6-2,1.3-2.6,2.3c-0.6,1-1.1,2.1-1.3,3.4c-0.2,1.3-0.4,2.7-0.4,4.1V36.7z"/>
	<path class="st0" d="M144.9,5.2V0.7h3.3v4.4H144.9z M145,36.7V10.8h3v25.9H145z"/>
	<path class="st0" d="M159,46.9h-3V10.8h3v4.5h0.1c0.4-0.8,1-1.6,1.7-2.2s1.4-1.2,2.2-1.7c0.8-0.4,1.7-0.8,2.5-1
		c0.9-0.2,1.7-0.3,2.5-0.3c2.1,0,3.9,0.3,5.4,1c1.5,0.7,2.7,1.7,3.6,2.9c0.9,1.2,1.6,2.7,2.1,4.3s0.7,3.5,0.7,5.3
		c0,1.8-0.2,3.5-0.7,5.2c-0.5,1.7-1.2,3.1-2.1,4.4s-2.1,2.2-3.6,3s-3.2,1.1-5.1,1.1c-1.8,0-3.6-0.4-5.3-1.2c-1.7-0.8-3-2-4-3.6V46.9
		z M159,23.9c0,1.5,0.2,2.9,0.6,4.2c0.4,1.3,1,2.5,1.7,3.5s1.7,1.8,2.8,2.3c1.1,0.6,2.3,0.9,3.7,0.9c1.5,0,2.9-0.3,4-0.9
		c1.2-0.6,2.1-1.5,2.8-2.5c0.7-1.1,1.3-2.3,1.6-3.7c0.3-1.4,0.5-2.9,0.4-4.6c0-1.6-0.2-3.1-0.7-4.3s-1.1-2.3-1.9-3.2
		c-0.8-0.9-1.7-1.5-2.8-2c-1.1-0.5-2.2-0.7-3.5-0.7c-1.4,0-2.7,0.3-3.8,0.8c-1.1,0.6-2,1.3-2.8,2.3c-0.7,1-1.3,2.1-1.7,3.5
		C159.2,20.8,159,22.3,159,23.9z"/>
	<path class="st0" d="M195.3,36.8c-0.4,0.1-0.9,0.2-1.5,0.3c-0.6,0.2-1.3,0.2-2,0.2c-1.5,0-2.6-0.4-3.4-1.1c-0.8-0.8-1.2-2.1-1.2-4
		V13.3h-3.7v-2.5h3.7V3.6h3v7.2h4.8v2.5h-4.8v17.8c0,0.6,0,1.2,0,1.6c0,0.5,0.1,0.9,0.3,1.2c0.2,0.3,0.4,0.5,0.8,0.6
		c0.3,0.1,0.8,0.2,1.5,0.2c0.4,0,0.8,0,1.2-0.1c0.4-0.1,0.8-0.2,1.2-0.2V36.8z"/>
	<path class="st0" d="M200.4,5.2V0.7h3.3v4.4H200.4z M200.6,36.7V10.8h3v25.9H200.6z"/>
	<path class="st0" d="M221.5,37.4c-1.7,0-3.2-0.3-4.7-0.9c-1.4-0.6-2.7-1.4-3.8-2.5c-1.1-1.1-1.9-2.5-2.6-4.2s-0.9-3.7-0.9-6
		c0-1.9,0.2-3.7,0.8-5.3c0.5-1.7,1.2-3.1,2.2-4.3s2.2-2.2,3.8-2.9s3.2-1.1,5.2-1.1c2,0,3.8,0.4,5.3,1.1s2.8,1.7,3.8,2.9
		c1,1.2,1.7,2.7,2.2,4.3c0.5,1.7,0.7,3.5,0.7,5.3c0,2.1-0.3,3.9-0.9,5.6c-0.6,1.7-1.4,3.1-2.4,4.3s-2.3,2.1-3.8,2.8
		C225,37.1,223.3,37.4,221.5,37.4z M230.3,23.8c0-1.5-0.2-3-0.5-4.3c-0.3-1.3-0.9-2.5-1.5-3.5c-0.7-1-1.6-1.8-2.7-2.3
		c-1.1-0.6-2.5-0.8-4-0.8c-1.6,0-2.9,0.3-4,0.9c-1.1,0.6-2,1.4-2.7,2.5c-0.7,1-1.2,2.2-1.6,3.5s-0.5,2.7-0.5,4.1
		c0,1.6,0.2,3.1,0.6,4.4c0.4,1.3,0.9,2.5,1.7,3.5s1.7,1.7,2.8,2.2c1.1,0.5,2.4,0.8,3.8,0.8c1.6,0,2.9-0.3,4-0.9
		c1.1-0.6,2-1.4,2.7-2.5c0.7-1,1.2-2.2,1.5-3.5C230.2,26.5,230.3,25.2,230.3,23.8z"/>
	<path class="st0" d="M242,36.7h-3V10.8h3v3.6c1.2-1.3,2.4-2.3,3.7-3.1c1.3-0.8,2.8-1.2,4.6-1.2c1.6,0,3.1,0.3,4.5,0.8
		c1.4,0.5,2.5,1.5,3.4,2.9c0.6,0.9,1,1.9,1.1,2.9s0.2,2,0.2,3.1v17h-3V19.8c0-2.3-0.5-4.1-1.6-5.2s-2.8-1.8-5.1-1.8
		c-0.9,0-1.8,0.1-2.5,0.4c-0.8,0.3-1.5,0.7-2.1,1.1c-0.6,0.5-1.1,1-1.6,1.6c-0.4,0.6-0.8,1.2-1,1.9c-0.3,0.8-0.5,1.6-0.5,2.4
		c-0.1,0.8-0.1,1.6-0.1,2.5V36.7z"/>
</g>
</svg>
