<?xml version="1.0" encoding="utf-8"?>
<!-- Generator: Adobe Illustrator 23.0.1, SVG Export Plug-In . SVG Version: 6.00 Build 0)  -->
<svg version="1.1" id="Laag_1" xmlns="http://www.w3.org/2000/svg" xmlns:xlink="http://www.w3.org/1999/xlink" x="0px" y="0px"
	 viewBox="0 0 258.3 555.9" style="enable-background:new 0 0 258.3 555.9;" xml:space="preserve">
<style type="text/css">
	.st0{fill:none;stroke:#517ABD;stroke-width:0.335;}
	.st1{fill:none;stroke:#E84435;}
	.st2{fill:#E84435;}
	.st3{font-family:'Roboto-Light';}
	.st4{font-size:8px;}
	.st5{font-family:'Roboto-Bold';}
	.st6{font-family:'Helvetica-Light';}
	.st7{font-size:10px;}
	.st8{clip-path:url(#SVGID_2_);}
	.st9{fill:#517ABD;}
	.st10{font-family:'Roboto-Regular';}
	.st11{font-size:20px;}
	.st12{letter-spacing:-1;}
	.st13{fill:#FCBC05;}
	.st14{fill:#31A852;}
</style>
<rect x="1.7" y="1.4" class="st0" width="255.3" height="552.9"/>
<rect x="1.5" y="1.6" class="st1" width="255.3" height="553"/>
<line class="st1" x1="1.3" y1="36.6" x2="256.9" y2="36.6"/>
<line class="st1" x1="1.3" y1="91.1" x2="256.9" y2="91.1"/>
<line class="st1" x1="1.3" y1="531.7" x2="256.9" y2="531.7"/>
<line class="st1" x1="81.9" y1="91.6" x2="81.9" y2="531.6"/>
<line class="st1" x1="129.5" y1="36.6" x2="129.5" y2="91.1"/>
<text transform="matrix(1 0 0 1 135.3375 48.1104)"><tspan x="0" y="0" class="st2 st3 st4">Nom et p</tspan><tspan x="32.3" y="0" class="st2 st3 st4">r</tspan><tspan x="34.9" y="0" class="st2 st3 st4">énom du p</tspan><tspan x="72.2" y="0" class="st2 st3 st4">r</tspan><tspan x="74.8" y="0" class="st2 st3 st4">escripteur:</tspan></text>
<text transform="matrix(1 0 0 1 135.3375 67.3101)"><tspan x="0" y="0" class="st2 st5 st4">DO</tspan><tspan x="10.7" y="0" class="st2 st5 st4">C</tspan><tspan x="15.9" y="0" class="st2 st5 st4">TEUR GOOGLE</tspan></text>
<text transform="matrix(1 0 0 1 7.0416 103.2701)" class="st2 st6 st4">Réservé sur </text>
<text transform="matrix(1 0 0 1 7.0416 112.8702)" class="st2 st6 st4">la vignette </text>
<text transform="matrix(1 0 0 1 7.0416 122.4703)" class="st2 st6 st4">d’emballage</text>
<text transform="matrix(1 0 0 1 95.2438 546.7217)" class="st2 st3 st7">PRESCRIPTION</text>
<g>
	<defs>
		<rect id="SVGID_1_" x="13" y="41.2" width="104.3" height="44.9"/>
	</defs>
	<clipPath id="SVGID_2_">
		<use xlink:href="#SVGID_1_"  style="overflow:visible;"/>
	</clipPath>
	<g class="st8">
		<defs>
			<rect id="SVGID_3_" x="12" y="41.2" width="106.5" height="45.9"/>
		</defs>
		<clipPath id="SVGID_4_">
			<use xlink:href="#SVGID_3_"  style="overflow:visible;"/>
		</clipPath>
		<g style="clip-path:url(#SVGID_4_);">
			
				<image style="overflow:visible;" width="471" height="203" xlink:href="EFE73F1652D9D933.png"  transform="matrix(0.2261 0 0 0.2261 11.9702 41.2411)">
			</image>
		</g>
	</g>
</g>
<text transform="matrix(1 0 0 1 83.1295 24.0069)"><tspan x="0" y="0" class="st9 st10 st11">D</tspan><tspan x="13.1" y="0" class="st9 st10 st11 st12">r</tspan><tspan x="18.7" y="0" class="st9 st10 st11">. G</tspan></text>
<text transform="matrix(1 0 0 1 125.6515 24.0069)" class="st2 st10 st11">o</text>
<text transform="matrix(1 0 0 1 137.0514 24.0069)" class="st13 st10 st11">o</text>
<text transform="matrix(1 0 0 1 148.4518 24.0069)" class="st9 st10 st11">g</text>
<text transform="matrix(1 0 0 1 159.672 24.0069)" class="st14 st10 st11">l</text>
<text transform="matrix(1 0 0 1 164.5318 24.0069)" class="st2 st10 st11">e</text>
<text transform="matrix(1 0 0 1 90.8653 106.4063)" class="st2 st5 st4">R /</text>
<text transform="matrix(1 0 0 1 90.8653 125.606)"><tspan x="0" y="0" class="st2 st3 st4">Envi</tspan><tspan x="14.6" y="0" class="st2 st3 st4">r</tspan><tspan x="17.2" y="0" class="st2 st3 st4">on 75% des personnes acquiè</tspan><tspan x="121.2" y="0" class="st2 st3 st4">r</tspan><tspan x="123.9" y="0" class="st2 st3 st4">ent </tspan></text>
<text transform="matrix(1 0 0 1 90.8653 135.2061)" class="st2 st3 st4">des connaissances sur la santé par le biais </text>
<text transform="matrix(1 0 0 1 90.8653 144.8057)" class="st2 st3 st4">des médias. Il existe non seulement des </text>
<text transform="matrix(1 0 0 1 90.8653 154.4063)"><tspan x="0" y="0" class="st2 st3 st4">informations t</tspan><tspan x="49.2" y="0" class="st2 st3 st4">r</tspan><tspan x="51.8" y="0" class="st2 st3 st4">ès utiles sur la </tspan><tspan x="103.7" y="0" class="st2 st3 st4">r</tspan><tspan x="106.4" y="0" class="st2 st3 st4">eche</tspan><tspan x="123.2" y="0" class="st2 st3 st4">r</tspan><tspan x="125.8" y="0" class="st2 st3 st4">che </tspan></text>
<path class="st2" d="M91.9,159.8l0,0.7c0.2-0.3,0.4-0.4,0.6-0.6c0.2-0.1,0.5-0.2,0.8-0.2c0.7,0,1.1,0.3,1.3,0.8
	c0.2-0.3,0.4-0.5,0.6-0.6c0.3-0.1,0.5-0.2,0.8-0.2c0.9,0,1.4,0.5,1.4,1.5v2.8h-0.5v-2.8c0-0.4-0.1-0.7-0.2-0.8
	c-0.2-0.2-0.4-0.3-0.8-0.3c-0.3,0-0.6,0.1-0.9,0.3c-0.2,0.2-0.4,0.5-0.4,0.8v2.8h-0.5v-2.8c0-0.4-0.1-0.6-0.3-0.8
	c-0.2-0.2-0.4-0.3-0.8-0.3c-0.3,0-0.5,0.1-0.8,0.3s-0.4,0.4-0.5,0.7v2.9h-0.5v-4.2H91.9z M101.7,163.3c-0.3,0.5-0.8,0.7-1.5,0.7
	c-0.4,0-0.7-0.1-1-0.3c-0.3-0.2-0.5-0.4-0.7-0.7c-0.2-0.3-0.2-0.7-0.2-1.1v-0.2c0-0.4,0.1-0.8,0.2-1.1c0.2-0.3,0.4-0.6,0.7-0.8
	c0.3-0.2,0.6-0.3,0.9-0.3c0.5,0,0.9,0.2,1.2,0.5c0.3,0.4,0.5,0.8,0.5,1.4v0.3h-3v0.1c0,0.5,0.1,0.9,0.4,1.2c0.3,0.3,0.6,0.5,1,0.5
	c0.2,0,0.5,0,0.7-0.1c0.2-0.1,0.4-0.2,0.5-0.4L101.7,163.3L101.7,163.3z M100.1,160.1c-0.4,0-0.6,0.1-0.9,0.4
	c-0.2,0.3-0.4,0.6-0.4,1h2.5v-0.1c0-0.4-0.1-0.7-0.3-1C100.8,160.2,100.5,160.1,100.1,160.1z M100.6,158h0.6l-0.9,1.1l-0.4,0
	L100.6,158z M102.5,161.9c0-0.7,0.1-1.2,0.4-1.6c0.3-0.4,0.7-0.6,1.2-0.6c0.6,0,1,0.2,1.3,0.7V158h0.5v6h-0.4l0-0.6
	c-0.3,0.4-0.7,0.6-1.3,0.6c-0.5,0-0.9-0.2-1.2-0.6C102.7,163.1,102.5,162.6,102.5,161.9L102.5,161.9z M103,161.9
	c0,0.5,0.1,1,0.3,1.3c0.2,0.3,0.5,0.5,0.9,0.5c0.6,0,1-0.3,1.2-0.8v-2c-0.2-0.5-0.6-0.8-1.2-0.8c-0.4,0-0.7,0.2-0.9,0.5
	S103,161.3,103,161.9z M107.1,158.6c0-0.1,0-0.2,0.1-0.2c0.1-0.1,0.1-0.1,0.2-0.1c0.1,0,0.2,0,0.2,0.1s0.1,0.1,0.1,0.2
	s0,0.2-0.1,0.2c-0.1,0.1-0.1,0.1-0.2,0.1c-0.1,0-0.2,0-0.2-0.1C107.1,158.7,107.1,158.6,107.1,158.6z M107.7,164h-0.5v-4.2h0.5V164z
	 M110.5,163.7c0.3,0,0.6-0.1,0.8-0.3c0.2-0.2,0.3-0.4,0.4-0.7h0.4c0,0.3-0.1,0.5-0.2,0.7c-0.1,0.2-0.3,0.4-0.6,0.5s-0.5,0.2-0.8,0.2
	c-0.6,0-1-0.2-1.3-0.6c-0.3-0.4-0.5-0.9-0.5-1.6v-0.1c0-0.4,0.1-0.8,0.2-1.1c0.1-0.3,0.4-0.6,0.6-0.7c0.3-0.2,0.6-0.3,1-0.3
	c0.5,0,0.8,0.1,1.1,0.4c0.3,0.3,0.5,0.6,0.5,1.1h-0.4c0-0.3-0.1-0.6-0.4-0.8c-0.2-0.2-0.5-0.3-0.8-0.3c-0.4,0-0.7,0.2-1,0.5
	c-0.2,0.3-0.3,0.7-0.3,1.3v0.1c0,0.5,0.1,1,0.3,1.3C109.7,163.5,110.1,163.7,110.5,163.7z M115.7,164c0-0.1-0.1-0.3-0.1-0.6
	c-0.2,0.2-0.4,0.4-0.6,0.5s-0.5,0.2-0.8,0.2c-0.4,0-0.7-0.1-1-0.3c-0.3-0.2-0.4-0.5-0.4-0.9c0-0.4,0.2-0.7,0.5-1
	c0.3-0.2,0.8-0.4,1.4-0.4h0.8v-0.5c0-0.3-0.1-0.5-0.3-0.7c-0.2-0.2-0.5-0.3-0.8-0.3c-0.3,0-0.6,0.1-0.8,0.2
	c-0.2,0.2-0.3,0.4-0.3,0.6l-0.5,0c0-0.3,0.2-0.6,0.5-0.9s0.7-0.4,1.2-0.4c0.5,0,0.8,0.1,1.1,0.4c0.3,0.2,0.4,0.6,0.4,1v2
	c0,0.4,0,0.7,0.1,0.9v0H115.7z M114.3,163.7c0.3,0,0.6-0.1,0.8-0.2c0.2-0.2,0.4-0.4,0.5-0.6v-0.9h-0.8c-0.5,0-0.8,0.1-1.1,0.3
	c-0.3,0.2-0.4,0.4-0.4,0.7c0,0.2,0.1,0.4,0.3,0.6S114,163.7,114.3,163.7z M117.9,164h-0.5v-6h0.5V164z M122.3,163.3
	c-0.3,0.5-0.8,0.7-1.5,0.7c-0.4,0-0.7-0.1-1-0.3c-0.3-0.2-0.5-0.4-0.7-0.7c-0.2-0.3-0.2-0.7-0.2-1.1v-0.2c0-0.4,0.1-0.8,0.2-1.1
	c0.2-0.3,0.4-0.6,0.7-0.8c0.3-0.2,0.6-0.3,0.9-0.3c0.5,0,0.9,0.2,1.2,0.5c0.3,0.4,0.5,0.8,0.5,1.4v0.3h-3v0.1c0,0.5,0.1,0.9,0.4,1.2
	c0.3,0.3,0.6,0.5,1,0.5c0.2,0,0.5,0,0.7-0.1c0.2-0.1,0.4-0.2,0.5-0.4L122.3,163.3L122.3,163.3z M120.7,160.1c-0.4,0-0.6,0.1-0.9,0.4
	c-0.2,0.3-0.4,0.6-0.4,1h2.5v-0.1c0-0.4-0.1-0.7-0.3-1C121.3,160.2,121,160.1,120.7,160.1z M128.4,163.3c-0.3,0.5-0.8,0.7-1.5,0.7
	c-0.4,0-0.7-0.1-1-0.3c-0.3-0.2-0.5-0.4-0.7-0.7c-0.2-0.3-0.2-0.7-0.2-1.1v-0.2c0-0.4,0.1-0.8,0.2-1.1c0.2-0.3,0.4-0.6,0.7-0.8
	c0.3-0.2,0.6-0.3,0.9-0.3c0.5,0,0.9,0.2,1.2,0.5c0.3,0.4,0.5,0.8,0.5,1.4v0.3h-3v0.1c0,0.5,0.1,0.9,0.4,1.2c0.3,0.3,0.6,0.5,1,0.5
	c0.2,0,0.5,0,0.7-0.1c0.2-0.1,0.4-0.2,0.5-0.4L128.4,163.3L128.4,163.3z M126.8,160.1c-0.4,0-0.6,0.1-0.9,0.4
	c-0.2,0.3-0.4,0.6-0.4,1h2.5v-0.1c0-0.4-0.1-0.7-0.3-1C127.4,160.2,127.1,160.1,126.8,160.1z M130.1,158.7v1.1h0.9v0.4h-0.9v2.8
	c0,0.2,0,0.4,0.1,0.5c0.1,0.1,0.2,0.2,0.4,0.2c0.1,0,0.2,0,0.4,0l0,0.4c-0.1,0-0.3,0.1-0.5,0.1c-0.3,0-0.6-0.1-0.7-0.3
	c-0.1-0.2-0.2-0.5-0.2-0.8v-2.8h-0.8v-0.4h0.8v-1.1H130.1z M136.4,162.9c0-0.2-0.1-0.4-0.3-0.6c-0.2-0.1-0.5-0.3-0.8-0.3
	c-0.4-0.1-0.7-0.2-0.9-0.3c-0.2-0.1-0.4-0.2-0.5-0.4c-0.1-0.1-0.2-0.3-0.2-0.5c0-0.3,0.1-0.6,0.4-0.8c0.3-0.2,0.6-0.3,1.1-0.3
	c0.5,0,0.8,0.1,1.1,0.3c0.3,0.2,0.4,0.5,0.4,0.9h-0.5c0-0.2-0.1-0.5-0.3-0.6s-0.5-0.2-0.8-0.2c-0.3,0-0.6,0.1-0.7,0.2
	c-0.2,0.1-0.3,0.3-0.3,0.5c0,0.2,0.1,0.4,0.2,0.5c0.2,0.1,0.4,0.2,0.8,0.3c0.4,0.1,0.7,0.2,0.9,0.3c0.2,0.1,0.4,0.2,0.5,0.4
	c0.1,0.2,0.1,0.3,0.1,0.6c0,0.4-0.1,0.6-0.4,0.9c-0.3,0.2-0.7,0.3-1.1,0.3c-0.5,0-0.9-0.1-1.2-0.4c-0.3-0.2-0.5-0.5-0.5-0.9h0.5
	c0,0.3,0.1,0.5,0.3,0.6c0.2,0.2,0.5,0.2,0.8,0.2c0.3,0,0.6-0.1,0.8-0.2C136.3,163.3,136.4,163.2,136.4,162.9z M139.5,163.7
	c0.3,0,0.6-0.1,0.8-0.3c0.2-0.2,0.3-0.4,0.4-0.7h0.4c0,0.3-0.1,0.5-0.2,0.7c-0.1,0.2-0.3,0.4-0.6,0.5s-0.5,0.2-0.8,0.2
	c-0.6,0-1-0.2-1.3-0.6c-0.3-0.4-0.5-0.9-0.5-1.6v-0.1c0-0.4,0.1-0.8,0.2-1.1c0.1-0.3,0.4-0.6,0.6-0.7c0.3-0.2,0.6-0.3,1-0.3
	c0.5,0,0.8,0.1,1.1,0.4c0.3,0.3,0.5,0.6,0.5,1.1h-0.4c0-0.3-0.1-0.6-0.4-0.8c-0.2-0.2-0.5-0.3-0.8-0.3c-0.4,0-0.7,0.2-1,0.5
	c-0.2,0.3-0.3,0.7-0.3,1.3v0.1c0,0.5,0.1,1,0.3,1.3C138.7,163.5,139.1,163.7,139.5,163.7z M142,158.6c0-0.1,0-0.2,0.1-0.2
	c0.1-0.1,0.1-0.1,0.2-0.1c0.1,0,0.2,0,0.2,0.1s0.1,0.1,0.1,0.2s0,0.2-0.1,0.2c-0.1,0.1-0.1,0.1-0.2,0.1c-0.1,0-0.2,0-0.2-0.1
	C142,158.7,142,158.6,142,158.6z M142.6,164h-0.5v-4.2h0.5V164z M147,163.3c-0.3,0.5-0.8,0.7-1.5,0.7c-0.4,0-0.7-0.1-1-0.3
	c-0.3-0.2-0.5-0.4-0.7-0.7c-0.2-0.3-0.2-0.7-0.2-1.1v-0.2c0-0.4,0.1-0.8,0.2-1.1c0.2-0.3,0.4-0.6,0.7-0.8c0.3-0.2,0.6-0.3,0.9-0.3
	c0.5,0,0.9,0.2,1.2,0.5c0.3,0.4,0.5,0.8,0.5,1.4v0.3h-3v0.1c0,0.5,0.1,0.9,0.4,1.2c0.3,0.3,0.6,0.5,1,0.5c0.2,0,0.5,0,0.7-0.1
	c0.2-0.1,0.4-0.2,0.5-0.4L147,163.3L147,163.3z M145.4,160.1c-0.4,0-0.6,0.1-0.9,0.4c-0.2,0.3-0.4,0.6-0.4,1h2.5v-0.1
	c0-0.4-0.1-0.7-0.3-1C146,160.2,145.7,160.1,145.4,160.1z M148.4,159.8l0,0.7c0.2-0.3,0.4-0.5,0.6-0.6c0.2-0.1,0.5-0.2,0.8-0.2
	c0.5,0,0.8,0.1,1,0.4c0.2,0.3,0.3,0.6,0.3,1.1v2.8h-0.5v-2.8c0-0.4-0.1-0.7-0.2-0.8c-0.2-0.2-0.4-0.3-0.8-0.3
	c-0.3,0-0.5,0.1-0.8,0.3c-0.2,0.2-0.4,0.4-0.5,0.7v2.9H148v-4.2H148.4z M153.1,158.7v1.1h0.9v0.4h-0.9v2.8c0,0.2,0,0.4,0.1,0.5
	c0.1,0.1,0.2,0.2,0.4,0.2c0.1,0,0.2,0,0.4,0l0,0.4c-0.1,0-0.3,0.1-0.5,0.1c-0.3,0-0.6-0.1-0.7-0.3c-0.1-0.2-0.2-0.5-0.2-0.8v-2.8
	h-0.8v-0.4h0.8v-1.1H153.1z M154.9,158.6c0-0.1,0-0.2,0.1-0.2c0.1-0.1,0.1-0.1,0.2-0.1c0.1,0,0.2,0,0.2,0.1s0.1,0.1,0.1,0.2
	s0,0.2-0.1,0.2c-0.1,0.1-0.1,0.1-0.2,0.1c-0.1,0-0.2,0-0.2-0.1C154.9,158.7,154.9,158.6,154.9,158.6z M155.4,164H155v-4.2h0.5V164z
	 M157,164v-3.8h-0.7v-0.4h0.7v-0.4c0-0.5,0.1-0.8,0.4-1c0.2-0.2,0.6-0.4,1-0.4c0.3,0,0.7,0.1,1.1,0.2l-0.1,0.4
	c-0.3-0.1-0.6-0.2-1-0.2c-0.6,0-1,0.3-1,1v0.4h1v0.4h-1v3.8H157z M159.7,164h-0.5v-4.2h0.5V164z M160.8,161.9c0-0.7,0.1-1.2,0.4-1.6
	s0.7-0.6,1.2-0.6c0.6,0,1,0.2,1.3,0.7l0-0.6h0.4v5.9h-0.5v-2.1c-0.3,0.4-0.7,0.6-1.3,0.6c-0.5,0-0.9-0.2-1.2-0.6
	S160.8,162.6,160.8,161.9L160.8,161.9z M161.3,161.9c0,0.5,0.1,1,0.3,1.3c0.2,0.3,0.5,0.5,0.9,0.5c0.6,0,1-0.2,1.2-0.7v-2.1
	c-0.1-0.3-0.3-0.4-0.5-0.6s-0.4-0.2-0.7-0.2c-0.4,0-0.7,0.2-0.9,0.5C161.4,160.9,161.3,161.3,161.3,161.9z M168.2,163.5
	c-0.3,0.4-0.7,0.6-1.3,0.6c-0.5,0-0.8-0.1-1-0.4s-0.4-0.6-0.4-1.2v-2.8h0.5v2.7c0,0.8,0.3,1.2,1,1.2c0.7,0,1.1-0.3,1.3-0.8v-3.1h0.5
	v4.2h-0.5L168.2,163.5z M173,163.3c-0.3,0.5-0.8,0.7-1.5,0.7c-0.4,0-0.7-0.1-1-0.3c-0.3-0.2-0.5-0.4-0.7-0.7
	c-0.2-0.3-0.2-0.7-0.2-1.1v-0.2c0-0.4,0.1-0.8,0.2-1.1c0.2-0.3,0.4-0.6,0.7-0.8c0.3-0.2,0.6-0.3,0.9-0.3c0.5,0,0.9,0.2,1.2,0.5
	c0.3,0.4,0.5,0.8,0.5,1.4v0.3h-3v0.1c0,0.5,0.1,0.9,0.4,1.2c0.3,0.3,0.6,0.5,1,0.5c0.2,0,0.5,0,0.7-0.1c0.2-0.1,0.4-0.2,0.5-0.4
	L173,163.3L173,163.3z M171.4,160.1c-0.4,0-0.6,0.1-0.9,0.4c-0.2,0.3-0.4,0.6-0.4,1h2.5v-0.1c0-0.4-0.1-0.7-0.3-1
	C172.1,160.2,171.8,160.1,171.4,160.1z M174.5,163.8c0,0.5-0.2,1-0.5,1.3l-0.3-0.2c0.2-0.3,0.4-0.6,0.4-1v-0.6h0.5V163.8
	L174.5,163.8z M177.9,159.8l0,0.7c0.2-0.3,0.4-0.4,0.6-0.6c0.2-0.1,0.5-0.2,0.8-0.2c0.7,0,1.1,0.3,1.3,0.8c0.2-0.3,0.4-0.5,0.6-0.6
	c0.3-0.1,0.5-0.2,0.8-0.2c0.9,0,1.4,0.5,1.4,1.5v2.8h-0.5v-2.8c0-0.4-0.1-0.7-0.2-0.8c-0.2-0.2-0.4-0.3-0.8-0.3
	c-0.3,0-0.6,0.1-0.9,0.3c-0.2,0.2-0.4,0.5-0.4,0.8v2.8h-0.5v-2.8c0-0.4-0.1-0.6-0.3-0.8c-0.2-0.2-0.4-0.3-0.8-0.3
	c-0.3,0-0.5,0.1-0.8,0.3s-0.4,0.4-0.5,0.7v2.9h-0.5v-4.2H177.9z M187.2,164c0-0.1-0.1-0.3-0.1-0.6c-0.2,0.2-0.4,0.4-0.6,0.5
	s-0.5,0.2-0.8,0.2c-0.4,0-0.7-0.1-1-0.3c-0.3-0.2-0.4-0.5-0.4-0.9c0-0.4,0.2-0.7,0.5-1c0.3-0.2,0.8-0.4,1.4-0.4h0.8v-0.5
	c0-0.3-0.1-0.5-0.3-0.7c-0.2-0.2-0.5-0.3-0.8-0.3c-0.3,0-0.6,0.1-0.8,0.2c-0.2,0.2-0.3,0.4-0.3,0.6l-0.5,0c0-0.3,0.2-0.6,0.5-0.9
	s0.7-0.4,1.2-0.4c0.5,0,0.8,0.1,1.1,0.4c0.3,0.2,0.4,0.6,0.4,1v2c0,0.4,0,0.7,0.1,0.9v0H187.2z M185.8,163.7c0.3,0,0.6-0.1,0.8-0.2
	c0.2-0.2,0.4-0.4,0.5-0.6v-0.9h-0.8c-0.5,0-0.8,0.1-1.1,0.3c-0.3,0.2-0.4,0.4-0.4,0.7c0,0.2,0.1,0.4,0.3,0.6
	S185.5,163.7,185.8,163.7z M188.8,158.6c0-0.1,0-0.2,0.1-0.2c0.1-0.1,0.1-0.1,0.2-0.1c0.1,0,0.2,0,0.2,0.1s0.1,0.1,0.1,0.2
	s0,0.2-0.1,0.2c-0.1,0.1-0.1,0.1-0.2,0.1c-0.1,0-0.2,0-0.2-0.1C188.9,158.7,188.8,158.6,188.8,158.6z M189.4,164h-0.5v-4.2h0.5V164z
	 M193.2,162.9c0-0.2-0.1-0.4-0.3-0.6c-0.2-0.1-0.5-0.3-0.8-0.3c-0.4-0.1-0.7-0.2-0.9-0.3c-0.2-0.1-0.4-0.2-0.5-0.4
	c-0.1-0.1-0.2-0.3-0.2-0.5c0-0.3,0.1-0.6,0.4-0.8c0.3-0.2,0.6-0.3,1.1-0.3c0.5,0,0.8,0.1,1.1,0.3c0.3,0.2,0.4,0.5,0.4,0.9h-0.5
	c0-0.2-0.1-0.5-0.3-0.6s-0.5-0.2-0.8-0.2c-0.3,0-0.6,0.1-0.7,0.2c-0.2,0.1-0.3,0.3-0.3,0.5c0,0.2,0.1,0.4,0.2,0.5
	c0.2,0.1,0.4,0.2,0.8,0.3c0.4,0.1,0.7,0.2,0.9,0.3c0.2,0.1,0.4,0.2,0.5,0.4c0.1,0.2,0.1,0.3,0.1,0.6c0,0.4-0.1,0.6-0.4,0.9
	c-0.3,0.2-0.7,0.3-1.1,0.3c-0.5,0-0.9-0.1-1.2-0.4c-0.3-0.2-0.5-0.5-0.5-0.9h0.5c0,0.3,0.1,0.5,0.3,0.6c0.2,0.2,0.5,0.2,0.8,0.2
	c0.3,0,0.6-0.1,0.8-0.2C193.1,163.3,193.2,163.2,193.2,162.9z M199.8,163.3c-0.3,0.5-0.8,0.7-1.5,0.7c-0.4,0-0.7-0.1-1-0.3
	c-0.3-0.2-0.5-0.4-0.7-0.7c-0.2-0.3-0.2-0.7-0.2-1.1v-0.2c0-0.4,0.1-0.8,0.2-1.1c0.2-0.3,0.4-0.6,0.7-0.8c0.3-0.2,0.6-0.3,0.9-0.3
	c0.5,0,0.9,0.2,1.2,0.5c0.3,0.4,0.5,0.8,0.5,1.4v0.3h-3v0.1c0,0.5,0.1,0.9,0.4,1.2c0.3,0.3,0.6,0.5,1,0.5c0.2,0,0.5,0,0.7-0.1
	c0.2-0.1,0.4-0.2,0.5-0.4L199.8,163.3L199.8,163.3z M198.2,160.1c-0.4,0-0.6,0.1-0.9,0.4c-0.2,0.3-0.4,0.6-0.4,1h2.5v-0.1
	c0-0.4-0.1-0.7-0.3-1C198.8,160.2,198.5,160.1,198.2,160.1z M198.7,158h0.6l-0.9,1.1l-0.4,0L198.7,158z M200.6,161.9
	c0-0.7,0.1-1.2,0.4-1.6s0.7-0.6,1.2-0.6c0.6,0,1,0.2,1.3,0.7l0-0.6h0.4v4.1c0,0.5-0.2,1-0.5,1.3c-0.3,0.3-0.7,0.5-1.2,0.5
	c-0.3,0-0.6-0.1-0.8-0.2c-0.3-0.1-0.5-0.3-0.6-0.5l0.3-0.3c0.3,0.4,0.7,0.6,1.2,0.6c0.4,0,0.7-0.1,0.9-0.3s0.3-0.6,0.3-1v-0.5
	c-0.3,0.4-0.7,0.6-1.3,0.6c-0.5,0-0.9-0.2-1.2-0.6S200.6,162.6,200.6,161.9L200.6,161.9z M201.1,161.9c0,0.5,0.1,1,0.3,1.3
	c0.2,0.3,0.5,0.5,0.9,0.5c0.6,0,1-0.3,1.2-0.8v-2c-0.1-0.3-0.3-0.5-0.5-0.6c-0.2-0.1-0.5-0.2-0.7-0.2c-0.4,0-0.7,0.2-0.9,0.5
	S201.1,161.3,201.1,161.9z M207.9,164c0-0.1-0.1-0.3-0.1-0.6c-0.2,0.2-0.4,0.4-0.6,0.5s-0.5,0.2-0.8,0.2c-0.4,0-0.7-0.1-1-0.3
	c-0.3-0.2-0.4-0.5-0.4-0.9c0-0.4,0.2-0.7,0.5-1c0.3-0.2,0.8-0.4,1.4-0.4h0.8v-0.5c0-0.3-0.1-0.5-0.3-0.7c-0.2-0.2-0.5-0.3-0.8-0.3
	c-0.3,0-0.6,0.1-0.8,0.2c-0.2,0.2-0.3,0.4-0.3,0.6l-0.5,0c0-0.3,0.2-0.6,0.5-0.9s0.7-0.4,1.2-0.4c0.5,0,0.8,0.1,1.1,0.4
	c0.3,0.2,0.4,0.6,0.4,1v2c0,0.4,0,0.7,0.1,0.9v0H207.9z M206.4,163.7c0.3,0,0.6-0.1,0.8-0.2c0.2-0.2,0.4-0.4,0.5-0.6v-0.9h-0.8
	c-0.5,0-0.8,0.1-1.1,0.3c-0.3,0.2-0.4,0.4-0.4,0.7c0,0.2,0.1,0.4,0.3,0.6S206.1,163.7,206.4,163.7z M210,164h-0.5v-6h0.5V164z
	 M214.4,163.3c-0.3,0.5-0.8,0.7-1.5,0.7c-0.4,0-0.7-0.1-1-0.3c-0.3-0.2-0.5-0.4-0.7-0.7c-0.2-0.3-0.2-0.7-0.2-1.1v-0.2
	c0-0.4,0.1-0.8,0.2-1.1c0.2-0.3,0.4-0.6,0.7-0.8c0.3-0.2,0.6-0.3,0.9-0.3c0.5,0,0.9,0.2,1.2,0.5c0.3,0.4,0.5,0.8,0.5,1.4v0.3h-3v0.1
	c0,0.5,0.1,0.9,0.4,1.2c0.3,0.3,0.6,0.5,1,0.5c0.2,0,0.5,0,0.7-0.1c0.2-0.1,0.4-0.2,0.5-0.4L214.4,163.3L214.4,163.3z M212.8,160.1
	c-0.4,0-0.6,0.1-0.9,0.4c-0.2,0.3-0.4,0.6-0.4,1h2.5v-0.1c0-0.4-0.1-0.7-0.3-1C213.5,160.2,213.2,160.1,212.8,160.1z M215.9,159.8
	l0,0.7c0.2-0.3,0.4-0.4,0.6-0.6c0.2-0.1,0.5-0.2,0.8-0.2c0.7,0,1.1,0.3,1.3,0.8c0.2-0.3,0.4-0.5,0.6-0.6c0.3-0.1,0.5-0.2,0.8-0.2
	c0.9,0,1.4,0.5,1.4,1.5v2.8h-0.5v-2.8c0-0.4-0.1-0.7-0.2-0.8c-0.2-0.2-0.4-0.3-0.8-0.3c-0.3,0-0.6,0.1-0.9,0.3
	c-0.2,0.2-0.4,0.5-0.4,0.8v2.8h-0.5v-2.8c0-0.4-0.1-0.6-0.3-0.8c-0.2-0.2-0.4-0.3-0.8-0.3c-0.3,0-0.5,0.1-0.8,0.3s-0.4,0.4-0.5,0.7
	v2.9h-0.5v-4.2H215.9z M225.6,163.3c-0.3,0.5-0.8,0.7-1.5,0.7c-0.4,0-0.7-0.1-1-0.3c-0.3-0.2-0.5-0.4-0.7-0.7
	c-0.2-0.3-0.2-0.7-0.2-1.1v-0.2c0-0.4,0.1-0.8,0.2-1.1c0.2-0.3,0.4-0.6,0.7-0.8c0.3-0.2,0.6-0.3,0.9-0.3c0.5,0,0.9,0.2,1.2,0.5
	c0.3,0.4,0.5,0.8,0.5,1.4v0.3h-3v0.1c0,0.5,0.1,0.9,0.4,1.2c0.3,0.3,0.6,0.5,1,0.5c0.2,0,0.5,0,0.7-0.1c0.2-0.1,0.4-0.2,0.5-0.4
	L225.6,163.3L225.6,163.3z M224.1,160.1c-0.4,0-0.6,0.1-0.9,0.4c-0.2,0.3-0.4,0.6-0.4,1h2.5v-0.1c0-0.4-0.1-0.7-0.3-1
	C224.7,160.2,224.4,160.1,224.1,160.1z M227.1,159.8l0,0.7c0.2-0.3,0.4-0.5,0.6-0.6c0.2-0.1,0.5-0.2,0.8-0.2c0.5,0,0.8,0.1,1,0.4
	c0.2,0.3,0.3,0.6,0.3,1.1v2.8h-0.5v-2.8c0-0.4-0.1-0.7-0.2-0.8c-0.2-0.2-0.4-0.3-0.8-0.3c-0.3,0-0.5,0.1-0.8,0.3
	c-0.2,0.2-0.4,0.4-0.5,0.7v2.9h-0.5v-4.2H227.1z M231.8,158.7v1.1h0.9v0.4h-0.9v2.8c0,0.2,0,0.4,0.1,0.5c0.1,0.1,0.2,0.2,0.4,0.2
	c0.1,0,0.2,0,0.4,0l0,0.4c-0.1,0-0.3,0.1-0.5,0.1c-0.3,0-0.6-0.1-0.7-0.3c-0.1-0.2-0.2-0.5-0.2-0.8v-2.8h-0.8v-0.4h0.8v-1.1H231.8z
	 M235.4,161.9c0-0.7,0.1-1.2,0.4-1.6c0.3-0.4,0.7-0.6,1.2-0.6c0.6,0,1,0.2,1.3,0.7V158h0.5v6h-0.4l0-0.6c-0.3,0.4-0.7,0.6-1.3,0.6
	c-0.5,0-0.9-0.2-1.2-0.6C235.5,163.1,235.4,162.6,235.4,161.9L235.4,161.9z M235.8,161.9c0,0.5,0.1,1,0.3,1.3
	c0.2,0.3,0.5,0.5,0.9,0.5c0.6,0,1-0.3,1.2-0.8v-2c-0.2-0.5-0.6-0.8-1.2-0.8c-0.4,0-0.7,0.2-0.9,0.5S235.8,161.3,235.8,161.9z
	 M243.1,163.3c-0.3,0.5-0.8,0.7-1.5,0.7c-0.4,0-0.7-0.1-1-0.3c-0.3-0.2-0.5-0.4-0.7-0.7c-0.2-0.3-0.2-0.7-0.2-1.1v-0.2
	c0-0.4,0.1-0.8,0.2-1.1c0.2-0.3,0.4-0.6,0.7-0.8c0.3-0.2,0.6-0.3,0.9-0.3c0.5,0,0.9,0.2,1.2,0.5c0.3,0.4,0.5,0.8,0.5,1.4v0.3h-3v0.1
	c0,0.5,0.1,0.9,0.4,1.2c0.3,0.3,0.6,0.5,1,0.5c0.2,0,0.5,0,0.7-0.1c0.2-0.1,0.4-0.2,0.5-0.4L243.1,163.3L243.1,163.3z M241.6,160.1
	c-0.4,0-0.6,0.1-0.9,0.4c-0.2,0.3-0.4,0.6-0.4,1h2.5v-0.1c0-0.4-0.1-0.7-0.3-1C242.2,160.2,241.9,160.1,241.6,160.1z M246.7,162.9
	c0-0.2-0.1-0.4-0.3-0.6c-0.2-0.1-0.5-0.3-0.8-0.3c-0.4-0.1-0.7-0.2-0.9-0.3c-0.2-0.1-0.4-0.2-0.5-0.4c-0.1-0.1-0.2-0.3-0.2-0.5
	c0-0.3,0.1-0.6,0.4-0.8c0.3-0.2,0.6-0.3,1.1-0.3c0.5,0,0.8,0.1,1.1,0.3c0.3,0.2,0.4,0.5,0.4,0.9h-0.5c0-0.2-0.1-0.5-0.3-0.6
	s-0.5-0.2-0.8-0.2c-0.3,0-0.6,0.1-0.7,0.2c-0.2,0.1-0.3,0.3-0.3,0.5c0,0.2,0.1,0.4,0.2,0.5c0.2,0.1,0.4,0.2,0.8,0.3
	c0.4,0.1,0.7,0.2,0.9,0.3c0.2,0.1,0.4,0.2,0.5,0.4c0.1,0.2,0.1,0.3,0.1,0.6c0,0.4-0.1,0.6-0.4,0.9c-0.3,0.2-0.7,0.3-1.1,0.3
	c-0.5,0-0.9-0.1-1.2-0.4c-0.3-0.2-0.5-0.5-0.5-0.9h0.5c0,0.3,0.1,0.5,0.3,0.6c0.2,0.2,0.5,0.2,0.8,0.2c0.3,0,0.6-0.1,0.8-0.2
	C246.6,163.3,246.7,163.2,246.7,162.9z"/>
<text transform="matrix(1 0 0 1 90.8653 173.6065)"><tspan x="0" y="0" class="st2 st3 st4">conseils moins cor</tspan><tspan x="65.8" y="0" class="st2 st3 st4">r</tspan><tspan x="68.5" y="0" class="st2 st3 st4">ects et même er</tspan><tspan x="125.1" y="0" class="st2 st3 st4">r</tspan><tspan x="127.8" y="0" class="st2 st3 st4">onés. </tspan></text>
<path class="st2" d="M92.1,182.8h2.8v0.4h-3.3v-5.7h0.5V182.8z M94.8,177.6c0,0.5-0.2,1-0.5,1.3l-0.3-0.2c0.2-0.3,0.4-0.6,0.4-1
	v-0.5h0.5V177.6L94.8,177.6z M98.7,182.5c-0.3,0.5-0.8,0.7-1.5,0.7c-0.4,0-0.7-0.1-1-0.3c-0.3-0.2-0.5-0.4-0.7-0.7
	c-0.2-0.3-0.2-0.7-0.2-1.1V181c0-0.4,0.1-0.8,0.2-1.1c0.2-0.3,0.4-0.6,0.7-0.8c0.3-0.2,0.6-0.3,0.9-0.3c0.5,0,0.9,0.2,1.2,0.5
	c0.3,0.4,0.5,0.8,0.5,1.4v0.3h-3v0.1c0,0.5,0.1,0.9,0.4,1.2c0.3,0.3,0.6,0.5,1,0.5c0.2,0,0.5,0,0.7-0.1c0.2-0.1,0.4-0.2,0.5-0.4
	L98.7,182.5L98.7,182.5z M97.1,179.3c-0.4,0-0.6,0.1-0.9,0.4c-0.2,0.3-0.4,0.6-0.4,1h2.5v-0.1c0-0.4-0.1-0.7-0.3-1
	C97.8,179.4,97.5,179.3,97.1,179.3z M101,180.7l1.1-1.7h0.6l-1.4,2.1l1.5,2.2h-0.6l-1.2-1.8l-1.2,1.8h-0.6l1.5-2.2l-1.4-2.1h0.6
	L101,180.7z M106.3,183.2c0-0.1-0.1-0.3-0.1-0.6c-0.2,0.2-0.4,0.4-0.6,0.5s-0.5,0.2-0.8,0.2c-0.4,0-0.7-0.1-1-0.3
	c-0.3-0.2-0.4-0.5-0.4-0.9c0-0.4,0.2-0.7,0.5-1c0.3-0.2,0.8-0.4,1.4-0.4h0.8v-0.5c0-0.3-0.1-0.5-0.3-0.7c-0.2-0.2-0.5-0.3-0.8-0.3
	c-0.3,0-0.6,0.1-0.8,0.2c-0.2,0.2-0.3,0.4-0.3,0.6l-0.5,0c0-0.3,0.2-0.6,0.5-0.9s0.7-0.4,1.2-0.4c0.5,0,0.8,0.1,1.1,0.4
	c0.3,0.2,0.4,0.6,0.4,1v2c0,0.4,0,0.7,0.1,0.9v0H106.3z M104.8,182.9c0.3,0,0.6-0.1,0.8-0.2c0.2-0.2,0.4-0.4,0.5-0.6v-0.9h-0.8
	c-0.5,0-0.8,0.1-1.1,0.3c-0.3,0.2-0.4,0.4-0.4,0.7c0,0.2,0.1,0.4,0.3,0.6S104.5,182.9,104.8,182.9z M109.4,182.9
	c0.3,0,0.6-0.1,0.8-0.3c0.2-0.2,0.3-0.4,0.4-0.7h0.4c0,0.3-0.1,0.5-0.2,0.7c-0.1,0.2-0.3,0.4-0.6,0.5s-0.5,0.2-0.8,0.2
	c-0.6,0-1-0.2-1.3-0.6c-0.3-0.4-0.5-0.9-0.5-1.6V181c0-0.4,0.1-0.8,0.2-1.1c0.1-0.3,0.4-0.6,0.6-0.7c0.3-0.2,0.6-0.3,1-0.3
	c0.5,0,0.8,0.1,1.1,0.4c0.3,0.3,0.5,0.6,0.5,1.1h-0.4c0-0.3-0.1-0.6-0.4-0.8c-0.2-0.2-0.5-0.3-0.8-0.3c-0.4,0-0.7,0.2-1,0.5
	c-0.2,0.3-0.3,0.7-0.3,1.3v0.1c0,0.5,0.1,1,0.3,1.3C108.7,182.7,109,182.9,109.4,182.9z M112.7,177.9v1.1h0.9v0.4h-0.9v2.8
	c0,0.2,0,0.4,0.1,0.5c0.1,0.1,0.2,0.2,0.4,0.2c0.1,0,0.2,0,0.4,0l0,0.4c-0.1,0-0.3,0.1-0.5,0.1c-0.3,0-0.6-0.1-0.7-0.3
	c-0.1-0.2-0.2-0.5-0.2-0.8v-2.8h-0.8V179h0.8v-1.1H112.7z M114.5,177.8c0-0.1,0-0.2,0.1-0.2c0.1-0.1,0.1-0.1,0.2-0.1
	c0.1,0,0.2,0,0.2,0.1s0.1,0.1,0.1,0.2s0,0.2-0.1,0.2c-0.1,0.1-0.1,0.1-0.2,0.1c-0.1,0-0.2,0-0.2-0.1
	C114.6,177.9,114.5,177.8,114.5,177.8z M115.1,183.2h-0.5V179h0.5V183.2z M117.1,177.9v1.1h0.9v0.4h-0.9v2.8c0,0.2,0,0.4,0.1,0.5
	c0.1,0.1,0.2,0.2,0.4,0.2c0.1,0,0.2,0,0.4,0l0,0.4c-0.1,0-0.3,0.1-0.5,0.1c-0.3,0-0.6-0.1-0.7-0.3c-0.1-0.2-0.2-0.5-0.2-0.8v-2.8
	h-0.8V179h0.8v-1.1H117.1z M121.6,182.7c-0.3,0.4-0.7,0.6-1.3,0.6c-0.5,0-0.8-0.1-1-0.4s-0.4-0.6-0.4-1.2V179h0.5v2.7
	c0,0.8,0.3,1.2,1,1.2c0.7,0,1.1-0.3,1.3-0.8V179h0.5v4.2h-0.5L121.6,182.7z M123.1,181.1c0-0.7,0.1-1.2,0.4-1.6
	c0.3-0.4,0.7-0.6,1.2-0.6c0.6,0,1,0.2,1.3,0.7v-2.4h0.5v6h-0.4l0-0.6c-0.3,0.4-0.7,0.6-1.3,0.6c-0.5,0-0.9-0.2-1.2-0.6
	C123.3,182.3,123.1,181.8,123.1,181.1L123.1,181.1z M123.6,181.1c0,0.5,0.1,1,0.3,1.3c0.2,0.3,0.5,0.5,0.9,0.5c0.6,0,1-0.3,1.2-0.8
	v-2c-0.2-0.5-0.6-0.8-1.2-0.8c-0.4,0-0.7,0.2-0.9,0.5S123.6,180.5,123.6,181.1z M130.9,182.5c-0.3,0.5-0.8,0.7-1.5,0.7
	c-0.4,0-0.7-0.1-1-0.3c-0.3-0.2-0.5-0.4-0.7-0.7c-0.2-0.3-0.2-0.7-0.2-1.1V181c0-0.4,0.1-0.8,0.2-1.1c0.2-0.3,0.4-0.6,0.7-0.8
	c0.3-0.2,0.6-0.3,0.9-0.3c0.5,0,0.9,0.2,1.2,0.5c0.3,0.4,0.5,0.8,0.5,1.4v0.3h-3v0.1c0,0.5,0.1,0.9,0.4,1.2c0.3,0.3,0.6,0.5,1,0.5
	c0.2,0,0.5,0,0.7-0.1c0.2-0.1,0.4-0.2,0.5-0.4L130.9,182.5L130.9,182.5z M129.3,179.3c-0.4,0-0.6,0.1-0.9,0.4
	c-0.2,0.3-0.4,0.6-0.4,1h2.5v-0.1c0-0.4-0.1-0.7-0.3-1C130,179.4,129.7,179.3,129.3,179.3z M137,182.5c-0.3,0.5-0.8,0.7-1.5,0.7
	c-0.4,0-0.7-0.1-1-0.3c-0.3-0.2-0.5-0.4-0.7-0.7c-0.2-0.3-0.2-0.7-0.2-1.1V181c0-0.4,0.1-0.8,0.2-1.1c0.2-0.3,0.4-0.6,0.7-0.8
	c0.3-0.2,0.6-0.3,0.9-0.3c0.5,0,0.9,0.2,1.2,0.5c0.3,0.4,0.5,0.8,0.5,1.4v0.3h-3v0.1c0,0.5,0.1,0.9,0.4,1.2c0.3,0.3,0.6,0.5,1,0.5
	c0.2,0,0.5,0,0.7-0.1c0.2-0.1,0.4-0.2,0.5-0.4L137,182.5L137,182.5z M135.4,179.3c-0.4,0-0.6,0.1-0.9,0.4c-0.2,0.3-0.4,0.6-0.4,1
	h2.5v-0.1c0-0.4-0.1-0.7-0.3-1C136,179.4,135.8,179.3,135.4,179.3z M138.7,177.9v1.1h0.9v0.4h-0.9v2.8c0,0.2,0,0.4,0.1,0.5
	c0.1,0.1,0.2,0.2,0.4,0.2c0.1,0,0.2,0,0.4,0l0,0.4c-0.1,0-0.3,0.1-0.5,0.1c-0.3,0-0.6-0.1-0.7-0.3c-0.1-0.2-0.2-0.5-0.2-0.8v-2.8
	h-0.8V179h0.8v-1.1H138.7z M143,183.2h-0.5v-6h0.5V183.2z M147,183.2c0-0.1-0.1-0.3-0.1-0.6c-0.2,0.2-0.4,0.4-0.6,0.5
	s-0.5,0.2-0.8,0.2c-0.4,0-0.7-0.1-1-0.3c-0.3-0.2-0.4-0.5-0.4-0.9c0-0.4,0.2-0.7,0.5-1c0.3-0.2,0.8-0.4,1.4-0.4h0.8v-0.5
	c0-0.3-0.1-0.5-0.3-0.7c-0.2-0.2-0.5-0.3-0.8-0.3c-0.3,0-0.6,0.1-0.8,0.2c-0.2,0.2-0.3,0.4-0.3,0.6l-0.5,0c0-0.3,0.2-0.6,0.5-0.9
	s0.7-0.4,1.2-0.4c0.5,0,0.8,0.1,1.1,0.4c0.3,0.2,0.4,0.6,0.4,1v2c0,0.4,0,0.7,0.1,0.9v0H147z M145.5,182.9c0.3,0,0.6-0.1,0.8-0.2
	c0.2-0.2,0.4-0.4,0.5-0.6v-0.9H146c-0.5,0-0.8,0.1-1.1,0.3c-0.3,0.2-0.4,0.4-0.4,0.7c0,0.2,0.1,0.4,0.3,0.6S145.2,182.9,145.5,182.9
	z M150.8,183.2v-3.8h-0.7V179h0.7v-0.4c0-0.5,0.1-0.8,0.4-1c0.2-0.2,0.6-0.4,1-0.4c0.3,0,0.7,0.1,1.1,0.2l-0.1,0.4
	c-0.3-0.1-0.6-0.2-1-0.2c-0.6,0-1,0.3-1,1v0.4h1v0.4h-1v3.8H150.8z M153.5,183.2h-0.5V179h0.5V183.2z M157.5,183.2
	c0-0.1-0.1-0.3-0.1-0.6c-0.2,0.2-0.4,0.4-0.6,0.5s-0.5,0.2-0.8,0.2c-0.4,0-0.7-0.1-1-0.3c-0.3-0.2-0.4-0.5-0.4-0.9
	c0-0.4,0.2-0.7,0.5-1c0.3-0.2,0.8-0.4,1.4-0.4h0.8v-0.5c0-0.3-0.1-0.5-0.3-0.7c-0.2-0.2-0.5-0.3-0.8-0.3c-0.3,0-0.6,0.1-0.8,0.2
	c-0.2,0.2-0.3,0.4-0.3,0.6l-0.5,0c0-0.3,0.2-0.6,0.5-0.9s0.7-0.4,1.2-0.4c0.5,0,0.8,0.1,1.1,0.4c0.3,0.2,0.4,0.6,0.4,1v2
	c0,0.4,0,0.7,0.1,0.9v0H157.5z M156,182.9c0.3,0,0.6-0.1,0.8-0.2c0.2-0.2,0.4-0.4,0.5-0.6v-0.9h-0.8c-0.5,0-0.8,0.1-1.1,0.3
	c-0.3,0.2-0.4,0.4-0.4,0.7c0,0.2,0.1,0.4,0.3,0.6S155.7,182.9,156,182.9z M162.5,181.1c0,0.7-0.1,1.2-0.4,1.6
	c-0.3,0.4-0.7,0.6-1.2,0.6c-0.6,0-1-0.2-1.3-0.7l0,0.6h-0.4v-6h0.5v2.4c0.3-0.5,0.7-0.7,1.3-0.7c0.5,0,0.9,0.2,1.2,0.6
	C162.4,179.9,162.5,180.4,162.5,181.1L162.5,181.1z M162,181.1c0-0.6-0.1-1-0.3-1.3c-0.2-0.3-0.5-0.5-0.9-0.5
	c-0.3,0-0.6,0.1-0.8,0.2c-0.2,0.1-0.4,0.4-0.5,0.6v1.9c0.2,0.5,0.6,0.8,1.2,0.8c0.4,0,0.7-0.2,0.9-0.5
	C161.9,182.1,162,181.7,162,181.1z M163.5,177.8c0-0.1,0-0.2,0.1-0.2c0.1-0.1,0.1-0.1,0.2-0.1c0.1,0,0.2,0,0.2,0.1s0.1,0.1,0.1,0.2
	s0,0.2-0.1,0.2c-0.1,0.1-0.1,0.1-0.2,0.1c-0.1,0-0.2,0-0.2-0.1C163.5,177.9,163.5,177.8,163.5,177.8z M164.1,183.2h-0.5V179h0.5
	V183.2z M165.9,183.2h-0.5v-6h0.5V183.2z M167.1,177.8c0-0.1,0-0.2,0.1-0.2c0.1-0.1,0.1-0.1,0.2-0.1c0.1,0,0.2,0,0.2,0.1
	s0.1,0.1,0.1,0.2s0,0.2-0.1,0.2c-0.1,0.1-0.1,0.1-0.2,0.1c-0.1,0-0.2,0-0.2-0.1C167.1,177.9,167.1,177.8,167.1,177.8z M167.6,183.2
	h-0.5V179h0.5V183.2z M169.6,177.9v1.1h0.9v0.4h-0.9v2.8c0,0.2,0,0.4,0.1,0.5c0.1,0.1,0.2,0.2,0.4,0.2c0.1,0,0.2,0,0.4,0l0,0.4
	c-0.1,0-0.3,0.1-0.5,0.1c-0.3,0-0.6-0.1-0.7-0.3c-0.1-0.2-0.2-0.5-0.2-0.8v-2.8h-0.8V179h0.8v-1.1H169.6z M174.6,182.5
	c-0.3,0.5-0.8,0.7-1.5,0.7c-0.4,0-0.7-0.1-1-0.3c-0.3-0.2-0.5-0.4-0.7-0.7c-0.2-0.3-0.2-0.7-0.2-1.1V181c0-0.4,0.1-0.8,0.2-1.1
	c0.2-0.3,0.4-0.6,0.7-0.8c0.3-0.2,0.6-0.3,0.9-0.3c0.5,0,0.9,0.2,1.2,0.5c0.3,0.4,0.5,0.8,0.5,1.4v0.3h-3v0.1c0,0.5,0.1,0.9,0.4,1.2
	c0.3,0.3,0.6,0.5,1,0.5c0.2,0,0.5,0,0.7-0.1c0.2-0.1,0.4-0.2,0.5-0.4L174.6,182.5L174.6,182.5z M173,179.3c-0.4,0-0.6,0.1-0.9,0.4
	c-0.2,0.3-0.4,0.6-0.4,1h2.5v-0.1c0-0.4-0.1-0.7-0.3-1C173.7,179.4,173.4,179.3,173,179.3z M173.6,177.2h0.6l-0.9,1.1l-0.4,0
	L173.6,177.2z M177.4,181.1c0-0.7,0.1-1.2,0.4-1.6c0.3-0.4,0.7-0.6,1.2-0.6c0.6,0,1,0.2,1.3,0.7v-2.4h0.5v6h-0.4l0-0.6
	c-0.3,0.4-0.7,0.6-1.3,0.6c-0.5,0-0.9-0.2-1.2-0.6C177.5,182.3,177.4,181.8,177.4,181.1L177.4,181.1z M177.8,181.1
	c0,0.5,0.1,1,0.3,1.3c0.2,0.3,0.5,0.5,0.9,0.5c0.6,0,1-0.3,1.2-0.8v-2c-0.2-0.5-0.6-0.8-1.2-0.8c-0.4,0-0.7,0.2-0.9,0.5
	S177.8,180.5,177.8,181.1z M185.1,182.5c-0.3,0.5-0.8,0.7-1.5,0.7c-0.4,0-0.7-0.1-1-0.3c-0.3-0.2-0.5-0.4-0.7-0.7
	c-0.2-0.3-0.2-0.7-0.2-1.1V181c0-0.4,0.1-0.8,0.2-1.1c0.2-0.3,0.4-0.6,0.7-0.8c0.3-0.2,0.6-0.3,0.9-0.3c0.5,0,0.9,0.2,1.2,0.5
	c0.3,0.4,0.5,0.8,0.5,1.4v0.3h-3v0.1c0,0.5,0.1,0.9,0.4,1.2c0.3,0.3,0.6,0.5,1,0.5c0.2,0,0.5,0,0.7-0.1c0.2-0.1,0.4-0.2,0.5-0.4
	L185.1,182.5L185.1,182.5z M183.6,179.3c-0.4,0-0.6,0.1-0.9,0.4c-0.2,0.3-0.4,0.6-0.4,1h2.5v-0.1c0-0.4-0.1-0.7-0.3-1
	C184.2,179.4,183.9,179.3,183.6,179.3z M188.4,177.1l0.3,0.2c-0.2,0.3-0.4,0.6-0.4,1v0.5h-0.5v-0.4c0-0.2,0-0.5,0.1-0.7
	C188.1,177.5,188.2,177.3,188.4,177.1z M189.4,177.1l0.3,0.2c-0.2,0.3-0.4,0.6-0.4,1v0.5h-0.5v-0.4c0-0.2,0-0.5,0.1-0.7
	C189.1,177.5,189.2,177.3,189.4,177.1z M190.1,181.1c0-0.7,0.1-1.2,0.4-1.6c0.3-0.4,0.7-0.6,1.2-0.6c0.6,0,1,0.2,1.3,0.7v-2.4h0.5v6
	H193l0-0.6c-0.3,0.4-0.7,0.6-1.3,0.6c-0.5,0-0.9-0.2-1.2-0.6C190.2,182.3,190.1,181.8,190.1,181.1L190.1,181.1z M190.5,181.1
	c0,0.5,0.1,1,0.3,1.3c0.2,0.3,0.5,0.5,0.9,0.5c0.6,0,1-0.3,1.2-0.8v-2c-0.2-0.5-0.6-0.8-1.2-0.8c-0.4,0-0.7,0.2-0.9,0.5
	S190.5,180.5,190.5,181.1z M194.4,181c0-0.4,0.1-0.8,0.2-1.1c0.2-0.3,0.4-0.6,0.7-0.8c0.3-0.2,0.6-0.3,1-0.3c0.6,0,1,0.2,1.4,0.6
	c0.3,0.4,0.5,0.9,0.5,1.6v0.1c0,0.4-0.1,0.8-0.2,1.1c-0.2,0.3-0.4,0.6-0.7,0.8c-0.3,0.2-0.6,0.3-1,0.3c-0.6,0-1-0.2-1.4-0.6
	C194.6,182.3,194.4,181.8,194.4,181L194.4,181z M194.9,181.2c0,0.5,0.1,0.9,0.4,1.2s0.6,0.5,1,0.5c0.4,0,0.8-0.2,1-0.5
	s0.4-0.8,0.4-1.3V181c0-0.3-0.1-0.6-0.2-0.9c-0.1-0.3-0.3-0.5-0.5-0.6c-0.2-0.1-0.5-0.2-0.7-0.2c-0.4,0-0.8,0.2-1,0.5
	C195,180.1,194.9,180.5,194.9,181.2L194.9,181.2z M200.7,182.9c0.3,0,0.6-0.1,0.8-0.3c0.2-0.2,0.3-0.4,0.4-0.7h0.4
	c0,0.3-0.1,0.5-0.2,0.7c-0.1,0.2-0.3,0.4-0.6,0.5s-0.5,0.2-0.8,0.2c-0.6,0-1-0.2-1.3-0.6c-0.3-0.4-0.5-0.9-0.5-1.6V181
	c0-0.4,0.1-0.8,0.2-1.1c0.1-0.3,0.4-0.6,0.6-0.7c0.3-0.2,0.6-0.3,1-0.3c0.5,0,0.8,0.1,1.1,0.4c0.3,0.3,0.5,0.6,0.5,1.1h-0.4
	c0-0.3-0.1-0.6-0.4-0.8c-0.2-0.2-0.5-0.3-0.8-0.3c-0.4,0-0.7,0.2-1,0.5c-0.2,0.3-0.3,0.7-0.3,1.3v0.1c0,0.5,0.1,1,0.3,1.3
	C200,182.7,200.3,182.9,200.7,182.9z M204,177.9v1.1h0.9v0.4H204v2.8c0,0.2,0,0.4,0.1,0.5c0.1,0.1,0.2,0.2,0.4,0.2
	c0.1,0,0.2,0,0.4,0l0,0.4c-0.1,0-0.3,0.1-0.5,0.1c-0.3,0-0.6-0.1-0.7-0.3c-0.1-0.2-0.2-0.5-0.2-0.8v-2.8h-0.8V179h0.8v-1.1H204z
	 M205.5,181c0-0.4,0.1-0.8,0.2-1.1c0.2-0.3,0.4-0.6,0.7-0.8c0.3-0.2,0.6-0.3,1-0.3c0.6,0,1,0.2,1.4,0.6c0.3,0.4,0.5,0.9,0.5,1.6v0.1
	c0,0.4-0.1,0.8-0.2,1.1c-0.2,0.3-0.4,0.6-0.7,0.8c-0.3,0.2-0.6,0.3-1,0.3c-0.6,0-1-0.2-1.4-0.6C205.7,182.3,205.5,181.8,205.5,181
	L205.5,181z M206,181.2c0,0.5,0.1,0.9,0.4,1.2s0.6,0.5,1,0.5c0.4,0,0.8-0.2,1-0.5s0.4-0.8,0.4-1.3V181c0-0.3-0.1-0.6-0.2-0.9
	c-0.1-0.3-0.3-0.5-0.5-0.6c-0.2-0.1-0.5-0.2-0.7-0.2c-0.4,0-0.8,0.2-1,0.5C206.1,180.1,206,180.5,206,181.2L206,181.2z M212.2,179.4
	c-0.1,0-0.2,0-0.3,0c-0.3,0-0.5,0.1-0.7,0.2c-0.2,0.2-0.3,0.4-0.4,0.7v2.9h-0.5V179h0.5l0,0.7c0.2-0.5,0.6-0.8,1.2-0.8
	c0.1,0,0.2,0,0.3,0.1L212.2,179.4z M214.7,181.1c0-0.7,0.1-1.2,0.4-1.6s0.7-0.6,1.2-0.6c0.6,0,1,0.2,1.3,0.7l0-0.6h0.4v4.1
	c0,0.5-0.2,1-0.5,1.3c-0.3,0.3-0.7,0.5-1.2,0.5c-0.3,0-0.6-0.1-0.8-0.2c-0.3-0.1-0.5-0.3-0.6-0.5l0.3-0.3c0.3,0.4,0.7,0.6,1.2,0.6
	c0.4,0,0.7-0.1,0.9-0.3s0.3-0.6,0.3-1v-0.5c-0.3,0.4-0.7,0.6-1.3,0.6c-0.5,0-0.9-0.2-1.2-0.6S214.7,181.8,214.7,181.1L214.7,181.1z
	 M215.2,181.1c0,0.5,0.1,1,0.3,1.3c0.2,0.3,0.5,0.5,0.9,0.5c0.6,0,1-0.3,1.2-0.8v-2c-0.1-0.3-0.3-0.5-0.5-0.6
	c-0.2-0.1-0.5-0.2-0.7-0.2c-0.4,0-0.7,0.2-0.9,0.5S215.2,180.5,215.2,181.1z M219.1,181c0-0.4,0.1-0.8,0.2-1.1
	c0.2-0.3,0.4-0.6,0.7-0.8c0.3-0.2,0.6-0.3,1-0.3c0.6,0,1,0.2,1.4,0.6c0.3,0.4,0.5,0.9,0.5,1.6v0.1c0,0.4-0.1,0.8-0.2,1.1
	c-0.2,0.3-0.4,0.6-0.7,0.8c-0.3,0.2-0.6,0.3-1,0.3c-0.6,0-1-0.2-1.4-0.6C219.3,182.3,219.1,181.8,219.1,181L219.1,181z M219.5,181.2
	c0,0.5,0.1,0.9,0.4,1.2s0.6,0.5,1,0.5c0.4,0,0.8-0.2,1-0.5s0.4-0.8,0.4-1.3V181c0-0.3-0.1-0.6-0.2-0.9c-0.1-0.3-0.3-0.5-0.5-0.6
	c-0.2-0.1-0.5-0.2-0.7-0.2c-0.4,0-0.8,0.2-1,0.5C219.7,180.1,219.5,180.5,219.5,181.2L219.5,181.2z M223.6,181
	c0-0.4,0.1-0.8,0.2-1.1c0.2-0.3,0.4-0.6,0.7-0.8c0.3-0.2,0.6-0.3,1-0.3c0.6,0,1,0.2,1.4,0.6c0.3,0.4,0.5,0.9,0.5,1.6v0.1
	c0,0.4-0.1,0.8-0.2,1.1c-0.2,0.3-0.4,0.6-0.7,0.8c-0.3,0.2-0.6,0.3-1,0.3c-0.6,0-1-0.2-1.4-0.6C223.7,182.3,223.6,181.8,223.6,181
	L223.6,181z M224,181.2c0,0.5,0.1,0.9,0.4,1.2s0.6,0.5,1,0.5c0.4,0,0.8-0.2,1-0.5s0.4-0.8,0.4-1.3V181c0-0.3-0.1-0.6-0.2-0.9
	c-0.1-0.3-0.3-0.5-0.5-0.6c-0.2-0.1-0.5-0.2-0.7-0.2c-0.4,0-0.8,0.2-1,0.5C224.2,180.1,224,180.5,224,181.2L224,181.2z M228.1,181.1
	c0-0.7,0.1-1.2,0.4-1.6s0.7-0.6,1.2-0.6c0.6,0,1,0.2,1.3,0.7l0-0.6h0.4v4.1c0,0.5-0.2,1-0.5,1.3c-0.3,0.3-0.7,0.5-1.2,0.5
	c-0.3,0-0.6-0.1-0.8-0.2c-0.3-0.1-0.5-0.3-0.6-0.5l0.3-0.3c0.3,0.4,0.7,0.6,1.2,0.6c0.4,0,0.7-0.1,0.9-0.3s0.3-0.6,0.3-1v-0.5
	c-0.3,0.4-0.7,0.6-1.3,0.6c-0.5,0-0.9-0.2-1.2-0.6S228.1,181.8,228.1,181.1L228.1,181.1z M228.6,181.1c0,0.5,0.1,1,0.3,1.3
	c0.2,0.3,0.5,0.5,0.9,0.5c0.6,0,1-0.3,1.2-0.8v-2c-0.1-0.3-0.3-0.5-0.5-0.6c-0.2-0.1-0.5-0.2-0.7-0.2c-0.4,0-0.7,0.2-0.9,0.5
	S228.6,180.5,228.6,181.1z M233.3,183.2h-0.5v-6h0.5V183.2z M237.7,182.5c-0.3,0.5-0.8,0.7-1.5,0.7c-0.4,0-0.7-0.1-1-0.3
	c-0.3-0.2-0.5-0.4-0.7-0.7c-0.2-0.3-0.2-0.7-0.2-1.1V181c0-0.4,0.1-0.8,0.2-1.1c0.2-0.3,0.4-0.6,0.7-0.8c0.3-0.2,0.6-0.3,0.9-0.3
	c0.5,0,0.9,0.2,1.2,0.5c0.3,0.4,0.5,0.8,0.5,1.4v0.3h-3v0.1c0,0.5,0.1,0.9,0.4,1.2c0.3,0.3,0.6,0.5,1,0.5c0.2,0,0.5,0,0.7-0.1
	c0.2-0.1,0.4-0.2,0.5-0.4L237.7,182.5L237.7,182.5z M236.1,179.3c-0.4,0-0.6,0.1-0.9,0.4c-0.2,0.3-0.4,0.6-0.4,1h2.5v-0.1
	c0-0.4-0.1-0.7-0.3-1C236.7,179.4,236.4,179.3,236.1,179.3z M239.1,177.6c0,0.5-0.2,1-0.5,1.3l-0.3-0.2c0.2-0.3,0.4-0.6,0.4-1v-0.5
	h0.5V177.6L239.1,177.6z M240,177.6c0,0.5-0.2,1-0.5,1.3l-0.3-0.2c0.2-0.3,0.4-0.6,0.4-1v-0.5h0.5V177.6L240,177.6z"/>
<text transform="matrix(1 0 0 1 90.8653 192.8057)"><tspan x="0" y="0" class="st2 st3 st4">peu</tspan><tspan x="13" y="0" class="st2 st3 st4">v</tspan><tspan x="16.8" y="0" class="st2 st3 st4">ent à juste tit</tspan><tspan x="61.9" y="0" class="st2 st3 st4">r</tspan><tspan x="64.5" y="0" class="st2 st3 st4">e êt</tspan><tspan x="77.3" y="0" class="st2 st3 st4">r</tspan><tspan x="79.9" y="0" class="st2 st3 st4">e mises en doute.</tspan></text>
<text transform="matrix(1 0 0 1 90.8653 212.0059)"><tspan x="0" y="0" class="st2 st3 st4">P</tspan><tspan x="4.9" y="0" class="st2 st3 st4">ou</tspan><tspan x="13.8" y="0" class="st2 st3 st4">r</tspan><tspan x="16.6" y="0" class="st2 st3 st4">tant, un nomb</tspan><tspan x="65.1" y="0" class="st2 st3 st4">r</tspan><tspan x="67.7" y="0" class="st2 st3 st4">e considé</tspan><tspan x="101.2" y="0" class="st2 st3 st4">r</tspan><tspan x="103.7" y="0" class="st2 st3 st4">able de </tspan></text>
<text transform="matrix(1 0 0 1 90.8653 221.6065)" class="st2 st3 st4">personnes utilisent Internet pour obtenir </text>
<text transform="matrix(1 0 0 1 90.8653 231.2061)" class="st2 st3 st4">des conseils médicaux. Une enquête sur </text>
<text transform="matrix(1 0 0 1 90.8653 240.8057)"><tspan x="0" y="0" class="st2 st3 st4">la mutualité ch</tspan><tspan x="51.5" y="0" class="st2 st3 st4">r</tspan><tspan x="54.1" y="0" class="st2 st3 st4">étienne a mont</tspan><tspan x="106.4" y="0" class="st2 st3 st4">r</tspan><tspan x="109" y="0" class="st2 st3 st4">é que 91% </tspan></text>
<text transform="matrix(1 0 0 1 90.8653 250.4063)"><tspan x="0" y="0" class="st2 st3 st4">des Flamands consultent </tspan><tspan x="90.2" y="0" class="st2 st3 st4">r</tspan><tspan x="92.8" y="0" class="st2 st3 st4">éguliè</tspan><tspan x="113.5" y="0" class="st2 st3 st4">r</tspan><tspan x="116.1" y="0" class="st2 st3 st4">ement le </tspan></text>
<text transform="matrix(1 0 0 1 90.8653 260.0059)" class="st2 st3 st4">médecin Google.</text>
<text transform="matrix(1 0 0 1 90.8653 279.2061)"><tspan x="0" y="0" class="st2 st3 st4">Internet off</tspan><tspan x="38.7" y="0" class="st2 st3 st4">r</tspan><tspan x="41.4" y="0" class="st2 st3 st4">e donc de nomb</tspan><tspan x="97.8" y="0" class="st2 st3 st4">r</tspan><tspan x="100.4" y="0" class="st2 st3 st4">eux </tspan><tspan x="114.7" y="0" class="st2 st3 st4">a</tspan><tspan x="119" y="0" class="st2 st3 st4">v</tspan><tspan x="122.8" y="0" class="st2 st3 st4">antages, </tspan></text>
<text transform="matrix(1 0 0 1 90.8653 288.8057)"><tspan x="0" y="0" class="st2 st3 st4">mais aussi des incon</tspan><tspan x="73.4" y="0" class="st2 st3 st4">v</tspan><tspan x="77.3" y="0" class="st2 st3 st4">énients. Lorsque </tspan></text>
<text transform="matrix(1 0 0 1 90.8653 298.4063)"><tspan x="0" y="0" class="st2 st3 st4">nous sommes malades, nous </tspan><tspan x="104.9" y="0" class="st2 st3 st4">r</tspan><tspan x="107.6" y="0" class="st2 st3 st4">eche</tspan><tspan x="124.4" y="0" class="st2 st3 st4">r</tspan><tspan x="127" y="0" class="st2 st3 st4">chons </tspan></text>
<text transform="matrix(1 0 0 1 90.8653 308.0059)"><tspan x="0" y="0" class="st2 st3 st4">nos symp</tspan><tspan x="34.2" y="0" class="st2 st3 st4">t</tspan><tspan x="36.8" y="0" class="st2 st3 st4">ômes sur Internet beaucoup </tspan></text>
<text transform="matrix(1 0 0 1 90.8653 317.6065)"><tspan x="0" y="0" class="st2 st3 st4">t</tspan><tspan x="2.6" y="0" class="st2 st3 st4">r</tspan><tspan x="5.2" y="0" class="st2 st3 st4">op </tspan><tspan x="16" y="0" class="st2 st3 st4">r</tspan><tspan x="18.6" y="0" class="st2 st3 st4">apidement et nous pou</tspan><tspan x="99" y="0" class="st2 st3 st4">v</tspan><tspan x="102.8" y="0" class="st2 st3 st4">ons t</tspan><tspan x="120.3" y="0" class="st2 st3 st4">r</tspan><tspan x="122.9" y="0" class="st2 st3 st4">ou</tspan><tspan x="131.8" y="0" class="st2 st3 st4">v</tspan><tspan x="135.6" y="0" class="st2 st3 st4">er </tspan></text>
<text transform="matrix(1 0 0 1 90.8653 327.2061)"><tspan x="0" y="0" class="st2 st3 st4">plusieurs </tspan><tspan x="33.7" y="0" class="st2 st3 st4">r</tspan><tspan x="36.2" y="0" class="st2 st3 st4">aisons. De cette façon, nous </tspan></text>
<text transform="matrix(1 0 0 1 90.8653 336.8057)"><tspan x="0" y="0" class="st2 st3 st4">ess</tspan><tspan x="12.2" y="0" class="st2 st3 st4">ay</tspan><tspan x="20.2" y="0" class="st2 st3 st4">ons de t</tspan><tspan x="48.2" y="0" class="st2 st3 st4">r</tspan><tspan x="50.8" y="0" class="st2 st3 st4">ou</tspan><tspan x="59.7" y="0" class="st2 st3 st4">v</tspan><tspan x="63.5" y="0" class="st2 st3 st4">er des </tspan><tspan x="86.8" y="0" class="st2 st3 st4">r</tspan><tspan x="89.4" y="0" class="st2 st3 st4">éponses et des </tspan></text>
<text transform="matrix(1 0 0 1 90.8653 346.4063)"><tspan x="0" y="0" class="st2 st3 st4">r</tspan><tspan x="2.6" y="0" class="st2 st3 st4">emèdes à nos maladies et à nos maux. </tspan></text>
<text transform="matrix(1 0 0 1 90.8653 356.0059)"><tspan x="0" y="0" class="st2 st3 st4">Nous </tspan><tspan x="20.6" y="0" class="st2 st3 st4">n</tspan><tspan x="24.6" y="0" class="st2 st3 st4">’</tspan><tspan x="25.9" y="0" class="st2 st3 st4">allons pas immédiatement chez le </tspan></text>
<text transform="matrix(1 0 0 1 90.8653 365.6065)"><tspan x="0" y="0" class="st2 st3 st4">médecin </tspan><tspan x="32.1" y="0" class="st2 st3 st4">a</tspan><tspan x="36.3" y="0" class="st2 st3 st4">v</tspan><tspan x="40.1" y="0" class="st2 st3 st4">ec nos questions.</tspan></text>
<text transform="matrix(1 0 0 1 90.8653 384.8067)" class="st2 st3 st4">Lorsque des personnes consultent des </text>
<text transform="matrix(1 0 0 1 90.8653 394.4063)"><tspan x="0" y="0" class="st2 st3 st4">plaintes</tspan><tspan x="27.5" y="0" class="st2 st3 st4"> </tspan><tspan x="29.3" y="0" class="st2 st3 st4">sur</tspan><tspan x="40.5" y="0" class="st2 st3 st4"> </tspan><tspan x="42.4" y="0" class="st2 st3 st4">Intern</tspan><tspan x="62.7" y="0" class="st2 st3 st4">e</tspan><tspan x="66.8" y="0" class="st2 st3 st4">t,</tspan><tspan x="70.9" y="0" class="st2 st3 st4"> v</tspan><tspan x="76.6" y="0" class="st2 st3 st4">ous</tspan><tspan x="89.5" y="0" class="st2 st3 st4"> </tspan><tspan x="91.4" y="0" class="st2 st3 st4">passez</tspan><tspan x="116.3" y="0" class="st2 st3 st4"> </tspan><tspan x="118.1" y="0" class="st2 st3 st4">r</tspan><tspan x="120.7" y="0" class="st2 st3 st4">apidement </tspan></text>
<text transform="matrix(1 0 0 1 90.8653 404.0059)" class="st2 st3 st4">d’un mal de tête normal à une tumeur au </text>
<text transform="matrix(1 0 0 1 90.8653 413.6065)"><tspan x="0" y="0" class="st2 st3 st4">ce</tspan><tspan x="8.3" y="0" class="st2 st3 st4">r</tspan><tspan x="11" y="0" class="st2 st3 st4">v</tspan><tspan x="14.8" y="0" class="st2 st3 st4">eau. Cependant, le risque que </tspan><tspan x="119.2" y="0" class="st2 st3 st4">v</tspan><tspan x="123" y="0" class="st2 st3 st4">ot</tspan><tspan x="130.1" y="0" class="st2 st3 st4">r</tspan><tspan x="132.7" y="0" class="st2 st3 st4">e mal </tspan></text>
<text transform="matrix(1 0 0 1 90.8653 423.2061)" class="st2 st3 st4">de tête soit causé par cela est faible.</text>
<text transform="matrix(1 0 0 1 90.8653 442.4063)" class="st2 st3 st4">Dans une étude, seulement 34% des outils </text>
<text transform="matrix(1 0 0 1 90.8653 452.0059)"><tspan x="0" y="0" class="st2 st3 st4">en ligne étaient cor</tspan><tspan x="66.1" y="0" class="st2 st3 st4">r</tspan><tspan x="68.7" y="0" class="st2 st3 st4">ects, tandis que 72% des </tspan></text>
<text transform="matrix(1 0 0 1 90.8653 461.6065)"><tspan x="0" y="0" class="st2 st3 st4">médecins inter</tspan><tspan x="51.7" y="0" class="st2 st3 st4">r</tspan><tspan x="54.3" y="0" class="st2 st3 st4">ogés étaient cor</tspan><tspan x="110.5" y="0" class="st2 st3 st4">r</tspan><tspan x="113.1" y="0" class="st2 st3 st4">ects.</tspan></text>
<text transform="matrix(1 0 0 1 90.8653 480.8067)"><tspan x="0" y="0" class="st2 st3 st4">Ar</tspan><tspan x="7.7" y="0" class="st2 st3 st4">r</tspan><tspan x="10.3" y="0" class="st2 st3 st4">êtez de googler </tspan><tspan x="65.9" y="0" class="st2 st3 st4">v</tspan><tspan x="69.7" y="0" class="st2 st3 st4">os symp</tspan><tspan x="99.5" y="0" class="st2 st3 st4">t</tspan><tspan x="102" y="0" class="st2 st3 st4">ômes et </tspan></text>
<text transform="matrix(1 0 0 1 90.8653 490.4063)"><tspan x="0" y="0" class="st2 st3 st4">acceptez le fait que </tspan><tspan x="69.7" y="0" class="st2 st3 st4">v</tspan><tspan x="73.5" y="0" class="st2 st3 st4">ous êtes en t</tspan><tspan x="118.2" y="0" class="st2 st3 st4">r</tspan><tspan x="120.8" y="0" class="st2 st3 st4">ain de </tspan></text>
<text transform="matrix(1 0 0 1 90.8653 500.0059)"><tspan x="0" y="0" class="st2 st3 st4">mouri</tspan><tspan x="20.4" y="0" class="st2 st3 st4">r</tspan><tspan x="22.7" y="0" class="st2 st3 st4">.</tspan></text>
</svg>
