<?xml version="1.0" encoding="utf-8"?>
<!-- Generator: Adobe Illustrator 23.0.1, SVG Export Plug-In . SVG Version: 6.00 Build 0)  -->
<svg version="1.1" id="Laag_1" xmlns="http://www.w3.org/2000/svg" xmlns:xlink="http://www.w3.org/1999/xlink" x="0px" y="0px"
	 viewBox="0 0 257.5 528.3" style="enable-background:new 0 0 257.5 528.3;" xml:space="preserve">
<style type="text/css">
	.st0{fill:none;stroke:#517ABD;stroke-width:0.335;}
	.st1{fill:none;stroke:#31A852;}
	.st2{fill:#3FA535;}
	.st3{font-family:'Roboto-Light';}
	.st4{font-size:8px;}
	.st5{font-family:'Roboto-Bold';}
	.st6{fill:#31A852;}
	.st7{font-size:10px;}
	.st8{clip-path:url(#SVGID_2_);}
	.st9{fill:#517ABD;}
	.st10{font-family:'Roboto-Regular';}
	.st11{font-size:20px;}
	.st12{letter-spacing:-1;}
	.st13{fill:#E84435;}
	.st14{fill:#FCBC05;}
</style>
<rect x="1.4" y="0.9" class="st0" width="255.3" height="525.8"/>
<rect x="1.2" y="1.1" class="st1" width="255.3" height="525.8"/>
<line class="st1" x1="1.1" y1="36.1" x2="256.7" y2="36.1"/>
<line class="st1" x1="1.1" y1="90.6" x2="256.7" y2="90.6"/>
<line class="st1" x1="1.1" y1="505.1" x2="256.7" y2="505.1"/>
<line class="st1" x1="81.6" y1="90.9" x2="81.6" y2="505.1"/>
<line class="st1" x1="129.2" y1="36.1" x2="129.2" y2="90.6"/>
<text transform="matrix(1 0 0 1 135.084 47.6255)"><tspan x="0" y="0" class="st2 st3 st4">Name und </tspan><tspan x="38.3" y="0" class="st2 st3 st4">V</tspan><tspan x="43.1" y="0" class="st2 st3 st4">orname des </tspan></text>
<text transform="matrix(1 0 0 1 135.084 57.2256)"><tspan x="0" y="0" class="st2 st3 st4">V</tspan><tspan x="4.8" y="0" class="st2 st3 st4">ersch</tspan><tspan x="24.2" y="0" class="st2 st3 st4">r</tspan><tspan x="26.8" y="0" class="st2 st3 st4">eibers:</tspan></text>
<text transform="matrix(1 0 0 1 135.2281 76.4258)"><tspan x="0" y="0" class="st2 st5 st4">A</tspan><tspan x="5.7" y="0" class="st2 st5 st4">R</tspan><tspan x="10.8" y="0" class="st2 st5 st4">T</tspan><tspan x="16.1" y="0" class="st2 st5 st4">Z </tspan><tspan x="23.2" y="0" class="st2 st5 st4">GO</tspan><tspan x="34.7" y="0" class="st2 st5 st4">O</tspan><tspan x="40.5" y="0" class="st2 st5 st4">G</tspan><tspan x="46.2" y="0" class="st2 st5 st4">L</tspan><tspan x="50.8" y="0" class="st2 st5 st4">E</tspan></text>
<text transform="matrix(1 0 0 1 6.7881 102.4819)"><tspan x="0" y="0" class="st6 st3 st4">A</tspan><tspan x="5" y="0" class="st6 st3 st4">uf der </tspan><tspan x="27.2" y="0" class="st6 st3 st4">V</tspan><tspan x="31.9" y="0" class="st6 st3 st4">erpack</tspan></text>
<text transform="matrix(1 0 0 1 62.2901 102.4819)" class="st6 st3 st4">-</text>
<text transform="matrix(1 0 0 1 6.7881 112.082)" class="st6 st3 st4">ungsvignette </text>
<text transform="matrix(1 0 0 1 6.7881 121.6816)"><tspan x="0" y="0" class="st6 st3 st4">r</tspan><tspan x="2.6" y="0" class="st6 st3 st4">ese</tspan><tspan x="14.9" y="0" class="st6 st3 st4">r</tspan><tspan x="17.7" y="0" class="st6 st3 st4">vie</tspan><tspan x="27.5" y="0" class="st6 st3 st4">r</tspan><tspan x="30.3" y="0" class="st6 st3 st4">t</tspan></text>
<text transform="matrix(1 0 0 1 111.3086 519.5059)" class="st2 st3 st7">REZEPT</text>
<g>
	<defs>
		<rect id="SVGID_1_" x="12.7" y="40.8" width="104.3" height="44.9"/>
	</defs>
	<clipPath id="SVGID_2_">
		<use xlink:href="#SVGID_1_"  style="overflow:visible;"/>
	</clipPath>
	<g class="st8">
		<defs>
			<rect id="SVGID_3_" x="11.7" y="40.8" width="106.5" height="45.9"/>
		</defs>
		<clipPath id="SVGID_4_">
			<use xlink:href="#SVGID_3_"  style="overflow:visible;"/>
		</clipPath>
		<g style="clip-path:url(#SVGID_4_);">
			
				<image style="overflow:visible;" width="471" height="203" xlink:href="A4D53525097449F0.png"  transform="matrix(0.2261 0 0 0.2261 11.7167 40.7565)">
			</image>
		</g>
	</g>
</g>
<text transform="matrix(1 0 0 1 80.4004 23.5224)"><tspan x="0" y="0" class="st9 st10 st11">D</tspan><tspan x="13.1" y="0" class="st9 st10 st11 st12">r</tspan><tspan x="18.7" y="0" class="st9 st10 st11">.  G</tspan></text>
<text transform="matrix(1 0 0 1 127.8804 23.5224)" class="st13 st10 st11">o</text>
<text transform="matrix(1 0 0 1 139.2803 23.5224)" class="st14 st10 st11">o</text>
<text transform="matrix(1 0 0 1 150.6807 23.5224)" class="st9 st10 st11">g</text>
<text transform="matrix(1 0 0 1 161.9004 23.5224)" class="st6 st10 st11">l</text>
<text transform="matrix(1 0 0 1 166.7603 23.5224)" class="st13 st10 st11">e</text>
<text transform="matrix(1 0 0 1 89.7617 105.0874)" class="st6 st5 st4">R /</text>
<text transform="matrix(1 0 0 1 89.7617 124.2871)"><tspan x="0" y="0" class="st6 st3 st4">Etwa 75% der Menschen e</tspan><tspan x="91.9" y="0" class="st6 st3 st4">r</tspan><tspan x="94.7" y="0" class="st6 st3 st4">werben Wissen </tspan></text>
<text transform="matrix(1 0 0 1 89.7617 133.8877)"><tspan x="0" y="0" class="st6 st3 st4">über die Gesundheit du</tspan><tspan x="80.5" y="0" class="st6 st3 st4">r</tspan><tspan x="83.1" y="0" class="st6 st3 st4">ch die Medien. Es </tspan></text>
<text transform="matrix(1 0 0 1 89.7617 143.4873)" class="st6 st3 st4">gibt nicht nur sehr nützliche Informationen </text>
<text transform="matrix(1 0 0 1 89.7617 153.0869)" class="st6 st3 st4">über medizinische und wissenschaftliche </text>
<text transform="matrix(1 0 0 1 89.7617 162.6875)"><tspan x="0" y="0" class="st6 st3 st4">F</tspan><tspan x="4.4" y="0" class="st6 st3 st4">orschung, sondern auch weniger kor</tspan><tspan x="131.2" y="0" class="st6 st3 st4">r</tspan><tspan x="133.8" y="0" class="st6 st3 st4">ekte </tspan></text>
<text transform="matrix(1 0 0 1 89.7617 172.2871)"><tspan x="0" y="0" class="st6 st3 st4">und sogar </tspan><tspan x="37.1" y="0" class="st6 st3 st4">f</tspan><tspan x="39.6" y="0" class="st6 st3 st4">ehlerhafte Ratschläge. Die </tspan></text>
<text transform="matrix(1 0 0 1 89.7617 181.8877)"><tspan x="0" y="0" class="st6 st3 st4">Richtig</tspan><tspan x="24.2" y="0" class="st6 st3 st4">k</tspan><tspan x="28" y="0" class="st6 st3 st4">eit und </tspan><tspan x="53.7" y="0" class="st6 st3 st4">Z</tspan><tspan x="58.4" y="0" class="st6 st3 st4">u</tspan><tspan x="62.8" y="0" class="st6 st3 st4">v</tspan><tspan x="66.6" y="0" class="st6 st3 st4">erlässig</tspan><tspan x="93.8" y="0" class="st6 st3 st4">k</tspan><tspan x="97.7" y="0" class="st6 st3 st4">eit </tspan><tspan x="108.1" y="0" class="st6 st3 st4">v</tspan><tspan x="111.9" y="0" class="st6 st3 st4">on </tspan><tspan x="122.7" y="0" class="st6 st3 st4">“</tspan><tspan x="124.9" y="0" class="st6 st3 st4">google </tspan></text>
<text transform="matrix(1 0 0 1 89.7617 191.4873)"><tspan x="0" y="0" class="st6 st3 st4">googl</tspan><tspan x="19.6" y="0" class="st6 st3 st4">e</tspan><tspan x="23.7" y="0" class="st6 st3 st4">” kann zu Recht in </tspan><tspan x="87.6" y="0" class="st6 st3 st4">F</tspan><tspan x="92" y="0" class="st6 st3 st4">r</tspan><tspan x="94.6" y="0" class="st6 st3 st4">age gestellt </tspan></text>
<text transform="matrix(1 0 0 1 89.7617 201.0869)"><tspan x="0" y="0" class="st6 st3 st4">we</tspan><tspan x="10.2" y="0" class="st6 st3 st4">r</tspan><tspan x="12.8" y="0" class="st6 st3 st4">den.</tspan></text>
<text transform="matrix(1 0 0 1 89.7617 220.2871)"><tspan x="0" y="0" class="st6 st3 st4">Dennoch gibt es eine g</tspan><tspan x="79.2" y="0" class="st6 st3 st4">r</tspan><tspan x="81.9" y="0" class="st6 st3 st4">oße Anzahl </tspan><tspan x="122.8" y="0" class="st6 st3 st4">v</tspan><tspan x="126.6" y="0" class="st6 st3 st4">on </tspan></text>
<text transform="matrix(1 0 0 1 89.7617 229.8877)"><tspan x="0" y="0" class="st6 st3 st4">Menschen, die das Internet nut</tspan><tspan x="107.4" y="0" class="st6 st3 st4">z</tspan><tspan x="111.2" y="0" class="st6 st3 st4">en, um </tspan></text>
<text transform="matrix(1 0 0 1 89.7617 239.4873)"><tspan x="0" y="0" class="st6 st3 st4">medizinischen Rat einzuholen. Eine Umf</tspan><tspan x="139.7" y="0" class="st6 st3 st4">r</tspan><tspan x="142.3" y="0" class="st6 st3 st4">age </tspan></text>
<text transform="matrix(1 0 0 1 89.7617 249.0869)"><tspan x="0" y="0" class="st6 st3 st4">der Christian Mutuality e</tspan><tspan x="84.9" y="0" class="st6 st3 st4">r</tspan><tspan x="87.6" y="0" class="st6 st3 st4">gab, dass 91% </tspan></text>
<text transform="matrix(1 0 0 1 89.7617 258.6875)"><tspan x="0" y="0" class="st6 st3 st4">der Flamen </tspan><tspan x="41.4" y="0" class="st6 st3 st4">r</tspan><tspan x="44" y="0" class="st6 st3 st4">egelmäßig einen Google-Arzt </tspan></text>
<text transform="matrix(1 0 0 1 89.7617 268.2871)" class="st6 st3 st4">aufsuchen.</text>
<text transform="matrix(1 0 0 1 89.7617 287.4873)"><tspan x="0" y="0" class="st6 st3 st4">Das Internet bietet daher viele </tspan><tspan x="105.6" y="0" class="st6 st3 st4">V</tspan><tspan x="110.4" y="0" class="st6 st3 st4">o</tspan><tspan x="114.8" y="0" class="st6 st3 st4">r</tspan><tspan x="117.7" y="0" class="st6 st3 st4">teile, </tspan></text>
<text transform="matrix(1 0 0 1 89.7617 297.0879)"><tspan x="0" y="0" class="st6 st3 st4">aber auch Nachteile. </tspan><tspan x="73.4" y="0" class="st6 st3 st4">W</tspan><tspan x="80.4" y="0" class="st6 st3 st4">enn wir k</tspan><tspan x="111.7" y="0" class="st6 st3 st4">r</tspan><tspan x="114.2" y="0" class="st6 st3 st4">ank sind, </tspan></text>
<text transform="matrix(1 0 0 1 89.7617 306.6875)"><tspan x="0" y="0" class="st6 st3 st4">du</tspan><tspan x="8.8" y="0" class="st6 st3 st4">r</tspan><tspan x="11.5" y="0" class="st6 st3 st4">chsuchen wir unse</tspan><tspan x="76.8" y="0" class="st6 st3 st4">r</tspan><tspan x="79.5" y="0" class="st6 st3 st4">e Symp</tspan><tspan x="105.6" y="0" class="st6 st3 st4">t</tspan><tspan x="108.1" y="0" class="st6 st3 st4">ome viel </tspan></text>
<text transform="matrix(1 0 0 1 89.7617 316.2871)" class="st6 st3 st4">zu schnell im Internet und wir können </text>
<path class="st6" d="M91.7,325.2l1.3-3.6h0.5l-1.6,4.2h-0.4l-1.6-4.2h0.5L91.7,325.2z M97.3,325.2c-0.3,0.5-0.8,0.7-1.5,0.7
	c-0.4,0-0.7-0.1-1-0.3c-0.3-0.2-0.5-0.4-0.7-0.7c-0.2-0.3-0.2-0.7-0.2-1.1v-0.2c0-0.4,0.1-0.8,0.2-1.1c0.2-0.3,0.4-0.6,0.7-0.8
	c0.3-0.2,0.6-0.3,0.9-0.3c0.5,0,0.9,0.2,1.2,0.5c0.3,0.4,0.5,0.8,0.5,1.4v0.3h-3v0.1c0,0.5,0.1,0.9,0.4,1.2c0.3,0.3,0.6,0.5,1,0.5
	c0.2,0,0.5,0,0.7-0.1c0.2-0.1,0.4-0.2,0.5-0.4L97.3,325.2L97.3,325.2z M95.7,322c-0.4,0-0.6,0.1-0.9,0.4c-0.2,0.3-0.4,0.6-0.4,1h2.5
	v-0.1c0-0.4-0.1-0.7-0.3-1C96.4,322.1,96.1,322,95.7,322z M100.3,322.1c-0.1,0-0.2,0-0.3,0c-0.3,0-0.5,0.1-0.7,0.2
	c-0.2,0.2-0.3,0.4-0.4,0.7v2.9h-0.5v-4.2h0.5l0,0.7c0.2-0.5,0.6-0.8,1.2-0.8c0.1,0,0.2,0,0.3,0.1L100.3,322.1z M103.5,324.8
	c0-0.2-0.1-0.4-0.3-0.6c-0.2-0.1-0.5-0.3-0.8-0.3c-0.4-0.1-0.7-0.2-0.9-0.3c-0.2-0.1-0.4-0.2-0.5-0.4c-0.1-0.1-0.2-0.3-0.2-0.5
	c0-0.3,0.1-0.6,0.4-0.8c0.3-0.2,0.6-0.3,1.1-0.3c0.5,0,0.8,0.1,1.1,0.3c0.3,0.2,0.4,0.5,0.4,0.9h-0.5c0-0.2-0.1-0.5-0.3-0.6
	s-0.5-0.2-0.8-0.2c-0.3,0-0.6,0.1-0.7,0.2c-0.2,0.1-0.3,0.3-0.3,0.5c0,0.2,0.1,0.4,0.2,0.5c0.2,0.1,0.4,0.2,0.8,0.3
	c0.4,0.1,0.7,0.2,0.9,0.3c0.2,0.1,0.4,0.2,0.5,0.4c0.1,0.2,0.1,0.3,0.1,0.6c0,0.4-0.1,0.6-0.4,0.9c-0.3,0.2-0.7,0.3-1.1,0.3
	c-0.5,0-0.9-0.1-1.2-0.4c-0.3-0.2-0.5-0.5-0.5-0.9h0.5c0,0.3,0.1,0.5,0.3,0.6c0.2,0.2,0.5,0.2,0.8,0.2c0.3,0,0.6-0.1,0.8-0.2
	C103.4,325.2,103.5,325,103.5,324.8z M106.6,325.6c0.3,0,0.6-0.1,0.8-0.3c0.2-0.2,0.3-0.4,0.4-0.7h0.4c0,0.3-0.1,0.5-0.2,0.7
	c-0.1,0.2-0.3,0.4-0.6,0.5s-0.5,0.2-0.8,0.2c-0.6,0-1-0.2-1.3-0.6c-0.3-0.4-0.5-0.9-0.5-1.6v-0.1c0-0.4,0.1-0.8,0.2-1.1
	c0.1-0.3,0.4-0.6,0.6-0.7c0.3-0.2,0.6-0.3,1-0.3c0.5,0,0.8,0.1,1.1,0.4c0.3,0.3,0.5,0.6,0.5,1.1h-0.4c0-0.3-0.1-0.6-0.4-0.8
	c-0.2-0.2-0.5-0.3-0.8-0.3c-0.4,0-0.7,0.2-1,0.5c-0.2,0.3-0.3,0.7-0.3,1.3v0.1c0,0.5,0.1,1,0.3,1.3
	C105.8,325.4,106.2,325.6,106.6,325.6z M109.6,322.4c0.2-0.3,0.4-0.4,0.6-0.6c0.2-0.1,0.5-0.2,0.8-0.2c0.5,0,0.8,0.1,1,0.4
	c0.2,0.3,0.3,0.6,0.3,1.1v2.8h-0.5v-2.8c0-0.4-0.1-0.7-0.2-0.8c-0.2-0.2-0.4-0.3-0.8-0.3c-0.3,0-0.5,0.1-0.8,0.3
	c-0.2,0.2-0.4,0.4-0.5,0.7v2.9h-0.5v-6h0.5V322.4z M113.5,320.4c0-0.1,0-0.2,0.1-0.2c0.1-0.1,0.1-0.1,0.2-0.1c0.1,0,0.2,0,0.2,0.1
	s0.1,0.1,0.1,0.2s0,0.2-0.1,0.2c-0.1,0.1-0.1,0.1-0.2,0.1c-0.1,0-0.2,0-0.2-0.1C113.6,320.6,113.5,320.5,113.5,320.4z M114.1,325.9
	h-0.5v-4.2h0.5V325.9z M118.5,325.2c-0.3,0.5-0.8,0.7-1.5,0.7c-0.4,0-0.7-0.1-1-0.3c-0.3-0.2-0.5-0.4-0.7-0.7
	c-0.2-0.3-0.2-0.7-0.2-1.1v-0.2c0-0.4,0.1-0.8,0.2-1.1c0.2-0.3,0.4-0.6,0.7-0.8c0.3-0.2,0.6-0.3,0.9-0.3c0.5,0,0.9,0.2,1.2,0.5
	c0.3,0.4,0.5,0.8,0.5,1.4v0.3h-3v0.1c0,0.5,0.1,0.9,0.4,1.2c0.3,0.3,0.6,0.5,1,0.5c0.2,0,0.5,0,0.7-0.1c0.2-0.1,0.4-0.2,0.5-0.4
	L118.5,325.2L118.5,325.2z M116.9,322c-0.4,0-0.6,0.1-0.9,0.4c-0.2,0.3-0.4,0.6-0.4,1h2.5v-0.1c0-0.4-0.1-0.7-0.3-1
	C117.5,322.1,117.2,322,116.9,322z M119.3,323.7c0-0.7,0.1-1.2,0.4-1.6c0.3-0.4,0.7-0.6,1.2-0.6c0.6,0,1,0.2,1.3,0.7v-2.4h0.5v6
	h-0.4l0-0.6c-0.3,0.4-0.7,0.6-1.3,0.6c-0.5,0-0.9-0.2-1.2-0.6C119.4,325,119.3,324.5,119.3,323.7L119.3,323.7z M119.8,323.8
	c0,0.5,0.1,1,0.3,1.3c0.2,0.3,0.5,0.5,0.9,0.5c0.6,0,1-0.3,1.2-0.8v-2c-0.2-0.5-0.6-0.8-1.2-0.8c-0.4,0-0.7,0.2-0.9,0.5
	S119.8,323.2,119.8,323.8z M127.1,325.2c-0.3,0.5-0.8,0.7-1.5,0.7c-0.4,0-0.7-0.1-1-0.3c-0.3-0.2-0.5-0.4-0.7-0.7
	c-0.2-0.3-0.2-0.7-0.2-1.1v-0.2c0-0.4,0.1-0.8,0.2-1.1c0.2-0.3,0.4-0.6,0.7-0.8c0.3-0.2,0.6-0.3,0.9-0.3c0.5,0,0.9,0.2,1.2,0.5
	c0.3,0.4,0.5,0.8,0.5,1.4v0.3h-3v0.1c0,0.5,0.1,0.9,0.4,1.2c0.3,0.3,0.6,0.5,1,0.5c0.2,0,0.5,0,0.7-0.1c0.2-0.1,0.4-0.2,0.5-0.4
	L127.1,325.2L127.1,325.2z M125.5,322c-0.4,0-0.6,0.1-0.9,0.4c-0.2,0.3-0.4,0.6-0.4,1h2.5v-0.1c0-0.4-0.1-0.7-0.3-1
	C126.1,322.1,125.8,322,125.5,322z M128.5,321.7l0,0.7c0.2-0.3,0.4-0.5,0.6-0.6c0.2-0.1,0.5-0.2,0.8-0.2c0.5,0,0.8,0.1,1,0.4
	c0.2,0.3,0.3,0.6,0.3,1.1v2.8h-0.5v-2.8c0-0.4-0.1-0.7-0.2-0.8c-0.2-0.2-0.4-0.3-0.8-0.3c-0.3,0-0.5,0.1-0.8,0.3
	c-0.2,0.2-0.4,0.4-0.5,0.7v2.9h-0.5v-4.2H128.5z M135.6,325.2c-0.3,0.5-0.8,0.7-1.5,0.7c-0.4,0-0.7-0.1-1-0.3
	c-0.3-0.2-0.5-0.4-0.7-0.7c-0.2-0.3-0.2-0.7-0.2-1.1v-0.2c0-0.4,0.1-0.8,0.2-1.1c0.2-0.3,0.4-0.6,0.7-0.8c0.3-0.2,0.6-0.3,0.9-0.3
	c0.5,0,0.9,0.2,1.2,0.5c0.3,0.4,0.5,0.8,0.5,1.4v0.3h-3v0.1c0,0.5,0.1,0.9,0.4,1.2c0.3,0.3,0.6,0.5,1,0.5c0.2,0,0.5,0,0.7-0.1
	c0.2-0.1,0.4-0.2,0.5-0.4L135.6,325.2L135.6,325.2z M134,322c-0.4,0-0.6,0.1-0.9,0.4c-0.2,0.3-0.4,0.6-0.4,1h2.5v-0.1
	c0-0.4-0.1-0.7-0.3-1C134.6,322.1,134.4,322,134,322z M142.8,325.2c-0.2,0.2-0.4,0.4-0.8,0.6s-0.8,0.2-1.2,0.2
	c-0.4,0-0.8-0.1-1.2-0.3c-0.3-0.2-0.6-0.5-0.8-0.9c-0.2-0.4-0.3-0.8-0.3-1.3v-0.7c0-0.8,0.2-1.4,0.6-1.9s0.9-0.7,1.6-0.7
	c0.6,0,1.1,0.1,1.4,0.4c0.4,0.3,0.6,0.7,0.6,1.2h-0.5c-0.1-0.4-0.2-0.7-0.5-1c-0.3-0.2-0.6-0.3-1.1-0.3c-0.5,0-1,0.2-1.3,0.6
	c-0.3,0.4-0.5,0.9-0.5,1.6v0.7c0,0.4,0.1,0.8,0.2,1.1c0.1,0.3,0.4,0.6,0.6,0.8c0.3,0.2,0.6,0.3,0.9,0.3c0.4,0,0.8-0.1,1.1-0.2
	c0.2-0.1,0.3-0.2,0.4-0.3v-1.5h-1.5v-0.4h2V325.2z M146,322.1c-0.1,0-0.2,0-0.3,0c-0.3,0-0.5,0.1-0.7,0.2c-0.2,0.2-0.3,0.4-0.4,0.7
	v2.9H144v-4.2h0.5l0,0.7c0.2-0.5,0.6-0.8,1.2-0.8c0.1,0,0.2,0,0.3,0.1L146,322.1z M149.4,325.4c-0.3,0.4-0.7,0.6-1.3,0.6
	c-0.5,0-0.8-0.1-1-0.4s-0.4-0.6-0.4-1.2v-2.8h0.5v2.7c0,0.8,0.3,1.2,1,1.2c0.7,0,1.1-0.3,1.3-0.8v-3.1h0.5v4.2h-0.5L149.4,325.4z
	 M147.2,320.4c0-0.1,0-0.2,0.1-0.2c0.1-0.1,0.1-0.1,0.2-0.1c0.1,0,0.2,0,0.2,0.1c0.1,0.1,0.1,0.1,0.1,0.2c0,0.1,0,0.2-0.1,0.2
	c-0.1,0.1-0.1,0.1-0.2,0.1c-0.1,0-0.2,0-0.2-0.1C147.2,320.6,147.2,320.5,147.2,320.4z M148.9,320.4c0-0.1,0-0.2,0.1-0.2
	c0.1-0.1,0.1-0.1,0.2-0.1c0.1,0,0.2,0,0.2,0.1c0.1,0.1,0.1,0.1,0.1,0.2c0,0.1,0,0.2-0.1,0.2c-0.1,0.1-0.1,0.1-0.2,0.1
	c-0.1,0-0.2,0-0.2-0.1C148.9,320.6,148.9,320.5,148.9,320.4z M151.5,321.7l0,0.7c0.2-0.3,0.4-0.5,0.6-0.6c0.2-0.1,0.5-0.2,0.8-0.2
	c0.5,0,0.8,0.1,1,0.4c0.2,0.3,0.3,0.6,0.3,1.1v2.8h-0.5v-2.8c0-0.4-0.1-0.7-0.2-0.8c-0.2-0.2-0.4-0.3-0.8-0.3
	c-0.3,0-0.5,0.1-0.8,0.3c-0.2,0.2-0.4,0.4-0.5,0.7v2.9h-0.5v-4.2H151.5z M155.3,323.7c0-0.7,0.1-1.2,0.4-1.6
	c0.3-0.4,0.7-0.6,1.2-0.6c0.6,0,1,0.2,1.3,0.7v-2.4h0.5v6h-0.4l0-0.6c-0.3,0.4-0.7,0.6-1.3,0.6c-0.5,0-0.9-0.2-1.2-0.6
	C155.4,325,155.3,324.5,155.3,323.7L155.3,323.7z M155.8,323.8c0,0.5,0.1,1,0.3,1.3c0.2,0.3,0.5,0.5,0.9,0.5c0.6,0,1-0.3,1.2-0.8v-2
	c-0.2-0.5-0.6-0.8-1.2-0.8c-0.4,0-0.7,0.2-0.9,0.5S155.8,323.2,155.8,323.8z M163.1,325.2c-0.3,0.5-0.8,0.7-1.5,0.7
	c-0.4,0-0.7-0.1-1-0.3c-0.3-0.2-0.5-0.4-0.7-0.7c-0.2-0.3-0.2-0.7-0.2-1.1v-0.2c0-0.4,0.1-0.8,0.2-1.1c0.2-0.3,0.4-0.6,0.7-0.8
	c0.3-0.2,0.6-0.3,0.9-0.3c0.5,0,0.9,0.2,1.2,0.5c0.3,0.4,0.5,0.8,0.5,1.4v0.3h-3v0.1c0,0.5,0.1,0.9,0.4,1.2c0.3,0.3,0.6,0.5,1,0.5
	c0.2,0,0.5,0,0.7-0.1c0.2-0.1,0.4-0.2,0.5-0.4L163.1,325.2L163.1,325.2z M161.5,322c-0.4,0-0.6,0.1-0.9,0.4c-0.2,0.3-0.4,0.6-0.4,1
	h2.5v-0.1c0-0.4-0.1-0.7-0.3-1C162.1,322.1,161.8,322,161.5,322z M165.8,323.7c0-0.7,0.1-1.2,0.4-1.6c0.3-0.4,0.7-0.6,1.2-0.6
	c0.6,0,1,0.2,1.3,0.7v-2.4h0.5v6h-0.4l0-0.6c-0.3,0.4-0.7,0.6-1.3,0.6c-0.5,0-0.9-0.2-1.2-0.6C166,325,165.8,324.5,165.8,323.7
	L165.8,323.7z M166.3,323.8c0,0.5,0.1,1,0.3,1.3c0.2,0.3,0.5,0.5,0.9,0.5c0.6,0,1-0.3,1.2-0.8v-2c-0.2-0.5-0.6-0.8-1.2-0.8
	c-0.4,0-0.7,0.2-0.9,0.5S166.3,323.2,166.3,323.8z M173.1,325.9c0-0.1-0.1-0.3-0.1-0.6c-0.2,0.2-0.4,0.4-0.6,0.5s-0.5,0.2-0.8,0.2
	c-0.4,0-0.7-0.1-1-0.3c-0.3-0.2-0.4-0.5-0.4-0.9c0-0.4,0.2-0.7,0.5-1c0.3-0.2,0.8-0.4,1.4-0.4h0.8v-0.5c0-0.3-0.1-0.5-0.3-0.7
	c-0.2-0.2-0.5-0.3-0.8-0.3c-0.3,0-0.6,0.1-0.8,0.2c-0.2,0.2-0.3,0.4-0.3,0.6l-0.5,0c0-0.3,0.2-0.6,0.5-0.9s0.7-0.4,1.2-0.4
	c0.5,0,0.8,0.1,1.1,0.4c0.3,0.2,0.4,0.6,0.4,1v2c0,0.4,0,0.7,0.1,0.9v0H173.1z M171.7,325.6c0.3,0,0.6-0.1,0.8-0.2
	c0.2-0.2,0.4-0.4,0.5-0.6v-0.9h-0.8c-0.5,0-0.8,0.1-1.1,0.3c-0.3,0.2-0.4,0.4-0.4,0.7c0,0.2,0.1,0.4,0.3,0.6
	S171.4,325.6,171.7,325.6z M175.1,325.9V322h-0.7v-0.4h0.7v-0.5c0-0.4,0.1-0.8,0.3-1c0.2-0.2,0.5-0.3,0.9-0.3c0.2,0,0.3,0,0.5,0.1
	l0,0.4c-0.1,0-0.3,0-0.4,0c-0.3,0-0.5,0.1-0.6,0.2c-0.1,0.2-0.2,0.4-0.2,0.7v0.5h1v0.4h-1v3.8H175.1z M180.1,325.4
	c-0.3,0.4-0.7,0.6-1.3,0.6c-0.5,0-0.8-0.1-1-0.4s-0.4-0.6-0.4-1.2v-2.8h0.5v2.7c0,0.8,0.3,1.2,1,1.2c0.7,0,1.1-0.3,1.3-0.8v-3.1h0.5
	v4.2h-0.5L180.1,325.4z M177.9,320.4c0-0.1,0-0.2,0.1-0.2c0.1-0.1,0.1-0.1,0.2-0.1c0.1,0,0.2,0,0.2,0.1c0.1,0.1,0.1,0.1,0.1,0.2
	c0,0.1,0,0.2-0.1,0.2c-0.1,0.1-0.1,0.1-0.2,0.1c-0.1,0-0.2,0-0.2-0.1C177.9,320.6,177.9,320.5,177.9,320.4z M179.6,320.4
	c0-0.1,0-0.2,0.1-0.2c0.1-0.1,0.1-0.1,0.2-0.1c0.1,0,0.2,0,0.2,0.1c0.1,0.1,0.1,0.1,0.1,0.2c0,0.1,0,0.2-0.1,0.2
	c-0.1,0.1-0.1,0.1-0.2,0.1c-0.1,0-0.2,0-0.2-0.1C179.6,320.6,179.6,320.5,179.6,320.4z M183.7,322.1c-0.1,0-0.2,0-0.3,0
	c-0.3,0-0.5,0.1-0.7,0.2c-0.2,0.2-0.3,0.4-0.4,0.7v2.9h-0.5v-4.2h0.5l0,0.7c0.2-0.5,0.6-0.8,1.2-0.8c0.1,0,0.2,0,0.3,0.1
	L183.7,322.1z M186.7,325.9V322H186v-0.4h0.7v-0.4c0-0.5,0.1-0.8,0.4-1c0.2-0.2,0.6-0.4,1-0.4c0.3,0,0.7,0.1,1.1,0.2l-0.1,0.4
	c-0.3-0.1-0.6-0.2-1-0.2c-0.6,0-1,0.3-1,1v0.4h1v0.4h-1v3.8H186.7z M189.4,325.9H189v-4.2h0.5V325.9z M191.2,321.7l0,0.7
	c0.2-0.3,0.4-0.5,0.6-0.6c0.2-0.1,0.5-0.2,0.8-0.2c0.5,0,0.8,0.1,1,0.4c0.2,0.3,0.3,0.6,0.3,1.1v2.8h-0.5v-2.8
	c0-0.4-0.1-0.7-0.2-0.8c-0.2-0.2-0.4-0.3-0.8-0.3c-0.3,0-0.5,0.1-0.8,0.3c-0.2,0.2-0.4,0.4-0.5,0.7v2.9h-0.5v-4.2H191.2z
	 M194.9,323.7c0-0.7,0.1-1.2,0.4-1.6c0.3-0.4,0.7-0.6,1.2-0.6c0.6,0,1,0.2,1.3,0.7v-2.4h0.5v6h-0.4l0-0.6c-0.3,0.4-0.7,0.6-1.3,0.6
	c-0.5,0-0.9-0.2-1.2-0.6C195.1,325,194.9,324.5,194.9,323.7L194.9,323.7z M195.4,323.8c0,0.5,0.1,1,0.3,1.3c0.2,0.3,0.5,0.5,0.9,0.5
	c0.6,0,1-0.3,1.2-0.8v-2c-0.2-0.5-0.6-0.8-1.2-0.8c-0.4,0-0.7,0.2-0.9,0.5S195.4,323.2,195.4,323.8z M202.7,325.2
	c-0.3,0.5-0.8,0.7-1.5,0.7c-0.4,0-0.7-0.1-1-0.3c-0.3-0.2-0.5-0.4-0.7-0.7c-0.2-0.3-0.2-0.7-0.2-1.1v-0.2c0-0.4,0.1-0.8,0.2-1.1
	c0.2-0.3,0.4-0.6,0.7-0.8c0.3-0.2,0.6-0.3,0.9-0.3c0.5,0,0.9,0.2,1.2,0.5c0.3,0.4,0.5,0.8,0.5,1.4v0.3h-3v0.1c0,0.5,0.1,0.9,0.4,1.2
	c0.3,0.3,0.6,0.5,1,0.5c0.2,0,0.5,0,0.7-0.1c0.2-0.1,0.4-0.2,0.5-0.4L202.7,325.2L202.7,325.2z M201.1,322c-0.4,0-0.6,0.1-0.9,0.4
	c-0.2,0.3-0.4,0.6-0.4,1h2.5v-0.1c0-0.4-0.1-0.7-0.3-1C201.7,322.1,201.5,322,201.1,322z M204.1,321.7l0,0.7
	c0.2-0.3,0.4-0.5,0.6-0.6c0.2-0.1,0.5-0.2,0.8-0.2c0.5,0,0.8,0.1,1,0.4c0.2,0.3,0.3,0.6,0.3,1.1v2.8h-0.5v-2.8
	c0-0.4-0.1-0.7-0.2-0.8c-0.2-0.2-0.4-0.3-0.8-0.3c-0.3,0-0.5,0.1-0.8,0.3c-0.2,0.2-0.4,0.4-0.5,0.7v2.9h-0.5v-4.2H204.1z M208,325.6
	c0-0.1,0-0.2,0.1-0.2c0.1-0.1,0.1-0.1,0.2-0.1c0.1,0,0.2,0,0.2,0.1c0.1,0.1,0.1,0.1,0.1,0.2c0,0.1,0,0.2-0.1,0.2
	c-0.1,0.1-0.1,0.1-0.2,0.1c-0.1,0-0.2,0-0.2-0.1S208,325.7,208,325.6z M215.1,324.3h-2.6l-0.6,1.6h-0.5l2.2-5.7h0.5l2.2,5.7h-0.5
	L215.1,324.3z M212.7,323.9h2.3l-1.1-3.1L212.7,323.9z M219.6,325.4c-0.3,0.4-0.7,0.6-1.3,0.6c-0.5,0-0.8-0.1-1-0.4
	s-0.4-0.6-0.4-1.2v-2.8h0.5v2.7c0,0.8,0.3,1.2,1,1.2c0.7,0,1.1-0.3,1.3-0.8v-3.1h0.5v4.2h-0.5L219.6,325.4z M221.6,325.9V322h-0.7
	v-0.4h0.7v-0.5c0-0.4,0.1-0.8,0.3-1c0.2-0.2,0.5-0.3,0.9-0.3c0.2,0,0.3,0,0.5,0.1l0,0.4c-0.1,0-0.3,0-0.4,0c-0.3,0-0.5,0.1-0.6,0.2
	c-0.1,0.2-0.2,0.4-0.2,0.7v0.5h1v0.4h-1v3.8H221.6z M225.7,323.7c0-0.7,0.1-1.2,0.4-1.6c0.3-0.4,0.7-0.6,1.2-0.6
	c0.6,0,1,0.2,1.3,0.7v-2.4h0.5v6h-0.4l0-0.6c-0.3,0.4-0.7,0.6-1.3,0.6c-0.5,0-0.9-0.2-1.2-0.6C225.8,325,225.7,324.5,225.7,323.7
	L225.7,323.7z M226.2,323.8c0,0.5,0.1,1,0.3,1.3c0.2,0.3,0.5,0.5,0.9,0.5c0.6,0,1-0.3,1.2-0.8v-2c-0.2-0.5-0.6-0.8-1.2-0.8
	c-0.4,0-0.7,0.2-0.9,0.5S226.2,323.2,226.2,323.8z M230.3,320.4c0-0.1,0-0.2,0.1-0.2c0.1-0.1,0.1-0.1,0.2-0.1c0.1,0,0.2,0,0.2,0.1
	s0.1,0.1,0.1,0.2s0,0.2-0.1,0.2c-0.1,0.1-0.1,0.1-0.2,0.1c-0.1,0-0.2,0-0.2-0.1C230.3,320.6,230.3,320.5,230.3,320.4z M230.8,325.9
	h-0.5v-4.2h0.5V325.9z M235.2,325.2c-0.3,0.5-0.8,0.7-1.5,0.7c-0.4,0-0.7-0.1-1-0.3c-0.3-0.2-0.5-0.4-0.7-0.7
	c-0.2-0.3-0.2-0.7-0.2-1.1v-0.2c0-0.4,0.1-0.8,0.2-1.1c0.2-0.3,0.4-0.6,0.7-0.8c0.3-0.2,0.6-0.3,0.9-0.3c0.5,0,0.9,0.2,1.2,0.5
	c0.3,0.4,0.5,0.8,0.5,1.4v0.3h-3v0.1c0,0.5,0.1,0.9,0.4,1.2c0.3,0.3,0.6,0.5,1,0.5c0.2,0,0.5,0,0.7-0.1c0.2-0.1,0.4-0.2,0.5-0.4
	L235.2,325.2L235.2,325.2z M233.7,322c-0.4,0-0.6,0.1-0.9,0.4c-0.2,0.3-0.4,0.6-0.4,1h2.5v-0.1c0-0.4-0.1-0.7-0.3-1
	C234.3,322.1,234,322,233.7,322z M238.8,324.8c0-0.2-0.1-0.4-0.3-0.6c-0.2-0.1-0.5-0.3-0.8-0.3c-0.4-0.1-0.7-0.2-0.9-0.3
	c-0.2-0.1-0.4-0.2-0.5-0.4c-0.1-0.1-0.2-0.3-0.2-0.5c0-0.3,0.1-0.6,0.4-0.8c0.3-0.2,0.6-0.3,1.1-0.3c0.5,0,0.8,0.1,1.1,0.3
	c0.3,0.2,0.4,0.5,0.4,0.9h-0.5c0-0.2-0.1-0.5-0.3-0.6s-0.5-0.2-0.8-0.2c-0.3,0-0.6,0.1-0.7,0.2c-0.2,0.1-0.3,0.3-0.3,0.5
	c0,0.2,0.1,0.4,0.2,0.5c0.2,0.1,0.4,0.2,0.8,0.3c0.4,0.1,0.7,0.2,0.9,0.3c0.2,0.1,0.4,0.2,0.5,0.4c0.1,0.2,0.1,0.3,0.1,0.6
	c0,0.4-0.1,0.6-0.4,0.9c-0.3,0.2-0.7,0.3-1.1,0.3c-0.5,0-0.9-0.1-1.2-0.4c-0.3-0.2-0.5-0.5-0.5-0.9h0.5c0,0.3,0.1,0.5,0.3,0.6
	c0.2,0.2,0.5,0.2,0.8,0.2c0.3,0,0.6-0.1,0.8-0.2C238.7,325.2,238.8,325,238.8,324.8z M243.4,325.2c-0.3,0.5-0.8,0.7-1.5,0.7
	c-0.4,0-0.7-0.1-1-0.3c-0.3-0.2-0.5-0.4-0.7-0.7c-0.2-0.3-0.2-0.7-0.2-1.1v-0.2c0-0.4,0.1-0.8,0.2-1.1c0.2-0.3,0.4-0.6,0.7-0.8
	c0.3-0.2,0.6-0.3,0.9-0.3c0.5,0,0.9,0.2,1.2,0.5c0.3,0.4,0.5,0.8,0.5,1.4v0.3h-3v0.1c0,0.5,0.1,0.9,0.4,1.2c0.3,0.3,0.6,0.5,1,0.5
	c0.2,0,0.5,0,0.7-0.1c0.2-0.1,0.4-0.2,0.5-0.4L243.4,325.2L243.4,325.2z M241.8,322c-0.4,0-0.6,0.1-0.9,0.4c-0.2,0.3-0.4,0.6-0.4,1
	h2.5v-0.1c0-0.4-0.1-0.7-0.3-1C242.5,322.1,242.2,322,241.8,322z"/>
<path class="st6" d="M91.5,334l0.2,0.9l0.2-0.8l1.2-4.2h0.4l1.2,4.2l0.2,0.9l0.2-0.9l1-4.2h0.5l-1.5,5.7h-0.5l-1.3-4.4l-0.1-0.6
	l-0.1,0.6l-1.3,4.4h-0.5l-1.5-5.7h0.5L91.5,334z M100.6,334.8c-0.3,0.5-0.8,0.7-1.5,0.7c-0.4,0-0.7-0.1-1-0.3
	c-0.3-0.2-0.5-0.4-0.7-0.7c-0.2-0.3-0.2-0.7-0.2-1.1v-0.2c0-0.4,0.1-0.8,0.2-1.1c0.2-0.3,0.4-0.6,0.7-0.8c0.3-0.2,0.6-0.3,0.9-0.3
	c0.5,0,0.9,0.2,1.2,0.5c0.3,0.4,0.5,0.8,0.5,1.4v0.3h-3v0.1c0,0.5,0.1,0.9,0.4,1.2c0.3,0.3,0.6,0.5,1,0.5c0.2,0,0.5,0,0.7-0.1
	c0.2-0.1,0.4-0.2,0.5-0.4L100.6,334.8L100.6,334.8z M99,331.6c-0.4,0-0.6,0.1-0.9,0.4c-0.2,0.3-0.4,0.6-0.4,1h2.5V333
	c0-0.4-0.1-0.7-0.3-1C99.6,331.7,99.3,331.6,99,331.6z M101.5,330c0-0.1,0-0.2,0.1-0.2c0.1-0.1,0.1-0.1,0.2-0.1c0.1,0,0.2,0,0.2,0.1
	s0.1,0.1,0.1,0.2s0,0.2-0.1,0.2c-0.1,0.1-0.1,0.1-0.2,0.1c-0.1,0-0.2,0-0.2-0.1C101.6,330.2,101.5,330.1,101.5,330z M102.1,335.5
	h-0.5v-4.2h0.5V335.5z M105.9,334.4c0-0.2-0.1-0.4-0.3-0.6c-0.2-0.1-0.5-0.3-0.8-0.3c-0.4-0.1-0.7-0.2-0.9-0.3
	c-0.2-0.1-0.4-0.2-0.5-0.4c-0.1-0.1-0.2-0.3-0.2-0.5c0-0.3,0.1-0.6,0.4-0.8c0.3-0.2,0.6-0.3,1.1-0.3c0.5,0,0.8,0.1,1.1,0.3
	c0.3,0.2,0.4,0.5,0.4,0.9h-0.5c0-0.2-0.1-0.5-0.3-0.6s-0.5-0.2-0.8-0.2c-0.3,0-0.6,0.1-0.7,0.2c-0.2,0.1-0.3,0.3-0.3,0.5
	c0,0.2,0.1,0.4,0.2,0.5c0.2,0.1,0.4,0.2,0.8,0.3c0.4,0.1,0.7,0.2,0.9,0.3c0.2,0.1,0.4,0.2,0.5,0.4c0.1,0.2,0.1,0.3,0.1,0.6
	c0,0.4-0.1,0.6-0.4,0.9c-0.3,0.2-0.7,0.3-1.1,0.3c-0.5,0-0.9-0.1-1.2-0.4c-0.3-0.2-0.5-0.5-0.5-0.9h0.5c0,0.3,0.1,0.5,0.3,0.6
	c0.2,0.2,0.5,0.2,0.8,0.2c0.3,0,0.6-0.1,0.8-0.2C105.8,334.8,105.9,334.6,105.9,334.4z M110.5,334.8c-0.3,0.5-0.8,0.7-1.5,0.7
	c-0.4,0-0.7-0.1-1-0.3c-0.3-0.2-0.5-0.4-0.7-0.7c-0.2-0.3-0.2-0.7-0.2-1.1v-0.2c0-0.4,0.1-0.8,0.2-1.1c0.2-0.3,0.4-0.6,0.7-0.8
	c0.3-0.2,0.6-0.3,0.9-0.3c0.5,0,0.9,0.2,1.2,0.5c0.3,0.4,0.5,0.8,0.5,1.4v0.3h-3v0.1c0,0.5,0.1,0.9,0.4,1.2c0.3,0.3,0.6,0.5,1,0.5
	c0.2,0,0.5,0,0.7-0.1c0.2-0.1,0.4-0.2,0.5-0.4L110.5,334.8L110.5,334.8z M108.9,331.6c-0.4,0-0.6,0.1-0.9,0.4
	c-0.2,0.3-0.4,0.6-0.4,1h2.5V333c0-0.4-0.1-0.7-0.3-1C109.6,331.7,109.3,331.6,108.9,331.6z M114.8,334.8l1.3-3.6h0.5l-1.6,4.2h-0.4
	l-1.6-4.2h0.5L114.8,334.8z M120.4,334.8c-0.3,0.5-0.8,0.7-1.5,0.7c-0.4,0-0.7-0.1-1-0.3c-0.3-0.2-0.5-0.4-0.7-0.7
	c-0.2-0.3-0.2-0.7-0.2-1.1v-0.2c0-0.4,0.1-0.8,0.2-1.1c0.2-0.3,0.4-0.6,0.7-0.8c0.3-0.2,0.6-0.3,0.9-0.3c0.5,0,0.9,0.2,1.2,0.5
	c0.3,0.4,0.5,0.8,0.5,1.4v0.3h-3v0.1c0,0.5,0.1,0.9,0.4,1.2c0.3,0.3,0.6,0.5,1,0.5c0.2,0,0.5,0,0.7-0.1c0.2-0.1,0.4-0.2,0.5-0.4
	L120.4,334.8L120.4,334.8z M118.8,331.6c-0.4,0-0.6,0.1-0.9,0.4c-0.2,0.3-0.4,0.6-0.4,1h2.5V333c0-0.4-0.1-0.7-0.3-1
	C119.5,331.7,119.2,331.6,118.8,331.6z M123.4,331.7c-0.1,0-0.2,0-0.3,0c-0.3,0-0.5,0.1-0.7,0.2c-0.2,0.2-0.3,0.4-0.4,0.7v2.9h-0.5
	v-4.2h0.5l0,0.7c0.2-0.5,0.6-0.8,1.2-0.8c0.1,0,0.2,0,0.3,0.1L123.4,331.7z M126.6,334.4c0-0.2-0.1-0.4-0.3-0.6
	c-0.2-0.1-0.5-0.3-0.8-0.3c-0.4-0.1-0.7-0.2-0.9-0.3c-0.2-0.1-0.4-0.2-0.5-0.4c-0.1-0.1-0.2-0.3-0.2-0.5c0-0.3,0.1-0.6,0.4-0.8
	c0.3-0.2,0.6-0.3,1.1-0.3c0.5,0,0.8,0.1,1.1,0.3c0.3,0.2,0.4,0.5,0.4,0.9h-0.5c0-0.2-0.1-0.5-0.3-0.6s-0.5-0.2-0.8-0.2
	c-0.3,0-0.6,0.1-0.7,0.2c-0.2,0.1-0.3,0.3-0.3,0.5c0,0.2,0.1,0.4,0.2,0.5c0.2,0.1,0.4,0.2,0.8,0.3c0.4,0.1,0.7,0.2,0.9,0.3
	c0.2,0.1,0.4,0.2,0.5,0.4c0.1,0.2,0.1,0.3,0.1,0.6c0,0.4-0.1,0.6-0.4,0.9c-0.3,0.2-0.7,0.3-1.1,0.3c-0.5,0-0.9-0.1-1.2-0.4
	c-0.3-0.2-0.5-0.5-0.5-0.9h0.5c0,0.3,0.1,0.5,0.3,0.6c0.2,0.2,0.5,0.2,0.8,0.2c0.3,0,0.6-0.1,0.8-0.2
	C126.5,334.8,126.6,334.6,126.6,334.4z M130.9,335c-0.3,0.4-0.7,0.6-1.3,0.6c-0.5,0-0.8-0.1-1-0.4s-0.4-0.6-0.4-1.2v-2.8h0.5v2.7
	c0,0.8,0.3,1.2,1,1.2c0.7,0,1.1-0.3,1.3-0.8v-3.1h0.5v4.2h-0.5L130.9,335z M134.1,335.2c0.3,0,0.6-0.1,0.8-0.3
	c0.2-0.2,0.3-0.4,0.4-0.7h0.4c0,0.3-0.1,0.5-0.2,0.7c-0.1,0.2-0.3,0.4-0.6,0.5s-0.5,0.2-0.8,0.2c-0.6,0-1-0.2-1.3-0.6
	c-0.3-0.4-0.5-0.9-0.5-1.6v-0.1c0-0.4,0.1-0.8,0.2-1.1c0.1-0.3,0.4-0.6,0.6-0.7c0.3-0.2,0.6-0.3,1-0.3c0.5,0,0.8,0.1,1.1,0.4
	c0.3,0.3,0.5,0.6,0.5,1.1h-0.4c0-0.3-0.1-0.6-0.4-0.8c-0.2-0.2-0.5-0.3-0.8-0.3c-0.4,0-0.7,0.2-1,0.5c-0.2,0.3-0.3,0.7-0.3,1.3v0.1
	c0,0.5,0.1,1,0.3,1.3C133.3,335,133.7,335.2,134.1,335.2z M137.1,332c0.2-0.3,0.4-0.4,0.6-0.6c0.2-0.1,0.5-0.2,0.8-0.2
	c0.5,0,0.8,0.1,1,0.4c0.2,0.3,0.3,0.6,0.3,1.1v2.8h-0.5v-2.8c0-0.4-0.1-0.7-0.2-0.8c-0.2-0.2-0.4-0.3-0.8-0.3
	c-0.3,0-0.5,0.1-0.8,0.3c-0.2,0.2-0.4,0.4-0.5,0.7v2.9h-0.5v-6h0.5V332z M144.2,334.8c-0.3,0.5-0.8,0.7-1.5,0.7
	c-0.4,0-0.7-0.1-1-0.3c-0.3-0.2-0.5-0.4-0.7-0.7c-0.2-0.3-0.2-0.7-0.2-1.1v-0.2c0-0.4,0.1-0.8,0.2-1.1c0.2-0.3,0.4-0.6,0.7-0.8
	c0.3-0.2,0.6-0.3,0.9-0.3c0.5,0,0.9,0.2,1.2,0.5c0.3,0.4,0.5,0.8,0.5,1.4v0.3h-3v0.1c0,0.5,0.1,0.9,0.4,1.2c0.3,0.3,0.6,0.5,1,0.5
	c0.2,0,0.5,0,0.7-0.1c0.2-0.1,0.4-0.2,0.5-0.4L144.2,334.8L144.2,334.8z M142.6,331.6c-0.4,0-0.6,0.1-0.9,0.4
	c-0.2,0.3-0.4,0.6-0.4,1h2.5V333c0-0.4-0.1-0.7-0.3-1C143.2,331.7,143,331.6,142.6,331.6z M145.6,331.3l0,0.7
	c0.2-0.3,0.4-0.5,0.6-0.6c0.2-0.1,0.5-0.2,0.8-0.2c0.5,0,0.8,0.1,1,0.4c0.2,0.3,0.3,0.6,0.3,1.1v2.8h-0.5v-2.8
	c0-0.4-0.1-0.7-0.2-0.8c-0.2-0.2-0.4-0.3-0.8-0.3c-0.3,0-0.5,0.1-0.8,0.3c-0.2,0.2-0.4,0.4-0.5,0.7v2.9h-0.5v-4.2H145.6z
	 M152.5,334.5l0.1,0.4l0.1-0.4l1-3.2h0.4l1,3.2l0.1,0.4l0.1-0.4l0.9-3.2h0.5l-1.2,4.2H155l-1.1-3.4l-0.1-0.2l-0.1,0.2l-1.1,3.3h-0.4
	l-1.2-4.2h0.5L152.5,334.5z M157.5,330c0-0.1,0-0.2,0.1-0.2c0.1-0.1,0.1-0.1,0.2-0.1c0.1,0,0.2,0,0.2,0.1s0.1,0.1,0.1,0.2
	s0,0.2-0.1,0.2c-0.1,0.1-0.1,0.1-0.2,0.1c-0.1,0-0.2,0-0.2-0.1C157.6,330.2,157.5,330.1,157.5,330z M158.1,335.5h-0.5v-4.2h0.5
	V335.5z M161.3,331.7c-0.1,0-0.2,0-0.3,0c-0.3,0-0.5,0.1-0.7,0.2c-0.2,0.2-0.3,0.4-0.4,0.7v2.9h-0.5v-4.2h0.5l0,0.7
	c0.2-0.5,0.6-0.8,1.2-0.8c0.1,0,0.2,0,0.3,0.1L161.3,331.7z M167.2,333.9h-2.6l-0.6,1.6h-0.5l2.2-5.7h0.5l2.2,5.7h-0.5L167.2,333.9z
	 M164.7,333.5h2.3l-1.1-3.1L164.7,333.5z M169.4,331.3l0,0.7c0.2-0.3,0.4-0.5,0.6-0.6c0.2-0.1,0.5-0.2,0.8-0.2c0.5,0,0.8,0.1,1,0.4
	c0.2,0.3,0.3,0.6,0.3,1.1v2.8h-0.5v-2.8c0-0.4-0.1-0.7-0.2-0.8c-0.2-0.2-0.4-0.3-0.8-0.3c-0.3,0-0.5,0.1-0.8,0.3
	c-0.2,0.2-0.4,0.4-0.5,0.7v2.9H169v-4.2H169.4z M174.1,330.2v1.1h0.9v0.4h-0.9v2.8c0,0.2,0,0.4,0.1,0.5c0.1,0.1,0.2,0.2,0.4,0.2
	c0.1,0,0.2,0,0.4,0l0,0.4c-0.1,0-0.3,0.1-0.5,0.1c-0.3,0-0.6-0.1-0.7-0.3c-0.1-0.2-0.2-0.5-0.2-0.8v-2.8h-0.8v-0.4h0.8v-1.1H174.1z
	 M176.9,334.5l0.1,0.4l0.1-0.4l1-3.2h0.4l1,3.2l0.1,0.4l0.1-0.4l0.9-3.2h0.5l-1.2,4.2h-0.4l-1.1-3.4l-0.1-0.2l-0.1,0.2l-1.1,3.3
	h-0.4l-1.2-4.2h0.5L176.9,334.5z M181.7,333.3c0-0.4,0.1-0.8,0.2-1.1c0.2-0.3,0.4-0.6,0.7-0.8c0.3-0.2,0.6-0.3,1-0.3
	c0.6,0,1,0.2,1.4,0.6c0.3,0.4,0.5,0.9,0.5,1.6v0.1c0,0.4-0.1,0.8-0.2,1.1c-0.2,0.3-0.4,0.6-0.7,0.8c-0.3,0.2-0.6,0.3-1,0.3
	c-0.6,0-1-0.2-1.4-0.6C181.9,334.6,181.7,334.1,181.7,333.3L181.7,333.3z M182.2,333.4c0,0.5,0.1,0.9,0.4,1.2s0.6,0.5,1,0.5
	c0.4,0,0.8-0.2,1-0.5s0.4-0.8,0.4-1.3v-0.1c0-0.3-0.1-0.6-0.2-0.9c-0.1-0.3-0.3-0.5-0.5-0.6c-0.2-0.1-0.5-0.2-0.7-0.2
	c-0.4,0-0.8,0.2-1,0.5C182.3,332.4,182.2,332.8,182.2,333.4L182.2,333.4z M188.4,331.7c-0.1,0-0.2,0-0.3,0c-0.3,0-0.5,0.1-0.7,0.2
	c-0.2,0.2-0.3,0.4-0.4,0.7v2.9h-0.5v-4.2h0.5l0,0.7c0.2-0.5,0.6-0.8,1.2-0.8c0.1,0,0.2,0,0.3,0.1L188.4,331.7z M190.1,330.2v1.1h0.9
	v0.4h-0.9v2.8c0,0.2,0,0.4,0.1,0.5c0.1,0.1,0.2,0.2,0.4,0.2c0.1,0,0.2,0,0.4,0l0,0.4c-0.1,0-0.3,0.1-0.5,0.1c-0.3,0-0.6-0.1-0.7-0.3
	c-0.1-0.2-0.2-0.5-0.2-0.8v-2.8h-0.8v-0.4h0.8v-1.1H190.1z M195,334.8c-0.3,0.5-0.8,0.7-1.5,0.7c-0.4,0-0.7-0.1-1-0.3
	c-0.3-0.2-0.5-0.4-0.7-0.7c-0.2-0.3-0.2-0.7-0.2-1.1v-0.2c0-0.4,0.1-0.8,0.2-1.1c0.2-0.3,0.4-0.6,0.7-0.8c0.3-0.2,0.6-0.3,0.9-0.3
	c0.5,0,0.9,0.2,1.2,0.5c0.3,0.4,0.5,0.8,0.5,1.4v0.3h-3v0.1c0,0.5,0.1,0.9,0.4,1.2c0.3,0.3,0.6,0.5,1,0.5c0.2,0,0.5,0,0.7-0.1
	c0.2-0.1,0.4-0.2,0.5-0.4L195,334.8L195,334.8z M193.5,331.6c-0.4,0-0.6,0.1-0.9,0.4c-0.2,0.3-0.4,0.6-0.4,1h2.5V333
	c0-0.4-0.1-0.7-0.3-1C194.1,331.7,193.8,331.6,193.5,331.6z M196.5,331.3l0,0.7c0.2-0.3,0.4-0.5,0.6-0.6c0.2-0.1,0.5-0.2,0.8-0.2
	c0.5,0,0.8,0.1,1,0.4c0.2,0.3,0.3,0.6,0.3,1.1v2.8h-0.5v-2.8c0-0.4-0.1-0.7-0.2-0.8c-0.2-0.2-0.4-0.3-0.8-0.3
	c-0.3,0-0.5,0.1-0.8,0.3c-0.2,0.2-0.4,0.4-0.5,0.7v2.9h-0.5v-4.2H196.5z M202.7,335.1h2.7v0.4h-3.3v-0.3l2.6-3.5h-2.5v-0.4h3.1v0.4
	L202.7,335.1z M209,335c-0.3,0.4-0.7,0.6-1.3,0.6c-0.5,0-0.8-0.1-1-0.4s-0.4-0.6-0.4-1.2v-2.8h0.5v2.7c0,0.8,0.3,1.2,1,1.2
	c0.7,0,1.1-0.3,1.3-0.8v-3.1h0.5v4.2H209L209,335z M212.9,335.5v-3.8h-0.7v-0.4h0.7v-0.4c0-0.5,0.1-0.8,0.4-1c0.2-0.2,0.6-0.4,1-0.4
	c0.3,0,0.7,0.1,1.1,0.2l-0.1,0.4c-0.3-0.1-0.6-0.2-1-0.2c-0.6,0-1,0.3-1,1v0.4h1v0.4h-1v3.8H212.9z M215.6,335.5h-0.5v-4.2h0.5
	V335.5z M217.4,331.3l0,0.7c0.2-0.3,0.4-0.5,0.6-0.6c0.2-0.1,0.5-0.2,0.8-0.2c0.5,0,0.8,0.1,1,0.4c0.2,0.3,0.3,0.6,0.3,1.1v2.8h-0.5
	v-2.8c0-0.4-0.1-0.7-0.2-0.8c-0.2-0.2-0.4-0.3-0.8-0.3c-0.3,0-0.5,0.1-0.8,0.3c-0.2,0.2-0.4,0.4-0.5,0.7v2.9h-0.5v-4.2H217.4z
	 M221.1,333.3c0-0.7,0.1-1.2,0.4-1.6c0.3-0.4,0.7-0.6,1.2-0.6c0.6,0,1,0.2,1.3,0.7v-2.4h0.5v6h-0.4l0-0.6c-0.3,0.4-0.7,0.6-1.3,0.6
	c-0.5,0-0.9-0.2-1.2-0.6C221.3,334.6,221.1,334.1,221.1,333.3L221.1,333.3z M221.6,333.4c0,0.5,0.1,1,0.3,1.3
	c0.2,0.3,0.5,0.5,0.9,0.5c0.6,0,1-0.3,1.2-0.8v-2c-0.2-0.5-0.6-0.8-1.2-0.8c-0.4,0-0.7,0.2-0.9,0.5S221.6,332.8,221.6,333.4z
	 M228.9,334.8c-0.3,0.5-0.8,0.7-1.5,0.7c-0.4,0-0.7-0.1-1-0.3c-0.3-0.2-0.5-0.4-0.7-0.7c-0.2-0.3-0.2-0.7-0.2-1.1v-0.2
	c0-0.4,0.1-0.8,0.2-1.1c0.2-0.3,0.4-0.6,0.7-0.8c0.3-0.2,0.6-0.3,0.9-0.3c0.5,0,0.9,0.2,1.2,0.5c0.3,0.4,0.5,0.8,0.5,1.4v0.3h-3v0.1
	c0,0.5,0.1,0.9,0.4,1.2c0.3,0.3,0.6,0.5,1,0.5c0.2,0,0.5,0,0.7-0.1c0.2-0.1,0.4-0.2,0.5-0.4L228.9,334.8L228.9,334.8z M227.3,331.6
	c-0.4,0-0.6,0.1-0.9,0.4c-0.2,0.3-0.4,0.6-0.4,1h2.5V333c0-0.4-0.1-0.7-0.3-1C227.9,331.7,227.7,331.6,227.3,331.6z M230.3,331.3
	l0,0.7c0.2-0.3,0.4-0.5,0.6-0.6c0.2-0.1,0.5-0.2,0.8-0.2c0.5,0,0.8,0.1,1,0.4c0.2,0.3,0.3,0.6,0.3,1.1v2.8h-0.5v-2.8
	c0-0.4-0.1-0.7-0.2-0.8c-0.2-0.2-0.4-0.3-0.8-0.3c-0.3,0-0.5,0.1-0.8,0.3c-0.2,0.2-0.4,0.4-0.5,0.7v2.9h-0.5v-4.2H230.3z"/>
<text transform="matrix(1 0 0 1 89.7617 345.0879)"><tspan x="0" y="0" class="st6 st3 st4">und Heilmittel für unse</tspan><tspan x="79.1" y="0" class="st6 st3 st4">r</tspan><tspan x="81.7" y="0" class="st6 st3 st4">e K</tspan><tspan x="92.9" y="0" class="st6 st3 st4">r</tspan><tspan x="95.4" y="0" class="st6 st3 st4">ankheiten und </tspan></text>
<path class="st6" d="M90.5,354.7V349h1.7c0.6,0,1.1,0.1,1.4,0.4c0.3,0.3,0.5,0.6,0.5,1.1c0,0.3-0.1,0.6-0.2,0.8s-0.4,0.4-0.7,0.5
	c0.3,0.1,0.6,0.2,0.8,0.5c0.2,0.3,0.3,0.5,0.3,0.9c0,0.5-0.2,0.9-0.5,1.2c-0.3,0.3-0.8,0.4-1.4,0.4H90.5z M91,351.6h1.3
	c0.4,0,0.7-0.1,0.9-0.3c0.2-0.2,0.3-0.4,0.3-0.8c0-0.4-0.1-0.6-0.3-0.8c-0.2-0.2-0.6-0.3-1-0.3H91V351.6z M91,352v2.3h1.4
	c0.4,0,0.7-0.1,1-0.3c0.2-0.2,0.4-0.5,0.4-0.9c0-0.4-0.1-0.6-0.3-0.8s-0.5-0.3-1-0.3H91z M98.4,354c-0.3,0.5-0.8,0.7-1.5,0.7
	c-0.4,0-0.7-0.1-1-0.3c-0.3-0.2-0.5-0.4-0.7-0.7c-0.2-0.3-0.2-0.7-0.2-1.1v-0.2c0-0.4,0.1-0.8,0.2-1.1c0.2-0.3,0.4-0.6,0.7-0.8
	c0.3-0.2,0.6-0.3,0.9-0.3c0.5,0,0.9,0.2,1.2,0.5c0.3,0.4,0.5,0.8,0.5,1.4v0.3h-3v0.1c0,0.5,0.1,0.9,0.4,1.2c0.3,0.3,0.6,0.5,1,0.5
	c0.2,0,0.5,0,0.7-0.1c0.2-0.1,0.4-0.2,0.5-0.4L98.4,354L98.4,354z M96.8,350.8c-0.4,0-0.6,0.1-0.9,0.4c-0.2,0.3-0.4,0.6-0.4,1H98
	v-0.1c0-0.4-0.1-0.7-0.3-1C97.5,350.9,97.2,350.8,96.8,350.8z M101.9,353.6c0-0.2-0.1-0.4-0.3-0.6c-0.2-0.1-0.5-0.3-0.8-0.3
	c-0.4-0.1-0.7-0.2-0.9-0.3c-0.2-0.1-0.4-0.2-0.5-0.4c-0.1-0.1-0.2-0.3-0.2-0.5c0-0.3,0.1-0.6,0.4-0.8c0.3-0.2,0.6-0.3,1.1-0.3
	c0.5,0,0.8,0.1,1.1,0.3c0.3,0.2,0.4,0.5,0.4,0.9h-0.5c0-0.2-0.1-0.5-0.3-0.6s-0.5-0.2-0.8-0.2c-0.3,0-0.6,0.1-0.7,0.2
	c-0.2,0.1-0.3,0.3-0.3,0.5c0,0.2,0.1,0.4,0.2,0.5c0.2,0.1,0.4,0.2,0.8,0.3c0.4,0.1,0.7,0.2,0.9,0.3c0.2,0.1,0.4,0.2,0.5,0.4
	c0.1,0.2,0.1,0.3,0.1,0.6c0,0.4-0.1,0.6-0.4,0.9c-0.3,0.2-0.7,0.3-1.1,0.3c-0.5,0-0.9-0.1-1.2-0.4c-0.3-0.2-0.5-0.5-0.5-0.9h0.5
	c0,0.3,0.1,0.5,0.3,0.6c0.2,0.2,0.5,0.2,0.8,0.2c0.3,0,0.6-0.1,0.8-0.2C101.8,354,101.9,353.8,101.9,353.6z M105,354.4
	c0.3,0,0.6-0.1,0.8-0.3c0.2-0.2,0.3-0.4,0.4-0.7h0.4c0,0.3-0.1,0.5-0.2,0.7c-0.1,0.2-0.3,0.4-0.6,0.5s-0.5,0.2-0.8,0.2
	c-0.6,0-1-0.2-1.3-0.6c-0.3-0.4-0.5-0.9-0.5-1.6v-0.1c0-0.4,0.1-0.8,0.2-1.1c0.1-0.3,0.4-0.6,0.6-0.7c0.3-0.2,0.6-0.3,1-0.3
	c0.5,0,0.8,0.1,1.1,0.4c0.3,0.3,0.5,0.6,0.5,1.1h-0.4c0-0.3-0.1-0.6-0.4-0.8c-0.2-0.2-0.5-0.3-0.8-0.3c-0.4,0-0.7,0.2-1,0.5
	c-0.2,0.3-0.3,0.7-0.3,1.3v0.1c0,0.5,0.1,1,0.3,1.3C104.3,354.2,104.6,354.4,105,354.4z M108,351.2c0.2-0.3,0.4-0.4,0.6-0.6
	c0.2-0.1,0.5-0.2,0.8-0.2c0.5,0,0.8,0.1,1,0.4c0.2,0.3,0.3,0.6,0.3,1.1v2.8h-0.5v-2.8c0-0.4-0.1-0.7-0.2-0.8
	c-0.2-0.2-0.4-0.3-0.8-0.3c-0.3,0-0.5,0.1-0.8,0.3c-0.2,0.2-0.4,0.4-0.5,0.7v2.9h-0.5v-6h0.5V351.2z M113,353.7l0.1,0.4l0.1-0.4
	l1-3.2h0.4l1,3.2l0.1,0.4l0.1-0.4l0.9-3.2h0.5l-1.2,4.2h-0.4l-1.1-3.4l-0.1-0.2l-0.1,0.2l-1.1,3.3h-0.4l-1.2-4.2h0.5L113,353.7z
	 M121.1,354c-0.3,0.5-0.8,0.7-1.5,0.7c-0.4,0-0.7-0.1-1-0.3c-0.3-0.2-0.5-0.4-0.7-0.7c-0.2-0.3-0.2-0.7-0.2-1.1v-0.2
	c0-0.4,0.1-0.8,0.2-1.1c0.2-0.3,0.4-0.6,0.7-0.8c0.3-0.2,0.6-0.3,0.9-0.3c0.5,0,0.9,0.2,1.2,0.5c0.3,0.4,0.5,0.8,0.5,1.4v0.3h-3v0.1
	c0,0.5,0.1,0.9,0.4,1.2c0.3,0.3,0.6,0.5,1,0.5c0.2,0,0.5,0,0.7-0.1c0.2-0.1,0.4-0.2,0.5-0.4L121.1,354L121.1,354z M119.6,350.8
	c-0.4,0-0.6,0.1-0.9,0.4c-0.2,0.3-0.4,0.6-0.4,1h2.5v-0.1c0-0.4-0.1-0.7-0.3-1C120.2,350.9,119.9,350.8,119.6,350.8z M124.1,350.9
	c-0.1,0-0.2,0-0.3,0c-0.3,0-0.5,0.1-0.7,0.2c-0.2,0.2-0.3,0.4-0.4,0.7v2.9h-0.5v-4.2h0.5l0,0.7c0.2-0.5,0.6-0.8,1.2-0.8
	c0.1,0,0.2,0,0.3,0.1L124.1,350.9z M124.6,352.5c0-0.7,0.1-1.2,0.4-1.6c0.3-0.4,0.7-0.6,1.2-0.6c0.6,0,1,0.2,1.3,0.7v-2.4h0.5v6
	h-0.4l0-0.6c-0.3,0.4-0.7,0.6-1.3,0.6c-0.5,0-0.9-0.2-1.2-0.6C124.7,353.8,124.6,353.3,124.6,352.5L124.6,352.5z M125,352.6
	c0,0.5,0.1,1,0.3,1.3c0.2,0.3,0.5,0.5,0.9,0.5c0.6,0,1-0.3,1.2-0.8v-2c-0.2-0.5-0.6-0.8-1.2-0.8c-0.4,0-0.7,0.2-0.9,0.5
	S125,352,125,352.6z M132.3,354c-0.3,0.5-0.8,0.7-1.5,0.7c-0.4,0-0.7-0.1-1-0.3c-0.3-0.2-0.5-0.4-0.7-0.7c-0.2-0.3-0.2-0.7-0.2-1.1
	v-0.2c0-0.4,0.1-0.8,0.2-1.1c0.2-0.3,0.4-0.6,0.7-0.8c0.3-0.2,0.6-0.3,0.9-0.3c0.5,0,0.9,0.2,1.2,0.5c0.3,0.4,0.5,0.8,0.5,1.4v0.3
	h-3v0.1c0,0.5,0.1,0.9,0.4,1.2c0.3,0.3,0.6,0.5,1,0.5c0.2,0,0.5,0,0.7-0.1c0.2-0.1,0.4-0.2,0.5-0.4L132.3,354L132.3,354z
	 M130.7,350.8c-0.4,0-0.6,0.1-0.9,0.4c-0.2,0.3-0.4,0.6-0.4,1h2.5v-0.1c0-0.4-0.1-0.7-0.3-1C131.4,350.9,131.1,350.8,130.7,350.8z
	 M133.8,350.5l0,0.7c0.2-0.3,0.4-0.5,0.6-0.6c0.2-0.1,0.5-0.2,0.8-0.2c0.5,0,0.8,0.1,1,0.4c0.2,0.3,0.3,0.6,0.3,1.1v2.8h-0.5v-2.8
	c0-0.4-0.1-0.7-0.2-0.8c-0.2-0.2-0.4-0.3-0.8-0.3c-0.3,0-0.5,0.1-0.8,0.3c-0.2,0.2-0.4,0.4-0.5,0.7v2.9h-0.5v-4.2H133.8z M140,354.3
	h2.7v0.4h-3.3v-0.3l2.6-3.5h-2.5v-0.4h3.1v0.4L140,354.3z M146.3,354.2c-0.3,0.4-0.7,0.6-1.3,0.6c-0.5,0-0.8-0.1-1-0.4
	s-0.4-0.6-0.4-1.2v-2.8h0.5v2.7c0,0.8,0.3,1.2,1,1.2c0.7,0,1.1-0.3,1.3-0.8v-3.1h0.5v4.2h-0.5L146.3,354.2z M150.2,354.7v-3.8h-0.7
	v-0.4h0.7V350c0-0.5,0.1-0.8,0.4-1c0.2-0.2,0.6-0.4,1-0.4c0.3,0,0.7,0.1,1.1,0.2l-0.1,0.4c-0.3-0.1-0.6-0.2-1-0.2c-0.6,0-1,0.3-1,1
	v0.4h1v0.4h-1v3.8H150.2z M152.9,354.7h-0.5v-4.2h0.5V354.7z M154.6,350.5l0,0.7c0.2-0.3,0.4-0.5,0.6-0.6c0.2-0.1,0.5-0.2,0.8-0.2
	c0.5,0,0.8,0.1,1,0.4c0.2,0.3,0.3,0.6,0.3,1.1v2.8h-0.5v-2.8c0-0.4-0.1-0.7-0.2-0.8c-0.2-0.2-0.4-0.3-0.8-0.3
	c-0.3,0-0.5,0.1-0.8,0.3c-0.2,0.2-0.4,0.4-0.5,0.7v2.9h-0.5v-4.2H154.6z M158.4,352.5c0-0.7,0.1-1.2,0.4-1.6
	c0.3-0.4,0.7-0.6,1.2-0.6c0.6,0,1,0.2,1.3,0.7v-2.4h0.5v6h-0.4l0-0.6c-0.3,0.4-0.7,0.6-1.3,0.6c-0.5,0-0.9-0.2-1.2-0.6
	C158.5,353.8,158.4,353.3,158.4,352.5L158.4,352.5z M158.9,352.6c0,0.5,0.1,1,0.3,1.3c0.2,0.3,0.5,0.5,0.9,0.5c0.6,0,1-0.3,1.2-0.8
	v-2c-0.2-0.5-0.6-0.8-1.2-0.8c-0.4,0-0.7,0.2-0.9,0.5S158.9,352,158.9,352.6z M166.2,354c-0.3,0.5-0.8,0.7-1.5,0.7
	c-0.4,0-0.7-0.1-1-0.3c-0.3-0.2-0.5-0.4-0.7-0.7c-0.2-0.3-0.2-0.7-0.2-1.1v-0.2c0-0.4,0.1-0.8,0.2-1.1c0.2-0.3,0.4-0.6,0.7-0.8
	c0.3-0.2,0.6-0.3,0.9-0.3c0.5,0,0.9,0.2,1.2,0.5c0.3,0.4,0.5,0.8,0.5,1.4v0.3h-3v0.1c0,0.5,0.1,0.9,0.4,1.2c0.3,0.3,0.6,0.5,1,0.5
	c0.2,0,0.5,0,0.7-0.1c0.2-0.1,0.4-0.2,0.5-0.4L166.2,354L166.2,354z M164.6,350.8c-0.4,0-0.6,0.1-0.9,0.4c-0.2,0.3-0.4,0.6-0.4,1
	h2.5v-0.1c0-0.4-0.1-0.7-0.3-1C165.2,350.9,164.9,350.8,164.6,350.8z M167.6,350.5l0,0.7c0.2-0.3,0.4-0.5,0.6-0.6
	c0.2-0.1,0.5-0.2,0.8-0.2c0.5,0,0.8,0.1,1,0.4c0.2,0.3,0.3,0.6,0.3,1.1v2.8h-0.5v-2.8c0-0.4-0.1-0.7-0.2-0.8
	c-0.2-0.2-0.4-0.3-0.8-0.3c-0.3,0-0.5,0.1-0.8,0.3c-0.2,0.2-0.4,0.4-0.5,0.7v2.9h-0.5v-4.2H167.6z M171.5,354.4c0-0.1,0-0.2,0.1-0.2
	c0.1-0.1,0.1-0.1,0.2-0.1c0.1,0,0.2,0,0.2,0.1c0.1,0.1,0.1,0.1,0.1,0.2c0,0.1,0,0.2-0.1,0.2c-0.1,0.1-0.1,0.1-0.2,0.1
	c-0.1,0-0.2,0-0.2-0.1S171.5,354.5,171.5,354.4z M176.6,353.2l0.2,0.9l0.2-0.8l1.2-4.2h0.4l1.2,4.2l0.2,0.9l0.2-0.9l1-4.2h0.5
	l-1.5,5.7h-0.5l-1.3-4.4l-0.1-0.6l-0.1,0.6l-1.3,4.4h-0.5L175,349h0.5L176.6,353.2z M182.6,349.2c0-0.1,0-0.2,0.1-0.2
	c0.1-0.1,0.1-0.1,0.2-0.1c0.1,0,0.2,0,0.2,0.1s0.1,0.1,0.1,0.2s0,0.2-0.1,0.2c-0.1,0.1-0.1,0.1-0.2,0.1c-0.1,0-0.2,0-0.2-0.1
	C182.6,349.4,182.6,349.3,182.6,349.2z M183.1,354.7h-0.5v-4.2h0.5V354.7z M186.3,350.9c-0.1,0-0.2,0-0.3,0c-0.3,0-0.5,0.1-0.7,0.2
	c-0.2,0.2-0.3,0.4-0.4,0.7v2.9h-0.5v-4.2h0.5l0,0.7c0.2-0.5,0.6-0.8,1.2-0.8c0.1,0,0.2,0,0.3,0.1L186.3,350.9z M188.8,352.5
	c0-0.7,0.1-1.2,0.4-1.6s0.7-0.6,1.2-0.6c0.6,0,1,0.2,1.3,0.7l0-0.6h0.4v4.1c0,0.5-0.2,1-0.5,1.3c-0.3,0.3-0.7,0.5-1.2,0.5
	c-0.3,0-0.6-0.1-0.8-0.2c-0.3-0.1-0.5-0.3-0.6-0.5l0.3-0.3c0.3,0.4,0.7,0.6,1.2,0.6c0.4,0,0.7-0.1,0.9-0.3s0.3-0.6,0.3-1v-0.5
	c-0.3,0.4-0.7,0.6-1.3,0.6c-0.5,0-0.9-0.2-1.2-0.6S188.8,353.3,188.8,352.5L188.8,352.5z M189.3,352.6c0,0.5,0.1,1,0.3,1.3
	c0.2,0.3,0.5,0.5,0.9,0.5c0.6,0,1-0.3,1.2-0.8v-2c-0.1-0.3-0.3-0.5-0.5-0.6c-0.2-0.1-0.5-0.2-0.7-0.2c-0.4,0-0.7,0.2-0.9,0.5
	S189.3,352,189.3,352.6z M196.6,354c-0.3,0.5-0.8,0.7-1.5,0.7c-0.4,0-0.7-0.1-1-0.3c-0.3-0.2-0.5-0.4-0.7-0.7
	c-0.2-0.3-0.2-0.7-0.2-1.1v-0.2c0-0.4,0.1-0.8,0.2-1.1c0.2-0.3,0.4-0.6,0.7-0.8c0.3-0.2,0.6-0.3,0.9-0.3c0.5,0,0.9,0.2,1.2,0.5
	c0.3,0.4,0.5,0.8,0.5,1.4v0.3h-3v0.1c0,0.5,0.1,0.9,0.4,1.2c0.3,0.3,0.6,0.5,1,0.5c0.2,0,0.5,0,0.7-0.1c0.2-0.1,0.4-0.2,0.5-0.4
	L196.6,354L196.6,354z M195,350.8c-0.4,0-0.6,0.1-0.9,0.4c-0.2,0.3-0.4,0.6-0.4,1h2.5v-0.1c0-0.4-0.1-0.7-0.3-1
	C195.6,350.9,195.4,350.8,195,350.8z M198,351.2c0.2-0.3,0.4-0.4,0.6-0.6c0.2-0.1,0.5-0.2,0.8-0.2c0.5,0,0.8,0.1,1,0.4
	c0.2,0.3,0.3,0.6,0.3,1.1v2.8h-0.5v-2.8c0-0.4-0.1-0.7-0.2-0.8c-0.2-0.2-0.4-0.3-0.8-0.3c-0.3,0-0.5,0.1-0.8,0.3
	c-0.2,0.2-0.4,0.4-0.5,0.7v2.9h-0.5v-6h0.5V351.2z M205.1,354c-0.3,0.5-0.8,0.7-1.5,0.7c-0.4,0-0.7-0.1-1-0.3
	c-0.3-0.2-0.5-0.4-0.7-0.7c-0.2-0.3-0.2-0.7-0.2-1.1v-0.2c0-0.4,0.1-0.8,0.2-1.1c0.2-0.3,0.4-0.6,0.7-0.8c0.3-0.2,0.6-0.3,0.9-0.3
	c0.5,0,0.9,0.2,1.2,0.5c0.3,0.4,0.5,0.8,0.5,1.4v0.3h-3v0.1c0,0.5,0.1,0.9,0.4,1.2c0.3,0.3,0.6,0.5,1,0.5c0.2,0,0.5,0,0.7-0.1
	c0.2-0.1,0.4-0.2,0.5-0.4L205.1,354L205.1,354z M203.5,350.8c-0.4,0-0.6,0.1-0.9,0.4c-0.2,0.3-0.4,0.6-0.4,1h2.5v-0.1
	c0-0.4-0.1-0.7-0.3-1C204.2,350.9,203.9,350.8,203.5,350.8z M206.6,350.5l0,0.7c0.2-0.3,0.4-0.5,0.6-0.6c0.2-0.1,0.5-0.2,0.8-0.2
	c0.5,0,0.8,0.1,1,0.4c0.2,0.3,0.3,0.6,0.3,1.1v2.8h-0.5v-2.8c0-0.4-0.1-0.7-0.2-0.8c-0.2-0.2-0.4-0.3-0.8-0.3
	c-0.3,0-0.5,0.1-0.8,0.3c-0.2,0.2-0.4,0.4-0.5,0.7v2.9h-0.5v-4.2H206.6z M212.9,350.5l0,0.7c0.2-0.3,0.4-0.5,0.6-0.6
	c0.2-0.1,0.5-0.2,0.8-0.2c0.5,0,0.8,0.1,1,0.4c0.2,0.3,0.3,0.6,0.3,1.1v2.8h-0.5v-2.8c0-0.4-0.1-0.7-0.2-0.8
	c-0.2-0.2-0.4-0.3-0.8-0.3c-0.3,0-0.5,0.1-0.8,0.3c-0.2,0.2-0.4,0.4-0.5,0.7v2.9h-0.5v-4.2H212.9z M216.8,349.2c0-0.1,0-0.2,0.1-0.2
	c0.1-0.1,0.1-0.1,0.2-0.1c0.1,0,0.2,0,0.2,0.1s0.1,0.1,0.1,0.2s0,0.2-0.1,0.2c-0.1,0.1-0.1,0.1-0.2,0.1c-0.1,0-0.2,0-0.2-0.1
	C216.8,349.4,216.8,349.3,216.8,349.2z M217.4,354.7h-0.5v-4.2h0.5V354.7z M220.2,354.4c0.3,0,0.6-0.1,0.8-0.3
	c0.2-0.2,0.3-0.4,0.4-0.7h0.4c0,0.3-0.1,0.5-0.2,0.7c-0.1,0.2-0.3,0.4-0.6,0.5s-0.5,0.2-0.8,0.2c-0.6,0-1-0.2-1.3-0.6
	c-0.3-0.4-0.5-0.9-0.5-1.6v-0.1c0-0.4,0.1-0.8,0.2-1.1c0.1-0.3,0.4-0.6,0.6-0.7c0.3-0.2,0.6-0.3,1-0.3c0.5,0,0.8,0.1,1.1,0.4
	c0.3,0.3,0.5,0.6,0.5,1.1h-0.4c0-0.3-0.1-0.6-0.4-0.8c-0.2-0.2-0.5-0.3-0.8-0.3c-0.4,0-0.7,0.2-1,0.5c-0.2,0.3-0.3,0.7-0.3,1.3v0.1
	c0,0.5,0.1,1,0.3,1.3C219.4,354.2,219.8,354.4,220.2,354.4z M223.2,351.2c0.2-0.3,0.4-0.4,0.6-0.6c0.2-0.1,0.5-0.2,0.8-0.2
	c0.5,0,0.8,0.1,1,0.4c0.2,0.3,0.3,0.6,0.3,1.1v2.8h-0.5v-2.8c0-0.4-0.1-0.7-0.2-0.8c-0.2-0.2-0.4-0.3-0.8-0.3
	c-0.3,0-0.5,0.1-0.8,0.3c-0.2,0.2-0.4,0.4-0.5,0.7v2.9h-0.5v-6h0.5V351.2z M227.9,349.4v1.1h0.9v0.4h-0.9v2.8c0,0.2,0,0.4,0.1,0.5
	c0.1,0.1,0.2,0.2,0.4,0.2c0.1,0,0.2,0,0.4,0l0,0.4c-0.1,0-0.3,0.1-0.5,0.1c-0.3,0-0.6-0.1-0.7-0.3c-0.1-0.2-0.2-0.5-0.2-0.8v-2.8
	h-0.8v-0.4h0.8v-1.1H227.9z"/>
<text transform="matrix(1 0 0 1 89.7617 364.2871)"><tspan x="0" y="0" class="st6 st3 st4">sofo</tspan><tspan x="15.7" y="0" class="st6 st3 st4">r</tspan><tspan x="18.5" y="0" class="st6 st3 st4">t mit unse</tspan><tspan x="53.4" y="0" class="st6 st3 st4">r</tspan><tspan x="56.1" y="0" class="st6 st3 st4">en </tspan><tspan x="66.5" y="0" class="st6 st3 st4">F</tspan><tspan x="70.9" y="0" class="st6 st3 st4">r</tspan><tspan x="73.5" y="0" class="st6 st3 st4">agen zum Arzt.</tspan></text>
<text transform="matrix(1 0 0 1 89.7617 383.4873)"><tspan x="0" y="0" class="st6 st3 st4">W</tspan><tspan x="7.1" y="0" class="st6 st3 st4">enn Menschen Beschwe</tspan><tspan x="92.2" y="0" class="st6 st3 st4">r</tspan><tspan x="94.8" y="0" class="st6 st3 st4">den im Internet </tspan></text>
<text transform="matrix(1 0 0 1 89.7617 393.0879)"><tspan x="0" y="0" class="st6 st3 st4">nachschlagen, we</tspan><tspan x="62.4" y="0" class="st6 st3 st4">r</tspan><tspan x="65.1" y="0" class="st6 st3 st4">den Sie schnell </tspan><tspan x="119.2" y="0" class="st6 st3 st4">v</tspan><tspan x="123" y="0" class="st6 st3 st4">on </tspan></text>
<text transform="matrix(1 0 0 1 89.7617 402.6875)"><tspan x="0" y="0" class="st6 st3 st4">einem normalen </tspan><tspan x="58.7" y="0" class="st6 st3 st4">K</tspan><tspan x="63.6" y="0" class="st6 st3 st4">opfschmerz zu einem </tspan></text>
<text transform="matrix(1 0 0 1 89.7617 412.2871)"><tspan x="0" y="0" class="st6 st3 st4">Gehirntumo</tspan><tspan x="41.4" y="0" class="st6 st3 st4">r</tspan><tspan x="43.6" y="0" class="st6 st3 st4">. Die Chance ist jedoch </tspan></text>
<text transform="matrix(1 0 0 1 89.7617 421.8877)"><tspan x="0" y="0" class="st6 st3 st4">gering, dass Ih</tspan><tspan x="50.7" y="0" class="st6 st3 st4">r</tspan><tspan x="53.3" y="0" class="st6 st3 st4">e </tspan><tspan x="59.4" y="0" class="st6 st3 st4">K</tspan><tspan x="64.3" y="0" class="st6 st3 st4">opfschmer</tspan><tspan x="102.3" y="0" class="st6 st3 st4">z</tspan><tspan x="106.2" y="0" class="st6 st3 st4">en dadu</tspan><tspan x="134.2" y="0" class="st6 st3 st4">r</tspan><tspan x="136.9" y="0" class="st6 st3 st4">ch </tspan></text>
<text transform="matrix(1 0 0 1 89.7617 431.4873)"><tspan x="0" y="0" class="st6 st3 st4">v</tspan><tspan x="3.8" y="0" class="st6 st3 st4">erursacht wu</tspan><tspan x="49.5" y="0" class="st6 st3 st4">r</tspan><tspan x="52.1" y="0" class="st6 st3 st4">den.</tspan></text>
<text transform="matrix(1 0 0 1 89.7617 450.6875)"><tspan x="0" y="0" class="st6 st3 st4">In einer Studie wa</tspan><tspan x="61.9" y="0" class="st6 st3 st4">r</tspan><tspan x="64.5" y="0" class="st6 st3 st4">en nur 34% der Online-</tspan></text>
<text transform="matrix(1 0 0 1 89.7617 460.2871)"><tspan x="0" y="0" class="st6 st3 st4">T</tspan><tspan x="4.4" y="0" class="st6 st3 st4">ools kor</tspan><tspan x="32.2" y="0" class="st6 st3 st4">r</tspan><tspan x="34.9" y="0" class="st6 st3 st4">ekt, wäh</tspan><tspan x="63.7" y="0" class="st6 st3 st4">r</tspan><tspan x="66.3" y="0" class="st6 st3 st4">end 72% der bef</tspan><tspan x="122.4" y="0" class="st6 st3 st4">r</tspan><tspan x="124.9" y="0" class="st6 st3 st4">agten </tspan></text>
<text transform="matrix(1 0 0 1 89.7617 469.8877)"><tspan x="0" y="0" class="st6 st3 st4">Ärzte kor</tspan><tspan x="31.3" y="0" class="st6 st3 st4">r</tspan><tspan x="33.9" y="0" class="st6 st3 st4">ekt wa</tspan><tspan x="56.8" y="0" class="st6 st3 st4">r</tspan><tspan x="59.4" y="0" class="st6 st3 st4">en.</tspan></text>
<text transform="matrix(1 0 0 1 89.7617 489.0879)"><tspan x="0" y="0" class="st6 st3 st4">Hö</tspan><tspan x="10.1" y="0" class="st6 st3 st4">r</tspan><tspan x="12.8" y="0" class="st6 st3 st4">en Sie auf, Ih</tspan><tspan x="57.2" y="0" class="st6 st3 st4">r</tspan><tspan x="59.8" y="0" class="st6 st3 st4">e Symp</tspan><tspan x="85.9" y="0" class="st6 st3 st4">t</tspan><tspan x="88.4" y="0" class="st6 st3 st4">ome zu googeln </tspan></text>
<text transform="matrix(1 0 0 1 89.7617 498.6875)"><tspan x="0" y="0" class="st6 st3 st4">und ak</tspan><tspan x="23.4" y="0" class="st6 st3 st4">z</tspan><tspan x="27.2" y="0" class="st6 st3 st4">eptie</tspan><tspan x="44.3" y="0" class="st6 st3 st4">r</tspan><tspan x="46.9" y="0" class="st6 st3 st4">en Sie, dass Sie sterben.</tspan></text>
</svg>
