<?xml version="1.0" encoding="utf-8"?>
<!-- Generator: Adobe Illustrator 23.0.1, SVG Export Plug-In . SVG Version: 6.00 Build 0)  -->
<svg version="1.1" id="Laag_1" xmlns="http://www.w3.org/2000/svg" xmlns:xlink="http://www.w3.org/1999/xlink" x="0px" y="0px"
	 viewBox="0 0 283.5 283.5" style="enable-background:new 0 0 283.5 283.5;" xml:space="preserve">
<style type="text/css">
	.st0{fill:none;stroke:#4285F4;}
</style>
<g>
	<path class="st0" d="M20.6,127.4h3.2l8.4,22.2l8.4-22.2h3.2l-10.1,25.9h-3.3L20.6,127.4z"/>
	<path class="st0" d="M58.7,154c-1.7,0-3.2-0.3-4.7-0.9c-1.4-0.6-2.7-1.4-3.8-2.5c-1.1-1.1-1.9-2.5-2.6-4.2s-0.9-3.7-0.9-6
		c0-1.9,0.2-3.7,0.8-5.3s1.2-3.1,2.2-4.3c1-1.2,2.2-2.2,3.8-2.9c1.5-0.7,3.2-1.1,5.2-1.1c2,0,3.8,0.4,5.3,1.1
		c1.5,0.7,2.8,1.7,3.8,2.9c1,1.2,1.7,2.7,2.2,4.3c0.5,1.7,0.7,3.4,0.7,5.3c0,2.1-0.3,3.9-0.9,5.6c-0.6,1.7-1.4,3.1-2.4,4.3
		c-1,1.2-2.3,2.1-3.8,2.8C62.1,153.7,60.5,154,58.7,154z M67.5,140.4c0-1.5-0.2-3-0.5-4.3c-0.3-1.3-0.9-2.5-1.5-3.5
		c-0.7-1-1.6-1.8-2.7-2.3c-1.1-0.6-2.5-0.9-4-0.9c-1.6,0-2.9,0.3-4,0.9c-1.1,0.6-2,1.4-2.7,2.5c-0.7,1-1.2,2.2-1.6,3.5
		c-0.3,1.3-0.5,2.7-0.5,4.1c0,1.6,0.2,3.1,0.6,4.4c0.4,1.4,0.9,2.5,1.7,3.5s1.7,1.7,2.8,2.2c1.1,0.5,2.4,0.8,3.8,0.8
		c1.6,0,2.9-0.3,4-0.9c1.1-0.6,2-1.4,2.7-2.5c0.7-1,1.2-2.2,1.5-3.5C67.3,143.1,67.5,141.8,67.5,140.4z"/>
	<path class="st0" d="M86.5,154c-1.7,0-3.2-0.3-4.7-0.9c-1.4-0.6-2.7-1.4-3.8-2.5c-1.1-1.1-1.9-2.5-2.6-4.2s-0.9-3.7-0.9-6
		c0-1.9,0.2-3.7,0.8-5.3s1.2-3.1,2.2-4.3c1-1.2,2.2-2.2,3.8-2.9c1.5-0.7,3.2-1.1,5.2-1.1c2,0,3.8,0.4,5.3,1.1
		c1.5,0.7,2.8,1.7,3.8,2.9c1,1.2,1.7,2.7,2.2,4.3c0.5,1.7,0.7,3.4,0.7,5.3c0,2.1-0.3,3.9-0.9,5.6c-0.6,1.7-1.4,3.1-2.4,4.3
		c-1,1.2-2.3,2.1-3.8,2.8C89.9,153.7,88.3,154,86.5,154z M95.3,140.4c0-1.5-0.2-3-0.5-4.3c-0.3-1.3-0.9-2.5-1.5-3.5
		c-0.7-1-1.6-1.8-2.7-2.3c-1.1-0.6-2.5-0.9-4-0.9c-1.6,0-2.9,0.3-4,0.9c-1.1,0.6-2,1.4-2.7,2.5c-0.7,1-1.2,2.2-1.6,3.5
		c-0.3,1.3-0.5,2.7-0.5,4.1c0,1.6,0.2,3.1,0.6,4.4c0.4,1.4,0.9,2.5,1.7,3.5s1.7,1.7,2.8,2.2c1.1,0.5,2.4,0.8,3.8,0.8
		c1.6,0,2.9-0.3,4-0.9c1.1-0.6,2-1.4,2.7-2.5c0.7-1,1.2-2.2,1.5-3.5C95.1,143.1,95.3,141.8,95.3,140.4z"/>
	<path class="st0" d="M107.1,153.3h-3v-25.9h3v4.9h0.1c0.8-2.1,1.9-3.5,3.2-4.3c1.3-0.8,3.1-1.2,5.2-1.2v3.2c-1.7,0-3.1,0.2-4.2,0.8
		c-1.1,0.6-2,1.3-2.6,2.3c-0.6,1-1.1,2.1-1.3,3.4c-0.2,1.3-0.4,2.7-0.4,4.1V153.3z"/>
	<path class="st0" d="M122.4,145.2c0.5,2.2,1.3,3.8,2.5,4.7c1.2,0.9,3,1.4,5.2,1.4c1.1,0,2.1-0.1,2.9-0.4c0.8-0.3,1.5-0.6,2-1.1
		c0.5-0.4,0.9-1,1.2-1.5c0.3-0.6,0.4-1.2,0.4-1.8c0-1.3-0.4-2.2-1.2-2.8c-0.8-0.6-1.8-1.1-3.1-1.5c-1.2-0.3-2.6-0.6-4-0.9
		c-1.4-0.2-2.8-0.6-4-1.1c-1.2-0.5-2.3-1.2-3.1-2.1c-0.8-0.9-1.2-2.2-1.2-4c0-2.2,0.8-3.9,2.4-5.3c1.6-1.4,3.8-2.1,6.7-2.1
		c2.8,0,5.1,0.6,6.8,1.9c1.8,1.2,2.8,3.3,3.2,6.3h-3c-0.3-2-1-3.4-2.3-4.2c-1.2-0.8-2.8-1.2-4.7-1.2c-1.9,0-3.4,0.4-4.4,1.2
		c-1,0.8-1.5,1.9-1.5,3.2c0,1.2,0.4,2.1,1.2,2.7c0.8,0.6,1.8,1.1,3.1,1.5c1.2,0.4,2.6,0.7,4,1c1.4,0.3,2.8,0.7,4,1.3
		c1.2,0.6,2.3,1.3,3.1,2.2c0.8,0.9,1.2,2.2,1.2,3.9c0,1.2-0.3,2.3-0.8,3.3c-0.5,1-1.3,1.7-2.2,2.4c-0.9,0.6-2,1.1-3.3,1.4
		s-2.7,0.5-4.2,0.5c-1.5,0-2.9-0.2-4.1-0.7c-1.2-0.4-2.2-1.1-3-1.9c-0.8-0.8-1.5-1.7-2-2.8c-0.5-1.1-0.7-2.2-0.8-3.5H122.4z"/>
	<path class="st0" d="M164,135.6c-0.5-1.9-1.5-3.4-2.8-4.5c-1.3-1.1-3-1.6-5-1.6c-1.5,0-2.8,0.3-4,0.9c-1.1,0.6-2,1.5-2.7,2.5
		c-0.7,1-1.2,2.2-1.5,3.5c-0.3,1.3-0.5,2.6-0.5,4c0,1.4,0.2,2.7,0.5,4c0.3,1.3,0.8,2.5,1.5,3.5c0.7,1,1.6,1.9,2.7,2.5
		c1.1,0.6,2.4,0.9,4,0.9c2.2,0,4-0.6,5.4-1.9c1.3-1.2,2.2-2.9,2.6-5.1h3.2c-0.3,1.4-0.7,2.7-1.3,3.9c-0.6,1.2-1.3,2.2-2.2,3
		c-0.9,0.9-2,1.5-3.3,2s-2.7,0.7-4.3,0.7c-2.1,0-3.8-0.4-5.3-1.1c-1.5-0.7-2.7-1.7-3.7-2.9c-1-1.2-1.7-2.7-2.2-4.3
		c-0.5-1.7-0.7-3.5-0.7-5.4c0-1.8,0.3-3.5,0.8-5.2c0.5-1.6,1.3-3.1,2.3-4.4c1-1.3,2.2-2.3,3.7-3c1.5-0.8,3.2-1.1,5.1-1.1
		c3,0,5.4,0.7,7.3,2.1c1.8,1.4,3,3.7,3.5,6.7H164z"/>
	<path class="st0" d="M173.4,153.3v-36h3V131c1.2-1.3,2.4-2.3,3.7-3.1c1.3-0.8,2.8-1.2,4.6-1.2c1.6,0,3.1,0.3,4.5,0.8
		c1.4,0.5,2.5,1.5,3.4,2.9c0.6,0.9,1,1.9,1.1,2.9c0.1,1,0.2,2,0.2,3.1v17h-3v-16.9c0-2.3-0.5-4.1-1.6-5.2c-1-1.2-2.8-1.8-5.1-1.8
		c-0.9,0-1.8,0.1-2.5,0.4c-0.8,0.3-1.5,0.7-2.1,1.1c-0.6,0.5-1.1,1-1.6,1.6c-0.4,0.6-0.8,1.2-1,1.9c-0.3,0.8-0.5,1.6-0.5,2.4
		c-0.1,0.8-0.1,1.6-0.1,2.5v14H173.4z"/>
	<path class="st0" d="M204.4,153.3h-3v-25.9h3v4.9h0.1c0.8-2.1,1.9-3.5,3.2-4.3c1.3-0.8,3.1-1.2,5.2-1.2v3.2c-1.7,0-3.1,0.2-4.2,0.8
		c-1.1,0.6-2,1.3-2.6,2.3c-0.6,1-1.1,2.1-1.3,3.4c-0.2,1.3-0.4,2.7-0.4,4.1V153.3z"/>
	<path class="st0" d="M218.2,121.8v-4.5h3.3v4.5H218.2z M218.3,153.3v-25.9h3v25.9H218.3z"/>
	<path class="st0" d="M226.4,129.9v-2.5h3.8v-4.1c0-2.1,0.4-3.7,1.2-4.9c0.8-1.2,2.2-1.8,4.2-1.8c0.5,0,0.9,0,1.3,0.1
		c0.4,0,0.8,0.1,1.2,0.1v2.8c-0.7-0.2-1.3-0.2-1.8-0.2c-0.8,0-1.4,0.1-1.8,0.4c-0.4,0.3-0.8,0.7-1,1.1c-0.2,0.5-0.3,1-0.4,1.6
		c0,0.6-0.1,1.2-0.1,1.8v3.2h5v2.5h-5v23.4h-3v-23.4H226.4z"/>
	<path class="st0" d="M252,153.4c-0.4,0.1-0.9,0.2-1.5,0.4c-0.6,0.2-1.3,0.2-2,0.2c-1.5,0-2.6-0.4-3.4-1.1c-0.8-0.8-1.2-2.1-1.2-4
		v-18.9h-3.7v-2.5h3.7v-7.2h3v7.2h4.8v2.5h-4.8v17.8c0,0.6,0,1.2,0,1.6c0,0.5,0.1,0.9,0.3,1.1c0.2,0.3,0.4,0.5,0.8,0.6
		c0.3,0.1,0.8,0.2,1.5,0.2c0.4,0,0.8,0,1.2-0.1c0.4-0.1,0.8-0.1,1.2-0.2V153.4z"/>
</g>
</svg>
