<?xml version="1.0" encoding="utf-8"?>
<!-- Generator: Adobe Illustrator 23.0.1, SVG Export Plug-In . SVG Version: 6.00 Build 0)  -->
<svg version="1.1" id="Laag_1" xmlns="http://www.w3.org/2000/svg" xmlns:xlink="http://www.w3.org/1999/xlink" x="0px" y="0px"
	 viewBox="0 0 259.6 470.3" style="enable-background:new 0 0 259.6 470.3;" xml:space="preserve">
<style type="text/css">
	.st0{fill:none;stroke:#517ABD;stroke-width:0.335;}
	.st1{clip-path:url(#SVGID_2_);fill:none;stroke:#517ABD;}
	.st2{fill:none;stroke:#517ABD;}
	.st3{fill:#517ABD;}
	.st4{font-family:'Roboto-Light';}
	.st5{font-size:8px;}
	.st6{font-family:'Roboto-Bold';}
	.st7{font-size:10px;}
	.st8{clip-path:url(#SVGID_4_);}
	.st9{font-family:'Roboto-Regular';}
	.st10{font-size:20px;}
	.st11{letter-spacing:-1;}
	.st12{fill:#E84435;}
	.st13{fill:#FCBC05;}
	.st14{fill:#31A852;}
</style>
<rect x="2.5" y="1.1" class="st0" width="255.3" height="466.3"/>
<g>
	<defs>
		<rect id="SVGID_1_" x="-7.1" y="-6.2" width="274.3" height="475.3"/>
	</defs>
	<clipPath id="SVGID_2_">
		<use xlink:href="#SVGID_1_"  style="overflow:visible;"/>
	</clipPath>
	<rect x="2.4" y="1.3" class="st1" width="255.3" height="466.3"/>
</g>
<line class="st2" x1="2.2" y1="36.3" x2="257.8" y2="36.3"/>
<line class="st2" x1="2.2" y1="90.8" x2="257.8" y2="90.8"/>
<line class="st2" x1="2.2" y1="448.3" x2="257.8" y2="448.3"/>
<line class="st2" x1="82.7" y1="91" x2="82.7" y2="448.3"/>
<line class="st2" x1="130.3" y1="36.3" x2="130.3" y2="90.8"/>
<text transform="matrix(1 0 0 1 136.2168 47.8327)"><tspan x="0" y="0" class="st3 st4 st5">Naam en </tspan><tspan x="33.8" y="0" class="st3 st4 st5">v</tspan><tspan x="37.5" y="0" class="st3 st4 st5">oornaam </tspan><tspan x="71.2" y="0" class="st3 st4 st5">v</tspan><tspan x="75" y="0" class="st3 st4 st5">an de </tspan></text>
<text transform="matrix(1 0 0 1 136.2168 57.4328)"><tspan x="0" y="0" class="st3 st4 st5">v</tspan><tspan x="3.8" y="0" class="st3 st4 st5">oorschrij</tspan><tspan x="34.3" y="0" class="st3 st4 st5">v</tspan><tspan x="38.1" y="0" class="st3 st4 st5">er:</tspan></text>
<text transform="matrix(1 0 0 1 136.2168 76.6329)" class="st3 st6 st5">DOKTER GOOGLE</text>
<text transform="matrix(1 0 0 1 7.9209 102.6886)"><tspan x="0" y="0" class="st3 st4 st5">V</tspan><tspan x="4.8" y="0" class="st3 st4 st5">oorbehouden </tspan></text>
<text transform="matrix(1 0 0 1 7.9209 112.2892)" class="st3 st4 st5">aan het </text>
<text transform="matrix(1 0 0 1 7.9209 121.8888)"><tspan x="0" y="0" class="st3 st4 st5">v</tspan><tspan x="3.8" y="0" class="st3 st4 st5">erpakkingsvignet</tspan></text>
<text transform="matrix(1 0 0 1 97.2681 461.3136)"><tspan x="0" y="0" class="st3 st4 st7">V</tspan><tspan x="6.1" y="0" class="st3 st4 st7">OORSCHRI</tspan><tspan x="54.5" y="0" class="st3 st4 st7">F</tspan><tspan x="60.2" y="0" class="st3 st4 st7">T</tspan></text>
<g>
	<defs>
		<rect id="SVGID_3_" x="13.9" y="41" width="104.3" height="44.9"/>
	</defs>
	<clipPath id="SVGID_4_">
		<use xlink:href="#SVGID_3_"  style="overflow:visible;"/>
	</clipPath>
	<g class="st8">
		<defs>
			<rect id="SVGID_5_" x="12.8" y="41" width="106.5" height="45.9"/>
		</defs>
		<clipPath id="SVGID_6_">
			<use xlink:href="#SVGID_5_"  style="overflow:visible;"/>
		</clipPath>
		<g style="clip-path:url(#SVGID_6_);">
			
				<image style="overflow:visible;" width="471" height="203" xlink:href="8DA793A294D7B45.jpg"  transform="matrix(0.2261 0 0 0.2261 12.8496 40.9636)">
			</image>
		</g>
	</g>
</g>
<text transform="matrix(1 0 0 1 91.4126 105.1574)" class="st3 st6 st5">R/</text>
<text transform="matrix(1 0 0 1 91.4126 124.3566)"><tspan x="0" y="0" class="st3 st4 st5">Ong</tspan><tspan x="14.2" y="0" class="st3 st4 st5">ev</tspan><tspan x="22.1" y="0" class="st3 st4 st5">eer 75% </tspan><tspan x="51.8" y="0" class="st3 st4 st5">v</tspan><tspan x="55.5" y="0" class="st3 st4 st5">an de mensen </tspan><tspan x="106.8" y="0" class="st3 st4 st5">v</tspan><tspan x="110.6" y="0" class="st3 st4 st5">e</tspan><tspan x="114.8" y="0" class="st3 st4 st5">r</tspan><tspan x="117.5" y="0" class="st3 st4 st5">we</tspan><tspan x="127.7" y="0" class="st3 st4 st5">r</tspan><tspan x="130.4" y="0" class="st3 st4 st5">ft </tspan><tspan x="137.6" y="0" class="st3 st4 st5">k</tspan><tspan x="141.4" y="0" class="st3 st4 st5">en</tspan></text>
<text transform="matrix(1 0 0 1 91.4126 133.9572)"><tspan x="0" y="0" class="st3 st4 st5">nis </tspan><tspan x="12.2" y="0" class="st3 st4 st5">ov</tspan><tspan x="20.4" y="0" class="st3 st4 st5">er ge</tspan><tspan x="37.8" y="0" class="st3 st4 st5">z</tspan><tspan x="41.6" y="0" class="st3 st4 st5">ondheid via de media. Er </tspan><tspan x="128.8" y="0" class="st3 st4 st5">v</tspan><tspan x="132.6" y="0" class="st3 st4 st5">alt </tspan></text>
<text transform="matrix(1 0 0 1 91.4126 143.5568)"><tspan x="0" y="0" class="st3 st4 st5">niet alleen </tspan><tspan x="37.3" y="0" class="st3 st4 st5">z</tspan><tspan x="41.1" y="0" class="st3 st4 st5">eer nuttige informatie te vinden </tspan></text>
<text transform="matrix(1 0 0 1 91.4126 153.1574)"><tspan x="0" y="0" class="st3 st4 st5">r</tspan><tspan x="2.6" y="0" class="st3 st4 st5">ond medische en wetenschappelij</tspan><tspan x="121" y="0" class="st3 st4 st5">k</tspan><tspan x="124.8" y="0" class="st3 st4 st5">e </tspan></text>
<text transform="matrix(1 0 0 1 91.4126 162.757)"><tspan x="0" y="0" class="st3 st4 st5">onder</tspan><tspan x="20.1" y="0" class="st3 st4 st5">z</tspan><tspan x="24" y="0" class="st3 st4 st5">oe</tspan><tspan x="32.6" y="0" class="st3 st4 st5">k</tspan><tspan x="36.4" y="0" class="st3 st4 st5">en, maar ook minder cor</tspan><tspan x="121.3" y="0" class="st3 st4 st5">r</tspan><tspan x="124" y="0" class="st3 st4 st5">ecte en </tspan></text>
<text transform="matrix(1 0 0 1 91.4126 172.3566)"><tspan x="0" y="0" class="st3 st4 st5">z</tspan><tspan x="3.8" y="0" class="st3 st4 st5">elfs </tspan><tspan x="18.4" y="0" class="st3 st4 st5">r</tspan><tspan x="21" y="0" class="st3 st4 st5">onduit fouti</tspan><tspan x="60.9" y="0" class="st3 st4 st5">e</tspan><tspan x="65" y="0" class="st3 st4 st5">v</tspan><tspan x="68.8" y="0" class="st3 st4 st5">e advie</tspan><tspan x="93.4" y="0" class="st3 st4 st5">z</tspan><tspan x="97.2" y="0" class="st3 st4 st5">en. De juistheid </tspan></text>
<text transform="matrix(1 0 0 1 91.4126 181.9572)"><tspan x="0" y="0" class="st3 st4 st5">en bet</tspan><tspan x="21.6" y="0" class="st3 st4 st5">r</tspan><tspan x="24.2" y="0" class="st3 st4 st5">ouwbaarheid </tspan><tspan x="71.5" y="0" class="st3 st4 st5">v</tspan><tspan x="75.3" y="0" class="st3 st4 st5">an </tspan><tspan x="86" y="0" class="st3 st4 st5">“</tspan><tspan x="88.1" y="0" class="st3 st4 st5">dokter googl</tspan><tspan x="131.9" y="0" class="st3 st4 st5">e</tspan><tspan x="136" y="0" class="st3 st4 st5">” mag </tspan></text>
<text transform="matrix(1 0 0 1 91.4126 191.5568)"><tspan x="0" y="0" class="st3 st4 st5">te</tspan><tspan x="6.7" y="0" class="st3 st4 st5">r</tspan><tspan x="9.3" y="0" class="st3 st4 st5">echt in v</tspan><tspan x="38.5" y="0" class="st3 st4 st5">r</tspan><tspan x="41" y="0" class="st3 st4 st5">aag wo</tspan><tspan x="66.5" y="0" class="st3 st4 st5">r</tspan><tspan x="69.1" y="0" class="st3 st4 st5">den gesteld.</tspan></text>
<text transform="matrix(1 0 0 1 91.4126 210.757)"><tspan x="0" y="0" class="st3 st4 st5">T</tspan><tspan x="4.4" y="0" class="st3 st4 st5">och zijn er enorm </tspan><tspan x="66.7" y="0" class="st3 st4 st5">v</tspan><tspan x="70.5" y="0" class="st3 st4 st5">eel mensen die het </tspan></text>
<text transform="matrix(1 0 0 1 91.4126 220.3566)"><tspan x="0" y="0" class="st3 st4 st5">internet gebrui</tspan><tspan x="50.5" y="0" class="st3 st4 st5">k</tspan><tspan x="54.4" y="0" class="st3 st4 st5">en om medisch advies </tspan></text>
<text transform="matrix(1 0 0 1 91.4126 229.9572)"><tspan x="0" y="0" class="st3 st4 st5">te </tspan><tspan x="8.6" y="0" class="st3 st4 st5">v</tspan><tspan x="12.4" y="0" class="st3 st4 st5">erkrijgen. Uit een onder</tspan><tspan x="92.6" y="0" class="st3 st4 st5">z</tspan><tspan x="96.5" y="0" class="st3 st4 st5">oek </tspan><tspan x="110.9" y="0" class="st3 st4 st5">v</tspan><tspan x="114.7" y="0" class="st3 st4 st5">an de </tspan></text>
<text transform="matrix(1 0 0 1 91.4126 239.5568)"><tspan x="0" y="0" class="st3 st4 st5">Christelij</tspan><tspan x="30.2" y="0" class="st3 st4 st5">k</tspan><tspan x="34.1" y="0" class="st3 st4 st5">e Mutualiteit, bleek dat 91% </tspan><tspan x="131.2" y="0" class="st3 st4 st5">v</tspan><tspan x="135" y="0" class="st3 st4 st5">an de </tspan></text>
<text transform="matrix(1 0 0 1 91.4126 249.1574)"><tspan x="0" y="0" class="st3 st4 st5">Vlamingen ge</tspan><tspan x="47.8" y="0" class="st3 st4 st5">r</tspan><tspan x="50.4" y="0" class="st3 st4 st5">egeld be</tspan><tspan x="79.8" y="0" class="st3 st4 st5">r</tspan><tspan x="82.4" y="0" class="st3 st4 st5">oep doet op dokter </tspan></text>
<text transform="matrix(1 0 0 1 91.4126 258.757)" class="st3 st4 st5">Google. </text>
<text transform="matrix(1 0 0 1 91.4126 277.9572)"><tspan x="0" y="0" class="st3 st4 st5">Banale symp</tspan><tspan x="45.1" y="0" class="st3 st4 st5">t</tspan><tspan x="47.6" y="0" class="st3 st4 st5">omen wo</tspan><tspan x="80.2" y="0" class="st3 st4 st5">r</tspan><tspan x="82.8" y="0" class="st3 st4 st5">den door het internet </tspan></text>
<text transform="matrix(1 0 0 1 91.4126 287.5568)"><tspan x="0" y="0" class="st3 st4 st5">snel gelinkt aan ernstige en </tspan><tspan x="96.8" y="0" class="st3 st4 st5">z</tspan><tspan x="100.7" y="0" class="st3 st4 st5">elfs dodelij</tspan><tspan x="138.2" y="0" class="st3 st4 st5">k</tspan><tspan x="142" y="0" class="st3 st4 st5">e </tspan></text>
<text transform="matrix(1 0 0 1 91.4126 297.1573)" class="st3 st4 st5">aandoeningen.</text>
<text transform="matrix(1 0 0 1 91.4126 316.3566)"><tspan x="0" y="0" class="st3 st4 st5">S</tspan><tspan x="4.7" y="0" class="st3 st4 st5">t</tspan><tspan x="7.2" y="0" class="st3 st4 st5">op met uw symp</tspan><tspan x="65.6" y="0" class="st3 st4 st5">t</tspan><tspan x="68.1" y="0" class="st3 st4 st5">omen te googlen en </tspan></text>
<text transform="matrix(1 0 0 1 91.4126 325.9572)"><tspan x="0" y="0" class="st3 st4 st5">aan</tspan><tspan x="13" y="0" class="st3 st4 st5">v</tspan><tspan x="16.8" y="0" class="st3 st4 st5">aa</tspan><tspan x="25.3" y="0" class="st3 st4 st5">r</tspan><tspan x="27.9" y="0" class="st3 st4 st5">d dat u dood gaat.</tspan></text>
<text transform="matrix(1 0 0 1 84.0088 23.7291)"><tspan x="0" y="0" class="st3 st9 st10">D</tspan><tspan x="13.1" y="0" class="st3 st9 st10 st11">r</tspan><tspan x="18.7" y="0" class="st3 st9 st10">. G</tspan></text>
<text transform="matrix(1 0 0 1 126.5308 23.7291)" class="st12 st9 st10">o</text>
<text transform="matrix(1 0 0 1 137.9307 23.7291)" class="st13 st9 st10">o</text>
<text transform="matrix(1 0 0 1 149.3311 23.7291)" class="st3 st9 st10">g</text>
<text transform="matrix(1 0 0 1 160.5513 23.7291)" class="st14 st9 st10">l</text>
<text transform="matrix(1 0 0 1 165.4112 23.7291)" class="st12 st9 st10">e</text>
</svg>
