<?xml version="1.0" encoding="utf-8"?>
<!-- Generator: Adobe Illustrator 23.0.1, SVG Export Plug-In . SVG Version: 6.00 Build 0)  -->
<svg version="1.1" id="Laag_1" xmlns="http://www.w3.org/2000/svg" xmlns:xlink="http://www.w3.org/1999/xlink" x="0px" y="0px"
	 viewBox="0 0 258.3 500.7" style="enable-background:new 0 0 258.3 500.7;" xml:space="preserve">
<style type="text/css">
	.st0{fill:none;stroke:#517ABD;stroke-width:0.335;}
	.st1{clip-path:url(#SVGID_2_);fill:none;stroke:#FCBC05;}
	.st2{fill:none;stroke:#FCBC05;}
	.st3{fill:#FCBC05;}
	.st4{font-family:'Roboto-Light';}
	.st5{font-size:8px;}
	.st6{font-family:'Roboto-Bold';}
	.st7{font-size:10px;}
	.st8{clip-path:url(#SVGID_4_);}
	.st9{fill:#517ABD;}
	.st10{font-family:'Roboto-Regular';}
	.st11{font-size:20px;}
	.st12{letter-spacing:-1;}
	.st13{fill:#E84435;}
	.st14{fill:#31A852;}
</style>
<rect x="1.7" y="2.7" class="st0" width="255.3" height="491.8"/>
<g>
	<defs>
		<rect id="SVGID_1_" x="-8" y="-4.6" width="274.3" height="500.8"/>
	</defs>
	<clipPath id="SVGID_2_">
		<use xlink:href="#SVGID_1_"  style="overflow:visible;"/>
	</clipPath>
	<rect x="1.5" y="2.9" class="st1" width="255.3" height="491.8"/>
</g>
<line class="st2" x1="1.3" y1="37.9" x2="256.9" y2="37.9"/>
<line class="st2" x1="1.3" y1="92.4" x2="256.9" y2="92.4"/>
<line class="st2" x1="1.3" y1="474.3" x2="256.9" y2="474.3"/>
<line class="st2" x1="81.9" y1="92.7" x2="81.9" y2="474.3"/>
<line class="st2" x1="129.5" y1="37.9" x2="129.5" y2="92.4"/>
<path class="st3" d="M140.3,49.4h-0.5l-3.3-4.9v4.9h-0.5v-5.7h0.5l3.3,4.9v-4.9h0.5V49.4z M144.3,49.4c0-0.1-0.1-0.3-0.1-0.6
	c-0.2,0.2-0.4,0.4-0.6,0.5s-0.5,0.2-0.8,0.2c-0.4,0-0.7-0.1-1-0.3c-0.3-0.2-0.4-0.5-0.4-0.9c0-0.4,0.2-0.7,0.5-1
	c0.3-0.2,0.8-0.4,1.4-0.4h0.8v-0.5c0-0.3-0.1-0.5-0.3-0.7c-0.2-0.2-0.5-0.3-0.8-0.3c-0.3,0-0.6,0.1-0.8,0.2
	c-0.2,0.2-0.3,0.4-0.3,0.6l-0.5,0c0-0.3,0.2-0.6,0.5-0.9s0.7-0.4,1.2-0.4c0.5,0,0.8,0.1,1.1,0.4c0.3,0.2,0.4,0.6,0.4,1v2
	c0,0.4,0,0.7,0.1,0.9v0H144.3z M142.8,49.1c0.3,0,0.6-0.1,0.8-0.2c0.2-0.2,0.4-0.4,0.5-0.6v-0.9h-0.8c-0.5,0-0.8,0.1-1.1,0.3
	c-0.3,0.2-0.4,0.4-0.4,0.7c0,0.2,0.1,0.4,0.3,0.6S142.6,49.1,142.8,49.1z M146.4,45.2l0,0.7c0.2-0.3,0.4-0.4,0.6-0.6
	c0.2-0.1,0.5-0.2,0.8-0.2c0.7,0,1.1,0.3,1.3,0.8c0.2-0.3,0.4-0.5,0.6-0.6c0.3-0.1,0.5-0.2,0.8-0.2c0.9,0,1.4,0.5,1.4,1.5v2.8h-0.5
	v-2.8c0-0.4-0.1-0.7-0.2-0.8c-0.2-0.2-0.4-0.3-0.8-0.3c-0.3,0-0.6,0.1-0.9,0.3c-0.2,0.2-0.4,0.5-0.4,0.8v2.8h-0.5v-2.8
	c0-0.4-0.1-0.6-0.3-0.8c-0.2-0.2-0.4-0.3-0.8-0.3c-0.3,0-0.5,0.1-0.8,0.3s-0.4,0.4-0.5,0.7v2.9h-0.5v-4.2H146.4z M156.2,48.7
	c-0.3,0.5-0.8,0.7-1.5,0.7c-0.4,0-0.7-0.1-1-0.3c-0.3-0.2-0.5-0.4-0.7-0.7c-0.2-0.3-0.2-0.7-0.2-1.1v-0.2c0-0.4,0.1-0.8,0.2-1.1
	c0.2-0.3,0.4-0.6,0.7-0.8c0.3-0.2,0.6-0.3,0.9-0.3c0.5,0,0.9,0.2,1.2,0.5c0.3,0.4,0.5,0.8,0.5,1.4v0.3h-3v0.1c0,0.5,0.1,0.9,0.4,1.2
	c0.3,0.3,0.6,0.5,1,0.5c0.2,0,0.5,0,0.7-0.1c0.2-0.1,0.4-0.2,0.5-0.4L156.2,48.7L156.2,48.7z M154.6,45.5c-0.4,0-0.6,0.1-0.9,0.4
	c-0.2,0.3-0.4,0.6-0.4,1h2.5v-0.1c0-0.4-0.1-0.7-0.3-1C155.2,45.6,154.9,45.5,154.6,45.5z M161.8,49.4c0-0.1-0.1-0.3-0.1-0.6
	c-0.2,0.2-0.4,0.4-0.6,0.5s-0.5,0.2-0.8,0.2c-0.4,0-0.7-0.1-1-0.3c-0.3-0.2-0.4-0.5-0.4-0.9c0-0.4,0.2-0.7,0.5-1
	c0.3-0.2,0.8-0.4,1.4-0.4h0.8v-0.5c0-0.3-0.1-0.5-0.3-0.7c-0.2-0.2-0.5-0.3-0.8-0.3c-0.3,0-0.6,0.1-0.8,0.2
	c-0.2,0.2-0.3,0.4-0.3,0.6l-0.5,0c0-0.3,0.2-0.6,0.5-0.9s0.7-0.4,1.2-0.4c0.5,0,0.8,0.1,1.1,0.4c0.3,0.2,0.4,0.6,0.4,1v2
	c0,0.4,0,0.7,0.1,0.9v0H161.8z M160.3,49.1c0.3,0,0.6-0.1,0.8-0.2c0.2-0.2,0.4-0.4,0.5-0.6v-0.9h-0.8c-0.5,0-0.8,0.1-1.1,0.3
	c-0.3,0.2-0.4,0.4-0.4,0.7c0,0.2,0.1,0.4,0.3,0.6S160,49.1,160.3,49.1z M163.8,45.2l0,0.7c0.2-0.3,0.4-0.5,0.6-0.6
	c0.2-0.1,0.5-0.2,0.8-0.2c0.5,0,0.8,0.1,1,0.4c0.2,0.3,0.3,0.6,0.3,1.1v2.8h-0.5v-2.8c0-0.4-0.1-0.7-0.2-0.8
	c-0.2-0.2-0.4-0.3-0.8-0.3c-0.3,0-0.5,0.1-0.8,0.3c-0.2,0.2-0.4,0.4-0.5,0.7v2.9h-0.5v-4.2H163.8z M167.6,47.2
	c0-0.7,0.1-1.2,0.4-1.6c0.3-0.4,0.7-0.6,1.2-0.6c0.6,0,1,0.2,1.3,0.7v-2.4h0.5v6h-0.4l0-0.6c-0.3,0.4-0.7,0.6-1.3,0.6
	c-0.5,0-0.9-0.2-1.2-0.6C167.7,48.5,167.6,48,167.6,47.2L167.6,47.2z M168.1,47.3c0,0.5,0.1,1,0.3,1.3c0.2,0.3,0.5,0.5,0.9,0.5
	c0.6,0,1-0.3,1.2-0.8v-2c-0.2-0.5-0.6-0.8-1.2-0.8c-0.4,0-0.7,0.2-0.9,0.5S168.1,46.7,168.1,47.3z M174.5,49.4v-3.8h-0.7v-0.4h0.7
	v-0.4c0-0.5,0.1-0.8,0.4-1c0.2-0.2,0.6-0.4,1-0.4c0.3,0,0.7,0.1,1.1,0.2l-0.1,0.4c-0.3-0.1-0.6-0.2-1-0.2c-0.6,0-1,0.3-1,1v0.4h1
	v0.4h-1v3.8H174.5z M177.2,49.4h-0.5v-4.2h0.5V49.4z M180.4,45.6c-0.1,0-0.2,0-0.3,0c-0.3,0-0.5,0.1-0.7,0.2
	c-0.2,0.2-0.3,0.4-0.4,0.7v2.9h-0.5v-4.2h0.5l0,0.7c0.2-0.5,0.6-0.8,1.2-0.8c0.1,0,0.2,0,0.3,0.1L180.4,45.6z M183.7,48.3
	c0-0.2-0.1-0.4-0.3-0.6c-0.2-0.1-0.5-0.3-0.8-0.3c-0.4-0.1-0.7-0.2-0.9-0.3c-0.2-0.1-0.4-0.2-0.5-0.4c-0.1-0.1-0.2-0.3-0.2-0.5
	c0-0.3,0.1-0.6,0.4-0.8c0.3-0.2,0.6-0.3,1.1-0.3c0.5,0,0.8,0.1,1.1,0.3c0.3,0.2,0.4,0.5,0.4,0.9h-0.5c0-0.2-0.1-0.5-0.3-0.6
	s-0.5-0.2-0.8-0.2c-0.3,0-0.6,0.1-0.7,0.2c-0.2,0.1-0.3,0.3-0.3,0.5c0,0.2,0.1,0.4,0.2,0.5c0.2,0.1,0.4,0.2,0.8,0.3
	c0.4,0.1,0.7,0.2,0.9,0.3c0.2,0.1,0.4,0.2,0.5,0.4c0.1,0.2,0.1,0.3,0.1,0.6c0,0.4-0.1,0.6-0.4,0.9c-0.3,0.2-0.7,0.3-1.1,0.3
	c-0.5,0-0.9-0.1-1.2-0.4c-0.3-0.2-0.5-0.5-0.5-0.9h0.5c0,0.3,0.1,0.5,0.3,0.6c0.2,0.2,0.5,0.2,0.8,0.2c0.3,0,0.6-0.1,0.8-0.2
	C183.6,48.7,183.7,48.5,183.7,48.3z M185.9,44.1v1.1h0.9v0.4h-0.9v2.8c0,0.2,0,0.4,0.1,0.5c0.1,0.1,0.2,0.2,0.4,0.2
	c0.1,0,0.2,0,0.4,0l0,0.4c-0.1,0-0.3,0.1-0.5,0.1c-0.3,0-0.6-0.1-0.7-0.3c-0.1-0.2-0.2-0.5-0.2-0.8v-2.8h-0.8v-0.4h0.8v-1.1H185.9z
	 M190.2,45.2l0,0.7c0.2-0.3,0.4-0.5,0.6-0.6c0.2-0.1,0.5-0.2,0.8-0.2c0.5,0,0.8,0.1,1,0.4c0.2,0.3,0.3,0.6,0.3,1.1v2.8h-0.5v-2.8
	c0-0.4-0.1-0.7-0.2-0.8c-0.2-0.2-0.4-0.3-0.8-0.3c-0.3,0-0.5,0.1-0.8,0.3c-0.2,0.2-0.4,0.4-0.5,0.7v2.9h-0.5v-4.2H190.2z
	 M196.8,49.4c0-0.1-0.1-0.3-0.1-0.6c-0.2,0.2-0.4,0.4-0.6,0.5s-0.5,0.2-0.8,0.2c-0.4,0-0.7-0.1-1-0.3c-0.3-0.2-0.4-0.5-0.4-0.9
	c0-0.4,0.2-0.7,0.5-1c0.3-0.2,0.8-0.4,1.4-0.4h0.8v-0.5c0-0.3-0.1-0.5-0.3-0.7c-0.2-0.2-0.5-0.3-0.8-0.3c-0.3,0-0.6,0.1-0.8,0.2
	c-0.2,0.2-0.3,0.4-0.3,0.6l-0.5,0c0-0.3,0.2-0.6,0.5-0.9s0.7-0.4,1.2-0.4c0.5,0,0.8,0.1,1.1,0.4c0.3,0.2,0.4,0.6,0.4,1v2
	c0,0.4,0,0.7,0.1,0.9v0H196.8z M195.3,49.1c0.3,0,0.6-0.1,0.8-0.2c0.2-0.2,0.4-0.4,0.5-0.6v-0.9h-0.8c-0.5,0-0.8,0.1-1.1,0.3
	c-0.3,0.2-0.4,0.4-0.4,0.7c0,0.2,0.1,0.4,0.3,0.6S195,49.1,195.3,49.1z M198.8,45.2l0,0.7c0.2-0.3,0.4-0.4,0.6-0.6
	c0.2-0.1,0.5-0.2,0.8-0.2c0.7,0,1.1,0.3,1.3,0.8c0.2-0.3,0.4-0.5,0.6-0.6c0.3-0.1,0.5-0.2,0.8-0.2c0.9,0,1.4,0.5,1.4,1.5v2.8h-0.5
	v-2.8c0-0.4-0.1-0.7-0.2-0.8c-0.2-0.2-0.4-0.3-0.8-0.3c-0.3,0-0.6,0.1-0.9,0.3c-0.2,0.2-0.4,0.5-0.4,0.8v2.8h-0.5v-2.8
	c0-0.4-0.1-0.6-0.3-0.8c-0.2-0.2-0.4-0.3-0.8-0.3c-0.3,0-0.5,0.1-0.8,0.3s-0.4,0.4-0.5,0.7v2.9h-0.5v-4.2H198.8z M208.6,48.7
	c-0.3,0.5-0.8,0.7-1.5,0.7c-0.4,0-0.7-0.1-1-0.3c-0.3-0.2-0.5-0.4-0.7-0.7c-0.2-0.3-0.2-0.7-0.2-1.1v-0.2c0-0.4,0.1-0.8,0.2-1.1
	c0.2-0.3,0.4-0.6,0.7-0.8c0.3-0.2,0.6-0.3,0.9-0.3c0.5,0,0.9,0.2,1.2,0.5c0.3,0.4,0.5,0.8,0.5,1.4v0.3h-3v0.1c0,0.5,0.1,0.9,0.4,1.2
	c0.3,0.3,0.6,0.5,1,0.5c0.2,0,0.5,0,0.7-0.1c0.2-0.1,0.4-0.2,0.5-0.4L208.6,48.7L208.6,48.7z M207,45.5c-0.4,0-0.6,0.1-0.9,0.4
	c-0.2,0.3-0.4,0.6-0.4,1h2.5v-0.1c0-0.4-0.1-0.7-0.3-1C207.7,45.6,207.4,45.5,207,45.5z M211.3,47.2c0-0.4,0.1-0.8,0.2-1.1
	c0.2-0.3,0.4-0.6,0.7-0.8c0.3-0.2,0.6-0.3,1-0.3c0.6,0,1,0.2,1.4,0.6c0.3,0.4,0.5,0.9,0.5,1.6v0.1c0,0.4-0.1,0.8-0.2,1.1
	c-0.2,0.3-0.4,0.6-0.7,0.8c-0.3,0.2-0.6,0.3-1,0.3c-0.6,0-1-0.2-1.4-0.6C211.5,48.5,211.3,48,211.3,47.2L211.3,47.2z M211.8,47.3
	c0,0.5,0.1,0.9,0.4,1.2s0.6,0.5,1,0.5c0.4,0,0.8-0.2,1-0.5s0.4-0.8,0.4-1.3v-0.1c0-0.3-0.1-0.6-0.2-0.9c-0.1-0.3-0.3-0.5-0.5-0.6
	c-0.2-0.1-0.5-0.2-0.7-0.2c-0.4,0-0.8,0.2-1,0.5C211.9,46.3,211.8,46.7,211.8,47.3L211.8,47.3z M216.4,49.4v-3.8h-0.7v-0.4h0.7v-0.5
	c0-0.4,0.1-0.8,0.3-1c0.2-0.2,0.5-0.3,0.9-0.3c0.2,0,0.3,0,0.5,0.1l0,0.4c-0.1,0-0.3,0-0.4,0c-0.3,0-0.5,0.1-0.6,0.2
	c-0.1,0.2-0.2,0.4-0.2,0.7v0.5h1v0.4h-1v3.8H216.4z M221.4,44.1v1.1h0.9v0.4h-0.9v2.8c0,0.2,0,0.4,0.1,0.5c0.1,0.1,0.2,0.2,0.4,0.2
	c0.1,0,0.2,0,0.4,0l0,0.4c-0.1,0-0.3,0.1-0.5,0.1c-0.3,0-0.6-0.1-0.7-0.3c-0.1-0.2-0.2-0.5-0.2-0.8v-2.8h-0.8v-0.4h0.8v-1.1H221.4z
	 M223.7,45.9c0.2-0.3,0.4-0.4,0.6-0.6c0.2-0.1,0.5-0.2,0.8-0.2c0.5,0,0.8,0.1,1,0.4c0.2,0.3,0.3,0.6,0.3,1.1v2.8h-0.5v-2.8
	c0-0.4-0.1-0.7-0.2-0.8c-0.2-0.2-0.4-0.3-0.8-0.3c-0.3,0-0.5,0.1-0.8,0.3c-0.2,0.2-0.4,0.4-0.5,0.7v2.9h-0.5v-6h0.5V45.9z
	 M230.7,48.7c-0.3,0.5-0.8,0.7-1.5,0.7c-0.4,0-0.7-0.1-1-0.3c-0.3-0.2-0.5-0.4-0.7-0.7c-0.2-0.3-0.2-0.7-0.2-1.1v-0.2
	c0-0.4,0.1-0.8,0.2-1.1c0.2-0.3,0.4-0.6,0.7-0.8c0.3-0.2,0.6-0.3,0.9-0.3c0.5,0,0.9,0.2,1.2,0.5c0.3,0.4,0.5,0.8,0.5,1.4v0.3h-3v0.1
	c0,0.5,0.1,0.9,0.4,1.2c0.3,0.3,0.6,0.5,1,0.5c0.2,0,0.5,0,0.7-0.1c0.2-0.1,0.4-0.2,0.5-0.4L230.7,48.7L230.7,48.7z M229.1,45.5
	c-0.4,0-0.6,0.1-0.9,0.4c-0.2,0.3-0.4,0.6-0.4,1h2.5v-0.1c0-0.4-0.1-0.7-0.3-1C229.8,45.6,229.5,45.5,229.1,45.5z"/>
<text transform="matrix(1 0 0 1 135.3534 58.9959)"><tspan x="0" y="0" class="st3 st4 st5">p</tspan><tspan x="4.4" y="0" class="st3 st4 st5">r</tspan><tspan x="7.1" y="0" class="st3 st4 st5">escriber:</tspan></text>
<text transform="matrix(1 0 0 1 135.3534 78.1961)"><tspan x="0" y="0" class="st3 st6 st5">DO</tspan><tspan x="10.7" y="0" class="st3 st6 st5">CT</tspan><tspan x="20.7" y="0" class="st3 st6 st5">OR GOOGLE</tspan></text>
<text transform="matrix(1 0 0 1 7.0575 104.2518)"><tspan x="0" y="0" class="st3 st4 st5">Rese</tspan><tspan x="17.4" y="0" class="st3 st4 st5">r</tspan><tspan x="20.1" y="0" class="st3 st4 st5">v</tspan><tspan x="23.9" y="0" class="st3 st4 st5">ed on the </tspan></text>
<text transform="matrix(1 0 0 1 7.0575 113.8514)" class="st3 st4 st5">packaging vignette</text>
<text transform="matrix(1 0 0 1 95.2597 487.2977)" class="st3 st4 st7">PRESCRIPTION</text>
<g>
	<defs>
		<rect id="SVGID_3_" x="13" y="42.5" width="104.3" height="44.9"/>
	</defs>
	<clipPath id="SVGID_4_">
		<use xlink:href="#SVGID_3_"  style="overflow:visible;"/>
	</clipPath>
	<g class="st8">
		<defs>
			<rect id="SVGID_5_" x="12" y="42.5" width="106.5" height="45.9"/>
		</defs>
		<clipPath id="SVGID_6_">
			<use xlink:href="#SVGID_5_"  style="overflow:visible;"/>
		</clipPath>
		<g style="clip-path:url(#SVGID_6_);">
			
				<image style="overflow:visible;" width="471" height="203" xlink:href="9205FFFF8F7084BF.png"  transform="matrix(0.2261 0 0 0.2261 11.9862 42.5267)">
			</image>
		</g>
	</g>
</g>
<text transform="matrix(1 0 0 1 83.1454 25.2923)"><tspan x="0" y="0" class="st9 st10 st11">D</tspan><tspan x="13.1" y="0" class="st9 st10 st11 st12">r</tspan><tspan x="18.7" y="0" class="st9 st10 st11">. G</tspan></text>
<text transform="matrix(1 0 0 1 125.6674 25.2923)" class="st13 st10 st11">o</text>
<text transform="matrix(1 0 0 1 137.0673 25.2923)" class="st3 st10 st11">o</text>
<text transform="matrix(1 0 0 1 148.4677 25.2923)" class="st9 st10 st11">g</text>
<text transform="matrix(1 0 0 1 159.6879 25.2923)" class="st14 st10 st11">l</text>
<text transform="matrix(1 0 0 1 164.5477 25.2923)" class="st13 st10 st11">e</text>
<text transform="matrix(1 0 0 1 90.8812 106.3875)" class="st3 st6 st5">R /</text>
<text transform="matrix(1 0 0 1 90.8812 125.5877)"><tspan x="0" y="0" class="st3 st4 st5">App</tspan><tspan x="13.9" y="0" class="st3 st4 st5">r</tspan><tspan x="16.5" y="0" class="st3 st4 st5">o</tspan><tspan x="20.9" y="0" class="st3 st4 st5">ximately 75% of people acqui</tspan><tspan x="122.4" y="0" class="st3 st4 st5">r</tspan><tspan x="125" y="0" class="st3 st4 st5">e </tspan></text>
<text transform="matrix(1 0 0 1 90.8812 135.1873)"><tspan x="0" y="0" class="st3 st4 st5">knowledge about health th</tspan><tspan x="92.3" y="0" class="st3 st4 st5">r</tspan><tspan x="94.9" y="0" class="st3 st4 st5">ough the media. </tspan></text>
<text transform="matrix(1 0 0 1 90.8812 144.7879)"><tspan x="0" y="0" class="st3 st4 st5">The</tspan><tspan x="13.3" y="0" class="st3 st4 st5">r</tspan><tspan x="15.9" y="0" class="st3 st4 st5">e is not only </tspan><tspan x="59.6" y="0" class="st3 st4 st5">v</tspan><tspan x="63.4" y="0" class="st3 st4 st5">e</tspan><tspan x="67.5" y="0" class="st3 st4 st5">r</tspan><tspan x="70.3" y="0" class="st3 st4 st5">y useful information </tspan></text>
<path class="st3" d="M94.2,154.4c0-0.1-0.1-0.3-0.1-0.6c-0.2,0.2-0.4,0.4-0.6,0.5s-0.5,0.2-0.8,0.2c-0.4,0-0.7-0.1-1-0.3
	c-0.3-0.2-0.4-0.5-0.4-0.9c0-0.4,0.2-0.7,0.5-1c0.3-0.2,0.8-0.4,1.4-0.4h0.8v-0.5c0-0.3-0.1-0.5-0.3-0.7c-0.2-0.2-0.5-0.3-0.8-0.3
	c-0.3,0-0.6,0.1-0.8,0.2c-0.2,0.2-0.3,0.4-0.3,0.6l-0.5,0c0-0.3,0.2-0.6,0.5-0.9s0.7-0.4,1.2-0.4c0.5,0,0.8,0.1,1.1,0.4
	c0.3,0.2,0.4,0.6,0.4,1v2c0,0.4,0,0.7,0.1,0.9v0H94.2z M92.7,154.1c0.3,0,0.6-0.1,0.8-0.2c0.2-0.2,0.4-0.4,0.5-0.6v-0.9h-0.8
	c-0.5,0-0.8,0.1-1.1,0.3c-0.3,0.2-0.4,0.4-0.4,0.7c0,0.2,0.1,0.4,0.3,0.6S92.4,154.1,92.7,154.1z M99.2,152.3c0,0.7-0.1,1.2-0.4,1.6
	c-0.3,0.4-0.7,0.6-1.2,0.6c-0.6,0-1-0.2-1.3-0.7l0,0.6h-0.4v-6h0.5v2.4c0.3-0.5,0.7-0.7,1.3-0.7c0.5,0,0.9,0.2,1.2,0.6
	C99,151,99.2,151.6,99.2,152.3L99.2,152.3z M98.7,152.2c0-0.6-0.1-1-0.3-1.3c-0.2-0.3-0.5-0.5-0.9-0.5c-0.3,0-0.6,0.1-0.8,0.2
	c-0.2,0.1-0.4,0.4-0.5,0.6v1.9c0.2,0.5,0.6,0.8,1.2,0.8c0.4,0,0.7-0.2,0.9-0.5C98.6,153.3,98.7,152.8,98.7,152.2z M100,152.2
	c0-0.4,0.1-0.8,0.2-1.1c0.2-0.3,0.4-0.6,0.7-0.8c0.3-0.2,0.6-0.3,1-0.3c0.6,0,1,0.2,1.4,0.6c0.3,0.4,0.5,0.9,0.5,1.6v0.1
	c0,0.4-0.1,0.8-0.2,1.1c-0.2,0.3-0.4,0.6-0.7,0.8c-0.3,0.2-0.6,0.3-1,0.3c-0.6,0-1-0.2-1.4-0.6C100.1,153.5,100,153,100,152.2
	L100,152.2z M100.4,152.3c0,0.5,0.1,0.9,0.4,1.2s0.6,0.5,1,0.5c0.4,0,0.8-0.2,1-0.5s0.4-0.8,0.4-1.3v-0.1c0-0.3-0.1-0.6-0.2-0.9
	c-0.1-0.3-0.3-0.5-0.5-0.6c-0.2-0.1-0.5-0.2-0.7-0.2c-0.4,0-0.8,0.2-1,0.5C100.6,151.3,100.4,151.7,100.4,152.3L100.4,152.3z
	 M107.4,153.9c-0.3,0.4-0.7,0.6-1.3,0.6c-0.5,0-0.8-0.1-1-0.4s-0.4-0.6-0.4-1.2v-2.8h0.5v2.7c0,0.8,0.3,1.2,1,1.2
	c0.7,0,1.1-0.3,1.3-0.8v-3.1h0.5v4.2h-0.5L107.4,153.9z M109.8,149.1v1.1h0.9v0.4h-0.9v2.8c0,0.2,0,0.4,0.1,0.5
	c0.1,0.1,0.2,0.2,0.4,0.2c0.1,0,0.2,0,0.4,0l0,0.4c-0.1,0-0.3,0.1-0.5,0.1c-0.3,0-0.6-0.1-0.7-0.3c-0.1-0.2-0.2-0.5-0.2-0.8v-2.8
	h-0.8v-0.4h0.8v-1.1H109.8z M114,150.2l0,0.7c0.2-0.3,0.4-0.4,0.6-0.6c0.2-0.1,0.5-0.2,0.8-0.2c0.7,0,1.1,0.3,1.3,0.8
	c0.2-0.3,0.4-0.5,0.6-0.6c0.3-0.1,0.5-0.2,0.8-0.2c0.9,0,1.4,0.5,1.4,1.5v2.8H119v-2.8c0-0.4-0.1-0.7-0.2-0.8
	c-0.2-0.2-0.4-0.3-0.8-0.3c-0.3,0-0.6,0.1-0.9,0.3c-0.2,0.2-0.4,0.5-0.4,0.8v2.8h-0.5v-2.8c0-0.4-0.1-0.6-0.3-0.8
	c-0.2-0.2-0.4-0.3-0.8-0.3c-0.3,0-0.5,0.1-0.8,0.3s-0.4,0.4-0.5,0.7v2.9h-0.5v-4.2H114z M123.8,153.7c-0.3,0.5-0.8,0.7-1.5,0.7
	c-0.4,0-0.7-0.1-1-0.3c-0.3-0.2-0.5-0.4-0.7-0.7c-0.2-0.3-0.2-0.7-0.2-1.1v-0.2c0-0.4,0.1-0.8,0.2-1.1c0.2-0.3,0.4-0.6,0.7-0.8
	c0.3-0.2,0.6-0.3,0.9-0.3c0.5,0,0.9,0.2,1.2,0.5c0.3,0.4,0.5,0.8,0.5,1.4v0.3h-3v0.1c0,0.5,0.1,0.9,0.4,1.2c0.3,0.3,0.6,0.5,1,0.5
	c0.2,0,0.5,0,0.7-0.1c0.2-0.1,0.4-0.2,0.5-0.4L123.8,153.7L123.8,153.7z M122.2,150.5c-0.4,0-0.6,0.1-0.9,0.4
	c-0.2,0.3-0.4,0.6-0.4,1h2.5v-0.1c0-0.4-0.1-0.7-0.3-1C122.9,150.6,122.6,150.5,122.2,150.5z M124.6,152.2c0-0.7,0.1-1.2,0.4-1.6
	c0.3-0.4,0.7-0.6,1.2-0.6c0.6,0,1,0.2,1.3,0.7v-2.4h0.5v6h-0.4l0-0.6c-0.3,0.4-0.7,0.6-1.3,0.6c-0.5,0-0.9-0.2-1.2-0.6
	C124.8,153.5,124.6,153,124.6,152.2L124.6,152.2z M125.1,152.3c0,0.5,0.1,1,0.3,1.3c0.2,0.3,0.5,0.5,0.9,0.5c0.6,0,1-0.3,1.2-0.8v-2
	c-0.2-0.5-0.6-0.8-1.2-0.8c-0.4,0-0.7,0.2-0.9,0.5S125.1,151.7,125.1,152.3z M129.2,148.9c0-0.1,0-0.2,0.1-0.2
	c0.1-0.1,0.1-0.1,0.2-0.1c0.1,0,0.2,0,0.2,0.1s0.1,0.1,0.1,0.2s0,0.2-0.1,0.2c-0.1,0.1-0.1,0.1-0.2,0.1c-0.1,0-0.2,0-0.2-0.1
	C129.3,149.1,129.2,149,129.2,148.9z M129.8,154.4h-0.5v-4.2h0.5V154.4z M132.6,154.1c0.3,0,0.6-0.1,0.8-0.3
	c0.2-0.2,0.3-0.4,0.4-0.7h0.4c0,0.3-0.1,0.5-0.2,0.7c-0.1,0.2-0.3,0.4-0.6,0.5s-0.5,0.2-0.8,0.2c-0.6,0-1-0.2-1.3-0.6
	c-0.3-0.4-0.5-0.9-0.5-1.6v-0.1c0-0.4,0.1-0.8,0.2-1.1c0.1-0.3,0.4-0.6,0.6-0.7c0.3-0.2,0.6-0.3,1-0.3c0.5,0,0.8,0.1,1.1,0.4
	c0.3,0.3,0.5,0.6,0.5,1.1h-0.4c0-0.3-0.1-0.6-0.4-0.8c-0.2-0.2-0.5-0.3-0.8-0.3c-0.4,0-0.7,0.2-1,0.5c-0.2,0.3-0.3,0.7-0.3,1.3v0.1
	c0,0.5,0.1,1,0.3,1.3C131.9,153.9,132.2,154.1,132.6,154.1z M137.8,154.4c0-0.1-0.1-0.3-0.1-0.6c-0.2,0.2-0.4,0.4-0.6,0.5
	s-0.5,0.2-0.8,0.2c-0.4,0-0.7-0.1-1-0.3c-0.3-0.2-0.4-0.5-0.4-0.9c0-0.4,0.2-0.7,0.5-1c0.3-0.2,0.8-0.4,1.4-0.4h0.8v-0.5
	c0-0.3-0.1-0.5-0.3-0.7c-0.2-0.2-0.5-0.3-0.8-0.3c-0.3,0-0.6,0.1-0.8,0.2c-0.2,0.2-0.3,0.4-0.3,0.6l-0.5,0c0-0.3,0.2-0.6,0.5-0.9
	s0.7-0.4,1.2-0.4c0.5,0,0.8,0.1,1.1,0.4c0.3,0.2,0.4,0.6,0.4,1v2c0,0.4,0,0.7,0.1,0.9v0H137.8z M136.4,154.1c0.3,0,0.6-0.1,0.8-0.2
	c0.2-0.2,0.4-0.4,0.5-0.6v-0.9h-0.8c-0.5,0-0.8,0.1-1.1,0.3c-0.3,0.2-0.4,0.4-0.4,0.7c0,0.2,0.1,0.4,0.3,0.6
	S136.1,154.1,136.4,154.1z M140,154.4h-0.5v-6h0.5V154.4z M145.9,154.4c0-0.1-0.1-0.3-0.1-0.6c-0.2,0.2-0.4,0.4-0.6,0.5
	s-0.5,0.2-0.8,0.2c-0.4,0-0.7-0.1-1-0.3c-0.3-0.2-0.4-0.5-0.4-0.9c0-0.4,0.2-0.7,0.5-1c0.3-0.2,0.8-0.4,1.4-0.4h0.8v-0.5
	c0-0.3-0.1-0.5-0.3-0.7c-0.2-0.2-0.5-0.3-0.8-0.3c-0.3,0-0.6,0.1-0.8,0.2c-0.2,0.2-0.3,0.4-0.3,0.6l-0.5,0c0-0.3,0.2-0.6,0.5-0.9
	s0.7-0.4,1.2-0.4c0.5,0,0.8,0.1,1.1,0.4c0.3,0.2,0.4,0.6,0.4,1v2c0,0.4,0,0.7,0.1,0.9v0H145.9z M144.4,154.1c0.3,0,0.6-0.1,0.8-0.2
	c0.2-0.2,0.4-0.4,0.5-0.6v-0.9h-0.8c-0.5,0-0.8,0.1-1.1,0.3c-0.3,0.2-0.4,0.4-0.4,0.7c0,0.2,0.1,0.4,0.3,0.6
	S144.1,154.1,144.4,154.1z M147.9,150.2l0,0.7c0.2-0.3,0.4-0.5,0.6-0.6c0.2-0.1,0.5-0.2,0.8-0.2c0.5,0,0.8,0.1,1,0.4
	c0.2,0.3,0.3,0.6,0.3,1.1v2.8h-0.5v-2.8c0-0.4-0.1-0.7-0.2-0.8c-0.2-0.2-0.4-0.3-0.8-0.3c-0.3,0-0.5,0.1-0.8,0.3
	c-0.2,0.2-0.4,0.4-0.5,0.7v2.9h-0.5v-4.2H147.9z M151.7,152.2c0-0.7,0.1-1.2,0.4-1.6c0.3-0.4,0.7-0.6,1.2-0.6c0.6,0,1,0.2,1.3,0.7
	v-2.4h0.5v6h-0.4l0-0.6c-0.3,0.4-0.7,0.6-1.3,0.6c-0.5,0-0.9-0.2-1.2-0.6C151.8,153.5,151.7,153,151.7,152.2L151.7,152.2z
	 M152.2,152.3c0,0.5,0.1,1,0.3,1.3c0.2,0.3,0.5,0.5,0.9,0.5c0.6,0,1-0.3,1.2-0.8v-2c-0.2-0.5-0.6-0.8-1.2-0.8
	c-0.4,0-0.7,0.2-0.9,0.5S152.2,151.7,152.2,152.3z M160.8,153.3c0-0.2-0.1-0.4-0.3-0.6c-0.2-0.1-0.5-0.3-0.8-0.3
	c-0.4-0.1-0.7-0.2-0.9-0.3c-0.2-0.1-0.4-0.2-0.5-0.4c-0.1-0.1-0.2-0.3-0.2-0.5c0-0.3,0.1-0.6,0.4-0.8c0.3-0.2,0.6-0.3,1.1-0.3
	c0.5,0,0.8,0.1,1.1,0.3c0.3,0.2,0.4,0.5,0.4,0.9h-0.5c0-0.2-0.1-0.5-0.3-0.6s-0.5-0.2-0.8-0.2c-0.3,0-0.6,0.1-0.7,0.2
	c-0.2,0.1-0.3,0.3-0.3,0.5c0,0.2,0.1,0.4,0.2,0.5c0.2,0.1,0.4,0.2,0.8,0.3c0.4,0.1,0.7,0.2,0.9,0.3c0.2,0.1,0.4,0.2,0.5,0.4
	c0.1,0.2,0.1,0.3,0.1,0.6c0,0.4-0.1,0.6-0.4,0.9c-0.3,0.2-0.7,0.3-1.1,0.3c-0.5,0-0.9-0.1-1.2-0.4c-0.3-0.2-0.5-0.5-0.5-0.9h0.5
	c0,0.3,0.1,0.5,0.3,0.6c0.2,0.2,0.5,0.2,0.8,0.2c0.3,0,0.6-0.1,0.8-0.2C160.7,153.7,160.8,153.5,160.8,153.3z M163.9,154.1
	c0.3,0,0.6-0.1,0.8-0.3c0.2-0.2,0.3-0.4,0.4-0.7h0.4c0,0.3-0.1,0.5-0.2,0.7c-0.1,0.2-0.3,0.4-0.6,0.5s-0.5,0.2-0.8,0.2
	c-0.6,0-1-0.2-1.3-0.6c-0.3-0.4-0.5-0.9-0.5-1.6v-0.1c0-0.4,0.1-0.8,0.2-1.1c0.1-0.3,0.4-0.6,0.6-0.7c0.3-0.2,0.6-0.3,1-0.3
	c0.5,0,0.8,0.1,1.1,0.4c0.3,0.3,0.5,0.6,0.5,1.1h-0.4c0-0.3-0.1-0.6-0.4-0.8c-0.2-0.2-0.5-0.3-0.8-0.3c-0.4,0-0.7,0.2-1,0.5
	c-0.2,0.3-0.3,0.7-0.3,1.3v0.1c0,0.5,0.1,1,0.3,1.3C163.1,153.9,163.5,154.1,163.9,154.1z M166.4,148.9c0-0.1,0-0.2,0.1-0.2
	c0.1-0.1,0.1-0.1,0.2-0.1c0.1,0,0.2,0,0.2,0.1s0.1,0.1,0.1,0.2s0,0.2-0.1,0.2c-0.1,0.1-0.1,0.1-0.2,0.1c-0.1,0-0.2,0-0.2-0.1
	C166.4,149.1,166.4,149,166.4,148.9z M167,154.4h-0.5v-4.2h0.5V154.4z M171.4,153.7c-0.3,0.5-0.8,0.7-1.5,0.7c-0.4,0-0.7-0.1-1-0.3
	c-0.3-0.2-0.5-0.4-0.7-0.7c-0.2-0.3-0.2-0.7-0.2-1.1v-0.2c0-0.4,0.1-0.8,0.2-1.1c0.2-0.3,0.4-0.6,0.7-0.8c0.3-0.2,0.6-0.3,0.9-0.3
	c0.5,0,0.9,0.2,1.2,0.5c0.3,0.4,0.5,0.8,0.5,1.4v0.3h-3v0.1c0,0.5,0.1,0.9,0.4,1.2c0.3,0.3,0.6,0.5,1,0.5c0.2,0,0.5,0,0.7-0.1
	c0.2-0.1,0.4-0.2,0.5-0.4L171.4,153.7L171.4,153.7z M169.8,150.5c-0.4,0-0.6,0.1-0.9,0.4c-0.2,0.3-0.4,0.6-0.4,1h2.5v-0.1
	c0-0.4-0.1-0.7-0.3-1C170.4,150.6,170.1,150.5,169.8,150.5z M172.8,150.2l0,0.7c0.2-0.3,0.4-0.5,0.6-0.6c0.2-0.1,0.5-0.2,0.8-0.2
	c0.5,0,0.8,0.1,1,0.4c0.2,0.3,0.3,0.6,0.3,1.1v2.8h-0.5v-2.8c0-0.4-0.1-0.7-0.2-0.8c-0.2-0.2-0.4-0.3-0.8-0.3
	c-0.3,0-0.5,0.1-0.8,0.3c-0.2,0.2-0.4,0.4-0.5,0.7v2.9h-0.5v-4.2H172.8z M177.5,149.1v1.1h0.9v0.4h-0.9v2.8c0,0.2,0,0.4,0.1,0.5
	c0.1,0.1,0.2,0.2,0.4,0.2c0.1,0,0.2,0,0.4,0l0,0.4c-0.1,0-0.3,0.1-0.5,0.1c-0.3,0-0.6-0.1-0.7-0.3c-0.1-0.2-0.2-0.5-0.2-0.8v-2.8
	h-0.8v-0.4h0.8v-1.1H177.5z M179.3,148.9c0-0.1,0-0.2,0.1-0.2c0.1-0.1,0.1-0.1,0.2-0.1c0.1,0,0.2,0,0.2,0.1s0.1,0.1,0.1,0.2
	s0,0.2-0.1,0.2c-0.1,0.1-0.1,0.1-0.2,0.1c-0.1,0-0.2,0-0.2-0.1C179.3,149.1,179.3,149,179.3,148.9z M179.9,154.4h-0.5v-4.2h0.5
	V154.4z M181.4,154.4v-3.8h-0.7v-0.4h0.7v-0.4c0-0.5,0.1-0.8,0.4-1c0.2-0.2,0.6-0.4,1-0.4c0.3,0,0.7,0.1,1.1,0.2l-0.1,0.4
	c-0.3-0.1-0.6-0.2-1-0.2c-0.6,0-1,0.3-1,1v0.4h1v0.4h-1v3.8H181.4z M184.1,154.4h-0.5v-4.2h0.5V154.4z M187,154.1
	c0.3,0,0.6-0.1,0.8-0.3c0.2-0.2,0.3-0.4,0.4-0.7h0.4c0,0.3-0.1,0.5-0.2,0.7c-0.1,0.2-0.3,0.4-0.6,0.5s-0.5,0.2-0.8,0.2
	c-0.6,0-1-0.2-1.3-0.6c-0.3-0.4-0.5-0.9-0.5-1.6v-0.1c0-0.4,0.1-0.8,0.2-1.1c0.1-0.3,0.4-0.6,0.6-0.7c0.3-0.2,0.6-0.3,1-0.3
	c0.5,0,0.8,0.1,1.1,0.4c0.3,0.3,0.5,0.6,0.5,1.1h-0.4c0-0.3-0.1-0.6-0.4-0.8c-0.2-0.2-0.5-0.3-0.8-0.3c-0.4,0-0.7,0.2-1,0.5
	c-0.2,0.3-0.3,0.7-0.3,1.3v0.1c0,0.5,0.1,1,0.3,1.3C186.2,153.9,186.6,154.1,187,154.1z M193.4,150.6c-0.1,0-0.2,0-0.3,0
	c-0.3,0-0.5,0.1-0.7,0.2c-0.2,0.2-0.3,0.4-0.4,0.7v2.9h-0.5v-4.2h0.5l0,0.7c0.2-0.5,0.6-0.8,1.2-0.8c0.1,0,0.2,0,0.3,0.1
	L193.4,150.6z M197.2,153.7c-0.3,0.5-0.8,0.7-1.5,0.7c-0.4,0-0.7-0.1-1-0.3c-0.3-0.2-0.5-0.4-0.7-0.7c-0.2-0.3-0.2-0.7-0.2-1.1v-0.2
	c0-0.4,0.1-0.8,0.2-1.1c0.2-0.3,0.4-0.6,0.7-0.8c0.3-0.2,0.6-0.3,0.9-0.3c0.5,0,0.9,0.2,1.2,0.5c0.3,0.4,0.5,0.8,0.5,1.4v0.3h-3v0.1
	c0,0.5,0.1,0.9,0.4,1.2c0.3,0.3,0.6,0.5,1,0.5c0.2,0,0.5,0,0.7-0.1c0.2-0.1,0.4-0.2,0.5-0.4L197.2,153.7L197.2,153.7z M195.7,150.5
	c-0.4,0-0.6,0.1-0.9,0.4c-0.2,0.3-0.4,0.6-0.4,1h2.5v-0.1c0-0.4-0.1-0.7-0.3-1C196.3,150.6,196,150.5,195.7,150.5z M200.8,153.3
	c0-0.2-0.1-0.4-0.3-0.6c-0.2-0.1-0.5-0.3-0.8-0.3c-0.4-0.1-0.7-0.2-0.9-0.3c-0.2-0.1-0.4-0.2-0.5-0.4c-0.1-0.1-0.2-0.3-0.2-0.5
	c0-0.3,0.1-0.6,0.4-0.8c0.3-0.2,0.6-0.3,1.1-0.3c0.5,0,0.8,0.1,1.1,0.3c0.3,0.2,0.4,0.5,0.4,0.9h-0.5c0-0.2-0.1-0.5-0.3-0.6
	s-0.5-0.2-0.8-0.2c-0.3,0-0.6,0.1-0.7,0.2c-0.2,0.1-0.3,0.3-0.3,0.5c0,0.2,0.1,0.4,0.2,0.5c0.2,0.1,0.4,0.2,0.8,0.3
	c0.4,0.1,0.7,0.2,0.9,0.3c0.2,0.1,0.4,0.2,0.5,0.4c0.1,0.2,0.1,0.3,0.1,0.6c0,0.4-0.1,0.6-0.4,0.9c-0.3,0.2-0.7,0.3-1.1,0.3
	c-0.5,0-0.9-0.1-1.2-0.4c-0.3-0.2-0.5-0.5-0.5-0.9h0.5c0,0.3,0.1,0.5,0.3,0.6c0.2,0.2,0.5,0.2,0.8,0.2c0.3,0,0.6-0.1,0.8-0.2
	C200.7,153.7,200.8,153.5,200.8,153.3z M205.4,153.7c-0.3,0.5-0.8,0.7-1.5,0.7c-0.4,0-0.7-0.1-1-0.3c-0.3-0.2-0.5-0.4-0.7-0.7
	c-0.2-0.3-0.2-0.7-0.2-1.1v-0.2c0-0.4,0.1-0.8,0.2-1.1c0.2-0.3,0.4-0.6,0.7-0.8c0.3-0.2,0.6-0.3,0.9-0.3c0.5,0,0.9,0.2,1.2,0.5
	c0.3,0.4,0.5,0.8,0.5,1.4v0.3h-3v0.1c0,0.5,0.1,0.9,0.4,1.2c0.3,0.3,0.6,0.5,1,0.5c0.2,0,0.5,0,0.7-0.1c0.2-0.1,0.4-0.2,0.5-0.4
	L205.4,153.7L205.4,153.7z M203.8,150.5c-0.4,0-0.6,0.1-0.9,0.4c-0.2,0.3-0.4,0.6-0.4,1h2.5v-0.1c0-0.4-0.1-0.7-0.3-1
	C204.5,150.6,204.2,150.5,203.8,150.5z M209.1,154.4c0-0.1-0.1-0.3-0.1-0.6c-0.2,0.2-0.4,0.4-0.6,0.5s-0.5,0.2-0.8,0.2
	c-0.4,0-0.7-0.1-1-0.3c-0.3-0.2-0.4-0.5-0.4-0.9c0-0.4,0.2-0.7,0.5-1c0.3-0.2,0.8-0.4,1.4-0.4h0.8v-0.5c0-0.3-0.1-0.5-0.3-0.7
	c-0.2-0.2-0.5-0.3-0.8-0.3c-0.3,0-0.6,0.1-0.8,0.2c-0.2,0.2-0.3,0.4-0.3,0.6l-0.5,0c0-0.3,0.2-0.6,0.5-0.9s0.7-0.4,1.2-0.4
	c0.5,0,0.8,0.1,1.1,0.4c0.3,0.2,0.4,0.6,0.4,1v2c0,0.4,0,0.7,0.1,0.9v0H209.1z M207.6,154.1c0.3,0,0.6-0.1,0.8-0.2
	c0.2-0.2,0.4-0.4,0.5-0.6v-0.9h-0.8c-0.5,0-0.8,0.1-1.1,0.3c-0.3,0.2-0.4,0.4-0.4,0.7c0,0.2,0.1,0.4,0.3,0.6
	S207.3,154.1,207.6,154.1z M212.7,150.6c-0.1,0-0.2,0-0.3,0c-0.3,0-0.5,0.1-0.7,0.2c-0.2,0.2-0.3,0.4-0.4,0.7v2.9h-0.5v-4.2h0.5
	l0,0.7c0.2-0.5,0.6-0.8,1.2-0.8c0.1,0,0.2,0,0.3,0.1L212.7,150.6z M214.9,154.1c0.3,0,0.6-0.1,0.8-0.3c0.2-0.2,0.3-0.4,0.4-0.7h0.4
	c0,0.3-0.1,0.5-0.2,0.7c-0.1,0.2-0.3,0.4-0.6,0.5s-0.5,0.2-0.8,0.2c-0.6,0-1-0.2-1.3-0.6c-0.3-0.4-0.5-0.9-0.5-1.6v-0.1
	c0-0.4,0.1-0.8,0.2-1.1c0.1-0.3,0.4-0.6,0.6-0.7c0.3-0.2,0.6-0.3,1-0.3c0.5,0,0.8,0.1,1.1,0.4c0.3,0.3,0.5,0.6,0.5,1.1h-0.4
	c0-0.3-0.1-0.6-0.4-0.8c-0.2-0.2-0.5-0.3-0.8-0.3c-0.4,0-0.7,0.2-1,0.5c-0.2,0.3-0.3,0.7-0.3,1.3v0.1c0,0.5,0.1,1,0.3,1.3
	C214.1,153.9,214.5,154.1,214.9,154.1z M217.9,150.9c0.2-0.3,0.4-0.4,0.6-0.6c0.2-0.1,0.5-0.2,0.8-0.2c0.5,0,0.8,0.1,1,0.4
	c0.2,0.3,0.3,0.6,0.3,1.1v2.8h-0.5v-2.8c0-0.4-0.1-0.7-0.2-0.8c-0.2-0.2-0.4-0.3-0.8-0.3c-0.3,0-0.5,0.1-0.8,0.3
	c-0.2,0.2-0.4,0.4-0.5,0.7v2.9h-0.5v-6h0.5V150.9z M222.3,154.1c0,0.5-0.2,1-0.5,1.3l-0.3-0.2c0.2-0.3,0.4-0.6,0.4-1v-0.6h0.5V154.1
	L222.3,154.1z M228.7,152.3c0,0.7-0.1,1.2-0.4,1.6c-0.3,0.4-0.7,0.6-1.2,0.6c-0.6,0-1-0.2-1.3-0.7l0,0.6h-0.4v-6h0.5v2.4
	c0.3-0.5,0.7-0.7,1.3-0.7c0.5,0,0.9,0.2,1.2,0.6C228.6,151,228.7,151.6,228.7,152.3L228.7,152.3z M228.2,152.2c0-0.6-0.1-1-0.3-1.3
	c-0.2-0.3-0.5-0.5-0.9-0.5c-0.3,0-0.6,0.1-0.8,0.2c-0.2,0.1-0.4,0.4-0.5,0.6v1.9c0.2,0.5,0.6,0.8,1.2,0.8c0.4,0,0.7-0.2,0.9-0.5
	C228.1,153.3,228.2,152.8,228.2,152.2z M232.5,153.9c-0.3,0.4-0.7,0.6-1.3,0.6c-0.5,0-0.8-0.1-1-0.4s-0.4-0.6-0.4-1.2v-2.8h0.5v2.7
	c0,0.8,0.3,1.2,1,1.2c0.7,0,1.1-0.3,1.3-0.8v-3.1h0.5v4.2h-0.5L232.5,153.9z M234.9,149.1v1.1h0.9v0.4h-0.9v2.8c0,0.2,0,0.4,0.1,0.5
	c0.1,0.1,0.2,0.2,0.4,0.2c0.1,0,0.2,0,0.4,0l0,0.4c-0.1,0-0.3,0.1-0.5,0.1c-0.3,0-0.6-0.1-0.7-0.3c-0.1-0.2-0.2-0.5-0.2-0.8v-2.8
	h-0.8v-0.4h0.8v-1.1H234.9z"/>
<text transform="matrix(1 0 0 1 90.8812 163.9881)"><tspan x="0" y="0" class="st3 st4 st5">also less cor</tspan><tspan x="43.8" y="0" class="st3 st4 st5">r</tspan><tspan x="46.5" y="0" class="st3 st4 st5">ect and </tspan><tspan x="74.3" y="0" class="st3 st4 st5">ev</tspan><tspan x="82.2" y="0" class="st3 st4 st5">en er</tspan><tspan x="99.5" y="0" class="st3 st4 st5">r</tspan><tspan x="102.1" y="0" class="st3 st4 st5">oneous advice. </tspan></text>
<text transform="matrix(1 0 0 1 90.8812 173.5877)"><tspan x="0" y="0" class="st3 st4 st5">The cor</tspan><tspan x="26.5" y="0" class="st3 st4 st5">r</tspan><tspan x="29.2" y="0" class="st3 st4 st5">ectness and </tspan><tspan x="73.6" y="0" class="st3 st4 st5">r</tspan><tspan x="76.3" y="0" class="st3 st4 st5">eliability of </tspan><tspan x="115.5" y="0" class="st3 st4 st5">“</tspan><tspan x="117.6" y="0" class="st3 st4 st5">doc</tspan><tspan x="130.7" y="0" class="st3 st4 st5">t</tspan><tspan x="133.2" y="0" class="st3 st4 st5">or </tspan></text>
<text transform="matrix(1 0 0 1 90.8812 183.1873)"><tspan x="0" y="0" class="st3 st4 st5">googl</tspan><tspan x="19.6" y="0" class="st3 st4 st5">e</tspan><tspan x="23.7" y="0" class="st3 st4 st5">” m</tspan><tspan x="35.2" y="0" class="st3 st4 st5">a</tspan><tspan x="39.4" y="0" class="st3 st4 st5">y rightly be questioned.</tspan></text>
<text transform="matrix(1 0 0 1 90.8812 202.3875)"><tspan x="0" y="0" class="st3 st4 st5">Y</tspan><tspan x="4.5" y="0" class="st3 st4 st5">et the</tspan><tspan x="24.3" y="0" class="st3 st4 st5">r</tspan><tspan x="26.9" y="0" class="st3 st4 st5">e a</tspan><tspan x="37.3" y="0" class="st3 st4 st5">r</tspan><tspan x="39.9" y="0" class="st3 st4 st5">e a huge number of people who </tspan></text>
<text transform="matrix(1 0 0 1 90.8812 211.9881)"><tspan x="0" y="0" class="st3 st4 st5">use the internet </tspan><tspan x="56.2" y="0" class="st3 st4 st5">t</tspan><tspan x="58.7" y="0" class="st3 st4 st5">o obtain medical advice. </tspan></text>
<text transform="matrix(1 0 0 1 90.8812 221.5877)"><tspan x="0" y="0" class="st3 st4 st5">A su</tspan><tspan x="15.4" y="0" class="st3 st4 st5">r</tspan><tspan x="18.1" y="0" class="st3 st4 st5">ve</tspan><tspan x="26" y="0" class="st3 st4 st5">y of the Christian Mutuality showed </tspan></text>
<text transform="matrix(1 0 0 1 90.8812 231.1883)"><tspan x="0" y="0" class="st3 st4 st5">that 91% of Flemish people </tspan><tspan x="96.6" y="0" class="st3 st4 st5">r</tspan><tspan x="99.2" y="0" class="st3 st4 st5">egularly call on </tspan></text>
<text transform="matrix(1 0 0 1 90.8812 240.7879)"><tspan x="0" y="0" class="st3 st4 st5">doc</tspan><tspan x="13" y="0" class="st3 st4 st5">t</tspan><tspan x="15.5" y="0" class="st3 st4 st5">or Google.</tspan></text>
<text transform="matrix(1 0 0 1 90.8812 259.9881)"><tspan x="0" y="0" class="st3 st4 st5">The internet the</tspan><tspan x="55" y="0" class="st3 st4 st5">r</tspan><tspan x="57.6" y="0" class="st3 st4 st5">efo</tspan><tspan x="68.9" y="0" class="st3 st4 st5">r</tspan><tspan x="71.5" y="0" class="st3 st4 st5">e of</tspan><tspan x="84.7" y="0" class="st3 st4 st5">f</tspan><tspan x="87.2" y="0" class="st3 st4 st5">ers many </tspan></text>
<text transform="matrix(1 0 0 1 90.8812 269.5877)"><tspan x="0" y="0" class="st3 st4 st5">ad</tspan><tspan x="8.7" y="0" class="st3 st4 st5">v</tspan><tspan x="12.5" y="0" class="st3 st4 st5">antages, but also disad</tspan><tspan x="93.1" y="0" class="st3 st4 st5">v</tspan><tspan x="96.9" y="0" class="st3 st4 st5">antages. When </tspan></text>
<text transform="matrix(1 0 0 1 90.8812 279.1883)"><tspan x="0" y="0" class="st3 st4 st5">we a</tspan><tspan x="16.4" y="0" class="st3 st4 st5">r</tspan><tspan x="19" y="0" class="st3 st4 st5">e ill, we sea</tspan><tspan x="58.5" y="0" class="st3 st4 st5">r</tspan><tspan x="61.1" y="0" class="st3 st4 st5">ch our symp</tspan><tspan x="104.5" y="0" class="st3 st4 st5">t</tspan><tspan x="107" y="0" class="st3 st4 st5">oms on the </tspan></text>
<path class="st3" d="M91.5,283.3c0-0.1,0-0.2,0.1-0.2c0.1-0.1,0.1-0.1,0.2-0.1c0.1,0,0.2,0,0.2,0.1s0.1,0.1,0.1,0.2s0,0.2-0.1,0.2
	c-0.1,0.1-0.1,0.1-0.2,0.1c-0.1,0-0.2,0-0.2-0.1C91.5,283.5,91.5,283.4,91.5,283.3z M92,288.8h-0.5v-4.2H92V288.8z M93.7,284.6
	l0,0.7c0.2-0.3,0.4-0.5,0.6-0.6c0.2-0.1,0.5-0.2,0.8-0.2c0.5,0,0.8,0.1,1,0.4c0.2,0.3,0.3,0.6,0.3,1.1v2.8H96V286
	c0-0.4-0.1-0.7-0.2-0.8c-0.2-0.2-0.4-0.3-0.8-0.3c-0.3,0-0.5,0.1-0.8,0.3c-0.2,0.2-0.4,0.4-0.5,0.7v2.9h-0.5v-4.2H93.7z M98.4,283.5
	v1.1h0.9v0.4h-0.9v2.8c0,0.2,0,0.4,0.1,0.5c0.1,0.1,0.2,0.2,0.4,0.2c0.1,0,0.2,0,0.4,0l0,0.4c-0.1,0-0.3,0.1-0.5,0.1
	c-0.3,0-0.6-0.1-0.7-0.3c-0.1-0.2-0.2-0.5-0.2-0.8v-2.8h-0.8v-0.4h0.8v-1.1H98.4z M103.4,288.1c-0.3,0.5-0.8,0.7-1.5,0.7
	c-0.4,0-0.7-0.1-1-0.3c-0.3-0.2-0.5-0.4-0.7-0.7c-0.2-0.3-0.2-0.7-0.2-1.1v-0.2c0-0.4,0.1-0.8,0.2-1.1c0.2-0.3,0.4-0.6,0.7-0.8
	c0.3-0.2,0.6-0.3,0.9-0.3c0.5,0,0.9,0.2,1.2,0.5c0.3,0.4,0.5,0.8,0.5,1.4v0.3h-3v0.1c0,0.5,0.1,0.9,0.4,1.2c0.3,0.3,0.6,0.5,1,0.5
	c0.2,0,0.5,0,0.7-0.1c0.2-0.1,0.4-0.2,0.5-0.4L103.4,288.1L103.4,288.1z M101.8,284.9c-0.4,0-0.6,0.1-0.9,0.4
	c-0.2,0.3-0.4,0.6-0.4,1h2.5v-0.1c0-0.4-0.1-0.7-0.3-1C102.4,285,102.1,284.9,101.8,284.9z M106.3,285c-0.1,0-0.2,0-0.3,0
	c-0.3,0-0.5,0.1-0.7,0.2c-0.2,0.2-0.3,0.4-0.4,0.7v2.9h-0.5v-4.2h0.5l0,0.7c0.2-0.5,0.6-0.8,1.2-0.8c0.1,0,0.2,0,0.3,0.1L106.3,285z
	 M107.5,284.6l0,0.7c0.2-0.3,0.4-0.5,0.6-0.6c0.2-0.1,0.5-0.2,0.8-0.2c0.5,0,0.8,0.1,1,0.4c0.2,0.3,0.3,0.6,0.3,1.1v2.8h-0.5V286
	c0-0.4-0.1-0.7-0.2-0.8c-0.2-0.2-0.4-0.3-0.8-0.3c-0.3,0-0.5,0.1-0.8,0.3c-0.2,0.2-0.4,0.4-0.5,0.7v2.9h-0.5v-4.2H107.5z
	 M114.6,288.1c-0.3,0.5-0.8,0.7-1.5,0.7c-0.4,0-0.7-0.1-1-0.3c-0.3-0.2-0.5-0.4-0.7-0.7c-0.2-0.3-0.2-0.7-0.2-1.1v-0.2
	c0-0.4,0.1-0.8,0.2-1.1c0.2-0.3,0.4-0.6,0.7-0.8c0.3-0.2,0.6-0.3,0.9-0.3c0.5,0,0.9,0.2,1.2,0.5c0.3,0.4,0.5,0.8,0.5,1.4v0.3h-3v0.1
	c0,0.5,0.1,0.9,0.4,1.2c0.3,0.3,0.6,0.5,1,0.5c0.2,0,0.5,0,0.7-0.1c0.2-0.1,0.4-0.2,0.5-0.4L114.6,288.1L114.6,288.1z M113,284.9
	c-0.4,0-0.6,0.1-0.9,0.4c-0.2,0.3-0.4,0.6-0.4,1h2.5v-0.1c0-0.4-0.1-0.7-0.3-1C113.6,285,113.4,284.9,113,284.9z M116.3,283.5v1.1
	h0.9v0.4h-0.9v2.8c0,0.2,0,0.4,0.1,0.5c0.1,0.1,0.2,0.2,0.4,0.2c0.1,0,0.2,0,0.4,0l0,0.4c-0.1,0-0.3,0.1-0.5,0.1
	c-0.3,0-0.6-0.1-0.7-0.3c-0.1-0.2-0.2-0.5-0.2-0.8v-2.8h-0.8v-0.4h0.8v-1.1H116.3z M120.5,284.6l0,0.7c0.2-0.3,0.4-0.4,0.6-0.6
	c0.2-0.1,0.5-0.2,0.8-0.2c0.7,0,1.1,0.3,1.3,0.8c0.2-0.3,0.4-0.5,0.6-0.6c0.3-0.1,0.5-0.2,0.8-0.2c0.9,0,1.4,0.5,1.4,1.5v2.8h-0.5
	V286c0-0.4-0.1-0.7-0.2-0.8c-0.2-0.2-0.4-0.3-0.8-0.3c-0.3,0-0.6,0.1-0.9,0.3c-0.2,0.2-0.4,0.5-0.4,0.8v2.8h-0.5V286
	c0-0.4-0.1-0.6-0.3-0.8c-0.2-0.2-0.4-0.3-0.8-0.3c-0.3,0-0.5,0.1-0.8,0.3s-0.4,0.4-0.5,0.7v2.9h-0.5v-4.2H120.5z M129.9,288.3
	c-0.3,0.4-0.7,0.6-1.3,0.6c-0.5,0-0.8-0.1-1-0.4s-0.4-0.6-0.4-1.2v-2.8h0.5v2.7c0,0.8,0.3,1.2,1,1.2c0.7,0,1.1-0.3,1.3-0.8v-3.1h0.5
	v4.2h-0.5L129.9,288.3z M133.1,288.5c0.3,0,0.6-0.1,0.8-0.3c0.2-0.2,0.3-0.4,0.4-0.7h0.4c0,0.3-0.1,0.5-0.2,0.7
	c-0.1,0.2-0.3,0.4-0.6,0.5s-0.5,0.2-0.8,0.2c-0.6,0-1-0.2-1.3-0.6c-0.3-0.4-0.5-0.9-0.5-1.6v-0.1c0-0.4,0.1-0.8,0.2-1.1
	c0.1-0.3,0.4-0.6,0.6-0.7c0.3-0.2,0.6-0.3,1-0.3c0.5,0,0.8,0.1,1.1,0.4c0.3,0.3,0.5,0.6,0.5,1.1h-0.4c0-0.3-0.1-0.6-0.4-0.8
	c-0.2-0.2-0.5-0.3-0.8-0.3c-0.4,0-0.7,0.2-1,0.5c-0.2,0.3-0.3,0.7-0.3,1.3v0.1c0,0.5,0.1,1,0.3,1.3
	C132.4,288.3,132.7,288.5,133.1,288.5z M136.2,285.3c0.2-0.3,0.4-0.4,0.6-0.6c0.2-0.1,0.5-0.2,0.8-0.2c0.5,0,0.8,0.1,1,0.4
	c0.2,0.3,0.3,0.6,0.3,1.1v2.8h-0.5V286c0-0.4-0.1-0.7-0.2-0.8c-0.2-0.2-0.4-0.3-0.8-0.3c-0.3,0-0.5,0.1-0.8,0.3
	c-0.2,0.2-0.4,0.4-0.5,0.7v2.9h-0.5v-6h0.5V285.3z M142.8,283.5v1.1h0.9v0.4h-0.9v2.8c0,0.2,0,0.4,0.1,0.5c0.1,0.1,0.2,0.2,0.4,0.2
	c0.1,0,0.2,0,0.4,0l0,0.4c-0.1,0-0.3,0.1-0.5,0.1c-0.3,0-0.6-0.1-0.7-0.3c-0.1-0.2-0.2-0.5-0.2-0.8v-2.8h-0.8v-0.4h0.8v-1.1H142.8z
	 M144.3,286.6c0-0.4,0.1-0.8,0.2-1.1c0.2-0.3,0.4-0.6,0.7-0.8c0.3-0.2,0.6-0.3,1-0.3c0.6,0,1,0.2,1.4,0.6c0.3,0.4,0.5,0.9,0.5,1.6
	v0.1c0,0.4-0.1,0.8-0.2,1.1c-0.2,0.3-0.4,0.6-0.7,0.8c-0.3,0.2-0.6,0.3-1,0.3c-0.6,0-1-0.2-1.4-0.6
	C144.5,287.9,144.3,287.4,144.3,286.6L144.3,286.6z M144.8,286.7c0,0.5,0.1,0.9,0.4,1.2s0.6,0.5,1,0.5c0.4,0,0.8-0.2,1-0.5
	s0.4-0.8,0.4-1.3v-0.1c0-0.3-0.1-0.6-0.2-0.9c-0.1-0.3-0.3-0.5-0.5-0.6c-0.2-0.1-0.5-0.2-0.7-0.2c-0.4,0-0.8,0.2-1,0.5
	C144.9,285.7,144.8,286.1,144.8,286.7L144.8,286.7z M148.8,286.6c0-0.4,0.1-0.8,0.2-1.1c0.2-0.3,0.4-0.6,0.7-0.8
	c0.3-0.2,0.6-0.3,1-0.3c0.6,0,1,0.2,1.4,0.6c0.3,0.4,0.5,0.9,0.5,1.6v0.1c0,0.4-0.1,0.8-0.2,1.1c-0.2,0.3-0.4,0.6-0.7,0.8
	c-0.3,0.2-0.6,0.3-1,0.3c-0.6,0-1-0.2-1.4-0.6C148.9,287.9,148.8,287.4,148.8,286.6L148.8,286.6z M149.2,286.7
	c0,0.5,0.1,0.9,0.4,1.2s0.6,0.5,1,0.5c0.4,0,0.8-0.2,1-0.5s0.4-0.8,0.4-1.3v-0.1c0-0.3-0.1-0.6-0.2-0.9c-0.1-0.3-0.3-0.5-0.5-0.6
	c-0.2-0.1-0.5-0.2-0.7-0.2c-0.4,0-0.8,0.2-1,0.5C149.4,285.7,149.2,286.1,149.2,286.7L149.2,286.7z M155.3,286.6
	c0-0.7,0.1-1.2,0.4-1.6s0.7-0.6,1.2-0.6c0.6,0,1,0.2,1.3,0.7l0-0.6h0.4v5.9h-0.5v-2.1c-0.3,0.4-0.7,0.6-1.3,0.6
	c-0.5,0-0.9-0.2-1.2-0.6S155.3,287.4,155.3,286.6L155.3,286.6z M155.7,286.7c0,0.5,0.1,1,0.3,1.3c0.2,0.3,0.5,0.5,0.9,0.5
	c0.6,0,1-0.2,1.2-0.7v-2.1c-0.1-0.3-0.3-0.4-0.5-0.6s-0.4-0.2-0.7-0.2c-0.4,0-0.7,0.2-0.9,0.5C155.8,285.7,155.7,286.1,155.7,286.7z
	 M162.6,288.3c-0.3,0.4-0.7,0.6-1.3,0.6c-0.5,0-0.8-0.1-1-0.4s-0.4-0.6-0.4-1.2v-2.8h0.5v2.7c0,0.8,0.3,1.2,1,1.2
	c0.7,0,1.1-0.3,1.3-0.8v-3.1h0.5v4.2h-0.5L162.6,288.3z M164.3,283.3c0-0.1,0-0.2,0.1-0.2c0.1-0.1,0.1-0.1,0.2-0.1
	c0.1,0,0.2,0,0.2,0.1s0.1,0.1,0.1,0.2s0,0.2-0.1,0.2c-0.1,0.1-0.1,0.1-0.2,0.1c-0.1,0-0.2,0-0.2-0.1
	C164.3,283.5,164.3,283.4,164.3,283.3z M164.8,288.8h-0.5v-4.2h0.5V288.8z M167.7,288.5c0.3,0,0.6-0.1,0.8-0.3
	c0.2-0.2,0.3-0.4,0.4-0.7h0.4c0,0.3-0.1,0.5-0.2,0.7c-0.1,0.2-0.3,0.4-0.6,0.5s-0.5,0.2-0.8,0.2c-0.6,0-1-0.2-1.3-0.6
	c-0.3-0.4-0.5-0.9-0.5-1.6v-0.1c0-0.4,0.1-0.8,0.2-1.1c0.1-0.3,0.4-0.6,0.6-0.7c0.3-0.2,0.6-0.3,1-0.3c0.5,0,0.8,0.1,1.1,0.4
	c0.3,0.3,0.5,0.6,0.5,1.1h-0.4c0-0.3-0.1-0.6-0.4-0.8c-0.2-0.2-0.5-0.3-0.8-0.3c-0.4,0-0.7,0.2-1,0.5c-0.2,0.3-0.3,0.7-0.3,1.3v0.1
	c0,0.5,0.1,1,0.3,1.3C166.9,288.3,167.2,288.5,167.7,288.5z M171.2,286.7l-0.5,0.5v1.6h-0.5v-6h0.5v3.8l0.4-0.5l1.6-1.6h0.6
	l-1.8,1.8l1.9,2.4h-0.6L171.2,286.7z M174.7,288.8h-0.5v-6h0.5V288.8z M177.3,288.1l1.2-3.6h0.5l-1.8,4.9l-0.1,0.2
	c-0.2,0.5-0.6,0.8-1.1,0.8c-0.1,0-0.2,0-0.4-0.1l0-0.4l0.2,0c0.2,0,0.4-0.1,0.6-0.2c0.1-0.1,0.3-0.3,0.4-0.6l0.2-0.6l-1.6-4.2h0.5
	L177.3,288.1z M184.3,288.8c0-0.1-0.1-0.3-0.1-0.6c-0.2,0.2-0.4,0.4-0.6,0.5s-0.5,0.2-0.8,0.2c-0.4,0-0.7-0.1-1-0.3
	c-0.3-0.2-0.4-0.5-0.4-0.9c0-0.4,0.2-0.7,0.5-1c0.3-0.2,0.8-0.4,1.4-0.4h0.8v-0.5c0-0.3-0.1-0.5-0.3-0.7c-0.2-0.2-0.5-0.3-0.8-0.3
	c-0.3,0-0.6,0.1-0.8,0.2c-0.2,0.2-0.3,0.4-0.3,0.6l-0.5,0c0-0.3,0.2-0.6,0.5-0.9s0.7-0.4,1.2-0.4c0.5,0,0.8,0.1,1.1,0.4
	c0.3,0.2,0.4,0.6,0.4,1v2c0,0.4,0,0.7,0.1,0.9v0H184.3z M182.9,288.5c0.3,0,0.6-0.1,0.8-0.2c0.2-0.2,0.4-0.4,0.5-0.6v-0.9h-0.8
	c-0.5,0-0.8,0.1-1.1,0.3c-0.3,0.2-0.4,0.4-0.4,0.7c0,0.2,0.1,0.4,0.3,0.6S182.6,288.5,182.9,288.5z M186.4,284.6l0,0.7
	c0.2-0.3,0.4-0.5,0.6-0.6c0.2-0.1,0.5-0.2,0.8-0.2c0.5,0,0.8,0.1,1,0.4c0.2,0.3,0.3,0.6,0.3,1.1v2.8h-0.5V286c0-0.4-0.1-0.7-0.2-0.8
	c-0.2-0.2-0.4-0.3-0.8-0.3c-0.3,0-0.5,0.1-0.8,0.3c-0.2,0.2-0.4,0.4-0.5,0.7v2.9H186v-4.2H186.4z M190.2,286.6
	c0-0.7,0.1-1.2,0.4-1.6c0.3-0.4,0.7-0.6,1.2-0.6c0.6,0,1,0.2,1.3,0.7v-2.4h0.5v6h-0.4l0-0.6c-0.3,0.4-0.7,0.6-1.3,0.6
	c-0.5,0-0.9-0.2-1.2-0.6C190.3,287.9,190.2,287.4,190.2,286.6L190.2,286.6z M190.6,286.7c0,0.5,0.1,1,0.3,1.3
	c0.2,0.3,0.5,0.5,0.9,0.5c0.6,0,1-0.3,1.2-0.8v-2c-0.2-0.5-0.6-0.8-1.2-0.8c-0.4,0-0.7,0.2-0.9,0.5S190.6,286.1,190.6,286.7z
	 M197.8,287.8l0.1,0.4l0.1-0.4l1-3.2h0.4l1,3.2l0.1,0.4l0.1-0.4l0.9-3.2h0.5l-1.2,4.2h-0.4l-1.1-3.4l-0.1-0.2l-0.1,0.2l-1.1,3.3
	h-0.4l-1.2-4.2h0.5L197.8,287.8z M205.9,288.1c-0.3,0.5-0.8,0.7-1.5,0.7c-0.4,0-0.7-0.1-1-0.3c-0.3-0.2-0.5-0.4-0.7-0.7
	c-0.2-0.3-0.2-0.7-0.2-1.1v-0.2c0-0.4,0.1-0.8,0.2-1.1c0.2-0.3,0.4-0.6,0.7-0.8c0.3-0.2,0.6-0.3,0.9-0.3c0.5,0,0.9,0.2,1.2,0.5
	c0.3,0.4,0.5,0.8,0.5,1.4v0.3h-3v0.1c0,0.5,0.1,0.9,0.4,1.2c0.3,0.3,0.6,0.5,1,0.5c0.2,0,0.5,0,0.7-0.1c0.2-0.1,0.4-0.2,0.5-0.4
	L205.9,288.1L205.9,288.1z M204.3,284.9c-0.4,0-0.6,0.1-0.9,0.4c-0.2,0.3-0.4,0.6-0.4,1h2.5v-0.1c0-0.4-0.1-0.7-0.3-1
	C205,285,204.7,284.9,204.3,284.9z M210.4,288.5c0.3,0,0.6-0.1,0.8-0.3c0.2-0.2,0.3-0.4,0.4-0.7h0.4c0,0.3-0.1,0.5-0.2,0.7
	c-0.1,0.2-0.3,0.4-0.6,0.5s-0.5,0.2-0.8,0.2c-0.6,0-1-0.2-1.3-0.6c-0.3-0.4-0.5-0.9-0.5-1.6v-0.1c0-0.4,0.1-0.8,0.2-1.1
	c0.1-0.3,0.4-0.6,0.6-0.7c0.3-0.2,0.6-0.3,1-0.3c0.5,0,0.8,0.1,1.1,0.4c0.3,0.3,0.5,0.6,0.5,1.1h-0.4c0-0.3-0.1-0.6-0.4-0.8
	c-0.2-0.2-0.5-0.3-0.8-0.3c-0.4,0-0.7,0.2-1,0.5c-0.2,0.3-0.3,0.7-0.3,1.3v0.1c0,0.5,0.1,1,0.3,1.3
	C209.7,288.3,210,288.5,210.4,288.5z M215.6,288.8c0-0.1-0.1-0.3-0.1-0.6c-0.2,0.2-0.4,0.4-0.6,0.5s-0.5,0.2-0.8,0.2
	c-0.4,0-0.7-0.1-1-0.3c-0.3-0.2-0.4-0.5-0.4-0.9c0-0.4,0.2-0.7,0.5-1c0.3-0.2,0.8-0.4,1.4-0.4h0.8v-0.5c0-0.3-0.1-0.5-0.3-0.7
	c-0.2-0.2-0.5-0.3-0.8-0.3c-0.3,0-0.6,0.1-0.8,0.2c-0.2,0.2-0.3,0.4-0.3,0.6l-0.5,0c0-0.3,0.2-0.6,0.5-0.9s0.7-0.4,1.2-0.4
	c0.5,0,0.8,0.1,1.1,0.4c0.3,0.2,0.4,0.6,0.4,1v2c0,0.4,0,0.7,0.1,0.9v0H215.6z M214.2,288.5c0.3,0,0.6-0.1,0.8-0.2
	c0.2-0.2,0.4-0.4,0.5-0.6v-0.9h-0.8c-0.5,0-0.8,0.1-1.1,0.3c-0.3,0.2-0.4,0.4-0.4,0.7c0,0.2,0.1,0.4,0.3,0.6
	S213.9,288.5,214.2,288.5z M217.7,284.6l0,0.7c0.2-0.3,0.4-0.5,0.6-0.6c0.2-0.1,0.5-0.2,0.8-0.2c0.5,0,0.8,0.1,1,0.4
	c0.2,0.3,0.3,0.6,0.3,1.1v2.8H220V286c0-0.4-0.1-0.7-0.2-0.8c-0.2-0.2-0.4-0.3-0.8-0.3c-0.3,0-0.5,0.1-0.8,0.3
	c-0.2,0.2-0.4,0.4-0.5,0.7v2.9h-0.5v-4.2H217.7z M223.9,288.8v-3.8h-0.7v-0.4h0.7v-0.4c0-0.5,0.1-0.8,0.4-1c0.2-0.2,0.6-0.4,1-0.4
	c0.3,0,0.7,0.1,1.1,0.2l-0.1,0.4c-0.3-0.1-0.6-0.2-1-0.2c-0.6,0-1,0.3-1,1v0.4h1v0.4h-1v3.8H223.9z M226.6,288.8h-0.5v-4.2h0.5
	V288.8z M228.3,284.6l0,0.7c0.2-0.3,0.4-0.5,0.6-0.6c0.2-0.1,0.5-0.2,0.8-0.2c0.5,0,0.8,0.1,1,0.4c0.2,0.3,0.3,0.6,0.3,1.1v2.8h-0.5
	V286c0-0.4-0.1-0.7-0.2-0.8c-0.2-0.2-0.4-0.3-0.8-0.3c-0.3,0-0.5,0.1-0.8,0.3c-0.2,0.2-0.4,0.4-0.5,0.7v2.9h-0.5v-4.2H228.3z
	 M232.1,286.6c0-0.7,0.1-1.2,0.4-1.6c0.3-0.4,0.7-0.6,1.2-0.6c0.6,0,1,0.2,1.3,0.7v-2.4h0.5v6h-0.4l0-0.6c-0.3,0.4-0.7,0.6-1.3,0.6
	c-0.5,0-0.9-0.2-1.2-0.6C232.3,287.9,232.1,287.4,232.1,286.6L232.1,286.6z M232.6,286.7c0,0.5,0.1,1,0.3,1.3
	c0.2,0.3,0.5,0.5,0.9,0.5c0.6,0,1-0.3,1.2-0.8v-2c-0.2-0.5-0.6-0.8-1.2-0.8c-0.4,0-0.7,0.2-0.9,0.5S232.6,286.1,232.6,286.7z"/>
<path class="st3" d="M94,297.3c0-0.2-0.1-0.4-0.3-0.6c-0.2-0.1-0.5-0.3-0.8-0.3c-0.4-0.1-0.7-0.2-0.9-0.3c-0.2-0.1-0.4-0.2-0.5-0.4
	c-0.1-0.1-0.2-0.3-0.2-0.5c0-0.3,0.1-0.6,0.4-0.8c0.3-0.2,0.6-0.3,1.1-0.3c0.5,0,0.8,0.1,1.1,0.3c0.3,0.2,0.4,0.5,0.4,0.9H94
	c0-0.2-0.1-0.5-0.3-0.6s-0.5-0.2-0.8-0.2c-0.3,0-0.6,0.1-0.7,0.2c-0.2,0.1-0.3,0.3-0.3,0.5c0,0.2,0.1,0.4,0.2,0.5
	c0.2,0.1,0.4,0.2,0.8,0.3c0.4,0.1,0.7,0.2,0.9,0.3c0.2,0.1,0.4,0.2,0.5,0.4c0.1,0.2,0.1,0.3,0.1,0.6c0,0.4-0.1,0.6-0.4,0.9
	c-0.3,0.2-0.7,0.3-1.1,0.3c-0.5,0-0.9-0.1-1.2-0.4c-0.3-0.2-0.5-0.5-0.5-0.9h0.5c0,0.3,0.1,0.5,0.3,0.6c0.2,0.2,0.5,0.2,0.8,0.2
	c0.3,0,0.6-0.1,0.8-0.2C93.9,297.7,94,297.5,94,297.3z M98.7,297.7c-0.3,0.5-0.8,0.7-1.5,0.7c-0.4,0-0.7-0.1-1-0.3
	c-0.3-0.2-0.5-0.4-0.7-0.7c-0.2-0.3-0.2-0.7-0.2-1.1v-0.2c0-0.4,0.1-0.8,0.2-1.1c0.2-0.3,0.4-0.6,0.7-0.8c0.3-0.2,0.6-0.3,0.9-0.3
	c0.5,0,0.9,0.2,1.2,0.5c0.3,0.4,0.5,0.8,0.5,1.4v0.3h-3v0.1c0,0.5,0.1,0.9,0.4,1.2c0.3,0.3,0.6,0.5,1,0.5c0.2,0,0.5,0,0.7-0.1
	c0.2-0.1,0.4-0.2,0.5-0.4L98.7,297.7L98.7,297.7z M97.1,294.5c-0.4,0-0.6,0.1-0.9,0.4c-0.2,0.3-0.4,0.6-0.4,1h2.5v-0.1
	c0-0.4-0.1-0.7-0.3-1C97.7,294.6,97.4,294.5,97.1,294.5z M100.9,297.7l1.3-3.6h0.5l-1.6,4.2h-0.4l-1.6-4.2h0.5L100.9,297.7z
	 M106.6,297.7c-0.3,0.5-0.8,0.7-1.5,0.7c-0.4,0-0.7-0.1-1-0.3c-0.3-0.2-0.5-0.4-0.7-0.7c-0.2-0.3-0.2-0.7-0.2-1.1v-0.2
	c0-0.4,0.1-0.8,0.2-1.1c0.2-0.3,0.4-0.6,0.7-0.8c0.3-0.2,0.6-0.3,0.9-0.3c0.5,0,0.9,0.2,1.2,0.5c0.3,0.4,0.5,0.8,0.5,1.4v0.3h-3v0.1
	c0,0.5,0.1,0.9,0.4,1.2c0.3,0.3,0.6,0.5,1,0.5c0.2,0,0.5,0,0.7-0.1c0.2-0.1,0.4-0.2,0.5-0.4L106.6,297.7L106.6,297.7z M105,294.5
	c-0.4,0-0.6,0.1-0.9,0.4c-0.2,0.3-0.4,0.6-0.4,1h2.5v-0.1c0-0.4-0.1-0.7-0.3-1C105.6,294.6,105.3,294.5,105,294.5z M109.5,294.6
	c-0.1,0-0.2,0-0.3,0c-0.3,0-0.5,0.1-0.7,0.2c-0.2,0.2-0.3,0.4-0.4,0.7v2.9h-0.5v-4.2h0.5l0,0.7c0.2-0.5,0.6-0.8,1.2-0.8
	c0.1,0,0.2,0,0.3,0.1L109.5,294.6z M112.8,298.4c0-0.1-0.1-0.3-0.1-0.6c-0.2,0.2-0.4,0.4-0.6,0.5s-0.5,0.2-0.8,0.2
	c-0.4,0-0.7-0.1-1-0.3c-0.3-0.2-0.4-0.5-0.4-0.9c0-0.4,0.2-0.7,0.5-1c0.3-0.2,0.8-0.4,1.4-0.4h0.8v-0.5c0-0.3-0.1-0.5-0.3-0.7
	c-0.2-0.2-0.5-0.3-0.8-0.3c-0.3,0-0.6,0.1-0.8,0.2c-0.2,0.2-0.3,0.4-0.3,0.6l-0.5,0c0-0.3,0.2-0.6,0.5-0.9s0.7-0.4,1.2-0.4
	c0.5,0,0.8,0.1,1.1,0.4c0.3,0.2,0.4,0.6,0.4,1v2c0,0.4,0,0.7,0.1,0.9v0H112.8z M111.3,298.1c0.3,0,0.6-0.1,0.8-0.2
	c0.2-0.2,0.4-0.4,0.5-0.6v-0.9h-0.8c-0.5,0-0.8,0.1-1.1,0.3c-0.3,0.2-0.4,0.4-0.4,0.7c0,0.2,0.1,0.4,0.3,0.6S111,298.1,111.3,298.1z
	 M114.9,298.4h-0.5v-6h0.5V298.4z M120.1,294.6c-0.1,0-0.2,0-0.3,0c-0.3,0-0.5,0.1-0.7,0.2c-0.2,0.2-0.3,0.4-0.4,0.7v2.9h-0.5v-4.2
	h0.5l0,0.7c0.2-0.5,0.6-0.8,1.2-0.8c0.1,0,0.2,0,0.3,0.1L120.1,294.6z M123.9,297.7c-0.3,0.5-0.8,0.7-1.5,0.7c-0.4,0-0.7-0.1-1-0.3
	c-0.3-0.2-0.5-0.4-0.7-0.7c-0.2-0.3-0.2-0.7-0.2-1.1v-0.2c0-0.4,0.1-0.8,0.2-1.1c0.2-0.3,0.4-0.6,0.7-0.8c0.3-0.2,0.6-0.3,0.9-0.3
	c0.5,0,0.9,0.2,1.2,0.5c0.3,0.4,0.5,0.8,0.5,1.4v0.3h-3v0.1c0,0.5,0.1,0.9,0.4,1.2c0.3,0.3,0.6,0.5,1,0.5c0.2,0,0.5,0,0.7-0.1
	c0.2-0.1,0.4-0.2,0.5-0.4L123.9,297.7L123.9,297.7z M122.3,294.5c-0.4,0-0.6,0.1-0.9,0.4c-0.2,0.3-0.4,0.6-0.4,1h2.5v-0.1
	c0-0.4-0.1-0.7-0.3-1C122.9,294.6,122.6,294.5,122.3,294.5z M127.5,298.4c0-0.1-0.1-0.3-0.1-0.6c-0.2,0.2-0.4,0.4-0.6,0.5
	s-0.5,0.2-0.8,0.2c-0.4,0-0.7-0.1-1-0.3c-0.3-0.2-0.4-0.5-0.4-0.9c0-0.4,0.2-0.7,0.5-1c0.3-0.2,0.8-0.4,1.4-0.4h0.8v-0.5
	c0-0.3-0.1-0.5-0.3-0.7c-0.2-0.2-0.5-0.3-0.8-0.3c-0.3,0-0.6,0.1-0.8,0.2c-0.2,0.2-0.3,0.4-0.3,0.6l-0.5,0c0-0.3,0.2-0.6,0.5-0.9
	s0.7-0.4,1.2-0.4c0.5,0,0.8,0.1,1.1,0.4c0.3,0.2,0.4,0.6,0.4,1v2c0,0.4,0,0.7,0.1,0.9v0H127.5z M126.1,298.1c0.3,0,0.6-0.1,0.8-0.2
	c0.2-0.2,0.4-0.4,0.5-0.6v-0.9h-0.8c-0.5,0-0.8,0.1-1.1,0.3c-0.3,0.2-0.4,0.4-0.4,0.7c0,0.2,0.1,0.4,0.3,0.6
	S125.8,298.1,126.1,298.1z M131.7,297.3c0-0.2-0.1-0.4-0.3-0.6c-0.2-0.1-0.5-0.3-0.8-0.3c-0.4-0.1-0.7-0.2-0.9-0.3
	c-0.2-0.1-0.4-0.2-0.5-0.4c-0.1-0.1-0.2-0.3-0.2-0.5c0-0.3,0.1-0.6,0.4-0.8c0.3-0.2,0.6-0.3,1.1-0.3c0.5,0,0.8,0.1,1.1,0.3
	c0.3,0.2,0.4,0.5,0.4,0.9h-0.5c0-0.2-0.1-0.5-0.3-0.6s-0.5-0.2-0.8-0.2c-0.3,0-0.6,0.1-0.7,0.2c-0.2,0.1-0.3,0.3-0.3,0.5
	c0,0.2,0.1,0.4,0.2,0.5c0.2,0.1,0.4,0.2,0.8,0.3c0.4,0.1,0.7,0.2,0.9,0.3c0.2,0.1,0.4,0.2,0.5,0.4c0.1,0.2,0.1,0.3,0.1,0.6
	c0,0.4-0.1,0.6-0.4,0.9c-0.3,0.2-0.7,0.3-1.1,0.3c-0.5,0-0.9-0.1-1.2-0.4c-0.3-0.2-0.5-0.5-0.5-0.9h0.5c0,0.3,0.1,0.5,0.3,0.6
	c0.2,0.2,0.5,0.2,0.8,0.2c0.3,0,0.6-0.1,0.8-0.2C131.6,297.7,131.7,297.5,131.7,297.3z M132.9,296.2c0-0.4,0.1-0.8,0.2-1.1
	c0.2-0.3,0.4-0.6,0.7-0.8c0.3-0.2,0.6-0.3,1-0.3c0.6,0,1,0.2,1.4,0.6c0.3,0.4,0.5,0.9,0.5,1.6v0.1c0,0.4-0.1,0.8-0.2,1.1
	c-0.2,0.3-0.4,0.6-0.7,0.8c-0.3,0.2-0.6,0.3-1,0.3c-0.6,0-1-0.2-1.4-0.6C133.1,297.5,132.9,297,132.9,296.2L132.9,296.2z
	 M133.4,296.3c0,0.5,0.1,0.9,0.4,1.2s0.6,0.5,1,0.5c0.4,0,0.8-0.2,1-0.5s0.4-0.8,0.4-1.3v-0.1c0-0.3-0.1-0.6-0.2-0.9
	c-0.1-0.3-0.3-0.5-0.5-0.6c-0.2-0.1-0.5-0.2-0.7-0.2c-0.4,0-0.8,0.2-1,0.5C133.5,295.3,133.4,295.7,133.4,296.3L133.4,296.3z
	 M138.1,294.2l0,0.7c0.2-0.3,0.4-0.5,0.6-0.6c0.2-0.1,0.5-0.2,0.8-0.2c0.5,0,0.8,0.1,1,0.4c0.2,0.3,0.3,0.6,0.3,1.1v2.8h-0.5v-2.8
	c0-0.4-0.1-0.7-0.2-0.8c-0.2-0.2-0.4-0.3-0.8-0.3c-0.3,0-0.5,0.1-0.8,0.3c-0.2,0.2-0.4,0.4-0.5,0.7v2.9h-0.5v-4.2H138.1z
	 M144.6,297.3c0-0.2-0.1-0.4-0.3-0.6c-0.2-0.1-0.5-0.3-0.8-0.3c-0.4-0.1-0.7-0.2-0.9-0.3c-0.2-0.1-0.4-0.2-0.5-0.4
	c-0.1-0.1-0.2-0.3-0.2-0.5c0-0.3,0.1-0.6,0.4-0.8c0.3-0.2,0.6-0.3,1.1-0.3c0.5,0,0.8,0.1,1.1,0.3c0.3,0.2,0.4,0.5,0.4,0.9h-0.5
	c0-0.2-0.1-0.5-0.3-0.6s-0.5-0.2-0.8-0.2c-0.3,0-0.6,0.1-0.7,0.2c-0.2,0.1-0.3,0.3-0.3,0.5c0,0.2,0.1,0.4,0.2,0.5
	c0.2,0.1,0.4,0.2,0.8,0.3c0.4,0.1,0.7,0.2,0.9,0.3c0.2,0.1,0.4,0.2,0.5,0.4c0.1,0.2,0.1,0.3,0.1,0.6c0,0.4-0.1,0.6-0.4,0.9
	c-0.3,0.2-0.7,0.3-1.1,0.3c-0.5,0-0.9-0.1-1.2-0.4c-0.3-0.2-0.5-0.5-0.5-0.9h0.5c0,0.3,0.1,0.5,0.3,0.6c0.2,0.2,0.5,0.2,0.8,0.2
	c0.3,0,0.6-0.1,0.8-0.2C144.5,297.7,144.6,297.5,144.6,297.3z M146.1,298.1c0-0.1,0-0.2,0.1-0.2c0.1-0.1,0.1-0.1,0.2-0.1
	c0.1,0,0.2,0,0.2,0.1c0.1,0.1,0.1,0.1,0.1,0.2c0,0.1,0,0.2-0.1,0.2c-0.1,0.1-0.1,0.1-0.2,0.1c-0.1,0-0.2,0-0.2-0.1
	S146.1,298.2,146.1,298.1z M150.7,298.4h-0.5v-5.7h0.5V298.4z M152.6,294.2l0,0.7c0.2-0.3,0.4-0.5,0.6-0.6c0.2-0.1,0.5-0.2,0.8-0.2
	c0.5,0,0.8,0.1,1,0.4c0.2,0.3,0.3,0.6,0.3,1.1v2.8h-0.5v-2.8c0-0.4-0.1-0.7-0.2-0.8c-0.2-0.2-0.4-0.3-0.8-0.3
	c-0.3,0-0.5,0.1-0.8,0.3c-0.2,0.2-0.4,0.4-0.5,0.7v2.9h-0.5v-4.2H152.6z M159.2,293.1v1.1h0.9v0.4h-0.9v2.8c0,0.2,0,0.4,0.1,0.5
	c0.1,0.1,0.2,0.2,0.4,0.2c0.1,0,0.2,0,0.4,0l0,0.4c-0.1,0-0.3,0.1-0.5,0.1c-0.3,0-0.6-0.1-0.7-0.3c-0.1-0.2-0.2-0.5-0.2-0.8v-2.8
	h-0.8v-0.4h0.8v-1.1H159.2z M161.5,294.9c0.2-0.3,0.4-0.4,0.6-0.6c0.2-0.1,0.5-0.2,0.8-0.2c0.5,0,0.8,0.1,1,0.4
	c0.2,0.3,0.3,0.6,0.3,1.1v2.8h-0.5v-2.8c0-0.4-0.1-0.7-0.2-0.8c-0.2-0.2-0.4-0.3-0.8-0.3c-0.3,0-0.5,0.1-0.8,0.3
	c-0.2,0.2-0.4,0.4-0.5,0.7v2.9H161v-6h0.5V294.9z M165.4,292.9c0-0.1,0-0.2,0.1-0.2c0.1-0.1,0.1-0.1,0.2-0.1c0.1,0,0.2,0,0.2,0.1
	s0.1,0.1,0.1,0.2s0,0.2-0.1,0.2c-0.1,0.1-0.1,0.1-0.2,0.1c-0.1,0-0.2,0-0.2-0.1C165.4,293.1,165.4,293,165.4,292.9z M165.9,298.4
	h-0.5v-4.2h0.5V298.4z M169.7,297.3c0-0.2-0.1-0.4-0.3-0.6c-0.2-0.1-0.5-0.3-0.8-0.3c-0.4-0.1-0.7-0.2-0.9-0.3
	c-0.2-0.1-0.4-0.2-0.5-0.4c-0.1-0.1-0.2-0.3-0.2-0.5c0-0.3,0.1-0.6,0.4-0.8c0.3-0.2,0.6-0.3,1.1-0.3c0.5,0,0.8,0.1,1.1,0.3
	c0.3,0.2,0.4,0.5,0.4,0.9h-0.5c0-0.2-0.1-0.5-0.3-0.6s-0.5-0.2-0.8-0.2c-0.3,0-0.6,0.1-0.7,0.2c-0.2,0.1-0.3,0.3-0.3,0.5
	c0,0.2,0.1,0.4,0.2,0.5c0.2,0.1,0.4,0.2,0.8,0.3c0.4,0.1,0.7,0.2,0.9,0.3c0.2,0.1,0.4,0.2,0.5,0.4c0.1,0.2,0.1,0.3,0.1,0.6
	c0,0.4-0.1,0.6-0.4,0.9c-0.3,0.2-0.7,0.3-1.1,0.3c-0.5,0-0.9-0.1-1.2-0.4c-0.3-0.2-0.5-0.5-0.5-0.9h0.5c0,0.3,0.1,0.5,0.3,0.6
	c0.2,0.2,0.5,0.2,0.8,0.2c0.3,0,0.6-0.1,0.8-0.2C169.6,297.7,169.7,297.5,169.7,297.3z M174.2,297.4l0.1,0.4l0.1-0.4l1-3.2h0.4
	l1,3.2l0.1,0.4l0.1-0.4l0.9-3.2h0.5l-1.2,4.2h-0.4l-1.1-3.4l-0.1-0.2l-0.1,0.2l-1.1,3.3H174l-1.2-4.2h0.5L174.2,297.4z M181.9,298.4
	c0-0.1-0.1-0.3-0.1-0.6c-0.2,0.2-0.4,0.4-0.6,0.5s-0.5,0.2-0.8,0.2c-0.4,0-0.7-0.1-1-0.3c-0.3-0.2-0.4-0.5-0.4-0.9
	c0-0.4,0.2-0.7,0.5-1c0.3-0.2,0.8-0.4,1.4-0.4h0.8v-0.5c0-0.3-0.1-0.5-0.3-0.7c-0.2-0.2-0.5-0.3-0.8-0.3c-0.3,0-0.6,0.1-0.8,0.2
	c-0.2,0.2-0.3,0.4-0.3,0.6l-0.5,0c0-0.3,0.2-0.6,0.5-0.9s0.7-0.4,1.2-0.4c0.5,0,0.8,0.1,1.1,0.4c0.3,0.2,0.4,0.6,0.4,1v2
	c0,0.4,0,0.7,0.1,0.9v0H181.9z M180.4,298.1c0.3,0,0.6-0.1,0.8-0.2c0.2-0.2,0.4-0.4,0.5-0.6v-0.9H181c-0.5,0-0.8,0.1-1.1,0.3
	c-0.3,0.2-0.4,0.4-0.4,0.7c0,0.2,0.1,0.4,0.3,0.6S180.1,298.1,180.4,298.1z M184.8,297.7l1.2-3.6h0.5l-1.8,4.9l-0.1,0.2
	c-0.2,0.5-0.6,0.8-1.1,0.8c-0.1,0-0.2,0-0.4-0.1l0-0.4l0.2,0c0.2,0,0.4-0.1,0.6-0.2c0.1-0.1,0.3-0.3,0.4-0.6l0.2-0.6l-1.6-4.2h0.5
	L184.8,297.7z M190.2,297.4l0.1,0.4l0.1-0.4l1-3.2h0.4l1,3.2l0.1,0.4l0.1-0.4l0.9-3.2h0.5l-1.2,4.2h-0.4l-1.1-3.4l-0.1-0.2l-0.1,0.2
	l-1.1,3.3h-0.4l-1.2-4.2h0.5L190.2,297.4z M198.4,297.7c-0.3,0.5-0.8,0.7-1.5,0.7c-0.4,0-0.7-0.1-1-0.3c-0.3-0.2-0.5-0.4-0.7-0.7
	c-0.2-0.3-0.2-0.7-0.2-1.1v-0.2c0-0.4,0.1-0.8,0.2-1.1c0.2-0.3,0.4-0.6,0.7-0.8c0.3-0.2,0.6-0.3,0.9-0.3c0.5,0,0.9,0.2,1.2,0.5
	c0.3,0.4,0.5,0.8,0.5,1.4v0.3h-3v0.1c0,0.5,0.1,0.9,0.4,1.2c0.3,0.3,0.6,0.5,1,0.5c0.2,0,0.5,0,0.7-0.1c0.2-0.1,0.4-0.2,0.5-0.4
	L198.4,297.7L198.4,297.7z M196.8,294.5c-0.4,0-0.6,0.1-0.9,0.4c-0.2,0.3-0.4,0.6-0.4,1h2.5v-0.1c0-0.4-0.1-0.7-0.3-1
	C197.4,294.6,197.1,294.5,196.8,294.5z M202,293.1v1.1h0.9v0.4H202v2.8c0,0.2,0,0.4,0.1,0.5c0.1,0.1,0.2,0.2,0.4,0.2
	c0.1,0,0.2,0,0.4,0l0,0.4c-0.1,0-0.3,0.1-0.5,0.1c-0.3,0-0.6-0.1-0.7-0.3c-0.1-0.2-0.2-0.5-0.2-0.8v-2.8h-0.8v-0.4h0.8v-1.1H202z
	 M205.8,294.6c-0.1,0-0.2,0-0.3,0c-0.3,0-0.5,0.1-0.7,0.2c-0.2,0.2-0.3,0.4-0.4,0.7v2.9h-0.5v-4.2h0.5l0,0.7
	c0.2-0.5,0.6-0.8,1.2-0.8c0.1,0,0.2,0,0.3,0.1L205.8,294.6z M208,297.7l1.2-3.6h0.5l-1.8,4.9l-0.1,0.2c-0.2,0.5-0.6,0.8-1.1,0.8
	c-0.1,0-0.2,0-0.4-0.1l0-0.4l0.2,0c0.2,0,0.4-0.1,0.6-0.2c0.1-0.1,0.3-0.3,0.4-0.6l0.2-0.6l-1.6-4.2h0.5L208,297.7z M213.1,293.1
	v1.1h0.9v0.4h-0.9v2.8c0,0.2,0,0.4,0.1,0.5c0.1,0.1,0.2,0.2,0.4,0.2c0.1,0,0.2,0,0.4,0l0,0.4c-0.1,0-0.3,0.1-0.5,0.1
	c-0.3,0-0.6-0.1-0.7-0.3c-0.1-0.2-0.2-0.5-0.2-0.8v-2.8h-0.8v-0.4h0.8v-1.1H213.1z M214.6,296.2c0-0.4,0.1-0.8,0.2-1.1
	c0.2-0.3,0.4-0.6,0.7-0.8c0.3-0.2,0.6-0.3,1-0.3c0.6,0,1,0.2,1.4,0.6c0.3,0.4,0.5,0.9,0.5,1.6v0.1c0,0.4-0.1,0.8-0.2,1.1
	c-0.2,0.3-0.4,0.6-0.7,0.8c-0.3,0.2-0.6,0.3-1,0.3c-0.6,0-1-0.2-1.4-0.6C214.8,297.5,214.6,297,214.6,296.2L214.6,296.2z
	 M215.1,296.3c0,0.5,0.1,0.9,0.4,1.2s0.6,0.5,1,0.5c0.4,0,0.8-0.2,1-0.5s0.4-0.8,0.4-1.3v-0.1c0-0.3-0.1-0.6-0.2-0.9
	c-0.1-0.3-0.3-0.5-0.5-0.6c-0.2-0.1-0.5-0.2-0.7-0.2c-0.4,0-0.8,0.2-1,0.5C215.2,295.3,215.1,295.7,215.1,296.3L215.1,296.3z
	 M221.6,298.4v-3.8h-0.7v-0.4h0.7v-0.4c0-0.5,0.1-0.8,0.4-1c0.2-0.2,0.6-0.4,1-0.4c0.3,0,0.7,0.1,1.1,0.2l-0.1,0.4
	c-0.3-0.1-0.6-0.2-1-0.2c-0.6,0-1,0.3-1,1v0.4h1v0.4h-1v3.8H221.6z M224.3,298.4h-0.5v-4.2h0.5V298.4z M226,294.2l0,0.7
	c0.2-0.3,0.4-0.5,0.6-0.6c0.2-0.1,0.5-0.2,0.8-0.2c0.5,0,0.8,0.1,1,0.4c0.2,0.3,0.3,0.6,0.3,1.1v2.8h-0.5v-2.8
	c0-0.4-0.1-0.7-0.2-0.8c-0.2-0.2-0.4-0.3-0.8-0.3c-0.3,0-0.5,0.1-0.8,0.3c-0.2,0.2-0.4,0.4-0.5,0.7v2.9h-0.5v-4.2H226z M229.8,296.2
	c0-0.7,0.1-1.2,0.4-1.6c0.3-0.4,0.7-0.6,1.2-0.6c0.6,0,1,0.2,1.3,0.7v-2.4h0.5v6h-0.4l0-0.6c-0.3,0.4-0.7,0.6-1.3,0.6
	c-0.5,0-0.9-0.2-1.2-0.6C230,297.5,229.8,297,229.8,296.2L229.8,296.2z M230.3,296.3c0,0.5,0.1,1,0.3,1.3c0.2,0.3,0.5,0.5,0.9,0.5
	c0.6,0,1-0.3,1.2-0.8v-2c-0.2-0.5-0.6-0.8-1.2-0.8c-0.4,0-0.7,0.2-0.9,0.5S230.3,295.7,230.3,296.3z"/>
<path class="st3" d="M94.2,308c0-0.1-0.1-0.3-0.1-0.6c-0.2,0.2-0.4,0.4-0.6,0.5s-0.5,0.2-0.8,0.2c-0.4,0-0.7-0.1-1-0.3
	c-0.3-0.2-0.4-0.5-0.4-0.9c0-0.4,0.2-0.7,0.5-1c0.3-0.2,0.8-0.4,1.4-0.4h0.8v-0.5c0-0.3-0.1-0.5-0.3-0.7c-0.2-0.2-0.5-0.3-0.8-0.3
	c-0.3,0-0.6,0.1-0.8,0.2c-0.2,0.2-0.3,0.4-0.3,0.6l-0.5,0c0-0.3,0.2-0.6,0.5-0.9s0.7-0.4,1.2-0.4c0.5,0,0.8,0.1,1.1,0.4
	c0.3,0.2,0.4,0.6,0.4,1v2c0,0.4,0,0.7,0.1,0.9v0H94.2z M92.7,307.7c0.3,0,0.6-0.1,0.8-0.2c0.2-0.2,0.4-0.4,0.5-0.6v-0.9h-0.8
	c-0.5,0-0.8,0.1-1.1,0.3c-0.3,0.2-0.4,0.4-0.4,0.7c0,0.2,0.1,0.4,0.3,0.6S92.4,307.7,92.7,307.7z M96.2,303.8l0,0.7
	c0.2-0.3,0.4-0.5,0.6-0.6c0.2-0.1,0.5-0.2,0.8-0.2c0.5,0,0.8,0.1,1,0.4c0.2,0.3,0.3,0.6,0.3,1.1v2.8h-0.5v-2.8
	c0-0.4-0.1-0.7-0.2-0.8c-0.2-0.2-0.4-0.3-0.8-0.3c-0.3,0-0.5,0.1-0.8,0.3c-0.2,0.2-0.4,0.4-0.5,0.7v2.9h-0.5v-4.2H96.2z
	 M102.7,306.9c0-0.2-0.1-0.4-0.3-0.6c-0.2-0.1-0.5-0.3-0.8-0.3c-0.4-0.1-0.7-0.2-0.9-0.3c-0.2-0.1-0.4-0.2-0.5-0.4
	c-0.1-0.1-0.2-0.3-0.2-0.5c0-0.3,0.1-0.6,0.4-0.8c0.3-0.2,0.6-0.3,1.1-0.3c0.5,0,0.8,0.1,1.1,0.3c0.3,0.2,0.4,0.5,0.4,0.9h-0.5
	c0-0.2-0.1-0.5-0.3-0.6s-0.5-0.2-0.8-0.2c-0.3,0-0.6,0.1-0.7,0.2c-0.2,0.1-0.3,0.3-0.3,0.5c0,0.2,0.1,0.4,0.2,0.5
	c0.2,0.1,0.4,0.2,0.8,0.3c0.4,0.1,0.7,0.2,0.9,0.3c0.2,0.1,0.4,0.2,0.5,0.4c0.1,0.2,0.1,0.3,0.1,0.6c0,0.4-0.1,0.6-0.4,0.9
	c-0.3,0.2-0.7,0.3-1.1,0.3c-0.5,0-0.9-0.1-1.2-0.4c-0.3-0.2-0.5-0.5-0.5-0.9h0.5c0,0.3,0.1,0.5,0.3,0.6c0.2,0.2,0.5,0.2,0.8,0.2
	c0.3,0,0.6-0.1,0.8-0.2C102.6,307.3,102.7,307.1,102.7,306.9z M105.2,307l0.1,0.4l0.1-0.4l1-3.2h0.4l1,3.2l0.1,0.4l0.1-0.4l0.9-3.2
	h0.5l-1.2,4.2h-0.4l-1.1-3.4l-0.1-0.2l-0.1,0.2l-1.1,3.3h-0.4l-1.2-4.2h0.5L105.2,307z M113.4,307.3c-0.3,0.5-0.8,0.7-1.5,0.7
	c-0.4,0-0.7-0.1-1-0.3c-0.3-0.2-0.5-0.4-0.7-0.7c-0.2-0.3-0.2-0.7-0.2-1.1v-0.2c0-0.4,0.1-0.8,0.2-1.1c0.2-0.3,0.4-0.6,0.7-0.8
	c0.3-0.2,0.6-0.3,0.9-0.3c0.5,0,0.9,0.2,1.2,0.5c0.3,0.4,0.5,0.8,0.5,1.4v0.3h-3v0.1c0,0.5,0.1,0.9,0.4,1.2c0.3,0.3,0.6,0.5,1,0.5
	c0.2,0,0.5,0,0.7-0.1c0.2-0.1,0.4-0.2,0.5-0.4L113.4,307.3L113.4,307.3z M111.8,304.1c-0.4,0-0.6,0.1-0.9,0.4
	c-0.2,0.3-0.4,0.6-0.4,1h2.5v-0.1c0-0.4-0.1-0.7-0.3-1C112.4,304.2,112.2,304.1,111.8,304.1z M116.3,304.2c-0.1,0-0.2,0-0.3,0
	c-0.3,0-0.5,0.1-0.7,0.2c-0.2,0.2-0.3,0.4-0.4,0.7v2.9h-0.5v-4.2h0.5l0,0.7c0.2-0.5,0.6-0.8,1.2-0.8c0.1,0,0.2,0,0.3,0.1
	L116.3,304.2z M119.6,306.9c0-0.2-0.1-0.4-0.3-0.6c-0.2-0.1-0.5-0.3-0.8-0.3c-0.4-0.1-0.7-0.2-0.9-0.3c-0.2-0.1-0.4-0.2-0.5-0.4
	c-0.1-0.1-0.2-0.3-0.2-0.5c0-0.3,0.1-0.6,0.4-0.8c0.3-0.2,0.6-0.3,1.1-0.3c0.5,0,0.8,0.1,1.1,0.3c0.3,0.2,0.4,0.5,0.4,0.9h-0.5
	c0-0.2-0.1-0.5-0.3-0.6s-0.5-0.2-0.8-0.2c-0.3,0-0.6,0.1-0.7,0.2c-0.2,0.1-0.3,0.3-0.3,0.5c0,0.2,0.1,0.4,0.2,0.5
	c0.2,0.1,0.4,0.2,0.8,0.3c0.4,0.1,0.7,0.2,0.9,0.3c0.2,0.1,0.4,0.2,0.5,0.4c0.1,0.2,0.1,0.3,0.1,0.6c0,0.4-0.1,0.6-0.4,0.9
	c-0.3,0.2-0.7,0.3-1.1,0.3c-0.5,0-0.9-0.1-1.2-0.4c-0.3-0.2-0.5-0.5-0.5-0.9h0.5c0,0.3,0.1,0.5,0.3,0.6c0.2,0.2,0.5,0.2,0.8,0.2
	c0.3,0,0.6-0.1,0.8-0.2C119.5,307.3,119.6,307.1,119.6,306.9z M125.7,308c0-0.1-0.1-0.3-0.1-0.6c-0.2,0.2-0.4,0.4-0.6,0.5
	s-0.5,0.2-0.8,0.2c-0.4,0-0.7-0.1-1-0.3c-0.3-0.2-0.4-0.5-0.4-0.9c0-0.4,0.2-0.7,0.5-1c0.3-0.2,0.8-0.4,1.4-0.4h0.8v-0.5
	c0-0.3-0.1-0.5-0.3-0.7c-0.2-0.2-0.5-0.3-0.8-0.3c-0.3,0-0.6,0.1-0.8,0.2c-0.2,0.2-0.3,0.4-0.3,0.6l-0.5,0c0-0.3,0.2-0.6,0.5-0.9
	s0.7-0.4,1.2-0.4c0.5,0,0.8,0.1,1.1,0.4c0.3,0.2,0.4,0.6,0.4,1v2c0,0.4,0,0.7,0.1,0.9v0H125.7z M124.3,307.7c0.3,0,0.6-0.1,0.8-0.2
	c0.2-0.2,0.4-0.4,0.5-0.6v-0.9h-0.8c-0.5,0-0.8,0.1-1.1,0.3c-0.3,0.2-0.4,0.4-0.4,0.7c0,0.2,0.1,0.4,0.3,0.6S124,307.7,124.3,307.7z
	 M127.8,303.8l0,0.7c0.2-0.3,0.4-0.5,0.6-0.6c0.2-0.1,0.5-0.2,0.8-0.2c0.5,0,0.8,0.1,1,0.4c0.2,0.3,0.3,0.6,0.3,1.1v2.8h-0.5v-2.8
	c0-0.4-0.1-0.7-0.2-0.8c-0.2-0.2-0.4-0.3-0.8-0.3c-0.3,0-0.5,0.1-0.8,0.3c-0.2,0.2-0.4,0.4-0.5,0.7v2.9h-0.5v-4.2H127.8z
	 M131.6,305.8c0-0.7,0.1-1.2,0.4-1.6c0.3-0.4,0.7-0.6,1.2-0.6c0.6,0,1,0.2,1.3,0.7V302h0.5v6h-0.4l0-0.6c-0.3,0.4-0.7,0.6-1.3,0.6
	c-0.5,0-0.9-0.2-1.2-0.6C131.7,307.1,131.6,306.6,131.6,305.8L131.6,305.8z M132,305.9c0,0.5,0.1,1,0.3,1.3c0.2,0.3,0.5,0.5,0.9,0.5
	c0.6,0,1-0.3,1.2-0.8v-2c-0.2-0.5-0.6-0.8-1.2-0.8c-0.4,0-0.7,0.2-0.9,0.5S132,305.3,132,305.9z M138.4,308v-3.8h-0.7v-0.4h0.7v-0.4
	c0-0.5,0.1-0.8,0.4-1c0.2-0.2,0.6-0.4,1-0.4c0.3,0,0.7,0.1,1.1,0.2l-0.1,0.4c-0.3-0.1-0.6-0.2-1-0.2c-0.6,0-1,0.3-1,1v0.4h1v0.4h-1
	v3.8H138.4z M141.2,308h-0.5v-4.2h0.5V308z M142.9,303.8l0,0.7c0.2-0.3,0.4-0.5,0.6-0.6c0.2-0.1,0.5-0.2,0.8-0.2
	c0.5,0,0.8,0.1,1,0.4c0.2,0.3,0.3,0.6,0.3,1.1v2.8h-0.5v-2.8c0-0.4-0.1-0.7-0.2-0.8c-0.2-0.2-0.4-0.3-0.8-0.3
	c-0.3,0-0.5,0.1-0.8,0.3c-0.2,0.2-0.4,0.4-0.5,0.7v2.9h-0.5v-4.2H142.9z M146.6,305.8c0-0.7,0.1-1.2,0.4-1.6
	c0.3-0.4,0.7-0.6,1.2-0.6c0.6,0,1,0.2,1.3,0.7V302h0.5v6h-0.4l0-0.6c-0.3,0.4-0.7,0.6-1.3,0.6c-0.5,0-0.9-0.2-1.2-0.6
	C146.8,307.1,146.6,306.6,146.6,305.8L146.6,305.8z M147.1,305.9c0,0.5,0.1,1,0.3,1.3c0.2,0.3,0.5,0.5,0.9,0.5c0.6,0,1-0.3,1.2-0.8
	v-2c-0.2-0.5-0.6-0.8-1.2-0.8c-0.4,0-0.7,0.2-0.9,0.5S147.1,305.3,147.1,305.9z M155.2,304.2c-0.1,0-0.2,0-0.3,0
	c-0.3,0-0.5,0.1-0.7,0.2c-0.2,0.2-0.3,0.4-0.4,0.7v2.9h-0.5v-4.2h0.5l0,0.7c0.2-0.5,0.6-0.8,1.2-0.8c0.1,0,0.2,0,0.3,0.1
	L155.2,304.2z M159,307.3c-0.3,0.5-0.8,0.7-1.5,0.7c-0.4,0-0.7-0.1-1-0.3c-0.3-0.2-0.5-0.4-0.7-0.7c-0.2-0.3-0.2-0.7-0.2-1.1v-0.2
	c0-0.4,0.1-0.8,0.2-1.1c0.2-0.3,0.4-0.6,0.7-0.8c0.3-0.2,0.6-0.3,0.9-0.3c0.5,0,0.9,0.2,1.2,0.5c0.3,0.4,0.5,0.8,0.5,1.4v0.3h-3v0.1
	c0,0.5,0.1,0.9,0.4,1.2c0.3,0.3,0.6,0.5,1,0.5c0.2,0,0.5,0,0.7-0.1c0.2-0.1,0.4-0.2,0.5-0.4L159,307.3L159,307.3z M157.4,304.1
	c-0.4,0-0.6,0.1-0.9,0.4c-0.2,0.3-0.4,0.6-0.4,1h2.5v-0.1c0-0.4-0.1-0.7-0.3-1C158,304.2,157.7,304.1,157.4,304.1z M160.4,303.8
	l0,0.7c0.2-0.3,0.4-0.4,0.6-0.6c0.2-0.1,0.5-0.2,0.8-0.2c0.7,0,1.1,0.3,1.3,0.8c0.2-0.3,0.4-0.5,0.6-0.6c0.3-0.1,0.5-0.2,0.8-0.2
	c0.9,0,1.4,0.5,1.4,1.5v2.8h-0.5v-2.8c0-0.4-0.1-0.7-0.2-0.8c-0.2-0.2-0.4-0.3-0.8-0.3c-0.3,0-0.6,0.1-0.9,0.3
	c-0.2,0.2-0.4,0.5-0.4,0.8v2.8h-0.5v-2.8c0-0.4-0.1-0.6-0.3-0.8c-0.2-0.2-0.4-0.3-0.8-0.3c-0.3,0-0.5,0.1-0.8,0.3s-0.4,0.4-0.5,0.7
	v2.9H160v-4.2H160.4z M170.2,307.3c-0.3,0.5-0.8,0.7-1.5,0.7c-0.4,0-0.7-0.1-1-0.3c-0.3-0.2-0.5-0.4-0.7-0.7
	c-0.2-0.3-0.2-0.7-0.2-1.1v-0.2c0-0.4,0.1-0.8,0.2-1.1c0.2-0.3,0.4-0.6,0.7-0.8c0.3-0.2,0.6-0.3,0.9-0.3c0.5,0,0.9,0.2,1.2,0.5
	c0.3,0.4,0.5,0.8,0.5,1.4v0.3h-3v0.1c0,0.5,0.1,0.9,0.4,1.2c0.3,0.3,0.6,0.5,1,0.5c0.2,0,0.5,0,0.7-0.1c0.2-0.1,0.4-0.2,0.5-0.4
	L170.2,307.3L170.2,307.3z M168.6,304.1c-0.4,0-0.6,0.1-0.9,0.4c-0.2,0.3-0.4,0.6-0.4,1h2.5v-0.1c0-0.4-0.1-0.7-0.3-1
	C169.3,304.2,169,304.1,168.6,304.1z M171,305.8c0-0.7,0.1-1.2,0.4-1.6c0.3-0.4,0.7-0.6,1.2-0.6c0.6,0,1,0.2,1.3,0.7V302h0.5v6H174
	l0-0.6c-0.3,0.4-0.7,0.6-1.3,0.6c-0.5,0-0.9-0.2-1.2-0.6C171.2,307.1,171,306.6,171,305.8L171,305.8z M171.5,305.9
	c0,0.5,0.1,1,0.3,1.3c0.2,0.3,0.5,0.5,0.9,0.5c0.6,0,1-0.3,1.2-0.8v-2c-0.2-0.5-0.6-0.8-1.2-0.8c-0.4,0-0.7,0.2-0.9,0.5
	S171.5,305.3,171.5,305.9z M175.6,302.5c0-0.1,0-0.2,0.1-0.2c0.1-0.1,0.1-0.1,0.2-0.1c0.1,0,0.2,0,0.2,0.1s0.1,0.1,0.1,0.2
	s0,0.2-0.1,0.2c-0.1,0.1-0.1,0.1-0.2,0.1c-0.1,0-0.2,0-0.2-0.1C175.7,302.7,175.6,302.6,175.6,302.5z M176.2,308h-0.5v-4.2h0.5V308z
	 M180.6,307.3c-0.3,0.5-0.8,0.7-1.5,0.7c-0.4,0-0.7-0.1-1-0.3c-0.3-0.2-0.5-0.4-0.7-0.7c-0.2-0.3-0.2-0.7-0.2-1.1v-0.2
	c0-0.4,0.1-0.8,0.2-1.1c0.2-0.3,0.4-0.6,0.7-0.8c0.3-0.2,0.6-0.3,0.9-0.3c0.5,0,0.9,0.2,1.2,0.5c0.3,0.4,0.5,0.8,0.5,1.4v0.3h-3v0.1
	c0,0.5,0.1,0.9,0.4,1.2c0.3,0.3,0.6,0.5,1,0.5c0.2,0,0.5,0,0.7-0.1c0.2-0.1,0.4-0.2,0.5-0.4L180.6,307.3L180.6,307.3z M179,304.1
	c-0.4,0-0.6,0.1-0.9,0.4c-0.2,0.3-0.4,0.6-0.4,1h2.5v-0.1c0-0.4-0.1-0.7-0.3-1C179.6,304.2,179.3,304.1,179,304.1z M184.1,306.9
	c0-0.2-0.1-0.4-0.3-0.6c-0.2-0.1-0.5-0.3-0.8-0.3c-0.4-0.1-0.7-0.2-0.9-0.3c-0.2-0.1-0.4-0.2-0.5-0.4c-0.1-0.1-0.2-0.3-0.2-0.5
	c0-0.3,0.1-0.6,0.4-0.8c0.3-0.2,0.6-0.3,1.1-0.3c0.5,0,0.8,0.1,1.1,0.3c0.3,0.2,0.4,0.5,0.4,0.9h-0.5c0-0.2-0.1-0.5-0.3-0.6
	s-0.5-0.2-0.8-0.2c-0.3,0-0.6,0.1-0.7,0.2c-0.2,0.1-0.3,0.3-0.3,0.5c0,0.2,0.1,0.4,0.2,0.5c0.2,0.1,0.4,0.2,0.8,0.3
	c0.4,0.1,0.7,0.2,0.9,0.3c0.2,0.1,0.4,0.2,0.5,0.4c0.1,0.2,0.1,0.3,0.1,0.6c0,0.4-0.1,0.6-0.4,0.9c-0.3,0.2-0.7,0.3-1.1,0.3
	c-0.5,0-0.9-0.1-1.2-0.4c-0.3-0.2-0.5-0.5-0.5-0.9h0.5c0,0.3,0.1,0.5,0.3,0.6c0.2,0.2,0.5,0.2,0.8,0.2c0.3,0,0.6-0.1,0.8-0.2
	C184,307.3,184.1,307.1,184.1,306.9z M187.9,308v-3.8h-0.7v-0.4h0.7v-0.5c0-0.4,0.1-0.8,0.3-1c0.2-0.2,0.5-0.3,0.9-0.3
	c0.2,0,0.3,0,0.5,0.1l0,0.4c-0.1,0-0.3,0-0.4,0c-0.3,0-0.5,0.1-0.6,0.2c-0.1,0.2-0.2,0.4-0.2,0.7v0.5h1v0.4h-1v3.8H187.9z
	 M190,305.8c0-0.4,0.1-0.8,0.2-1.1c0.2-0.3,0.4-0.6,0.7-0.8c0.3-0.2,0.6-0.3,1-0.3c0.6,0,1,0.2,1.4,0.6c0.3,0.4,0.5,0.9,0.5,1.6v0.1
	c0,0.4-0.1,0.8-0.2,1.1c-0.2,0.3-0.4,0.6-0.7,0.8c-0.3,0.2-0.6,0.3-1,0.3c-0.6,0-1-0.2-1.4-0.6C190.1,307.1,190,306.6,190,305.8
	L190,305.8z M190.4,305.9c0,0.5,0.1,0.9,0.4,1.2s0.6,0.5,1,0.5c0.4,0,0.8-0.2,1-0.5s0.4-0.8,0.4-1.3v-0.1c0-0.3-0.1-0.6-0.2-0.9
	c-0.1-0.3-0.3-0.5-0.5-0.6c-0.2-0.1-0.5-0.2-0.7-0.2c-0.4,0-0.8,0.2-1,0.5C190.6,304.9,190.4,305.3,190.4,305.9L190.4,305.9z
	 M196.7,304.2c-0.1,0-0.2,0-0.3,0c-0.3,0-0.5,0.1-0.7,0.2c-0.2,0.2-0.3,0.4-0.4,0.7v2.9h-0.5v-4.2h0.5l0,0.7
	c0.2-0.5,0.6-0.8,1.2-0.8c0.1,0,0.2,0,0.3,0.1L196.7,304.2z M199.1,305.8c0-0.4,0.1-0.8,0.2-1.1c0.2-0.3,0.4-0.6,0.7-0.8
	c0.3-0.2,0.6-0.3,1-0.3c0.6,0,1,0.2,1.4,0.6c0.3,0.4,0.5,0.9,0.5,1.6v0.1c0,0.4-0.1,0.8-0.2,1.1c-0.2,0.3-0.4,0.6-0.7,0.8
	c-0.3,0.2-0.6,0.3-1,0.3c-0.6,0-1-0.2-1.4-0.6C199.2,307.1,199.1,306.6,199.1,305.8L199.1,305.8z M199.5,305.9
	c0,0.5,0.1,0.9,0.4,1.2s0.6,0.5,1,0.5c0.4,0,0.8-0.2,1-0.5s0.4-0.8,0.4-1.3v-0.1c0-0.3-0.1-0.6-0.2-0.9c-0.1-0.3-0.3-0.5-0.5-0.6
	c-0.2-0.1-0.5-0.2-0.7-0.2c-0.4,0-0.8,0.2-1,0.5C199.7,304.9,199.5,305.3,199.5,305.9L199.5,305.9z M206.5,307.5
	c-0.3,0.4-0.7,0.6-1.3,0.6c-0.5,0-0.8-0.1-1-0.4s-0.4-0.6-0.4-1.2v-2.8h0.5v2.7c0,0.8,0.3,1.2,1,1.2c0.7,0,1.1-0.3,1.3-0.8v-3.1h0.5
	v4.2h-0.5L206.5,307.5z M210.2,304.2c-0.1,0-0.2,0-0.3,0c-0.3,0-0.5,0.1-0.7,0.2c-0.2,0.2-0.3,0.4-0.4,0.7v2.9h-0.5v-4.2h0.5l0,0.7
	c0.2-0.5,0.6-0.8,1.2-0.8c0.1,0,0.2,0,0.3,0.1L210.2,304.2z M212.6,305.8c0-0.7,0.1-1.2,0.4-1.6c0.3-0.4,0.7-0.6,1.2-0.6
	c0.6,0,1,0.2,1.3,0.7V302h0.5v6h-0.4l0-0.6c-0.3,0.4-0.7,0.6-1.3,0.6c-0.5,0-0.9-0.2-1.2-0.6C212.8,307.1,212.6,306.6,212.6,305.8
	L212.6,305.8z M213.1,305.9c0,0.5,0.1,1,0.3,1.3c0.2,0.3,0.5,0.5,0.9,0.5c0.6,0,1-0.3,1.2-0.8v-2c-0.2-0.5-0.6-0.8-1.2-0.8
	c-0.4,0-0.7,0.2-0.9,0.5S213.1,305.3,213.1,305.9z M217.3,302.5c0-0.1,0-0.2,0.1-0.2c0.1-0.1,0.1-0.1,0.2-0.1c0.1,0,0.2,0,0.2,0.1
	s0.1,0.1,0.1,0.2s0,0.2-0.1,0.2c-0.1,0.1-0.1,0.1-0.2,0.1c-0.1,0-0.2,0-0.2-0.1C217.3,302.7,217.3,302.6,217.3,302.5z M217.8,308
	h-0.5v-4.2h0.5V308z M221.6,306.9c0-0.2-0.1-0.4-0.3-0.6c-0.2-0.1-0.5-0.3-0.8-0.3c-0.4-0.1-0.7-0.2-0.9-0.3
	c-0.2-0.1-0.4-0.2-0.5-0.4c-0.1-0.1-0.2-0.3-0.2-0.5c0-0.3,0.1-0.6,0.4-0.8c0.3-0.2,0.6-0.3,1.1-0.3c0.5,0,0.8,0.1,1.1,0.3
	c0.3,0.2,0.4,0.5,0.4,0.9h-0.5c0-0.2-0.1-0.5-0.3-0.6s-0.5-0.2-0.8-0.2c-0.3,0-0.6,0.1-0.7,0.2c-0.2,0.1-0.3,0.3-0.3,0.5
	c0,0.2,0.1,0.4,0.2,0.5c0.2,0.1,0.4,0.2,0.8,0.3c0.4,0.1,0.7,0.2,0.9,0.3c0.2,0.1,0.4,0.2,0.5,0.4c0.1,0.2,0.1,0.3,0.1,0.6
	c0,0.4-0.1,0.6-0.4,0.9c-0.3,0.2-0.7,0.3-1.1,0.3c-0.5,0-0.9-0.1-1.2-0.4c-0.3-0.2-0.5-0.5-0.5-0.9h0.5c0,0.3,0.1,0.5,0.3,0.6
	c0.2,0.2,0.5,0.2,0.8,0.2c0.3,0,0.6-0.1,0.8-0.2C221.5,307.3,221.6,307.1,221.6,306.9z M226.3,307.3c-0.3,0.5-0.8,0.7-1.5,0.7
	c-0.4,0-0.7-0.1-1-0.3c-0.3-0.2-0.5-0.4-0.7-0.7c-0.2-0.3-0.2-0.7-0.2-1.1v-0.2c0-0.4,0.1-0.8,0.2-1.1c0.2-0.3,0.4-0.6,0.7-0.8
	c0.3-0.2,0.6-0.3,0.9-0.3c0.5,0,0.9,0.2,1.2,0.5c0.3,0.4,0.5,0.8,0.5,1.4v0.3h-3v0.1c0,0.5,0.1,0.9,0.4,1.2c0.3,0.3,0.6,0.5,1,0.5
	c0.2,0,0.5,0,0.7-0.1c0.2-0.1,0.4-0.2,0.5-0.4L226.3,307.3L226.3,307.3z M224.7,304.1c-0.4,0-0.6,0.1-0.9,0.4
	c-0.2,0.3-0.4,0.6-0.4,1h2.5v-0.1c0-0.4-0.1-0.7-0.3-1C225.3,304.2,225,304.1,224.7,304.1z M229.9,308c0-0.1-0.1-0.3-0.1-0.6
	c-0.2,0.2-0.4,0.4-0.6,0.5s-0.5,0.2-0.8,0.2c-0.4,0-0.7-0.1-1-0.3c-0.3-0.2-0.4-0.5-0.4-0.9c0-0.4,0.2-0.7,0.5-1
	c0.3-0.2,0.8-0.4,1.4-0.4h0.8v-0.5c0-0.3-0.1-0.5-0.3-0.7c-0.2-0.2-0.5-0.3-0.8-0.3c-0.3,0-0.6,0.1-0.8,0.2
	c-0.2,0.2-0.3,0.4-0.3,0.6l-0.5,0c0-0.3,0.2-0.6,0.5-0.9s0.7-0.4,1.2-0.4c0.5,0,0.8,0.1,1.1,0.4c0.3,0.2,0.4,0.6,0.4,1v2
	c0,0.4,0,0.7,0.1,0.9v0H229.9z M228.5,307.7c0.3,0,0.6-0.1,0.8-0.2c0.2-0.2,0.4-0.4,0.5-0.6v-0.9H229c-0.5,0-0.8,0.1-1.1,0.3
	c-0.3,0.2-0.4,0.4-0.4,0.7c0,0.2,0.1,0.4,0.3,0.6S228.2,307.7,228.5,307.7z M234.1,306.9c0-0.2-0.1-0.4-0.3-0.6
	c-0.2-0.1-0.5-0.3-0.8-0.3c-0.4-0.1-0.7-0.2-0.9-0.3c-0.2-0.1-0.4-0.2-0.5-0.4c-0.1-0.1-0.2-0.3-0.2-0.5c0-0.3,0.1-0.6,0.4-0.8
	c0.3-0.2,0.6-0.3,1.1-0.3c0.5,0,0.8,0.1,1.1,0.3c0.3,0.2,0.4,0.5,0.4,0.9h-0.5c0-0.2-0.1-0.5-0.3-0.6s-0.5-0.2-0.8-0.2
	c-0.3,0-0.6,0.1-0.7,0.2c-0.2,0.1-0.3,0.3-0.3,0.5c0,0.2,0.1,0.4,0.2,0.5c0.2,0.1,0.4,0.2,0.8,0.3c0.4,0.1,0.7,0.2,0.9,0.3
	c0.2,0.1,0.4,0.2,0.5,0.4c0.1,0.2,0.1,0.3,0.1,0.6c0,0.4-0.1,0.6-0.4,0.9c-0.3,0.2-0.7,0.3-1.1,0.3c-0.5,0-0.9-0.1-1.2-0.4
	c-0.3-0.2-0.5-0.5-0.5-0.9h0.5c0,0.3,0.1,0.5,0.3,0.6c0.2,0.2,0.5,0.2,0.8,0.2c0.3,0,0.6-0.1,0.8-0.2
	C234,307.3,234.1,307.1,234.1,306.9z M238.7,307.3c-0.3,0.5-0.8,0.7-1.5,0.7c-0.4,0-0.7-0.1-1-0.3c-0.3-0.2-0.5-0.4-0.7-0.7
	c-0.2-0.3-0.2-0.7-0.2-1.1v-0.2c0-0.4,0.1-0.8,0.2-1.1c0.2-0.3,0.4-0.6,0.7-0.8c0.3-0.2,0.6-0.3,0.9-0.3c0.5,0,0.9,0.2,1.2,0.5
	c0.3,0.4,0.5,0.8,0.5,1.4v0.3h-3v0.1c0,0.5,0.1,0.9,0.4,1.2c0.3,0.3,0.6,0.5,1,0.5c0.2,0,0.5,0,0.7-0.1c0.2-0.1,0.4-0.2,0.5-0.4
	L238.7,307.3L238.7,307.3z M237.1,304.1c-0.4,0-0.6,0.1-0.9,0.4c-0.2,0.3-0.4,0.6-0.4,1h2.5v-0.1c0-0.4-0.1-0.7-0.3-1
	C237.8,304.2,237.5,304.1,237.1,304.1z M242.3,306.9c0-0.2-0.1-0.4-0.3-0.6c-0.2-0.1-0.5-0.3-0.8-0.3c-0.4-0.1-0.7-0.2-0.9-0.3
	c-0.2-0.1-0.4-0.2-0.5-0.4c-0.1-0.1-0.2-0.3-0.2-0.5c0-0.3,0.1-0.6,0.4-0.8c0.3-0.2,0.6-0.3,1.1-0.3c0.5,0,0.8,0.1,1.1,0.3
	c0.3,0.2,0.4,0.5,0.4,0.9h-0.5c0-0.2-0.1-0.5-0.3-0.6s-0.5-0.2-0.8-0.2c-0.3,0-0.6,0.1-0.7,0.2c-0.2,0.1-0.3,0.3-0.3,0.5
	c0,0.2,0.1,0.4,0.2,0.5c0.2,0.1,0.4,0.2,0.8,0.3c0.4,0.1,0.7,0.2,0.9,0.3c0.2,0.1,0.4,0.2,0.5,0.4c0.1,0.2,0.1,0.3,0.1,0.6
	c0,0.4-0.1,0.6-0.4,0.9c-0.3,0.2-0.7,0.3-1.1,0.3c-0.5,0-0.9-0.1-1.2-0.4c-0.3-0.2-0.5-0.5-0.5-0.9h0.5c0,0.3,0.1,0.5,0.3,0.6
	c0.2,0.2,0.5,0.2,0.8,0.2c0.3,0,0.6-0.1,0.8-0.2C242.2,307.3,242.3,307.1,242.3,306.9z"/>
<text transform="matrix(1 0 0 1 90.8812 317.5877)"><tspan x="0" y="0" class="st3 st4 st5">and ailments. </tspan><tspan x="49" y="0" class="st3 st4 st5">W</tspan><tspan x="56.1" y="0" class="st3 st4 st5">e do not immediately go </tspan><tspan x="142.2" y="0" class="st3 st4 st5">t</tspan><tspan x="144.7" y="0" class="st3 st4 st5">o </tspan></text>
<text transform="matrix(1 0 0 1 90.8812 327.1883)"><tspan x="0" y="0" class="st3 st4 st5">the doc</tspan><tspan x="26.1" y="0" class="st3 st4 st5">t</tspan><tspan x="28.6" y="0" class="st3 st4 st5">or with our questions.</tspan></text>
<text transform="matrix(1 0 0 1 90.8812 346.3875)" class="st3 st4 st5">When people look up complaints on the </text>
<text transform="matrix(1 0 0 1 90.8812 355.9881)"><tspan x="0" y="0" class="st3 st4 st5">internet, </tspan><tspan x="30.2" y="0" class="st3 st4 st5">y</tspan><tspan x="33.9" y="0" class="st3 st4 st5">ou quickly go f</tspan><tspan x="84.5" y="0" class="st3 st4 st5">r</tspan><tspan x="87.1" y="0" class="st3 st4 st5">om a normal </tspan></text>
<text transform="matrix(1 0 0 1 90.8812 365.5877)"><tspan x="0" y="0" class="st3 st4 st5">headache </tspan><tspan x="36.1" y="0" class="st3 st4 st5">t</tspan><tspan x="38.6" y="0" class="st3 st4 st5">o a b</tspan><tspan x="55.7" y="0" class="st3 st4 st5">r</tspan><tspan x="58.2" y="0" class="st3 st4 st5">ain tumo</tspan><tspan x="89.2" y="0" class="st3 st4 st5">r</tspan><tspan x="91.4" y="0" class="st3 st4 st5">. How</tspan><tspan x="111.4" y="0" class="st3 st4 st5">e</tspan><tspan x="115.5" y="0" class="st3 st4 st5">v</tspan><tspan x="119.3" y="0" class="st3 st4 st5">e</tspan><tspan x="123.5" y="0" class="st3 st4 st5">r</tspan><tspan x="125.7" y="0" class="st3 st4 st5">, the </tspan></text>
<text transform="matrix(1 0 0 1 90.8812 375.1883)"><tspan x="0" y="0" class="st3 st4 st5">chance is small that </tspan><tspan x="71.9" y="0" class="st3 st4 st5">y</tspan><tspan x="75.7" y="0" class="st3 st4 st5">our headache was </tspan></text>
<text transform="matrix(1 0 0 1 90.8812 384.7879)"><tspan x="0" y="0" class="st3 st4 st5">caused </tspan><tspan x="27.4" y="0" class="st3 st4 st5">b</tspan><tspan x="31.8" y="0" class="st3 st4 st5">y this.</tspan></text>
<text transform="matrix(1 0 0 1 90.8812 403.9881)"><tspan x="0" y="0" class="st3 st4 st5">In one stud</tspan><tspan x="38.9" y="0" class="st3 st4 st5">y</tspan><tspan x="42.3" y="0" class="st3 st4 st5">, only 34% of the online </tspan><tspan x="123.9" y="0" class="st3 st4 st5">t</tspan><tspan x="126.5" y="0" class="st3 st4 st5">ools </tspan></text>
<text transform="matrix(1 0 0 1 90.8812 413.5877)"><tspan x="0" y="0" class="st3 st4 st5">we</tspan><tspan x="10.2" y="0" class="st3 st4 st5">r</tspan><tspan x="12.8" y="0" class="st3 st4 st5">e cor</tspan><tspan x="30.2" y="0" class="st3 st4 st5">r</tspan><tspan x="32.8" y="0" class="st3 st4 st5">ect, while 72% of the doc</tspan><tspan x="119.1" y="0" class="st3 st4 st5">t</tspan><tspan x="121.5" y="0" class="st3 st4 st5">ors as</tspan><tspan x="143.1" y="0" class="st3 st4 st5">k</tspan><tspan x="146.9" y="0" class="st3 st4 st5">ed </tspan></text>
<text transform="matrix(1 0 0 1 90.8812 423.1883)"><tspan x="0" y="0" class="st3 st4 st5">we</tspan><tspan x="10.2" y="0" class="st3 st4 st5">r</tspan><tspan x="12.8" y="0" class="st3 st4 st5">e cor</tspan><tspan x="30.2" y="0" class="st3 st4 st5">r</tspan><tspan x="32.8" y="0" class="st3 st4 st5">ect.</tspan></text>
<text transform="matrix(1 0 0 1 90.8812 442.3875)"><tspan x="0" y="0" class="st3 st4 st5">S</tspan><tspan x="4.7" y="0" class="st3 st4 st5">t</tspan><tspan x="7.2" y="0" class="st3 st4 st5">op googling </tspan><tspan x="50.3" y="0" class="st3 st4 st5">y</tspan><tspan x="54" y="0" class="st3 st4 st5">our symp</tspan><tspan x="86.9" y="0" class="st3 st4 st5">t</tspan><tspan x="89.4" y="0" class="st3 st4 st5">oms and accept </tspan></text>
<text transform="matrix(1 0 0 1 90.8812 451.9881)"><tspan x="0" y="0" class="st3 st4 st5">that </tspan><tspan x="15.8" y="0" class="st3 st4 st5">y</tspan><tspan x="19.5" y="0" class="st3 st4 st5">ou a</tspan><tspan x="34.6" y="0" class="st3 st4 st5">r</tspan><tspan x="37.2" y="0" class="st3 st4 st5">e dying.</tspan></text>
</svg>
