<?xml version="1.0" encoding="utf-8"?>
<!-- Generator: Adobe Illustrator 23.0.1, SVG Export Plug-In . SVG Version: 6.00 Build 0)  -->
<svg version="1.1" id="Laag_1" xmlns="http://www.w3.org/2000/svg" xmlns:xlink="http://www.w3.org/1999/xlink" x="0px" y="0px"
	 viewBox="0 0 260 46.7" style="enable-background:new 0 0 260 46.7;" xml:space="preserve">
<style type="text/css">
	.st0{fill:none;stroke:#EA4335;}
</style>
<g>
	<path class="st0" d="M3.5,46.2h-3V10.1h3v4.5h0.1c0.4-0.8,1-1.6,1.7-2.2c0.7-0.7,1.4-1.2,2.2-1.6c0.8-0.4,1.7-0.8,2.5-1
		c0.9-0.2,1.7-0.4,2.5-0.4c2.1,0,3.9,0.4,5.4,1.1s2.7,1.7,3.6,2.9c0.9,1.2,1.6,2.7,2.1,4.3c0.4,1.7,0.7,3.5,0.7,5.4
		c0,1.8-0.2,3.5-0.7,5.2s-1.2,3.1-2.1,4.4s-2.1,2.2-3.6,3s-3.2,1.1-5.1,1.1c-1.8,0-3.6-0.4-5.3-1.2c-1.7-0.8-3-2-4-3.6
		C3.5,32,3.5,46.2,3.5,46.2z M3.5,23.2c0,1.5,0.2,2.9,0.6,4.2s1,2.5,1.7,3.4c0.8,1,1.7,1.8,2.8,2.4c1.1,0.6,2.3,0.9,3.7,0.9
		c1.5,0,2.9-0.3,4-0.9c1.2-0.6,2.1-1.5,2.8-2.5c0.7-1.1,1.3-2.3,1.6-3.7s0.5-2.9,0.4-4.6c0-1.6-0.2-3.1-0.7-4.3s-1.1-2.3-1.9-3.2
		c-0.8-0.9-1.7-1.5-2.8-2c-1.1-0.4-2.2-0.7-3.5-0.7c-1.4,0-2.7,0.3-3.8,0.9c-1.1,0.6-2,1.3-2.8,2.3c-0.7,1-1.3,2.2-1.7,3.5
		C3.7,20.2,3.5,21.6,3.5,23.2z"/>
	<path class="st0" d="M33.8,36h-3V10.1h3V15h0.1c0.8-2.1,1.9-3.5,3.2-4.3s3.1-1.2,5.2-1.2v3.2c-1.7,0-3.1,0.2-4.2,0.8
		c-1.1,0.6-2,1.3-2.6,2.3s-1.1,2.1-1.3,3.4c-0.2,1.3-0.4,2.7-0.4,4.1V36z"/>
	<path class="st0" d="M49.2,23.8c0,1.4,0.2,2.7,0.5,4c0.4,1.2,0.9,2.3,1.6,3.2c0.7,0.9,1.6,1.7,2.7,2.2s2.4,0.8,3.8,0.8
		c2,0,3.6-0.5,5-1.5c1.4-1,2.3-2.5,2.8-4.4h3.3c-0.4,1.2-0.8,2.4-1.4,3.4s-1.4,2-2.2,2.8c-0.9,0.8-2,1.4-3.2,1.8
		c-1.2,0.4-2.7,0.7-4.3,0.7c-2.1,0-3.9-0.4-5.4-1.1c-1.5-0.7-2.7-1.7-3.7-2.9s-1.7-2.6-2.1-4.3c-0.5-1.6-0.7-3.4-0.7-5.3
		c0-1.9,0.3-3.7,0.8-5.3c0.5-1.7,1.3-3.1,2.3-4.4s2.3-2.2,3.7-3c1.5-0.7,3.1-1.1,5-1.1c3.6,0,6.4,1.2,8.4,3.7c2,2.4,3,6,3,10.7
		L49.2,23.8L49.2,23.8z M66.1,21.3c0-1.3-0.2-2.5-0.5-3.6c-0.4-1.1-0.9-2.1-1.5-2.9c-0.7-0.8-1.5-1.5-2.6-1.9
		c-1-0.5-2.2-0.7-3.5-0.7s-2.5,0.2-3.5,0.8c-1,0.5-1.9,1.2-2.6,2c-0.7,0.8-1.3,1.8-1.7,2.9c-0.4,1.1-0.7,2.3-0.8,3.5L66.1,21.3
		L66.1,21.3z"/>
	<path class="st0" d="M76.9,27.9c0.5,2.2,1.3,3.8,2.5,4.7s3,1.4,5.2,1.4c1.1,0,2.1-0.1,2.9-0.4c0.8-0.3,1.5-0.6,2-1.1
		c0.5-0.4,0.9-1,1.2-1.5c0.3-0.6,0.4-1.2,0.4-1.8c0-1.3-0.4-2.2-1.2-2.8c-0.8-0.6-1.8-1.1-3.1-1.5c-1.2-0.3-2.6-0.7-4-0.9
		s-2.8-0.6-4-1.1s-2.3-1.2-3.1-2.1c-0.8-0.9-1.2-2.2-1.2-4c0-2.2,0.8-3.9,2.4-5.3s3.8-2.1,6.7-2.1c2.8,0,5.1,0.6,6.8,1.9
		s2.8,3.3,3.2,6.3h-3c-0.3-2-1-3.4-2.3-4.2s-2.8-1.2-4.7-1.2c-1.9,0-3.4,0.4-4.4,1.2s-1.5,1.9-1.5,3.2c0,1.2,0.4,2.1,1.2,2.7
		c0.8,0.6,1.8,1.1,3.1,1.5c1.2,0.4,2.6,0.7,4,1s2.8,0.7,4,1.3s2.3,1.3,3.1,2.2c0.8,0.9,1.2,2.2,1.2,3.9c0,1.2-0.3,2.3-0.8,3.3
		s-1.3,1.7-2.2,2.4c-0.9,0.6-2,1.1-3.3,1.4s-2.7,0.5-4.2,0.5s-2.9-0.2-4.1-0.7c-1.2-0.4-2.2-1.1-3-1.9c-0.8-0.8-1.5-1.7-2-2.8
		s-0.7-2.2-0.8-3.5L76.9,27.9L76.9,27.9z"/>
	<path class="st0" d="M118.5,18.3c-0.5-1.9-1.5-3.4-2.8-4.5s-3-1.6-5-1.6c-1.5,0-2.8,0.3-4,1c-1.1,0.6-2,1.5-2.7,2.5
		c-0.7,1-1.2,2.2-1.5,3.5c-0.3,1.3-0.5,2.6-0.5,4s0.2,2.7,0.5,4s0.8,2.5,1.5,3.5s1.6,1.9,2.7,2.5s2.4,0.9,4,0.9c2.2,0,4-0.6,5.4-1.9
		c1.3-1.2,2.2-2.9,2.6-5.1h3.2c-0.3,1.4-0.7,2.7-1.3,3.9s-1.3,2.2-2.2,3c-0.9,0.9-2,1.5-3.3,2s-2.7,0.7-4.3,0.7
		c-2.1,0-3.8-0.4-5.3-1.1c-1.5-0.7-2.7-1.7-3.7-2.9s-1.7-2.7-2.2-4.3s-0.7-3.5-0.7-5.4c0-1.8,0.3-3.5,0.8-5.2s1.3-3.1,2.3-4.4
		s2.2-2.3,3.7-3c1.5-0.8,3.2-1.1,5.1-1.1c3,0,5.4,0.7,7.3,2.2c1.8,1.4,3,3.7,3.5,6.7h-3.1V18.3z"/>
	<path class="st0" d="M131.1,36h-3V10.1h3V15h0.1c0.8-2.1,1.9-3.5,3.2-4.3s3.1-1.2,5.2-1.2v3.2c-1.7,0-3.1,0.2-4.2,0.8
		c-1.1,0.6-2,1.3-2.6,2.3s-1.1,2.1-1.3,3.4c-0.2,1.3-0.4,2.7-0.4,4.1V36z"/>
	<path class="st0" d="M144.9,4.5V0h3.3v4.5H144.9z M145,36V10.1h3V36H145z"/>
	<path class="st0" d="M159,46.2h-3V10.1h3v4.5h0.1c0.4-0.8,1-1.6,1.7-2.2c0.7-0.7,1.4-1.2,2.2-1.6s1.7-0.8,2.5-1
		c0.9-0.2,1.7-0.4,2.5-0.4c2.1,0,3.9,0.4,5.4,1.1s2.7,1.7,3.6,2.9c0.9,1.2,1.6,2.7,2.1,4.3c0.4,1.7,0.7,3.5,0.7,5.4
		c0,1.8-0.2,3.5-0.7,5.2s-1.2,3.1-2.1,4.4s-2.1,2.2-3.6,3s-3.2,1.1-5.1,1.1c-1.8,0-3.6-0.4-5.3-1.2s-3-2-4-3.6L159,46.2L159,46.2z
		 M159,23.2c0,1.5,0.2,2.9,0.6,4.2c0.4,1.3,1,2.5,1.7,3.4c0.8,1,1.7,1.8,2.8,2.4c1.1,0.6,2.3,0.9,3.7,0.9c1.5,0,2.9-0.3,4-0.9
		c1.2-0.6,2.1-1.5,2.8-2.5c0.7-1.1,1.3-2.3,1.6-3.7s0.5-2.9,0.4-4.6c0-1.6-0.2-3.1-0.7-4.3s-1.1-2.3-1.9-3.2c-0.8-0.9-1.7-1.5-2.8-2
		c-1.1-0.4-2.2-0.7-3.5-0.7c-1.4,0-2.7,0.3-3.8,0.9s-2,1.3-2.8,2.3c-0.7,1-1.3,2.2-1.7,3.5C159.2,20.2,159,21.6,159,23.2z"/>
	<path class="st0" d="M195.3,36.1c-0.4,0.1-0.9,0.2-1.5,0.4s-1.3,0.2-2,0.2c-1.5,0-2.6-0.4-3.4-1.1c-0.8-0.8-1.2-2.1-1.2-4v-19h-3.7
		v-2.5h3.7V2.9h3v7.2h4.8v2.5h-4.7v17.8c0,0.6,0,1.2,0,1.7s0.1,0.8,0.3,1.1s0.4,0.5,0.8,0.7c0.3,0.1,0.8,0.2,1.5,0.2
		c0.4,0,0.8,0,1.2-0.1s0.8-0.1,1.2-0.2V36.1z"/>
	<path class="st0" d="M200.4,4.5V0h3.3v4.5H200.4z M200.6,36V10.1h3V36H200.6z"/>
	<path class="st0" d="M221.5,36.7c-1.7,0-3.2-0.3-4.7-0.9c-1.4-0.6-2.7-1.4-3.8-2.5s-1.9-2.5-2.6-4.2s-0.9-3.7-0.9-6
		c0-1.9,0.2-3.7,0.8-5.3c0.5-1.6,1.2-3.1,2.2-4.3c1-1.2,2.2-2.2,3.8-2.9c1.5-0.7,3.2-1.1,5.2-1.1s3.8,0.4,5.3,1.1s2.8,1.7,3.8,2.9
		s1.7,2.7,2.2,4.3s0.7,3.4,0.7,5.3c0,2.1-0.3,3.9-0.9,5.6c-0.6,1.7-1.4,3.1-2.4,4.3s-2.3,2.1-3.8,2.8
		C225,36.4,223.3,36.7,221.5,36.7z M230.3,23.1c0-1.5-0.2-3-0.5-4.3s-0.9-2.5-1.5-3.5c-0.7-1-1.6-1.8-2.7-2.3
		c-1.1-0.6-2.5-0.9-4-0.9c-1.6,0-2.9,0.3-4,0.9s-2,1.4-2.7,2.5c-0.7,1-1.2,2.2-1.6,3.5c-0.3,1.3-0.5,2.7-0.5,4.1
		c0,1.6,0.2,3.1,0.6,4.4c0.4,1.4,0.9,2.5,1.7,3.5s1.7,1.7,2.8,2.2s2.4,0.8,3.8,0.8c1.6,0,2.9-0.3,4-0.9c1.1-0.6,2-1.4,2.7-2.5
		c0.7-1,1.2-2.2,1.5-3.5C230.2,25.8,230.3,24.5,230.3,23.1z"/>
	<path class="st0" d="M242,36h-3V10.1h3v3.6c1.2-1.3,2.4-2.3,3.7-3.1c1.3-0.8,2.8-1.2,4.6-1.2c1.6,0,3.1,0.3,4.5,0.8
		c1.4,0.5,2.5,1.5,3.4,2.9c0.6,0.9,1,1.9,1.1,2.9c0.1,1,0.2,2,0.2,3.1v17h-3V19.2c0-2.3-0.5-4.1-1.6-5.2c-1-1.2-2.8-1.8-5.1-1.8
		c-0.9,0-1.8,0.1-2.5,0.4c-0.8,0.3-1.5,0.7-2.1,1.1c-0.6,0.5-1.1,1-1.6,1.6c-0.4,0.6-0.8,1.2-1,1.9c-0.3,0.8-0.5,1.6-0.5,2.4
		c-0.1,0.8-0.1,1.6-0.1,2.5L242,36L242,36z"/>
</g>
</svg>
