<?xml version="1.0" encoding="utf-8"?>
<!-- Generator: Adobe Illustrator 23.0.1, SVG Export Plug-In . SVG Version: 6.00 Build 0)  -->
<svg version="1.1" id="Laag_1" xmlns="http://www.w3.org/2000/svg" xmlns:xlink="http://www.w3.org/1999/xlink" x="0px" y="0px"
	 viewBox="0 0 259.7 603.4" style="enable-background:new 0 0 259.7 603.4;" xml:space="preserve">
<style type="text/css">
	.st0{fill:none;stroke:#517ABD;stroke-width:0.335;}
	.st1{fill:none;stroke:#E84435;}
	.st2{fill:#E84435;}
	.st3{font-family:'Roboto-Light';}
	.st4{font-size:8px;}
	.st5{font-family:'Roboto-Bold';}
	.st6{font-size:10px;}
	.st7{clip-path:url(#SVGID_2_);}
	.st8{fill:#517ABD;}
	.st9{font-family:'Roboto-Regular';}
	.st10{font-size:20px;}
	.st11{letter-spacing:-1;}
	.st12{fill:#FCBC05;}
	.st13{fill:#31A852;}
</style>
<rect x="2.4" y="1.5" class="st0" width="255.3" height="599.8"/>
<rect x="2.2" y="1.6" class="st1" width="255.3" height="599.9"/>
<line class="st1" x1="2.1" y1="36.7" x2="257.7" y2="36.7"/>
<line class="st1" x1="2.1" y1="91.2" x2="257.7" y2="91.2"/>
<line class="st1" x1="2.1" y1="576.7" x2="257.7" y2="576.7"/>
<line class="st1" x1="82.6" y1="91.7" x2="82.6" y2="576.6"/>
<line class="st1" x1="130.2" y1="36.7" x2="130.2" y2="91.2"/>
<text transform="matrix(1 0 0 1 136.0612 48.188)"><tspan x="0" y="0" class="st2 st3 st4">Nom et p</tspan><tspan x="32.3" y="0" class="st2 st3 st4">r</tspan><tspan x="34.9" y="0" class="st2 st3 st4">énom du p</tspan><tspan x="72.2" y="0" class="st2 st3 st4">r</tspan><tspan x="74.8" y="0" class="st2 st3 st4">escripteur:</tspan></text>
<text transform="matrix(1 0 0 1 136.0612 67.3882)"><tspan x="0" y="0" class="st2 st5 st4">DO</tspan><tspan x="10.7" y="0" class="st2 st5 st4">C</tspan><tspan x="15.9" y="0" class="st2 st5 st4">TEUR GOOGLE</tspan></text>
<text transform="matrix(1 0 0 1 7.7654 103.044)"><tspan x="0" y="0" class="st2 st3 st4">Rése</tspan><tspan x="17.4" y="0" class="st2 st3 st4">r</tspan><tspan x="20.1" y="0" class="st2 st3 st4">v</tspan><tspan x="23.9" y="0" class="st2 st3 st4">é sur </tspan></text>
<text transform="matrix(1 0 0 1 7.7654 112.6441)" class="st2 st3 st4">la vignette </text>
<text transform="matrix(1 0 0 1 7.7654 122.2442)"><tspan x="0" y="0" class="st2 st3 st4">d</tspan><tspan x="4.4" y="0" class="st2 st3 st4">’</tspan><tspan x="5.6" y="0" class="st2 st3 st4">emballage</tspan></text>
<text transform="matrix(1 0 0 1 95.9675 593.1319)" class="st2 st3 st6">PRESCRIPTION</text>
<g>
	<defs>
		<rect id="SVGID_1_" x="13.7" y="41.3" width="104.3" height="44.9"/>
	</defs>
	<clipPath id="SVGID_2_">
		<use xlink:href="#SVGID_1_"  style="overflow:visible;"/>
	</clipPath>
	<g class="st7">
		<defs>
			<rect id="SVGID_3_" x="12.7" y="41.3" width="106.5" height="45.9"/>
		</defs>
		<clipPath id="SVGID_4_">
			<use xlink:href="#SVGID_3_"  style="overflow:visible;"/>
		</clipPath>
		<g style="clip-path:url(#SVGID_4_);">
			
				<image style="overflow:visible;" width="471" height="203" xlink:href="9EEDA1ACE19896E.png"  transform="matrix(0.2261 0 0 0.2261 12.694 41.3191)">
			</image>
		</g>
	</g>
</g>
<text transform="matrix(1 0 0 1 83.8532 24.085)"><tspan x="0" y="0" class="st8 st9 st10">D</tspan><tspan x="13.1" y="0" class="st8 st9 st10 st11">r</tspan><tspan x="18.7" y="0" class="st8 st9 st10">. G</tspan></text>
<text transform="matrix(1 0 0 1 126.3752 24.085)" class="st2 st9 st10">o</text>
<text transform="matrix(1 0 0 1 137.7751 24.085)" class="st12 st9 st10">o</text>
<text transform="matrix(1 0 0 1 149.1755 24.085)" class="st8 st9 st10">g</text>
<text transform="matrix(1 0 0 1 160.3957 24.085)" class="st13 st9 st10">l</text>
<text transform="matrix(1 0 0 1 165.2556 24.085)" class="st2 st9 st10">e</text>
<text transform="matrix(1 0 0 1 91.0891 106.1802)" class="st2 st5 st4">R /</text>
<text transform="matrix(1 0 0 1 91.0891 125.3799)" class="st2 st3 st4">Lorsque des personnes consultent des </text>
<text transform="matrix(1 0 0 1 91.0891 134.98)"><tspan x="0" y="0" class="st2 st3 st4">plaintes sur Internet, </tspan><tspan x="73" y="0" class="st2 st3 st4">v</tspan><tspan x="76.8" y="0" class="st2 st3 st4">ous passez </tspan><tspan x="118.5" y="0" class="st2 st3 st4">r</tspan><tspan x="121" y="0" class="st2 st3 st4">apidement </tspan></text>
<text transform="matrix(1 0 0 1 91.0891 144.5801)" class="st2 st3 st4">d’un mal de tête normal à une tumeur au </text>
<text transform="matrix(1 0 0 1 91.0891 154.1802)"><tspan x="0" y="0" class="st2 st3 st4">ce</tspan><tspan x="8.3" y="0" class="st2 st3 st4">r</tspan><tspan x="11" y="0" class="st2 st3 st4">v</tspan><tspan x="14.8" y="0" class="st2 st3 st4">eau. Cependant, le risque que </tspan><tspan x="119.2" y="0" class="st2 st3 st4">v</tspan><tspan x="123" y="0" class="st2 st3 st4">ot</tspan><tspan x="130.1" y="0" class="st2 st3 st4">r</tspan><tspan x="132.7" y="0" class="st2 st3 st4">e </tspan></text>
<text transform="matrix(1 0 0 1 91.0891 163.7803)" class="st2 st3 st4">mal de tête soit causé par cela est faible. </text>
<text transform="matrix(1 0 0 1 91.0891 173.3799)"><tspan x="0" y="0" class="st2 st3 st4">In</tspan><tspan x="6.5" y="0" class="st2 st3 st4">v</tspan><tspan x="10.3" y="0" class="st2 st3 st4">ersement, bien sû</tspan><tspan x="72.1" y="0" class="st2 st3 st4">r</tspan><tspan x="74.4" y="0" class="st2 st3 st4">, selon le Dr </tspan><tspan x="116.4" y="0" class="st2 st3 st4">P</tspan><tspan x="121.3" y="0" class="st2 st3 st4">eleman. </tspan></text>
<text transform="matrix(1 0 0 1 91.0891 182.98)"><tspan x="0" y="0" class="st2 st3 st4">Lorsque les patients </tspan><tspan x="72.5" y="0" class="st2 st3 st4">r</tspan><tspan x="75.1" y="0" class="st2 st3 st4">eçoi</tspan><tspan x="89.6" y="0" class="st2 st3 st4">v</tspan><tspan x="93.4" y="0" class="st2 st3 st4">ent un diagnostic </tspan></text>
<text transform="matrix(1 0 0 1 91.0891 192.5801)"><tspan x="0" y="0" class="st2 st3 st4">qu’il ne </tspan><tspan x="26.3" y="0" class="st2 st3 st4">v</tspan><tspan x="30.1" y="0" class="st2 st3 st4">eut pas </tspan><tspan x="57.8" y="0" class="st2 st3 st4">r</tspan><tspan x="60.5" y="0" class="st2 st3 st4">éconcilie</tspan><tspan x="91.2" y="0" class="st2 st3 st4">r</tspan><tspan x="93.4" y="0" class="st2 st3 st4">, il est tentant de </tspan></text>
<text transform="matrix(1 0 0 1 91.0891 202.1797)"><tspan x="0" y="0" class="st2 st3 st4">poser un diagnostic moins g</tspan><tspan x="99" y="0" class="st2 st3 st4">r</tspan><tspan x="101.5" y="0" class="st2 st3 st4">a</tspan><tspan x="105.8" y="0" class="st2 st3 st4">v</tspan><tspan x="109.6" y="0" class="st2 st3 st4">e. Cependant, </tspan></text>
<text transform="matrix(1 0 0 1 91.0891 211.7803)"><tspan x="0" y="0" class="st2 st3 st4">cela peut p</tspan><tspan x="38.2" y="0" class="st2 st3 st4">r</tspan><tspan x="40.8" y="0" class="st2 st3 st4">ov</tspan><tspan x="49" y="0" class="st2 st3 st4">oquer de faux espoirs chez </tspan></text>
<text transform="matrix(1 0 0 1 91.0891 221.3799)"><tspan x="0" y="0" class="st2 st3 st4">le patient. Juste comme t</tspan><tspan x="88.8" y="0" class="st2 st3 st4">r</tspan><tspan x="91.5" y="0" class="st2 st3 st4">ou</tspan><tspan x="100.3" y="0" class="st2 st3 st4">v</tspan><tspan x="104.1" y="0" class="st2 st3 st4">er des </tspan></text>
<text transform="matrix(1 0 0 1 91.0891 230.9805)"><tspan x="0" y="0" class="st2 st3 st4">t</tspan><tspan x="2.6" y="0" class="st2 st3 st4">r</tspan><tspan x="5.1" y="0" class="st2 st3 st4">aitements coûteux à l</tspan><tspan x="80" y="0" class="st2 st3 st4">’</tspan><tspan x="81.2" y="0" class="st2 st3 st4">ét</tspan><tspan x="87.9" y="0" class="st2 st3 st4">r</tspan><tspan x="90.5" y="0" class="st2 st3 st4">anger qui sont </tspan></text>
<text transform="matrix(1 0 0 1 91.0891 240.5801)"><tspan x="0" y="0" class="st2 st3 st4">r</tspan><tspan x="2.6" y="0" class="st2 st3 st4">éellement ir</tspan><tspan x="43.2" y="0" class="st2 st3 st4">r</tspan><tspan x="45.8" y="0" class="st2 st3 st4">éalisables.</tspan></text>
<text transform="matrix(1 0 0 1 91.0891 259.7803)"><tspan x="0" y="0" class="st2 st3 st4">Envi</tspan><tspan x="14.6" y="0" class="st2 st3 st4">r</tspan><tspan x="17.2" y="0" class="st2 st3 st4">on 75% des personnes acquiè</tspan><tspan x="121.2" y="0" class="st2 st3 st4">r</tspan><tspan x="123.9" y="0" class="st2 st3 st4">ent</tspan></text>
<text transform="matrix(1 0 0 1 91.0891 269.3799)"><tspan x="0" y="0" class="st2 st3 st4">sur la santé à t</tspan><tspan x="51.3" y="0" class="st2 st3 st4">r</tspan><tspan x="53.8" y="0" class="st2 st3 st4">a</tspan><tspan x="58.1" y="0" class="st2 st3 st4">v</tspan><tspan x="61.9" y="0" class="st2 st3 st4">ers les médias. Il existe </tspan></text>
<text transform="matrix(1 0 0 1 91.0891 278.9805)"><tspan x="0" y="0" class="st2 st3 st4">non seulement des informations t</tspan><tspan x="117.6" y="0" class="st2 st3 st4">r</tspan><tspan x="120.3" y="0" class="st2 st3 st4">ès utiles </tspan></text>
<path class="st2" d="M94.2,287.5c0-0.2-0.1-0.4-0.3-0.6c-0.2-0.1-0.5-0.3-0.8-0.3c-0.4-0.1-0.7-0.2-0.9-0.3
	c-0.2-0.1-0.4-0.2-0.5-0.4c-0.1-0.1-0.2-0.3-0.2-0.5c0-0.3,0.1-0.6,0.4-0.8c0.3-0.2,0.6-0.3,1.1-0.3c0.5,0,0.8,0.1,1.1,0.3
	c0.3,0.2,0.4,0.5,0.4,0.9h-0.5c0-0.2-0.1-0.5-0.3-0.6s-0.5-0.2-0.8-0.2c-0.3,0-0.6,0.1-0.7,0.2c-0.2,0.1-0.3,0.3-0.3,0.5
	c0,0.2,0.1,0.4,0.2,0.5c0.2,0.1,0.4,0.2,0.8,0.3c0.4,0.1,0.7,0.2,0.9,0.3c0.2,0.1,0.4,0.2,0.5,0.4c0.1,0.2,0.1,0.3,0.1,0.6
	c0,0.4-0.1,0.6-0.4,0.9c-0.3,0.2-0.7,0.3-1.1,0.3c-0.5,0-0.9-0.1-1.2-0.4c-0.3-0.2-0.5-0.5-0.5-0.9H92c0,0.3,0.1,0.5,0.3,0.6
	c0.2,0.2,0.5,0.2,0.8,0.2c0.3,0,0.6-0.1,0.8-0.2C94.1,287.9,94.2,287.7,94.2,287.5z M98.5,288c-0.3,0.4-0.7,0.6-1.3,0.6
	c-0.5,0-0.8-0.1-1-0.4s-0.4-0.6-0.4-1.2v-2.8h0.5v2.7c0,0.8,0.3,1.2,1,1.2c0.7,0,1.1-0.3,1.3-0.8v-3.1h0.5v4.2h-0.5L98.5,288z
	 M102.1,284.8c-0.1,0-0.2,0-0.3,0c-0.3,0-0.5,0.1-0.7,0.2c-0.2,0.2-0.3,0.4-0.4,0.7v2.9h-0.5v-4.2h0.5l0,0.7
	c0.2-0.5,0.6-0.8,1.2-0.8c0.1,0,0.2,0,0.3,0.1L102.1,284.8z M105.3,288.6h-0.5v-6h0.5V288.6z M109.2,288.6c0-0.1-0.1-0.3-0.1-0.6
	c-0.2,0.2-0.4,0.4-0.6,0.5s-0.5,0.2-0.8,0.2c-0.4,0-0.7-0.1-1-0.3c-0.3-0.2-0.4-0.5-0.4-0.9c0-0.4,0.2-0.7,0.5-1
	c0.3-0.2,0.8-0.4,1.4-0.4h0.8v-0.5c0-0.3-0.1-0.5-0.3-0.7c-0.2-0.2-0.5-0.3-0.8-0.3c-0.3,0-0.6,0.1-0.8,0.2
	c-0.2,0.2-0.3,0.4-0.3,0.6l-0.5,0c0-0.3,0.2-0.6,0.5-0.9s0.7-0.4,1.2-0.4c0.5,0,0.8,0.1,1.1,0.4c0.3,0.2,0.4,0.6,0.4,1v2
	c0,0.4,0,0.7,0.1,0.9v0H109.2z M107.8,288.2c0.3,0,0.6-0.1,0.8-0.2c0.2-0.2,0.4-0.4,0.5-0.6v-0.9h-0.8c-0.5,0-0.8,0.1-1.1,0.3
	c-0.3,0.2-0.4,0.4-0.4,0.7c0,0.2,0.1,0.4,0.3,0.6S107.5,288.2,107.8,288.2z M114.7,284.8c-0.1,0-0.2,0-0.3,0c-0.3,0-0.5,0.1-0.7,0.2
	c-0.2,0.2-0.3,0.4-0.4,0.7v2.9h-0.5v-4.2h0.5l0,0.7c0.2-0.5,0.6-0.8,1.2-0.8c0.1,0,0.2,0,0.3,0.1L114.7,284.8z M118.6,287.9
	c-0.3,0.5-0.8,0.7-1.5,0.7c-0.4,0-0.7-0.1-1-0.3c-0.3-0.2-0.5-0.4-0.7-0.7c-0.2-0.3-0.2-0.7-0.2-1.1v-0.2c0-0.4,0.1-0.8,0.2-1.1
	c0.2-0.3,0.4-0.6,0.7-0.8c0.3-0.2,0.6-0.3,0.9-0.3c0.5,0,0.9,0.2,1.2,0.5c0.3,0.4,0.5,0.8,0.5,1.4v0.3h-3v0.1c0,0.5,0.1,0.9,0.4,1.2
	c0.3,0.3,0.6,0.5,1,0.5c0.2,0,0.5,0,0.7-0.1c0.2-0.1,0.4-0.2,0.5-0.4L118.6,287.9L118.6,287.9z M117,284.7c-0.4,0-0.6,0.1-0.9,0.4
	c-0.2,0.3-0.4,0.6-0.4,1h2.5V286c0-0.4-0.1-0.7-0.3-1C117.6,284.8,117.3,284.7,117,284.7z M121.1,288.3c0.3,0,0.6-0.1,0.8-0.3
	c0.2-0.2,0.3-0.4,0.4-0.7h0.4c0,0.3-0.1,0.5-0.2,0.7c-0.1,0.2-0.3,0.4-0.6,0.5s-0.5,0.2-0.8,0.2c-0.6,0-1-0.2-1.3-0.6
	c-0.3-0.4-0.5-0.9-0.5-1.6v-0.1c0-0.4,0.1-0.8,0.2-1.1c0.1-0.3,0.4-0.6,0.6-0.7c0.3-0.2,0.6-0.3,1-0.3c0.5,0,0.8,0.1,1.1,0.4
	c0.3,0.3,0.5,0.6,0.5,1.1h-0.4c0-0.3-0.1-0.6-0.4-0.8c-0.2-0.2-0.5-0.3-0.8-0.3c-0.4,0-0.7,0.2-1,0.5c-0.2,0.3-0.3,0.7-0.3,1.3v0.1
	c0,0.5,0.1,1,0.3,1.3C120.4,288.1,120.7,288.3,121.1,288.3z M124.1,285.1c0.2-0.3,0.4-0.4,0.6-0.6c0.2-0.1,0.5-0.2,0.8-0.2
	c0.5,0,0.8,0.1,1,0.4c0.2,0.3,0.3,0.6,0.3,1.1v2.8h-0.5v-2.8c0-0.4-0.1-0.7-0.2-0.8c-0.2-0.2-0.4-0.3-0.8-0.3
	c-0.3,0-0.5,0.1-0.8,0.3c-0.2,0.2-0.4,0.4-0.5,0.7v2.9h-0.5v-6h0.5V285.1z M131.2,287.9c-0.3,0.5-0.8,0.7-1.5,0.7
	c-0.4,0-0.7-0.1-1-0.3c-0.3-0.2-0.5-0.4-0.7-0.7c-0.2-0.3-0.2-0.7-0.2-1.1v-0.2c0-0.4,0.1-0.8,0.2-1.1c0.2-0.3,0.4-0.6,0.7-0.8
	c0.3-0.2,0.6-0.3,0.9-0.3c0.5,0,0.9,0.2,1.2,0.5c0.3,0.4,0.5,0.8,0.5,1.4v0.3h-3v0.1c0,0.5,0.1,0.9,0.4,1.2c0.3,0.3,0.6,0.5,1,0.5
	c0.2,0,0.5,0,0.7-0.1c0.2-0.1,0.4-0.2,0.5-0.4L131.2,287.9L131.2,287.9z M129.6,284.7c-0.4,0-0.6,0.1-0.9,0.4
	c-0.2,0.3-0.4,0.6-0.4,1h2.5V286c0-0.4-0.1-0.7-0.3-1C130.3,284.8,130,284.7,129.6,284.7z M134.2,284.8c-0.1,0-0.2,0-0.3,0
	c-0.3,0-0.5,0.1-0.7,0.2c-0.2,0.2-0.3,0.4-0.4,0.7v2.9h-0.5v-4.2h0.5l0,0.7c0.2-0.5,0.6-0.8,1.2-0.8c0.1,0,0.2,0,0.3,0.1
	L134.2,284.8z M136.4,288.3c0.3,0,0.6-0.1,0.8-0.3c0.2-0.2,0.3-0.4,0.4-0.7h0.4c0,0.3-0.1,0.5-0.2,0.7c-0.1,0.2-0.3,0.4-0.6,0.5
	s-0.5,0.2-0.8,0.2c-0.6,0-1-0.2-1.3-0.6c-0.3-0.4-0.5-0.9-0.5-1.6v-0.1c0-0.4,0.1-0.8,0.2-1.1c0.1-0.3,0.4-0.6,0.6-0.7
	c0.3-0.2,0.6-0.3,1-0.3c0.5,0,0.8,0.1,1.1,0.4c0.3,0.3,0.5,0.6,0.5,1.1h-0.4c0-0.3-0.1-0.6-0.4-0.8c-0.2-0.2-0.5-0.3-0.8-0.3
	c-0.4,0-0.7,0.2-1,0.5c-0.2,0.3-0.3,0.7-0.3,1.3v0.1c0,0.5,0.1,1,0.3,1.3C135.6,288.1,136,288.3,136.4,288.3z M139.4,285.1
	c0.2-0.3,0.4-0.4,0.6-0.6c0.2-0.1,0.5-0.2,0.8-0.2c0.5,0,0.8,0.1,1,0.4c0.2,0.3,0.3,0.6,0.3,1.1v2.8h-0.5v-2.8
	c0-0.4-0.1-0.7-0.2-0.8c-0.2-0.2-0.4-0.3-0.8-0.3c-0.3,0-0.5,0.1-0.8,0.3c-0.2,0.2-0.4,0.4-0.5,0.7v2.9h-0.5v-6h0.5V285.1z
	 M146.5,287.9c-0.3,0.5-0.8,0.7-1.5,0.7c-0.4,0-0.7-0.1-1-0.3c-0.3-0.2-0.5-0.4-0.7-0.7c-0.2-0.3-0.2-0.7-0.2-1.1v-0.2
	c0-0.4,0.1-0.8,0.2-1.1c0.2-0.3,0.4-0.6,0.7-0.8c0.3-0.2,0.6-0.3,0.9-0.3c0.5,0,0.9,0.2,1.2,0.5c0.3,0.4,0.5,0.8,0.5,1.4v0.3h-3v0.1
	c0,0.5,0.1,0.9,0.4,1.2c0.3,0.3,0.6,0.5,1,0.5c0.2,0,0.5,0,0.7-0.1c0.2-0.1,0.4-0.2,0.5-0.4L146.5,287.9L146.5,287.9z M144.9,284.7
	c-0.4,0-0.6,0.1-0.9,0.4c-0.2,0.3-0.4,0.6-0.4,1h2.5V286c0-0.4-0.1-0.7-0.3-1C145.5,284.8,145.2,284.7,144.9,284.7z M149.8,284.4
	l0,0.7c0.2-0.3,0.4-0.4,0.6-0.6c0.2-0.1,0.5-0.2,0.8-0.2c0.7,0,1.1,0.3,1.3,0.8c0.2-0.3,0.4-0.5,0.6-0.6c0.3-0.1,0.5-0.2,0.8-0.2
	c0.9,0,1.4,0.5,1.4,1.5v2.8h-0.5v-2.8c0-0.4-0.1-0.7-0.2-0.8c-0.2-0.2-0.4-0.3-0.8-0.3c-0.3,0-0.6,0.1-0.9,0.3
	c-0.2,0.2-0.4,0.5-0.4,0.8v2.8h-0.5v-2.8c0-0.4-0.1-0.6-0.3-0.8c-0.2-0.2-0.4-0.3-0.8-0.3c-0.3,0-0.5,0.1-0.8,0.3s-0.4,0.4-0.5,0.7
	v2.9h-0.5v-4.2H149.8z M159.6,287.9c-0.3,0.5-0.8,0.7-1.5,0.7c-0.4,0-0.7-0.1-1-0.3c-0.3-0.2-0.5-0.4-0.7-0.7
	c-0.2-0.3-0.2-0.7-0.2-1.1v-0.2c0-0.4,0.1-0.8,0.2-1.1c0.2-0.3,0.4-0.6,0.7-0.8c0.3-0.2,0.6-0.3,0.9-0.3c0.5,0,0.9,0.2,1.2,0.5
	c0.3,0.4,0.5,0.8,0.5,1.4v0.3h-3v0.1c0,0.5,0.1,0.9,0.4,1.2c0.3,0.3,0.6,0.5,1,0.5c0.2,0,0.5,0,0.7-0.1c0.2-0.1,0.4-0.2,0.5-0.4
	L159.6,287.9L159.6,287.9z M158,284.7c-0.4,0-0.6,0.1-0.9,0.4c-0.2,0.3-0.4,0.6-0.4,1h2.5V286c0-0.4-0.1-0.7-0.3-1
	C158.7,284.8,158.4,284.7,158,284.7z M158.6,282.6h0.6l-0.9,1.1l-0.4,0L158.6,282.6z M160.4,286.4c0-0.7,0.1-1.2,0.4-1.6
	c0.3-0.4,0.7-0.6,1.2-0.6c0.6,0,1,0.2,1.3,0.7v-2.4h0.5v6h-0.4l0-0.6c-0.3,0.4-0.7,0.6-1.3,0.6c-0.5,0-0.9-0.2-1.2-0.6
	C160.6,287.7,160.4,287.1,160.4,286.4L160.4,286.4z M160.9,286.5c0,0.5,0.1,1,0.3,1.3c0.2,0.3,0.5,0.5,0.9,0.5c0.6,0,1-0.3,1.2-0.8
	v-2c-0.2-0.5-0.6-0.8-1.2-0.8c-0.4,0-0.7,0.2-0.9,0.5S160.9,285.9,160.9,286.5z M165.1,283.1c0-0.1,0-0.2,0.1-0.2
	c0.1-0.1,0.1-0.1,0.2-0.1c0.1,0,0.2,0,0.2,0.1s0.1,0.1,0.1,0.2s0,0.2-0.1,0.2c-0.1,0.1-0.1,0.1-0.2,0.1c-0.1,0-0.2,0-0.2-0.1
	C165.1,283.3,165.1,283.2,165.1,283.1z M165.6,288.6h-0.5v-4.2h0.5V288.6z M168.4,288.3c0.3,0,0.6-0.1,0.8-0.3
	c0.2-0.2,0.3-0.4,0.4-0.7h0.4c0,0.3-0.1,0.5-0.2,0.7c-0.1,0.2-0.3,0.4-0.6,0.5s-0.5,0.2-0.8,0.2c-0.6,0-1-0.2-1.3-0.6
	c-0.3-0.4-0.5-0.9-0.5-1.6v-0.1c0-0.4,0.1-0.8,0.2-1.1c0.1-0.3,0.4-0.6,0.6-0.7c0.3-0.2,0.6-0.3,1-0.3c0.5,0,0.8,0.1,1.1,0.4
	c0.3,0.3,0.5,0.6,0.5,1.1h-0.4c0-0.3-0.1-0.6-0.4-0.8c-0.2-0.2-0.5-0.3-0.8-0.3c-0.4,0-0.7,0.2-1,0.5c-0.2,0.3-0.3,0.7-0.3,1.3v0.1
	c0,0.5,0.1,1,0.3,1.3C167.7,288.1,168,288.3,168.4,288.3z M173.7,288.6c0-0.1-0.1-0.3-0.1-0.6c-0.2,0.2-0.4,0.4-0.6,0.5
	s-0.5,0.2-0.8,0.2c-0.4,0-0.7-0.1-1-0.3c-0.3-0.2-0.4-0.5-0.4-0.9c0-0.4,0.2-0.7,0.5-1c0.3-0.2,0.8-0.4,1.4-0.4h0.8v-0.5
	c0-0.3-0.1-0.5-0.3-0.7c-0.2-0.2-0.5-0.3-0.8-0.3c-0.3,0-0.6,0.1-0.8,0.2c-0.2,0.2-0.3,0.4-0.3,0.6l-0.5,0c0-0.3,0.2-0.6,0.5-0.9
	s0.7-0.4,1.2-0.4c0.5,0,0.8,0.1,1.1,0.4c0.3,0.2,0.4,0.6,0.4,1v2c0,0.4,0,0.7,0.1,0.9v0H173.7z M172.2,288.2c0.3,0,0.6-0.1,0.8-0.2
	c0.2-0.2,0.4-0.4,0.5-0.6v-0.9h-0.8c-0.5,0-0.8,0.1-1.1,0.3c-0.3,0.2-0.4,0.4-0.4,0.7c0,0.2,0.1,0.4,0.3,0.6
	S171.9,288.2,172.2,288.2z M175.8,288.6h-0.5v-6h0.5V288.6z M180.2,287.9c-0.3,0.5-0.8,0.7-1.5,0.7c-0.4,0-0.7-0.1-1-0.3
	c-0.3-0.2-0.5-0.4-0.7-0.7c-0.2-0.3-0.2-0.7-0.2-1.1v-0.2c0-0.4,0.1-0.8,0.2-1.1c0.2-0.3,0.4-0.6,0.7-0.8c0.3-0.2,0.6-0.3,0.9-0.3
	c0.5,0,0.9,0.2,1.2,0.5c0.3,0.4,0.5,0.8,0.5,1.4v0.3h-3v0.1c0,0.5,0.1,0.9,0.4,1.2c0.3,0.3,0.6,0.5,1,0.5c0.2,0,0.5,0,0.7-0.1
	c0.2-0.1,0.4-0.2,0.5-0.4L180.2,287.9L180.2,287.9z M178.6,284.7c-0.4,0-0.6,0.1-0.9,0.4c-0.2,0.3-0.4,0.6-0.4,1h2.5V286
	c0-0.4-0.1-0.7-0.3-1C179.3,284.8,179,284.7,178.6,284.7z M186.3,287.9c-0.3,0.5-0.8,0.7-1.5,0.7c-0.4,0-0.7-0.1-1-0.3
	c-0.3-0.2-0.5-0.4-0.7-0.7c-0.2-0.3-0.2-0.7-0.2-1.1v-0.2c0-0.4,0.1-0.8,0.2-1.1c0.2-0.3,0.4-0.6,0.7-0.8c0.3-0.2,0.6-0.3,0.9-0.3
	c0.5,0,0.9,0.2,1.2,0.5c0.3,0.4,0.5,0.8,0.5,1.4v0.3h-3v0.1c0,0.5,0.1,0.9,0.4,1.2c0.3,0.3,0.6,0.5,1,0.5c0.2,0,0.5,0,0.7-0.1
	c0.2-0.1,0.4-0.2,0.5-0.4L186.3,287.9L186.3,287.9z M184.7,284.7c-0.4,0-0.6,0.1-0.9,0.4c-0.2,0.3-0.4,0.6-0.4,1h2.5V286
	c0-0.4-0.1-0.7-0.3-1C185.3,284.8,185.1,284.7,184.7,284.7z M188,283.3v1.1h0.9v0.4H188v2.8c0,0.2,0,0.4,0.1,0.5
	c0.1,0.1,0.2,0.2,0.4,0.2c0.1,0,0.2,0,0.4,0l0,0.4c-0.1,0-0.3,0.1-0.5,0.1c-0.3,0-0.6-0.1-0.7-0.3c-0.1-0.2-0.2-0.5-0.2-0.8v-2.8
	h-0.8v-0.4h0.8v-1.1H188z M194.3,287.5c0-0.2-0.1-0.4-0.3-0.6c-0.2-0.1-0.5-0.3-0.8-0.3c-0.4-0.1-0.7-0.2-0.9-0.3
	c-0.2-0.1-0.4-0.2-0.5-0.4c-0.1-0.1-0.2-0.3-0.2-0.5c0-0.3,0.1-0.6,0.4-0.8c0.3-0.2,0.6-0.3,1.1-0.3c0.5,0,0.8,0.1,1.1,0.3
	c0.3,0.2,0.4,0.5,0.4,0.9h-0.5c0-0.2-0.1-0.5-0.3-0.6s-0.5-0.2-0.8-0.2c-0.3,0-0.6,0.1-0.7,0.2c-0.2,0.1-0.3,0.3-0.3,0.5
	c0,0.2,0.1,0.4,0.2,0.5c0.2,0.1,0.4,0.2,0.8,0.3c0.4,0.1,0.7,0.2,0.9,0.3c0.2,0.1,0.4,0.2,0.5,0.4c0.1,0.2,0.1,0.3,0.1,0.6
	c0,0.4-0.1,0.6-0.4,0.9c-0.3,0.2-0.7,0.3-1.1,0.3c-0.5,0-0.9-0.1-1.2-0.4c-0.3-0.2-0.5-0.5-0.5-0.9h0.5c0,0.3,0.1,0.5,0.3,0.6
	c0.2,0.2,0.5,0.2,0.8,0.2c0.3,0,0.6-0.1,0.8-0.2C194.2,287.9,194.3,287.7,194.3,287.5z M197.4,288.3c0.3,0,0.6-0.1,0.8-0.3
	c0.2-0.2,0.3-0.4,0.4-0.7h0.4c0,0.3-0.1,0.5-0.2,0.7c-0.1,0.2-0.3,0.4-0.6,0.5s-0.5,0.2-0.8,0.2c-0.6,0-1-0.2-1.3-0.6
	c-0.3-0.4-0.5-0.9-0.5-1.6v-0.1c0-0.4,0.1-0.8,0.2-1.1c0.1-0.3,0.4-0.6,0.6-0.7c0.3-0.2,0.6-0.3,1-0.3c0.5,0,0.8,0.1,1.1,0.4
	c0.3,0.3,0.5,0.6,0.5,1.1h-0.4c0-0.3-0.1-0.6-0.4-0.8c-0.2-0.2-0.5-0.3-0.8-0.3c-0.4,0-0.7,0.2-1,0.5c-0.2,0.3-0.3,0.7-0.3,1.3v0.1
	c0,0.5,0.1,1,0.3,1.3C196.7,288.1,197,288.3,197.4,288.3z M199.9,283.1c0-0.1,0-0.2,0.1-0.2c0.1-0.1,0.1-0.1,0.2-0.1
	c0.1,0,0.2,0,0.2,0.1s0.1,0.1,0.1,0.2s0,0.2-0.1,0.2c-0.1,0.1-0.1,0.1-0.2,0.1c-0.1,0-0.2,0-0.2-0.1
	C200,283.3,199.9,283.2,199.9,283.1z M200.5,288.6H200v-4.2h0.5V288.6z M204.9,287.9c-0.3,0.5-0.8,0.7-1.5,0.7c-0.4,0-0.7-0.1-1-0.3
	c-0.3-0.2-0.5-0.4-0.7-0.7c-0.2-0.3-0.2-0.7-0.2-1.1v-0.2c0-0.4,0.1-0.8,0.2-1.1c0.2-0.3,0.4-0.6,0.7-0.8c0.3-0.2,0.6-0.3,0.9-0.3
	c0.5,0,0.9,0.2,1.2,0.5c0.3,0.4,0.5,0.8,0.5,1.4v0.3h-3v0.1c0,0.5,0.1,0.9,0.4,1.2c0.3,0.3,0.6,0.5,1,0.5c0.2,0,0.5,0,0.7-0.1
	c0.2-0.1,0.4-0.2,0.5-0.4L204.9,287.9L204.9,287.9z M203.3,284.7c-0.4,0-0.6,0.1-0.9,0.4c-0.2,0.3-0.4,0.6-0.4,1h2.5V286
	c0-0.4-0.1-0.7-0.3-1C204,284.8,203.7,284.7,203.3,284.7z M206.3,284.4l0,0.7c0.2-0.3,0.4-0.5,0.6-0.6c0.2-0.1,0.5-0.2,0.8-0.2
	c0.5,0,0.8,0.1,1,0.4c0.2,0.3,0.3,0.6,0.3,1.1v2.8h-0.5v-2.8c0-0.4-0.1-0.7-0.2-0.8c-0.2-0.2-0.4-0.3-0.8-0.3
	c-0.3,0-0.5,0.1-0.8,0.3c-0.2,0.2-0.4,0.4-0.5,0.7v2.9h-0.5v-4.2H206.3z M211,283.3v1.1h0.9v0.4H211v2.8c0,0.2,0,0.4,0.1,0.5
	c0.1,0.1,0.2,0.2,0.4,0.2c0.1,0,0.2,0,0.4,0l0,0.4c-0.1,0-0.3,0.1-0.5,0.1c-0.3,0-0.6-0.1-0.7-0.3c-0.1-0.2-0.2-0.5-0.2-0.8v-2.8
	h-0.8v-0.4h0.8v-1.1H211z M212.8,283.1c0-0.1,0-0.2,0.1-0.2c0.1-0.1,0.1-0.1,0.2-0.1c0.1,0,0.2,0,0.2,0.1s0.1,0.1,0.1,0.2
	s0,0.2-0.1,0.2c-0.1,0.1-0.1,0.1-0.2,0.1c-0.1,0-0.2,0-0.2-0.1C212.9,283.3,212.8,283.2,212.8,283.1z M213.4,288.6h-0.5v-4.2h0.5
	V288.6z M214.9,288.6v-3.8h-0.7v-0.4h0.7v-0.4c0-0.5,0.1-0.8,0.4-1c0.2-0.2,0.6-0.4,1-0.4c0.3,0,0.7,0.1,1.1,0.2l-0.1,0.4
	c-0.3-0.1-0.6-0.2-1-0.2c-0.6,0-1,0.3-1,1v0.4h1v0.4h-1v3.8H214.9z M217.7,288.6h-0.5v-4.2h0.5V288.6z M218.8,286.4
	c0-0.7,0.1-1.2,0.4-1.6s0.7-0.6,1.2-0.6c0.6,0,1,0.2,1.3,0.7l0-0.6h0.4v5.9h-0.5v-2.1c-0.3,0.4-0.7,0.6-1.3,0.6
	c-0.5,0-0.9-0.2-1.2-0.6S218.8,287.2,218.8,286.4L218.8,286.4z M219.2,286.5c0,0.5,0.1,1,0.3,1.3c0.2,0.3,0.5,0.5,0.9,0.5
	c0.6,0,1-0.2,1.2-0.7v-2.1c-0.1-0.3-0.3-0.4-0.5-0.6s-0.4-0.2-0.7-0.2c-0.4,0-0.7,0.2-0.9,0.5C219.3,285.5,219.2,285.9,219.2,286.5z
	 M226.1,288c-0.3,0.4-0.7,0.6-1.3,0.6c-0.5,0-0.8-0.1-1-0.4s-0.4-0.6-0.4-1.2v-2.8h0.5v2.7c0,0.8,0.3,1.2,1,1.2
	c0.7,0,1.1-0.3,1.3-0.8v-3.1h0.5v4.2h-0.5L226.1,288z M230.9,287.9c-0.3,0.5-0.8,0.7-1.5,0.7c-0.4,0-0.7-0.1-1-0.3
	c-0.3-0.2-0.5-0.4-0.7-0.7c-0.2-0.3-0.2-0.7-0.2-1.1v-0.2c0-0.4,0.1-0.8,0.2-1.1c0.2-0.3,0.4-0.6,0.7-0.8c0.3-0.2,0.6-0.3,0.9-0.3
	c0.5,0,0.9,0.2,1.2,0.5c0.3,0.4,0.5,0.8,0.5,1.4v0.3h-3v0.1c0,0.5,0.1,0.9,0.4,1.2c0.3,0.3,0.6,0.5,1,0.5c0.2,0,0.5,0,0.7-0.1
	c0.2-0.1,0.4-0.2,0.5-0.4L230.9,287.9L230.9,287.9z M229.3,284.7c-0.4,0-0.6,0.1-0.9,0.4c-0.2,0.3-0.4,0.6-0.4,1h2.5V286
	c0-0.4-0.1-0.7-0.3-1C230,284.8,229.7,284.7,229.3,284.7z M232.4,288.3c0,0.5-0.2,1-0.5,1.3l-0.3-0.2c0.2-0.3,0.4-0.6,0.4-1v-0.6
	h0.5V288.3L232.4,288.3z"/>
<text transform="matrix(1 0 0 1 91.0891 298.1807)"><tspan x="0" y="0" class="st2 st3 st4">mais également des conseils moins cor</tspan><tspan x="138.5" y="0" class="st2 st3 st4">r</tspan><tspan x="141.1" y="0" class="st2 st3 st4">ects </tspan></text>
<path class="st2" d="M94.8,307.1c-0.3,0.5-0.8,0.7-1.5,0.7c-0.4,0-0.7-0.1-1-0.3c-0.3-0.2-0.5-0.4-0.7-0.7c-0.2-0.3-0.2-0.7-0.2-1.1
	v-0.2c0-0.4,0.1-0.8,0.2-1.1c0.2-0.3,0.4-0.6,0.7-0.8c0.3-0.2,0.6-0.3,0.9-0.3c0.5,0,0.9,0.2,1.2,0.5c0.3,0.4,0.5,0.8,0.5,1.4v0.3
	h-3v0.1c0,0.5,0.1,0.9,0.4,1.2c0.3,0.3,0.6,0.5,1,0.5c0.2,0,0.5,0,0.7-0.1c0.2-0.1,0.4-0.2,0.5-0.4L94.8,307.1L94.8,307.1z
	 M93.2,303.9c-0.4,0-0.6,0.1-0.9,0.4c-0.2,0.3-0.4,0.6-0.4,1h2.5v-0.1c0-0.4-0.1-0.7-0.3-1C93.9,304,93.6,303.9,93.2,303.9z
	 M96.6,302.5v1.1h0.9v0.4h-0.9v2.8c0,0.2,0,0.4,0.1,0.5c0.1,0.1,0.2,0.2,0.4,0.2c0.1,0,0.2,0,0.4,0l0,0.4c-0.1,0-0.3,0.1-0.5,0.1
	c-0.3,0-0.6-0.1-0.7-0.3c-0.1-0.2-0.2-0.5-0.2-0.8v-2.8h-0.8v-0.4h0.8v-1.1H96.6z M100.8,303.6l0,0.7c0.2-0.3,0.4-0.4,0.6-0.6
	c0.2-0.1,0.5-0.2,0.8-0.2c0.7,0,1.1,0.3,1.3,0.8c0.2-0.3,0.4-0.5,0.6-0.6c0.3-0.1,0.5-0.2,0.8-0.2c0.9,0,1.4,0.5,1.4,1.5v2.8h-0.5
	V305c0-0.4-0.1-0.7-0.2-0.8c-0.2-0.2-0.4-0.3-0.8-0.3c-0.3,0-0.6,0.1-0.9,0.3c-0.2,0.2-0.4,0.5-0.4,0.8v2.8H103V305
	c0-0.4-0.1-0.6-0.3-0.8c-0.2-0.2-0.4-0.3-0.8-0.3c-0.3,0-0.5,0.1-0.8,0.3s-0.4,0.4-0.5,0.7v2.9h-0.5v-4.2H100.8z M110.6,307.1
	c-0.3,0.5-0.8,0.7-1.5,0.7c-0.4,0-0.7-0.1-1-0.3c-0.3-0.2-0.5-0.4-0.7-0.7c-0.2-0.3-0.2-0.7-0.2-1.1v-0.2c0-0.4,0.1-0.8,0.2-1.1
	c0.2-0.3,0.4-0.6,0.7-0.8c0.3-0.2,0.6-0.3,0.9-0.3c0.5,0,0.9,0.2,1.2,0.5c0.3,0.4,0.5,0.8,0.5,1.4v0.3h-3v0.1c0,0.5,0.1,0.9,0.4,1.2
	c0.3,0.3,0.6,0.5,1,0.5c0.2,0,0.5,0,0.7-0.1c0.2-0.1,0.4-0.2,0.5-0.4L110.6,307.1L110.6,307.1z M109,303.9c-0.4,0-0.6,0.1-0.9,0.4
	c-0.2,0.3-0.4,0.6-0.4,1h2.5v-0.1c0-0.4-0.1-0.7-0.3-1C109.6,304,109.3,303.9,109,303.9z M110.1,302.8L110.1,302.8l-0.4,0l-0.7-0.7
	l-0.7,0.7H108v-0.1l0.9-1h0.3L110.1,302.8z M112,303.6l0,0.7c0.2-0.3,0.4-0.4,0.6-0.6c0.2-0.1,0.5-0.2,0.8-0.2
	c0.7,0,1.1,0.3,1.3,0.8c0.2-0.3,0.4-0.5,0.6-0.6c0.3-0.1,0.5-0.2,0.8-0.2c0.9,0,1.4,0.5,1.4,1.5v2.8H117V305c0-0.4-0.1-0.7-0.2-0.8
	c-0.2-0.2-0.4-0.3-0.8-0.3c-0.3,0-0.6,0.1-0.9,0.3c-0.2,0.2-0.4,0.5-0.4,0.8v2.8h-0.5V305c0-0.4-0.1-0.6-0.3-0.8
	c-0.2-0.2-0.4-0.3-0.8-0.3c-0.3,0-0.5,0.1-0.8,0.3s-0.4,0.4-0.5,0.7v2.9h-0.5v-4.2H112z M121.8,307.1c-0.3,0.5-0.8,0.7-1.5,0.7
	c-0.4,0-0.7-0.1-1-0.3c-0.3-0.2-0.5-0.4-0.7-0.7c-0.2-0.3-0.2-0.7-0.2-1.1v-0.2c0-0.4,0.1-0.8,0.2-1.1c0.2-0.3,0.4-0.6,0.7-0.8
	c0.3-0.2,0.6-0.3,0.9-0.3c0.5,0,0.9,0.2,1.2,0.5c0.3,0.4,0.5,0.8,0.5,1.4v0.3h-3v0.1c0,0.5,0.1,0.9,0.4,1.2c0.3,0.3,0.6,0.5,1,0.5
	c0.2,0,0.5,0,0.7-0.1c0.2-0.1,0.4-0.2,0.5-0.4L121.8,307.1L121.8,307.1z M120.2,303.9c-0.4,0-0.6,0.1-0.9,0.4
	c-0.2,0.3-0.4,0.6-0.4,1h2.5v-0.1c0-0.4-0.1-0.7-0.3-1C120.8,304,120.6,303.9,120.2,303.9z M127.9,307.1c-0.3,0.5-0.8,0.7-1.5,0.7
	c-0.4,0-0.7-0.1-1-0.3c-0.3-0.2-0.5-0.4-0.7-0.7c-0.2-0.3-0.2-0.7-0.2-1.1v-0.2c0-0.4,0.1-0.8,0.2-1.1c0.2-0.3,0.4-0.6,0.7-0.8
	c0.3-0.2,0.6-0.3,0.9-0.3c0.5,0,0.9,0.2,1.2,0.5c0.3,0.4,0.5,0.8,0.5,1.4v0.3h-3v0.1c0,0.5,0.1,0.9,0.4,1.2c0.3,0.3,0.6,0.5,1,0.5
	c0.2,0,0.5,0,0.7-0.1c0.2-0.1,0.4-0.2,0.5-0.4L127.9,307.1L127.9,307.1z M126.3,303.9c-0.4,0-0.6,0.1-0.9,0.4
	c-0.2,0.3-0.4,0.6-0.4,1h2.5v-0.1c0-0.4-0.1-0.7-0.3-1C126.9,304,126.6,303.9,126.3,303.9z M130.8,304c-0.1,0-0.2,0-0.3,0
	c-0.3,0-0.5,0.1-0.7,0.2c-0.2,0.2-0.3,0.4-0.4,0.7v2.9h-0.5v-4.2h0.5l0,0.7c0.2-0.5,0.6-0.8,1.2-0.8c0.1,0,0.2,0,0.3,0.1L130.8,304z
	 M133.5,304c-0.1,0-0.2,0-0.3,0c-0.3,0-0.5,0.1-0.7,0.2c-0.2,0.2-0.3,0.4-0.4,0.7v2.9h-0.5v-4.2h0.5l0,0.7c0.2-0.5,0.6-0.8,1.2-0.8
	c0.1,0,0.2,0,0.3,0.1L133.5,304z M133.9,305.6c0-0.4,0.1-0.8,0.2-1.1c0.2-0.3,0.4-0.6,0.7-0.8c0.3-0.2,0.6-0.3,1-0.3
	c0.6,0,1,0.2,1.4,0.6c0.3,0.4,0.5,0.9,0.5,1.6v0.1c0,0.4-0.1,0.8-0.2,1.1c-0.2,0.3-0.4,0.6-0.7,0.8c-0.3,0.2-0.6,0.3-1,0.3
	c-0.6,0-1-0.2-1.4-0.6C134.1,306.9,133.9,306.3,133.9,305.6L133.9,305.6z M134.4,305.7c0,0.5,0.1,0.9,0.4,1.2s0.6,0.5,1,0.5
	c0.4,0,0.8-0.2,1-0.5s0.4-0.8,0.4-1.3v-0.1c0-0.3-0.1-0.6-0.2-0.9c-0.1-0.3-0.3-0.5-0.5-0.6c-0.2-0.1-0.5-0.2-0.7-0.2
	c-0.4,0-0.8,0.2-1,0.5C134.5,304.7,134.4,305.1,134.4,305.7L134.4,305.7z M139.1,303.6l0,0.7c0.2-0.3,0.4-0.5,0.6-0.6
	c0.2-0.1,0.5-0.2,0.8-0.2c0.5,0,0.8,0.1,1,0.4c0.2,0.3,0.3,0.6,0.3,1.1v2.8h-0.5V305c0-0.4-0.1-0.7-0.2-0.8
	c-0.2-0.2-0.4-0.3-0.8-0.3c-0.3,0-0.5,0.1-0.8,0.3c-0.2,0.2-0.4,0.4-0.5,0.7v2.9h-0.5v-4.2H139.1z M146.2,307.1
	c-0.3,0.5-0.8,0.7-1.5,0.7c-0.4,0-0.7-0.1-1-0.3c-0.3-0.2-0.5-0.4-0.7-0.7c-0.2-0.3-0.2-0.7-0.2-1.1v-0.2c0-0.4,0.1-0.8,0.2-1.1
	c0.2-0.3,0.4-0.6,0.7-0.8c0.3-0.2,0.6-0.3,0.9-0.3c0.5,0,0.9,0.2,1.2,0.5c0.3,0.4,0.5,0.8,0.5,1.4v0.3h-3v0.1c0,0.5,0.1,0.9,0.4,1.2
	c0.3,0.3,0.6,0.5,1,0.5c0.2,0,0.5,0,0.7-0.1c0.2-0.1,0.4-0.2,0.5-0.4L146.2,307.1L146.2,307.1z M144.6,303.9c-0.4,0-0.6,0.1-0.9,0.4
	c-0.2,0.3-0.4,0.6-0.4,1h2.5v-0.1c0-0.4-0.1-0.7-0.3-1C145.2,304,145,303.9,144.6,303.9z M145.1,301.8h0.6l-0.9,1.1l-0.4,0
	L145.1,301.8z M149.7,306.7c0-0.2-0.1-0.4-0.3-0.6c-0.2-0.1-0.5-0.3-0.8-0.3c-0.4-0.1-0.7-0.2-0.9-0.3c-0.2-0.1-0.4-0.2-0.5-0.4
	c-0.1-0.1-0.2-0.3-0.2-0.5c0-0.3,0.1-0.6,0.4-0.8c0.3-0.2,0.6-0.3,1.1-0.3c0.5,0,0.8,0.1,1.1,0.3c0.3,0.2,0.4,0.5,0.4,0.9h-0.5
	c0-0.2-0.1-0.5-0.3-0.6s-0.5-0.2-0.8-0.2c-0.3,0-0.6,0.1-0.7,0.2c-0.2,0.1-0.3,0.3-0.3,0.5c0,0.2,0.1,0.4,0.2,0.5
	c0.2,0.1,0.4,0.2,0.8,0.3c0.4,0.1,0.7,0.2,0.9,0.3c0.2,0.1,0.4,0.2,0.5,0.4c0.1,0.2,0.1,0.3,0.1,0.6c0,0.4-0.1,0.6-0.4,0.9
	c-0.3,0.2-0.7,0.3-1.1,0.3c-0.5,0-0.9-0.1-1.2-0.4c-0.3-0.2-0.5-0.5-0.5-0.9h0.5c0,0.3,0.1,0.5,0.3,0.6c0.2,0.2,0.5,0.2,0.8,0.2
	c0.3,0,0.6-0.1,0.8-0.2C149.6,307.1,149.7,306.9,149.7,306.7z M151.2,307.5c0-0.1,0-0.2,0.1-0.2c0.1-0.1,0.1-0.1,0.2-0.1
	c0.1,0,0.2,0,0.2,0.1c0.1,0.1,0.1,0.1,0.1,0.2c0,0.1,0,0.2-0.1,0.2c-0.1,0.1-0.1,0.1-0.2,0.1c-0.1,0-0.2,0-0.2-0.1
	S151.2,307.6,151.2,307.5z M155.7,307.4h2.8v0.4h-3.3v-5.7h0.5V307.4z M158.4,302.2c0,0.5-0.2,1-0.5,1.3l-0.3-0.2
	c0.2-0.3,0.4-0.6,0.4-1v-0.5h0.5V302.2L158.4,302.2z M162.3,307.1c-0.3,0.5-0.8,0.7-1.5,0.7c-0.4,0-0.7-0.1-1-0.3
	c-0.3-0.2-0.5-0.4-0.7-0.7c-0.2-0.3-0.2-0.7-0.2-1.1v-0.2c0-0.4,0.1-0.8,0.2-1.1c0.2-0.3,0.4-0.6,0.7-0.8c0.3-0.2,0.6-0.3,0.9-0.3
	c0.5,0,0.9,0.2,1.2,0.5c0.3,0.4,0.5,0.8,0.5,1.4v0.3h-3v0.1c0,0.5,0.1,0.9,0.4,1.2c0.3,0.3,0.6,0.5,1,0.5c0.2,0,0.5,0,0.7-0.1
	c0.2-0.1,0.4-0.2,0.5-0.4L162.3,307.1L162.3,307.1z M160.7,303.9c-0.4,0-0.6,0.1-0.9,0.4c-0.2,0.3-0.4,0.6-0.4,1h2.5v-0.1
	c0-0.4-0.1-0.7-0.3-1C161.4,304,161.1,303.9,160.7,303.9z M164.6,305.3l1.1-1.7h0.6l-1.4,2.1l1.5,2.2h-0.6l-1.2-1.8l-1.2,1.8h-0.6
	l1.5-2.2l-1.4-2.1h0.6L164.6,305.3z M169.9,307.8c0-0.1-0.1-0.3-0.1-0.6c-0.2,0.2-0.4,0.4-0.6,0.5s-0.5,0.2-0.8,0.2
	c-0.4,0-0.7-0.1-1-0.3c-0.3-0.2-0.4-0.5-0.4-0.9c0-0.4,0.2-0.7,0.5-1c0.3-0.2,0.8-0.4,1.4-0.4h0.8v-0.5c0-0.3-0.1-0.5-0.3-0.7
	c-0.2-0.2-0.5-0.3-0.8-0.3c-0.3,0-0.6,0.1-0.8,0.2c-0.2,0.2-0.3,0.4-0.3,0.6l-0.5,0c0-0.3,0.2-0.6,0.5-0.9s0.7-0.4,1.2-0.4
	c0.5,0,0.8,0.1,1.1,0.4c0.3,0.2,0.4,0.6,0.4,1v2c0,0.4,0,0.7,0.1,0.9v0H169.9z M168.4,307.4c0.3,0,0.6-0.1,0.8-0.2
	c0.2-0.2,0.4-0.4,0.5-0.6v-0.9h-0.8c-0.5,0-0.8,0.1-1.1,0.3c-0.3,0.2-0.4,0.4-0.4,0.7c0,0.2,0.1,0.4,0.3,0.6
	S168.1,307.4,168.4,307.4z M173.1,307.5c0.3,0,0.6-0.1,0.8-0.3c0.2-0.2,0.3-0.4,0.4-0.7h0.4c0,0.3-0.1,0.5-0.2,0.7
	c-0.1,0.2-0.3,0.4-0.6,0.5s-0.5,0.2-0.8,0.2c-0.6,0-1-0.2-1.3-0.6c-0.3-0.4-0.5-0.9-0.5-1.6v-0.1c0-0.4,0.1-0.8,0.2-1.1
	c0.1-0.3,0.4-0.6,0.6-0.7c0.3-0.2,0.6-0.3,1-0.3c0.5,0,0.8,0.1,1.1,0.4c0.3,0.3,0.5,0.6,0.5,1.1h-0.4c0-0.3-0.1-0.6-0.4-0.8
	c-0.2-0.2-0.5-0.3-0.8-0.3c-0.4,0-0.7,0.2-1,0.5c-0.2,0.3-0.3,0.7-0.3,1.3v0.1c0,0.5,0.1,1,0.3,1.3
	C172.3,307.3,172.6,307.5,173.1,307.5z M176.3,302.5v1.1h0.9v0.4h-0.9v2.8c0,0.2,0,0.4,0.1,0.5c0.1,0.1,0.2,0.2,0.4,0.2
	c0.1,0,0.2,0,0.4,0l0,0.4c-0.1,0-0.3,0.1-0.5,0.1c-0.3,0-0.6-0.1-0.7-0.3c-0.1-0.2-0.2-0.5-0.2-0.8v-2.8h-0.8v-0.4h0.8v-1.1H176.3z
	 M178.2,302.3c0-0.1,0-0.2,0.1-0.2c0.1-0.1,0.1-0.1,0.2-0.1c0.1,0,0.2,0,0.2,0.1s0.1,0.1,0.1,0.2s0,0.2-0.1,0.2
	c-0.1,0.1-0.1,0.1-0.2,0.1c-0.1,0-0.2,0-0.2-0.1C178.2,302.5,178.2,302.4,178.2,302.3z M178.7,307.8h-0.5v-4.2h0.5V307.8z
	 M180.7,302.5v1.1h0.9v0.4h-0.9v2.8c0,0.2,0,0.4,0.1,0.5c0.1,0.1,0.2,0.2,0.4,0.2c0.1,0,0.2,0,0.4,0l0,0.4c-0.1,0-0.3,0.1-0.5,0.1
	c-0.3,0-0.6-0.1-0.7-0.3c-0.1-0.2-0.2-0.5-0.2-0.8v-2.8h-0.8v-0.4h0.8v-1.1H180.7z M185.3,307.2c-0.3,0.4-0.7,0.6-1.3,0.6
	c-0.5,0-0.8-0.1-1-0.4s-0.4-0.6-0.4-1.2v-2.8h0.5v2.7c0,0.8,0.3,1.2,1,1.2c0.7,0,1.1-0.3,1.3-0.8v-3.1h0.5v4.2h-0.5L185.3,307.2z
	 M186.7,305.6c0-0.7,0.1-1.2,0.4-1.6c0.3-0.4,0.7-0.6,1.2-0.6c0.6,0,1,0.2,1.3,0.7v-2.4h0.5v6h-0.4l0-0.6c-0.3,0.4-0.7,0.6-1.3,0.6
	c-0.5,0-0.9-0.2-1.2-0.6C186.9,306.9,186.7,306.3,186.7,305.6L186.7,305.6z M187.2,305.7c0,0.5,0.1,1,0.3,1.3
	c0.2,0.3,0.5,0.5,0.9,0.5c0.6,0,1-0.3,1.2-0.8v-2c-0.2-0.5-0.6-0.8-1.2-0.8c-0.4,0-0.7,0.2-0.9,0.5S187.2,305.1,187.2,305.7z
	 M194.5,307.1c-0.3,0.5-0.8,0.7-1.5,0.7c-0.4,0-0.7-0.1-1-0.3c-0.3-0.2-0.5-0.4-0.7-0.7c-0.2-0.3-0.2-0.7-0.2-1.1v-0.2
	c0-0.4,0.1-0.8,0.2-1.1c0.2-0.3,0.4-0.6,0.7-0.8c0.3-0.2,0.6-0.3,0.9-0.3c0.5,0,0.9,0.2,1.2,0.5c0.3,0.4,0.5,0.8,0.5,1.4v0.3h-3v0.1
	c0,0.5,0.1,0.9,0.4,1.2c0.3,0.3,0.6,0.5,1,0.5c0.2,0,0.5,0,0.7-0.1c0.2-0.1,0.4-0.2,0.5-0.4L194.5,307.1L194.5,307.1z M192.9,303.9
	c-0.4,0-0.6,0.1-0.9,0.4c-0.2,0.3-0.4,0.6-0.4,1h2.5v-0.1c0-0.4-0.1-0.7-0.3-1C193.6,304,193.3,303.9,192.9,303.9z M200.6,307.1
	c-0.3,0.5-0.8,0.7-1.5,0.7c-0.4,0-0.7-0.1-1-0.3c-0.3-0.2-0.5-0.4-0.7-0.7c-0.2-0.3-0.2-0.7-0.2-1.1v-0.2c0-0.4,0.1-0.8,0.2-1.1
	c0.2-0.3,0.4-0.6,0.7-0.8c0.3-0.2,0.6-0.3,0.9-0.3c0.5,0,0.9,0.2,1.2,0.5c0.3,0.4,0.5,0.8,0.5,1.4v0.3h-3v0.1c0,0.5,0.1,0.9,0.4,1.2
	c0.3,0.3,0.6,0.5,1,0.5c0.2,0,0.5,0,0.7-0.1c0.2-0.1,0.4-0.2,0.5-0.4L200.6,307.1L200.6,307.1z M199,303.9c-0.4,0-0.6,0.1-0.9,0.4
	c-0.2,0.3-0.4,0.6-0.4,1h2.5v-0.1c0-0.4-0.1-0.7-0.3-1C199.7,304,199.4,303.9,199,303.9z M202.3,302.5v1.1h0.9v0.4h-0.9v2.8
	c0,0.2,0,0.4,0.1,0.5c0.1,0.1,0.2,0.2,0.4,0.2c0.1,0,0.2,0,0.4,0l0,0.4c-0.1,0-0.3,0.1-0.5,0.1c-0.3,0-0.6-0.1-0.7-0.3
	c-0.1-0.2-0.2-0.5-0.2-0.8v-2.8h-0.8v-0.4h0.8v-1.1H202.3z M206.6,307.8h-0.5v-6h0.5V307.8z M210.6,307.8c0-0.1-0.1-0.3-0.1-0.6
	c-0.2,0.2-0.4,0.4-0.6,0.5s-0.5,0.2-0.8,0.2c-0.4,0-0.7-0.1-1-0.3c-0.3-0.2-0.4-0.5-0.4-0.9c0-0.4,0.2-0.7,0.5-1
	c0.3-0.2,0.8-0.4,1.4-0.4h0.8v-0.5c0-0.3-0.1-0.5-0.3-0.7c-0.2-0.2-0.5-0.3-0.8-0.3c-0.3,0-0.6,0.1-0.8,0.2
	c-0.2,0.2-0.3,0.4-0.3,0.6l-0.5,0c0-0.3,0.2-0.6,0.5-0.9s0.7-0.4,1.2-0.4c0.5,0,0.8,0.1,1.1,0.4c0.3,0.2,0.4,0.6,0.4,1v2
	c0,0.4,0,0.7,0.1,0.9v0H210.6z M209.1,307.4c0.3,0,0.6-0.1,0.8-0.2c0.2-0.2,0.4-0.4,0.5-0.6v-0.9h-0.8c-0.5,0-0.8,0.1-1.1,0.3
	c-0.3,0.2-0.4,0.4-0.4,0.7c0,0.2,0.1,0.4,0.3,0.6S208.8,307.4,209.1,307.4z M214.4,307.8v-3.8h-0.7v-0.4h0.7v-0.4
	c0-0.5,0.1-0.8,0.4-1c0.2-0.2,0.6-0.4,1-0.4c0.3,0,0.7,0.1,1.1,0.2l-0.1,0.4c-0.3-0.1-0.6-0.2-1-0.2c-0.6,0-1,0.3-1,1v0.4h1v0.4h-1
	v3.8H214.4z M217.1,307.8h-0.5v-4.2h0.5V307.8z M221.1,307.8c0-0.1-0.1-0.3-0.1-0.6c-0.2,0.2-0.4,0.4-0.6,0.5s-0.5,0.2-0.8,0.2
	c-0.4,0-0.7-0.1-1-0.3c-0.3-0.2-0.4-0.5-0.4-0.9c0-0.4,0.2-0.7,0.5-1c0.3-0.2,0.8-0.4,1.4-0.4h0.8v-0.5c0-0.3-0.1-0.5-0.3-0.7
	c-0.2-0.2-0.5-0.3-0.8-0.3c-0.3,0-0.6,0.1-0.8,0.2c-0.2,0.2-0.3,0.4-0.3,0.6l-0.5,0c0-0.3,0.2-0.6,0.5-0.9s0.7-0.4,1.2-0.4
	c0.5,0,0.8,0.1,1.1,0.4c0.3,0.2,0.4,0.6,0.4,1v2c0,0.4,0,0.7,0.1,0.9v0H221.1z M219.6,307.4c0.3,0,0.6-0.1,0.8-0.2
	c0.2-0.2,0.4-0.4,0.5-0.6v-0.9h-0.8c-0.5,0-0.8,0.1-1.1,0.3c-0.3,0.2-0.4,0.4-0.4,0.7c0,0.2,0.1,0.4,0.3,0.6
	S219.3,307.4,219.6,307.4z M226.1,305.7c0,0.7-0.1,1.2-0.4,1.6c-0.3,0.4-0.7,0.6-1.2,0.6c-0.6,0-1-0.2-1.3-0.7l0,0.6h-0.4v-6h0.5
	v2.4c0.3-0.5,0.7-0.7,1.3-0.7c0.5,0,0.9,0.2,1.2,0.6C226,304.4,226.1,305,226.1,305.7L226.1,305.7z M225.7,305.6
	c0-0.6-0.1-1-0.3-1.3c-0.2-0.3-0.5-0.5-0.9-0.5c-0.3,0-0.6,0.1-0.8,0.2c-0.2,0.1-0.4,0.4-0.5,0.6v1.9c0.2,0.5,0.6,0.8,1.2,0.8
	c0.4,0,0.7-0.2,0.9-0.5C225.5,306.7,225.7,306.2,225.7,305.6z M227.1,302.3c0-0.1,0-0.2,0.1-0.2c0.1-0.1,0.1-0.1,0.2-0.1
	c0.1,0,0.2,0,0.2,0.1s0.1,0.1,0.1,0.2s0,0.2-0.1,0.2c-0.1,0.1-0.1,0.1-0.2,0.1c-0.1,0-0.2,0-0.2-0.1
	C227.2,302.5,227.1,302.4,227.1,302.3z M227.7,307.8h-0.5v-4.2h0.5V307.8z M229.5,307.8H229v-6h0.5V307.8z M230.7,302.3
	c0-0.1,0-0.2,0.1-0.2c0.1-0.1,0.1-0.1,0.2-0.1c0.1,0,0.2,0,0.2,0.1s0.1,0.1,0.1,0.2s0,0.2-0.1,0.2c-0.1,0.1-0.1,0.1-0.2,0.1
	c-0.1,0-0.2,0-0.2-0.1C230.7,302.5,230.7,302.4,230.7,302.3z M231.3,307.8h-0.5v-4.2h0.5V307.8z M233.3,302.5v1.1h0.9v0.4h-0.9v2.8
	c0,0.2,0,0.4,0.1,0.5c0.1,0.1,0.2,0.2,0.4,0.2c0.1,0,0.2,0,0.4,0l0,0.4c-0.1,0-0.3,0.1-0.5,0.1c-0.3,0-0.6-0.1-0.7-0.3
	c-0.1-0.2-0.2-0.5-0.2-0.8v-2.8H232v-0.4h0.8v-1.1H233.3z M238.2,307.1c-0.3,0.5-0.8,0.7-1.5,0.7c-0.4,0-0.7-0.1-1-0.3
	c-0.3-0.2-0.5-0.4-0.7-0.7c-0.2-0.3-0.2-0.7-0.2-1.1v-0.2c0-0.4,0.1-0.8,0.2-1.1c0.2-0.3,0.4-0.6,0.7-0.8c0.3-0.2,0.6-0.3,0.9-0.3
	c0.5,0,0.9,0.2,1.2,0.5c0.3,0.4,0.5,0.8,0.5,1.4v0.3h-3v0.1c0,0.5,0.1,0.9,0.4,1.2c0.3,0.3,0.6,0.5,1,0.5c0.2,0,0.5,0,0.7-0.1
	c0.2-0.1,0.4-0.2,0.5-0.4L238.2,307.1L238.2,307.1z M236.6,303.9c-0.4,0-0.6,0.1-0.9,0.4c-0.2,0.3-0.4,0.6-0.4,1h2.5v-0.1
	c0-0.4-0.1-0.7-0.3-1C237.3,304,237,303.9,236.6,303.9z M237.2,301.8h0.6l-0.9,1.1l-0.4,0L237.2,301.8z"/>
<text transform="matrix(1 0 0 1 91.0891 317.3799)"><tspan x="0" y="0" class="st2 st3 st4">de </tspan><tspan x="10.5" y="0" class="st2 st3 st4">“</tspan><tspan x="12.7" y="0" class="st2 st3 st4">doc</tspan><tspan x="25.7" y="0" class="st2 st3 st4">t</tspan><tspan x="28.2" y="0" class="st2 st3 st4">or googl</tspan><tspan x="57" y="0" class="st2 st3 st4">e</tspan><tspan x="61.1" y="0" class="st2 st3 st4">” peu</tspan><tspan x="78.4" y="0" class="st2 st3 st4">v</tspan><tspan x="82.2" y="0" class="st2 st3 st4">ent à juste tit</tspan><tspan x="127.3" y="0" class="st2 st3 st4">r</tspan><tspan x="129.9" y="0" class="st2 st3 st4">e êt</tspan><tspan x="142.7" y="0" class="st2 st3 st4">r</tspan><tspan x="145.3" y="0" class="st2 st3 st4">e </tspan></text>
<text transform="matrix(1 0 0 1 91.0891 326.9805)" class="st2 st3 st4">mises en doute.</text>
<text transform="matrix(1 0 0 1 91.0891 346.1807)"><tspan x="0" y="0" class="st2 st3 st4">P</tspan><tspan x="4.9" y="0" class="st2 st3 st4">ou</tspan><tspan x="13.8" y="0" class="st2 st3 st4">r</tspan><tspan x="16.6" y="0" class="st2 st3 st4">tant, un nomb</tspan><tspan x="65.1" y="0" class="st2 st3 st4">r</tspan><tspan x="67.7" y="0" class="st2 st3 st4">e considé</tspan><tspan x="101.2" y="0" class="st2 st3 st4">r</tspan><tspan x="103.7" y="0" class="st2 st3 st4">able de </tspan></text>
<text transform="matrix(1 0 0 1 91.0891 355.7803)" class="st2 st3 st4">personnes utilisent Internet pour obtenir </text>
<text transform="matrix(1 0 0 1 91.0891 365.3799)" class="st2 st3 st4">des conseils médicaux. Une enquête sur </text>
<text transform="matrix(1 0 0 1 91.0891 374.9805)"><tspan x="0" y="0" class="st2 st3 st4">la mutualité ch</tspan><tspan x="51.5" y="0" class="st2 st3 st4">r</tspan><tspan x="54.1" y="0" class="st2 st3 st4">étienne a mont</tspan><tspan x="106.4" y="0" class="st2 st3 st4">r</tspan><tspan x="109" y="0" class="st2 st3 st4">é que 91% </tspan></text>
<text transform="matrix(1 0 0 1 91.0891 384.5801)"><tspan x="0" y="0" class="st2 st3 st4">des Flamands consultent </tspan><tspan x="90.2" y="0" class="st2 st3 st4">r</tspan><tspan x="92.8" y="0" class="st2 st3 st4">éguliè</tspan><tspan x="113.5" y="0" class="st2 st3 st4">r</tspan><tspan x="116.1" y="0" class="st2 st3 st4">ement le </tspan></text>
<text transform="matrix(1 0 0 1 91.0891 394.1807)" class="st2 st3 st4">médecin Google.</text>
<text transform="matrix(1 0 0 1 91.0891 413.3799)"><tspan x="0" y="0" class="st2 st3 st4">La plupa</tspan><tspan x="29.8" y="0" class="st2 st3 st4">r</tspan><tspan x="32.7" y="0" class="st2 st3 st4">t des informations médicales </tspan></text>
<text transform="matrix(1 0 0 1 91.0891 422.9805)" class="st2 st3 st4">disponibles sur Internet ne sont </text>
<text transform="matrix(1 0 0 1 91.0891 432.5801)"><tspan x="0" y="0" class="st2 st3 st4">géné</tspan><tspan x="17.1" y="0" class="st2 st3 st4">r</tspan><tspan x="19.6" y="0" class="st2 st3 st4">alement pas assistées médicalement. </tspan></text>
<text transform="matrix(1 0 0 1 91.0891 442.1807)"><tspan x="0" y="0" class="st2 st3 st4">N’impo</tspan><tspan x="24.9" y="0" class="st2 st3 st4">r</tspan><tspan x="27.8" y="0" class="st2 st3 st4">te qui peut publier cette information, </tspan></text>
<text transform="matrix(1 0 0 1 91.0891 451.7803)"><tspan x="0" y="0" class="st2 st3 st4">qu</tspan><tspan x="8.9" y="0" class="st2 st3 st4">’</tspan><tspan x="10.1" y="0" class="st2 st3 st4">elle soit médicalement cor</tspan><tspan x="101.9" y="0" class="st2 st3 st4">r</tspan><tspan x="104.5" y="0" class="st2 st3 st4">ecte ou non. </tspan></text>
<text transform="matrix(1 0 0 1 91.0891 461.3799)"><tspan x="0" y="0" class="st2 st3 st4">En out</tspan><tspan x="22.3" y="0" class="st2 st3 st4">r</tspan><tspan x="25" y="0" class="st2 st3 st4">e, de nomb</tspan><tspan x="63.5" y="0" class="st2 st3 st4">r</tspan><tspan x="66.1" y="0" class="st2 st3 st4">euses his</tspan><tspan x="99.1" y="0" class="st2 st3 st4">t</tspan><tspan x="101.6" y="0" class="st2 st3 st4">oi</tspan><tspan x="107.8" y="0" class="st2 st3 st4">r</tspan><tspan x="110.5" y="0" class="st2 st3 st4">es ci</tspan><tspan x="126.5" y="0" class="st2 st3 st4">r</tspan><tspan x="129.1" y="0" class="st2 st3 st4">culent </tspan></text>
<text transform="matrix(1 0 0 1 91.0891 470.9805)"><tspan x="0" y="0" class="st2 st3 st4">sur Internet à p</tspan><tspan x="52.7" y="0" class="st2 st3 st4">r</tspan><tspan x="55.3" y="0" class="st2 st3 st4">opos d</tspan><tspan x="79.2" y="0" class="st2 st3 st4">’</tspan><tspan x="80.4" y="0" class="st2 st3 st4">expériences dans le </tspan></text>
<text transform="matrix(1 0 0 1 91.0891 480.5801)"><tspan x="0" y="0" class="st2 st3 st4">domaine des t</tspan><tspan x="49.7" y="0" class="st2 st3 st4">r</tspan><tspan x="52.3" y="0" class="st2 st3 st4">oubles g</tspan><tspan x="82" y="0" class="st2 st3 st4">r</tspan><tspan x="84.5" y="0" class="st2 st3 st4">a</tspan><tspan x="88.8" y="0" class="st2 st3 st4">v</tspan><tspan x="92.6" y="0" class="st2 st3 st4">es dans lesquelles </tspan></text>
<text transform="matrix(1 0 0 1 91.0891 490.1807)"><tspan x="0" y="0" class="st2 st3 st4">ce</tspan><tspan x="8.3" y="0" class="st2 st3 st4">r</tspan><tspan x="11.1" y="0" class="st2 st3 st4">tains a</tspan><tspan x="34.5" y="0" class="st2 st3 st4">r</tspan><tspan x="37.3" y="0" class="st2 st3 st4">tistes igno</tspan><tspan x="73.6" y="0" class="st2 st3 st4">r</tspan><tspan x="76.2" y="0" class="st2 st3 st4">ent ce</tspan><tspan x="97.5" y="0" class="st2 st3 st4">r</tspan><tspan x="100.4" y="0" class="st2 st3 st4">tains p</tspan><tspan x="123.9" y="0" class="st2 st3 st4">r</tspan><tspan x="126.5" y="0" class="st2 st3 st4">oblèmes </tspan></text>
<text transform="matrix(1 0 0 1 91.0891 499.7803)"><tspan x="0" y="0" class="st2 st3 st4">et font ensuite un diagnostic terrible. C</tspan><tspan x="134.4" y="0" class="st2 st3 st4">’</tspan><tspan x="135.7" y="0" class="st2 st3 st4">est </tspan></text>
<text transform="matrix(1 0 0 1 91.0891 509.3799)"><tspan x="0" y="0" class="st2 st3 st4">une image er</tspan><tspan x="45.4" y="0" class="st2 st3 st4">r</tspan><tspan x="48" y="0" class="st2 st3 st4">onée qui amène les gens à </tspan></text>
<text transform="matrix(1 0 0 1 91.0891 518.9805)"><tspan x="0" y="0" class="st2 st3 st4">penser que ce</tspan><tspan x="49" y="0" class="st2 st3 st4">r</tspan><tspan x="51.9" y="0" class="st2 st3 st4">taines maladies ou situations </tspan></text>
<text transform="matrix(1 0 0 1 91.0891 528.5801)"><tspan x="0" y="0" class="st2 st3 st4">sont beaucoup plus cou</tspan><tspan x="83.7" y="0" class="st2 st3 st4">r</tspan><tspan x="86.2" y="0" class="st2 st3 st4">antes que les </tspan></text>
<text transform="matrix(1 0 0 1 91.0891 538.1807)"><tspan x="0" y="0" class="st2 st3 st4">émissions de télé</tspan><tspan x="60.9" y="0" class="st2 st3 st4">r</tspan><tspan x="63.6" y="0" class="st2 st3 st4">éalité.</tspan></text>
<text transform="matrix(1 0 0 1 91.0891 557.3799)"><tspan x="0" y="0" class="st2 st3 st4">Ar</tspan><tspan x="7.7" y="0" class="st2 st3 st4">r</tspan><tspan x="10.3" y="0" class="st2 st3 st4">êtez de googler </tspan><tspan x="65.9" y="0" class="st2 st3 st4">v</tspan><tspan x="69.7" y="0" class="st2 st3 st4">os symp</tspan><tspan x="99.5" y="0" class="st2 st3 st4">t</tspan><tspan x="102" y="0" class="st2 st3 st4">ômes et </tspan></text>
<text transform="matrix(1 0 0 1 91.0891 566.9805)"><tspan x="0" y="0" class="st2 st3 st4">consultez un v</tspan><tspan x="50.4" y="0" class="st2 st3 st4">r</tspan><tspan x="52.9" y="0" class="st2 st3 st4">ai médecin.</tspan></text>
</svg>
