<?xml version="1.0" encoding="utf-8"?>
<!-- Generator: Adobe Illustrator 23.0.1, SVG Export Plug-In . SVG Version: 6.00 Build 0)  -->
<svg version="1.1" id="Laag_1" xmlns="http://www.w3.org/2000/svg" xmlns:xlink="http://www.w3.org/1999/xlink" x="0px" y="0px"
	 viewBox="0 0 259.7 555.4" style="enable-background:new 0 0 259.7 555.4;" xml:space="preserve">
<style type="text/css">
	.st0{fill:none;stroke:#517ABD;stroke-width:0.335;}
	.st1{fill:none;stroke:#FCBC05;}
	.st2{fill:#FCBC05;}
	.st3{font-family:'Roboto-Light';}
	.st4{font-size:8px;}
	.st5{font-family:'Roboto-Bold';}
	.st6{font-size:10px;}
	.st7{clip-path:url(#SVGID_2_);}
	.st8{fill:#517ABD;}
	.st9{font-family:'Roboto-Regular';}
	.st10{font-size:20px;}
	.st11{letter-spacing:-1;}
	.st12{fill:#E84435;}
	.st13{fill:#31A852;}
</style>
<rect x="2.2" y="2.5" class="st0" width="255.3" height="550.2"/>
<rect x="2" y="2.6" class="st1" width="255.3" height="550.3"/>
<line class="st1" x1="1.8" y1="37.6" x2="257.4" y2="37.6"/>
<line class="st1" x1="1.8" y1="92.1" x2="257.4" y2="92.1"/>
<line class="st1" x1="1.8" y1="530.1" x2="257.4" y2="530.1"/>
<line class="st1" x1="82.3" y1="92" x2="82.3" y2="530.1"/>
<line class="st1" x1="129.9" y1="37.5" x2="129.9" y2="92.1"/>
<path class="st2" d="M140.8,49.2h-0.5l-3.3-4.9v4.9h-0.5v-5.7h0.5l3.3,4.9v-4.9h0.5V49.2z M144.8,49.2c0-0.1-0.1-0.3-0.1-0.6
	c-0.2,0.2-0.4,0.4-0.6,0.5s-0.5,0.2-0.8,0.2c-0.4,0-0.7-0.1-1-0.3c-0.3-0.2-0.4-0.5-0.4-0.9c0-0.4,0.2-0.7,0.5-1
	c0.3-0.2,0.8-0.4,1.4-0.4h0.8v-0.5c0-0.3-0.1-0.5-0.3-0.7c-0.2-0.2-0.5-0.3-0.8-0.3c-0.3,0-0.6,0.1-0.8,0.2
	c-0.2,0.2-0.3,0.4-0.3,0.6l-0.5,0c0-0.3,0.2-0.6,0.5-0.9s0.7-0.4,1.2-0.4c0.5,0,0.8,0.1,1.1,0.4c0.3,0.2,0.4,0.6,0.4,1v2
	c0,0.4,0,0.7,0.1,0.9v0H144.8z M143.3,48.8c0.3,0,0.6-0.1,0.8-0.2c0.2-0.2,0.4-0.4,0.5-0.6v-0.9h-0.8c-0.5,0-0.8,0.1-1.1,0.3
	c-0.3,0.2-0.4,0.4-0.4,0.7c0,0.2,0.1,0.4,0.3,0.6S143,48.8,143.3,48.8z M146.8,44.9l0,0.7c0.2-0.3,0.4-0.4,0.6-0.6
	c0.2-0.1,0.5-0.2,0.8-0.2c0.7,0,1.1,0.3,1.3,0.8c0.2-0.3,0.4-0.5,0.6-0.6c0.3-0.1,0.5-0.2,0.8-0.2c0.9,0,1.4,0.5,1.4,1.5v2.8h-0.5
	v-2.8c0-0.4-0.1-0.7-0.2-0.8c-0.2-0.2-0.4-0.3-0.8-0.3c-0.3,0-0.6,0.1-0.9,0.3c-0.2,0.2-0.4,0.5-0.4,0.8v2.8h-0.5v-2.8
	c0-0.4-0.1-0.6-0.3-0.8c-0.2-0.2-0.4-0.3-0.8-0.3c-0.3,0-0.5,0.1-0.8,0.3s-0.4,0.4-0.5,0.7v2.9h-0.5v-4.2H146.8z M156.6,48.5
	c-0.3,0.5-0.8,0.7-1.5,0.7c-0.4,0-0.7-0.1-1-0.3c-0.3-0.2-0.5-0.4-0.7-0.7c-0.2-0.3-0.2-0.7-0.2-1.1V47c0-0.4,0.1-0.8,0.2-1.1
	c0.2-0.3,0.4-0.6,0.7-0.8c0.3-0.2,0.6-0.3,0.9-0.3c0.5,0,0.9,0.2,1.2,0.5c0.3,0.4,0.5,0.8,0.5,1.4v0.3h-3v0.1c0,0.5,0.1,0.9,0.4,1.2
	c0.3,0.3,0.6,0.5,1,0.5c0.2,0,0.5,0,0.7-0.1c0.2-0.1,0.4-0.2,0.5-0.4L156.6,48.5L156.6,48.5z M155,45.2c-0.4,0-0.6,0.1-0.9,0.4
	c-0.2,0.3-0.4,0.6-0.4,1h2.5v-0.1c0-0.4-0.1-0.7-0.3-1C155.7,45.4,155.4,45.2,155,45.2z M162.2,49.2c0-0.1-0.1-0.3-0.1-0.6
	c-0.2,0.2-0.4,0.4-0.6,0.5s-0.5,0.2-0.8,0.2c-0.4,0-0.7-0.1-1-0.3c-0.3-0.2-0.4-0.5-0.4-0.9c0-0.4,0.2-0.7,0.5-1
	c0.3-0.2,0.8-0.4,1.4-0.4h0.8v-0.5c0-0.3-0.1-0.5-0.3-0.7c-0.2-0.2-0.5-0.3-0.8-0.3c-0.3,0-0.6,0.1-0.8,0.2
	c-0.2,0.2-0.3,0.4-0.3,0.6l-0.5,0c0-0.3,0.2-0.6,0.5-0.9s0.7-0.4,1.2-0.4c0.5,0,0.8,0.1,1.1,0.4c0.3,0.2,0.4,0.6,0.4,1v2
	c0,0.4,0,0.7,0.1,0.9v0H162.2z M160.8,48.8c0.3,0,0.6-0.1,0.8-0.2c0.2-0.2,0.4-0.4,0.5-0.6v-0.9h-0.8c-0.5,0-0.8,0.1-1.1,0.3
	c-0.3,0.2-0.4,0.4-0.4,0.7c0,0.2,0.1,0.4,0.3,0.6S160.5,48.8,160.8,48.8z M164.3,44.9l0,0.7c0.2-0.3,0.4-0.5,0.6-0.6
	c0.2-0.1,0.5-0.2,0.8-0.2c0.5,0,0.8,0.1,1,0.4c0.2,0.3,0.3,0.6,0.3,1.1v2.8h-0.5v-2.8c0-0.4-0.1-0.7-0.2-0.8
	c-0.2-0.2-0.4-0.3-0.8-0.3c-0.3,0-0.5,0.1-0.8,0.3c-0.2,0.2-0.4,0.4-0.5,0.7v2.9h-0.5v-4.2H164.3z M168.1,47c0-0.7,0.1-1.2,0.4-1.6
	c0.3-0.4,0.7-0.6,1.2-0.6c0.6,0,1,0.2,1.3,0.7v-2.4h0.5v6H171l0-0.6c-0.3,0.4-0.7,0.6-1.3,0.6c-0.5,0-0.9-0.2-1.2-0.6
	C168.2,48.2,168.1,47.7,168.1,47L168.1,47z M168.5,47.1c0,0.5,0.1,1,0.3,1.3c0.2,0.3,0.5,0.5,0.9,0.5c0.6,0,1-0.3,1.2-0.8v-2
	c-0.2-0.5-0.6-0.8-1.2-0.8c-0.4,0-0.7,0.2-0.9,0.5S168.5,46.5,168.5,47.1z M174.9,49.2v-3.8h-0.7v-0.4h0.7v-0.4c0-0.5,0.1-0.8,0.4-1
	c0.2-0.2,0.6-0.4,1-0.4c0.3,0,0.7,0.1,1.1,0.2l-0.1,0.4c-0.3-0.1-0.6-0.2-1-0.2c-0.6,0-1,0.3-1,1v0.4h1v0.4h-1v3.8H174.9z
	 M177.7,49.2h-0.5v-4.2h0.5V49.2z M180.9,45.3c-0.1,0-0.2,0-0.3,0c-0.3,0-0.5,0.1-0.7,0.2c-0.2,0.2-0.3,0.4-0.4,0.7v2.9h-0.5v-4.2
	h0.5l0,0.7c0.2-0.5,0.6-0.8,1.2-0.8c0.1,0,0.2,0,0.3,0.1L180.9,45.3z M184.2,48.1c0-0.2-0.1-0.4-0.3-0.6c-0.2-0.1-0.5-0.3-0.8-0.3
	c-0.4-0.1-0.7-0.2-0.9-0.3c-0.2-0.1-0.4-0.2-0.5-0.4c-0.1-0.1-0.2-0.3-0.2-0.5c0-0.3,0.1-0.6,0.4-0.8c0.3-0.2,0.6-0.3,1.1-0.3
	c0.5,0,0.8,0.1,1.1,0.3c0.3,0.2,0.4,0.5,0.4,0.9h-0.5c0-0.2-0.1-0.5-0.3-0.6s-0.5-0.2-0.8-0.2c-0.3,0-0.6,0.1-0.7,0.2
	c-0.2,0.1-0.3,0.3-0.3,0.5c0,0.2,0.1,0.4,0.2,0.5c0.2,0.1,0.4,0.2,0.8,0.3c0.4,0.1,0.7,0.2,0.9,0.3c0.2,0.1,0.4,0.2,0.5,0.4
	c0.1,0.2,0.1,0.3,0.1,0.6c0,0.4-0.1,0.6-0.4,0.9c-0.3,0.2-0.7,0.3-1.1,0.3c-0.5,0-0.9-0.1-1.2-0.4c-0.3-0.2-0.5-0.5-0.5-0.9h0.5
	c0,0.3,0.1,0.5,0.3,0.6c0.2,0.2,0.5,0.2,0.8,0.2c0.3,0,0.6-0.1,0.8-0.2C184.1,48.5,184.2,48.3,184.2,48.1z M186.4,43.8v1.1h0.9v0.4
	h-0.9v2.8c0,0.2,0,0.4,0.1,0.5c0.1,0.1,0.2,0.2,0.4,0.2c0.1,0,0.2,0,0.4,0l0,0.4c-0.1,0-0.3,0.1-0.5,0.1c-0.3,0-0.6-0.1-0.7-0.3
	c-0.1-0.2-0.2-0.5-0.2-0.8v-2.8h-0.8v-0.4h0.8v-1.1H186.4z M190.6,44.9l0,0.7c0.2-0.3,0.4-0.5,0.6-0.6c0.2-0.1,0.5-0.2,0.8-0.2
	c0.5,0,0.8,0.1,1,0.4c0.2,0.3,0.3,0.6,0.3,1.1v2.8h-0.5v-2.8c0-0.4-0.1-0.7-0.2-0.8c-0.2-0.2-0.4-0.3-0.8-0.3
	c-0.3,0-0.5,0.1-0.8,0.3c-0.2,0.2-0.4,0.4-0.5,0.7v2.9h-0.5v-4.2H190.6z M197.2,49.2c0-0.1-0.1-0.3-0.1-0.6
	c-0.2,0.2-0.4,0.4-0.6,0.5s-0.5,0.2-0.8,0.2c-0.4,0-0.7-0.1-1-0.3c-0.3-0.2-0.4-0.5-0.4-0.9c0-0.4,0.2-0.7,0.5-1
	c0.3-0.2,0.8-0.4,1.4-0.4h0.8v-0.5c0-0.3-0.1-0.5-0.3-0.7c-0.2-0.2-0.5-0.3-0.8-0.3c-0.3,0-0.6,0.1-0.8,0.2
	c-0.2,0.2-0.3,0.4-0.3,0.6l-0.5,0c0-0.3,0.2-0.6,0.5-0.9s0.7-0.4,1.2-0.4c0.5,0,0.8,0.1,1.1,0.4c0.3,0.2,0.4,0.6,0.4,1v2
	c0,0.4,0,0.7,0.1,0.9v0H197.2z M195.8,48.8c0.3,0,0.6-0.1,0.8-0.2c0.2-0.2,0.4-0.4,0.5-0.6v-0.9h-0.8c-0.5,0-0.8,0.1-1.1,0.3
	c-0.3,0.2-0.4,0.4-0.4,0.7c0,0.2,0.1,0.4,0.3,0.6S195.5,48.8,195.8,48.8z M199.3,44.9l0,0.7c0.2-0.3,0.4-0.4,0.6-0.6
	c0.2-0.1,0.5-0.2,0.8-0.2c0.7,0,1.1,0.3,1.3,0.8c0.2-0.3,0.4-0.5,0.6-0.6c0.3-0.1,0.5-0.2,0.8-0.2c0.9,0,1.4,0.5,1.4,1.5v2.8h-0.5
	v-2.8c0-0.4-0.1-0.7-0.2-0.8c-0.2-0.2-0.4-0.3-0.8-0.3c-0.3,0-0.6,0.1-0.9,0.3c-0.2,0.2-0.4,0.5-0.4,0.8v2.8h-0.5v-2.8
	c0-0.4-0.1-0.6-0.3-0.8c-0.2-0.2-0.4-0.3-0.8-0.3c-0.3,0-0.5,0.1-0.8,0.3s-0.4,0.4-0.5,0.7v2.9h-0.5v-4.2H199.3z M209.1,48.5
	c-0.3,0.5-0.8,0.7-1.5,0.7c-0.4,0-0.7-0.1-1-0.3c-0.3-0.2-0.5-0.4-0.7-0.7c-0.2-0.3-0.2-0.7-0.2-1.1V47c0-0.4,0.1-0.8,0.2-1.1
	c0.2-0.3,0.4-0.6,0.7-0.8c0.3-0.2,0.6-0.3,0.9-0.3c0.5,0,0.9,0.2,1.2,0.5c0.3,0.4,0.5,0.8,0.5,1.4v0.3h-3v0.1c0,0.5,0.1,0.9,0.4,1.2
	c0.3,0.3,0.6,0.5,1,0.5c0.2,0,0.5,0,0.7-0.1c0.2-0.1,0.4-0.2,0.5-0.4L209.1,48.5L209.1,48.5z M207.5,45.2c-0.4,0-0.6,0.1-0.9,0.4
	c-0.2,0.3-0.4,0.6-0.4,1h2.5v-0.1c0-0.4-0.1-0.7-0.3-1C208.1,45.4,207.9,45.2,207.5,45.2z M211.8,47c0-0.4,0.1-0.8,0.2-1.1
	c0.2-0.3,0.4-0.6,0.7-0.8c0.3-0.2,0.6-0.3,1-0.3c0.6,0,1,0.2,1.4,0.6c0.3,0.4,0.5,0.9,0.5,1.6v0.1c0,0.4-0.1,0.8-0.2,1.1
	c-0.2,0.3-0.4,0.6-0.7,0.8c-0.3,0.2-0.6,0.3-1,0.3c-0.6,0-1-0.2-1.4-0.6C211.9,48.2,211.8,47.7,211.8,47L211.8,47z M212.2,47.1
	c0,0.5,0.1,0.9,0.4,1.2s0.6,0.5,1,0.5c0.4,0,0.8-0.2,1-0.5s0.4-0.8,0.4-1.3V47c0-0.3-0.1-0.6-0.2-0.9c-0.1-0.3-0.3-0.5-0.5-0.6
	c-0.2-0.1-0.5-0.2-0.7-0.2c-0.4,0-0.8,0.2-1,0.5C212.4,46.1,212.2,46.5,212.2,47.1L212.2,47.1z M216.8,49.2v-3.8h-0.7v-0.4h0.7v-0.5
	c0-0.4,0.1-0.8,0.3-1c0.2-0.2,0.5-0.3,0.9-0.3c0.2,0,0.3,0,0.5,0.1l0,0.4c-0.1,0-0.3,0-0.4,0c-0.3,0-0.5,0.1-0.6,0.2
	c-0.1,0.2-0.2,0.4-0.2,0.7v0.5h1v0.4h-1v3.8H216.8z M221.8,43.8v1.1h0.9v0.4h-0.9v2.8c0,0.2,0,0.4,0.1,0.5c0.1,0.1,0.2,0.2,0.4,0.2
	c0.1,0,0.2,0,0.4,0l0,0.4c-0.1,0-0.3,0.1-0.5,0.1c-0.3,0-0.6-0.1-0.7-0.3c-0.1-0.2-0.2-0.5-0.2-0.8v-2.8h-0.8v-0.4h0.8v-1.1H221.8z
	 M224.1,45.6c0.2-0.3,0.4-0.4,0.6-0.6c0.2-0.1,0.5-0.2,0.8-0.2c0.5,0,0.8,0.1,1,0.4c0.2,0.3,0.3,0.6,0.3,1.1v2.8h-0.5v-2.8
	c0-0.4-0.1-0.7-0.2-0.8c-0.2-0.2-0.4-0.3-0.8-0.3c-0.3,0-0.5,0.1-0.8,0.3c-0.2,0.2-0.4,0.4-0.5,0.7v2.9h-0.5v-6h0.5V45.6z
	 M231.2,48.5c-0.3,0.5-0.8,0.7-1.5,0.7c-0.4,0-0.7-0.1-1-0.3c-0.3-0.2-0.5-0.4-0.7-0.7c-0.2-0.3-0.2-0.7-0.2-1.1V47
	c0-0.4,0.1-0.8,0.2-1.1c0.2-0.3,0.4-0.6,0.7-0.8c0.3-0.2,0.6-0.3,0.9-0.3c0.5,0,0.9,0.2,1.2,0.5c0.3,0.4,0.5,0.8,0.5,1.4v0.3h-3v0.1
	c0,0.5,0.1,0.9,0.4,1.2c0.3,0.3,0.6,0.5,1,0.5c0.2,0,0.5,0,0.7-0.1c0.2-0.1,0.4-0.2,0.5-0.4L231.2,48.5L231.2,48.5z M229.6,45.2
	c-0.4,0-0.6,0.1-0.9,0.4c-0.2,0.3-0.4,0.6-0.4,1h2.5v-0.1c0-0.4-0.1-0.7-0.3-1C230.3,45.4,230,45.2,229.6,45.2z"/>
<text transform="matrix(1 0 0 1 135.8193 58.7513)"><tspan x="0" y="0" class="st2 st3 st4">p</tspan><tspan x="4.4" y="0" class="st2 st3 st4">r</tspan><tspan x="7.1" y="0" class="st2 st3 st4">escriber:</tspan></text>
<text transform="matrix(1 0 0 1 135.8193 77.9515)"><tspan x="0" y="0" class="st2 st5 st4">DO</tspan><tspan x="10.7" y="0" class="st2 st5 st4">CT</tspan><tspan x="20.7" y="0" class="st2 st5 st4">OR GOOGLE</tspan></text>
<text transform="matrix(1 0 0 1 7.5234 104.0076)"><tspan x="0" y="0" class="st2 st3 st4">Rese</tspan><tspan x="17.4" y="0" class="st2 st3 st4">r</tspan><tspan x="20.1" y="0" class="st2 st3 st4">v</tspan><tspan x="23.9" y="0" class="st2 st3 st4">ed on the </tspan></text>
<text transform="matrix(1 0 0 1 7.5234 113.6072)" class="st2 st3 st4">packaging vignette</text>
<text transform="matrix(1 0 0 1 95.7255 545.1927)" class="st2 st3 st6">PRESCRIPTION</text>
<g>
	<defs>
		<rect id="SVGID_1_" x="13.5" y="42.3" width="104.3" height="44.9"/>
	</defs>
	<clipPath id="SVGID_2_">
		<use xlink:href="#SVGID_1_"  style="overflow:visible;"/>
	</clipPath>
	<g class="st7">
		<defs>
			<rect id="SVGID_3_" x="12.5" y="42.3" width="106.5" height="45.9"/>
		</defs>
		<clipPath id="SVGID_4_">
			<use xlink:href="#SVGID_3_"  style="overflow:visible;"/>
		</clipPath>
		<g style="clip-path:url(#SVGID_4_);">
			
				<image style="overflow:visible;" width="471" height="203" xlink:href="AC0D9B040AB034F4.png"  transform="matrix(0.2261 0 0 0.2261 12.452 42.2823)">
			</image>
		</g>
	</g>
</g>
<text transform="matrix(1 0 0 1 83.6113 25.0482)"><tspan x="0" y="0" class="st8 st9 st10">D</tspan><tspan x="13.1" y="0" class="st8 st9 st10 st11">r</tspan><tspan x="18.7" y="0" class="st8 st9 st10">. G</tspan></text>
<text transform="matrix(1 0 0 1 126.1333 25.0482)" class="st12 st9 st10">o</text>
<text transform="matrix(1 0 0 1 137.5332 25.0482)" class="st2 st9 st10">o</text>
<text transform="matrix(1 0 0 1 148.9335 25.0482)" class="st8 st9 st10">g</text>
<text transform="matrix(1 0 0 1 160.1538 25.0482)" class="st13 st9 st10">l</text>
<text transform="matrix(1 0 0 1 165.0136 25.0482)" class="st12 st9 st10">e</text>
<text transform="matrix(1 0 0 1 89.3569 106.6463)" class="st2 st5 st4">R /</text>
<text transform="matrix(1 0 0 1 89.3569 125.8465)" class="st2 st3 st4">When people look up complaints on the </text>
<text transform="matrix(1 0 0 1 89.3569 135.4466)"><tspan x="0" y="0" class="st2 st3 st4">internet, </tspan><tspan x="30.2" y="0" class="st2 st3 st4">y</tspan><tspan x="33.9" y="0" class="st2 st3 st4">ou quickly go f</tspan><tspan x="84.5" y="0" class="st2 st3 st4">r</tspan><tspan x="87.1" y="0" class="st2 st3 st4">om a normal </tspan></text>
<text transform="matrix(1 0 0 1 89.3569 145.0462)"><tspan x="0" y="0" class="st2 st3 st4">headache </tspan><tspan x="36.1" y="0" class="st2 st3 st4">t</tspan><tspan x="38.6" y="0" class="st2 st3 st4">o a b</tspan><tspan x="55.7" y="0" class="st2 st3 st4">r</tspan><tspan x="58.2" y="0" class="st2 st3 st4">ain tumo</tspan><tspan x="89.2" y="0" class="st2 st3 st4">r</tspan><tspan x="91.4" y="0" class="st2 st3 st4">. How</tspan><tspan x="111.4" y="0" class="st2 st3 st4">e</tspan><tspan x="115.5" y="0" class="st2 st3 st4">v</tspan><tspan x="119.3" y="0" class="st2 st3 st4">e</tspan><tspan x="123.5" y="0" class="st2 st3 st4">r</tspan><tspan x="125.7" y="0" class="st2 st3 st4">, the </tspan></text>
<text transform="matrix(1 0 0 1 89.3569 154.6468)"><tspan x="0" y="0" class="st2 st3 st4">chance is small that </tspan><tspan x="71.9" y="0" class="st2 st3 st4">y</tspan><tspan x="75.7" y="0" class="st2 st3 st4">our headache was </tspan></text>
<text transform="matrix(1 0 0 1 89.3569 164.2464)"><tspan x="0" y="0" class="st2 st3 st4">caused </tspan><tspan x="27.4" y="0" class="st2 st3 st4">b</tspan><tspan x="31.8" y="0" class="st2 st3 st4">y this. Con</tspan><tspan x="68.2" y="0" class="st2 st3 st4">v</tspan><tspan x="72.1" y="0" class="st2 st3 st4">ersel</tspan><tspan x="88.9" y="0" class="st2 st3 st4">y</tspan><tspan x="92.2" y="0" class="st2 st3 st4">, of course, </tspan></text>
<text transform="matrix(1 0 0 1 89.3569 173.846)"><tspan x="0" y="0" class="st2 st3 st4">acco</tspan><tspan x="17" y="0" class="st2 st3 st4">r</tspan><tspan x="19.6" y="0" class="st2 st3 st4">ding </tspan><tspan x="36.6" y="0" class="st2 st3 st4">t</tspan><tspan x="39.1" y="0" class="st2 st3 st4">o D</tspan><tspan x="50.8" y="0" class="st2 st3 st4">r</tspan><tspan x="53" y="0" class="st2 st3 st4">. </tspan><tspan x="56.9" y="0" class="st2 st3 st4">P</tspan><tspan x="61.8" y="0" class="st2 st3 st4">eleman. When patients </tspan></text>
<text transform="matrix(1 0 0 1 89.3569 183.4466)"><tspan x="0" y="0" class="st2 st3 st4">r</tspan><tspan x="2.6" y="0" class="st2 st3 st4">ecei</tspan><tspan x="16.8" y="0" class="st2 st3 st4">v</tspan><tspan x="20.6" y="0" class="st2 st3 st4">e a diagnosis that he or she does not </tspan></text>
<text transform="matrix(1 0 0 1 89.3569 193.0462)"><tspan x="0" y="0" class="st2 st3 st4">want </tspan><tspan x="19.2" y="0" class="st2 st3 st4">t</tspan><tspan x="21.7" y="0" class="st2 st3 st4">o </tspan><tspan x="28.2" y="0" class="st2 st3 st4">r</tspan><tspan x="30.8" y="0" class="st2 st3 st4">econcile, it is tempting </tspan><tspan x="110.7" y="0" class="st2 st3 st4">t</tspan><tspan x="113.2" y="0" class="st2 st3 st4">o come up </tspan></text>
<text transform="matrix(1 0 0 1 89.3569 202.6468)"><tspan x="0" y="0" class="st2 st3 st4">with a less serious diagnosis. How</tspan><tspan x="120.2" y="0" class="st2 st3 st4">e</tspan><tspan x="124.3" y="0" class="st2 st3 st4">v</tspan><tspan x="128.1" y="0" class="st2 st3 st4">e</tspan><tspan x="132.3" y="0" class="st2 st3 st4">r</tspan><tspan x="134.5" y="0" class="st2 st3 st4">, this </tspan></text>
<text transform="matrix(1 0 0 1 89.3569 212.2464)"><tspan x="0" y="0" class="st2 st3 st4">can cause false hope in the patient. Just li</tspan><tspan x="146.1" y="0" class="st2 st3 st4">k</tspan><tspan x="149.9" y="0" class="st2 st3 st4">e </tspan></text>
<path class="st2" d="M90.2,221.8V218h-0.7v-0.4h0.7v-0.4c0-0.5,0.1-0.8,0.4-1c0.2-0.2,0.6-0.4,1-0.4c0.3,0,0.7,0.1,1.1,0.2l-0.1,0.4
	c-0.3-0.1-0.6-0.2-1-0.2c-0.6,0-1,0.3-1,1v0.4h1v0.4h-1v3.8H90.2z M93,221.8h-0.5v-4.2H93V221.8z M94.7,217.6l0,0.7
	c0.2-0.3,0.4-0.5,0.6-0.6c0.2-0.1,0.5-0.2,0.8-0.2c0.5,0,0.8,0.1,1,0.4c0.2,0.3,0.3,0.6,0.3,1.1v2.8H97v-2.8c0-0.4-0.1-0.7-0.2-0.8
	c-0.2-0.2-0.4-0.3-0.8-0.3c-0.3,0-0.5,0.1-0.8,0.3c-0.2,0.2-0.4,0.4-0.5,0.7v2.9h-0.5v-4.2H94.7z M98.5,219.7c0-0.7,0.1-1.2,0.4-1.6
	c0.3-0.4,0.7-0.6,1.2-0.6c0.6,0,1,0.2,1.3,0.7v-2.4h0.5v6h-0.4l0-0.6c-0.3,0.4-0.7,0.6-1.3,0.6c-0.5,0-0.9-0.2-1.2-0.6
	C98.6,220.9,98.5,220.4,98.5,219.7L98.5,219.7z M98.9,219.8c0,0.5,0.1,1,0.3,1.3c0.2,0.3,0.5,0.5,0.9,0.5c0.6,0,1-0.3,1.2-0.8v-2
	c-0.2-0.5-0.6-0.8-1.2-0.8c-0.4,0-0.7,0.2-0.9,0.5S98.9,219.2,98.9,219.8z M103.1,216.4c0-0.1,0-0.2,0.1-0.2
	c0.1-0.1,0.1-0.1,0.2-0.1c0.1,0,0.2,0,0.2,0.1s0.1,0.1,0.1,0.2s0,0.2-0.1,0.2c-0.1,0.1-0.1,0.1-0.2,0.1c-0.1,0-0.2,0-0.2-0.1
	C103.1,216.6,103.1,216.5,103.1,216.4z M103.6,221.8h-0.5v-4.2h0.5V221.8z M105.3,217.6l0,0.7c0.2-0.3,0.4-0.5,0.6-0.6
	c0.2-0.1,0.5-0.2,0.8-0.2c0.5,0,0.8,0.1,1,0.4c0.2,0.3,0.3,0.6,0.3,1.1v2.8h-0.5v-2.8c0-0.4-0.1-0.7-0.2-0.8
	c-0.2-0.2-0.4-0.3-0.8-0.3c-0.3,0-0.5,0.1-0.8,0.3c-0.2,0.2-0.4,0.4-0.5,0.7v2.9h-0.5v-4.2H105.3z M109.1,219.7
	c0-0.7,0.1-1.2,0.4-1.6s0.7-0.6,1.2-0.6c0.6,0,1,0.2,1.3,0.7l0-0.6h0.4v4.1c0,0.5-0.2,1-0.5,1.3c-0.3,0.3-0.7,0.5-1.2,0.5
	c-0.3,0-0.6-0.1-0.8-0.2c-0.3-0.1-0.5-0.3-0.6-0.5l0.3-0.3c0.3,0.4,0.7,0.6,1.2,0.6c0.4,0,0.7-0.1,0.9-0.3s0.3-0.6,0.3-1v-0.5
	c-0.3,0.4-0.7,0.6-1.3,0.6c-0.5,0-0.9-0.2-1.2-0.6S109.1,220.4,109.1,219.7L109.1,219.7z M109.6,219.8c0,0.5,0.1,1,0.3,1.3
	c0.2,0.3,0.5,0.5,0.9,0.5c0.6,0,1-0.3,1.2-0.8v-2c-0.1-0.3-0.3-0.5-0.5-0.6c-0.2-0.1-0.5-0.2-0.7-0.2c-0.4,0-0.7,0.2-0.9,0.5
	S109.6,219.2,109.6,219.8z M118.8,221.2c-0.3,0.5-0.8,0.7-1.5,0.7c-0.4,0-0.7-0.1-1-0.3c-0.3-0.2-0.5-0.4-0.7-0.7
	c-0.2-0.3-0.2-0.7-0.2-1.1v-0.2c0-0.4,0.1-0.8,0.2-1.1c0.2-0.3,0.4-0.6,0.7-0.8c0.3-0.2,0.6-0.3,0.9-0.3c0.5,0,0.9,0.2,1.2,0.5
	c0.3,0.4,0.5,0.8,0.5,1.4v0.3h-3v0.1c0,0.5,0.1,0.9,0.4,1.2c0.3,0.3,0.6,0.5,1,0.5c0.2,0,0.5,0,0.7-0.1c0.2-0.1,0.4-0.2,0.5-0.4
	L118.8,221.2L118.8,221.2z M117.2,217.9c-0.4,0-0.6,0.1-0.9,0.4c-0.2,0.3-0.4,0.6-0.4,1h2.5v-0.1c0-0.4-0.1-0.7-0.3-1
	C117.9,218.1,117.6,217.9,117.2,217.9z M121.1,219.3l1.1-1.7h0.6l-1.4,2.1l1.5,2.2h-0.6l-1.2-1.8l-1.2,1.8h-0.6l1.5-2.2l-1.4-2.1
	h0.6L121.1,219.3z M127.1,219.8c0,0.7-0.1,1.2-0.4,1.6c-0.3,0.4-0.7,0.6-1.2,0.6c-0.6,0-1-0.2-1.3-0.6v2.2h-0.5v-5.9h0.4l0,0.6
	c0.3-0.5,0.7-0.7,1.3-0.7c0.5,0,0.9,0.2,1.2,0.6C126.9,218.5,127.1,219,127.1,219.8L127.1,219.8z M126.6,219.7c0-0.5-0.1-1-0.3-1.3
	c-0.2-0.3-0.5-0.5-0.9-0.5c-0.3,0-0.5,0.1-0.7,0.2c-0.2,0.1-0.4,0.3-0.5,0.6v2c0.1,0.2,0.3,0.4,0.5,0.6c0.2,0.1,0.5,0.2,0.7,0.2
	c0.4,0,0.7-0.2,0.9-0.5C126.5,220.7,126.6,220.3,126.6,219.7z M131.3,221.2c-0.3,0.5-0.8,0.7-1.5,0.7c-0.4,0-0.7-0.1-1-0.3
	c-0.3-0.2-0.5-0.4-0.7-0.7c-0.2-0.3-0.2-0.7-0.2-1.1v-0.2c0-0.4,0.1-0.8,0.2-1.1c0.2-0.3,0.4-0.6,0.7-0.8c0.3-0.2,0.6-0.3,0.9-0.3
	c0.5,0,0.9,0.2,1.2,0.5c0.3,0.4,0.5,0.8,0.5,1.4v0.3h-3v0.1c0,0.5,0.1,0.9,0.4,1.2c0.3,0.3,0.6,0.5,1,0.5c0.2,0,0.5,0,0.7-0.1
	c0.2-0.1,0.4-0.2,0.5-0.4L131.3,221.2L131.3,221.2z M129.7,217.9c-0.4,0-0.6,0.1-0.9,0.4c-0.2,0.3-0.4,0.6-0.4,1h2.5v-0.1
	c0-0.4-0.1-0.7-0.3-1C130.3,218.1,130,217.9,129.7,217.9z M132.7,217.6l0,0.7c0.2-0.3,0.4-0.5,0.6-0.6c0.2-0.1,0.5-0.2,0.8-0.2
	c0.5,0,0.8,0.1,1,0.4c0.2,0.3,0.3,0.6,0.3,1.1v2.8H135v-2.8c0-0.4-0.1-0.7-0.2-0.8c-0.2-0.2-0.4-0.3-0.8-0.3c-0.3,0-0.5,0.1-0.8,0.3
	c-0.2,0.2-0.4,0.4-0.5,0.7v2.9h-0.5v-4.2H132.7z M139.2,220.8c0-0.2-0.1-0.4-0.3-0.6c-0.2-0.1-0.5-0.3-0.8-0.3
	c-0.4-0.1-0.7-0.2-0.9-0.3c-0.2-0.1-0.4-0.2-0.5-0.4c-0.1-0.1-0.2-0.3-0.2-0.5c0-0.3,0.1-0.6,0.4-0.8c0.3-0.2,0.6-0.3,1.1-0.3
	c0.5,0,0.8,0.1,1.1,0.3c0.3,0.2,0.4,0.5,0.4,0.9h-0.5c0-0.2-0.1-0.5-0.3-0.6s-0.5-0.2-0.8-0.2c-0.3,0-0.6,0.1-0.7,0.2
	c-0.2,0.1-0.3,0.3-0.3,0.5c0,0.2,0.1,0.4,0.2,0.5c0.2,0.1,0.4,0.2,0.8,0.3c0.4,0.1,0.7,0.2,0.9,0.3c0.2,0.1,0.4,0.2,0.5,0.4
	c0.1,0.2,0.1,0.3,0.1,0.6c0,0.4-0.1,0.6-0.4,0.9c-0.3,0.2-0.7,0.3-1.1,0.3c-0.5,0-0.9-0.1-1.2-0.4c-0.3-0.2-0.5-0.5-0.5-0.9h0.5
	c0,0.3,0.1,0.5,0.3,0.6c0.2,0.2,0.5,0.2,0.8,0.2c0.3,0,0.6-0.1,0.8-0.2C139.1,221.2,139.2,221,139.2,220.8z M140.7,216.4
	c0-0.1,0-0.2,0.1-0.2c0.1-0.1,0.1-0.1,0.2-0.1c0.1,0,0.2,0,0.2,0.1s0.1,0.1,0.1,0.2s0,0.2-0.1,0.2c-0.1,0.1-0.1,0.1-0.2,0.1
	c-0.1,0-0.2,0-0.2-0.1C140.7,216.6,140.7,216.5,140.7,216.4z M141.2,221.8h-0.5v-4.2h0.5V221.8z M143.8,221.2l1.3-3.6h0.5l-1.6,4.2
	h-0.4l-1.6-4.2h0.5L143.8,221.2z M149.4,221.2c-0.3,0.5-0.8,0.7-1.5,0.7c-0.4,0-0.7-0.1-1-0.3c-0.3-0.2-0.5-0.4-0.7-0.7
	c-0.2-0.3-0.2-0.7-0.2-1.1v-0.2c0-0.4,0.1-0.8,0.2-1.1c0.2-0.3,0.4-0.6,0.7-0.8c0.3-0.2,0.6-0.3,0.9-0.3c0.5,0,0.9,0.2,1.2,0.5
	c0.3,0.4,0.5,0.8,0.5,1.4v0.3h-3v0.1c0,0.5,0.1,0.9,0.4,1.2c0.3,0.3,0.6,0.5,1,0.5c0.2,0,0.5,0,0.7-0.1c0.2-0.1,0.4-0.2,0.5-0.4
	L149.4,221.2L149.4,221.2z M147.8,217.9c-0.4,0-0.6,0.1-0.9,0.4c-0.2,0.3-0.4,0.6-0.4,1h2.5v-0.1c0-0.4-0.1-0.7-0.3-1
	C148.5,218.1,148.2,217.9,147.8,217.9z M153.1,216.5v1.1h0.9v0.4h-0.9v2.8c0,0.2,0,0.4,0.1,0.5c0.1,0.1,0.2,0.2,0.4,0.2
	c0.1,0,0.2,0,0.4,0l0,0.4c-0.1,0-0.3,0.1-0.5,0.1c-0.3,0-0.6-0.1-0.7-0.3c-0.1-0.2-0.2-0.5-0.2-0.8V218h-0.8v-0.4h0.8v-1.1H153.1z
	 M156.9,218c-0.1,0-0.2,0-0.3,0c-0.3,0-0.5,0.1-0.7,0.2c-0.2,0.2-0.3,0.4-0.4,0.7v2.9h-0.5v-4.2h0.5l0,0.7c0.2-0.5,0.6-0.8,1.2-0.8
	c0.1,0,0.2,0,0.3,0.1L156.9,218z M160.7,221.2c-0.3,0.5-0.8,0.7-1.5,0.7c-0.4,0-0.7-0.1-1-0.3c-0.3-0.2-0.5-0.4-0.7-0.7
	c-0.2-0.3-0.2-0.7-0.2-1.1v-0.2c0-0.4,0.1-0.8,0.2-1.1c0.2-0.3,0.4-0.6,0.7-0.8c0.3-0.2,0.6-0.3,0.9-0.3c0.5,0,0.9,0.2,1.2,0.5
	c0.3,0.4,0.5,0.8,0.5,1.4v0.3h-3v0.1c0,0.5,0.1,0.9,0.4,1.2c0.3,0.3,0.6,0.5,1,0.5c0.2,0,0.5,0,0.7-0.1c0.2-0.1,0.4-0.2,0.5-0.4
	L160.7,221.2L160.7,221.2z M159.1,217.9c-0.4,0-0.6,0.1-0.9,0.4c-0.2,0.3-0.4,0.6-0.4,1h2.5v-0.1c0-0.4-0.1-0.7-0.3-1
	C159.8,218.1,159.5,217.9,159.1,217.9z M164.4,221.8c0-0.1-0.1-0.3-0.1-0.6c-0.2,0.2-0.4,0.4-0.6,0.5s-0.5,0.2-0.8,0.2
	c-0.4,0-0.7-0.1-1-0.3c-0.3-0.2-0.4-0.5-0.4-0.9c0-0.4,0.2-0.7,0.5-1c0.3-0.2,0.8-0.4,1.4-0.4h0.8v-0.5c0-0.3-0.1-0.5-0.3-0.7
	c-0.2-0.2-0.5-0.3-0.8-0.3c-0.3,0-0.6,0.1-0.8,0.2c-0.2,0.2-0.3,0.4-0.3,0.6l-0.5,0c0-0.3,0.2-0.6,0.5-0.9s0.7-0.4,1.2-0.4
	c0.5,0,0.8,0.1,1.1,0.4c0.3,0.2,0.4,0.6,0.4,1v2c0,0.4,0,0.7,0.1,0.9v0H164.4z M162.9,221.5c0.3,0,0.6-0.1,0.8-0.2
	c0.2-0.2,0.4-0.4,0.5-0.6v-0.9h-0.8c-0.5,0-0.8,0.1-1.1,0.3c-0.3,0.2-0.4,0.4-0.4,0.7c0,0.2,0.1,0.4,0.3,0.6
	S162.6,221.5,162.9,221.5z M166.7,216.5v1.1h0.9v0.4h-0.9v2.8c0,0.2,0,0.4,0.1,0.5c0.1,0.1,0.2,0.2,0.4,0.2c0.1,0,0.2,0,0.4,0l0,0.4
	c-0.1,0-0.3,0.1-0.5,0.1c-0.3,0-0.6-0.1-0.7-0.3c-0.1-0.2-0.2-0.5-0.2-0.8V218h-0.8v-0.4h0.8v-1.1H166.7z M169,217.6l0,0.7
	c0.2-0.3,0.4-0.4,0.6-0.6c0.2-0.1,0.5-0.2,0.8-0.2c0.7,0,1.1,0.3,1.3,0.8c0.2-0.3,0.4-0.5,0.6-0.6c0.3-0.1,0.5-0.2,0.8-0.2
	c0.9,0,1.4,0.5,1.4,1.5v2.8H174v-2.8c0-0.4-0.1-0.7-0.2-0.8c-0.2-0.2-0.4-0.3-0.8-0.3c-0.3,0-0.6,0.1-0.9,0.3
	c-0.2,0.2-0.4,0.5-0.4,0.8v2.8h-0.5V219c0-0.4-0.1-0.6-0.3-0.8c-0.2-0.2-0.4-0.3-0.8-0.3c-0.3,0-0.5,0.1-0.8,0.3s-0.4,0.4-0.5,0.7
	v2.9h-0.5v-4.2H169z M178.8,221.2c-0.3,0.5-0.8,0.7-1.5,0.7c-0.4,0-0.7-0.1-1-0.3c-0.3-0.2-0.5-0.4-0.7-0.7
	c-0.2-0.3-0.2-0.7-0.2-1.1v-0.2c0-0.4,0.1-0.8,0.2-1.1c0.2-0.3,0.4-0.6,0.7-0.8c0.3-0.2,0.6-0.3,0.9-0.3c0.5,0,0.9,0.2,1.2,0.5
	c0.3,0.4,0.5,0.8,0.5,1.4v0.3h-3v0.1c0,0.5,0.1,0.9,0.4,1.2c0.3,0.3,0.6,0.5,1,0.5c0.2,0,0.5,0,0.7-0.1c0.2-0.1,0.4-0.2,0.5-0.4
	L178.8,221.2L178.8,221.2z M177.2,217.9c-0.4,0-0.6,0.1-0.9,0.4c-0.2,0.3-0.4,0.6-0.4,1h2.5v-0.1c0-0.4-0.1-0.7-0.3-1
	C177.8,218.1,177.5,217.9,177.2,217.9z M180.2,217.6l0,0.7c0.2-0.3,0.4-0.5,0.6-0.6c0.2-0.1,0.5-0.2,0.8-0.2c0.5,0,0.8,0.1,1,0.4
	c0.2,0.3,0.3,0.6,0.3,1.1v2.8h-0.5v-2.8c0-0.4-0.1-0.7-0.2-0.8c-0.2-0.2-0.4-0.3-0.8-0.3c-0.3,0-0.5,0.1-0.8,0.3
	c-0.2,0.2-0.4,0.4-0.5,0.7v2.9h-0.5v-4.2H180.2z M184.9,216.5v1.1h0.9v0.4h-0.9v2.8c0,0.2,0,0.4,0.1,0.5c0.1,0.1,0.2,0.2,0.4,0.2
	c0.1,0,0.2,0,0.4,0l0,0.4c-0.1,0-0.3,0.1-0.5,0.1c-0.3,0-0.6-0.1-0.7-0.3c-0.1-0.2-0.2-0.5-0.2-0.8V218h-0.8v-0.4h0.8v-1.1H184.9z
	 M189.3,220.8c0-0.2-0.1-0.4-0.3-0.6c-0.2-0.1-0.5-0.3-0.8-0.3c-0.4-0.1-0.7-0.2-0.9-0.3c-0.2-0.1-0.4-0.2-0.5-0.4
	c-0.1-0.1-0.2-0.3-0.2-0.5c0-0.3,0.1-0.6,0.4-0.8c0.3-0.2,0.6-0.3,1.1-0.3c0.5,0,0.8,0.1,1.1,0.3c0.3,0.2,0.4,0.5,0.4,0.9h-0.5
	c0-0.2-0.1-0.5-0.3-0.6s-0.5-0.2-0.8-0.2c-0.3,0-0.6,0.1-0.7,0.2c-0.2,0.1-0.3,0.3-0.3,0.5c0,0.2,0.1,0.4,0.2,0.5
	c0.2,0.1,0.4,0.2,0.8,0.3c0.4,0.1,0.7,0.2,0.9,0.3c0.2,0.1,0.4,0.2,0.5,0.4c0.1,0.2,0.1,0.3,0.1,0.6c0,0.4-0.1,0.6-0.4,0.9
	c-0.3,0.2-0.7,0.3-1.1,0.3c-0.5,0-0.9-0.1-1.2-0.4c-0.3-0.2-0.5-0.5-0.5-0.9h0.5c0,0.3,0.1,0.5,0.3,0.6c0.2,0.2,0.5,0.2,0.8,0.2
	c0.3,0,0.6-0.1,0.8-0.2C189.2,221.2,189.3,221,189.3,220.8z M195.4,221.8c0-0.1-0.1-0.3-0.1-0.6c-0.2,0.2-0.4,0.4-0.6,0.5
	s-0.5,0.2-0.8,0.2c-0.4,0-0.7-0.1-1-0.3c-0.3-0.2-0.4-0.5-0.4-0.9c0-0.4,0.2-0.7,0.5-1c0.3-0.2,0.8-0.4,1.4-0.4h0.8v-0.5
	c0-0.3-0.1-0.5-0.3-0.7c-0.2-0.2-0.5-0.3-0.8-0.3c-0.3,0-0.6,0.1-0.8,0.2c-0.2,0.2-0.3,0.4-0.3,0.6l-0.5,0c0-0.3,0.2-0.6,0.5-0.9
	s0.7-0.4,1.2-0.4c0.5,0,0.8,0.1,1.1,0.4c0.3,0.2,0.4,0.6,0.4,1v2c0,0.4,0,0.7,0.1,0.9v0H195.4z M193.9,221.5c0.3,0,0.6-0.1,0.8-0.2
	c0.2-0.2,0.4-0.4,0.5-0.6v-0.9h-0.8c-0.5,0-0.8,0.1-1.1,0.3c-0.3,0.2-0.4,0.4-0.4,0.7c0,0.2,0.1,0.4,0.3,0.6
	S193.6,221.5,193.9,221.5z M200.4,219.8c0,0.7-0.1,1.2-0.4,1.6c-0.3,0.4-0.7,0.6-1.2,0.6c-0.6,0-1-0.2-1.3-0.7l0,0.6H197v-6h0.5v2.4
	c0.3-0.5,0.7-0.7,1.3-0.7c0.5,0,0.9,0.2,1.2,0.6C200.3,218.5,200.4,219,200.4,219.8L200.4,219.8z M200,219.7c0-0.6-0.1-1-0.3-1.3
	c-0.2-0.3-0.5-0.5-0.9-0.5c-0.3,0-0.6,0.1-0.8,0.2c-0.2,0.1-0.4,0.4-0.5,0.6v1.9c0.2,0.5,0.6,0.8,1.2,0.8c0.4,0,0.7-0.2,0.9-0.5
	C199.8,220.8,200,220.3,200,219.7z M203.4,218c-0.1,0-0.2,0-0.3,0c-0.3,0-0.5,0.1-0.7,0.2c-0.2,0.2-0.3,0.4-0.4,0.7v2.9h-0.5v-4.2
	h0.5l0,0.7c0.2-0.5,0.6-0.8,1.2-0.8c0.1,0,0.2,0,0.3,0.1L203.4,218z M203.8,219.7c0-0.4,0.1-0.8,0.2-1.1c0.2-0.3,0.4-0.6,0.7-0.8
	c0.3-0.2,0.6-0.3,1-0.3c0.6,0,1,0.2,1.4,0.6c0.3,0.4,0.5,0.9,0.5,1.6v0.1c0,0.4-0.1,0.8-0.2,1.1c-0.2,0.3-0.4,0.6-0.7,0.8
	c-0.3,0.2-0.6,0.3-1,0.3c-0.6,0-1-0.2-1.4-0.6C204,220.9,203.8,220.4,203.8,219.7L203.8,219.7z M204.3,219.8c0,0.5,0.1,0.9,0.4,1.2
	s0.6,0.5,1,0.5c0.4,0,0.8-0.2,1-0.5s0.4-0.8,0.4-1.3v-0.1c0-0.3-0.1-0.6-0.2-0.9c-0.1-0.3-0.3-0.5-0.5-0.6c-0.2-0.1-0.5-0.2-0.7-0.2
	c-0.4,0-0.8,0.2-1,0.5C204.4,218.8,204.3,219.2,204.3,219.8L204.3,219.8z M211.2,221.8c0-0.1-0.1-0.3-0.1-0.6
	c-0.2,0.2-0.4,0.4-0.6,0.5s-0.5,0.2-0.8,0.2c-0.4,0-0.7-0.1-1-0.3c-0.3-0.2-0.4-0.5-0.4-0.9c0-0.4,0.2-0.7,0.5-1
	c0.3-0.2,0.8-0.4,1.4-0.4h0.8v-0.5c0-0.3-0.1-0.5-0.3-0.7c-0.2-0.2-0.5-0.3-0.8-0.3c-0.3,0-0.6,0.1-0.8,0.2
	c-0.2,0.2-0.3,0.4-0.3,0.6l-0.5,0c0-0.3,0.2-0.6,0.5-0.9s0.7-0.4,1.2-0.4c0.5,0,0.8,0.1,1.1,0.4c0.3,0.2,0.4,0.6,0.4,1v2
	c0,0.4,0,0.7,0.1,0.9v0H211.2z M209.7,221.5c0.3,0,0.6-0.1,0.8-0.2c0.2-0.2,0.4-0.4,0.5-0.6v-0.9h-0.8c-0.5,0-0.8,0.1-1.1,0.3
	c-0.3,0.2-0.4,0.4-0.4,0.7c0,0.2,0.1,0.4,0.3,0.6S209.5,221.5,209.7,221.5z M212.6,219.7c0-0.7,0.1-1.2,0.4-1.6
	c0.3-0.4,0.7-0.6,1.2-0.6c0.6,0,1,0.2,1.3,0.7v-2.4h0.5v6h-0.4l0-0.6c-0.3,0.4-0.7,0.6-1.3,0.6c-0.5,0-0.9-0.2-1.2-0.6
	C212.8,220.9,212.6,220.4,212.6,219.7L212.6,219.7z M213.1,219.8c0,0.5,0.1,1,0.3,1.3c0.2,0.3,0.5,0.5,0.9,0.5c0.6,0,1-0.3,1.2-0.8
	v-2c-0.2-0.5-0.6-0.8-1.2-0.8c-0.4,0-0.7,0.2-0.9,0.5S213.1,219.2,213.1,219.8z M220,216.5v1.1h0.9v0.4H220v2.8c0,0.2,0,0.4,0.1,0.5
	c0.1,0.1,0.2,0.2,0.4,0.2c0.1,0,0.2,0,0.4,0l0,0.4c-0.1,0-0.3,0.1-0.5,0.1c-0.3,0-0.6-0.1-0.7-0.3c-0.1-0.2-0.2-0.5-0.2-0.8V218
	h-0.8v-0.4h0.8v-1.1H220z M222.3,218.3c0.2-0.3,0.4-0.4,0.6-0.6c0.2-0.1,0.5-0.2,0.8-0.2c0.5,0,0.8,0.1,1,0.4
	c0.2,0.3,0.3,0.6,0.3,1.1v2.8h-0.5v-2.8c0-0.4-0.1-0.7-0.2-0.8c-0.2-0.2-0.4-0.3-0.8-0.3c-0.3,0-0.5,0.1-0.8,0.3
	c-0.2,0.2-0.4,0.4-0.5,0.7v2.9h-0.5v-6h0.5V218.3z M228.9,221.8c0-0.1-0.1-0.3-0.1-0.6c-0.2,0.2-0.4,0.4-0.6,0.5s-0.5,0.2-0.8,0.2
	c-0.4,0-0.7-0.1-1-0.3c-0.3-0.2-0.4-0.5-0.4-0.9c0-0.4,0.2-0.7,0.5-1c0.3-0.2,0.8-0.4,1.4-0.4h0.8v-0.5c0-0.3-0.1-0.5-0.3-0.7
	c-0.2-0.2-0.5-0.3-0.8-0.3c-0.3,0-0.6,0.1-0.8,0.2c-0.2,0.2-0.3,0.4-0.3,0.6l-0.5,0c0-0.3,0.2-0.6,0.5-0.9s0.7-0.4,1.2-0.4
	c0.5,0,0.8,0.1,1.1,0.4c0.3,0.2,0.4,0.6,0.4,1v2c0,0.4,0,0.7,0.1,0.9v0H228.9z M227.4,221.5c0.3,0,0.6-0.1,0.8-0.2
	c0.2-0.2,0.4-0.4,0.5-0.6v-0.9h-0.8c-0.5,0-0.8,0.1-1.1,0.3c-0.3,0.2-0.4,0.4-0.4,0.7c0,0.2,0.1,0.4,0.3,0.6
	S227.1,221.5,227.4,221.5z M231.2,216.5v1.1h0.9v0.4h-0.9v2.8c0,0.2,0,0.4,0.1,0.5c0.1,0.1,0.2,0.2,0.4,0.2c0.1,0,0.2,0,0.4,0l0,0.4
	c-0.1,0-0.3,0.1-0.5,0.1c-0.3,0-0.6-0.1-0.7-0.3c-0.1-0.2-0.2-0.5-0.2-0.8V218H230v-0.4h0.8v-1.1H231.2z M237.7,221.8
	c0-0.1-0.1-0.3-0.1-0.6c-0.2,0.2-0.4,0.4-0.6,0.5s-0.5,0.2-0.8,0.2c-0.4,0-0.7-0.1-1-0.3c-0.3-0.2-0.4-0.5-0.4-0.9
	c0-0.4,0.2-0.7,0.5-1c0.3-0.2,0.8-0.4,1.4-0.4h0.8v-0.5c0-0.3-0.1-0.5-0.3-0.7c-0.2-0.2-0.5-0.3-0.8-0.3c-0.3,0-0.6,0.1-0.8,0.2
	c-0.2,0.2-0.3,0.4-0.3,0.6l-0.5,0c0-0.3,0.2-0.6,0.5-0.9s0.7-0.4,1.2-0.4c0.5,0,0.8,0.1,1.1,0.4c0.3,0.2,0.4,0.6,0.4,1v2
	c0,0.4,0,0.7,0.1,0.9v0H237.7z M236.2,221.5c0.3,0,0.6-0.1,0.8-0.2c0.2-0.2,0.4-0.4,0.5-0.6v-0.9h-0.8c-0.5,0-0.8,0.1-1.1,0.3
	c-0.3,0.2-0.4,0.4-0.4,0.7c0,0.2,0.1,0.4,0.3,0.6S235.9,221.5,236.2,221.5z M241.2,218c-0.1,0-0.2,0-0.3,0c-0.3,0-0.5,0.1-0.7,0.2
	c-0.2,0.2-0.3,0.4-0.4,0.7v2.9h-0.5v-4.2h0.5l0,0.7c0.2-0.5,0.6-0.8,1.2-0.8c0.1,0,0.2,0,0.3,0.1L241.2,218z M245,221.2
	c-0.3,0.5-0.8,0.7-1.5,0.7c-0.4,0-0.7-0.1-1-0.3c-0.3-0.2-0.5-0.4-0.7-0.7c-0.2-0.3-0.2-0.7-0.2-1.1v-0.2c0-0.4,0.1-0.8,0.2-1.1
	c0.2-0.3,0.4-0.6,0.7-0.8c0.3-0.2,0.6-0.3,0.9-0.3c0.5,0,0.9,0.2,1.2,0.5c0.3,0.4,0.5,0.8,0.5,1.4v0.3h-3v0.1c0,0.5,0.1,0.9,0.4,1.2
	c0.3,0.3,0.6,0.5,1,0.5c0.2,0,0.5,0,0.7-0.1c0.2-0.1,0.4-0.2,0.5-0.4L245,221.2L245,221.2z M243.4,217.9c-0.4,0-0.6,0.1-0.9,0.4
	c-0.2,0.3-0.4,0.6-0.4,1h2.5v-0.1c0-0.4-0.1-0.7-0.3-1C244.1,218.1,243.8,217.9,243.4,217.9z"/>
<text transform="matrix(1 0 0 1 89.3569 231.4466)"><tspan x="0" y="0" class="st2 st3 st4">actually unachi</tspan><tspan x="52.4" y="0" class="st2 st3 st4">e</tspan><tspan x="56.5" y="0" class="st2 st3 st4">v</tspan><tspan x="60.3" y="0" class="st2 st3 st4">able.</tspan></text>
<text transform="matrix(1 0 0 1 89.3569 250.6468)"><tspan x="0" y="0" class="st2 st3 st4">App</tspan><tspan x="13.9" y="0" class="st2 st3 st4">r</tspan><tspan x="16.5" y="0" class="st2 st3 st4">o</tspan><tspan x="20.9" y="0" class="st2 st3 st4">ximately 75% of people acqui</tspan><tspan x="122.4" y="0" class="st2 st3 st4">r</tspan><tspan x="125" y="0" class="st2 st3 st4">e</tspan></text>
<text transform="matrix(1 0 0 1 89.3569 260.2464)"><tspan x="0" y="0" class="st2 st3 st4">about health th</tspan><tspan x="52.6" y="0" class="st2 st3 st4">r</tspan><tspan x="55.2" y="0" class="st2 st3 st4">ough the media.</tspan><tspan x="111.5" y="0" class="st2 st3 st4"> </tspan><tspan x="113.3" y="0" class="st2 st3 st4">The</tspan><tspan x="126.6" y="0" class="st2 st3 st4">r</tspan><tspan x="129.2" y="0" class="st2 st3 st4">e is not </tspan></text>
<text transform="matrix(1 0 0 1 89.3569 269.846)"><tspan x="0" y="0" class="st2 st3 st4">only </tspan><tspan x="16.4" y="0" class="st2 st3 st4">v</tspan><tspan x="20.2" y="0" class="st2 st3 st4">e</tspan><tspan x="24.4" y="0" class="st2 st3 st4">r</tspan><tspan x="27.1" y="0" class="st2 st3 st4">y useful information about medical </tspan></text>
<path class="st2" d="M92.6,279.4c0-0.1-0.1-0.3-0.1-0.6c-0.2,0.2-0.4,0.4-0.6,0.5s-0.5,0.2-0.8,0.2c-0.4,0-0.7-0.1-1-0.3
	c-0.3-0.2-0.4-0.5-0.4-0.9c0-0.4,0.2-0.7,0.5-1c0.3-0.2,0.8-0.4,1.4-0.4h0.8v-0.5c0-0.3-0.1-0.5-0.3-0.7c-0.2-0.2-0.5-0.3-0.8-0.3
	c-0.3,0-0.6,0.1-0.8,0.2c-0.2,0.2-0.3,0.4-0.3,0.6l-0.5,0c0-0.3,0.2-0.6,0.5-0.9s0.7-0.4,1.2-0.4c0.5,0,0.8,0.1,1.1,0.4
	c0.3,0.2,0.4,0.6,0.4,1v2c0,0.4,0,0.7,0.1,0.9v0H92.6z M91.2,279.1c0.3,0,0.6-0.1,0.8-0.2c0.2-0.2,0.4-0.4,0.5-0.6v-0.9h-0.8
	c-0.5,0-0.8,0.1-1.1,0.3c-0.3,0.2-0.4,0.4-0.4,0.7c0,0.2,0.1,0.4,0.3,0.6S90.9,279.1,91.2,279.1z M94.7,275.2l0,0.7
	c0.2-0.3,0.4-0.5,0.6-0.6c0.2-0.1,0.5-0.2,0.8-0.2c0.5,0,0.8,0.1,1,0.4c0.2,0.3,0.3,0.6,0.3,1.1v2.8H97v-2.8c0-0.4-0.1-0.7-0.2-0.8
	c-0.2-0.2-0.4-0.3-0.8-0.3c-0.3,0-0.5,0.1-0.8,0.3c-0.2,0.2-0.4,0.4-0.5,0.7v2.9h-0.5v-4.2H94.7z M98.5,277.3c0-0.7,0.1-1.2,0.4-1.6
	c0.3-0.4,0.7-0.6,1.2-0.6c0.6,0,1,0.2,1.3,0.7v-2.4h0.5v6h-0.4l0-0.6c-0.3,0.4-0.7,0.6-1.3,0.6c-0.5,0-0.9-0.2-1.2-0.6
	C98.6,278.5,98.5,278,98.5,277.3L98.5,277.3z M98.9,277.4c0,0.5,0.1,1,0.3,1.3c0.2,0.3,0.5,0.5,0.9,0.5c0.6,0,1-0.3,1.2-0.8v-2
	c-0.2-0.5-0.6-0.8-1.2-0.8c-0.4,0-0.7,0.2-0.9,0.5S98.9,276.8,98.9,277.4z M107.6,278.4c0-0.2-0.1-0.4-0.3-0.6
	c-0.2-0.1-0.5-0.3-0.8-0.3c-0.4-0.1-0.7-0.2-0.9-0.3c-0.2-0.1-0.4-0.2-0.5-0.4c-0.1-0.1-0.2-0.3-0.2-0.5c0-0.3,0.1-0.6,0.4-0.8
	c0.3-0.2,0.6-0.3,1.1-0.3c0.5,0,0.8,0.1,1.1,0.3c0.3,0.2,0.4,0.5,0.4,0.9h-0.5c0-0.2-0.1-0.5-0.3-0.6s-0.5-0.2-0.8-0.2
	c-0.3,0-0.6,0.1-0.7,0.2c-0.2,0.1-0.3,0.3-0.3,0.5c0,0.2,0.1,0.4,0.2,0.5c0.2,0.1,0.4,0.2,0.8,0.3c0.4,0.1,0.7,0.2,0.9,0.3
	c0.2,0.1,0.4,0.2,0.5,0.4c0.1,0.2,0.1,0.3,0.1,0.6c0,0.4-0.1,0.6-0.4,0.9c-0.3,0.2-0.7,0.3-1.1,0.3c-0.5,0-0.9-0.1-1.2-0.4
	c-0.3-0.2-0.5-0.5-0.5-0.9h0.5c0,0.3,0.1,0.5,0.3,0.6c0.2,0.2,0.5,0.2,0.8,0.2c0.3,0,0.6-0.1,0.8-0.2
	C107.5,278.8,107.6,278.6,107.6,278.4z M110.6,279.1c0.3,0,0.6-0.1,0.8-0.3c0.2-0.2,0.3-0.4,0.4-0.7h0.4c0,0.3-0.1,0.5-0.2,0.7
	c-0.1,0.2-0.3,0.4-0.6,0.5s-0.5,0.2-0.8,0.2c-0.6,0-1-0.2-1.3-0.6c-0.3-0.4-0.5-0.9-0.5-1.6v-0.1c0-0.4,0.1-0.8,0.2-1.1
	c0.1-0.3,0.4-0.6,0.6-0.7c0.3-0.2,0.6-0.3,1-0.3c0.5,0,0.8,0.1,1.1,0.4c0.3,0.3,0.5,0.6,0.5,1.1h-0.4c0-0.3-0.1-0.6-0.4-0.8
	c-0.2-0.2-0.5-0.3-0.8-0.3c-0.4,0-0.7,0.2-1,0.5c-0.2,0.3-0.3,0.7-0.3,1.3v0.1c0,0.5,0.1,1,0.3,1.3
	C109.9,279,110.2,279.1,110.6,279.1z M113.2,274c0-0.1,0-0.2,0.1-0.2c0.1-0.1,0.1-0.1,0.2-0.1c0.1,0,0.2,0,0.2,0.1s0.1,0.1,0.1,0.2
	s0,0.2-0.1,0.2c-0.1,0.1-0.1,0.1-0.2,0.1c-0.1,0-0.2,0-0.2-0.1C113.2,274.2,113.2,274.1,113.2,274z M113.7,279.4h-0.5v-4.2h0.5
	V279.4z M118.1,278.8c-0.3,0.5-0.8,0.7-1.5,0.7c-0.4,0-0.7-0.1-1-0.3c-0.3-0.2-0.5-0.4-0.7-0.7c-0.2-0.3-0.2-0.7-0.2-1.1v-0.2
	c0-0.4,0.1-0.8,0.2-1.1c0.2-0.3,0.4-0.6,0.7-0.8c0.3-0.2,0.6-0.3,0.9-0.3c0.5,0,0.9,0.2,1.2,0.5c0.3,0.4,0.5,0.8,0.5,1.4v0.3h-3v0.1
	c0,0.5,0.1,0.9,0.4,1.2c0.3,0.3,0.6,0.5,1,0.5c0.2,0,0.5,0,0.7-0.1c0.2-0.1,0.4-0.2,0.5-0.4L118.1,278.8L118.1,278.8z M116.5,275.5
	c-0.4,0-0.6,0.1-0.9,0.4c-0.2,0.3-0.4,0.6-0.4,1h2.5v-0.1c0-0.4-0.1-0.7-0.3-1C117.2,275.7,116.9,275.5,116.5,275.5z M119.6,275.2
	l0,0.7c0.2-0.3,0.4-0.5,0.6-0.6c0.2-0.1,0.5-0.2,0.8-0.2c0.5,0,0.8,0.1,1,0.4c0.2,0.3,0.3,0.6,0.3,1.1v2.8h-0.5v-2.8
	c0-0.4-0.1-0.7-0.2-0.8c-0.2-0.2-0.4-0.3-0.8-0.3c-0.3,0-0.5,0.1-0.8,0.3c-0.2,0.2-0.4,0.4-0.5,0.7v2.9h-0.5v-4.2H119.6z
	 M124.3,274.1v1.1h0.9v0.4h-0.9v2.8c0,0.2,0,0.4,0.1,0.5c0.1,0.1,0.2,0.2,0.4,0.2c0.1,0,0.2,0,0.4,0l0,0.4c-0.1,0-0.3,0.1-0.5,0.1
	c-0.3,0-0.6-0.1-0.7-0.3c-0.1-0.2-0.2-0.5-0.2-0.8v-2.8H123v-0.4h0.8v-1.1H124.3z M126.1,274c0-0.1,0-0.2,0.1-0.2
	c0.1-0.1,0.1-0.1,0.2-0.1c0.1,0,0.2,0,0.2,0.1s0.1,0.1,0.1,0.2s0,0.2-0.1,0.2c-0.1,0.1-0.1,0.1-0.2,0.1c-0.1,0-0.2,0-0.2-0.1
	C126.1,274.2,126.1,274.1,126.1,274z M126.6,279.4h-0.5v-4.2h0.5V279.4z M128.2,279.4v-3.8h-0.7v-0.4h0.7v-0.4c0-0.5,0.1-0.8,0.4-1
	c0.2-0.2,0.6-0.4,1-0.4c0.3,0,0.7,0.1,1.1,0.2l-0.1,0.4c-0.3-0.1-0.6-0.2-1-0.2c-0.6,0-1,0.3-1,1v0.4h1v0.4h-1v3.8H128.2z
	 M130.9,279.4h-0.5v-4.2h0.5V279.4z M133.7,279.1c0.3,0,0.6-0.1,0.8-0.3c0.2-0.2,0.3-0.4,0.4-0.7h0.4c0,0.3-0.1,0.5-0.2,0.7
	c-0.1,0.2-0.3,0.4-0.6,0.5s-0.5,0.2-0.8,0.2c-0.6,0-1-0.2-1.3-0.6c-0.3-0.4-0.5-0.9-0.5-1.6v-0.1c0-0.4,0.1-0.8,0.2-1.1
	c0.1-0.3,0.4-0.6,0.6-0.7c0.3-0.2,0.6-0.3,1-0.3c0.5,0,0.8,0.1,1.1,0.4c0.3,0.3,0.5,0.6,0.5,1.1h-0.4c0-0.3-0.1-0.6-0.4-0.8
	c-0.2-0.2-0.5-0.3-0.8-0.3c-0.4,0-0.7,0.2-1,0.5c-0.2,0.3-0.3,0.7-0.3,1.3v0.1c0,0.5,0.1,1,0.3,1.3C133,279,133.3,279.1,133.7,279.1
	z M140.2,275.6c-0.1,0-0.2,0-0.3,0c-0.3,0-0.5,0.1-0.7,0.2c-0.2,0.2-0.3,0.4-0.4,0.7v2.9h-0.5v-4.2h0.5l0,0.7
	c0.2-0.5,0.6-0.8,1.2-0.8c0.1,0,0.2,0,0.3,0.1L140.2,275.6z M144,278.8c-0.3,0.5-0.8,0.7-1.5,0.7c-0.4,0-0.7-0.1-1-0.3
	c-0.3-0.2-0.5-0.4-0.7-0.7c-0.2-0.3-0.2-0.7-0.2-1.1v-0.2c0-0.4,0.1-0.8,0.2-1.1c0.2-0.3,0.4-0.6,0.7-0.8c0.3-0.2,0.6-0.3,0.9-0.3
	c0.5,0,0.9,0.2,1.2,0.5c0.3,0.4,0.5,0.8,0.5,1.4v0.3h-3v0.1c0,0.5,0.1,0.9,0.4,1.2c0.3,0.3,0.6,0.5,1,0.5c0.2,0,0.5,0,0.7-0.1
	c0.2-0.1,0.4-0.2,0.5-0.4L144,278.8L144,278.8z M142.4,275.5c-0.4,0-0.6,0.1-0.9,0.4c-0.2,0.3-0.4,0.6-0.4,1h2.5v-0.1
	c0-0.4-0.1-0.7-0.3-1C143.1,275.7,142.8,275.5,142.4,275.5z M147.5,278.4c0-0.2-0.1-0.4-0.3-0.6c-0.2-0.1-0.5-0.3-0.8-0.3
	c-0.4-0.1-0.7-0.2-0.9-0.3c-0.2-0.1-0.4-0.2-0.5-0.4c-0.1-0.1-0.2-0.3-0.2-0.5c0-0.3,0.1-0.6,0.4-0.8c0.3-0.2,0.6-0.3,1.1-0.3
	c0.5,0,0.8,0.1,1.1,0.3c0.3,0.2,0.4,0.5,0.4,0.9h-0.5c0-0.2-0.1-0.5-0.3-0.6s-0.5-0.2-0.8-0.2c-0.3,0-0.6,0.1-0.7,0.2
	c-0.2,0.1-0.3,0.3-0.3,0.5c0,0.2,0.1,0.4,0.2,0.5c0.2,0.1,0.4,0.2,0.8,0.3c0.4,0.1,0.7,0.2,0.9,0.3c0.2,0.1,0.4,0.2,0.5,0.4
	c0.1,0.2,0.1,0.3,0.1,0.6c0,0.4-0.1,0.6-0.4,0.9c-0.3,0.2-0.7,0.3-1.1,0.3c-0.5,0-0.9-0.1-1.2-0.4c-0.3-0.2-0.5-0.5-0.5-0.9h0.5
	c0,0.3,0.1,0.5,0.3,0.6c0.2,0.2,0.5,0.2,0.8,0.2c0.3,0,0.6-0.1,0.8-0.2C147.4,278.8,147.5,278.6,147.5,278.4z M152.2,278.8
	c-0.3,0.5-0.8,0.7-1.5,0.7c-0.4,0-0.7-0.1-1-0.3c-0.3-0.2-0.5-0.4-0.7-0.7c-0.2-0.3-0.2-0.7-0.2-1.1v-0.2c0-0.4,0.1-0.8,0.2-1.1
	c0.2-0.3,0.4-0.6,0.7-0.8c0.3-0.2,0.6-0.3,0.9-0.3c0.5,0,0.9,0.2,1.2,0.5c0.3,0.4,0.5,0.8,0.5,1.4v0.3h-3v0.1c0,0.5,0.1,0.9,0.4,1.2
	c0.3,0.3,0.6,0.5,1,0.5c0.2,0,0.5,0,0.7-0.1c0.2-0.1,0.4-0.2,0.5-0.4L152.2,278.8L152.2,278.8z M150.6,275.5c-0.4,0-0.6,0.1-0.9,0.4
	c-0.2,0.3-0.4,0.6-0.4,1h2.5v-0.1c0-0.4-0.1-0.7-0.3-1C151.2,275.7,151,275.5,150.6,275.5z M155.9,279.4c0-0.1-0.1-0.3-0.1-0.6
	c-0.2,0.2-0.4,0.4-0.6,0.5s-0.5,0.2-0.8,0.2c-0.4,0-0.7-0.1-1-0.3c-0.3-0.2-0.4-0.5-0.4-0.9c0-0.4,0.2-0.7,0.5-1
	c0.3-0.2,0.8-0.4,1.4-0.4h0.8v-0.5c0-0.3-0.1-0.5-0.3-0.7c-0.2-0.2-0.5-0.3-0.8-0.3c-0.3,0-0.6,0.1-0.8,0.2
	c-0.2,0.2-0.3,0.4-0.3,0.6l-0.5,0c0-0.3,0.2-0.6,0.5-0.9s0.7-0.4,1.2-0.4c0.5,0,0.8,0.1,1.1,0.4c0.3,0.2,0.4,0.6,0.4,1v2
	c0,0.4,0,0.7,0.1,0.9v0H155.9z M154.4,279.1c0.3,0,0.6-0.1,0.8-0.2c0.2-0.2,0.4-0.4,0.5-0.6v-0.9h-0.8c-0.5,0-0.8,0.1-1.1,0.3
	c-0.3,0.2-0.4,0.4-0.4,0.7c0,0.2,0.1,0.4,0.3,0.6S154.1,279.1,154.4,279.1z M159.4,275.6c-0.1,0-0.2,0-0.3,0c-0.3,0-0.5,0.1-0.7,0.2
	c-0.2,0.2-0.3,0.4-0.4,0.7v2.9h-0.5v-4.2h0.5l0,0.7c0.2-0.5,0.6-0.8,1.2-0.8c0.1,0,0.2,0,0.3,0.1L159.4,275.6z M161.7,279.1
	c0.3,0,0.6-0.1,0.8-0.3c0.2-0.2,0.3-0.4,0.4-0.7h0.4c0,0.3-0.1,0.5-0.2,0.7c-0.1,0.2-0.3,0.4-0.6,0.5s-0.5,0.2-0.8,0.2
	c-0.6,0-1-0.2-1.3-0.6c-0.3-0.4-0.5-0.9-0.5-1.6v-0.1c0-0.4,0.1-0.8,0.2-1.1c0.1-0.3,0.4-0.6,0.6-0.7c0.3-0.2,0.6-0.3,1-0.3
	c0.5,0,0.8,0.1,1.1,0.4c0.3,0.3,0.5,0.6,0.5,1.1h-0.4c0-0.3-0.1-0.6-0.4-0.8c-0.2-0.2-0.5-0.3-0.8-0.3c-0.4,0-0.7,0.2-1,0.5
	c-0.2,0.3-0.3,0.7-0.3,1.3v0.1c0,0.5,0.1,1,0.3,1.3C160.9,279,161.2,279.1,161.7,279.1z M164.7,275.9c0.2-0.3,0.4-0.4,0.6-0.6
	c0.2-0.1,0.5-0.2,0.8-0.2c0.5,0,0.8,0.1,1,0.4c0.2,0.3,0.3,0.6,0.3,1.1v2.8h-0.5v-2.8c0-0.4-0.1-0.7-0.2-0.8
	c-0.2-0.2-0.4-0.3-0.8-0.3c-0.3,0-0.5,0.1-0.8,0.3c-0.2,0.2-0.4,0.4-0.5,0.7v2.9h-0.5v-6h0.5V275.9z M169.1,279.2
	c0,0.5-0.2,1-0.5,1.3l-0.3-0.2c0.2-0.3,0.4-0.6,0.4-1v-0.6h0.5V279.2L169.1,279.2z M175.5,277.4c0,0.7-0.1,1.2-0.4,1.6
	c-0.3,0.4-0.7,0.6-1.2,0.6c-0.6,0-1-0.2-1.3-0.7l0,0.6h-0.4v-6h0.5v2.4c0.3-0.5,0.7-0.7,1.3-0.7c0.5,0,0.9,0.2,1.2,0.6
	C175.3,276.1,175.5,276.6,175.5,277.4L175.5,277.4z M175,277.3c0-0.6-0.1-1-0.3-1.3c-0.2-0.3-0.5-0.5-0.9-0.5
	c-0.3,0-0.6,0.1-0.8,0.2c-0.2,0.1-0.4,0.4-0.5,0.6v1.9c0.2,0.5,0.6,0.8,1.2,0.8c0.4,0,0.7-0.2,0.9-0.5
	C174.9,278.4,175,277.9,175,277.3z M179.2,278.9c-0.3,0.4-0.7,0.6-1.3,0.6c-0.5,0-0.8-0.1-1-0.4s-0.4-0.6-0.4-1.2v-2.8h0.5v2.7
	c0,0.8,0.3,1.2,1,1.2c0.7,0,1.1-0.3,1.3-0.8v-3.1h0.5v4.2h-0.5L179.2,278.9z M181.6,274.1v1.1h0.9v0.4h-0.9v2.8c0,0.2,0,0.4,0.1,0.5
	c0.1,0.1,0.2,0.2,0.4,0.2c0.1,0,0.2,0,0.4,0l0,0.4c-0.1,0-0.3,0.1-0.5,0.1c-0.3,0-0.6-0.1-0.7-0.3c-0.1-0.2-0.2-0.5-0.2-0.8v-2.8
	h-0.8v-0.4h0.8v-1.1H181.6z M188.1,279.4c0-0.1-0.1-0.3-0.1-0.6c-0.2,0.2-0.4,0.4-0.6,0.5s-0.5,0.2-0.8,0.2c-0.4,0-0.7-0.1-1-0.3
	c-0.3-0.2-0.4-0.5-0.4-0.9c0-0.4,0.2-0.7,0.5-1c0.3-0.2,0.8-0.4,1.4-0.4h0.8v-0.5c0-0.3-0.1-0.5-0.3-0.7c-0.2-0.2-0.5-0.3-0.8-0.3
	c-0.3,0-0.6,0.1-0.8,0.2c-0.2,0.2-0.3,0.4-0.3,0.6l-0.5,0c0-0.3,0.2-0.6,0.5-0.9s0.7-0.4,1.2-0.4c0.5,0,0.8,0.1,1.1,0.4
	c0.3,0.2,0.4,0.6,0.4,1v2c0,0.4,0,0.7,0.1,0.9v0H188.1z M186.6,279.1c0.3,0,0.6-0.1,0.8-0.2c0.2-0.2,0.4-0.4,0.5-0.6v-0.9h-0.8
	c-0.5,0-0.8,0.1-1.1,0.3c-0.3,0.2-0.4,0.4-0.4,0.7c0,0.2,0.1,0.4,0.3,0.6S186.3,279.1,186.6,279.1z M190.2,279.4h-0.5v-6h0.5V279.4z
	 M194,278.4c0-0.2-0.1-0.4-0.3-0.6c-0.2-0.1-0.5-0.3-0.8-0.3c-0.4-0.1-0.7-0.2-0.9-0.3c-0.2-0.1-0.4-0.2-0.5-0.4
	c-0.1-0.1-0.2-0.3-0.2-0.5c0-0.3,0.1-0.6,0.4-0.8c0.3-0.2,0.6-0.3,1.1-0.3c0.5,0,0.8,0.1,1.1,0.3c0.3,0.2,0.4,0.5,0.4,0.9H194
	c0-0.2-0.1-0.5-0.3-0.6s-0.5-0.2-0.8-0.2c-0.3,0-0.6,0.1-0.7,0.2c-0.2,0.1-0.3,0.3-0.3,0.5c0,0.2,0.1,0.4,0.2,0.5
	c0.2,0.1,0.4,0.2,0.8,0.3c0.4,0.1,0.7,0.2,0.9,0.3c0.2,0.1,0.4,0.2,0.5,0.4c0.1,0.2,0.1,0.3,0.1,0.6c0,0.4-0.1,0.6-0.4,0.9
	c-0.3,0.2-0.7,0.3-1.1,0.3c-0.5,0-0.9-0.1-1.2-0.4c-0.3-0.2-0.5-0.5-0.5-0.9h0.5c0,0.3,0.1,0.5,0.3,0.6c0.2,0.2,0.5,0.2,0.8,0.2
	c0.3,0,0.6-0.1,0.8-0.2C193.9,278.8,194,278.6,194,278.4z M195.3,277.3c0-0.4,0.1-0.8,0.2-1.1c0.2-0.3,0.4-0.6,0.7-0.8
	c0.3-0.2,0.6-0.3,1-0.3c0.6,0,1,0.2,1.4,0.6c0.3,0.4,0.5,0.9,0.5,1.6v0.1c0,0.4-0.1,0.8-0.2,1.1c-0.2,0.3-0.4,0.6-0.7,0.8
	c-0.3,0.2-0.6,0.3-1,0.3c-0.6,0-1-0.2-1.4-0.6C195.5,278.5,195.3,278,195.3,277.3L195.3,277.3z M195.7,277.4c0,0.5,0.1,0.9,0.4,1.2
	s0.6,0.5,1,0.5c0.4,0,0.8-0.2,1-0.5s0.4-0.8,0.4-1.3v-0.1c0-0.3-0.1-0.6-0.2-0.9c-0.1-0.3-0.3-0.5-0.5-0.6c-0.2-0.1-0.5-0.2-0.7-0.2
	c-0.4,0-0.8,0.2-1,0.5C195.9,276.4,195.7,276.8,195.7,277.4L195.7,277.4z M202.5,279.4H202v-6h0.5V279.4z M206.9,278.8
	c-0.3,0.5-0.8,0.7-1.5,0.7c-0.4,0-0.7-0.1-1-0.3c-0.3-0.2-0.5-0.4-0.7-0.7c-0.2-0.3-0.2-0.7-0.2-1.1v-0.2c0-0.4,0.1-0.8,0.2-1.1
	c0.2-0.3,0.4-0.6,0.7-0.8c0.3-0.2,0.6-0.3,0.9-0.3c0.5,0,0.9,0.2,1.2,0.5c0.3,0.4,0.5,0.8,0.5,1.4v0.3h-3v0.1c0,0.5,0.1,0.9,0.4,1.2
	c0.3,0.3,0.6,0.5,1,0.5c0.2,0,0.5,0,0.7-0.1c0.2-0.1,0.4-0.2,0.5-0.4L206.9,278.8L206.9,278.8z M205.3,275.5c-0.4,0-0.6,0.1-0.9,0.4
	c-0.2,0.3-0.4,0.6-0.4,1h2.5v-0.1c0-0.4-0.1-0.7-0.3-1C205.9,275.7,205.7,275.5,205.3,275.5z M210.4,278.4c0-0.2-0.1-0.4-0.3-0.6
	c-0.2-0.1-0.5-0.3-0.8-0.3c-0.4-0.1-0.7-0.2-0.9-0.3c-0.2-0.1-0.4-0.2-0.5-0.4c-0.1-0.1-0.2-0.3-0.2-0.5c0-0.3,0.1-0.6,0.4-0.8
	c0.3-0.2,0.6-0.3,1.1-0.3c0.5,0,0.8,0.1,1.1,0.3c0.3,0.2,0.4,0.5,0.4,0.9h-0.5c0-0.2-0.1-0.5-0.3-0.6s-0.5-0.2-0.8-0.2
	c-0.3,0-0.6,0.1-0.7,0.2c-0.2,0.1-0.3,0.3-0.3,0.5c0,0.2,0.1,0.4,0.2,0.5c0.2,0.1,0.4,0.2,0.8,0.3c0.4,0.1,0.7,0.2,0.9,0.3
	c0.2,0.1,0.4,0.2,0.5,0.4c0.1,0.2,0.1,0.3,0.1,0.6c0,0.4-0.1,0.6-0.4,0.9c-0.3,0.2-0.7,0.3-1.1,0.3c-0.5,0-0.9-0.1-1.2-0.4
	c-0.3-0.2-0.5-0.5-0.5-0.9h0.5c0,0.3,0.1,0.5,0.3,0.6c0.2,0.2,0.5,0.2,0.8,0.2c0.3,0,0.6-0.1,0.8-0.2
	C210.3,278.8,210.4,278.6,210.4,278.4z M214.5,278.4c0-0.2-0.1-0.4-0.3-0.6c-0.2-0.1-0.5-0.3-0.8-0.3c-0.4-0.1-0.7-0.2-0.9-0.3
	c-0.2-0.1-0.4-0.2-0.5-0.4c-0.1-0.1-0.2-0.3-0.2-0.5c0-0.3,0.1-0.6,0.4-0.8c0.3-0.2,0.6-0.3,1.1-0.3c0.5,0,0.8,0.1,1.1,0.3
	c0.3,0.2,0.4,0.5,0.4,0.9h-0.5c0-0.2-0.1-0.5-0.3-0.6s-0.5-0.2-0.8-0.2c-0.3,0-0.6,0.1-0.7,0.2c-0.2,0.1-0.3,0.3-0.3,0.5
	c0,0.2,0.1,0.4,0.2,0.5c0.2,0.1,0.4,0.2,0.8,0.3c0.4,0.1,0.7,0.2,0.9,0.3c0.2,0.1,0.4,0.2,0.5,0.4c0.1,0.2,0.1,0.3,0.1,0.6
	c0,0.4-0.1,0.6-0.4,0.9c-0.3,0.2-0.7,0.3-1.1,0.3c-0.5,0-0.9-0.1-1.2-0.4c-0.3-0.2-0.5-0.5-0.5-0.9h0.5c0,0.3,0.1,0.5,0.3,0.6
	c0.2,0.2,0.5,0.2,0.8,0.2c0.3,0,0.6-0.1,0.8-0.2C214.4,278.8,214.5,278.6,214.5,278.4z M219.5,279.1c0.3,0,0.6-0.1,0.8-0.3
	c0.2-0.2,0.3-0.4,0.4-0.7h0.4c0,0.3-0.1,0.5-0.2,0.7c-0.1,0.2-0.3,0.4-0.6,0.5s-0.5,0.2-0.8,0.2c-0.6,0-1-0.2-1.3-0.6
	c-0.3-0.4-0.5-0.9-0.5-1.6v-0.1c0-0.4,0.1-0.8,0.2-1.1c0.1-0.3,0.4-0.6,0.6-0.7c0.3-0.2,0.6-0.3,1-0.3c0.5,0,0.8,0.1,1.1,0.4
	c0.3,0.3,0.5,0.6,0.5,1.1h-0.4c0-0.3-0.1-0.6-0.4-0.8c-0.2-0.2-0.5-0.3-0.8-0.3c-0.4,0-0.7,0.2-1,0.5c-0.2,0.3-0.3,0.7-0.3,1.3v0.1
	c0,0.5,0.1,1,0.3,1.3C218.7,279,219.1,279.1,219.5,279.1z M221.8,277.3c0-0.4,0.1-0.8,0.2-1.1c0.2-0.3,0.4-0.6,0.7-0.8
	c0.3-0.2,0.6-0.3,1-0.3c0.6,0,1,0.2,1.4,0.6c0.3,0.4,0.5,0.9,0.5,1.6v0.1c0,0.4-0.1,0.8-0.2,1.1c-0.2,0.3-0.4,0.6-0.7,0.8
	c-0.3,0.2-0.6,0.3-1,0.3c-0.6,0-1-0.2-1.4-0.6C222,278.5,221.8,278,221.8,277.3L221.8,277.3z M222.3,277.4c0,0.5,0.1,0.9,0.4,1.2
	s0.6,0.5,1,0.5c0.4,0,0.8-0.2,1-0.5s0.4-0.8,0.4-1.3v-0.1c0-0.3-0.1-0.6-0.2-0.9c-0.1-0.3-0.3-0.5-0.5-0.6c-0.2-0.1-0.5-0.2-0.7-0.2
	c-0.4,0-0.8,0.2-1,0.5C222.4,276.4,222.3,276.8,222.3,277.4L222.3,277.4z M228.5,275.6c-0.1,0-0.2,0-0.3,0c-0.3,0-0.5,0.1-0.7,0.2
	c-0.2,0.2-0.3,0.4-0.4,0.7v2.9h-0.5v-4.2h0.5l0,0.7c0.2-0.5,0.6-0.8,1.2-0.8c0.1,0,0.2,0,0.3,0.1L228.5,275.6z M231.2,275.6
	c-0.1,0-0.2,0-0.3,0c-0.3,0-0.5,0.1-0.7,0.2c-0.2,0.2-0.3,0.4-0.4,0.7v2.9h-0.5v-4.2h0.5l0,0.7c0.2-0.5,0.6-0.8,1.2-0.8
	c0.1,0,0.2,0,0.3,0.1L231.2,275.6z M235,278.8c-0.3,0.5-0.8,0.7-1.5,0.7c-0.4,0-0.7-0.1-1-0.3c-0.3-0.2-0.5-0.4-0.7-0.7
	c-0.2-0.3-0.2-0.7-0.2-1.1v-0.2c0-0.4,0.1-0.8,0.2-1.1c0.2-0.3,0.4-0.6,0.7-0.8c0.3-0.2,0.6-0.3,0.9-0.3c0.5,0,0.9,0.2,1.2,0.5
	c0.3,0.4,0.5,0.8,0.5,1.4v0.3h-3v0.1c0,0.5,0.1,0.9,0.4,1.2c0.3,0.3,0.6,0.5,1,0.5c0.2,0,0.5,0,0.7-0.1c0.2-0.1,0.4-0.2,0.5-0.4
	L235,278.8L235,278.8z M233.4,275.5c-0.4,0-0.6,0.1-0.9,0.4c-0.2,0.3-0.4,0.6-0.4,1h2.5v-0.1c0-0.4-0.1-0.7-0.3-1
	C234.1,275.7,233.8,275.5,233.4,275.5z M237.6,279.1c0.3,0,0.6-0.1,0.8-0.3c0.2-0.2,0.3-0.4,0.4-0.7h0.4c0,0.3-0.1,0.5-0.2,0.7
	c-0.1,0.2-0.3,0.4-0.6,0.5s-0.5,0.2-0.8,0.2c-0.6,0-1-0.2-1.3-0.6c-0.3-0.4-0.5-0.9-0.5-1.6v-0.1c0-0.4,0.1-0.8,0.2-1.1
	c0.1-0.3,0.4-0.6,0.6-0.7c0.3-0.2,0.6-0.3,1-0.3c0.5,0,0.8,0.1,1.1,0.4c0.3,0.3,0.5,0.6,0.5,1.1h-0.4c0-0.3-0.1-0.6-0.4-0.8
	c-0.2-0.2-0.5-0.3-0.8-0.3c-0.4,0-0.7,0.2-1,0.5c-0.2,0.3-0.3,0.7-0.3,1.3v0.1c0,0.5,0.1,1,0.3,1.3
	C236.8,279,237.1,279.1,237.6,279.1z M240.8,274.1v1.1h0.9v0.4h-0.9v2.8c0,0.2,0,0.4,0.1,0.5c0.1,0.1,0.2,0.2,0.4,0.2
	c0.1,0,0.2,0,0.4,0l0,0.4c-0.1,0-0.3,0.1-0.5,0.1c-0.3,0-0.6-0.1-0.7-0.3c-0.1-0.2-0.2-0.5-0.2-0.8v-2.8h-0.8v-0.4h0.8v-1.1H240.8z"
	/>
<text transform="matrix(1 0 0 1 89.3569 289.0462)"><tspan x="0" y="0" class="st2 st3 st4">and </tspan><tspan x="15.1" y="0" class="st2 st3 st4">ev</tspan><tspan x="23" y="0" class="st2 st3 st4">en er</tspan><tspan x="40.3" y="0" class="st2 st3 st4">r</tspan><tspan x="42.9" y="0" class="st2 st3 st4">oneous advice.</tspan><tspan x="95.3" y="0" class="st2 st3 st4"> </tspan><tspan x="97.1" y="0" class="st2 st3 st4">The cor</tspan><tspan x="123.6" y="0" class="st2 st3 st4">r</tspan><tspan x="126.2" y="0" class="st2 st3 st4">ectness </tspan></text>
<text transform="matrix(1 0 0 1 89.3569 298.6468)"><tspan x="0" y="0" class="st2 st3 st4">and </tspan><tspan x="15.1" y="0" class="st2 st3 st4">r</tspan><tspan x="17.7" y="0" class="st2 st3 st4">eliability of </tspan><tspan x="56.9" y="0" class="st2 st3 st4">“</tspan><tspan x="59.1" y="0" class="st2 st3 st4">doc</tspan><tspan x="72.1" y="0" class="st2 st3 st4">t</tspan><tspan x="74.6" y="0" class="st2 st3 st4">or googl</tspan><tspan x="103.4" y="0" class="st2 st3 st4">e</tspan><tspan x="107.4" y="0" class="st2 st3 st4">” m</tspan><tspan x="118.9" y="0" class="st2 st3 st4">a</tspan><tspan x="123.1" y="0" class="st2 st3 st4">y rightly </tspan></text>
<text transform="matrix(1 0 0 1 89.3569 308.2464)" class="st2 st3 st4">be questioned.</text>
<text transform="matrix(1 0 0 1 89.3569 327.4466)"><tspan x="0" y="0" class="st2 st3 st4">Y</tspan><tspan x="4.5" y="0" class="st2 st3 st4">et the</tspan><tspan x="24.3" y="0" class="st2 st3 st4">r</tspan><tspan x="26.9" y="0" class="st2 st3 st4">e a</tspan><tspan x="37.3" y="0" class="st2 st3 st4">r</tspan><tspan x="39.9" y="0" class="st2 st3 st4">e a huge number of people who </tspan></text>
<text transform="matrix(1 0 0 1 89.3569 337.0462)"><tspan x="0" y="0" class="st2 st3 st4">use the internet </tspan><tspan x="56.2" y="0" class="st2 st3 st4">t</tspan><tspan x="58.7" y="0" class="st2 st3 st4">o obtain medical advice. </tspan></text>
<text transform="matrix(1 0 0 1 89.3569 346.6468)"><tspan x="0" y="0" class="st2 st3 st4">A su</tspan><tspan x="15.4" y="0" class="st2 st3 st4">r</tspan><tspan x="18.1" y="0" class="st2 st3 st4">ve</tspan><tspan x="26" y="0" class="st2 st3 st4">y of the Christian Mutuality showed </tspan></text>
<text transform="matrix(1 0 0 1 89.3569 356.2464)"><tspan x="0" y="0" class="st2 st3 st4">that 91% of Flemish people </tspan><tspan x="96.6" y="0" class="st2 st3 st4">r</tspan><tspan x="99.2" y="0" class="st2 st3 st4">egularly call on </tspan></text>
<text transform="matrix(1 0 0 1 89.3569 365.847)"><tspan x="0" y="0" class="st2 st3 st4">doc</tspan><tspan x="13" y="0" class="st2 st3 st4">t</tspan><tspan x="15.5" y="0" class="st2 st3 st4">or Google.</tspan></text>
<text transform="matrix(1 0 0 1 89.3569 385.0462)" class="st2 st3 st4">Most of the medical information that can </text>
<text transform="matrix(1 0 0 1 89.3569 394.6468)" class="st2 st3 st4">be found on the internet is usually not </text>
<text transform="matrix(1 0 0 1 89.3569 404.2464)"><tspan x="0" y="0" class="st2 st3 st4">medically suppo</tspan><tspan x="57" y="0" class="st2 st3 st4">r</tspan><tspan x="59.9" y="0" class="st2 st3 st4">ted. An</tspan><tspan x="84.3" y="0" class="st2 st3 st4">y</tspan><tspan x="88" y="0" class="st2 st3 st4">one can publish </tspan></text>
<text transform="matrix(1 0 0 1 89.3569 413.847)" class="st2 st3 st4">this information whether the information is </text>
<text transform="matrix(1 0 0 1 89.3569 423.4466)"><tspan x="0" y="0" class="st2 st3 st4">medically cor</tspan><tspan x="46.5" y="0" class="st2 st3 st4">r</tspan><tspan x="49.1" y="0" class="st2 st3 st4">ect or not. In addition, many </tspan></text>
<text transform="matrix(1 0 0 1 89.3569 433.0462)"><tspan x="0" y="0" class="st2 st3 st4">s</tspan><tspan x="4.1" y="0" class="st2 st3 st4">t</tspan><tspan x="6.5" y="0" class="st2 st3 st4">ories a</tspan><tspan x="29.9" y="0" class="st2 st3 st4">r</tspan><tspan x="32.6" y="0" class="st2 st3 st4">e ci</tspan><tspan x="44.5" y="0" class="st2 st3 st4">r</tspan><tspan x="47.2" y="0" class="st2 st3 st4">culating on the internet about </tspan></text>
<text transform="matrix(1 0 0 1 89.3569 442.6468)"><tspan x="0" y="0" class="st2 st3 st4">experiences with serious diso</tspan><tspan x="102.9" y="0" class="st2 st3 st4">r</tspan><tspan x="105.5" y="0" class="st2 st3 st4">ders in which </tspan></text>
<text transform="matrix(1 0 0 1 89.3569 452.2464)"><tspan x="0" y="0" class="st2 st3 st4">some a</tspan><tspan x="26" y="0" class="st2 st3 st4">r</tspan><tspan x="28.9" y="0" class="st2 st3 st4">tists igno</tspan><tspan x="61" y="0" class="st2 st3 st4">r</tspan><tspan x="63.6" y="0" class="st2 st3 st4">e ce</tspan><tspan x="77.9" y="0" class="st2 st3 st4">r</tspan><tspan x="80.8" y="0" class="st2 st3 st4">tain p</tspan><tspan x="100.2" y="0" class="st2 st3 st4">r</tspan><tspan x="102.8" y="0" class="st2 st3 st4">oblems and a </tspan></text>
<text transform="matrix(1 0 0 1 89.3569 461.847)"><tspan x="0" y="0" class="st2 st3 st4">terrible diagnosis is made afte</tspan><tspan x="105.2" y="0" class="st2 st3 st4">r</tspan><tspan x="107.9" y="0" class="st2 st3 st4">wa</tspan><tspan x="118.3" y="0" class="st2 st3 st4">r</tspan><tspan x="120.9" y="0" class="st2 st3 st4">ds. It is an </tspan></text>
<text transform="matrix(1 0 0 1 89.3569 471.4466)"><tspan x="0" y="0" class="st2 st3 st4">er</tspan><tspan x="6.8" y="0" class="st2 st3 st4">r</tspan><tspan x="9.4" y="0" class="st2 st3 st4">oneous pictu</tspan><tspan x="54.6" y="0" class="st2 st3 st4">r</tspan><tspan x="57.3" y="0" class="st2 st3 st4">e that causes people </tspan><tspan x="131.4" y="0" class="st2 st3 st4">t</tspan><tspan x="133.9" y="0" class="st2 st3 st4">o think </tspan></text>
<text transform="matrix(1 0 0 1 89.3569 481.0462)"><tspan x="0" y="0" class="st2 st3 st4">that some diseases or situations a</tspan><tspan x="120.1" y="0" class="st2 st3 st4">r</tspan><tspan x="122.7" y="0" class="st2 st3 st4">e much </tspan></text>
<text transform="matrix(1 0 0 1 89.3569 490.6468)"><tspan x="0" y="0" class="st2 st3 st4">mo</tspan><tspan x="11.6" y="0" class="st2 st3 st4">r</tspan><tspan x="14.2" y="0" class="st2 st3 st4">e common than </tspan><tspan x="71.5" y="0" class="st2 st3 st4">r</tspan><tspan x="74.1" y="0" class="st2 st3 st4">eality shows.</tspan></text>
<text transform="matrix(1 0 0 1 89.3569 509.847)"><tspan x="0" y="0" class="st2 st3 st4">S</tspan><tspan x="4.7" y="0" class="st2 st3 st4">t</tspan><tspan x="7.2" y="0" class="st2 st3 st4">op googling </tspan><tspan x="50.3" y="0" class="st2 st3 st4">y</tspan><tspan x="54" y="0" class="st2 st3 st4">our symp</tspan><tspan x="86.9" y="0" class="st2 st3 st4">t</tspan><tspan x="89.4" y="0" class="st2 st3 st4">oms and visit a </tspan><tspan x="144.3" y="0" class="st2 st3 st4">r</tspan><tspan x="147" y="0" class="st2 st3 st4">eal </tspan></text>
<text transform="matrix(1 0 0 1 89.3569 519.4466)"><tspan x="0" y="0" class="st2 st3 st4">doc</tspan><tspan x="13" y="0" class="st2 st3 st4">t</tspan><tspan x="15.5" y="0" class="st2 st3 st4">o</tspan><tspan x="20" y="0" class="st2 st3 st4">r</tspan><tspan x="22.2" y="0" class="st2 st3 st4">.</tspan></text>
</svg>
