<?xml version="1.0" encoding="utf-8"?>
<!-- Generator: Adobe Illustrator 23.0.1, SVG Export Plug-In . SVG Version: 6.00 Build 0)  -->
<svg version="1.1" id="Laag_1" xmlns="http://www.w3.org/2000/svg" xmlns:xlink="http://www.w3.org/1999/xlink" x="0px" y="0px"
	 viewBox="0 0 258.8 536" style="enable-background:new 0 0 258.8 536;" xml:space="preserve">
<style type="text/css">
	.st0{fill:none;stroke:#517ABD;stroke-width:0.335;}
	.st1{fill:none;stroke:#517ABD;}
	.st2{fill:#517ABD;}
	.st3{font-family:'Roboto-Light';}
	.st4{font-size:8px;}
	.st5{font-family:'Roboto-Bold';}
	.st6{font-size:10px;}
	.st7{clip-path:url(#SVGID_2_);}
	.st8{font-family:'Roboto-Regular';}
	.st9{font-size:20px;}
	.st10{letter-spacing:-1;}
	.st11{fill:#E84435;}
	.st12{fill:#FCBC05;}
	.st13{fill:#31A852;}
</style>
<rect x="1.9" y="2" class="st0" width="255.3" height="531.8"/>
<rect x="1.8" y="2.1" class="st1" width="255.3" height="531.9"/>
<line class="st1" x1="1.6" y1="37.1" x2="257.2" y2="37.1"/>
<line class="st1" x1="1.6" y1="91.6" x2="257.2" y2="91.6"/>
<line class="st1" x1="1.6" y1="512" x2="257.2" y2="512"/>
<line class="st1" x1="82.1" y1="91.8" x2="82.1" y2="511.9"/>
<line class="st1" x1="129.7" y1="37.1" x2="129.7" y2="91.6"/>
<text transform="matrix(1 0 0 1 135.6009 48.6618)"><tspan x="0" y="0" class="st2 st3 st4">Naam en </tspan><tspan x="33.8" y="0" class="st2 st3 st4">v</tspan><tspan x="37.5" y="0" class="st2 st3 st4">oornaam </tspan><tspan x="71.2" y="0" class="st2 st3 st4">v</tspan><tspan x="75" y="0" class="st2 st3 st4">an de </tspan></text>
<text transform="matrix(1 0 0 1 135.6009 58.2619)"><tspan x="0" y="0" class="st2 st3 st4">v</tspan><tspan x="3.8" y="0" class="st2 st3 st4">oorschrij</tspan><tspan x="34.3" y="0" class="st2 st3 st4">v</tspan><tspan x="38.1" y="0" class="st2 st3 st4">er:</tspan></text>
<text transform="matrix(1 0 0 1 135.6009 77.4616)" class="st2 st5 st4">DOKTER GOOGLE</text>
<text transform="matrix(1 0 0 1 7.305 103.5177)"><tspan x="0" y="0" class="st2 st3 st4">V</tspan><tspan x="4.8" y="0" class="st2 st3 st4">oorbehouden </tspan></text>
<text transform="matrix(1 0 0 1 7.305 113.1178)" class="st2 st3 st4">aan het </text>
<text transform="matrix(1 0 0 1 7.305 122.7179)"><tspan x="0" y="0" class="st2 st3 st4">v</tspan><tspan x="3.8" y="0" class="st2 st3 st4">erpakkingsvignet</tspan></text>
<text transform="matrix(1 0 0 1 96.6521 526.3575)"><tspan x="0" y="0" class="st2 st3 st6">V</tspan><tspan x="6.1" y="0" class="st2 st3 st6">OORSCHRI</tspan><tspan x="54.5" y="0" class="st2 st3 st6">F</tspan><tspan x="60.2" y="0" class="st2 st3 st6">T</tspan></text>
<g>
	<defs>
		<rect id="SVGID_1_" x="13.2" y="41.8" width="104.3" height="44.9"/>
	</defs>
	<clipPath id="SVGID_2_">
		<use xlink:href="#SVGID_1_"  style="overflow:visible;"/>
	</clipPath>
	<g class="st7">
		<defs>
			<rect id="SVGID_3_" x="12.2" y="41.8" width="106.5" height="45.9"/>
		</defs>
		<clipPath id="SVGID_4_">
			<use xlink:href="#SVGID_3_"  style="overflow:visible;"/>
		</clipPath>
		<g style="clip-path:url(#SVGID_4_);">
			
				<image style="overflow:visible;" width="471" height="203" xlink:href="8D4BF1C3A15CC9CC.jpg"  transform="matrix(0.2261 0 0 0.2261 12.2336 41.7926)">
			</image>
		</g>
	</g>
</g>
<text transform="matrix(1 0 0 1 83.3929 24.5582)"><tspan x="0" y="0" class="st2 st8 st9">D</tspan><tspan x="13.1" y="0" class="st2 st8 st9 st10">r</tspan><tspan x="18.7" y="0" class="st2 st8 st9">. G</tspan></text>
<text transform="matrix(1 0 0 1 125.9148 24.5582)" class="st11 st8 st9">o</text>
<text transform="matrix(1 0 0 1 137.3147 24.5582)" class="st12 st8 st9">o</text>
<text transform="matrix(1 0 0 1 148.7151 24.5582)" class="st2 st8 st9">g</text>
<text transform="matrix(1 0 0 1 159.9353 24.5582)" class="st13 st8 st9">l</text>
<text transform="matrix(1 0 0 1 164.7952 24.5582)" class="st11 st8 st9">e</text>
<text transform="matrix(1 0 0 1 90.5559 106.8302)" class="st2 st5 st4">R/</text>
<text transform="matrix(1 0 0 1 90.5559 126.0304)"><tspan x="0" y="0" class="st2 st3 st4">Ong</tspan><tspan x="14.2" y="0" class="st2 st3 st4">ev</tspan><tspan x="22.1" y="0" class="st2 st3 st4">eer 75% </tspan><tspan x="51.8" y="0" class="st2 st3 st4">v</tspan><tspan x="55.5" y="0" class="st2 st3 st4">an de mensen </tspan><tspan x="106.8" y="0" class="st2 st3 st4">v</tspan><tspan x="110.6" y="0" class="st2 st3 st4">e</tspan><tspan x="114.8" y="0" class="st2 st3 st4">r</tspan><tspan x="117.5" y="0" class="st2 st3 st4">we</tspan><tspan x="127.7" y="0" class="st2 st3 st4">r</tspan><tspan x="130.4" y="0" class="st2 st3 st4">ft </tspan></text>
<text transform="matrix(1 0 0 1 90.5559 135.63)"><tspan x="0" y="0" class="st2 st3 st4">k</tspan><tspan x="3.8" y="0" class="st2 st3 st4">ennis </tspan><tspan x="24.6" y="0" class="st2 st3 st4">ov</tspan><tspan x="32.8" y="0" class="st2 st3 st4">er ge</tspan><tspan x="50.1" y="0" class="st2 st3 st4">z</tspan><tspan x="54" y="0" class="st2 st3 st4">ondheid via de media. Er </tspan></text>
<text transform="matrix(1 0 0 1 90.5559 145.2306)"><tspan x="0" y="0" class="st2 st3 st4">v</tspan><tspan x="3.8" y="0" class="st2 st3 st4">alt niet alleen </tspan><tspan x="51.7" y="0" class="st2 st3 st4">z</tspan><tspan x="55.5" y="0" class="st2 st3 st4">eer nuttige informatie te </tspan></text>
<text transform="matrix(1 0 0 1 90.5559 154.8302)"><tspan x="0" y="0" class="st2 st3 st4">vinden </tspan><tspan x="25" y="0" class="st2 st3 st4">r</tspan><tspan x="27.6" y="0" class="st2 st3 st4">ond medische en wetenschappelij</tspan><tspan x="145.9" y="0" class="st2 st3 st4">k</tspan><tspan x="149.8" y="0" class="st2 st3 st4">e </tspan></text>
<text transform="matrix(1 0 0 1 90.5559 164.4308)"><tspan x="0" y="0" class="st2 st3 st4">onder</tspan><tspan x="20.1" y="0" class="st2 st3 st4">z</tspan><tspan x="24" y="0" class="st2 st3 st4">oe</tspan><tspan x="32.6" y="0" class="st2 st3 st4">k</tspan><tspan x="36.4" y="0" class="st2 st3 st4">en, maar ook minder cor</tspan><tspan x="121.3" y="0" class="st2 st3 st4">r</tspan><tspan x="124" y="0" class="st2 st3 st4">ecte en </tspan></text>
<text transform="matrix(1 0 0 1 90.5559 174.0304)"><tspan x="0" y="0" class="st2 st3 st4">z</tspan><tspan x="3.8" y="0" class="st2 st3 st4">elfs </tspan><tspan x="18.4" y="0" class="st2 st3 st4">r</tspan><tspan x="21" y="0" class="st2 st3 st4">onduit fouti</tspan><tspan x="60.9" y="0" class="st2 st3 st4">e</tspan><tspan x="65" y="0" class="st2 st3 st4">v</tspan><tspan x="68.8" y="0" class="st2 st3 st4">e advie</tspan><tspan x="93.4" y="0" class="st2 st3 st4">z</tspan><tspan x="97.2" y="0" class="st2 st3 st4">en. De juistheid </tspan></text>
<text transform="matrix(1 0 0 1 90.5559 183.63)"><tspan x="0" y="0" class="st2 st3 st4">en bet</tspan><tspan x="21.6" y="0" class="st2 st3 st4">r</tspan><tspan x="24.2" y="0" class="st2 st3 st4">ouwbaarheid </tspan><tspan x="71.5" y="0" class="st2 st3 st4">v</tspan><tspan x="75.3" y="0" class="st2 st3 st4">an </tspan><tspan x="86" y="0" class="st2 st3 st4">“</tspan><tspan x="88.1" y="0" class="st2 st3 st4">dokter googl</tspan><tspan x="131.9" y="0" class="st2 st3 st4">e</tspan><tspan x="136" y="0" class="st2 st3 st4">” mag </tspan></text>
<text transform="matrix(1 0 0 1 90.5559 193.2306)"><tspan x="0" y="0" class="st2 st3 st4">te</tspan><tspan x="6.7" y="0" class="st2 st3 st4">r</tspan><tspan x="9.3" y="0" class="st2 st3 st4">echt in v</tspan><tspan x="38.5" y="0" class="st2 st3 st4">r</tspan><tspan x="41" y="0" class="st2 st3 st4">aag wo</tspan><tspan x="66.5" y="0" class="st2 st3 st4">r</tspan><tspan x="69.1" y="0" class="st2 st3 st4">den gesteld.</tspan></text>
<text transform="matrix(1 0 0 1 90.5559 212.4308)"><tspan x="0" y="0" class="st2 st3 st4">T</tspan><tspan x="4.4" y="0" class="st2 st3 st4">och zijn er enorm </tspan><tspan x="66.7" y="0" class="st2 st3 st4">v</tspan><tspan x="70.5" y="0" class="st2 st3 st4">eel mensen die het </tspan></text>
<text transform="matrix(1 0 0 1 90.5559 222.0304)"><tspan x="0" y="0" class="st2 st3 st4">internet gebrui</tspan><tspan x="50.5" y="0" class="st2 st3 st4">k</tspan><tspan x="54.4" y="0" class="st2 st3 st4">en om medisch advies </tspan></text>
<text transform="matrix(1 0 0 1 90.5559 231.63)"><tspan x="0" y="0" class="st2 st3 st4">te </tspan><tspan x="8.6" y="0" class="st2 st3 st4">v</tspan><tspan x="12.4" y="0" class="st2 st3 st4">erkrijgen. Uit een onder</tspan><tspan x="92.6" y="0" class="st2 st3 st4">z</tspan><tspan x="96.5" y="0" class="st2 st3 st4">oek </tspan><tspan x="110.9" y="0" class="st2 st3 st4">v</tspan><tspan x="114.7" y="0" class="st2 st3 st4">an de </tspan></text>
<text transform="matrix(1 0 0 1 90.5559 241.2306)"><tspan x="0" y="0" class="st2 st3 st4">Christelij</tspan><tspan x="30.2" y="0" class="st2 st3 st4">k</tspan><tspan x="34.1" y="0" class="st2 st3 st4">e Mutualiteit, bleek dat 91% </tspan><tspan x="131.2" y="0" class="st2 st3 st4">v</tspan><tspan x="135" y="0" class="st2 st3 st4">an de </tspan></text>
<text transform="matrix(1 0 0 1 90.5559 250.8302)"><tspan x="0" y="0" class="st2 st3 st4">Vlamingen ge</tspan><tspan x="47.8" y="0" class="st2 st3 st4">r</tspan><tspan x="50.4" y="0" class="st2 st3 st4">egeld be</tspan><tspan x="79.8" y="0" class="st2 st3 st4">r</tspan><tspan x="82.4" y="0" class="st2 st3 st4">oep doet op dokter </tspan></text>
<text transform="matrix(1 0 0 1 90.5559 260.4308)" class="st2 st3 st4">Google. </text>
<text transform="matrix(1 0 0 1 90.5559 279.63)"><tspan x="0" y="0" class="st2 st3 st4">Het internet biedt dus </tspan><tspan x="77.1" y="0" class="st2 st3 st4">v</tspan><tspan x="80.9" y="0" class="st2 st3 st4">ele </tspan><tspan x="92.9" y="0" class="st2 st3 st4">v</tspan><tspan x="96.7" y="0" class="st2 st3 st4">oo</tspan><tspan x="105.7" y="0" class="st2 st3 st4">r</tspan><tspan x="108.3" y="0" class="st2 st3 st4">delen, maar </tspan></text>
<text transform="matrix(1 0 0 1 90.5559 289.2306)"><tspan x="0" y="0" class="st2 st3 st4">ook nadelen. </tspan><tspan x="46.3" y="0" class="st2 st3 st4">W</tspan><tspan x="53.3" y="0" class="st2 st3 st4">anneer we ziek zijn, </tspan><tspan x="122.4" y="0" class="st2 st3 st4">z</tspan><tspan x="126.3" y="0" class="st2 st3 st4">oe</tspan><tspan x="134.9" y="0" class="st2 st3 st4">k</tspan><tspan x="138.7" y="0" class="st2 st3 st4">en </tspan></text>
<text transform="matrix(1 0 0 1 90.5559 298.8302)"><tspan x="0" y="0" class="st2 st3 st4">we </tspan><tspan x="12.1" y="0" class="st2 st3 st4">v</tspan><tspan x="15.9" y="0" class="st2 st3 st4">eel te snel on</tspan><tspan x="61.8" y="0" class="st2 st3 st4">z</tspan><tspan x="65.6" y="0" class="st2 st3 st4">e symp</tspan><tspan x="91" y="0" class="st2 st3 st4">t</tspan><tspan x="93.5" y="0" class="st2 st3 st4">omen op het </tspan></text>
<text transform="matrix(1 0 0 1 90.5559 308.4308)"><tspan x="0" y="0" class="st2 st3 st4">internet op en kunnen we </tspan><tspan x="89.6" y="0" class="st2 st3 st4">v</tspan><tspan x="93.5" y="0" class="st2 st3 st4">erschillende </tspan></text>
<text transform="matrix(1 0 0 1 90.5559 318.0304)"><tspan x="0" y="0" class="st2 st3 st4">r</tspan><tspan x="2.6" y="0" class="st2 st3 st4">edenen vinden. </tspan><tspan x="57.1" y="0" class="st2 st3 st4">Z</tspan><tspan x="61.8" y="0" class="st2 st3 st4">o p</tspan><tspan x="72.6" y="0" class="st2 st3 st4">r</tspan><tspan x="75.2" y="0" class="st2 st3 st4">obe</tspan><tspan x="88.3" y="0" class="st2 st3 st4">r</tspan><tspan x="90.9" y="0" class="st2 st3 st4">en we antwoo</tspan><tspan x="139.7" y="0" class="st2 st3 st4">r</tspan><tspan x="142.3" y="0" class="st2 st3 st4">den </tspan></text>
<text transform="matrix(1 0 0 1 90.5559 327.63)"><tspan x="0" y="0" class="st2 st3 st4">te vinden en </tspan><tspan x="44.1" y="0" class="st2 st3 st4">r</tspan><tspan x="46.7" y="0" class="st2 st3 st4">emedies te </tspan><tspan x="87.1" y="0" class="st2 st3 st4">z</tspan><tspan x="90.9" y="0" class="st2 st3 st4">oe</tspan><tspan x="99.5" y="0" class="st2 st3 st4">k</tspan><tspan x="103.3" y="0" class="st2 st3 st4">en </tspan><tspan x="113.8" y="0" class="st2 st3 st4">v</tspan><tspan x="117.6" y="0" class="st2 st3 st4">oor on</tspan><tspan x="140.1" y="0" class="st2 st3 st4">z</tspan><tspan x="143.9" y="0" class="st2 st3 st4">e </tspan></text>
<text transform="matrix(1 0 0 1 90.5559 337.2306)"><tspan x="0" y="0" class="st2 st3 st4">ziektes en kwaaltjes. </tspan><tspan x="73.7" y="0" class="st2 st3 st4">W</tspan><tspan x="80.7" y="0" class="st2 st3 st4">e gaan niet meer </tspan></text>
<text transform="matrix(1 0 0 1 90.5559 346.8302)"><tspan x="0" y="0" class="st2 st3 st4">meteen naar de dokter met on</tspan><tspan x="105.3" y="0" class="st2 st3 st4">z</tspan><tspan x="109.2" y="0" class="st2 st3 st4">e v</tspan><tspan x="119.1" y="0" class="st2 st3 st4">r</tspan><tspan x="121.6" y="0" class="st2 st3 st4">agen.</tspan></text>
<text transform="matrix(1 0 0 1 90.5559 366.0304)"><tspan x="0" y="0" class="st2 st3 st4">W</tspan><tspan x="7" y="0" class="st2 st3 st4">anneer mensen klachten o</tspan><tspan x="99.2" y="0" class="st2 st3 st4">p</tspan><tspan x="103.6" y="0" class="st2 st3 st4">z</tspan><tspan x="107.4" y="0" class="st2 st3 st4">oe</tspan><tspan x="116" y="0" class="st2 st3 st4">k</tspan><tspan x="119.9" y="0" class="st2 st3 st4">en op het </tspan></text>
<text transform="matrix(1 0 0 1 90.5559 375.63)"><tspan x="0" y="0" class="st2 st3 st4">internet, ga je </tspan><tspan x="48.7" y="0" class="st2 st3 st4">v</tspan><tspan x="52.5" y="0" class="st2 st3 st4">an een gewone hoo</tspan><tspan x="120.7" y="0" class="st2 st3 st4">f</tspan><tspan x="123.2" y="0" class="st2 st3 st4">dpijn al </tspan></text>
<text transform="matrix(1 0 0 1 90.5559 385.2306)"><tspan x="0" y="0" class="st2 st3 st4">snel naar een hersentumo</tspan><tspan x="90.9" y="0" class="st2 st3 st4">r</tspan><tspan x="93.1" y="0" class="st2 st3 st4">. De kans is echter </tspan></text>
<text transform="matrix(1 0 0 1 90.5559 394.8302)"><tspan x="0" y="0" class="st2 st3 st4">klein dat je hoo</tspan><tspan x="52.5" y="0" class="st2 st3 st4">f</tspan><tspan x="55" y="0" class="st2 st3 st4">dpijn daa</tspan><tspan x="86.9" y="0" class="st2 st3 st4">r</tspan><tspan x="89.5" y="0" class="st2 st3 st4">door </tspan><tspan x="107.5" y="0" class="st2 st3 st4">v</tspan><tspan x="111.4" y="0" class="st2 st3 st4">e</tspan><tspan x="115.5" y="0" class="st2 st3 st4">r</tspan><tspan x="118.1" y="0" class="st2 st3 st4">oorzaakt </tspan></text>
<text transform="matrix(1 0 0 1 90.5559 404.4308)"><tspan x="0" y="0" class="st2 st3 st4">we</tspan><tspan x="10.2" y="0" class="st2 st3 st4">r</tspan><tspan x="12.8" y="0" class="st2 st3 st4">d.</tspan></text>
<text transform="matrix(1 0 0 1 90.5559 423.63)"><tspan x="0" y="0" class="st2 st3 st4">In een onder</tspan><tspan x="43.2" y="0" class="st2 st3 st4">z</tspan><tspan x="47.1" y="0" class="st2 st3 st4">oek had slechts 34% </tspan><tspan x="120.4" y="0" class="st2 st3 st4">v</tspan><tspan x="124.2" y="0" class="st2 st3 st4">an de </tspan></text>
<text transform="matrix(1 0 0 1 90.5559 433.2306)"><tspan x="0" y="0" class="st2 st3 st4">online </tspan><tspan x="22.9" y="0" class="st2 st3 st4">t</tspan><tspan x="25.4" y="0" class="st2 st3 st4">ools het bij het juiste eind, te</tspan><tspan x="123.9" y="0" class="st2 st3 st4">r</tspan><tspan x="126.7" y="0" class="st2 st3 st4">wijl </tspan></text>
<text transform="matrix(1 0 0 1 90.5559 442.8302)"><tspan x="0" y="0" class="st2 st3 st4">72% </tspan><tspan x="16.7" y="0" class="st2 st3 st4">v</tspan><tspan x="20.5" y="0" class="st2 st3 st4">an de g</tspan><tspan x="46.1" y="0" class="st2 st3 st4">e</tspan><tspan x="50.2" y="0" class="st2 st3 st4">v</tspan><tspan x="54" y="0" class="st2 st3 st4">r</tspan><tspan x="56.6" y="0" class="st2 st3 st4">aagde dokters het wel juist </tspan></text>
<text transform="matrix(1 0 0 1 90.5559 452.4308)" class="st2 st3 st4">hadden. </text>
<text transform="matrix(1 0 0 1 90.5559 471.63)"><tspan x="0" y="0" class="st2 st3 st4">S</tspan><tspan x="4.7" y="0" class="st2 st3 st4">t</tspan><tspan x="7.2" y="0" class="st2 st3 st4">op met uw symp</tspan><tspan x="65.6" y="0" class="st2 st3 st4">t</tspan><tspan x="68.1" y="0" class="st2 st3 st4">omen te googlen en </tspan></text>
<text transform="matrix(1 0 0 1 90.5559 481.2306)"><tspan x="0" y="0" class="st2 st3 st4">aan</tspan><tspan x="13" y="0" class="st2 st3 st4">v</tspan><tspan x="16.8" y="0" class="st2 st3 st4">aa</tspan><tspan x="25.3" y="0" class="st2 st3 st4">r</tspan><tspan x="27.9" y="0" class="st2 st3 st4">d dat u dood gaat.</tspan></text>
</svg>
