<?xml version="1.0" encoding="utf-8"?>
<!-- Generator: Adobe Illustrator 23.0.1, SVG Export Plug-In . SVG Version: 6.00 Build 0)  -->
<svg version="1.1" id="Laag_1" xmlns="http://www.w3.org/2000/svg" xmlns:xlink="http://www.w3.org/1999/xlink" x="0px" y="0px"
	 viewBox="0 0 259.6 470.3" style="enable-background:new 0 0 259.6 470.3;" xml:space="preserve">
<style type="text/css">
	.st0{fill:none;stroke:#517ABD;stroke-width:0.335;}
	.st1{clip-path:url(#SVGID_2_);fill:none;stroke:#FCBC05;}
	.st2{fill:none;stroke:#FCBC05;}
	.st3{fill:#FCBC05;}
	.st4{font-family:'Roboto-Light';}
	.st5{font-size:8px;}
	.st6{font-family:'Roboto-Bold';}
	.st7{font-size:10px;}
	.st8{clip-path:url(#SVGID_4_);}
	.st9{fill:#517ABD;}
	.st10{font-family:'Roboto-Regular';}
	.st11{font-size:20px;}
	.st12{letter-spacing:-1;}
	.st13{fill:#E84435;}
	.st14{fill:#31A852;}
</style>
<rect x="2.3" y="2.1" class="st0" width="255.3" height="466.3"/>
<g>
	<defs>
		<rect id="SVGID_1_" x="-7.3" y="-5.2" width="274.3" height="475.3"/>
	</defs>
	<clipPath id="SVGID_2_">
		<use xlink:href="#SVGID_1_"  style="overflow:visible;"/>
	</clipPath>
	<rect x="2.2" y="2.3" class="st1" width="255.3" height="466.3"/>
</g>
<line class="st2" x1="2" y1="37.3" x2="257.6" y2="37.3"/>
<line class="st2" x1="2" y1="91.8" x2="257.6" y2="91.8"/>
<line class="st2" x1="2" y1="449.3" x2="257.6" y2="449.3"/>
<line class="st2" x1="82.5" y1="92" x2="82.5" y2="449.3"/>
<line class="st2" x1="130.1" y1="37.3" x2="130.1" y2="91.8"/>
<path class="st3" d="M141,48.8h-0.5l-3.3-4.9v4.9h-0.5v-5.7h0.5l3.3,4.9v-4.9h0.5V48.8z M145,48.8c0-0.1-0.1-0.3-0.1-0.6
	c-0.2,0.2-0.4,0.4-0.6,0.5s-0.5,0.2-0.8,0.2c-0.4,0-0.7-0.1-1-0.3c-0.3-0.2-0.4-0.5-0.4-0.9c0-0.4,0.2-0.7,0.5-1
	c0.3-0.2,0.8-0.4,1.4-0.4h0.8v-0.5c0-0.3-0.1-0.5-0.3-0.7c-0.2-0.2-0.5-0.3-0.8-0.3c-0.3,0-0.6,0.1-0.8,0.2
	c-0.2,0.2-0.3,0.4-0.3,0.6l-0.5,0c0-0.3,0.2-0.6,0.5-0.9s0.7-0.4,1.2-0.4c0.5,0,0.8,0.1,1.1,0.4c0.3,0.2,0.4,0.6,0.4,1v2
	c0,0.4,0,0.7,0.1,0.9v0H145z M143.5,48.5c0.3,0,0.6-0.1,0.8-0.2c0.2-0.2,0.4-0.4,0.5-0.6v-0.9H144c-0.5,0-0.8,0.1-1.1,0.3
	c-0.3,0.2-0.4,0.4-0.4,0.7c0,0.2,0.1,0.4,0.3,0.6S143.2,48.5,143.5,48.5z M147,44.6l0,0.7c0.2-0.3,0.4-0.4,0.6-0.6
	c0.2-0.1,0.5-0.2,0.8-0.2c0.7,0,1.1,0.3,1.3,0.8c0.2-0.3,0.4-0.5,0.6-0.6c0.3-0.1,0.5-0.2,0.8-0.2c0.9,0,1.4,0.5,1.4,1.5v2.8H152
	v-2.8c0-0.4-0.1-0.7-0.2-0.8c-0.2-0.2-0.4-0.3-0.8-0.3c-0.3,0-0.6,0.1-0.9,0.3c-0.2,0.2-0.4,0.5-0.4,0.8v2.8h-0.5V46
	c0-0.4-0.1-0.6-0.3-0.8c-0.2-0.2-0.4-0.3-0.8-0.3c-0.3,0-0.5,0.1-0.8,0.3s-0.4,0.4-0.5,0.7v2.9h-0.5v-4.2H147z M156.8,48.2
	c-0.3,0.5-0.8,0.7-1.5,0.7c-0.4,0-0.7-0.1-1-0.3c-0.3-0.2-0.5-0.4-0.7-0.7c-0.2-0.3-0.2-0.7-0.2-1.1v-0.2c0-0.4,0.1-0.8,0.2-1.1
	c0.2-0.3,0.4-0.6,0.7-0.8c0.3-0.2,0.6-0.3,0.9-0.3c0.5,0,0.9,0.2,1.2,0.5c0.3,0.4,0.5,0.8,0.5,1.4v0.3h-3v0.1c0,0.5,0.1,0.9,0.4,1.2
	c0.3,0.3,0.6,0.5,1,0.5c0.2,0,0.5,0,0.7-0.1c0.2-0.1,0.4-0.2,0.5-0.4L156.8,48.2L156.8,48.2z M155.2,44.9c-0.4,0-0.6,0.1-0.9,0.4
	c-0.2,0.3-0.4,0.6-0.4,1h2.5v-0.1c0-0.4-0.1-0.7-0.3-1C155.9,45.1,155.6,44.9,155.2,44.9z M162.4,48.8c0-0.1-0.1-0.3-0.1-0.6
	c-0.2,0.2-0.4,0.4-0.6,0.5s-0.5,0.2-0.8,0.2c-0.4,0-0.7-0.1-1-0.3c-0.3-0.2-0.4-0.5-0.4-0.9c0-0.4,0.2-0.7,0.5-1
	c0.3-0.2,0.8-0.4,1.4-0.4h0.8v-0.5c0-0.3-0.1-0.5-0.3-0.7c-0.2-0.2-0.5-0.3-0.8-0.3c-0.3,0-0.6,0.1-0.8,0.2
	c-0.2,0.2-0.3,0.4-0.3,0.6l-0.5,0c0-0.3,0.2-0.6,0.5-0.9s0.7-0.4,1.2-0.4c0.5,0,0.8,0.1,1.1,0.4c0.3,0.2,0.4,0.6,0.4,1v2
	c0,0.4,0,0.7,0.1,0.9v0H162.4z M161,48.5c0.3,0,0.6-0.1,0.8-0.2c0.2-0.2,0.4-0.4,0.5-0.6v-0.9h-0.8c-0.5,0-0.8,0.1-1.1,0.3
	c-0.3,0.2-0.4,0.4-0.4,0.7c0,0.2,0.1,0.4,0.3,0.6S160.7,48.5,161,48.5z M164.5,44.6l0,0.7c0.2-0.3,0.4-0.5,0.6-0.6
	c0.2-0.1,0.5-0.2,0.8-0.2c0.5,0,0.8,0.1,1,0.4c0.2,0.3,0.3,0.6,0.3,1.1v2.8h-0.5v-2.8c0-0.4-0.1-0.7-0.2-0.8
	c-0.2-0.2-0.4-0.3-0.8-0.3c-0.3,0-0.5,0.1-0.8,0.3c-0.2,0.2-0.4,0.4-0.5,0.7v2.9H164v-4.2H164.5z M168.2,46.7c0-0.7,0.1-1.2,0.4-1.6
	c0.3-0.4,0.7-0.6,1.2-0.6c0.6,0,1,0.2,1.3,0.7v-2.4h0.5v6h-0.4l0-0.6c-0.3,0.4-0.7,0.6-1.3,0.6c-0.5,0-0.9-0.2-1.2-0.6
	C168.4,47.9,168.2,47.4,168.2,46.7L168.2,46.7z M168.7,46.8c0,0.5,0.1,1,0.3,1.3c0.2,0.3,0.5,0.5,0.9,0.5c0.6,0,1-0.3,1.2-0.8v-2
	c-0.2-0.5-0.6-0.8-1.2-0.8c-0.4,0-0.7,0.2-0.9,0.5S168.7,46.2,168.7,46.8z M175.1,48.8V45h-0.7v-0.4h0.7v-0.4c0-0.5,0.1-0.8,0.4-1
	c0.2-0.2,0.6-0.4,1-0.4c0.3,0,0.7,0.1,1.1,0.2l-0.1,0.4c-0.3-0.1-0.6-0.2-1-0.2c-0.6,0-1,0.3-1,1v0.4h1V45h-1v3.8H175.1z
	 M177.8,48.8h-0.5v-4.2h0.5V48.8z M181.1,45c-0.1,0-0.2,0-0.3,0c-0.3,0-0.5,0.1-0.7,0.2c-0.2,0.2-0.3,0.4-0.4,0.7v2.9h-0.5v-4.2h0.5
	l0,0.7c0.2-0.5,0.6-0.8,1.2-0.8c0.1,0,0.2,0,0.3,0.1L181.1,45z M184.3,47.8c0-0.2-0.1-0.4-0.3-0.6c-0.2-0.1-0.5-0.3-0.8-0.3
	c-0.4-0.1-0.7-0.2-0.9-0.3c-0.2-0.1-0.4-0.2-0.5-0.4c-0.1-0.1-0.2-0.3-0.2-0.5c0-0.3,0.1-0.6,0.4-0.8c0.3-0.2,0.6-0.3,1.1-0.3
	c0.5,0,0.8,0.1,1.1,0.3c0.3,0.2,0.4,0.5,0.4,0.9h-0.5c0-0.2-0.1-0.5-0.3-0.6s-0.5-0.2-0.8-0.2c-0.3,0-0.6,0.1-0.7,0.2
	c-0.2,0.1-0.3,0.3-0.3,0.5c0,0.2,0.1,0.4,0.2,0.5c0.2,0.1,0.4,0.2,0.8,0.3c0.4,0.1,0.7,0.2,0.9,0.3c0.2,0.1,0.4,0.2,0.5,0.4
	c0.1,0.2,0.1,0.3,0.1,0.6c0,0.4-0.1,0.6-0.4,0.9c-0.3,0.2-0.7,0.3-1.1,0.3c-0.5,0-0.9-0.1-1.2-0.4c-0.3-0.2-0.5-0.5-0.5-0.9h0.5
	c0,0.3,0.1,0.5,0.3,0.6c0.2,0.2,0.5,0.2,0.8,0.2c0.3,0,0.6-0.1,0.8-0.2C184.2,48.2,184.3,48,184.3,47.8z M186.6,43.5v1.1h0.9V45
	h-0.9v2.8c0,0.2,0,0.4,0.1,0.5c0.1,0.1,0.2,0.2,0.4,0.2c0.1,0,0.2,0,0.4,0l0,0.4c-0.1,0-0.3,0.1-0.5,0.1c-0.3,0-0.6-0.1-0.7-0.3
	c-0.1-0.2-0.2-0.5-0.2-0.8V45h-0.8v-0.4h0.8v-1.1H186.6z M190.8,44.6l0,0.7c0.2-0.3,0.4-0.5,0.6-0.6c0.2-0.1,0.5-0.2,0.8-0.2
	c0.5,0,0.8,0.1,1,0.4c0.2,0.3,0.3,0.6,0.3,1.1v2.8h-0.5v-2.8c0-0.4-0.1-0.7-0.2-0.8c-0.2-0.2-0.4-0.3-0.8-0.3
	c-0.3,0-0.5,0.1-0.8,0.3c-0.2,0.2-0.4,0.4-0.5,0.7v2.9h-0.5v-4.2H190.8z M197.4,48.8c0-0.1-0.1-0.3-0.1-0.6
	c-0.2,0.2-0.4,0.4-0.6,0.5s-0.5,0.2-0.8,0.2c-0.4,0-0.7-0.1-1-0.3c-0.3-0.2-0.4-0.5-0.4-0.9c0-0.4,0.2-0.7,0.5-1
	c0.3-0.2,0.8-0.4,1.4-0.4h0.8v-0.5c0-0.3-0.1-0.5-0.3-0.7c-0.2-0.2-0.5-0.3-0.8-0.3c-0.3,0-0.6,0.1-0.8,0.2
	c-0.2,0.2-0.3,0.4-0.3,0.6l-0.5,0c0-0.3,0.2-0.6,0.5-0.9s0.7-0.4,1.2-0.4c0.5,0,0.8,0.1,1.1,0.4c0.3,0.2,0.4,0.6,0.4,1v2
	c0,0.4,0,0.7,0.1,0.9v0H197.4z M196,48.5c0.3,0,0.6-0.1,0.8-0.2c0.2-0.2,0.4-0.4,0.5-0.6v-0.9h-0.8c-0.5,0-0.8,0.1-1.1,0.3
	c-0.3,0.2-0.4,0.4-0.4,0.7c0,0.2,0.1,0.4,0.3,0.6S195.7,48.5,196,48.5z M199.5,44.6l0,0.7c0.2-0.3,0.4-0.4,0.6-0.6
	c0.2-0.1,0.5-0.2,0.8-0.2c0.7,0,1.1,0.3,1.3,0.8c0.2-0.3,0.4-0.5,0.6-0.6c0.3-0.1,0.5-0.2,0.8-0.2c0.9,0,1.4,0.5,1.4,1.5v2.8h-0.5
	v-2.8c0-0.4-0.1-0.7-0.2-0.8c-0.2-0.2-0.4-0.3-0.8-0.3c-0.3,0-0.6,0.1-0.9,0.3c-0.2,0.2-0.4,0.5-0.4,0.8v2.8h-0.5V46
	c0-0.4-0.1-0.6-0.3-0.8c-0.2-0.2-0.4-0.3-0.8-0.3c-0.3,0-0.5,0.1-0.8,0.3s-0.4,0.4-0.5,0.7v2.9H199v-4.2H199.5z M209.3,48.2
	c-0.3,0.5-0.8,0.7-1.5,0.7c-0.4,0-0.7-0.1-1-0.3c-0.3-0.2-0.5-0.4-0.7-0.7c-0.2-0.3-0.2-0.7-0.2-1.1v-0.2c0-0.4,0.1-0.8,0.2-1.1
	c0.2-0.3,0.4-0.6,0.7-0.8c0.3-0.2,0.6-0.3,0.9-0.3c0.5,0,0.9,0.2,1.2,0.5c0.3,0.4,0.5,0.8,0.5,1.4v0.3h-3v0.1c0,0.5,0.1,0.9,0.4,1.2
	c0.3,0.3,0.6,0.5,1,0.5c0.2,0,0.5,0,0.7-0.1c0.2-0.1,0.4-0.2,0.5-0.4L209.3,48.2L209.3,48.2z M207.7,44.9c-0.4,0-0.6,0.1-0.9,0.4
	c-0.2,0.3-0.4,0.6-0.4,1h2.5v-0.1c0-0.4-0.1-0.7-0.3-1C208.3,45.1,208,44.9,207.7,44.9z M212,46.7c0-0.4,0.1-0.8,0.2-1.1
	c0.2-0.3,0.4-0.6,0.7-0.8c0.3-0.2,0.6-0.3,1-0.3c0.6,0,1,0.2,1.4,0.6c0.3,0.4,0.5,0.9,0.5,1.6v0.1c0,0.4-0.1,0.8-0.2,1.1
	c-0.2,0.3-0.4,0.6-0.7,0.8c-0.3,0.2-0.6,0.3-1,0.3c-0.6,0-1-0.2-1.4-0.6C212.1,47.9,212,47.4,212,46.7L212,46.7z M212.4,46.8
	c0,0.5,0.1,0.9,0.4,1.2s0.6,0.5,1,0.5c0.4,0,0.8-0.2,1-0.5s0.4-0.8,0.4-1.3v-0.1c0-0.3-0.1-0.6-0.2-0.9c-0.1-0.3-0.3-0.5-0.5-0.6
	c-0.2-0.1-0.5-0.2-0.7-0.2c-0.4,0-0.8,0.2-1,0.5C212.6,45.8,212.4,46.2,212.4,46.8L212.4,46.8z M217,48.8V45h-0.7v-0.4h0.7v-0.5
	c0-0.4,0.1-0.8,0.3-1c0.2-0.2,0.5-0.3,0.9-0.3c0.2,0,0.3,0,0.5,0.1l0,0.4c-0.1,0-0.3,0-0.4,0c-0.3,0-0.5,0.1-0.6,0.2
	c-0.1,0.2-0.2,0.4-0.2,0.7v0.5h1V45h-1v3.8H217z M222,43.5v1.1h0.9V45H222v2.8c0,0.2,0,0.4,0.1,0.5c0.1,0.1,0.2,0.2,0.4,0.2
	c0.1,0,0.2,0,0.4,0l0,0.4c-0.1,0-0.3,0.1-0.5,0.1c-0.3,0-0.6-0.1-0.7-0.3c-0.1-0.2-0.2-0.5-0.2-0.8V45h-0.8v-0.4h0.8v-1.1H222z
	 M224.3,45.3c0.2-0.3,0.4-0.4,0.6-0.6c0.2-0.1,0.5-0.2,0.8-0.2c0.5,0,0.8,0.1,1,0.4c0.2,0.3,0.3,0.6,0.3,1.1v2.8h-0.5v-2.8
	c0-0.4-0.1-0.7-0.2-0.8c-0.2-0.2-0.4-0.3-0.8-0.3c-0.3,0-0.5,0.1-0.8,0.3c-0.2,0.2-0.4,0.4-0.5,0.7v2.9h-0.5v-6h0.5V45.3z
	 M231.4,48.2c-0.3,0.5-0.8,0.7-1.5,0.7c-0.4,0-0.7-0.1-1-0.3c-0.3-0.2-0.5-0.4-0.7-0.7c-0.2-0.3-0.2-0.7-0.2-1.1v-0.2
	c0-0.4,0.1-0.8,0.2-1.1c0.2-0.3,0.4-0.6,0.7-0.8c0.3-0.2,0.6-0.3,0.9-0.3c0.5,0,0.9,0.2,1.2,0.5c0.3,0.4,0.5,0.8,0.5,1.4v0.3h-3v0.1
	c0,0.5,0.1,0.9,0.4,1.2c0.3,0.3,0.6,0.5,1,0.5c0.2,0,0.5,0,0.7-0.1c0.2-0.1,0.4-0.2,0.5-0.4L231.4,48.2L231.4,48.2z M229.8,44.9
	c-0.4,0-0.6,0.1-0.9,0.4c-0.2,0.3-0.4,0.6-0.4,1h2.5v-0.1c0-0.4-0.1-0.7-0.3-1C230.4,45.1,230.2,44.9,229.8,44.9z"/>
<text transform="matrix(1 0 0 1 136.009 58.4498)"><tspan x="0" y="0" class="st3 st4 st5">p</tspan><tspan x="4.4" y="0" class="st3 st4 st5">r</tspan><tspan x="7.1" y="0" class="st3 st4 st5">escriber:</tspan></text>
<text transform="matrix(1 0 0 1 136.009 77.65)"><tspan x="0" y="0" class="st3 st6 st5">DO</tspan><tspan x="10.7" y="0" class="st3 st6 st5">CT</tspan><tspan x="20.7" y="0" class="st3 st6 st5">OR GOOGLE</tspan></text>
<text transform="matrix(1 0 0 1 7.7131 103.7057)"><tspan x="0" y="0" class="st3 st4 st5">Rese</tspan><tspan x="17.4" y="0" class="st3 st4 st5">r</tspan><tspan x="20.1" y="0" class="st3 st4 st5">v</tspan><tspan x="23.9" y="0" class="st3 st4 st5">ed on the </tspan></text>
<text transform="matrix(1 0 0 1 7.7131 113.3063)" class="st3 st4 st5">packaging vignette</text>
<text transform="matrix(1 0 0 1 95.9153 462.3307)" class="st3 st4 st7">PRESCRIPTION</text>
<g>
	<defs>
		<rect id="SVGID_3_" x="13.7" y="42" width="104.3" height="44.9"/>
	</defs>
	<clipPath id="SVGID_4_">
		<use xlink:href="#SVGID_3_"  style="overflow:visible;"/>
	</clipPath>
	<g class="st8">
		<defs>
			<rect id="SVGID_5_" x="12.6" y="42" width="106.5" height="45.9"/>
		</defs>
		<clipPath id="SVGID_6_">
			<use xlink:href="#SVGID_5_"  style="overflow:visible;"/>
		</clipPath>
		<g style="clip-path:url(#SVGID_6_);">
			
				<image style="overflow:visible;" width="471" height="203" xlink:href="B7F581A63E72D2C.png"  transform="matrix(0.2261 0 0 0.2261 12.6418 41.9807)">
			</image>
		</g>
	</g>
</g>
<text transform="matrix(1 0 0 1 91.2048 115.774)" class="st3 st6 st5">R /</text>
<text transform="matrix(1 0 0 1 91.2048 134.9742)"><tspan x="0" y="0" class="st3 st4 st5">App</tspan><tspan x="13.9" y="0" class="st3 st4 st5">r</tspan><tspan x="16.5" y="0" class="st3 st4 st5">o</tspan><tspan x="20.9" y="0" class="st3 st4 st5">ximately 75% of people acqui</tspan><tspan x="122.4" y="0" class="st3 st4 st5">r</tspan><tspan x="125" y="0" class="st3 st4 st5">e</tspan></text>
<text transform="matrix(1 0 0 1 91.2048 144.5739)"><tspan x="0" y="0" class="st3 st4 st5">about health th</tspan><tspan x="52.6" y="0" class="st3 st4 st5">r</tspan><tspan x="55.2" y="0" class="st3 st4 st5">ough the media.</tspan><tspan x="111.5" y="0" class="st3 st4 st5"> </tspan><tspan x="113.3" y="0" class="st3 st4 st5">The</tspan><tspan x="126.6" y="0" class="st3 st4 st5">r</tspan><tspan x="129.2" y="0" class="st3 st4 st5">e is not </tspan></text>
<text transform="matrix(1 0 0 1 91.2048 154.1744)"><tspan x="0" y="0" class="st3 st4 st5">only </tspan><tspan x="16.4" y="0" class="st3 st4 st5">v</tspan><tspan x="20.2" y="0" class="st3 st4 st5">e</tspan><tspan x="24.4" y="0" class="st3 st4 st5">r</tspan><tspan x="27.1" y="0" class="st3 st4 st5">y useful information about medical </tspan></text>
<path class="st3" d="M94.5,163.8c0-0.1-0.1-0.3-0.1-0.6c-0.2,0.2-0.4,0.4-0.6,0.5s-0.5,0.2-0.8,0.2c-0.4,0-0.7-0.1-1-0.3
	c-0.3-0.2-0.4-0.5-0.4-0.9c0-0.4,0.2-0.7,0.5-1c0.3-0.2,0.8-0.4,1.4-0.4h0.8v-0.5c0-0.3-0.1-0.5-0.3-0.7c-0.2-0.2-0.5-0.3-0.8-0.3
	c-0.3,0-0.6,0.1-0.8,0.2c-0.2,0.2-0.3,0.4-0.3,0.6l-0.5,0c0-0.3,0.2-0.6,0.5-0.9s0.7-0.4,1.2-0.4c0.5,0,0.8,0.1,1.1,0.4
	c0.3,0.2,0.4,0.6,0.4,1v2c0,0.4,0,0.7,0.1,0.9v0H94.5z M93,163.4c0.3,0,0.6-0.1,0.8-0.2c0.2-0.2,0.4-0.4,0.5-0.6v-0.9h-0.8
	c-0.5,0-0.8,0.1-1.1,0.3c-0.3,0.2-0.4,0.4-0.4,0.7c0,0.2,0.1,0.4,0.3,0.6S92.7,163.4,93,163.4z M96.5,159.5l0,0.7
	c0.2-0.3,0.4-0.5,0.6-0.6c0.2-0.1,0.5-0.2,0.8-0.2c0.5,0,0.8,0.1,1,0.4c0.2,0.3,0.3,0.6,0.3,1.1v2.8h-0.5V161c0-0.4-0.1-0.7-0.2-0.8
	c-0.2-0.2-0.4-0.3-0.8-0.3c-0.3,0-0.5,0.1-0.8,0.3c-0.2,0.2-0.4,0.4-0.5,0.7v2.9h-0.5v-4.2H96.5z M100.3,161.6
	c0-0.7,0.1-1.2,0.4-1.6c0.3-0.4,0.7-0.6,1.2-0.6c0.6,0,1,0.2,1.3,0.7v-2.4h0.5v6h-0.4l0-0.6c-0.3,0.4-0.7,0.6-1.3,0.6
	c-0.5,0-0.9-0.2-1.2-0.6C100.5,162.9,100.3,162.3,100.3,161.6L100.3,161.6z M100.8,161.7c0,0.5,0.1,1,0.3,1.3
	c0.2,0.3,0.5,0.5,0.9,0.5c0.6,0,1-0.3,1.2-0.8v-2c-0.2-0.5-0.6-0.8-1.2-0.8c-0.4,0-0.7,0.2-0.9,0.5S100.8,161.1,100.8,161.7z
	 M109.4,162.7c0-0.2-0.1-0.4-0.3-0.6c-0.2-0.1-0.5-0.3-0.8-0.3c-0.4-0.1-0.7-0.2-0.9-0.3c-0.2-0.1-0.4-0.2-0.5-0.4
	c-0.1-0.1-0.2-0.3-0.2-0.5c0-0.3,0.1-0.6,0.4-0.8c0.3-0.2,0.6-0.3,1.1-0.3c0.5,0,0.8,0.1,1.1,0.3c0.3,0.2,0.4,0.5,0.4,0.9h-0.5
	c0-0.2-0.1-0.5-0.3-0.6s-0.5-0.2-0.8-0.2c-0.3,0-0.6,0.1-0.7,0.2c-0.2,0.1-0.3,0.3-0.3,0.5c0,0.2,0.1,0.4,0.2,0.5
	c0.2,0.1,0.4,0.2,0.8,0.3c0.4,0.1,0.7,0.2,0.9,0.3c0.2,0.1,0.4,0.2,0.5,0.4c0.1,0.2,0.1,0.3,0.1,0.6c0,0.4-0.1,0.6-0.4,0.9
	c-0.3,0.2-0.7,0.3-1.1,0.3c-0.5,0-0.9-0.1-1.2-0.4c-0.3-0.2-0.5-0.5-0.5-0.9h0.5c0,0.3,0.1,0.5,0.3,0.6c0.2,0.2,0.5,0.2,0.8,0.2
	c0.3,0,0.6-0.1,0.8-0.2C109.3,163.1,109.4,162.9,109.4,162.7z M112.5,163.5c0.3,0,0.6-0.1,0.8-0.3c0.2-0.2,0.3-0.4,0.4-0.7h0.4
	c0,0.3-0.1,0.5-0.2,0.7c-0.1,0.2-0.3,0.4-0.6,0.5s-0.5,0.2-0.8,0.2c-0.6,0-1-0.2-1.3-0.6c-0.3-0.4-0.5-0.9-0.5-1.6v-0.1
	c0-0.4,0.1-0.8,0.2-1.1c0.1-0.3,0.4-0.6,0.6-0.7c0.3-0.2,0.6-0.3,1-0.3c0.5,0,0.8,0.1,1.1,0.4c0.3,0.3,0.5,0.6,0.5,1.1h-0.4
	c0-0.3-0.1-0.6-0.4-0.8c-0.2-0.2-0.5-0.3-0.8-0.3c-0.4,0-0.7,0.2-1,0.5c-0.2,0.3-0.3,0.7-0.3,1.3v0.1c0,0.5,0.1,1,0.3,1.3
	C111.7,163.3,112.1,163.5,112.5,163.5z M115,158.3c0-0.1,0-0.2,0.1-0.2c0.1-0.1,0.1-0.1,0.2-0.1c0.1,0,0.2,0,0.2,0.1
	s0.1,0.1,0.1,0.2s0,0.2-0.1,0.2c-0.1,0.1-0.1,0.1-0.2,0.1c-0.1,0-0.2,0-0.2-0.1C115.1,158.5,115,158.4,115,158.3z M115.6,163.8h-0.5
	v-4.2h0.5V163.8z M120,163.1c-0.3,0.5-0.8,0.7-1.5,0.7c-0.4,0-0.7-0.1-1-0.3c-0.3-0.2-0.5-0.4-0.7-0.7c-0.2-0.3-0.2-0.7-0.2-1.1
	v-0.2c0-0.4,0.1-0.8,0.2-1.1c0.2-0.3,0.4-0.6,0.7-0.8c0.3-0.2,0.6-0.3,0.9-0.3c0.5,0,0.9,0.2,1.2,0.5c0.3,0.4,0.5,0.8,0.5,1.4v0.3
	h-3v0.1c0,0.5,0.1,0.9,0.4,1.2c0.3,0.3,0.6,0.5,1,0.5c0.2,0,0.5,0,0.7-0.1c0.2-0.1,0.4-0.2,0.5-0.4L120,163.1L120,163.1z
	 M118.4,159.9c-0.4,0-0.6,0.1-0.9,0.4c-0.2,0.3-0.4,0.6-0.4,1h2.5v-0.1c0-0.4-0.1-0.7-0.3-1C119,160,118.8,159.9,118.4,159.9z
	 M121.4,159.5l0,0.7c0.2-0.3,0.4-0.5,0.6-0.6c0.2-0.1,0.5-0.2,0.8-0.2c0.5,0,0.8,0.1,1,0.4c0.2,0.3,0.3,0.6,0.3,1.1v2.8h-0.5V161
	c0-0.4-0.1-0.7-0.2-0.8c-0.2-0.2-0.4-0.3-0.8-0.3c-0.3,0-0.5,0.1-0.8,0.3c-0.2,0.2-0.4,0.4-0.5,0.7v2.9H121v-4.2H121.4z
	 M126.1,158.5v1.1h0.9v0.4h-0.9v2.8c0,0.2,0,0.4,0.1,0.5c0.1,0.1,0.2,0.2,0.4,0.2c0.1,0,0.2,0,0.4,0l0,0.4c-0.1,0-0.3,0.1-0.5,0.1
	c-0.3,0-0.6-0.1-0.7-0.3c-0.1-0.2-0.2-0.5-0.2-0.8v-2.8h-0.8v-0.4h0.8v-1.1H126.1z M127.9,158.3c0-0.1,0-0.2,0.1-0.2
	c0.1-0.1,0.1-0.1,0.2-0.1c0.1,0,0.2,0,0.2,0.1s0.1,0.1,0.1,0.2s0,0.2-0.1,0.2c-0.1,0.1-0.1,0.1-0.2,0.1c-0.1,0-0.2,0-0.2-0.1
	C127.9,158.5,127.9,158.4,127.9,158.3z M128.5,163.8H128v-4.2h0.5V163.8z M130,163.8v-3.8h-0.7v-0.4h0.7v-0.4c0-0.5,0.1-0.8,0.4-1
	c0.2-0.2,0.6-0.4,1-0.4c0.3,0,0.7,0.1,1.1,0.2l-0.1,0.4c-0.3-0.1-0.6-0.2-1-0.2c-0.6,0-1,0.3-1,1v0.4h1v0.4h-1v3.8H130z
	 M132.7,163.8h-0.5v-4.2h0.5V163.8z M135.6,163.5c0.3,0,0.6-0.1,0.8-0.3c0.2-0.2,0.3-0.4,0.4-0.7h0.4c0,0.3-0.1,0.5-0.2,0.7
	c-0.1,0.2-0.3,0.4-0.6,0.5s-0.5,0.2-0.8,0.2c-0.6,0-1-0.2-1.3-0.6c-0.3-0.4-0.5-0.9-0.5-1.6v-0.1c0-0.4,0.1-0.8,0.2-1.1
	c0.1-0.3,0.4-0.6,0.6-0.7c0.3-0.2,0.6-0.3,1-0.3c0.5,0,0.8,0.1,1.1,0.4c0.3,0.3,0.5,0.6,0.5,1.1h-0.4c0-0.3-0.1-0.6-0.4-0.8
	c-0.2-0.2-0.5-0.3-0.8-0.3c-0.4,0-0.7,0.2-1,0.5c-0.2,0.3-0.3,0.7-0.3,1.3v0.1c0,0.5,0.1,1,0.3,1.3
	C134.8,163.3,135.2,163.5,135.6,163.5z M142,159.9c-0.1,0-0.2,0-0.3,0c-0.3,0-0.5,0.1-0.7,0.2c-0.2,0.2-0.3,0.4-0.4,0.7v2.9h-0.5
	v-4.2h0.5l0,0.7c0.2-0.5,0.6-0.8,1.2-0.8c0.1,0,0.2,0,0.3,0.1L142,159.9z M145.9,163.1c-0.3,0.5-0.8,0.7-1.5,0.7
	c-0.4,0-0.7-0.1-1-0.3c-0.3-0.2-0.5-0.4-0.7-0.7c-0.2-0.3-0.2-0.7-0.2-1.1v-0.2c0-0.4,0.1-0.8,0.2-1.1c0.2-0.3,0.4-0.6,0.7-0.8
	c0.3-0.2,0.6-0.3,0.9-0.3c0.5,0,0.9,0.2,1.2,0.5c0.3,0.4,0.5,0.8,0.5,1.4v0.3h-3v0.1c0,0.5,0.1,0.9,0.4,1.2c0.3,0.3,0.6,0.5,1,0.5
	c0.2,0,0.5,0,0.7-0.1c0.2-0.1,0.4-0.2,0.5-0.4L145.9,163.1L145.9,163.1z M144.3,159.9c-0.4,0-0.6,0.1-0.9,0.4
	c-0.2,0.3-0.4,0.6-0.4,1h2.5v-0.1c0-0.4-0.1-0.7-0.3-1C144.9,160,144.6,159.9,144.3,159.9z M149.4,162.7c0-0.2-0.1-0.4-0.3-0.6
	c-0.2-0.1-0.5-0.3-0.8-0.3c-0.4-0.1-0.7-0.2-0.9-0.3c-0.2-0.1-0.4-0.2-0.5-0.4c-0.1-0.1-0.2-0.3-0.2-0.5c0-0.3,0.1-0.6,0.4-0.8
	c0.3-0.2,0.6-0.3,1.1-0.3c0.5,0,0.8,0.1,1.1,0.3c0.3,0.2,0.4,0.5,0.4,0.9h-0.5c0-0.2-0.1-0.5-0.3-0.6s-0.5-0.2-0.8-0.2
	c-0.3,0-0.6,0.1-0.7,0.2c-0.2,0.1-0.3,0.3-0.3,0.5c0,0.2,0.1,0.4,0.2,0.5c0.2,0.1,0.4,0.2,0.8,0.3c0.4,0.1,0.7,0.2,0.9,0.3
	c0.2,0.1,0.4,0.2,0.5,0.4c0.1,0.2,0.1,0.3,0.1,0.6c0,0.4-0.1,0.6-0.4,0.9c-0.3,0.2-0.7,0.3-1.1,0.3c-0.5,0-0.9-0.1-1.2-0.4
	c-0.3-0.2-0.5-0.5-0.5-0.9h0.5c0,0.3,0.1,0.5,0.3,0.6c0.2,0.2,0.5,0.2,0.8,0.2c0.3,0,0.6-0.1,0.8-0.2
	C149.3,163.1,149.4,162.9,149.4,162.7z M154,163.1c-0.3,0.5-0.8,0.7-1.5,0.7c-0.4,0-0.7-0.1-1-0.3c-0.3-0.2-0.5-0.4-0.7-0.7
	c-0.2-0.3-0.2-0.7-0.2-1.1v-0.2c0-0.4,0.1-0.8,0.2-1.1c0.2-0.3,0.4-0.6,0.7-0.8c0.3-0.2,0.6-0.3,0.9-0.3c0.5,0,0.9,0.2,1.2,0.5
	c0.3,0.4,0.5,0.8,0.5,1.4v0.3h-3v0.1c0,0.5,0.1,0.9,0.4,1.2c0.3,0.3,0.6,0.5,1,0.5c0.2,0,0.5,0,0.7-0.1c0.2-0.1,0.4-0.2,0.5-0.4
	L154,163.1L154,163.1z M152.5,159.9c-0.4,0-0.6,0.1-0.9,0.4c-0.2,0.3-0.4,0.6-0.4,1h2.5v-0.1c0-0.4-0.1-0.7-0.3-1
	C153.1,160,152.8,159.9,152.5,159.9z M157.7,163.8c0-0.1-0.1-0.3-0.1-0.6c-0.2,0.2-0.4,0.4-0.6,0.5s-0.5,0.2-0.8,0.2
	c-0.4,0-0.7-0.1-1-0.3c-0.3-0.2-0.4-0.5-0.4-0.9c0-0.4,0.2-0.7,0.5-1c0.3-0.2,0.8-0.4,1.4-0.4h0.8v-0.5c0-0.3-0.1-0.5-0.3-0.7
	c-0.2-0.2-0.5-0.3-0.8-0.3c-0.3,0-0.6,0.1-0.8,0.2c-0.2,0.2-0.3,0.4-0.3,0.6l-0.5,0c0-0.3,0.2-0.6,0.5-0.9s0.7-0.4,1.2-0.4
	c0.5,0,0.8,0.1,1.1,0.4c0.3,0.2,0.4,0.6,0.4,1v2c0,0.4,0,0.7,0.1,0.9v0H157.7z M156.2,163.4c0.3,0,0.6-0.1,0.8-0.2
	c0.2-0.2,0.4-0.4,0.5-0.6v-0.9h-0.8c-0.5,0-0.8,0.1-1.1,0.3c-0.3,0.2-0.4,0.4-0.4,0.7c0,0.2,0.1,0.4,0.3,0.6S156,163.4,156.2,163.4z
	 M161.3,159.9c-0.1,0-0.2,0-0.3,0c-0.3,0-0.5,0.1-0.7,0.2c-0.2,0.2-0.3,0.4-0.4,0.7v2.9h-0.5v-4.2h0.5l0,0.7
	c0.2-0.5,0.6-0.8,1.2-0.8c0.1,0,0.2,0,0.3,0.1L161.3,159.9z M163.5,163.5c0.3,0,0.6-0.1,0.8-0.3c0.2-0.2,0.3-0.4,0.4-0.7h0.4
	c0,0.3-0.1,0.5-0.2,0.7c-0.1,0.2-0.3,0.4-0.6,0.5s-0.5,0.2-0.8,0.2c-0.6,0-1-0.2-1.3-0.6c-0.3-0.4-0.5-0.9-0.5-1.6v-0.1
	c0-0.4,0.1-0.8,0.2-1.1c0.1-0.3,0.4-0.6,0.6-0.7c0.3-0.2,0.6-0.3,1-0.3c0.5,0,0.8,0.1,1.1,0.4c0.3,0.3,0.5,0.6,0.5,1.1h-0.4
	c0-0.3-0.1-0.6-0.4-0.8c-0.2-0.2-0.5-0.3-0.8-0.3c-0.4,0-0.7,0.2-1,0.5c-0.2,0.3-0.3,0.7-0.3,1.3v0.1c0,0.5,0.1,1,0.3,1.3
	C162.7,163.3,163.1,163.5,163.5,163.5z M166.5,160.3c0.2-0.3,0.4-0.4,0.6-0.6c0.2-0.1,0.5-0.2,0.8-0.2c0.5,0,0.8,0.1,1,0.4
	c0.2,0.3,0.3,0.6,0.3,1.1v2.8h-0.5V161c0-0.4-0.1-0.7-0.2-0.8c-0.2-0.2-0.4-0.3-0.8-0.3c-0.3,0-0.5,0.1-0.8,0.3
	c-0.2,0.2-0.4,0.4-0.5,0.7v2.9h-0.5v-6h0.5V160.3z M170.9,163.5c0,0.5-0.2,1-0.5,1.3l-0.3-0.2c0.2-0.3,0.4-0.6,0.4-1V163h0.5V163.5
	L170.9,163.5z M177.3,161.7c0,0.7-0.1,1.2-0.4,1.6c-0.3,0.4-0.7,0.6-1.2,0.6c-0.6,0-1-0.2-1.3-0.7l0,0.6h-0.4v-6h0.5v2.4
	c0.3-0.5,0.7-0.7,1.3-0.7c0.5,0,0.9,0.2,1.2,0.6C177.2,160.4,177.3,161,177.3,161.7L177.3,161.7z M176.9,161.6c0-0.6-0.1-1-0.3-1.3
	c-0.2-0.3-0.5-0.5-0.9-0.5c-0.3,0-0.6,0.1-0.8,0.2c-0.2,0.1-0.4,0.4-0.5,0.6v1.9c0.2,0.5,0.6,0.8,1.2,0.8c0.4,0,0.7-0.2,0.9-0.5
	C176.7,162.7,176.9,162.2,176.9,161.6z M181.1,163.2c-0.3,0.4-0.7,0.6-1.3,0.6c-0.5,0-0.8-0.1-1-0.4s-0.4-0.6-0.4-1.2v-2.8h0.5v2.7
	c0,0.8,0.3,1.2,1,1.2c0.7,0,1.1-0.3,1.3-0.8v-3.1h0.5v4.2h-0.5L181.1,163.2z M183.5,158.5v1.1h0.9v0.4h-0.9v2.8c0,0.2,0,0.4,0.1,0.5
	c0.1,0.1,0.2,0.2,0.4,0.2c0.1,0,0.2,0,0.4,0l0,0.4c-0.1,0-0.3,0.1-0.5,0.1c-0.3,0-0.6-0.1-0.7-0.3c-0.1-0.2-0.2-0.5-0.2-0.8v-2.8
	h-0.8v-0.4h0.8v-1.1H183.5z M189.9,163.8c0-0.1-0.1-0.3-0.1-0.6c-0.2,0.2-0.4,0.4-0.6,0.5s-0.5,0.2-0.8,0.2c-0.4,0-0.7-0.1-1-0.3
	c-0.3-0.2-0.4-0.5-0.4-0.9c0-0.4,0.2-0.7,0.5-1c0.3-0.2,0.8-0.4,1.4-0.4h0.8v-0.5c0-0.3-0.1-0.5-0.3-0.7c-0.2-0.2-0.5-0.3-0.8-0.3
	c-0.3,0-0.6,0.1-0.8,0.2c-0.2,0.2-0.3,0.4-0.3,0.6l-0.5,0c0-0.3,0.2-0.6,0.5-0.9s0.7-0.4,1.2-0.4c0.5,0,0.8,0.1,1.1,0.4
	c0.3,0.2,0.4,0.6,0.4,1v2c0,0.4,0,0.7,0.1,0.9v0H189.9z M188.5,163.4c0.3,0,0.6-0.1,0.8-0.2c0.2-0.2,0.4-0.4,0.5-0.6v-0.9H189
	c-0.5,0-0.8,0.1-1.1,0.3c-0.3,0.2-0.4,0.4-0.4,0.7c0,0.2,0.1,0.4,0.3,0.6S188.2,163.4,188.5,163.4z M192.1,163.8h-0.5v-6h0.5V163.8z
	 M195.9,162.7c0-0.2-0.1-0.4-0.3-0.6c-0.2-0.1-0.5-0.3-0.8-0.3c-0.4-0.1-0.7-0.2-0.9-0.3c-0.2-0.1-0.4-0.2-0.5-0.4
	c-0.1-0.1-0.2-0.3-0.2-0.5c0-0.3,0.1-0.6,0.4-0.8c0.3-0.2,0.6-0.3,1.1-0.3c0.5,0,0.8,0.1,1.1,0.3c0.3,0.2,0.4,0.5,0.4,0.9h-0.5
	c0-0.2-0.1-0.5-0.3-0.6s-0.5-0.2-0.8-0.2c-0.3,0-0.6,0.1-0.7,0.2c-0.2,0.1-0.3,0.3-0.3,0.5c0,0.2,0.1,0.4,0.2,0.5
	c0.2,0.1,0.4,0.2,0.8,0.3c0.4,0.1,0.7,0.2,0.9,0.3c0.2,0.1,0.4,0.2,0.5,0.4c0.1,0.2,0.1,0.3,0.1,0.6c0,0.4-0.1,0.6-0.4,0.9
	c-0.3,0.2-0.7,0.3-1.1,0.3c-0.5,0-0.9-0.1-1.2-0.4c-0.3-0.2-0.5-0.5-0.5-0.9h0.5c0,0.3,0.1,0.5,0.3,0.6c0.2,0.2,0.5,0.2,0.8,0.2
	c0.3,0,0.6-0.1,0.8-0.2C195.8,163.1,195.9,162.9,195.9,162.7z M197.1,161.6c0-0.4,0.1-0.8,0.2-1.1c0.2-0.3,0.4-0.6,0.7-0.8
	c0.3-0.2,0.6-0.3,1-0.3c0.6,0,1,0.2,1.4,0.6c0.3,0.4,0.5,0.9,0.5,1.6v0.1c0,0.4-0.1,0.8-0.2,1.1c-0.2,0.3-0.4,0.6-0.7,0.8
	c-0.3,0.2-0.6,0.3-1,0.3c-0.6,0-1-0.2-1.4-0.6C197.3,162.9,197.1,162.3,197.1,161.6L197.1,161.6z M197.6,161.7
	c0,0.5,0.1,0.9,0.4,1.2s0.6,0.5,1,0.5c0.4,0,0.8-0.2,1-0.5s0.4-0.8,0.4-1.3v-0.1c0-0.3-0.1-0.6-0.2-0.9c-0.1-0.3-0.3-0.5-0.5-0.6
	c-0.2-0.1-0.5-0.2-0.7-0.2c-0.4,0-0.8,0.2-1,0.5C197.7,160.7,197.6,161.1,197.6,161.7L197.6,161.7z M204.3,163.8h-0.5v-6h0.5V163.8z
	 M208.7,163.1c-0.3,0.5-0.8,0.7-1.5,0.7c-0.4,0-0.7-0.1-1-0.3c-0.3-0.2-0.5-0.4-0.7-0.7c-0.2-0.3-0.2-0.7-0.2-1.1v-0.2
	c0-0.4,0.1-0.8,0.2-1.1c0.2-0.3,0.4-0.6,0.7-0.8c0.3-0.2,0.6-0.3,0.9-0.3c0.5,0,0.9,0.2,1.2,0.5c0.3,0.4,0.5,0.8,0.5,1.4v0.3h-3v0.1
	c0,0.5,0.1,0.9,0.4,1.2c0.3,0.3,0.6,0.5,1,0.5c0.2,0,0.5,0,0.7-0.1c0.2-0.1,0.4-0.2,0.5-0.4L208.7,163.1L208.7,163.1z M207.2,159.9
	c-0.4,0-0.6,0.1-0.9,0.4c-0.2,0.3-0.4,0.6-0.4,1h2.5v-0.1c0-0.4-0.1-0.7-0.3-1C207.8,160,207.5,159.9,207.2,159.9z M212.3,162.7
	c0-0.2-0.1-0.4-0.3-0.6c-0.2-0.1-0.5-0.3-0.8-0.3c-0.4-0.1-0.7-0.2-0.9-0.3c-0.2-0.1-0.4-0.2-0.5-0.4c-0.1-0.1-0.2-0.3-0.2-0.5
	c0-0.3,0.1-0.6,0.4-0.8c0.3-0.2,0.6-0.3,1.1-0.3c0.5,0,0.8,0.1,1.1,0.3c0.3,0.2,0.4,0.5,0.4,0.9h-0.5c0-0.2-0.1-0.5-0.3-0.6
	s-0.5-0.2-0.8-0.2c-0.3,0-0.6,0.1-0.7,0.2c-0.2,0.1-0.3,0.3-0.3,0.5c0,0.2,0.1,0.4,0.2,0.5c0.2,0.1,0.4,0.2,0.8,0.3
	c0.4,0.1,0.7,0.2,0.9,0.3c0.2,0.1,0.4,0.2,0.5,0.4c0.1,0.2,0.1,0.3,0.1,0.6c0,0.4-0.1,0.6-0.4,0.9c-0.3,0.2-0.7,0.3-1.1,0.3
	c-0.5,0-0.9-0.1-1.2-0.4c-0.3-0.2-0.5-0.5-0.5-0.9h0.5c0,0.3,0.1,0.5,0.3,0.6c0.2,0.2,0.5,0.2,0.8,0.2c0.3,0,0.6-0.1,0.8-0.2
	C212.2,163.1,212.3,162.9,212.3,162.7z M216.3,162.7c0-0.2-0.1-0.4-0.3-0.6c-0.2-0.1-0.5-0.3-0.8-0.3c-0.4-0.1-0.7-0.2-0.9-0.3
	c-0.2-0.1-0.4-0.2-0.5-0.4c-0.1-0.1-0.2-0.3-0.2-0.5c0-0.3,0.1-0.6,0.4-0.8c0.3-0.2,0.6-0.3,1.1-0.3c0.5,0,0.8,0.1,1.1,0.3
	c0.3,0.2,0.4,0.5,0.4,0.9h-0.5c0-0.2-0.1-0.5-0.3-0.6s-0.5-0.2-0.8-0.2c-0.3,0-0.6,0.1-0.7,0.2c-0.2,0.1-0.3,0.3-0.3,0.5
	c0,0.2,0.1,0.4,0.2,0.5c0.2,0.1,0.4,0.2,0.8,0.3c0.4,0.1,0.7,0.2,0.9,0.3c0.2,0.1,0.4,0.2,0.5,0.4c0.1,0.2,0.1,0.3,0.1,0.6
	c0,0.4-0.1,0.6-0.4,0.9c-0.3,0.2-0.7,0.3-1.1,0.3c-0.5,0-0.9-0.1-1.2-0.4c-0.3-0.2-0.5-0.5-0.5-0.9h0.5c0,0.3,0.1,0.5,0.3,0.6
	c0.2,0.2,0.5,0.2,0.8,0.2c0.3,0,0.6-0.1,0.8-0.2C216.2,163.1,216.3,162.9,216.3,162.7z M221.3,163.5c0.3,0,0.6-0.1,0.8-0.3
	c0.2-0.2,0.3-0.4,0.4-0.7h0.4c0,0.3-0.1,0.5-0.2,0.7c-0.1,0.2-0.3,0.4-0.6,0.5s-0.5,0.2-0.8,0.2c-0.6,0-1-0.2-1.3-0.6
	c-0.3-0.4-0.5-0.9-0.5-1.6v-0.1c0-0.4,0.1-0.8,0.2-1.1c0.1-0.3,0.4-0.6,0.6-0.7c0.3-0.2,0.6-0.3,1-0.3c0.5,0,0.8,0.1,1.1,0.4
	c0.3,0.3,0.5,0.6,0.5,1.1h-0.4c0-0.3-0.1-0.6-0.4-0.8c-0.2-0.2-0.5-0.3-0.8-0.3c-0.4,0-0.7,0.2-1,0.5c-0.2,0.3-0.3,0.7-0.3,1.3v0.1
	c0,0.5,0.1,1,0.3,1.3C220.6,163.3,220.9,163.5,221.3,163.5z M223.6,161.6c0-0.4,0.1-0.8,0.2-1.1c0.2-0.3,0.4-0.6,0.7-0.8
	c0.3-0.2,0.6-0.3,1-0.3c0.6,0,1,0.2,1.4,0.6c0.3,0.4,0.5,0.9,0.5,1.6v0.1c0,0.4-0.1,0.8-0.2,1.1c-0.2,0.3-0.4,0.6-0.7,0.8
	c-0.3,0.2-0.6,0.3-1,0.3c-0.6,0-1-0.2-1.4-0.6C223.8,162.9,223.6,162.3,223.6,161.6L223.6,161.6z M224.1,161.7
	c0,0.5,0.1,0.9,0.4,1.2s0.6,0.5,1,0.5c0.4,0,0.8-0.2,1-0.5s0.4-0.8,0.4-1.3v-0.1c0-0.3-0.1-0.6-0.2-0.9c-0.1-0.3-0.3-0.5-0.5-0.6
	c-0.2-0.1-0.5-0.2-0.7-0.2c-0.4,0-0.8,0.2-1,0.5C224.2,160.7,224.1,161.1,224.1,161.7L224.1,161.7z M230.3,159.9c-0.1,0-0.2,0-0.3,0
	c-0.3,0-0.5,0.1-0.7,0.2c-0.2,0.2-0.3,0.4-0.4,0.7v2.9h-0.5v-4.2h0.5l0,0.7c0.2-0.5,0.6-0.8,1.2-0.8c0.1,0,0.2,0,0.3,0.1
	L230.3,159.9z M233,159.9c-0.1,0-0.2,0-0.3,0c-0.3,0-0.5,0.1-0.7,0.2c-0.2,0.2-0.3,0.4-0.4,0.7v2.9h-0.5v-4.2h0.5l0,0.7
	c0.2-0.5,0.6-0.8,1.2-0.8c0.1,0,0.2,0,0.3,0.1L233,159.9z M236.8,163.1c-0.3,0.5-0.8,0.7-1.5,0.7c-0.4,0-0.7-0.1-1-0.3
	c-0.3-0.2-0.5-0.4-0.7-0.7c-0.2-0.3-0.2-0.7-0.2-1.1v-0.2c0-0.4,0.1-0.8,0.2-1.1c0.2-0.3,0.4-0.6,0.7-0.8c0.3-0.2,0.6-0.3,0.9-0.3
	c0.5,0,0.9,0.2,1.2,0.5c0.3,0.4,0.5,0.8,0.5,1.4v0.3h-3v0.1c0,0.5,0.1,0.9,0.4,1.2c0.3,0.3,0.6,0.5,1,0.5c0.2,0,0.5,0,0.7-0.1
	c0.2-0.1,0.4-0.2,0.5-0.4L236.8,163.1L236.8,163.1z M235.3,159.9c-0.4,0-0.6,0.1-0.9,0.4c-0.2,0.3-0.4,0.6-0.4,1h2.5v-0.1
	c0-0.4-0.1-0.7-0.3-1C235.9,160,235.6,159.9,235.3,159.9z M239.4,163.5c0.3,0,0.6-0.1,0.8-0.3c0.2-0.2,0.3-0.4,0.4-0.7h0.4
	c0,0.3-0.1,0.5-0.2,0.7c-0.1,0.2-0.3,0.4-0.6,0.5s-0.5,0.2-0.8,0.2c-0.6,0-1-0.2-1.3-0.6c-0.3-0.4-0.5-0.9-0.5-1.6v-0.1
	c0-0.4,0.1-0.8,0.2-1.1c0.1-0.3,0.4-0.6,0.6-0.7c0.3-0.2,0.6-0.3,1-0.3c0.5,0,0.8,0.1,1.1,0.4c0.3,0.3,0.5,0.6,0.5,1.1h-0.4
	c0-0.3-0.1-0.6-0.4-0.8c-0.2-0.2-0.5-0.3-0.8-0.3c-0.4,0-0.7,0.2-1,0.5c-0.2,0.3-0.3,0.7-0.3,1.3v0.1c0,0.5,0.1,1,0.3,1.3
	C238.7,163.3,239,163.5,239.4,163.5z M242.7,158.5v1.1h0.9v0.4h-0.9v2.8c0,0.2,0,0.4,0.1,0.5c0.1,0.1,0.2,0.2,0.4,0.2
	c0.1,0,0.2,0,0.4,0l0,0.4c-0.1,0-0.3,0.1-0.5,0.1c-0.3,0-0.6-0.1-0.7-0.3c-0.1-0.2-0.2-0.5-0.2-0.8v-2.8h-0.8v-0.4h0.8v-1.1H242.7z"
	/>
<text transform="matrix(1 0 0 1 91.2048 173.3737)"><tspan x="0" y="0" class="st3 st4 st5">and </tspan><tspan x="15.1" y="0" class="st3 st4 st5">ev</tspan><tspan x="23" y="0" class="st3 st4 st5">en er</tspan><tspan x="40.3" y="0" class="st3 st4 st5">r</tspan><tspan x="42.9" y="0" class="st3 st4 st5">oneous advice.</tspan><tspan x="95.3" y="0" class="st3 st4 st5"> </tspan><tspan x="97.1" y="0" class="st3 st4 st5">The cor</tspan><tspan x="123.6" y="0" class="st3 st4 st5">r</tspan><tspan x="126.2" y="0" class="st3 st4 st5">ectness </tspan></text>
<text transform="matrix(1 0 0 1 91.2048 182.9742)"><tspan x="0" y="0" class="st3 st4 st5">and </tspan><tspan x="15.1" y="0" class="st3 st4 st5">r</tspan><tspan x="17.7" y="0" class="st3 st4 st5">eliability of </tspan><tspan x="56.9" y="0" class="st3 st4 st5">“</tspan><tspan x="59.1" y="0" class="st3 st4 st5">doc</tspan><tspan x="72.1" y="0" class="st3 st4 st5">t</tspan><tspan x="74.6" y="0" class="st3 st4 st5">or googl</tspan><tspan x="103.4" y="0" class="st3 st4 st5">e</tspan><tspan x="107.4" y="0" class="st3 st4 st5">” m</tspan><tspan x="118.9" y="0" class="st3 st4 st5">a</tspan><tspan x="123.1" y="0" class="st3 st4 st5">y rightly </tspan></text>
<text transform="matrix(1 0 0 1 91.2048 192.5739)" class="st3 st4 st5">be questioned.</text>
<text transform="matrix(1 0 0 1 91.2048 211.774)"><tspan x="0" y="0" class="st3 st4 st5">Y</tspan><tspan x="4.5" y="0" class="st3 st4 st5">et the</tspan><tspan x="24.3" y="0" class="st3 st4 st5">r</tspan><tspan x="26.9" y="0" class="st3 st4 st5">e a</tspan><tspan x="37.3" y="0" class="st3 st4 st5">r</tspan><tspan x="39.9" y="0" class="st3 st4 st5">e a huge number of people who </tspan></text>
<text transform="matrix(1 0 0 1 91.2048 221.3737)"><tspan x="0" y="0" class="st3 st4 st5">use the internet </tspan><tspan x="56.2" y="0" class="st3 st4 st5">t</tspan><tspan x="58.7" y="0" class="st3 st4 st5">o obtain medical advice. </tspan></text>
<text transform="matrix(1 0 0 1 91.2048 230.9742)"><tspan x="0" y="0" class="st3 st4 st5">A su</tspan><tspan x="15.4" y="0" class="st3 st4 st5">r</tspan><tspan x="18.1" y="0" class="st3 st4 st5">ve</tspan><tspan x="26" y="0" class="st3 st4 st5">y of the Christian Mutuality showed </tspan></text>
<text transform="matrix(1 0 0 1 91.2048 240.5739)"><tspan x="0" y="0" class="st3 st4 st5">that 91% of Flemish people </tspan><tspan x="96.6" y="0" class="st3 st4 st5">r</tspan><tspan x="99.2" y="0" class="st3 st4 st5">egularly call on </tspan></text>
<text transform="matrix(1 0 0 1 91.2048 250.1744)"><tspan x="0" y="0" class="st3 st4 st5">doc</tspan><tspan x="13" y="0" class="st3 st4 st5">t</tspan><tspan x="15.5" y="0" class="st3 st4 st5">or Google.</tspan></text>
<text transform="matrix(1 0 0 1 91.2048 269.3737)"><tspan x="0" y="0" class="st3 st4 st5">Banal symp</tspan><tspan x="41" y="0" class="st3 st4 st5">t</tspan><tspan x="43.5" y="0" class="st3 st4 st5">oms a</tspan><tspan x="65.3" y="0" class="st3 st4 st5">r</tspan><tspan x="68" y="0" class="st3 st4 st5">e quickly lin</tspan><tspan x="108.2" y="0" class="st3 st4 st5">k</tspan><tspan x="112.1" y="0" class="st3 st4 st5">ed </tspan><tspan x="122.6" y="0" class="st3 st4 st5">b</tspan><tspan x="127" y="0" class="st3 st4 st5">y the </tspan></text>
<text transform="matrix(1 0 0 1 91.2048 278.9742)"><tspan x="0" y="0" class="st3 st4 st5">internet </tspan><tspan x="28.6" y="0" class="st3 st4 st5">t</tspan><tspan x="31.1" y="0" class="st3 st4 st5">o serious and </tspan><tspan x="80.2" y="0" class="st3 st4 st5">e</tspan><tspan x="84.3" y="0" class="st3 st4 st5">v</tspan><tspan x="88.1" y="0" class="st3 st4 st5">en fatal diso</tspan><tspan x="130.8" y="0" class="st3 st4 st5">r</tspan><tspan x="133.5" y="0" class="st3 st4 st5">ders.</tspan></text>
<text transform="matrix(1 0 0 1 91.2048 298.1744)"><tspan x="0" y="0" class="st3 st4 st5">S</tspan><tspan x="4.7" y="0" class="st3 st4 st5">t</tspan><tspan x="7.2" y="0" class="st3 st4 st5">op googling </tspan><tspan x="50.3" y="0" class="st3 st4 st5">y</tspan><tspan x="54" y="0" class="st3 st4 st5">our symp</tspan><tspan x="86.9" y="0" class="st3 st4 st5">t</tspan><tspan x="89.4" y="0" class="st3 st4 st5">oms and accept </tspan></text>
<text transform="matrix(1 0 0 1 91.2048 307.774)"><tspan x="0" y="0" class="st3 st4 st5">that </tspan><tspan x="15.8" y="0" class="st3 st4 st5">y</tspan><tspan x="19.5" y="0" class="st3 st4 st5">ou a</tspan><tspan x="34.6" y="0" class="st3 st4 st5">r</tspan><tspan x="37.2" y="0" class="st3 st4 st5">e dying.</tspan></text>
<text transform="matrix(1 0 0 1 83.801 24.7462)"><tspan x="0" y="0" class="st9 st10 st11">D</tspan><tspan x="13.1" y="0" class="st9 st10 st11 st12">r</tspan><tspan x="18.7" y="0" class="st9 st10 st11">. G</tspan></text>
<text transform="matrix(1 0 0 1 126.323 24.7462)" class="st13 st10 st11">o</text>
<text transform="matrix(1 0 0 1 137.7229 24.7462)" class="st3 st10 st11">o</text>
<text transform="matrix(1 0 0 1 149.1233 24.7462)" class="st9 st10 st11">g</text>
<text transform="matrix(1 0 0 1 160.3435 24.7462)" class="st14 st10 st11">l</text>
<text transform="matrix(1 0 0 1 165.2034 24.7462)" class="st13 st10 st11">e</text>
</svg>
