<?xml version="1.0" encoding="utf-8"?>
<!-- Generator: Adobe Illustrator 23.0.1, SVG Export Plug-In . SVG Version: 6.00 Build 0)  -->
<svg version="1.1" id="Laag_1" xmlns="http://www.w3.org/2000/svg" xmlns:xlink="http://www.w3.org/1999/xlink" x="0px" y="0px"
	 viewBox="0 0 259.7 641.7" style="enable-background:new 0 0 259.7 641.7;" xml:space="preserve">
<style type="text/css">
	.st0{fill:none;stroke:#517ABD;stroke-width:0.335;}
	.st1{fill:none;stroke:#31A852;}
	.st2{fill:#3FA535;}
	.st3{font-family:'Roboto-Light';}
	.st4{font-size:8px;}
	.st5{font-family:'Roboto-Bold';}
	.st6{fill:#31A852;}
	.st7{font-size:10px;}
	.st8{clip-path:url(#SVGID_2_);}
	.st9{fill:#517ABD;}
	.st10{font-family:'Roboto-Regular';}
	.st11{font-size:20px;}
	.st12{letter-spacing:-1;}
	.st13{fill:#E84435;}
	.st14{fill:#FCBC05;}
</style>
<rect x="2.4" y="1.6" class="st0" width="255.3" height="639"/>
<rect x="2.2" y="1.7" class="st1" width="255.3" height="639.2"/>
<line class="st1" x1="2.1" y1="36.7" x2="257.7" y2="36.7"/>
<line class="st1" x1="2.1" y1="91.2" x2="257.7" y2="91.2"/>
<line class="st1" x1="2.1" y1="614.4" x2="257.7" y2="614.4"/>
<line class="st1" x1="82.6" y1="91.4" x2="82.6" y2="614.9"/>
<line class="st1" x1="130.2" y1="36.7" x2="130.2" y2="91.2"/>
<text transform="matrix(1 0 0 1 136.0622 48.2107)"><tspan x="0" y="0" class="st2 st3 st4">Name und </tspan><tspan x="38.3" y="0" class="st2 st3 st4">V</tspan><tspan x="43.1" y="0" class="st2 st3 st4">orname des </tspan></text>
<text transform="matrix(1 0 0 1 136.0622 57.8108)"><tspan x="0" y="0" class="st2 st3 st4">V</tspan><tspan x="4.8" y="0" class="st2 st3 st4">ersch</tspan><tspan x="24.2" y="0" class="st2 st3 st4">r</tspan><tspan x="26.8" y="0" class="st2 st3 st4">eibers:</tspan></text>
<text transform="matrix(1 0 0 1 136.2062 77.0109)"><tspan x="0" y="0" class="st2 st5 st4">A</tspan><tspan x="5.7" y="0" class="st2 st5 st4">R</tspan><tspan x="10.8" y="0" class="st2 st5 st4">T</tspan><tspan x="16.1" y="0" class="st2 st5 st4">Z </tspan><tspan x="23.2" y="0" class="st2 st5 st4">GO</tspan><tspan x="34.7" y="0" class="st2 st5 st4">O</tspan><tspan x="40.5" y="0" class="st2 st5 st4">G</tspan><tspan x="46.2" y="0" class="st2 st5 st4">L</tspan><tspan x="50.8" y="0" class="st2 st5 st4">E</tspan></text>
<text transform="matrix(1 0 0 1 7.7663 103.0671)"><tspan x="0" y="0" class="st6 st3 st4">A</tspan><tspan x="5" y="0" class="st6 st3 st4">uf der </tspan><tspan x="27.2" y="0" class="st6 st3 st4">V</tspan><tspan x="31.9" y="0" class="st6 st3 st4">erpack</tspan></text>
<text transform="matrix(1 0 0 1 63.2678 103.0671)" class="st6 st3 st4">-</text>
<text transform="matrix(1 0 0 1 7.7663 112.6667)" class="st6 st3 st4">ungsvignette </text>
<text transform="matrix(1 0 0 1 7.7663 122.2668)"><tspan x="0" y="0" class="st6 st3 st4">r</tspan><tspan x="2.6" y="0" class="st6 st3 st4">ese</tspan><tspan x="14.9" y="0" class="st6 st3 st4">r</tspan><tspan x="17.7" y="0" class="st6 st3 st4">vie</tspan><tspan x="27.5" y="0" class="st6 st3 st4">r</tspan><tspan x="30.3" y="0" class="st6 st3 st4">t</tspan></text>
<text transform="matrix(1 0 0 1 112.2868 630.7526)" class="st2 st3 st7">REZEPT</text>
<g>
	<defs>
		<rect id="SVGID_1_" x="13.7" y="41.3" width="104.3" height="44.9"/>
	</defs>
	<clipPath id="SVGID_2_">
		<use xlink:href="#SVGID_1_"  style="overflow:visible;"/>
	</clipPath>
	<g class="st8">
		<defs>
			<rect id="SVGID_3_" x="12.7" y="41.3" width="106.5" height="45.9"/>
		</defs>
		<clipPath id="SVGID_4_">
			<use xlink:href="#SVGID_3_"  style="overflow:visible;"/>
		</clipPath>
		<g style="clip-path:url(#SVGID_4_);">
			
				<image style="overflow:visible;" width="471" height="203" xlink:href="CBC0FAAFF62AA115.png"  transform="matrix(0.2261 0 0 0.2261 12.695 41.3417)">
			</image>
		</g>
	</g>
</g>
<text transform="matrix(1 0 0 1 81.3786 24.1076)"><tspan x="0" y="0" class="st9 st10 st11">D</tspan><tspan x="13.1" y="0" class="st9 st10 st11 st12">r</tspan><tspan x="18.7" y="0" class="st9 st10 st11">.  G</tspan></text>
<text transform="matrix(1 0 0 1 128.8586 24.1076)" class="st13 st10 st11">o</text>
<text transform="matrix(1 0 0 1 140.2585 24.1076)" class="st14 st10 st11">o</text>
<text transform="matrix(1 0 0 1 151.6589 24.1076)" class="st9 st10 st11">g</text>
<text transform="matrix(1 0 0 1 162.8786 24.1076)" class="st6 st10 st11">l</text>
<text transform="matrix(1 0 0 1 167.7385 24.1076)" class="st13 st10 st11">e</text>
<text transform="matrix(1 0 0 1 90.3083 105.9729)" class="st6 st5 st4">R /</text>
<text transform="matrix(1 0 0 1 90.3083 125.1731)"><tspan x="0" y="0" class="st6 st3 st4">W</tspan><tspan x="7.1" y="0" class="st6 st3 st4">enn Menschen Beschwe</tspan><tspan x="92.2" y="0" class="st6 st3 st4">r</tspan><tspan x="94.8" y="0" class="st6 st3 st4">den im Internet </tspan></text>
<text transform="matrix(1 0 0 1 90.3083 134.7727)"><tspan x="0" y="0" class="st6 st3 st4">nachschlagen, we</tspan><tspan x="62.4" y="0" class="st6 st3 st4">r</tspan><tspan x="65.1" y="0" class="st6 st3 st4">den Sie schnell </tspan><tspan x="119.2" y="0" class="st6 st3 st4">v</tspan><tspan x="123" y="0" class="st6 st3 st4">on </tspan></text>
<text transform="matrix(1 0 0 1 90.3083 144.3728)"><tspan x="0" y="0" class="st6 st3 st4">einem normalen </tspan><tspan x="58.7" y="0" class="st6 st3 st4">K</tspan><tspan x="63.6" y="0" class="st6 st3 st4">opfschmerz zu einem </tspan></text>
<text transform="matrix(1 0 0 1 90.3083 153.9729)"><tspan x="0" y="0" class="st6 st3 st4">Gehirntumo</tspan><tspan x="41.4" y="0" class="st6 st3 st4">r</tspan><tspan x="43.6" y="0" class="st6 st3 st4">. Die Chance ist jedoch </tspan></text>
<text transform="matrix(1 0 0 1 90.3083 163.573)"><tspan x="0" y="0" class="st6 st3 st4">gering, dass Ih</tspan><tspan x="50.7" y="0" class="st6 st3 st4">r</tspan><tspan x="53.3" y="0" class="st6 st3 st4">e </tspan><tspan x="59.4" y="0" class="st6 st3 st4">K</tspan><tspan x="64.3" y="0" class="st6 st3 st4">opfschmer</tspan><tspan x="102.3" y="0" class="st6 st3 st4">z</tspan><tspan x="106.2" y="0" class="st6 st3 st4">en dadu</tspan><tspan x="134.2" y="0" class="st6 st3 st4">r</tspan><tspan x="136.9" y="0" class="st6 st3 st4">ch </tspan></text>
<text transform="matrix(1 0 0 1 90.3083 173.173)"><tspan x="0" y="0" class="st6 st3 st4">v</tspan><tspan x="3.8" y="0" class="st6 st3 st4">erursacht wu</tspan><tspan x="49.5" y="0" class="st6 st3 st4">r</tspan><tspan x="52.1" y="0" class="st6 st3 st4">den. Umge</tspan><tspan x="89.9" y="0" class="st6 st3 st4">k</tspan><tspan x="93.7" y="0" class="st6 st3 st4">eh</tspan><tspan x="102.2" y="0" class="st6 st3 st4">r</tspan><tspan x="105.1" y="0" class="st6 st3 st4">t natürlich laut </tspan></text>
<text transform="matrix(1 0 0 1 90.3083 182.7731)"><tspan x="0" y="0" class="st6 st3 st4">D</tspan><tspan x="5.2" y="0" class="st6 st3 st4">r</tspan><tspan x="7.4" y="0" class="st6 st3 st4">. </tspan><tspan x="11.3" y="0" class="st6 st3 st4">P</tspan><tspan x="16.2" y="0" class="st6 st3 st4">eleman. </tspan><tspan x="45.9" y="0" class="st6 st3 st4">W</tspan><tspan x="52.9" y="0" class="st6 st3 st4">enn </tspan><tspan x="67.8" y="0" class="st6 st3 st4">P</tspan><tspan x="72.7" y="0" class="st6 st3 st4">atienten eine Diagnose </tspan></text>
<text transform="matrix(1 0 0 1 90.3083 192.3728)"><tspan x="0" y="0" class="st6 st3 st4">erhalten, die sie nicht </tspan><tspan x="75.3" y="0" class="st6 st3 st4">v</tspan><tspan x="79.1" y="0" class="st6 st3 st4">ersöhnen wollen, ist </tspan></text>
<text transform="matrix(1 0 0 1 90.3083 201.9729)"><tspan x="0" y="0" class="st6 st3 st4">es </tspan><tspan x="10.1" y="0" class="st6 st3 st4">v</tspan><tspan x="13.9" y="0" class="st6 st3 st4">erloc</tspan><tspan x="31.1" y="0" class="st6 st3 st4">k</tspan><tspan x="35" y="0" class="st6 st3 st4">end, eine weniger schwe</tspan><tspan x="120.1" y="0" class="st6 st3 st4">r</tspan><tspan x="122.9" y="0" class="st6 st3 st4">wiegende </tspan></text>
<text transform="matrix(1 0 0 1 90.3083 211.573)"><tspan x="0" y="0" class="st6 st3 st4">Diagnose </tspan><tspan x="34.8" y="0" class="st6 st3 st4">v</tspan><tspan x="38.5" y="0" class="st6 st3 st4">orzulegen. Dies kann jedoch </tspan></text>
<text transform="matrix(1 0 0 1 90.3083 221.173)"><tspan x="0" y="0" class="st6 st3 st4">zu falschen Hoffnungen beim </tspan><tspan x="104.9" y="0" class="st6 st3 st4">P</tspan><tspan x="109.8" y="0" class="st6 st3 st4">atienten </tspan></text>
<text transform="matrix(1 0 0 1 90.3083 230.7731)"><tspan x="0" y="0" class="st6 st3 st4">füh</tspan><tspan x="11.4" y="0" class="st6 st3 st4">r</tspan><tspan x="14.1" y="0" class="st6 st3 st4">en. So wie im </tspan><tspan x="62.3" y="0" class="st6 st3 st4">A</tspan><tspan x="67.3" y="0" class="st6 st3 st4">usland kostspielige </tspan></text>
<path class="st6" d="M91,240.4v-5.7h1.7c0.6,0,1.1,0.1,1.4,0.4c0.3,0.3,0.5,0.6,0.5,1.1c0,0.3-0.1,0.6-0.2,0.8s-0.4,0.4-0.7,0.5
	c0.3,0.1,0.6,0.2,0.8,0.5c0.2,0.3,0.3,0.5,0.3,0.9c0,0.5-0.2,0.9-0.5,1.2c-0.3,0.3-0.8,0.4-1.4,0.4H91z M91.5,237.2h1.3
	c0.4,0,0.7-0.1,0.9-0.3c0.2-0.2,0.3-0.4,0.3-0.8c0-0.4-0.1-0.6-0.3-0.8c-0.2-0.2-0.6-0.3-1-0.3h-1.2V237.2z M91.5,237.6v2.3h1.4
	c0.4,0,0.7-0.1,1-0.3c0.2-0.2,0.4-0.5,0.4-0.9c0-0.4-0.1-0.6-0.3-0.8s-0.5-0.3-1-0.3H91.5z M99,239.7c-0.3,0.5-0.8,0.7-1.5,0.7
	c-0.4,0-0.7-0.1-1-0.3c-0.3-0.2-0.5-0.4-0.7-0.7c-0.2-0.3-0.2-0.7-0.2-1.1v-0.2c0-0.4,0.1-0.8,0.2-1.1c0.2-0.3,0.4-0.6,0.7-0.8
	c0.3-0.2,0.6-0.3,0.9-0.3c0.5,0,0.9,0.2,1.2,0.5c0.3,0.4,0.5,0.8,0.5,1.4v0.3h-3v0.1c0,0.5,0.1,0.9,0.4,1.2c0.3,0.3,0.6,0.5,1,0.5
	c0.2,0,0.5,0,0.7-0.1c0.2-0.1,0.4-0.2,0.5-0.4L99,239.7L99,239.7z M97.4,236.5c-0.4,0-0.6,0.1-0.9,0.4c-0.2,0.3-0.4,0.6-0.4,1h2.5
	v-0.1c0-0.4-0.1-0.7-0.3-1C98,236.6,97.7,236.5,97.4,236.5z M100.4,236.9c0.2-0.3,0.4-0.4,0.6-0.6c0.2-0.1,0.5-0.2,0.8-0.2
	c0.5,0,0.8,0.1,1,0.4c0.2,0.3,0.3,0.6,0.3,1.1v2.8h-0.5v-2.8c0-0.4-0.1-0.7-0.2-0.8c-0.2-0.2-0.4-0.3-0.8-0.3
	c-0.3,0-0.5,0.1-0.8,0.3c-0.2,0.2-0.4,0.4-0.5,0.7v2.9H100v-6h0.5V236.9z M107,240.4c0-0.1-0.1-0.3-0.1-0.6
	c-0.2,0.2-0.4,0.4-0.6,0.5s-0.5,0.2-0.8,0.2c-0.4,0-0.7-0.1-1-0.3c-0.3-0.2-0.4-0.5-0.4-0.9c0-0.4,0.2-0.7,0.5-1
	c0.3-0.2,0.8-0.4,1.4-0.4h0.8v-0.5c0-0.3-0.1-0.5-0.3-0.7c-0.2-0.2-0.5-0.3-0.8-0.3c-0.3,0-0.6,0.1-0.8,0.2
	c-0.2,0.2-0.3,0.4-0.3,0.6l-0.5,0c0-0.3,0.2-0.6,0.5-0.9s0.7-0.4,1.2-0.4c0.5,0,0.8,0.1,1.1,0.4c0.3,0.2,0.4,0.6,0.4,1v2
	c0,0.4,0,0.7,0.1,0.9v0H107z M105.5,240c0.3,0,0.6-0.1,0.8-0.2c0.2-0.2,0.4-0.4,0.5-0.6v-0.9h-0.8c-0.5,0-0.8,0.1-1.1,0.3
	c-0.3,0.2-0.4,0.4-0.4,0.7c0,0.2,0.1,0.4,0.3,0.6S105.3,240,105.5,240z M109.1,236.1l0,0.7c0.2-0.3,0.4-0.5,0.6-0.6
	c0.2-0.1,0.5-0.2,0.8-0.2c0.5,0,0.8,0.1,1,0.4c0.2,0.3,0.3,0.6,0.3,1.1v2.8h-0.5v-2.8c0-0.4-0.1-0.7-0.2-0.8
	c-0.2-0.2-0.4-0.3-0.8-0.3c-0.3,0-0.5,0.1-0.8,0.3c-0.2,0.2-0.4,0.4-0.5,0.7v2.9h-0.5v-4.2H109.1z M112.8,238.2
	c0-0.7,0.1-1.2,0.4-1.6c0.3-0.4,0.7-0.6,1.2-0.6c0.6,0,1,0.2,1.3,0.7v-2.4h0.5v6h-0.4l0-0.6c-0.3,0.4-0.7,0.6-1.3,0.6
	c-0.5,0-0.9-0.2-1.2-0.6C113,239.5,112.8,238.9,112.8,238.2L112.8,238.2z M113.3,238.3c0,0.5,0.1,1,0.3,1.3c0.2,0.3,0.5,0.5,0.9,0.5
	c0.6,0,1-0.3,1.2-0.8v-2c-0.2-0.5-0.6-0.8-1.2-0.8c-0.4,0-0.7,0.2-0.9,0.5S113.3,237.7,113.3,238.3z M118,240.4h-0.5v-6h0.5V240.4z
	 M122,239.8c-0.3,0.4-0.7,0.6-1.3,0.6c-0.5,0-0.8-0.1-1-0.4s-0.4-0.6-0.4-1.2v-2.8h0.5v2.7c0,0.8,0.3,1.2,1,1.2
	c0.7,0,1.1-0.3,1.3-0.8v-3.1h0.5v4.2H122L122,239.8z M124.1,236.1l0,0.7c0.2-0.3,0.4-0.5,0.6-0.6c0.2-0.1,0.5-0.2,0.8-0.2
	c0.5,0,0.8,0.1,1,0.4c0.2,0.3,0.3,0.6,0.3,1.1v2.8h-0.5v-2.8c0-0.4-0.1-0.7-0.2-0.8c-0.2-0.2-0.4-0.3-0.8-0.3
	c-0.3,0-0.5,0.1-0.8,0.3c-0.2,0.2-0.4,0.4-0.5,0.7v2.9h-0.5v-4.2H124.1z M127.9,238.2c0-0.7,0.1-1.2,0.4-1.6s0.7-0.6,1.2-0.6
	c0.6,0,1,0.2,1.3,0.7l0-0.6h0.4v4.1c0,0.5-0.2,1-0.5,1.3c-0.3,0.3-0.7,0.5-1.2,0.5c-0.3,0-0.6-0.1-0.8-0.2c-0.3-0.1-0.5-0.3-0.6-0.5
	l0.3-0.3c0.3,0.4,0.7,0.6,1.2,0.6c0.4,0,0.7-0.1,0.9-0.3s0.3-0.6,0.3-1v-0.5c-0.3,0.4-0.7,0.6-1.3,0.6c-0.5,0-0.9-0.2-1.2-0.6
	S127.9,238.9,127.9,238.2L127.9,238.2z M128.3,238.3c0,0.5,0.1,1,0.3,1.3c0.2,0.3,0.5,0.5,0.9,0.5c0.6,0,1-0.3,1.2-0.8v-2
	c-0.1-0.3-0.3-0.5-0.5-0.6c-0.2-0.1-0.5-0.2-0.7-0.2c-0.4,0-0.7,0.2-0.9,0.5S128.3,237.7,128.3,238.3z M135.6,239.7
	c-0.3,0.5-0.8,0.7-1.5,0.7c-0.4,0-0.7-0.1-1-0.3c-0.3-0.2-0.5-0.4-0.7-0.7c-0.2-0.3-0.2-0.7-0.2-1.1v-0.2c0-0.4,0.1-0.8,0.2-1.1
	c0.2-0.3,0.4-0.6,0.7-0.8c0.3-0.2,0.6-0.3,0.9-0.3c0.5,0,0.9,0.2,1.2,0.5c0.3,0.4,0.5,0.8,0.5,1.4v0.3h-3v0.1c0,0.5,0.1,0.9,0.4,1.2
	c0.3,0.3,0.6,0.5,1,0.5c0.2,0,0.5,0,0.7-0.1c0.2-0.1,0.4-0.2,0.5-0.4L135.6,239.7L135.6,239.7z M134,236.5c-0.4,0-0.6,0.1-0.9,0.4
	c-0.2,0.3-0.4,0.6-0.4,1h2.5v-0.1c0-0.4-0.1-0.7-0.3-1C134.7,236.6,134.4,236.5,134,236.5z M137.1,236.1l0,0.7
	c0.2-0.3,0.4-0.5,0.6-0.6c0.2-0.1,0.5-0.2,0.8-0.2c0.5,0,0.8,0.1,1,0.4c0.2,0.3,0.3,0.6,0.3,1.1v2.8h-0.5v-2.8
	c0-0.4-0.1-0.7-0.2-0.8c-0.2-0.2-0.4-0.3-0.8-0.3c-0.3,0-0.5,0.1-0.8,0.3c-0.2,0.2-0.4,0.4-0.5,0.7v2.9h-0.5v-4.2H137.1z M143.3,240
	h2.7v0.4h-3.3V240l2.6-3.5h-2.5v-0.4h3.1v0.4L143.3,240z M149.6,239.8c-0.3,0.4-0.7,0.6-1.3,0.6c-0.5,0-0.8-0.1-1-0.4
	s-0.4-0.6-0.4-1.2v-2.8h0.5v2.7c0,0.8,0.3,1.2,1,1.2c0.7,0,1.1-0.3,1.3-0.8v-3.1h0.5v4.2h-0.5L149.6,239.8z M153.5,240.4v-3.8h-0.7
	v-0.4h0.7v-0.4c0-0.5,0.1-0.8,0.4-1c0.2-0.2,0.6-0.4,1-0.4c0.3,0,0.7,0.1,1.1,0.2l-0.1,0.4c-0.3-0.1-0.6-0.2-1-0.2c-0.6,0-1,0.3-1,1
	v0.4h1v0.4h-1v3.8H153.5z M156.2,240.4h-0.5v-4.2h0.5V240.4z M157.9,236.1l0,0.7c0.2-0.3,0.4-0.5,0.6-0.6c0.2-0.1,0.5-0.2,0.8-0.2
	c0.5,0,0.8,0.1,1,0.4c0.2,0.3,0.3,0.6,0.3,1.1v2.8h-0.5v-2.8c0-0.4-0.1-0.7-0.2-0.8c-0.2-0.2-0.4-0.3-0.8-0.3
	c-0.3,0-0.5,0.1-0.8,0.3c-0.2,0.2-0.4,0.4-0.5,0.7v2.9h-0.5v-4.2H157.9z M161.7,238.2c0-0.7,0.1-1.2,0.4-1.6
	c0.3-0.4,0.7-0.6,1.2-0.6c0.6,0,1,0.2,1.3,0.7v-2.4h0.5v6h-0.4l0-0.6c-0.3,0.4-0.7,0.6-1.3,0.6c-0.5,0-0.9-0.2-1.2-0.6
	C161.8,239.5,161.7,238.9,161.7,238.2L161.7,238.2z M162.2,238.3c0,0.5,0.1,1,0.3,1.3c0.2,0.3,0.5,0.5,0.9,0.5c0.6,0,1-0.3,1.2-0.8
	v-2c-0.2-0.5-0.6-0.8-1.2-0.8c-0.4,0-0.7,0.2-0.9,0.5S162.2,237.7,162.2,238.3z M169.5,239.7c-0.3,0.5-0.8,0.7-1.5,0.7
	c-0.4,0-0.7-0.1-1-0.3c-0.3-0.2-0.5-0.4-0.7-0.7c-0.2-0.3-0.2-0.7-0.2-1.1v-0.2c0-0.4,0.1-0.8,0.2-1.1c0.2-0.3,0.4-0.6,0.7-0.8
	c0.3-0.2,0.6-0.3,0.9-0.3c0.5,0,0.9,0.2,1.2,0.5c0.3,0.4,0.5,0.8,0.5,1.4v0.3h-3v0.1c0,0.5,0.1,0.9,0.4,1.2c0.3,0.3,0.6,0.5,1,0.5
	c0.2,0,0.5,0,0.7-0.1c0.2-0.1,0.4-0.2,0.5-0.4L169.5,239.7L169.5,239.7z M167.9,236.5c-0.4,0-0.6,0.1-0.9,0.4
	c-0.2,0.3-0.4,0.6-0.4,1h2.5v-0.1c0-0.4-0.1-0.7-0.3-1C168.5,236.6,168.2,236.5,167.9,236.5z M170.9,236.1l0,0.7
	c0.2-0.3,0.4-0.5,0.6-0.6c0.2-0.1,0.5-0.2,0.8-0.2c0.5,0,0.8,0.1,1,0.4c0.2,0.3,0.3,0.6,0.3,1.1v2.8h-0.5v-2.8
	c0-0.4-0.1-0.7-0.2-0.8c-0.2-0.2-0.4-0.3-0.8-0.3c-0.3,0-0.5,0.1-0.8,0.3c-0.2,0.2-0.4,0.4-0.5,0.7v2.9h-0.5v-4.2H170.9z
	 M175.3,240.1c0,0.5-0.2,1-0.5,1.3l-0.3-0.2c0.2-0.3,0.4-0.6,0.4-1v-0.6h0.5V240.1L175.3,240.1z M178.1,238.2c0-0.7,0.1-1.2,0.4-1.6
	c0.3-0.4,0.7-0.6,1.2-0.6c0.6,0,1,0.2,1.3,0.7v-2.4h0.5v6h-0.4l0-0.6c-0.3,0.4-0.7,0.6-1.3,0.6c-0.5,0-0.9-0.2-1.2-0.6
	C178.3,239.5,178.1,238.9,178.1,238.2L178.1,238.2z M178.6,238.3c0,0.5,0.1,1,0.3,1.3c0.2,0.3,0.5,0.5,0.9,0.5c0.6,0,1-0.3,1.2-0.8
	v-2c-0.2-0.5-0.6-0.8-1.2-0.8c-0.4,0-0.7,0.2-0.9,0.5S178.6,237.7,178.6,238.3z M182.7,234.9c0-0.1,0-0.2,0.1-0.2
	c0.1-0.1,0.1-0.1,0.2-0.1c0.1,0,0.2,0,0.2,0.1s0.1,0.1,0.1,0.2s0,0.2-0.1,0.2c-0.1,0.1-0.1,0.1-0.2,0.1c-0.1,0-0.2,0-0.2-0.1
	C182.8,235.1,182.7,235,182.7,234.9z M183.3,240.4h-0.5v-4.2h0.5V240.4z M187.7,239.7c-0.3,0.5-0.8,0.7-1.5,0.7
	c-0.4,0-0.7-0.1-1-0.3c-0.3-0.2-0.5-0.4-0.7-0.7c-0.2-0.3-0.2-0.7-0.2-1.1v-0.2c0-0.4,0.1-0.8,0.2-1.1c0.2-0.3,0.4-0.6,0.7-0.8
	c0.3-0.2,0.6-0.3,0.9-0.3c0.5,0,0.9,0.2,1.2,0.5c0.3,0.4,0.5,0.8,0.5,1.4v0.3h-3v0.1c0,0.5,0.1,0.9,0.4,1.2c0.3,0.3,0.6,0.5,1,0.5
	c0.2,0,0.5,0,0.7-0.1c0.2-0.1,0.4-0.2,0.5-0.4L187.7,239.7L187.7,239.7z M186.1,236.5c-0.4,0-0.6,0.1-0.9,0.4
	c-0.2,0.3-0.4,0.6-0.4,1h2.5v-0.1c0-0.4-0.1-0.7-0.3-1C186.8,236.6,186.5,236.5,186.1,236.5z M193.8,239.7c-0.3,0.5-0.8,0.7-1.5,0.7
	c-0.4,0-0.7-0.1-1-0.3c-0.3-0.2-0.5-0.4-0.7-0.7c-0.2-0.3-0.2-0.7-0.2-1.1v-0.2c0-0.4,0.1-0.8,0.2-1.1c0.2-0.3,0.4-0.6,0.7-0.8
	c0.3-0.2,0.6-0.3,0.9-0.3c0.5,0,0.9,0.2,1.2,0.5c0.3,0.4,0.5,0.8,0.5,1.4v0.3h-3v0.1c0,0.5,0.1,0.9,0.4,1.2c0.3,0.3,0.6,0.5,1,0.5
	c0.2,0,0.5,0,0.7-0.1c0.2-0.1,0.4-0.2,0.5-0.4L193.8,239.7L193.8,239.7z M192.2,236.5c-0.4,0-0.6,0.1-0.9,0.4
	c-0.2,0.3-0.4,0.6-0.4,1h2.5v-0.1c0-0.4-0.1-0.7-0.3-1C192.8,236.6,192.6,236.5,192.2,236.5z M194.8,234.9c0-0.1,0-0.2,0.1-0.2
	c0.1-0.1,0.1-0.1,0.2-0.1c0.1,0,0.2,0,0.2,0.1s0.1,0.1,0.1,0.2s0,0.2-0.1,0.2c-0.1,0.1-0.1,0.1-0.2,0.1c-0.1,0-0.2,0-0.2-0.1
	C194.8,235.1,194.8,235,194.8,234.9z M195.3,240.4h-0.5v-4.2h0.5V240.4z M196.4,238.2c0-0.7,0.1-1.2,0.4-1.6s0.7-0.6,1.2-0.6
	c0.6,0,1,0.2,1.3,0.7l0-0.6h0.4v4.1c0,0.5-0.2,1-0.5,1.3c-0.3,0.3-0.7,0.5-1.2,0.5c-0.3,0-0.6-0.1-0.8-0.2c-0.3-0.1-0.5-0.3-0.6-0.5
	l0.3-0.3c0.3,0.4,0.7,0.6,1.2,0.6c0.4,0,0.7-0.1,0.9-0.3s0.3-0.6,0.3-1v-0.5c-0.3,0.4-0.7,0.6-1.3,0.6c-0.5,0-0.9-0.2-1.2-0.6
	S196.4,238.9,196.4,238.2L196.4,238.2z M196.9,238.3c0,0.5,0.1,1,0.3,1.3c0.2,0.3,0.5,0.5,0.9,0.5c0.6,0,1-0.3,1.2-0.8v-2
	c-0.1-0.3-0.3-0.5-0.5-0.6c-0.2-0.1-0.5-0.2-0.7-0.2c-0.4,0-0.7,0.2-0.9,0.5S196.9,237.7,196.9,238.3z M204.1,239.7
	c-0.3,0.5-0.8,0.7-1.5,0.7c-0.4,0-0.7-0.1-1-0.3c-0.3-0.2-0.5-0.4-0.7-0.7c-0.2-0.3-0.2-0.7-0.2-1.1v-0.2c0-0.4,0.1-0.8,0.2-1.1
	c0.2-0.3,0.4-0.6,0.7-0.8c0.3-0.2,0.6-0.3,0.9-0.3c0.5,0,0.9,0.2,1.2,0.5c0.3,0.4,0.5,0.8,0.5,1.4v0.3h-3v0.1c0,0.5,0.1,0.9,0.4,1.2
	c0.3,0.3,0.6,0.5,1,0.5c0.2,0,0.5,0,0.7-0.1c0.2-0.1,0.4-0.2,0.5-0.4L204.1,239.7L204.1,239.7z M202.6,236.5c-0.4,0-0.6,0.1-0.9,0.4
	c-0.2,0.3-0.4,0.6-0.4,1h2.5v-0.1c0-0.4-0.1-0.7-0.3-1C203.2,236.6,202.9,236.5,202.6,236.5z M205.6,236.1l0,0.7
	c0.2-0.3,0.4-0.5,0.6-0.6c0.2-0.1,0.5-0.2,0.8-0.2c0.5,0,0.8,0.1,1,0.4c0.2,0.3,0.3,0.6,0.3,1.1v2.8h-0.5v-2.8
	c0-0.4-0.1-0.7-0.2-0.8c-0.2-0.2-0.4-0.3-0.8-0.3c-0.3,0-0.5,0.1-0.8,0.3c-0.2,0.2-0.4,0.4-0.5,0.7v2.9h-0.5v-4.2H205.6z
	 M210.3,235.1v1.1h0.9v0.4h-0.9v2.8c0,0.2,0,0.4,0.1,0.5c0.1,0.1,0.2,0.2,0.4,0.2c0.1,0,0.2,0,0.4,0l0,0.4c-0.1,0-0.3,0.1-0.5,0.1
	c-0.3,0-0.6-0.1-0.7-0.3c-0.1-0.2-0.2-0.5-0.2-0.8v-2.8H209v-0.4h0.8v-1.1H210.3z M212.6,240.4h-0.5v-6h0.5V240.4z M213.9,234.9
	c0-0.1,0-0.2,0.1-0.2c0.1-0.1,0.1-0.1,0.2-0.1c0.1,0,0.2,0,0.2,0.1s0.1,0.1,0.1,0.2s0,0.2-0.1,0.2c-0.1,0.1-0.1,0.1-0.2,0.1
	c-0.1,0-0.2,0-0.2-0.1C213.9,235.1,213.9,235,213.9,234.9z M214.4,240.4H214v-4.2h0.5V240.4z M217.3,240.1c0.3,0,0.6-0.1,0.8-0.3
	c0.2-0.2,0.3-0.4,0.4-0.7h0.4c0,0.3-0.1,0.5-0.2,0.7c-0.1,0.2-0.3,0.4-0.6,0.5s-0.5,0.2-0.8,0.2c-0.6,0-1-0.2-1.3-0.6
	c-0.3-0.4-0.5-0.9-0.5-1.6v-0.1c0-0.4,0.1-0.8,0.2-1.1c0.1-0.3,0.4-0.6,0.6-0.7c0.3-0.2,0.6-0.3,1-0.3c0.5,0,0.8,0.1,1.1,0.4
	c0.3,0.3,0.5,0.6,0.5,1.1h-0.4c0-0.3-0.1-0.6-0.4-0.8c-0.2-0.2-0.5-0.3-0.8-0.3c-0.4,0-0.7,0.2-1,0.5c-0.2,0.3-0.3,0.7-0.3,1.3v0.1
	c0,0.5,0.1,1,0.3,1.3C216.5,239.9,216.8,240.1,217.3,240.1z M220.3,236.9c0.2-0.3,0.4-0.4,0.6-0.6c0.2-0.1,0.5-0.2,0.8-0.2
	c0.5,0,0.8,0.1,1,0.4c0.2,0.3,0.3,0.6,0.3,1.1v2.8h-0.5v-2.8c0-0.4-0.1-0.7-0.2-0.8c-0.2-0.2-0.4-0.3-0.8-0.3
	c-0.3,0-0.5,0.1-0.8,0.3c-0.2,0.2-0.4,0.4-0.5,0.7v2.9h-0.5v-6h0.5V236.9z M226.6,236.1l0,0.7c0.2-0.3,0.4-0.5,0.6-0.6
	c0.2-0.1,0.5-0.2,0.8-0.2c0.5,0,0.8,0.1,1,0.4c0.2,0.3,0.3,0.6,0.3,1.1v2.8h-0.5v-2.8c0-0.4-0.1-0.7-0.2-0.8
	c-0.2-0.2-0.4-0.3-0.8-0.3c-0.3,0-0.5,0.1-0.8,0.3c-0.2,0.2-0.4,0.4-0.5,0.7v2.9h-0.5v-4.2H226.6z M230.5,234.9c0-0.1,0-0.2,0.1-0.2
	c0.1-0.1,0.1-0.1,0.2-0.1c0.1,0,0.2,0,0.2,0.1s0.1,0.1,0.1,0.2s0,0.2-0.1,0.2c-0.1,0.1-0.1,0.1-0.2,0.1c-0.1,0-0.2,0-0.2-0.1
	C230.5,235.1,230.5,235,230.5,234.9z M231.1,240.4h-0.5v-4.2h0.5V240.4z M233.9,240.1c0.3,0,0.6-0.1,0.8-0.3
	c0.2-0.2,0.3-0.4,0.4-0.7h0.4c0,0.3-0.1,0.5-0.2,0.7c-0.1,0.2-0.3,0.4-0.6,0.5s-0.5,0.2-0.8,0.2c-0.6,0-1-0.2-1.3-0.6
	c-0.3-0.4-0.5-0.9-0.5-1.6v-0.1c0-0.4,0.1-0.8,0.2-1.1c0.1-0.3,0.4-0.6,0.6-0.7c0.3-0.2,0.6-0.3,1-0.3c0.5,0,0.8,0.1,1.1,0.4
	c0.3,0.3,0.5,0.6,0.5,1.1h-0.4c0-0.3-0.1-0.6-0.4-0.8c-0.2-0.2-0.5-0.3-0.8-0.3c-0.4,0-0.7,0.2-1,0.5c-0.2,0.3-0.3,0.7-0.3,1.3v0.1
	c0,0.5,0.1,1,0.3,1.3C233.1,239.9,233.5,240.1,233.9,240.1z M236.9,236.9c0.2-0.3,0.4-0.4,0.6-0.6c0.2-0.1,0.5-0.2,0.8-0.2
	c0.5,0,0.8,0.1,1,0.4c0.2,0.3,0.3,0.6,0.3,1.1v2.8h-0.5v-2.8c0-0.4-0.1-0.7-0.2-0.8c-0.2-0.2-0.4-0.3-0.8-0.3
	c-0.3,0-0.5,0.1-0.8,0.3c-0.2,0.2-0.4,0.4-0.5,0.7v2.9h-0.5v-6h0.5V236.9z M241.6,235.1v1.1h0.9v0.4h-0.9v2.8c0,0.2,0,0.4,0.1,0.5
	c0.1,0.1,0.2,0.2,0.4,0.2c0.1,0,0.2,0,0.4,0l0,0.4c-0.1,0-0.3,0.1-0.5,0.1c-0.3,0-0.6-0.1-0.7-0.3c-0.1-0.2-0.2-0.5-0.2-0.8v-2.8
	h-0.8v-0.4h0.8v-1.1H241.6z"/>
<text transform="matrix(1 0 0 1 90.3083 249.9733)"><tspan x="0" y="0" class="st6 st3 st4">zu er</tspan><tspan x="17.1" y="0" class="st6 st3 st4">r</tspan><tspan x="19.7" y="0" class="st6 st3 st4">eichen sind.</tspan></text>
<text transform="matrix(1 0 0 1 90.3083 269.1726)"><tspan x="0" y="0" class="st6 st3 st4">Etwa 75% der Menschen e</tspan><tspan x="91.9" y="0" class="st6 st3 st4">r</tspan><tspan x="94.7" y="0" class="st6 st3 st4">werben</tspan></text>
<text transform="matrix(1 0 0 1 90.3083 278.7732)" class="st6 st3 st4">über Gesundheit in den Medien. Es gibt </text>
<text transform="matrix(1 0 0 1 90.3083 288.3728)" class="st6 st3 st4">nicht nur sehr nützliche Informationen </text>
<text transform="matrix(1 0 0 1 90.3083 297.9734)" class="st6 st3 st4">über medizinische und wissenschaftliche </text>
<text transform="matrix(1 0 0 1 90.3083 307.573)"><tspan x="0" y="0" class="st6 st3 st4">F</tspan><tspan x="4.4" y="0" class="st6 st3 st4">orschung, sondern auch weniger kor</tspan><tspan x="131.2" y="0" class="st6 st3 st4">r</tspan><tspan x="133.8" y="0" class="st6 st3 st4">ekte </tspan></text>
<text transform="matrix(1 0 0 1 90.3083 317.1726)"><tspan x="0" y="0" class="st6 st3 st4">und sogar </tspan><tspan x="37.1" y="0" class="st6 st3 st4">f</tspan><tspan x="39.6" y="0" class="st6 st3 st4">ehlerhafte Ratschläge. Die </tspan></text>
<text transform="matrix(1 0 0 1 90.3083 326.7732)"><tspan x="0" y="0" class="st6 st3 st4">Richtig</tspan><tspan x="24.2" y="0" class="st6 st3 st4">k</tspan><tspan x="28" y="0" class="st6 st3 st4">eit und </tspan><tspan x="53.7" y="0" class="st6 st3 st4">Z</tspan><tspan x="58.4" y="0" class="st6 st3 st4">u</tspan><tspan x="62.8" y="0" class="st6 st3 st4">v</tspan><tspan x="66.6" y="0" class="st6 st3 st4">erlässig</tspan><tspan x="93.8" y="0" class="st6 st3 st4">k</tspan><tspan x="97.7" y="0" class="st6 st3 st4">eit </tspan><tspan x="108.1" y="0" class="st6 st3 st4">v</tspan><tspan x="111.9" y="0" class="st6 st3 st4">on </tspan><tspan x="122.7" y="0" class="st6 st3 st4">“</tspan><tspan x="124.9" y="0" class="st6 st3 st4">google </tspan></text>
<text transform="matrix(1 0 0 1 90.3083 336.3728)"><tspan x="0" y="0" class="st6 st3 st4">googl</tspan><tspan x="19.6" y="0" class="st6 st3 st4">e</tspan><tspan x="23.7" y="0" class="st6 st3 st4">” kann zu Recht in </tspan><tspan x="87.6" y="0" class="st6 st3 st4">F</tspan><tspan x="92" y="0" class="st6 st3 st4">r</tspan><tspan x="94.6" y="0" class="st6 st3 st4">age gestellt </tspan></text>
<text transform="matrix(1 0 0 1 90.3083 345.9734)"><tspan x="0" y="0" class="st6 st3 st4">we</tspan><tspan x="10.2" y="0" class="st6 st3 st4">r</tspan><tspan x="12.8" y="0" class="st6 st3 st4">den.</tspan></text>
<text transform="matrix(1 0 0 1 90.3083 365.1726)"><tspan x="0" y="0" class="st6 st3 st4">Dennoch gibt es eine g</tspan><tspan x="79.2" y="0" class="st6 st3 st4">r</tspan><tspan x="81.9" y="0" class="st6 st3 st4">oße Anzahl </tspan><tspan x="122.8" y="0" class="st6 st3 st4">v</tspan><tspan x="126.6" y="0" class="st6 st3 st4">on </tspan></text>
<text transform="matrix(1 0 0 1 90.3083 374.7732)"><tspan x="0" y="0" class="st6 st3 st4">Menschen, die das Internet nut</tspan><tspan x="107.4" y="0" class="st6 st3 st4">z</tspan><tspan x="111.2" y="0" class="st6 st3 st4">en, um </tspan></text>
<text transform="matrix(1 0 0 1 90.3083 384.3728)"><tspan x="0" y="0" class="st6 st3 st4">medizinischen Rat einzuholen. Eine Umf</tspan><tspan x="139.7" y="0" class="st6 st3 st4">r</tspan><tspan x="142.3" y="0" class="st6 st3 st4">age </tspan></text>
<text transform="matrix(1 0 0 1 90.3083 393.9734)"><tspan x="0" y="0" class="st6 st3 st4">der Christian Mutuality e</tspan><tspan x="84.9" y="0" class="st6 st3 st4">r</tspan><tspan x="87.6" y="0" class="st6 st3 st4">gab, dass 91% </tspan></text>
<text transform="matrix(1 0 0 1 90.3083 403.573)"><tspan x="0" y="0" class="st6 st3 st4">der Flamen </tspan><tspan x="41.4" y="0" class="st6 st3 st4">r</tspan><tspan x="44" y="0" class="st6 st3 st4">egelmäßig einen Google-Arzt </tspan></text>
<text transform="matrix(1 0 0 1 90.3083 413.1736)" class="st6 st3 st4">aufsuchen.</text>
<text transform="matrix(1 0 0 1 90.3083 432.3728)" class="st6 st3 st4">Die meisten medizinischen Informationen, </text>
<text transform="matrix(1 0 0 1 90.3083 441.9734)"><tspan x="0" y="0" class="st6 st3 st4">die im Internet </tspan><tspan x="52.1" y="0" class="st6 st3 st4">v</tspan><tspan x="55.9" y="0" class="st6 st3 st4">e</tspan><tspan x="60" y="0" class="st6 st3 st4">r</tspan><tspan x="62.8" y="0" class="st6 st3 st4">fügbar sind, we</tspan><tspan x="115.9" y="0" class="st6 st3 st4">r</tspan><tspan x="118.6" y="0" class="st6 st3 st4">den </tspan></text>
<text transform="matrix(1 0 0 1 90.3083 451.573)"><tspan x="0" y="0" class="st6 st3 st4">normale</tspan><tspan x="28.9" y="0" class="st6 st3 st4">r</tspan><tspan x="31.6" y="0" class="st6 st3 st4">weise nicht medizinisch </tspan></text>
<text transform="matrix(1 0 0 1 90.3083 461.1736)" class="st6 st3 st4">unterstützt. Jeder kann diese Informationen </text>
<text transform="matrix(1 0 0 1 90.3083 470.7732)"><tspan x="0" y="0" class="st6 st3 st4">v</tspan><tspan x="3.8" y="0" class="st6 st3 st4">e</tspan><tspan x="7.9" y="0" class="st6 st3 st4">r</tspan><tspan x="10.5" y="0" class="st6 st3 st4">öf</tspan><tspan x="17.7" y="0" class="st6 st3 st4">f</tspan><tspan x="20.2" y="0" class="st6 st3 st4">entlichen, unabhängig d</tspan><tspan x="103.1" y="0" class="st6 st3 st4">a</tspan><tspan x="107.3" y="0" class="st6 st3 st4">v</tspan><tspan x="111.1" y="0" class="st6 st3 st4">on, ob die </tspan></text>
<text transform="matrix(1 0 0 1 90.3083 480.3728)"><tspan x="0" y="0" class="st6 st3 st4">Informationen medizinisch kor</tspan><tspan x="106.4" y="0" class="st6 st3 st4">r</tspan><tspan x="109" y="0" class="st6 st3 st4">ekt sind </tspan></text>
<text transform="matrix(1 0 0 1 90.3083 489.9734)"><tspan x="0" y="0" class="st6 st3 st4">oder nicht. Darüber hinaus kursie</tspan><tspan x="114.9" y="0" class="st6 st3 st4">r</tspan><tspan x="117.5" y="0" class="st6 st3 st4">en im </tspan></text>
<text transform="matrix(1 0 0 1 90.3083 499.573)"><tspan x="0" y="0" class="st6 st3 st4">Internet viele Geschichten über E</tspan><tspan x="114.3" y="0" class="st6 st3 st4">r</tspan><tspan x="117" y="0" class="st6 st3 st4">fahrungen </tspan></text>
<text transform="matrix(1 0 0 1 90.3083 509.1736)"><tspan x="0" y="0" class="st6 st3 st4">mit schwe</tspan><tspan x="36.1" y="0" class="st6 st3 st4">r</tspan><tspan x="38.8" y="0" class="st6 st3 st4">en S</tspan><tspan x="54" y="0" class="st6 st3 st4">t</tspan><tspan x="56.5" y="0" class="st6 st3 st4">örungen, bei denen einige </tspan></text>
<text transform="matrix(1 0 0 1 90.3083 518.7731)"><tspan x="0" y="0" class="st6 st3 st4">K</tspan><tspan x="5" y="0" class="st6 st3 st4">ünstler bestimmte P</tspan><tspan x="75.7" y="0" class="st6 st3 st4">r</tspan><tspan x="78.3" y="0" class="st6 st3 st4">obleme ignorie</tspan><tspan x="130" y="0" class="st6 st3 st4">r</tspan><tspan x="132.7" y="0" class="st6 st3 st4">en und </tspan></text>
<text transform="matrix(1 0 0 1 90.3083 528.3727)"><tspan x="0" y="0" class="st6 st3 st4">anschließend eine sch</tspan><tspan x="77.5" y="0" class="st6 st3 st4">r</tspan><tspan x="80.1" y="0" class="st6 st3 st4">eckliche Diagnose </tspan></text>
<text transform="matrix(1 0 0 1 90.3083 537.9733)"><tspan x="0" y="0" class="st6 st3 st4">gestellt we</tspan><tspan x="37.6" y="0" class="st6 st3 st4">r</tspan><tspan x="40.2" y="0" class="st6 st3 st4">den. Es ist ein ir</tspan><tspan x="94.7" y="0" class="st6 st3 st4">r</tspan><tspan x="97.6" y="0" class="st6 st3 st4">tümliches </tspan></text>
<text transform="matrix(1 0 0 1 90.3083 547.5729)" class="st6 st3 st4">Bild, das die Menschen zu der Annahme </text>
<text transform="matrix(1 0 0 1 90.3083 557.1735)"><tspan x="0" y="0" class="st6 st3 st4">v</tspan><tspan x="3.8" y="0" class="st6 st3 st4">e</tspan><tspan x="7.9" y="0" class="st6 st3 st4">r</tspan><tspan x="10.5" y="0" class="st6 st3 st4">anlasst, dass manche K</tspan><tspan x="93.6" y="0" class="st6 st3 st4">r</tspan><tspan x="96.1" y="0" class="st6 st3 st4">ankheiten oder </tspan></text>
<path class="st6" d="M94.2,565.4c0-0.3-0.1-0.6-0.3-0.7c-0.2-0.2-0.6-0.4-1.2-0.5c-0.6-0.2-1-0.3-1.3-0.5c-0.4-0.3-0.6-0.6-0.6-1.1
	c0-0.4,0.2-0.8,0.5-1.1c0.4-0.3,0.8-0.4,1.4-0.4c0.4,0,0.7,0.1,1,0.2c0.3,0.1,0.5,0.3,0.7,0.6c0.2,0.3,0.2,0.6,0.2,0.9h-0.5
	c0-0.4-0.1-0.7-0.4-0.9s-0.6-0.4-1.1-0.4c-0.4,0-0.8,0.1-1,0.3s-0.4,0.4-0.4,0.8c0,0.3,0.1,0.5,0.3,0.7c0.2,0.2,0.6,0.3,1.1,0.5
	c0.5,0.1,0.9,0.3,1.2,0.4c0.3,0.1,0.5,0.3,0.6,0.5c0.1,0.2,0.2,0.5,0.2,0.7c0,0.4-0.2,0.8-0.5,1.1c-0.4,0.3-0.8,0.4-1.4,0.4
	c-0.4,0-0.8-0.1-1.1-0.2c-0.3-0.1-0.6-0.3-0.8-0.6c-0.2-0.3-0.3-0.6-0.3-0.9h0.5c0,0.4,0.1,0.7,0.4,0.9c0.3,0.2,0.7,0.3,1.2,0.3
	c0.4,0,0.8-0.1,1.1-0.3C94.1,566,94.2,565.7,94.2,565.4z M95.6,561.3c0-0.1,0-0.2,0.1-0.2c0.1-0.1,0.1-0.1,0.2-0.1
	c0.1,0,0.2,0,0.2,0.1s0.1,0.1,0.1,0.2s0,0.2-0.1,0.2c-0.1,0.1-0.1,0.1-0.2,0.1c-0.1,0-0.2,0-0.2-0.1
	C95.7,561.5,95.6,561.4,95.6,561.3z M96.2,566.8h-0.5v-4.2h0.5V566.8z M98.2,561.5v1.1H99v0.4h-0.9v2.8c0,0.2,0,0.4,0.1,0.5
	c0.1,0.1,0.2,0.2,0.4,0.2c0.1,0,0.2,0,0.4,0l0,0.4c-0.1,0-0.3,0.1-0.5,0.1c-0.3,0-0.6-0.1-0.7-0.3c-0.1-0.2-0.2-0.5-0.2-0.8v-2.8
	h-0.8v-0.4h0.8v-1.1H98.2z M102.7,566.2c-0.3,0.4-0.7,0.6-1.3,0.6c-0.5,0-0.8-0.1-1-0.4s-0.4-0.6-0.4-1.2v-2.8h0.5v2.7
	c0,0.8,0.3,1.2,1,1.2c0.7,0,1.1-0.3,1.3-0.8v-3.1h0.5v4.2h-0.5L102.7,566.2z M107.1,566.8c0-0.1-0.1-0.3-0.1-0.6
	c-0.2,0.2-0.4,0.4-0.6,0.5s-0.5,0.2-0.8,0.2c-0.4,0-0.7-0.1-1-0.3c-0.3-0.2-0.4-0.5-0.4-0.9c0-0.4,0.2-0.7,0.5-1
	c0.3-0.2,0.8-0.4,1.4-0.4h0.8v-0.5c0-0.3-0.1-0.5-0.3-0.7c-0.2-0.2-0.5-0.3-0.8-0.3c-0.3,0-0.6,0.1-0.8,0.2
	c-0.2,0.2-0.3,0.4-0.3,0.6l-0.5,0c0-0.3,0.2-0.6,0.5-0.9s0.7-0.4,1.2-0.4c0.5,0,0.8,0.1,1.1,0.4c0.3,0.2,0.4,0.6,0.4,1v2
	c0,0.4,0,0.7,0.1,0.9v0H107.1z M105.6,566.4c0.3,0,0.6-0.1,0.8-0.2c0.2-0.2,0.4-0.4,0.5-0.6v-0.9h-0.8c-0.5,0-0.8,0.1-1.1,0.3
	c-0.3,0.2-0.4,0.4-0.4,0.7c0,0.2,0.1,0.4,0.3,0.6S105.3,566.4,105.6,566.4z M109.4,561.5v1.1h0.9v0.4h-0.9v2.8c0,0.2,0,0.4,0.1,0.5
	c0.1,0.1,0.2,0.2,0.4,0.2c0.1,0,0.2,0,0.4,0l0,0.4c-0.1,0-0.3,0.1-0.5,0.1c-0.3,0-0.6-0.1-0.7-0.3c-0.1-0.2-0.2-0.5-0.2-0.8v-2.8
	h-0.8v-0.4h0.8v-1.1H109.4z M111.2,561.3c0-0.1,0-0.2,0.1-0.2c0.1-0.1,0.1-0.1,0.2-0.1c0.1,0,0.2,0,0.2,0.1s0.1,0.1,0.1,0.2
	s0,0.2-0.1,0.2c-0.1,0.1-0.1,0.1-0.2,0.1c-0.1,0-0.2,0-0.2-0.1C111.3,561.5,111.2,561.4,111.2,561.3z M111.8,566.8h-0.5v-4.2h0.5
	V566.8z M112.8,564.6c0-0.4,0.1-0.8,0.2-1.1c0.2-0.3,0.4-0.6,0.7-0.8c0.3-0.2,0.6-0.3,1-0.3c0.6,0,1,0.2,1.4,0.6
	c0.3,0.4,0.5,0.9,0.5,1.6v0.1c0,0.4-0.1,0.8-0.2,1.1c-0.2,0.3-0.4,0.6-0.7,0.8c-0.3,0.2-0.6,0.3-1,0.3c-0.6,0-1-0.2-1.4-0.6
	C113,565.9,112.8,565.3,112.8,564.6L112.8,564.6z M113.3,564.7c0,0.5,0.1,0.9,0.4,1.2s0.6,0.5,1,0.5c0.4,0,0.8-0.2,1-0.5
	s0.4-0.8,0.4-1.3v-0.1c0-0.3-0.1-0.6-0.2-0.9c-0.1-0.3-0.3-0.5-0.5-0.6c-0.2-0.1-0.5-0.2-0.7-0.2c-0.4,0-0.8,0.2-1,0.5
	C113.4,563.7,113.3,564.1,113.3,564.7L113.3,564.7z M118,562.5l0,0.7c0.2-0.3,0.4-0.5,0.6-0.6c0.2-0.1,0.5-0.2,0.8-0.2
	c0.5,0,0.8,0.1,1,0.4c0.2,0.3,0.3,0.6,0.3,1.1v2.8h-0.5V564c0-0.4-0.1-0.7-0.2-0.8c-0.2-0.2-0.4-0.3-0.8-0.3c-0.3,0-0.5,0.1-0.8,0.3
	c-0.2,0.2-0.4,0.4-0.5,0.7v2.9h-0.5v-4.2H118z M125.1,566.1c-0.3,0.5-0.8,0.7-1.5,0.7c-0.4,0-0.7-0.1-1-0.3
	c-0.3-0.2-0.5-0.4-0.7-0.7c-0.2-0.3-0.2-0.7-0.2-1.1v-0.2c0-0.4,0.1-0.8,0.2-1.1c0.2-0.3,0.4-0.6,0.7-0.8c0.3-0.2,0.6-0.3,0.9-0.3
	c0.5,0,0.9,0.2,1.2,0.5c0.3,0.4,0.5,0.8,0.5,1.4v0.3h-3v0.1c0,0.5,0.1,0.9,0.4,1.2c0.3,0.3,0.6,0.5,1,0.5c0.2,0,0.5,0,0.7-0.1
	c0.2-0.1,0.4-0.2,0.5-0.4L125.1,566.1L125.1,566.1z M123.5,562.9c-0.4,0-0.6,0.1-0.9,0.4c-0.2,0.3-0.4,0.6-0.4,1h2.5v-0.1
	c0-0.4-0.1-0.7-0.3-1C124.1,563,123.8,562.9,123.5,562.9z M126.5,562.5l0,0.7c0.2-0.3,0.4-0.5,0.6-0.6c0.2-0.1,0.5-0.2,0.8-0.2
	c0.5,0,0.8,0.1,1,0.4c0.2,0.3,0.3,0.6,0.3,1.1v2.8h-0.5V564c0-0.4-0.1-0.7-0.2-0.8c-0.2-0.2-0.4-0.3-0.8-0.3c-0.3,0-0.5,0.1-0.8,0.3
	c-0.2,0.2-0.4,0.4-0.5,0.7v2.9h-0.5v-4.2H126.5z M133.7,566.1l1.3-3.6h0.5l-1.6,4.2h-0.4l-1.6-4.2h0.5L133.7,566.1z M136.2,561.3
	c0-0.1,0-0.2,0.1-0.2c0.1-0.1,0.1-0.1,0.2-0.1c0.1,0,0.2,0,0.2,0.1s0.1,0.1,0.1,0.2s0,0.2-0.1,0.2c-0.1,0.1-0.1,0.1-0.2,0.1
	c-0.1,0-0.2,0-0.2-0.1C136.2,561.5,136.2,561.4,136.2,561.3z M136.8,566.8h-0.5v-4.2h0.5V566.8z M141.2,566.1
	c-0.3,0.5-0.8,0.7-1.5,0.7c-0.4,0-0.7-0.1-1-0.3c-0.3-0.2-0.5-0.4-0.7-0.7c-0.2-0.3-0.2-0.7-0.2-1.1v-0.2c0-0.4,0.1-0.8,0.2-1.1
	c0.2-0.3,0.4-0.6,0.7-0.8c0.3-0.2,0.6-0.3,0.9-0.3c0.5,0,0.9,0.2,1.2,0.5c0.3,0.4,0.5,0.8,0.5,1.4v0.3h-3v0.1c0,0.5,0.1,0.9,0.4,1.2
	c0.3,0.3,0.6,0.5,1,0.5c0.2,0,0.5,0,0.7-0.1c0.2-0.1,0.4-0.2,0.5-0.4L141.2,566.1L141.2,566.1z M139.6,562.9c-0.4,0-0.6,0.1-0.9,0.4
	c-0.2,0.3-0.4,0.6-0.4,1h2.5v-0.1c0-0.4-0.1-0.7-0.3-1C140.2,563,139.9,562.9,139.6,562.9z M142.7,566.8h-0.5v-6h0.5V566.8z
	 M146.4,563.3c0.2-0.3,0.4-0.4,0.6-0.6c0.2-0.1,0.5-0.2,0.8-0.2c0.5,0,0.8,0.1,1,0.4c0.2,0.3,0.3,0.6,0.3,1.1v2.8h-0.5V564
	c0-0.4-0.1-0.7-0.2-0.8c-0.2-0.2-0.4-0.3-0.8-0.3c-0.3,0-0.5,0.1-0.8,0.3c-0.2,0.2-0.4,0.4-0.5,0.7v2.9h-0.5v-6h0.5V563.3z
	 M153,566.8c0-0.1-0.1-0.3-0.1-0.6c-0.2,0.2-0.4,0.4-0.6,0.5s-0.5,0.2-0.8,0.2c-0.4,0-0.7-0.1-1-0.3c-0.3-0.2-0.4-0.5-0.4-0.9
	c0-0.4,0.2-0.7,0.5-1c0.3-0.2,0.8-0.4,1.4-0.4h0.8v-0.5c0-0.3-0.1-0.5-0.3-0.7c-0.2-0.2-0.5-0.3-0.8-0.3c-0.3,0-0.6,0.1-0.8,0.2
	c-0.2,0.2-0.3,0.4-0.3,0.6l-0.5,0c0-0.3,0.2-0.6,0.5-0.9s0.7-0.4,1.2-0.4c0.5,0,0.8,0.1,1.1,0.4c0.3,0.2,0.4,0.6,0.4,1v2
	c0,0.4,0,0.7,0.1,0.9v0H153z M151.5,566.4c0.3,0,0.6-0.1,0.8-0.2c0.2-0.2,0.4-0.4,0.5-0.6v-0.9H152c-0.5,0-0.8,0.1-1.1,0.3
	c-0.3,0.2-0.4,0.4-0.4,0.7c0,0.2,0.1,0.4,0.3,0.6S151.2,566.4,151.5,566.4z M150.8,561.3c0-0.1,0-0.2,0.1-0.2
	c0.1-0.1,0.1-0.1,0.2-0.1c0.1,0,0.2,0,0.2,0.1c0.1,0.1,0.1,0.1,0.1,0.2c0,0.1,0,0.2-0.1,0.2c-0.1,0.1-0.1,0.1-0.2,0.1
	c-0.1,0-0.2,0-0.2-0.1C150.8,561.5,150.8,561.4,150.8,561.3z M152.5,561.3c0-0.1,0-0.2,0.1-0.2c0.1-0.1,0.1-0.1,0.2-0.1
	c0.1,0,0.2,0,0.2,0.1c0.1,0.1,0.1,0.1,0.1,0.2c0,0.1,0,0.2-0.1,0.2c-0.1,0.1-0.1,0.1-0.2,0.1c-0.1,0-0.2,0-0.2-0.1
	C152.5,561.5,152.5,561.4,152.5,561.3z M157.3,566.2c-0.3,0.4-0.7,0.6-1.3,0.6c-0.5,0-0.8-0.1-1-0.4s-0.4-0.6-0.4-1.2v-2.8h0.5v2.7
	c0,0.8,0.3,1.2,1,1.2c0.7,0,1.1-0.3,1.3-0.8v-3.1h0.5v4.2h-0.5L157.3,566.2z M159.3,566.8v-3.8h-0.7v-0.4h0.7v-0.4
	c0-0.5,0.1-0.8,0.4-1c0.2-0.2,0.6-0.4,1-0.4c0.3,0,0.7,0.1,1.1,0.2l-0.1,0.4c-0.3-0.1-0.6-0.2-1-0.2c-0.6,0-1,0.3-1,1v0.4h1v0.4h-1
	v3.8H159.3z M162,566.8h-0.5v-4.2h0.5V566.8z M163.1,564.6c0-0.7,0.1-1.2,0.4-1.6s0.7-0.6,1.2-0.6c0.6,0,1,0.2,1.3,0.7l0-0.6h0.4
	v4.1c0,0.5-0.2,1-0.5,1.3c-0.3,0.3-0.7,0.5-1.2,0.5c-0.3,0-0.6-0.1-0.8-0.2c-0.3-0.1-0.5-0.3-0.6-0.5l0.3-0.3
	c0.3,0.4,0.7,0.6,1.2,0.6c0.4,0,0.7-0.1,0.9-0.3s0.3-0.6,0.3-1v-0.5c-0.3,0.4-0.7,0.6-1.3,0.6c-0.5,0-0.9-0.2-1.2-0.6
	S163.1,565.3,163.1,564.6L163.1,564.6z M163.6,564.7c0,0.5,0.1,1,0.3,1.3c0.2,0.3,0.5,0.5,0.9,0.5c0.6,0,1-0.3,1.2-0.8v-2
	c-0.1-0.3-0.3-0.5-0.5-0.6c-0.2-0.1-0.5-0.2-0.7-0.2c-0.4,0-0.7,0.2-0.9,0.5S163.6,564.1,163.6,564.7z M170.9,566.1
	c-0.3,0.5-0.8,0.7-1.5,0.7c-0.4,0-0.7-0.1-1-0.3c-0.3-0.2-0.5-0.4-0.7-0.7c-0.2-0.3-0.2-0.7-0.2-1.1v-0.2c0-0.4,0.1-0.8,0.2-1.1
	c0.2-0.3,0.4-0.6,0.7-0.8c0.3-0.2,0.6-0.3,0.9-0.3c0.5,0,0.9,0.2,1.2,0.5c0.3,0.4,0.5,0.8,0.5,1.4v0.3h-3v0.1c0,0.5,0.1,0.9,0.4,1.2
	c0.3,0.3,0.6,0.5,1,0.5c0.2,0,0.5,0,0.7-0.1c0.2-0.1,0.4-0.2,0.5-0.4L170.9,566.1L170.9,566.1z M169.3,562.9c-0.4,0-0.6,0.1-0.9,0.4
	c-0.2,0.3-0.4,0.6-0.4,1h2.5v-0.1c0-0.4-0.1-0.7-0.3-1C169.9,563,169.6,562.9,169.3,562.9z M173.8,562.9c-0.1,0-0.2,0-0.3,0
	c-0.3,0-0.5,0.1-0.7,0.2c-0.2,0.2-0.3,0.4-0.4,0.7v2.9h-0.5v-4.2h0.5l0,0.7c0.2-0.5,0.6-0.8,1.2-0.8c0.1,0,0.2,0,0.3,0.1
	L173.8,562.9z M179,565.7c0-0.2-0.1-0.4-0.3-0.6c-0.2-0.1-0.5-0.3-0.8-0.3c-0.4-0.1-0.7-0.2-0.9-0.3c-0.2-0.1-0.4-0.2-0.5-0.4
	c-0.1-0.1-0.2-0.3-0.2-0.5c0-0.3,0.1-0.6,0.4-0.8c0.3-0.2,0.6-0.3,1.1-0.3c0.5,0,0.8,0.1,1.1,0.3c0.3,0.2,0.4,0.5,0.4,0.9H179
	c0-0.2-0.1-0.5-0.3-0.6s-0.5-0.2-0.8-0.2c-0.3,0-0.6,0.1-0.7,0.2c-0.2,0.1-0.3,0.3-0.3,0.5c0,0.2,0.1,0.4,0.2,0.5
	c0.2,0.1,0.4,0.2,0.8,0.3c0.4,0.1,0.7,0.2,0.9,0.3c0.2,0.1,0.4,0.2,0.5,0.4c0.1,0.2,0.1,0.3,0.1,0.6c0,0.4-0.1,0.6-0.4,0.9
	c-0.3,0.2-0.7,0.3-1.1,0.3c-0.5,0-0.9-0.1-1.2-0.4c-0.3-0.2-0.5-0.5-0.5-0.9h0.5c0,0.3,0.1,0.5,0.3,0.6c0.2,0.2,0.5,0.2,0.8,0.2
	c0.3,0,0.6-0.1,0.8-0.2C178.9,566.1,179,565.9,179,565.7z M180.5,561.3c0-0.1,0-0.2,0.1-0.2c0.1-0.1,0.1-0.1,0.2-0.1
	c0.1,0,0.2,0,0.2,0.1s0.1,0.1,0.1,0.2s0,0.2-0.1,0.2c-0.1,0.1-0.1,0.1-0.2,0.1c-0.1,0-0.2,0-0.2-0.1
	C180.5,561.5,180.5,561.4,180.5,561.3z M181.1,566.8h-0.5v-4.2h0.5V566.8z M182.8,562.5l0,0.7c0.2-0.3,0.4-0.5,0.6-0.6
	c0.2-0.1,0.5-0.2,0.8-0.2c0.5,0,0.8,0.1,1,0.4c0.2,0.3,0.3,0.6,0.3,1.1v2.8H185V564c0-0.4-0.1-0.7-0.2-0.8c-0.2-0.2-0.4-0.3-0.8-0.3
	c-0.3,0-0.5,0.1-0.8,0.3c-0.2,0.2-0.4,0.4-0.5,0.7v2.9h-0.5v-4.2H182.8z M186.5,564.6c0-0.7,0.1-1.2,0.4-1.6
	c0.3-0.4,0.7-0.6,1.2-0.6c0.6,0,1,0.2,1.3,0.7v-2.4h0.5v6h-0.4l0-0.6c-0.3,0.4-0.7,0.6-1.3,0.6c-0.5,0-0.9-0.2-1.2-0.6
	C186.7,565.9,186.5,565.3,186.5,564.6L186.5,564.6z M187,564.7c0,0.5,0.1,1,0.3,1.3c0.2,0.3,0.5,0.5,0.9,0.5c0.6,0,1-0.3,1.2-0.8v-2
	c-0.2-0.5-0.6-0.8-1.2-0.8c-0.4,0-0.7,0.2-0.9,0.5S187,564.1,187,564.7z M195.8,566.8c0-0.1-0.1-0.3-0.1-0.6
	c-0.2,0.2-0.4,0.4-0.6,0.5s-0.5,0.2-0.8,0.2c-0.4,0-0.7-0.1-1-0.3c-0.3-0.2-0.4-0.5-0.4-0.9c0-0.4,0.2-0.7,0.5-1
	c0.3-0.2,0.8-0.4,1.4-0.4h0.8v-0.5c0-0.3-0.1-0.5-0.3-0.7c-0.2-0.2-0.5-0.3-0.8-0.3c-0.3,0-0.6,0.1-0.8,0.2
	c-0.2,0.2-0.3,0.4-0.3,0.6l-0.5,0c0-0.3,0.2-0.6,0.5-0.9s0.7-0.4,1.2-0.4c0.5,0,0.8,0.1,1.1,0.4c0.3,0.2,0.4,0.6,0.4,1v2
	c0,0.4,0,0.7,0.1,0.9v0H195.8z M194.3,566.4c0.3,0,0.6-0.1,0.8-0.2c0.2-0.2,0.4-0.4,0.5-0.6v-0.9h-0.8c-0.5,0-0.8,0.1-1.1,0.3
	c-0.3,0.2-0.4,0.4-0.4,0.7c0,0.2,0.1,0.4,0.3,0.6S194,566.4,194.3,566.4z M197.9,566.8h-0.5v-6h0.5V566.8z M201.7,565.7
	c0-0.2-0.1-0.4-0.3-0.6c-0.2-0.1-0.5-0.3-0.8-0.3c-0.4-0.1-0.7-0.2-0.9-0.3c-0.2-0.1-0.4-0.2-0.5-0.4c-0.1-0.1-0.2-0.3-0.2-0.5
	c0-0.3,0.1-0.6,0.4-0.8c0.3-0.2,0.6-0.3,1.1-0.3c0.5,0,0.8,0.1,1.1,0.3c0.3,0.2,0.4,0.5,0.4,0.9h-0.5c0-0.2-0.1-0.5-0.3-0.6
	s-0.5-0.2-0.8-0.2c-0.3,0-0.6,0.1-0.7,0.2c-0.2,0.1-0.3,0.3-0.3,0.5c0,0.2,0.1,0.4,0.2,0.5c0.2,0.1,0.4,0.2,0.8,0.3
	c0.4,0.1,0.7,0.2,0.9,0.3c0.2,0.1,0.4,0.2,0.5,0.4c0.1,0.2,0.1,0.3,0.1,0.6c0,0.4-0.1,0.6-0.4,0.9c-0.3,0.2-0.7,0.3-1.1,0.3
	c-0.5,0-0.9-0.1-1.2-0.4c-0.3-0.2-0.5-0.5-0.5-0.9h0.5c0,0.3,0.1,0.5,0.3,0.6c0.2,0.2,0.5,0.2,0.8,0.2c0.3,0,0.6-0.1,0.8-0.2
	C201.6,566.1,201.7,565.9,201.7,565.7z M205,564.6c0-0.7,0.1-1.2,0.4-1.6c0.3-0.4,0.7-0.6,1.2-0.6c0.6,0,1,0.2,1.3,0.7v-2.4h0.5v6
	H208l0-0.6c-0.3,0.4-0.7,0.6-1.3,0.6c-0.5,0-0.9-0.2-1.2-0.6C205.1,565.9,205,565.3,205,564.6L205,564.6z M205.5,564.7
	c0,0.5,0.1,1,0.3,1.3c0.2,0.3,0.5,0.5,0.9,0.5c0.6,0,1-0.3,1.2-0.8v-2c-0.2-0.5-0.6-0.8-1.2-0.8c-0.4,0-0.7,0.2-0.9,0.5
	S205.5,564.1,205.5,564.7z M209.6,561.3c0-0.1,0-0.2,0.1-0.2c0.1-0.1,0.1-0.1,0.2-0.1c0.1,0,0.2,0,0.2,0.1s0.1,0.1,0.1,0.2
	s0,0.2-0.1,0.2c-0.1,0.1-0.1,0.1-0.2,0.1c-0.1,0-0.2,0-0.2-0.1C209.6,561.5,209.6,561.4,209.6,561.3z M210.2,566.8h-0.5v-4.2h0.5
	V566.8z M214.6,566.1c-0.3,0.5-0.8,0.7-1.5,0.7c-0.4,0-0.7-0.1-1-0.3c-0.3-0.2-0.5-0.4-0.7-0.7c-0.2-0.3-0.2-0.7-0.2-1.1v-0.2
	c0-0.4,0.1-0.8,0.2-1.1c0.2-0.3,0.4-0.6,0.7-0.8c0.3-0.2,0.6-0.3,0.9-0.3c0.5,0,0.9,0.2,1.2,0.5c0.3,0.4,0.5,0.8,0.5,1.4v0.3h-3v0.1
	c0,0.5,0.1,0.9,0.4,1.2c0.3,0.3,0.6,0.5,1,0.5c0.2,0,0.5,0,0.7-0.1c0.2-0.1,0.4-0.2,0.5-0.4L214.6,566.1L214.6,566.1z M213,562.9
	c-0.4,0-0.6,0.1-0.9,0.4c-0.2,0.3-0.4,0.6-0.4,1h2.5v-0.1c0-0.4-0.1-0.7-0.3-1C213.6,563,213.3,562.9,213,562.9z M219.7,564.4h-1.7
	v2.4h-0.5v-5.7h1.8c0.6,0,1.1,0.1,1.4,0.4c0.3,0.3,0.5,0.7,0.5,1.2c0,0.4-0.1,0.7-0.3,1c-0.2,0.3-0.5,0.5-0.9,0.6l1.4,2.4v0.1h-0.5
	L219.7,564.4z M218.1,564h1.5c0.4,0,0.7-0.1,1-0.3c0.2-0.2,0.4-0.5,0.4-0.9c0-0.4-0.1-0.7-0.4-0.9c-0.3-0.2-0.6-0.3-1.1-0.3h-1.4
	V564z M225.7,566.1c-0.3,0.5-0.8,0.7-1.5,0.7c-0.4,0-0.7-0.1-1-0.3c-0.3-0.2-0.5-0.4-0.7-0.7c-0.2-0.3-0.2-0.7-0.2-1.1v-0.2
	c0-0.4,0.1-0.8,0.2-1.1c0.2-0.3,0.4-0.6,0.7-0.8c0.3-0.2,0.6-0.3,0.9-0.3c0.5,0,0.9,0.2,1.2,0.5c0.3,0.4,0.5,0.8,0.5,1.4v0.3h-3v0.1
	c0,0.5,0.1,0.9,0.4,1.2c0.3,0.3,0.6,0.5,1,0.5c0.2,0,0.5,0,0.7-0.1c0.2-0.1,0.4-0.2,0.5-0.4L225.7,566.1L225.7,566.1z M224.1,562.9
	c-0.4,0-0.6,0.1-0.9,0.4c-0.2,0.3-0.4,0.6-0.4,1h2.5v-0.1c0-0.4-0.1-0.7-0.3-1C224.8,563,224.5,562.9,224.1,562.9z M229.4,566.8
	c0-0.1-0.1-0.3-0.1-0.6c-0.2,0.2-0.4,0.4-0.6,0.5s-0.5,0.2-0.8,0.2c-0.4,0-0.7-0.1-1-0.3c-0.3-0.2-0.4-0.5-0.4-0.9
	c0-0.4,0.2-0.7,0.5-1c0.3-0.2,0.8-0.4,1.4-0.4h0.8v-0.5c0-0.3-0.1-0.5-0.3-0.7c-0.2-0.2-0.5-0.3-0.8-0.3c-0.3,0-0.6,0.1-0.8,0.2
	c-0.2,0.2-0.3,0.4-0.3,0.6l-0.5,0c0-0.3,0.2-0.6,0.5-0.9s0.7-0.4,1.2-0.4c0.5,0,0.8,0.1,1.1,0.4c0.3,0.2,0.4,0.6,0.4,1v2
	c0,0.4,0,0.7,0.1,0.9v0H229.4z M227.9,566.4c0.3,0,0.6-0.1,0.8-0.2c0.2-0.2,0.4-0.4,0.5-0.6v-0.9h-0.8c-0.5,0-0.8,0.1-1.1,0.3
	c-0.3,0.2-0.4,0.4-0.4,0.7c0,0.2,0.1,0.4,0.3,0.6S227.6,566.4,227.9,566.4z M231.5,566.8h-0.5v-6h0.5V566.8z M232.8,561.3
	c0-0.1,0-0.2,0.1-0.2c0.1-0.1,0.1-0.1,0.2-0.1c0.1,0,0.2,0,0.2,0.1s0.1,0.1,0.1,0.2s0,0.2-0.1,0.2c-0.1,0.1-0.1,0.1-0.2,0.1
	c-0.1,0-0.2,0-0.2-0.1C232.8,561.5,232.8,561.4,232.8,561.3z M233.3,566.8h-0.5v-4.2h0.5V566.8z M235.3,561.5v1.1h0.9v0.4h-0.9v2.8
	c0,0.2,0,0.4,0.1,0.5c0.1,0.1,0.2,0.2,0.4,0.2c0.1,0,0.2,0,0.4,0l0,0.4c-0.1,0-0.3,0.1-0.5,0.1c-0.3,0-0.6-0.1-0.7-0.3
	c-0.1-0.2-0.2-0.5-0.2-0.8v-2.8h-0.8v-0.4h0.8v-1.1H235.3z M239.8,566.8c0-0.1-0.1-0.3-0.1-0.6c-0.2,0.2-0.4,0.4-0.6,0.5
	s-0.5,0.2-0.8,0.2c-0.4,0-0.7-0.1-1-0.3c-0.3-0.2-0.4-0.5-0.4-0.9c0-0.4,0.2-0.7,0.5-1c0.3-0.2,0.8-0.4,1.4-0.4h0.8v-0.5
	c0-0.3-0.1-0.5-0.3-0.7c-0.2-0.2-0.5-0.3-0.8-0.3c-0.3,0-0.6,0.1-0.8,0.2c-0.2,0.2-0.3,0.4-0.3,0.6l-0.5,0c0-0.3,0.2-0.6,0.5-0.9
	s0.7-0.4,1.2-0.4c0.5,0,0.8,0.1,1.1,0.4c0.3,0.2,0.4,0.6,0.4,1v2c0,0.4,0,0.7,0.1,0.9v0H239.8z M238.4,566.4c0.3,0,0.6-0.1,0.8-0.2
	c0.2-0.2,0.4-0.4,0.5-0.6v-0.9h-0.8c-0.5,0-0.8,0.1-1.1,0.3c-0.3,0.2-0.4,0.4-0.4,0.7c0,0.2,0.1,0.4,0.3,0.6
	S238.1,566.4,238.4,566.4z M237.6,561.3c0-0.1,0-0.2,0.1-0.2c0.1-0.1,0.1-0.1,0.2-0.1c0.1,0,0.2,0,0.2,0.1c0.1,0.1,0.1,0.1,0.1,0.2
	c0,0.1,0,0.2-0.1,0.2c-0.1,0.1-0.1,0.1-0.2,0.1c-0.1,0-0.2,0-0.2-0.1C237.7,561.5,237.6,561.4,237.6,561.3z M239.4,561.3
	c0-0.1,0-0.2,0.1-0.2c0.1-0.1,0.1-0.1,0.2-0.1c0.1,0,0.2,0,0.2,0.1c0.1,0.1,0.1,0.1,0.1,0.2c0,0.1,0,0.2-0.1,0.2
	c-0.1,0.1-0.1,0.1-0.2,0.1c-0.1,0-0.2,0-0.2-0.1C239.4,561.5,239.4,561.4,239.4,561.3z M242.2,561.5v1.1h0.9v0.4h-0.9v2.8
	c0,0.2,0,0.4,0.1,0.5c0.1,0.1,0.2,0.2,0.4,0.2c0.1,0,0.2,0,0.4,0l0,0.4c-0.1,0-0.3,0.1-0.5,0.1c-0.3,0-0.6-0.1-0.7-0.3
	c-0.1-0.2-0.2-0.5-0.2-0.8v-2.8h-0.8v-0.4h0.8v-1.1H242.2z M244,566.5c0-0.1,0-0.2,0.1-0.2c0.1-0.1,0.1-0.1,0.2-0.1
	c0.1,0,0.2,0,0.2,0.1c0.1,0.1,0.1,0.1,0.1,0.2c0,0.1,0,0.2-0.1,0.2c-0.1,0.1-0.1,0.1-0.2,0.1c-0.1,0-0.2,0-0.2-0.1
	S244,566.6,244,566.5z"/>
<text transform="matrix(1 0 0 1 90.3083 585.9733)"><tspan x="0" y="0" class="st6 st3 st4">Hö</tspan><tspan x="10.1" y="0" class="st6 st3 st4">r</tspan><tspan x="12.8" y="0" class="st6 st3 st4">en Sie auf, Ih</tspan><tspan x="57.2" y="0" class="st6 st3 st4">r</tspan><tspan x="59.8" y="0" class="st6 st3 st4">e Symp</tspan><tspan x="85.9" y="0" class="st6 st3 st4">t</tspan><tspan x="88.4" y="0" class="st6 st3 st4">ome zu googeln, </tspan></text>
<text transform="matrix(1 0 0 1 90.3083 595.5729)" class="st6 st3 st4">und besuchen Sie einen echten Arzt.</text>
</svg>
