<svg id="Laag_1" data-name="Laag 1" xmlns="http://www.w3.org/2000/svg" viewBox="0 0 232.52 38.5"><defs><style>.cls-1{fill:none;stroke:#4285f4;}</style></defs><title>voorschriftnl</title><path class="cls-1" d="M.72,11.3h3.2l8.4,22.2,8.4-22.2h3.2L13.82,37.2h-3.3Z"/><path class="cls-1" d="M38.82,37.9a12.29,12.29,0,0,1-4.7-.9,12,12,0,0,1-3.8-2.5,12.5,12.5,0,0,1-2.6-4.2,15.8,15.8,0,0,1-.9-6,15.12,15.12,0,0,1,.8-5.3,14.54,14.54,0,0,1,2.2-4.3,10.14,10.14,0,0,1,3.8-2.9,12.07,12.07,0,0,1,5.2-1.1,12.53,12.53,0,0,1,5.3,1.1,11,11,0,0,1,3.8,2.9,12.51,12.51,0,0,1,2.2,4.3,18.35,18.35,0,0,1,.7,5.3,16.45,16.45,0,0,1-.9,5.6,13.73,13.73,0,0,1-2.4,4.3,10.75,10.75,0,0,1-3.8,2.8A13,13,0,0,1,38.82,37.9Zm8.8-13.6a19.5,19.5,0,0,0-.5-4.3,12.33,12.33,0,0,0-1.5-3.5,6.67,6.67,0,0,0-2.7-2.3,8.43,8.43,0,0,0-4-.9,8.16,8.16,0,0,0-4,.9,7.19,7.19,0,0,0-2.7,2.5,12.48,12.48,0,0,0-1.6,3.5,18.41,18.41,0,0,0-.5,4.1,15.1,15.1,0,0,0,.6,4.4,9.53,9.53,0,0,0,1.7,3.5,7.41,7.41,0,0,0,2.8,2.2,9.21,9.21,0,0,0,3.8.8,8.16,8.16,0,0,0,4-.9,7.19,7.19,0,0,0,2.7-2.5,10,10,0,0,0,1.5-3.5A25.81,25.81,0,0,0,47.62,24.3Z"/><path class="cls-1" d="M66.62,37.9a12.29,12.29,0,0,1-4.7-.9,12,12,0,0,1-3.8-2.5,12.5,12.5,0,0,1-2.6-4.2,15.8,15.8,0,0,1-.9-6,15.12,15.12,0,0,1,.8-5.3,14.54,14.54,0,0,1,2.2-4.3,10.14,10.14,0,0,1,3.8-2.9,12.07,12.07,0,0,1,5.2-1.1,12.53,12.53,0,0,1,5.3,1.1,11,11,0,0,1,3.8,2.9,12.51,12.51,0,0,1,2.2,4.3,18.35,18.35,0,0,1,.7,5.3,16.45,16.45,0,0,1-.9,5.6,13.73,13.73,0,0,1-2.4,4.3,10.75,10.75,0,0,1-3.8,2.8A13,13,0,0,1,66.62,37.9Zm8.8-13.6a19.5,19.5,0,0,0-.5-4.3,12.33,12.33,0,0,0-1.5-3.5,6.67,6.67,0,0,0-2.7-2.3,8.43,8.43,0,0,0-4-.9,8.16,8.16,0,0,0-4,.9A7.19,7.19,0,0,0,60,16.7a12.48,12.48,0,0,0-1.6,3.5,18.41,18.41,0,0,0-.5,4.1,15.1,15.1,0,0,0,.6,4.4,9.53,9.53,0,0,0,1.7,3.5A7.41,7.41,0,0,0,63,34.4a9.21,9.21,0,0,0,3.8.8,8.16,8.16,0,0,0,4-.9,7.19,7.19,0,0,0,2.7-2.5A10,10,0,0,0,75,28.3,25.81,25.81,0,0,0,75.42,24.3Z"/><path class="cls-1" d="M87.22,37.2h-3V11.3h3v4.9h.1a8.27,8.27,0,0,1,3.2-4.3,10,10,0,0,1,5.2-1.2v3.2a8.76,8.76,0,0,0-4.2.8,6.48,6.48,0,0,0-2.6,2.3,9.27,9.27,0,0,0-1.3,3.4,27.13,27.13,0,0,0-.4,4.1Z"/><path class="cls-1" d="M102.52,29.1c.5,2.2,1.3,3.8,2.5,4.7a8.69,8.69,0,0,0,5.2,1.4,8.47,8.47,0,0,0,2.9-.4,5.47,5.47,0,0,0,2-1.1,5.66,5.66,0,0,0,1.2-1.5,3.92,3.92,0,0,0,.4-1.8,3.23,3.23,0,0,0-1.2-2.8,10,10,0,0,0-3.1-1.5c-1.2-.3-2.6-.6-4-.9a16.82,16.82,0,0,1-4-1.1,8.51,8.51,0,0,1-3.1-2.1,5.8,5.8,0,0,1-1.2-4,6.65,6.65,0,0,1,2.4-5.3,9.78,9.78,0,0,1,6.7-2.1,11,11,0,0,1,6.8,1.9c1.8,1.2,2.8,3.3,3.2,6.3h-3c-.3-2-1-3.4-2.3-4.2a8.41,8.41,0,0,0-4.7-1.2,7,7,0,0,0-4.4,1.2,3.93,3.93,0,0,0-1.5,3.2,3.16,3.16,0,0,0,1.2,2.7,10,10,0,0,0,3.1,1.5,38.93,38.93,0,0,0,4,1,17,17,0,0,1,4,1.3,10.2,10.2,0,0,1,3.1,2.2,5.69,5.69,0,0,1,1.2,3.9,7.31,7.31,0,0,1-.8,3.3,7.19,7.19,0,0,1-2.2,2.4,10,10,0,0,1-3.3,1.4,18.59,18.59,0,0,1-4.2.5,10.7,10.7,0,0,1-4.1-.7,7.71,7.71,0,0,1-3-1.9,9.51,9.51,0,0,1-2-2.8,10,10,0,0,1-.8-3.5Z"/><path class="cls-1" d="M144.12,19.5a8.69,8.69,0,0,0-2.8-4.5,7.51,7.51,0,0,0-5-1.6,8.72,8.72,0,0,0-4,.9,8.09,8.09,0,0,0-2.7,2.5,10,10,0,0,0-1.5,3.5,17.52,17.52,0,0,0-.5,4,17.52,17.52,0,0,0,.5,4,10,10,0,0,0,1.5,3.5,7.49,7.49,0,0,0,6.7,3.4,7.59,7.59,0,0,0,5.4-1.9,8.9,8.9,0,0,0,2.6-5.1h3.2a16.26,16.26,0,0,1-1.3,3.9,9.72,9.72,0,0,1-2.2,3,9.13,9.13,0,0,1-3.3,2,11.76,11.76,0,0,1-4.3.7,12.2,12.2,0,0,1-5.3-1.1,10.62,10.62,0,0,1-3.7-2.9,12.51,12.51,0,0,1-2.2-4.3,19,19,0,0,1-.7-5.4,18.21,18.21,0,0,1,.8-5.2,14.22,14.22,0,0,1,2.3-4.4,9.83,9.83,0,0,1,3.7-3,10.63,10.63,0,0,1,5.1-1.1,11.92,11.92,0,0,1,7.3,2.1,10.35,10.35,0,0,1,3.5,6.7h-3.1Z"/><path class="cls-1" d="M153.52,37.2V1.2h3V14.9a17.42,17.42,0,0,1,3.7-3.1,8.52,8.52,0,0,1,4.6-1.2,13.3,13.3,0,0,1,4.5.8,6.78,6.78,0,0,1,3.4,2.9,6.47,6.47,0,0,1,1.1,2.9,30.28,30.28,0,0,1,.2,3.1v17h-3V20.4c0-2.3-.5-4.1-1.6-5.2s-2.8-1.8-5.1-1.8a6.57,6.57,0,0,0-2.5.4,10.34,10.34,0,0,0-2.1,1.1,12.09,12.09,0,0,0-1.6,1.6,6.92,6.92,0,0,0-1,1.9,6.87,6.87,0,0,0-.5,2.4,20.08,20.08,0,0,0-.1,2.5v14h-3Z"/><path class="cls-1" d="M184.52,37.2h-3V11.3h3v4.9h.1a8.27,8.27,0,0,1,3.2-4.3,10,10,0,0,1,5.2-1.2v3.2a8.76,8.76,0,0,0-4.2.8,6.48,6.48,0,0,0-2.6,2.3,9.27,9.27,0,0,0-1.3,3.4,27.13,27.13,0,0,0-.4,4.1Z"/><path class="cls-1" d="M198.32,5.7V1.2h3.3V5.7Zm.1,31.5V11.3h3V37.2Z"/><path class="cls-1" d="M206.52,13.8V11.3h3.8V7.2a8.66,8.66,0,0,1,1.2-4.9q1.2-1.8,4.2-1.8a5.28,5.28,0,0,1,1.3.1c.4,0,.8.1,1.2.1V3.5a6.17,6.17,0,0,0-1.8-.2,3,3,0,0,0-1.8.4,3.46,3.46,0,0,0-1,1.1,7.49,7.49,0,0,0-.4,1.6c0,.6-.1,1.2-.1,1.8v3.2h5v2.5h-5V37.3h-3V13.9h-3.6Z"/><path class="cls-1" d="M232.12,37.3c-.4.1-.9.2-1.5.4a6.48,6.48,0,0,1-2,.2,5,5,0,0,1-3.4-1.1c-.8-.8-1.2-2.1-1.2-4V13.9h-3.7V11.4H224V4.2h3v7.2h4.8v2.5H227V33.3a1.61,1.61,0,0,0,.3,1.1,1.24,1.24,0,0,0,.8.6,6.31,6.31,0,0,0,2.7.1c.4-.1.8-.1,1.2-.2v2.4Z"/></svg>