<?xml version="1.0" encoding="utf-8"?>
<!-- Generator: Adobe Illustrator 23.0.1, SVG Export Plug-In . SVG Version: 6.00 Build 0)  -->
<svg version="1.1" id="Laag_1" xmlns="http://www.w3.org/2000/svg" xmlns:xlink="http://www.w3.org/1999/xlink" x="0px" y="0px"
	 viewBox="0 0 259.7 601.6" style="enable-background:new 0 0 259.7 601.6;" xml:space="preserve">
<style type="text/css">
	.st0{fill:none;stroke:#517ABD;stroke-width:0.335;}
	.st1{fill:none;stroke:#517ABD;}
	.st2{fill:#517ABD;}
	.st3{font-family:'Roboto-Light';}
	.st4{font-size:8px;}
	.st5{font-family:'Roboto-Bold';}
	.st6{font-size:10px;}
	.st7{clip-path:url(#SVGID_2_);}
	.st8{font-family:'Roboto-Regular';}
	.st9{font-size:20px;}
	.st10{letter-spacing:-1;}
	.st11{fill:#E84435;}
	.st12{fill:#FCBC05;}
	.st13{fill:#31A852;}
</style>
<rect x="2.4" y="0.8" class="st0" width="255.3" height="599.3"/>
<rect x="2.2" y="0.9" class="st1" width="255.3" height="599.5"/>
<line class="st1" x1="2.1" y1="35.9" x2="257.7" y2="35.9"/>
<line class="st1" x1="2.1" y1="90.5" x2="257.7" y2="90.5"/>
<line class="st1" x1="2.1" y1="575.6" x2="257.7" y2="575.6"/>
<line class="st1" x1="82.6" y1="90.6" x2="82.6" y2="575.4"/>
<line class="st1" x1="130.2" y1="35.9" x2="130.2" y2="90.5"/>
<text transform="matrix(1 0 0 1 136.062 47.4751)"><tspan x="0" y="0" class="st2 st3 st4">Naam en </tspan><tspan x="33.8" y="0" class="st2 st3 st4">v</tspan><tspan x="37.5" y="0" class="st2 st3 st4">oornaam </tspan><tspan x="71.2" y="0" class="st2 st3 st4">v</tspan><tspan x="75" y="0" class="st2 st3 st4">an de </tspan></text>
<text transform="matrix(1 0 0 1 136.062 57.0752)"><tspan x="0" y="0" class="st2 st3 st4">v</tspan><tspan x="3.8" y="0" class="st2 st3 st4">oorschrij</tspan><tspan x="34.3" y="0" class="st2 st3 st4">v</tspan><tspan x="38.1" y="0" class="st2 st3 st4">er:</tspan></text>
<text transform="matrix(1 0 0 1 136.062 76.2749)" class="st2 st5 st4">DOKTER GOOGLE</text>
<text transform="matrix(1 0 0 1 7.7661 102.331)"><tspan x="0" y="0" class="st2 st3 st4">V</tspan><tspan x="4.8" y="0" class="st2 st3 st4">oorbehouden </tspan></text>
<text transform="matrix(1 0 0 1 7.7661 111.9311)" class="st2 st3 st4">aan het </text>
<text transform="matrix(1 0 0 1 7.7661 121.5307)"><tspan x="0" y="0" class="st2 st3 st4">v</tspan><tspan x="3.8" y="0" class="st2 st3 st4">erpakkingsvignet</tspan></text>
<text transform="matrix(1 0 0 1 96.2778 591.3935)"><tspan x="0" y="0" class="st2 st3 st6">V</tspan><tspan x="6.1" y="0" class="st2 st3 st6">OORSCHRI</tspan><tspan x="54.5" y="0" class="st2 st3 st6">F</tspan><tspan x="60.2" y="0" class="st2 st3 st6">T</tspan></text>
<g>
	<defs>
		<rect id="SVGID_1_" x="13.7" y="40.6" width="104.3" height="44.9"/>
	</defs>
	<clipPath id="SVGID_2_">
		<use xlink:href="#SVGID_1_"  style="overflow:visible;"/>
	</clipPath>
	<g class="st7">
		<defs>
			<rect id="SVGID_3_" x="12.7" y="40.6" width="106.5" height="45.9"/>
		</defs>
		<clipPath id="SVGID_4_">
			<use xlink:href="#SVGID_3_"  style="overflow:visible;"/>
		</clipPath>
		<g style="clip-path:url(#SVGID_4_);">
			
				<image style="overflow:visible;" width="471" height="203" xlink:href="961ED3364620721.jpg"  transform="matrix(0.2261 0 0 0.2261 12.6949 40.6058)">
			</image>
		</g>
	</g>
</g>
<text transform="matrix(1 0 0 1 89.7514 104.4668)" class="st2 st5 st4">R/</text>
<text transform="matrix(1 0 0 1 89.7514 123.6669)"><tspan x="0" y="0" class="st2 st3 st4">W</tspan><tspan x="7" y="0" class="st2 st3 st4">anneer mensen klachten o</tspan><tspan x="99.2" y="0" class="st2 st3 st4">p</tspan><tspan x="103.6" y="0" class="st2 st3 st4">z</tspan><tspan x="107.4" y="0" class="st2 st3 st4">oe</tspan><tspan x="116" y="0" class="st2 st3 st4">k</tspan><tspan x="119.9" y="0" class="st2 st3 st4">en op het </tspan></text>
<text transform="matrix(1 0 0 1 89.7514 133.2666)"><tspan x="0" y="0" class="st2 st3 st4">internet, ga je </tspan><tspan x="48.7" y="0" class="st2 st3 st4">v</tspan><tspan x="52.5" y="0" class="st2 st3 st4">an een gewone hoo</tspan><tspan x="120.7" y="0" class="st2 st3 st4">f</tspan><tspan x="123.2" y="0" class="st2 st3 st4">dpijn </tspan></text>
<text transform="matrix(1 0 0 1 89.7514 142.8667)"><tspan x="0" y="0" class="st2 st3 st4">al snel naar een hersentumo</tspan><tspan x="98.9" y="0" class="st2 st3 st4">r</tspan><tspan x="101.1" y="0" class="st2 st3 st4">. De kans </tspan></text>
<text transform="matrix(1 0 0 1 89.7514 152.4668)"><tspan x="0" y="0" class="st2 st3 st4">is echter klein dat je hoo</tspan><tspan x="84.2" y="0" class="st2 st3 st4">f</tspan><tspan x="86.8" y="0" class="st2 st3 st4">dpijn daa</tspan><tspan x="118.7" y="0" class="st2 st3 st4">r</tspan><tspan x="121.3" y="0" class="st2 st3 st4">door </tspan></text>
<text transform="matrix(1 0 0 1 89.7514 162.0668)"><tspan x="0" y="0" class="st2 st3 st4">v</tspan><tspan x="3.8" y="0" class="st2 st3 st4">e</tspan><tspan x="7.9" y="0" class="st2 st3 st4">r</tspan><tspan x="10.5" y="0" class="st2 st3 st4">oorzaakt we</tspan><tspan x="53.3" y="0" class="st2 st3 st4">r</tspan><tspan x="55.9" y="0" class="st2 st3 st4">d. Omge</tspan><tspan x="85.2" y="0" class="st2 st3 st4">k</tspan><tspan x="89.1" y="0" class="st2 st3 st4">ee</tspan><tspan x="97.4" y="0" class="st2 st3 st4">r</tspan><tspan x="100" y="0" class="st2 st3 st4">d kan natuurlijk </tspan></text>
<text transform="matrix(1 0 0 1 89.7514 171.6669)"><tspan x="0" y="0" class="st2 st3 st4">ook </tspan><tspan x="14.8" y="0" class="st2 st3 st4">v</tspan><tspan x="18.6" y="0" class="st2 st3 st4">olgens dr </tspan><tspan x="52.9" y="0" class="st2 st3 st4">P</tspan><tspan x="57.8" y="0" class="st2 st3 st4">eleman. </tspan><tspan x="87.5" y="0" class="st2 st3 st4">W</tspan><tspan x="94.5" y="0" class="st2 st3 st4">anneer patiënten </tspan></text>
<text transform="matrix(1 0 0 1 89.7514 181.2666)" class="st2 st3 st4">een diagnose krijgen waar hij of zij zich niet </text>
<text transform="matrix(1 0 0 1 89.7514 190.8671)"><tspan x="0" y="0" class="st2 st3 st4">mee wil </tspan><tspan x="28.9" y="0" class="st2 st3 st4">v</tspan><tspan x="32.7" y="0" class="st2 st3 st4">er</tspan><tspan x="39.5" y="0" class="st2 st3 st4">z</tspan><tspan x="43.3" y="0" class="st2 st3 st4">oenen, is het </tspan><tspan x="89.2" y="0" class="st2 st3 st4">v</tspan><tspan x="93" y="0" class="st2 st3 st4">erleidelijk om met </tspan></text>
<text transform="matrix(1 0 0 1 89.7514 200.4668)" class="st2 st3 st4">een minder ernstige diagnose te komen. Dat </text>
<text transform="matrix(1 0 0 1 89.7514 210.0664)"><tspan x="0" y="0" class="st2 st3 st4">kan echter </tspan><tspan x="38.5" y="0" class="st2 st3 st4">v</tspan><tspan x="42.3" y="0" class="st2 st3 st4">alse hoop </tspan><tspan x="78.3" y="0" class="st2 st3 st4">v</tspan><tspan x="82.1" y="0" class="st2 st3 st4">e</tspan><tspan x="86.2" y="0" class="st2 st3 st4">r</tspan><tspan x="88.8" y="0" class="st2 st3 st4">oorza</tspan><tspan x="108.6" y="0" class="st2 st3 st4">k</tspan><tspan x="112.5" y="0" class="st2 st3 st4">en bij de </tspan></text>
<text transform="matrix(1 0 0 1 89.7514 219.6669)"><tspan x="0" y="0" class="st2 st3 st4">patiënt. Net </tspan><tspan x="42.4" y="0" class="st2 st3 st4">z</tspan><tspan x="46.2" y="0" class="st2 st3 st4">oals het vinden </tspan><tspan x="100.7" y="0" class="st2 st3 st4">v</tspan><tspan x="104.5" y="0" class="st2 st3 st4">an pepe</tspan><tspan x="132.3" y="0" class="st2 st3 st4">r</tspan><tspan x="134.9" y="0" class="st2 st3 st4">du</tspan><tspan x="143.8" y="0" class="st2 st3 st4">r</tspan><tspan x="146.4" y="0" class="st2 st3 st4">e </tspan></text>
<text transform="matrix(1 0 0 1 89.7514 229.2666)" class="st2 st3 st4">behandelingen in het buitenland die eigenlijk </text>
<text transform="matrix(1 0 0 1 89.7514 238.8671)" class="st2 st3 st4">onhaalbaar zijn.</text>
<text transform="matrix(1 0 0 1 89.7514 258.0664)"><tspan x="0" y="0" class="st2 st3 st4">Ong</tspan><tspan x="14.2" y="0" class="st2 st3 st4">ev</tspan><tspan x="22.1" y="0" class="st2 st3 st4">eer 75% </tspan><tspan x="51.8" y="0" class="st2 st3 st4">v</tspan><tspan x="55.5" y="0" class="st2 st3 st4">an de mensen </tspan><tspan x="106.8" y="0" class="st2 st3 st4">v</tspan><tspan x="110.6" y="0" class="st2 st3 st4">e</tspan><tspan x="114.8" y="0" class="st2 st3 st4">r</tspan><tspan x="117.5" y="0" class="st2 st3 st4">we</tspan><tspan x="127.7" y="0" class="st2 st3 st4">r</tspan><tspan x="130.4" y="0" class="st2 st3 st4">ft </tspan><tspan x="137.6" y="0" class="st2 st3 st4">k</tspan><tspan x="141.4" y="0" class="st2 st3 st4">en</tspan></text>
<text transform="matrix(1 0 0 1 89.7514 267.667)"><tspan x="0" y="0" class="st2 st3 st4">nis </tspan><tspan x="12.2" y="0" class="st2 st3 st4">ov</tspan><tspan x="20.4" y="0" class="st2 st3 st4">er ge</tspan><tspan x="37.8" y="0" class="st2 st3 st4">z</tspan><tspan x="41.6" y="0" class="st2 st3 st4">ondheid via de media. Er </tspan><tspan x="128.8" y="0" class="st2 st3 st4">v</tspan><tspan x="132.6" y="0" class="st2 st3 st4">alt </tspan></text>
<text transform="matrix(1 0 0 1 89.7514 277.2666)"><tspan x="0" y="0" class="st2 st3 st4">niet alleen </tspan><tspan x="37.3" y="0" class="st2 st3 st4">z</tspan><tspan x="41.1" y="0" class="st2 st3 st4">eer nuttige informatie te vinden </tspan></text>
<text transform="matrix(1 0 0 1 89.7514 286.8672)"><tspan x="0" y="0" class="st2 st3 st4">r</tspan><tspan x="2.6" y="0" class="st2 st3 st4">ond medische en wetenschappelij</tspan><tspan x="121" y="0" class="st2 st3 st4">k</tspan><tspan x="124.8" y="0" class="st2 st3 st4">e </tspan></text>
<text transform="matrix(1 0 0 1 89.7514 296.4668)"><tspan x="0" y="0" class="st2 st3 st4">onder</tspan><tspan x="20.1" y="0" class="st2 st3 st4">z</tspan><tspan x="24" y="0" class="st2 st3 st4">oe</tspan><tspan x="32.6" y="0" class="st2 st3 st4">k</tspan><tspan x="36.4" y="0" class="st2 st3 st4">en, maar ook minder cor</tspan><tspan x="121.3" y="0" class="st2 st3 st4">r</tspan><tspan x="124" y="0" class="st2 st3 st4">ecte en </tspan></text>
<text transform="matrix(1 0 0 1 89.7514 306.0664)"><tspan x="0" y="0" class="st2 st3 st4">z</tspan><tspan x="3.8" y="0" class="st2 st3 st4">elfs </tspan><tspan x="18.4" y="0" class="st2 st3 st4">r</tspan><tspan x="21" y="0" class="st2 st3 st4">onduit fouti</tspan><tspan x="60.9" y="0" class="st2 st3 st4">e</tspan><tspan x="65" y="0" class="st2 st3 st4">v</tspan><tspan x="68.8" y="0" class="st2 st3 st4">e advie</tspan><tspan x="93.4" y="0" class="st2 st3 st4">z</tspan><tspan x="97.2" y="0" class="st2 st3 st4">en. De juistheid </tspan></text>
<text transform="matrix(1 0 0 1 89.7514 315.667)"><tspan x="0" y="0" class="st2 st3 st4">en bet</tspan><tspan x="21.6" y="0" class="st2 st3 st4">r</tspan><tspan x="24.2" y="0" class="st2 st3 st4">ouwbaarheid </tspan><tspan x="71.5" y="0" class="st2 st3 st4">v</tspan><tspan x="75.3" y="0" class="st2 st3 st4">an </tspan><tspan x="86" y="0" class="st2 st3 st4">“</tspan><tspan x="88.1" y="0" class="st2 st3 st4">dokter googl</tspan><tspan x="131.9" y="0" class="st2 st3 st4">e</tspan><tspan x="136" y="0" class="st2 st3 st4">” mag </tspan></text>
<text transform="matrix(1 0 0 1 89.7514 325.2666)"><tspan x="0" y="0" class="st2 st3 st4">te</tspan><tspan x="6.7" y="0" class="st2 st3 st4">r</tspan><tspan x="9.3" y="0" class="st2 st3 st4">echt in v</tspan><tspan x="38.5" y="0" class="st2 st3 st4">r</tspan><tspan x="41" y="0" class="st2 st3 st4">aag wo</tspan><tspan x="66.5" y="0" class="st2 st3 st4">r</tspan><tspan x="69.1" y="0" class="st2 st3 st4">den gesteld.</tspan></text>
<text transform="matrix(1 0 0 1 89.7514 344.4668)"><tspan x="0" y="0" class="st2 st3 st4">T</tspan><tspan x="4.4" y="0" class="st2 st3 st4">och zijn er enorm </tspan><tspan x="66.7" y="0" class="st2 st3 st4">v</tspan><tspan x="70.5" y="0" class="st2 st3 st4">eel mensen die het </tspan></text>
<text transform="matrix(1 0 0 1 89.7514 354.0674)"><tspan x="0" y="0" class="st2 st3 st4">internet gebrui</tspan><tspan x="50.5" y="0" class="st2 st3 st4">k</tspan><tspan x="54.4" y="0" class="st2 st3 st4">en om medisch advies </tspan></text>
<text transform="matrix(1 0 0 1 89.7514 363.667)"><tspan x="0" y="0" class="st2 st3 st4">te </tspan><tspan x="8.6" y="0" class="st2 st3 st4">v</tspan><tspan x="12.4" y="0" class="st2 st3 st4">erkrijgen. Uit een onder</tspan><tspan x="92.6" y="0" class="st2 st3 st4">z</tspan><tspan x="96.5" y="0" class="st2 st3 st4">oek </tspan><tspan x="110.9" y="0" class="st2 st3 st4">v</tspan><tspan x="114.7" y="0" class="st2 st3 st4">an de </tspan></text>
<text transform="matrix(1 0 0 1 89.7514 373.2666)"><tspan x="0" y="0" class="st2 st3 st4">Christelij</tspan><tspan x="30.2" y="0" class="st2 st3 st4">k</tspan><tspan x="34.1" y="0" class="st2 st3 st4">e Mutualiteit, bleek dat 91% </tspan><tspan x="131.2" y="0" class="st2 st3 st4">v</tspan><tspan x="135" y="0" class="st2 st3 st4">an de </tspan></text>
<text transform="matrix(1 0 0 1 89.7514 382.8672)"><tspan x="0" y="0" class="st2 st3 st4">Vlamingen ge</tspan><tspan x="47.8" y="0" class="st2 st3 st4">r</tspan><tspan x="50.4" y="0" class="st2 st3 st4">egeld be</tspan><tspan x="79.8" y="0" class="st2 st3 st4">r</tspan><tspan x="82.4" y="0" class="st2 st3 st4">oep doet op dokter </tspan></text>
<text transform="matrix(1 0 0 1 89.7514 392.4668)" class="st2 st3 st4">Google. </text>
<text transform="matrix(1 0 0 1 89.7514 411.667)"><tspan x="0" y="0" class="st2 st3 st4">Het g</tspan><tspan x="18.7" y="0" class="st2 st3 st4">r</tspan><tspan x="21.4" y="0" class="st2 st3 st4">ootste deel </tspan><tspan x="62" y="0" class="st2 st3 st4">v</tspan><tspan x="65.8" y="0" class="st2 st3 st4">an de medische </tspan></text>
<text transform="matrix(1 0 0 1 89.7514 421.2666)"><tspan x="0" y="0" class="st2 st3 st4">informatie die op het internet te vinden </tspan><tspan x="136.3" y="0" class="st2 st3 st4">v</tspan><tspan x="140.1" y="0" class="st2 st3 st4">alt </tspan></text>
<text transform="matrix(1 0 0 1 89.7514 430.8672)"><tspan x="0" y="0" class="st2 st3 st4">wo</tspan><tspan x="10.5" y="0" class="st2 st3 st4">r</tspan><tspan x="13.1" y="0" class="st2 st3 st4">dt meestal niet medisch ondersteund. </tspan></text>
<text transform="matrix(1 0 0 1 89.7514 440.4668)"><tspan x="0" y="0" class="st2 st3 st4">Iede</tspan><tspan x="14.8" y="0" class="st2 st3 st4">r</tspan><tspan x="17.5" y="0" class="st2 st3 st4">een kan de</tspan><tspan x="55.2" y="0" class="st2 st3 st4">z</tspan><tspan x="59" y="0" class="st2 st3 st4">e informatie publice</tspan><tspan x="128" y="0" class="st2 st3 st4">r</tspan><tspan x="130.6" y="0" class="st2 st3 st4">en of </tspan></text>
<text transform="matrix(1 0 0 1 89.7514 450.0674)"><tspan x="0" y="0" class="st2 st3 st4">de informatie nu medisch cor</tspan><tspan x="102.3" y="0" class="st2 st3 st4">r</tspan><tspan x="105" y="0" class="st2 st3 st4">ect is of niet. </tspan></text>
<text transform="matrix(1 0 0 1 89.7514 459.667)"><tspan x="0" y="0" class="st2 st3 st4">Daarnaast doen </tspan><tspan x="57.4" y="0" class="st2 st3 st4">v</tspan><tspan x="61.2" y="0" class="st2 st3 st4">eel </tspan><tspan x="73.2" y="0" class="st2 st3 st4">v</tspan><tspan x="77" y="0" class="st2 st3 st4">erhalen de </tspan><tspan x="115.3" y="0" class="st2 st3 st4">r</tspan><tspan x="117.9" y="0" class="st2 st3 st4">onde op </tspan></text>
<text transform="matrix(1 0 0 1 89.7514 469.2666)"><tspan x="0" y="0" class="st2 st3 st4">het internet </tspan><tspan x="41.7" y="0" class="st2 st3 st4">ov</tspan><tspan x="49.9" y="0" class="st2 st3 st4">er e</tspan><tspan x="62.8" y="0" class="st2 st3 st4">r</tspan><tspan x="65.6" y="0" class="st2 st3 st4">v</tspan><tspan x="69.3" y="0" class="st2 st3 st4">aringen met ernstige </tspan></text>
<text transform="matrix(1 0 0 1 89.7514 478.8672)"><tspan x="0" y="0" class="st2 st3 st4">aandoeningen waarbij sommige a</tspan><tspan x="118.1" y="0" class="st2 st3 st4">r</tspan><tspan x="121" y="0" class="st2 st3 st4">tsten </tspan></text>
<text transform="matrix(1 0 0 1 89.7514 488.4668)"><tspan x="0" y="0" class="st2 st3 st4">bepaalde p</tspan><tspan x="38.3" y="0" class="st2 st3 st4">r</tspan><tspan x="40.9" y="0" class="st2 st3 st4">oblemen nege</tspan><tspan x="90.4" y="0" class="st2 st3 st4">r</tspan><tspan x="93.1" y="0" class="st2 st3 st4">en en er achte</tspan><tspan x="142.3" y="0" class="st2 st3 st4">r</tspan><tspan x="144.8" y="0" class="st2 st3 st4">af </tspan></text>
<text transform="matrix(1 0 0 1 89.7514 498.0674)"><tspan x="0" y="0" class="st2 st3 st4">t</tspan><tspan x="2.5" y="0" class="st2 st3 st4">och een </tspan><tspan x="32" y="0" class="st2 st3 st4">v</tspan><tspan x="35.8" y="0" class="st2 st3 st4">erschrik</tspan><tspan x="63.6" y="0" class="st2 st3 st4">k</tspan><tspan x="67.5" y="0" class="st2 st3 st4">elij</tspan><tspan x="77" y="0" class="st2 st3 st4">k</tspan><tspan x="80.9" y="0" class="st2 st3 st4">e diagnose komt. </tspan></text>
<text transform="matrix(1 0 0 1 89.7514 507.667)"><tspan x="0" y="0" class="st2 st3 st4">Het is een foutief beeld dat e</tspan><tspan x="99.6" y="0" class="st2 st3 st4">r</tspan><tspan x="102.3" y="0" class="st2 st3 st4">v</tspan><tspan x="106.1" y="0" class="st2 st3 st4">oor </tspan><tspan x="119.7" y="0" class="st2 st3 st4">z</tspan><tspan x="123.6" y="0" class="st2 st3 st4">o</tspan><tspan x="128" y="0" class="st2 st3 st4">r</tspan><tspan x="130.7" y="0" class="st2 st3 st4">gt </tspan></text>
<text transform="matrix(1 0 0 1 89.7514 517.2665)"><tspan x="0" y="0" class="st2 st3 st4">dat mensen den</tspan><tspan x="56.4" y="0" class="st2 st3 st4">k</tspan><tspan x="60.2" y="0" class="st2 st3 st4">en dat sommige ziektes </tspan></text>
<text transform="matrix(1 0 0 1 89.7514 526.8671)"><tspan x="0" y="0" class="st2 st3 st4">of situaties </tspan><tspan x="40.7" y="0" class="st2 st3 st4">v</tspan><tspan x="44.5" y="0" class="st2 st3 st4">eel meer </tspan><tspan x="76.5" y="0" class="st2 st3 st4">v</tspan><tspan x="80.3" y="0" class="st2 st3 st4">oorkomen dan de </tspan></text>
<text transform="matrix(1 0 0 1 89.7514 536.4667)"><tspan x="0" y="0" class="st2 st3 st4">wer</tspan><tspan x="12.9" y="0" class="st2 st3 st4">k</tspan><tspan x="16.7" y="0" class="st2 st3 st4">elijkheid wee</tspan><tspan x="61.2" y="0" class="st2 st3 st4">r</tspan><tspan x="63.8" y="0" class="st2 st3 st4">geeft. </tspan></text>
<text transform="matrix(1 0 0 1 89.7514 555.6669)"><tspan x="0" y="0" class="st2 st3 st4">S</tspan><tspan x="4.7" y="0" class="st2 st3 st4">t</tspan><tspan x="7.2" y="0" class="st2 st3 st4">op met uw symp</tspan><tspan x="65.6" y="0" class="st2 st3 st4">t</tspan><tspan x="68.1" y="0" class="st2 st3 st4">omen te googlen en ga </tspan></text>
<text transform="matrix(1 0 0 1 89.7514 565.2665)"><tspan x="0" y="0" class="st2 st3 st4">eens langs bij een echte dokte</tspan><tspan x="105" y="0" class="st2 st3 st4">r</tspan><tspan x="107.2" y="0" class="st2 st3 st4">.</tspan></text>
<text transform="matrix(1 0 0 1 83.854 23.3715)"><tspan x="0" y="0" class="st2 st8 st9">D</tspan><tspan x="13.1" y="0" class="st2 st8 st9 st10">r</tspan><tspan x="18.7" y="0" class="st2 st8 st9">. G</tspan></text>
<text transform="matrix(1 0 0 1 126.3759 23.3715)" class="st11 st8 st9">o</text>
<text transform="matrix(1 0 0 1 137.7763 23.3715)" class="st12 st8 st9">o</text>
<text transform="matrix(1 0 0 1 149.1762 23.3715)" class="st2 st8 st9">g</text>
<text transform="matrix(1 0 0 1 160.3964 23.3715)" class="st13 st8 st9">l</text>
<text transform="matrix(1 0 0 1 165.2563 23.3715)" class="st11 st8 st9">e</text>
</svg>
